<svg xmlns="http://www.w3.org/2000/svg" xmlns:xlink="http://www.w3.org/1999/xlink" id="body_60" preserveAspectRatio="xMinYMin meet" viewBox="0 0 1632 1056"><defs><clipPath id="1"><path id="" clip-rule="evenodd" transform="matrix(1 0 0 1 0 0)" d="M0 792L0 0L0 0L1224 0L1224 0L1224 792L1224 792L0 792z" /></clipPath></defs><g transform="matrix(1.333333 0 0 1.333333 0 0)"><g clip-path="url(#1)"><path id="1" transform="matrix(1 0 0 -1 0 792)" d="M666.067 721.28L1132.722 721.28" stroke="#000000" stroke-width="0.498" fill="none" /><path id="2" transform="matrix(1 0 0 -1 0 792)" d="M709.702 678.704L1089.088 678.704" stroke="#000000" stroke-width="0.398" fill="none" /><path id="3" transform="matrix(1 0 0 -1 0 792)" d="M709.901 664.938L709.901 678.505" stroke="#000000" stroke-width="0.398" fill="none" /><path id="4" transform="matrix(1 0 0 -1 0 792)" d="M710.1 664.938L902.055 664.938L902.055 678.505L710.1 678.505z" stroke="none" fill="#CCCCEB" fill-rule="nonzero" /><path id="10" transform="matrix(1 0 0 -1 0 792)" d="M902.255 664.938L902.255 678.505" stroke="#000000" stroke-width="0.398" fill="none" /><path id="11" transform="matrix(1 0 0 -1 0 792)" d="M902.454 664.938L961.078 664.938L961.078 678.505L902.454 678.505z" stroke="none" fill="#CCCCEB" fill-rule="nonzero" /><path id="21" transform="matrix(1 0 0 -1 0 792)" d="M961.277 664.938L961.277 678.505" stroke="#000000" stroke-width="0.398" fill="none" /><path id="22" transform="matrix(1 0 0 -1 0 792)" d="M961.476 664.938L1020.1 664.938L1020.1 678.505L961.476 678.505z" stroke="none" fill="#CCCCEB" fill-rule="nonzero" /><path id="30" transform="matrix(1 0 0 -1 0 792)" d="M1020.299 664.938L1020.299 678.505" stroke="#000000" stroke-width="0.398" fill="none" /><path id="31" transform="matrix(1 0 0 -1 0 792)" d="M1020.498 664.938L1088.689 664.938L1088.689 678.505L1020.498 678.505z" stroke="none" fill="#CCCCEB" fill-rule="nonzero" /><path id="35" transform="matrix(1 0 0 -1 0 792)" d="M1088.888 664.938L1088.888 678.505" stroke="#000000" stroke-width="0.398" fill="none" /><path id="36" transform="matrix(1 0 0 -1 0 792)" d="M709.901 651.372L709.901 664.939" stroke="#000000" stroke-width="0.398" fill="none" /><path id="37" transform="matrix(1 0 0 -1 0 792)" d="M710.1 651.372L902.055 651.372L902.055 664.939L710.1 664.939z" stroke="none" fill="#CCCCEB" fill-rule="nonzero" /><path id="38" transform="matrix(1 0 0 -1 0 792)" d="M902.255 651.372L902.255 664.939" stroke="#000000" stroke-width="0.398" fill="none" /><path id="39" transform="matrix(1 0 0 -1 0 792)" d="M902.454 651.372L961.078 651.372L961.078 664.939L902.454 664.939z" stroke="none" fill="#CCCCEB" fill-rule="nonzero" /><path id="40" transform="matrix(1 0 0 -1 0 792)" d="M961.277 651.372L961.277 664.939" stroke="#000000" stroke-width="0.398" fill="none" /><path id="41" transform="matrix(1 0 0 -1 0 792)" d="M961.476 651.372L1020.1 651.372L1020.1 664.939L961.476 664.939z" stroke="none" fill="#CCCCEB" fill-rule="nonzero" /><path id="47" transform="matrix(1 0 0 -1 0 792)" d="M1020.299 651.372L1020.299 664.939" stroke="#000000" stroke-width="0.398" fill="none" /><path id="48" transform="matrix(1 0 0 -1 0 792)" d="M1020.498 651.372L1088.689 651.372L1088.689 664.939L1020.498 664.939z" stroke="none" fill="#CCCCEB" fill-rule="nonzero" /><path id="49" transform="matrix(1 0 0 -1 0 792)" d="M1088.888 651.372L1088.888 664.939" stroke="#000000" stroke-width="0.398" fill="none" /><path id="50" transform="matrix(1 0 0 -1 0 792)" d="M709.702 651.173L1089.088 651.173" stroke="#000000" stroke-width="0.398" fill="none" /><path id="51" transform="matrix(1 0 0 -1 0 792)" d="M709.702 648.781L1089.088 648.781" stroke="#000000" stroke-width="0.398" fill="none" /><path id="52" transform="matrix(1 0 0 -1 0 792)" d="M709.901 635.016L709.901 648.583" stroke="#000000" stroke-width="0.398" fill="none" /><path id="58" transform="matrix(1 0 0 -1 0 792)" d="M746.564 639.297L749.553 639.297" stroke="#000000" stroke-width="0.398" fill="none" /><path id="63" transform="matrix(1 0 0 -1 0 792)" d="M902.255 635.016L902.255 648.583" stroke="#000000" stroke-width="0.398" fill="none" /><path id="65" transform="matrix(1 0 0 -1 0 792)" d="M961.277 635.016L961.277 648.583" stroke="#000000" stroke-width="0.398" fill="none" /><path id="67" transform="matrix(1 0 0 -1 0 792)" d="M1020.299 635.016L1020.299 648.583" stroke="#000000" stroke-width="0.398" fill="none" /><path id="69" transform="matrix(1 0 0 -1 0 792)" d="M1088.888 635.016L1088.888 648.583" stroke="#000000" stroke-width="0.398" fill="none" /><path id="70" transform="matrix(1 0 0 -1 0 792)" d="M709.702 634.816L1089.088 634.816" stroke="#000000" stroke-width="0.398" fill="none" /><path id="71" transform="matrix(1 0 0 -1 0 792)" d="M709.901 621.05L709.901 634.617" stroke="#000000" stroke-width="0.398" fill="none" /><path id="77" transform="matrix(1 0 0 -1 0 792)" d="M746.564 625.332L749.553 625.332" stroke="#000000" stroke-width="0.398" fill="none" /><path id="84" transform="matrix(1 0 0 -1 0 792)" d="M902.255 621.05L902.255 634.617" stroke="#000000" stroke-width="0.398" fill="none" /><path id="86" transform="matrix(1 0 0 -1 0 792)" d="M961.277 621.05L961.277 634.617" stroke="#000000" stroke-width="0.398" fill="none" /><path id="88" transform="matrix(1 0 0 -1 0 792)" d="M1020.299 621.05L1020.299 634.617" stroke="#000000" stroke-width="0.398" fill="none" /><path id="90" transform="matrix(1 0 0 -1 0 792)" d="M1088.888 621.05L1088.888 634.617" stroke="#000000" stroke-width="0.398" fill="none" /><path id="91" transform="matrix(1 0 0 -1 0 792)" d="M709.702 620.851L1089.088 620.851" stroke="#000000" stroke-width="0.398" fill="none" /><path id="92" transform="matrix(1 0 0 -1 0 792)" d="M709.901 607.085L709.901 620.652" stroke="#000000" stroke-width="0.398" fill="none" /><path id="98" transform="matrix(1 0 0 -1 0 792)" d="M746.564 611.367L749.553 611.367" stroke="#000000" stroke-width="0.398" fill="none" /><path id="105" transform="matrix(1 0 0 -1 0 792)" d="M902.255 607.085L902.255 620.652" stroke="#000000" stroke-width="0.398" fill="none" /><path id="107" transform="matrix(1 0 0 -1 0 792)" d="M961.277 607.085L961.277 620.652" stroke="#000000" stroke-width="0.398" fill="none" /><path id="109" transform="matrix(1 0 0 -1 0 792)" d="M1020.299 607.085L1020.299 620.652" stroke="#000000" stroke-width="0.398" fill="none" /><path id="111" transform="matrix(1 0 0 -1 0 792)" d="M1088.888 607.085L1088.888 620.652" stroke="#000000" stroke-width="0.398" fill="none" /><path id="112" transform="matrix(1 0 0 -1 0 792)" d="M709.702 606.886L1089.088 606.886" stroke="#000000" stroke-width="0.398" fill="none" /><path id="113" transform="matrix(1 0 0 -1 0 792)" d="M709.901 593.12L709.901 606.687" stroke="#000000" stroke-width="0.398" fill="none" /><path id="119" transform="matrix(1 0 0 -1 0 792)" d="M746.564 597.402L749.553 597.402" stroke="#000000" stroke-width="0.398" fill="none" /><path id="124" transform="matrix(1 0 0 -1 0 792)" d="M774.061 597.402L777.05 597.402" stroke="#000000" stroke-width="0.398" fill="none" /><path id="128" transform="matrix(1 0 0 -1 0 792)" d="M902.255 593.12L902.255 606.687" stroke="#000000" stroke-width="0.398" fill="none" /><path id="130" transform="matrix(1 0 0 -1 0 792)" d="M961.277 593.12L961.277 606.687" stroke="#000000" stroke-width="0.398" fill="none" /><path id="132" transform="matrix(1 0 0 -1 0 792)" d="M1020.299 593.12L1020.299 606.687" stroke="#000000" stroke-width="0.398" fill="none" /><path id="134" transform="matrix(1 0 0 -1 0 792)" d="M1088.888 593.12L1088.888 606.687" stroke="#000000" stroke-width="0.398" fill="none" /><path id="135" transform="matrix(1 0 0 -1 0 792)" d="M709.702 592.921L1089.088 592.921" stroke="#000000" stroke-width="0.398" fill="none" /><path id="136" transform="matrix(1 0 0 -1 0 792)" d="M709.901 579.155L709.901 592.722" stroke="#000000" stroke-width="0.398" fill="none" /><path id="142" transform="matrix(1 0 0 -1 0 792)" d="M746.564 583.437L749.553 583.437" stroke="#000000" stroke-width="0.398" fill="none" /><path id="147" transform="matrix(1 0 0 -1 0 792)" d="M774.061 583.437L777.05 583.437" stroke="#000000" stroke-width="0.398" fill="none" /><path id="151" transform="matrix(1 0 0 -1 0 792)" d="M902.255 579.155L902.255 592.722" stroke="#000000" stroke-width="0.398" fill="none" /><path id="153" transform="matrix(1 0 0 -1 0 792)" d="M961.277 579.155L961.277 592.722" stroke="#000000" stroke-width="0.398" fill="none" /><path id="155" transform="matrix(1 0 0 -1 0 792)" d="M1020.299 579.155L1020.299 592.722" stroke="#000000" stroke-width="0.398" fill="none" /><path id="157" transform="matrix(1 0 0 -1 0 792)" d="M1088.888 579.155L1088.888 592.722" stroke="#000000" stroke-width="0.398" fill="none" /><path id="158" transform="matrix(1 0 0 -1 0 792)" d="M709.702 578.956L1089.088 578.956" stroke="#000000" stroke-width="0.398" fill="none" /><path id="159" transform="matrix(1 0 0 -1 0 792)" d="M709.901 565.19L709.901 578.757" stroke="#000000" stroke-width="0.398" fill="none" /><path id="165" transform="matrix(1 0 0 -1 0 792)" d="M746.564 569.471L749.553 569.471" stroke="#000000" stroke-width="0.398" fill="none" /><path id="170" transform="matrix(1 0 0 -1 0 792)" d="M774.061 569.471L777.05 569.471" stroke="#000000" stroke-width="0.398" fill="none" /><path id="180" transform="matrix(1 0 0 -1 0 792)" d="M831.445 569.471L834.434 569.471" stroke="#000000" stroke-width="0.398" fill="none" /><path id="185" transform="matrix(1 0 0 -1 0 792)" d="M902.255 565.19L902.255 578.757" stroke="#000000" stroke-width="0.398" fill="none" /><path id="187" transform="matrix(1 0 0 -1 0 792)" d="M961.277 565.19L961.277 578.757" stroke="#000000" stroke-width="0.398" fill="none" /><path id="189" transform="matrix(1 0 0 -1 0 792)" d="M1020.299 565.19L1020.299 578.757" stroke="#000000" stroke-width="0.398" fill="none" /><path id="191" transform="matrix(1 0 0 -1 0 792)" d="M1088.888 565.19L1088.888 578.757" stroke="#000000" stroke-width="0.398" fill="none" /><path id="192" transform="matrix(1 0 0 -1 0 792)" d="M709.702 564.991L1089.088 564.991" stroke="#000000" stroke-width="0.398" fill="none" /><path id="193" transform="matrix(1 0 0 -1 0 792)" d="M709.901 551.225L709.901 564.792" stroke="#000000" stroke-width="0.398" fill="none" /><path id="199" transform="matrix(1 0 0 -1 0 792)" d="M746.564 555.506L749.553 555.506" stroke="#000000" stroke-width="0.398" fill="none" /><path id="208" transform="matrix(1 0 0 -1 0 792)" d="M797.9709 555.506L800.96 555.506" stroke="#000000" stroke-width="0.398" fill="none" /><path id="220" transform="matrix(1 0 0 -1 0 792)" d="M902.255 551.225L902.255 564.792" stroke="#000000" stroke-width="0.398" fill="none" /><path id="222" transform="matrix(1 0 0 -1 0 792)" d="M961.277 551.225L961.277 564.792" stroke="#000000" stroke-width="0.398" fill="none" /><path id="224" transform="matrix(1 0 0 -1 0 792)" d="M1020.299 551.225L1020.299 564.792" stroke="#000000" stroke-width="0.398" fill="none" /><path id="226" transform="matrix(1 0 0 -1 0 792)" d="M1088.888 551.225L1088.888 564.792" stroke="#000000" stroke-width="0.398" fill="none" /><path id="227" transform="matrix(1 0 0 -1 0 792)" d="M709.702 551.025L1089.088 551.025" stroke="#000000" stroke-width="0.398" fill="none" /><path id="228" transform="matrix(1 0 0 -1 0 792)" d="M709.901 537.26L709.901 550.827" stroke="#000000" stroke-width="0.398" fill="none" /><path id="234" transform="matrix(1 0 0 -1 0 792)" d="M746.564 541.541L749.553 541.541" stroke="#000000" stroke-width="0.398" fill="none" /><path id="241" transform="matrix(1 0 0 -1 0 792)" d="M786.016 541.541L789.005 541.541" stroke="#000000" stroke-width="0.398" fill="none" /><path id="247" transform="matrix(1 0 0 -1 0 792)" d="M819.49 541.541L822.479 541.541" stroke="#000000" stroke-width="0.398" fill="none" /><path id="254" transform="matrix(1 0 0 -1 0 792)" d="M902.255 537.26L902.255 550.827" stroke="#000000" stroke-width="0.398" fill="none" /><path id="256" transform="matrix(1 0 0 -1 0 792)" d="M961.277 537.26L961.277 550.827" stroke="#000000" stroke-width="0.398" fill="none" /><path id="258" transform="matrix(1 0 0 -1 0 792)" d="M1020.299 537.26L1020.299 550.827" stroke="#000000" stroke-width="0.398" fill="none" /><path id="260" transform="matrix(1 0 0 -1 0 792)" d="M1088.888 537.26L1088.888 550.827" stroke="#000000" stroke-width="0.398" fill="none" /><path id="261" transform="matrix(1 0 0 -1 0 792)" d="M709.702 537.06L1089.088 537.06" stroke="#000000" stroke-width="0.398" fill="none" /><path id="262" transform="matrix(1 0 0 -1 0 792)" d="M709.901 523.294L709.901 536.861" stroke="#000000" stroke-width="0.398" fill="none" /><path id="267" transform="matrix(1 0 0 -1 0 792)" d="M740.586 527.576L743.575 527.576" stroke="#000000" stroke-width="0.398" fill="none" /><path id="273" transform="matrix(1 0 0 -1 0 792)" d="M902.255 523.294L902.255 536.861" stroke="#000000" stroke-width="0.398" fill="none" /><path id="275" transform="matrix(1 0 0 -1 0 792)" d="M961.277 523.294L961.277 536.861" stroke="#000000" stroke-width="0.398" fill="none" /><path id="279" transform="matrix(1 0 0 -1 0 792)" d="M1020.299 523.294L1020.299 536.861" stroke="#000000" stroke-width="0.398" fill="none" /><path id="289" transform="matrix(1 0 0 -1 0 792)" d="M1088.888 523.294L1088.888 536.861" stroke="#000000" stroke-width="0.398" fill="none" /><path id="290" transform="matrix(1 0 0 -1 0 792)" d="M709.702 523.095L1089.088 523.095" stroke="#000000" stroke-width="0.398" fill="none" /><path id="291" transform="matrix(1 0 0 -1 0 792)" d="M709.901 509.329L709.901 522.896" stroke="#000000" stroke-width="0.398" fill="none" /><path id="296" transform="matrix(1 0 0 -1 0 792)" d="M740.586 513.611L743.575 513.611" stroke="#000000" stroke-width="0.398" fill="none" /><path id="303" transform="matrix(1 0 0 -1 0 792)" d="M902.255 509.329L902.255 522.896" stroke="#000000" stroke-width="0.398" fill="none" /><path id="305" transform="matrix(1 0 0 -1 0 792)" d="M961.277 509.329L961.277 522.896" stroke="#000000" stroke-width="0.398" fill="none" /><path id="307" transform="matrix(1 0 0 -1 0 792)" d="M1020.299 509.329L1020.299 522.896" stroke="#000000" stroke-width="0.398" fill="none" /><path id="309" transform="matrix(1 0 0 -1 0 792)" d="M1088.888 509.329L1088.888 522.896" stroke="#000000" stroke-width="0.398" fill="none" /><path id="310" transform="matrix(1 0 0 -1 0 792)" d="M709.702 509.13L1089.088 509.13" stroke="#000000" stroke-width="0.398" fill="none" /><path id="311" transform="matrix(1 0 0 -1 0 792)" d="M709.901 495.364L709.901 508.931" stroke="#000000" stroke-width="0.398" fill="none" /><path id="316" transform="matrix(1 0 0 -1 0 792)" d="M740.586 499.646L743.575 499.646" stroke="#000000" stroke-width="0.398" fill="none" /><path id="324" transform="matrix(1 0 0 -1 0 792)" d="M786.016 499.646L789.005 499.646" stroke="#000000" stroke-width="0.398" fill="none" /><path id="332" transform="matrix(1 0 0 -1 0 792)" d="M902.255 495.364L902.255 508.931" stroke="#000000" stroke-width="0.398" fill="none" /><path id="334" transform="matrix(1 0 0 -1 0 792)" d="M961.277 495.364L961.277 508.931" stroke="#000000" stroke-width="0.398" fill="none" /><path id="336" transform="matrix(1 0 0 -1 0 792)" d="M1020.299 495.364L1020.299 508.931" stroke="#000000" stroke-width="0.398" fill="none" /><path id="338" transform="matrix(1 0 0 -1 0 792)" d="M1088.888 495.364L1088.888 508.931" stroke="#000000" stroke-width="0.398" fill="none" /><path id="339" transform="matrix(1 0 0 -1 0 792)" d="M709.702 495.165L1089.088 495.165" stroke="#000000" stroke-width="0.398" fill="none" /><path id="340" transform="matrix(1 0 0 -1 0 792)" d="M709.901 481.399L709.901 494.966" stroke="#000000" stroke-width="0.398" fill="none" /><path id="345" transform="matrix(1 0 0 -1 0 792)" d="M740.586 485.68L743.575 485.68" stroke="#000000" stroke-width="0.398" fill="none" /><path id="353" transform="matrix(1 0 0 -1 0 792)" d="M786.016 485.68L789.005 485.68" stroke="#000000" stroke-width="0.398" fill="none" /><path id="360" transform="matrix(1 0 0 -1 0 792)" d="M902.255 481.399L902.255 494.966" stroke="#000000" stroke-width="0.398" fill="none" /><path id="362" transform="matrix(1 0 0 -1 0 792)" d="M961.277 481.399L961.277 494.966" stroke="#000000" stroke-width="0.398" fill="none" /><path id="364" transform="matrix(1 0 0 -1 0 792)" d="M1020.299 481.399L1020.299 494.966" stroke="#000000" stroke-width="0.398" fill="none" /><path id="366" transform="matrix(1 0 0 -1 0 792)" d="M1088.888 481.399L1088.888 494.966" stroke="#000000" stroke-width="0.398" fill="none" /><path id="367" transform="matrix(1 0 0 -1 0 792)" d="M709.702 481.2L1089.088 481.2" stroke="#000000" stroke-width="0.398" fill="none" /><path id="368" transform="matrix(1 0 0 -1 0 792)" d="M709.901 467.434L709.901 481.001" stroke="#000000" stroke-width="0.398" fill="none" /><path id="373" transform="matrix(1 0 0 -1 0 792)" d="M740.586 471.715L743.575 471.715" stroke="#000000" stroke-width="0.398" fill="none" /><path id="381" transform="matrix(1 0 0 -1 0 792)" d="M902.255 467.434L902.255 481.001" stroke="#000000" stroke-width="0.398" fill="none" /><path id="383" transform="matrix(1 0 0 -1 0 792)" d="M961.277 467.434L961.277 481.001" stroke="#000000" stroke-width="0.398" fill="none" /><path id="385" transform="matrix(1 0 0 -1 0 792)" d="M1020.299 467.434L1020.299 481.001" stroke="#000000" stroke-width="0.398" fill="none" /><path id="387" transform="matrix(1 0 0 -1 0 792)" d="M1088.888 467.434L1088.888 481.001" stroke="#000000" stroke-width="0.398" fill="none" /><path id="388" transform="matrix(1 0 0 -1 0 792)" d="M709.702 467.235L1089.088 467.235" stroke="#000000" stroke-width="0.398" fill="none" /><path id="389" transform="matrix(1 0 0 -1 0 792)" d="M709.901 453.469L709.901 467.036" stroke="#000000" stroke-width="0.398" fill="none" /><path id="394" transform="matrix(1 0 0 -1 0 792)" d="M740.586 457.75L743.575 457.75" stroke="#000000" stroke-width="0.398" fill="none" /><path id="399" transform="matrix(1 0 0 -1 0 792)" d="M902.255 453.469L902.255 467.036" stroke="#000000" stroke-width="0.398" fill="none" /><path id="401" transform="matrix(1 0 0 -1 0 792)" d="M961.277 453.469L961.277 467.036" stroke="#000000" stroke-width="0.398" fill="none" /><path id="407" transform="matrix(1 0 0 -1 0 792)" d="M1020.299 453.469L1020.299 467.036" stroke="#000000" stroke-width="0.398" fill="none" /><path id="417" transform="matrix(1 0 0 -1 0 792)" d="M1088.888 453.469L1088.888 467.036" stroke="#000000" stroke-width="0.398" fill="none" /><path id="418" transform="matrix(1 0 0 -1 0 792)" d="M709.702 453.269L1089.088 453.269" stroke="#000000" stroke-width="0.398" fill="none" /><path id="419" transform="matrix(1 0 0 -1 0 792)" d="M709.901 439.504L709.901 453.071" stroke="#000000" stroke-width="0.398" fill="none" /><path id="424" transform="matrix(1 0 0 -1 0 792)" d="M740.586 443.785L743.575 443.785" stroke="#000000" stroke-width="0.398" fill="none" /><path id="429" transform="matrix(1 0 0 -1 0 792)" d="M768.0829 443.785L771.072 443.785" stroke="#000000" stroke-width="0.398" fill="none" /><path id="434" transform="matrix(1 0 0 -1 0 792)" d="M902.255 439.504L902.255 453.071" stroke="#000000" stroke-width="0.398" fill="none" /><path id="436" transform="matrix(1 0 0 -1 0 792)" d="M961.277 439.504L961.277 453.071" stroke="#000000" stroke-width="0.398" fill="none" /><path id="441" transform="matrix(1 0 0 -1 0 792)" d="M1020.299 439.504L1020.299 453.071" stroke="#000000" stroke-width="0.398" fill="none" /><path id="453" transform="matrix(1 0 0 -1 0 792)" d="M1088.888 439.504L1088.888 453.071" stroke="#000000" stroke-width="0.398" fill="none" /><path id="454" transform="matrix(1 0 0 -1 0 792)" d="M709.702 439.304L1089.088 439.304" stroke="#000000" stroke-width="0.398" fill="none" /><path id="455" transform="matrix(1 0 0 -1 0 792)" d="M709.901 425.538L709.901 439.105" stroke="#000000" stroke-width="0.398" fill="none" /><path id="461" transform="matrix(1 0 0 -1 0 792)" d="M746.564 429.82L749.553 429.82" stroke="#000000" stroke-width="0.398" fill="none" /><path id="466" transform="matrix(1 0 0 -1 0 792)" d="M902.255 425.538L902.255 439.105" stroke="#000000" stroke-width="0.398" fill="none" /><path id="468" transform="matrix(1 0 0 -1 0 792)" d="M961.277 425.538L961.277 439.105" stroke="#000000" stroke-width="0.398" fill="none" /><path id="472" transform="matrix(1 0 0 -1 0 792)" d="M1020.299 425.538L1020.299 439.105" stroke="#000000" stroke-width="0.398" fill="none" /><path id="484" transform="matrix(1 0 0 -1 0 792)" d="M1088.888 425.538L1088.888 439.105" stroke="#000000" stroke-width="0.398" fill="none" /><path id="485" transform="matrix(1 0 0 -1 0 792)" d="M709.702 425.339L1089.088 425.339" stroke="#000000" stroke-width="0.398" fill="none" /><path id="486" transform="matrix(1 0 0 -1 0 792)" d="M709.901 411.573L709.901 425.14" stroke="#000000" stroke-width="0.398" fill="none" /><path id="494" transform="matrix(1 0 0 -1 0 792)" d="M758.519 415.855L761.508 415.855" stroke="#000000" stroke-width="0.398" fill="none" /><path id="501" transform="matrix(1 0 0 -1 0 792)" d="M902.255 411.573L902.255 425.14" stroke="#000000" stroke-width="0.398" fill="none" /><path id="503" transform="matrix(1 0 0 -1 0 792)" d="M961.277 411.573L961.277 425.14" stroke="#000000" stroke-width="0.398" fill="none" /><path id="505" transform="matrix(1 0 0 -1 0 792)" d="M1020.299 411.573L1020.299 425.14" stroke="#000000" stroke-width="0.398" fill="none" /><path id="507" transform="matrix(1 0 0 -1 0 792)" d="M1088.888 411.573L1088.888 425.14" stroke="#000000" stroke-width="0.398" fill="none" /><path id="508" transform="matrix(1 0 0 -1 0 792)" d="M709.702 411.374L1089.088 411.374" stroke="#000000" stroke-width="0.398" fill="none" /><path id="509" transform="matrix(1 0 0 -1 0 792)" d="M709.901 397.608L709.901 411.175" stroke="#000000" stroke-width="0.398" fill="none" /><path id="517" transform="matrix(1 0 0 -1 0 792)" d="M758.519 401.89L761.508 401.89" stroke="#000000" stroke-width="0.398" fill="none" /><path id="522" transform="matrix(1 0 0 -1 0 792)" d="M902.255 397.608L902.255 411.175" stroke="#000000" stroke-width="0.398" fill="none" /><path id="524" transform="matrix(1 0 0 -1 0 792)" d="M961.277 397.608L961.277 411.175" stroke="#000000" stroke-width="0.398" fill="none" /><path id="526" transform="matrix(1 0 0 -1 0 792)" d="M1020.299 397.608L1020.299 411.175" stroke="#000000" stroke-width="0.398" fill="none" /><path id="528" transform="matrix(1 0 0 -1 0 792)" d="M1088.888 397.608L1088.888 411.175" stroke="#000000" stroke-width="0.398" fill="none" /><path id="529" transform="matrix(1 0 0 -1 0 792)" d="M709.702 397.409L1089.088 397.409" stroke="#000000" stroke-width="0.398" fill="none" /><path id="530" transform="matrix(1 0 0 -1 0 792)" d="M709.901 383.643L709.901 397.21" stroke="#000000" stroke-width="0.398" fill="none" /><path id="538" transform="matrix(1 0 0 -1 0 792)" d="M758.519 387.924L761.508 387.924" stroke="#000000" stroke-width="0.398" fill="none" /><path id="545" transform="matrix(1 0 0 -1 0 792)" d="M797.9709 387.924L800.96 387.924" stroke="#000000" stroke-width="0.398" fill="none" /><path id="552" transform="matrix(1 0 0 -1 0 792)" d="M902.255 383.643L902.255 397.21" stroke="#000000" stroke-width="0.398" fill="none" /><path id="554" transform="matrix(1 0 0 -1 0 792)" d="M961.277 383.643L961.277 397.21" stroke="#000000" stroke-width="0.398" fill="none" /><path id="556" transform="matrix(1 0 0 -1 0 792)" d="M1020.299 383.643L1020.299 397.21" stroke="#000000" stroke-width="0.398" fill="none" /><path id="566" transform="matrix(1 0 0 -1 0 792)" d="M1088.888 383.643L1088.888 397.21" stroke="#000000" stroke-width="0.398" fill="none" /><path id="567" transform="matrix(1 0 0 -1 0 792)" d="M709.702 383.444L1089.088 383.444" stroke="#000000" stroke-width="0.398" fill="none" /><path id="568" transform="matrix(1 0 0 -1 0 792)" d="M709.901 369.678L709.901 383.245" stroke="#000000" stroke-width="0.398" fill="none" /><path id="576" transform="matrix(1 0 0 -1 0 792)" d="M758.519 373.959L761.508 373.959" stroke="#000000" stroke-width="0.398" fill="none" /><path id="583" transform="matrix(1 0 0 -1 0 792)" d="M797.9709 373.959L800.96 373.959" stroke="#000000" stroke-width="0.398" fill="none" /><path id="589" transform="matrix(1 0 0 -1 0 792)" d="M902.255 369.678L902.255 383.245" stroke="#000000" stroke-width="0.398" fill="none" /><path id="591" transform="matrix(1 0 0 -1 0 792)" d="M961.277 369.678L961.277 383.245" stroke="#000000" stroke-width="0.398" fill="none" /><path id="593" transform="matrix(1 0 0 -1 0 792)" d="M1020.299 369.678L1020.299 383.245" stroke="#000000" stroke-width="0.398" fill="none" /><path id="603" transform="matrix(1 0 0 -1 0 792)" d="M1088.888 369.678L1088.888 383.245" stroke="#000000" stroke-width="0.398" fill="none" /><path id="604" transform="matrix(1 0 0 -1 0 792)" d="M709.702 369.479L1089.088 369.479" stroke="#000000" stroke-width="0.398" fill="none" /><path id="605" transform="matrix(1 0 0 -1 0 792)" d="M709.901 355.713L709.901 369.28" stroke="#000000" stroke-width="0.398" fill="none" /><path id="613" transform="matrix(1 0 0 -1 0 792)" d="M758.519 359.994L761.508 359.994" stroke="#000000" stroke-width="0.398" fill="none" /><path id="620" transform="matrix(1 0 0 -1 0 792)" d="M797.9709 359.994L800.96 359.994" stroke="#000000" stroke-width="0.398" fill="none" /><path id="626" transform="matrix(1 0 0 -1 0 792)" d="M902.255 355.713L902.255 369.28" stroke="#000000" stroke-width="0.398" fill="none" /><path id="628" transform="matrix(1 0 0 -1 0 792)" d="M961.277 355.713L961.277 369.28" stroke="#000000" stroke-width="0.398" fill="none" /><path id="630" transform="matrix(1 0 0 -1 0 792)" d="M1020.299 355.713L1020.299 369.28" stroke="#000000" stroke-width="0.398" fill="none" /><path id="632" transform="matrix(1 0 0 -1 0 792)" d="M1088.888 355.713L1088.888 369.28" stroke="#000000" stroke-width="0.398" fill="none" /><path id="633" transform="matrix(1 0 0 -1 0 792)" d="M709.702 355.513L1089.088 355.513" stroke="#000000" stroke-width="0.398" fill="none" /><path id="634" transform="matrix(1 0 0 -1 0 792)" d="M709.901 341.747L709.901 355.314" stroke="#000000" stroke-width="0.398" fill="none" /><path id="642" transform="matrix(1 0 0 -1 0 792)" d="M758.519 346.029L761.508 346.029" stroke="#000000" stroke-width="0.398" fill="none" /><path id="649" transform="matrix(1 0 0 -1 0 792)" d="M797.9709 346.029L800.96 346.029" stroke="#000000" stroke-width="0.398" fill="none" /><path id="654" transform="matrix(1 0 0 -1 0 792)" d="M902.255 341.747L902.255 355.314" stroke="#000000" stroke-width="0.398" fill="none" /><path id="656" transform="matrix(1 0 0 -1 0 792)" d="M961.277 341.747L961.277 355.314" stroke="#000000" stroke-width="0.398" fill="none" /><path id="658" transform="matrix(1 0 0 -1 0 792)" d="M1020.299 341.747L1020.299 355.314" stroke="#000000" stroke-width="0.398" fill="none" /><path id="660" transform="matrix(1 0 0 -1 0 792)" d="M1088.888 341.747L1088.888 355.314" stroke="#000000" stroke-width="0.398" fill="none" /><path id="661" transform="matrix(1 0 0 -1 0 792)" d="M709.702 341.548L1089.088 341.548" stroke="#000000" stroke-width="0.398" fill="none" /><path id="662" transform="matrix(1 0 0 -1 0 792)" d="M709.901 327.782L709.901 341.349" stroke="#000000" stroke-width="0.398" fill="none" /><path id="670" transform="matrix(1 0 0 -1 0 792)" d="M758.519 332.064L761.508 332.064" stroke="#000000" stroke-width="0.398" fill="none" /><path id="677" transform="matrix(1 0 0 -1 0 792)" d="M797.9709 332.064L800.96 332.064" stroke="#000000" stroke-width="0.398" fill="none" /><path id="682" transform="matrix(1 0 0 -1 0 792)" d="M902.255 327.782L902.255 341.349" stroke="#000000" stroke-width="0.398" fill="none" /><path id="684" transform="matrix(1 0 0 -1 0 792)" d="M961.277 327.782L961.277 341.349" stroke="#000000" stroke-width="0.398" fill="none" /><path id="690" transform="matrix(1 0 0 -1 0 792)" d="M1020.299 327.782L1020.299 341.349" stroke="#000000" stroke-width="0.398" fill="none" /><path id="700" transform="matrix(1 0 0 -1 0 792)" d="M1088.888 327.782L1088.888 341.349" stroke="#000000" stroke-width="0.398" fill="none" /><path id="701" transform="matrix(1 0 0 -1 0 792)" d="M709.702 327.583L1089.088 327.583" stroke="#000000" stroke-width="0.398" fill="none" /><path id="702" transform="matrix(1 0 0 -1 0 792)" d="M709.901 313.817L709.901 327.384" stroke="#000000" stroke-width="0.398" fill="none" /><path id="710" transform="matrix(1 0 0 -1 0 792)" d="M758.519 318.099L761.508 318.099" stroke="#000000" stroke-width="0.398" fill="none" /><path id="718" transform="matrix(1 0 0 -1 0 792)" d="M902.255 313.817L902.255 327.384" stroke="#000000" stroke-width="0.398" fill="none" /><path id="720" transform="matrix(1 0 0 -1 0 792)" d="M961.277 313.817L961.277 327.384" stroke="#000000" stroke-width="0.398" fill="none" /><path id="722" transform="matrix(1 0 0 -1 0 792)" d="M1020.299 313.817L1020.299 327.384" stroke="#000000" stroke-width="0.398" fill="none" /><path id="724" transform="matrix(1 0 0 -1 0 792)" d="M1088.888 313.817L1088.888 327.384" stroke="#000000" stroke-width="0.398" fill="none" /><path id="725" transform="matrix(1 0 0 -1 0 792)" d="M709.702 313.618L1089.088 313.618" stroke="#000000" stroke-width="0.398" fill="none" /><path id="749" transform="matrix(1 0 0 -1 0 792)" d="M708.038 234.344L1090.751 234.344" stroke="#000000" stroke-width="0.398" fill="none" /><path id="750" transform="matrix(1 0 0 -1 0 792)" d="M708.237 220.578L708.237 234.145" stroke="#000000" stroke-width="0.398" fill="none" /><path id="751" transform="matrix(1 0 0 -1 0 792)" d="M708.437 220.578L900.392 220.578L900.392 234.145L708.437 234.145z" stroke="none" fill="#CCCCEB" fill-rule="nonzero" /><path id="757" transform="matrix(1 0 0 -1 0 792)" d="M900.591 220.578L900.591 234.145" stroke="#000000" stroke-width="0.398" fill="none" /><path id="758" transform="matrix(1 0 0 -1 0 792)" d="M900.79 220.578L959.414 220.578L959.414 234.145L900.79 234.145z" stroke="none" fill="#CCCCEB" fill-rule="nonzero" /><path id="768" transform="matrix(1 0 0 -1 0 792)" d="M959.613 220.578L959.613 234.145" stroke="#000000" stroke-width="0.398" fill="none" /><path id="769" transform="matrix(1 0 0 -1 0 792)" d="M959.812 220.578L1018.436 220.578L1018.436 234.145L959.812 234.145z" stroke="none" fill="#CCCCEB" fill-rule="nonzero" /><path id="777" transform="matrix(1 0 0 -1 0 792)" d="M1018.635 220.578L1018.635 234.145" stroke="#000000" stroke-width="0.398" fill="none" /><path id="778" transform="matrix(1 0 0 -1 0 792)" d="M1018.835 220.578L1090.353 220.578L1090.353 234.145L1018.835 234.145z" stroke="none" fill="#CCCCEB" fill-rule="nonzero" /><path id="782" transform="matrix(1 0 0 -1 0 792)" d="M1090.552 220.578L1090.552 234.145" stroke="#000000" stroke-width="0.398" fill="none" /><path id="783" transform="matrix(1 0 0 -1 0 792)" d="M708.237 207.012L708.237 220.579" stroke="#000000" stroke-width="0.398" fill="none" /><path id="784" transform="matrix(1 0 0 -1 0 792)" d="M708.437 207.012L900.392 207.012L900.392 220.579L708.437 220.579z" stroke="none" fill="#CCCCEB" fill-rule="nonzero" /><path id="785" transform="matrix(1 0 0 -1 0 792)" d="M900.591 207.012L900.591 220.579" stroke="#000000" stroke-width="0.398" fill="none" /><path id="786" transform="matrix(1 0 0 -1 0 792)" d="M900.79 207.012L959.414 207.012L959.414 220.579L900.79 220.579z" stroke="none" fill="#CCCCEB" fill-rule="nonzero" /><path id="787" transform="matrix(1 0 0 -1 0 792)" d="M959.613 207.012L959.613 220.579" stroke="#000000" stroke-width="0.398" fill="none" /><path id="788" transform="matrix(1 0 0 -1 0 792)" d="M959.812 207.012L1018.436 207.012L1018.436 220.579L959.812 220.579z" stroke="none" fill="#CCCCEB" fill-rule="nonzero" /><path id="794" transform="matrix(1 0 0 -1 0 792)" d="M1018.635 207.012L1018.635 220.579" stroke="#000000" stroke-width="0.398" fill="none" /><path id="795" transform="matrix(1 0 0 -1 0 792)" d="M1018.835 207.012L1090.353 207.012L1090.353 220.579L1018.835 220.579z" stroke="none" fill="#CCCCEB" fill-rule="nonzero" /><path id="796" transform="matrix(1 0 0 -1 0 792)" d="M1090.552 207.012L1090.552 220.579" stroke="#000000" stroke-width="0.398" fill="none" /><path id="797" transform="matrix(1 0 0 -1 0 792)" d="M708.038 206.812L1090.751 206.812" stroke="#000000" stroke-width="0.398" fill="none" /><path id="798" transform="matrix(1 0 0 -1 0 792)" d="M708.038 204.421L1090.751 204.421" stroke="#000000" stroke-width="0.398" fill="none" /><path id="799" transform="matrix(1 0 0 -1 0 792)" d="M708.237 190.655L708.237 204.222" stroke="#000000" stroke-width="0.398" fill="none" /><path id="811" transform="matrix(1 0 0 -1 0 792)" d="M900.591 190.655L900.591 204.222" stroke="#000000" stroke-width="0.398" fill="none" /><path id="813" transform="matrix(1 0 0 -1 0 792)" d="M959.613 190.655L959.613 204.222" stroke="#000000" stroke-width="0.398" fill="none" /><path id="815" transform="matrix(1 0 0 -1 0 792)" d="M1018.635 190.655L1018.635 204.222" stroke="#000000" stroke-width="0.398" fill="none" /><path id="817" transform="matrix(1 0 0 -1 0 792)" d="M1090.552 190.655L1090.552 204.222" stroke="#000000" stroke-width="0.398" fill="none" /><path id="818" transform="matrix(1 0 0 -1 0 792)" d="M708.038 190.456L1090.751 190.456" stroke="#000000" stroke-width="0.398" fill="none" /><path id="819" transform="matrix(1 0 0 -1 0 792)" d="M708.237 176.69L708.237 190.257" stroke="#000000" stroke-width="0.398" fill="none" /><path id="826" transform="matrix(1 0 0 -1 0 792)" d="M750.877 180.972L753.866 180.972" stroke="#000000" stroke-width="0.398" fill="none" /><path id="832" transform="matrix(1 0 0 -1 0 792)" d="M784.352 180.972L787.341 180.972" stroke="#000000" stroke-width="0.398" fill="none" /><path id="835" transform="matrix(1 0 0 -1 0 792)" d="M799.894 180.972L802.883 180.972" stroke="#000000" stroke-width="0.398" fill="none" /><path id="844" transform="matrix(1 0 0 -1 0 792)" d="M900.591 176.69L900.591 190.257" stroke="#000000" stroke-width="0.398" fill="none" /><path id="846" transform="matrix(1 0 0 -1 0 792)" d="M959.613 176.69L959.613 190.257" stroke="#000000" stroke-width="0.398" fill="none" /><path id="852" transform="matrix(1 0 0 -1 0 792)" d="M1018.635 176.69L1018.635 190.257" stroke="#000000" stroke-width="0.398" fill="none" /><path id="862" transform="matrix(1 0 0 -1 0 792)" d="M1090.552 176.69L1090.552 190.257" stroke="#000000" stroke-width="0.398" fill="none" /><path id="863" transform="matrix(1 0 0 -1 0 792)" d="M708.038 176.491L1090.751 176.491" stroke="#000000" stroke-width="0.398" fill="none" /><path id="864" transform="matrix(1 0 0 -1 0 792)" d="M708.237 162.725L708.237 176.292" stroke="#000000" stroke-width="0.398" fill="none" /><path id="871" transform="matrix(1 0 0 -1 0 792)" d="M750.877 167.007L753.866 167.007" stroke="#000000" stroke-width="0.398" fill="none" /><path id="877" transform="matrix(1 0 0 -1 0 792)" d="M784.352 167.007L787.341 167.007" stroke="#000000" stroke-width="0.398" fill="none" /><path id="880" transform="matrix(1 0 0 -1 0 792)" d="M799.894 167.007L802.883 167.007" stroke="#000000" stroke-width="0.398" fill="none" /><path id="884" transform="matrix(1 0 0 -1 0 792)" d="M900.591 162.725L900.591 176.292" stroke="#000000" stroke-width="0.398" fill="none" /><path id="886" transform="matrix(1 0 0 -1 0 792)" d="M959.613 162.725L959.613 176.292" stroke="#000000" stroke-width="0.398" fill="none" /><path id="888" transform="matrix(1 0 0 -1 0 792)" d="M1018.635 162.725L1018.635 176.292" stroke="#000000" stroke-width="0.398" fill="none" /><path id="890" transform="matrix(1 0 0 -1 0 792)" d="M1090.552 162.725L1090.552 176.292" stroke="#000000" stroke-width="0.398" fill="none" /><path id="891" transform="matrix(1 0 0 -1 0 792)" d="M708.038 162.526L1090.751 162.526" stroke="#000000" stroke-width="0.398" fill="none" /><path id="892" transform="matrix(1 0 0 -1 0 792)" d="M708.237 148.76L708.237 162.327" stroke="#000000" stroke-width="0.398" fill="none" /><path id="899" transform="matrix(1 0 0 -1 0 792)" d="M750.877 153.041L753.866 153.041" stroke="#000000" stroke-width="0.398" fill="none" /><path id="908" transform="matrix(1 0 0 -1 0 792)" d="M900.591 148.76L900.591 162.327" stroke="#000000" stroke-width="0.398" fill="none" /><path id="910" transform="matrix(1 0 0 -1 0 792)" d="M959.613 148.76L959.613 162.327" stroke="#000000" stroke-width="0.398" fill="none" /><path id="916" transform="matrix(1 0 0 -1 0 792)" d="M1018.635 148.76L1018.635 162.327" stroke="#000000" stroke-width="0.398" fill="none" /><path id="926" transform="matrix(1 0 0 -1 0 792)" d="M1090.552 148.76L1090.552 162.327" stroke="#000000" stroke-width="0.398" fill="none" /><path id="927" transform="matrix(1 0 0 -1 0 792)" d="M708.038 148.561L1090.751 148.561" stroke="#000000" stroke-width="0.398" fill="none" /><path id="928" transform="matrix(1 0 0 -1 0 792)" d="M708.237 134.795L708.237 148.362" stroke="#000000" stroke-width="0.398" fill="none" /><path id="935" transform="matrix(1 0 0 -1 0 792)" d="M750.877 139.076L753.866 139.076" stroke="#000000" stroke-width="0.398" fill="none" /><path id="944" transform="matrix(1 0 0 -1 0 792)" d="M802.285 139.076L805.274 139.076" stroke="#000000" stroke-width="0.398" fill="none" /><path id="950" transform="matrix(1 0 0 -1 0 792)" d="M900.591 134.795L900.591 148.362" stroke="#000000" stroke-width="0.398" fill="none" /><path id="952" transform="matrix(1 0 0 -1 0 792)" d="M959.613 134.795L959.613 148.362" stroke="#000000" stroke-width="0.398" fill="none" /><path id="954" transform="matrix(1 0 0 -1 0 792)" d="M1018.635 134.795L1018.635 148.362" stroke="#000000" stroke-width="0.398" fill="none" /><path id="964" transform="matrix(1 0 0 -1 0 792)" d="M1090.552 134.795L1090.552 148.362" stroke="#000000" stroke-width="0.398" fill="none" /><path id="965" transform="matrix(1 0 0 -1 0 792)" d="M708.038 134.596L1090.751 134.596" stroke="#000000" stroke-width="0.398" fill="none" /><path id="966" transform="matrix(1 0 0 -1 0 792)" d="M708.237 120.83L708.237 134.397" stroke="#000000" stroke-width="0.398" fill="none" /><path id="973" transform="matrix(1 0 0 -1 0 792)" d="M750.877 125.111L753.866 125.111" stroke="#000000" stroke-width="0.398" fill="none" /><path id="982" transform="matrix(1 0 0 -1 0 792)" d="M802.285 125.111L805.274 125.111" stroke="#000000" stroke-width="0.398" fill="none" /><path id="989" transform="matrix(1 0 0 -1 0 792)" d="M900.591 120.83L900.591 134.397" stroke="#000000" stroke-width="0.398" fill="none" /><path id="991" transform="matrix(1 0 0 -1 0 792)" d="M959.613 120.83L959.613 134.397" stroke="#000000" stroke-width="0.398" fill="none" /><path id="997" transform="matrix(1 0 0 -1 0 792)" d="M1018.635 120.83L1018.635 134.397" stroke="#000000" stroke-width="0.398" fill="none" /><path id="1009" transform="matrix(1 0 0 -1 0 792)" d="M1090.552 120.83L1090.552 134.397" stroke="#000000" stroke-width="0.398" fill="none" /><path id="1010" transform="matrix(1 0 0 -1 0 792)" d="M708.038 120.63L1090.751 120.63" stroke="#000000" stroke-width="0.398" fill="none" /><path id="1034" transform="matrix(1 0 0 -1 0 792)" d="M666.067 722.529L1132.724 722.529L1132.724 722.529L1132.724 735.6745L1132.724 735.6745L666.067 735.6745z" stroke="#FFFFFF" stroke-width="1" fill="#FFFFFF" fill-rule="nonzero" /><path id="1086" transform="matrix(1 0 0 -1 0 792)" d="M54.067 721.28L520.722 721.28" stroke="#000000" stroke-width="0.498" fill="none" /><path id="1087" transform="matrix(1 0 0 -1 0 792)" d="M97.702 678.704L477.088 678.704" stroke="#000000" stroke-width="0.398" fill="none" /><path id="1088" transform="matrix(1 0 0 -1 0 792)" d="M97.901 664.938L97.901 678.505" stroke="#000000" stroke-width="0.398" fill="none" /><path id="1089" transform="matrix(1 0 0 -1 0 792)" d="M98.1 664.938L290.055 664.938L290.055 678.505L98.1 678.505z" stroke="none" fill="#CCCCEB" fill-rule="nonzero" /><path id="1095" transform="matrix(1 0 0 -1 0 792)" d="M290.255 664.938L290.255 678.505" stroke="#000000" stroke-width="0.398" fill="none" /><path id="1096" transform="matrix(1 0 0 -1 0 792)" d="M290.454 664.938L349.078 664.938L349.078 678.505L290.454 678.505z" stroke="none" fill="#CCCCEB" fill-rule="nonzero" /><path id="1106" transform="matrix(1 0 0 -1 0 792)" d="M349.277 664.938L349.277 678.505" stroke="#000000" stroke-width="0.398" fill="none" /><path id="1107" transform="matrix(1 0 0 -1 0 792)" d="M349.476 664.938L408.1 664.938L408.1 678.505L349.476 678.505z" stroke="none" fill="#CCCCEB" fill-rule="nonzero" /><path id="1115" transform="matrix(1 0 0 -1 0 792)" d="M408.299 664.938L408.299 678.505" stroke="#000000" stroke-width="0.398" fill="none" /><path id="1116" transform="matrix(1 0 0 -1 0 792)" d="M408.498 664.938L476.689 664.938L476.689 678.505L408.498 678.505z" stroke="none" fill="#CCCCEB" fill-rule="nonzero" /><path id="1120" transform="matrix(1 0 0 -1 0 792)" d="M476.888 664.938L476.888 678.505" stroke="#000000" stroke-width="0.398" fill="none" /><path id="1121" transform="matrix(1 0 0 -1 0 792)" d="M97.901 651.372L97.901 664.939" stroke="#000000" stroke-width="0.398" fill="none" /><path id="1122" transform="matrix(1 0 0 -1 0 792)" d="M98.1 651.372L290.055 651.372L290.055 664.939L98.1 664.939z" stroke="none" fill="#CCCCEB" fill-rule="nonzero" /><path id="1123" transform="matrix(1 0 0 -1 0 792)" d="M290.255 651.372L290.255 664.939" stroke="#000000" stroke-width="0.398" fill="none" /><path id="1124" transform="matrix(1 0 0 -1 0 792)" d="M290.454 651.372L349.078 651.372L349.078 664.939L290.454 664.939z" stroke="none" fill="#CCCCEB" fill-rule="nonzero" /><path id="1125" transform="matrix(1 0 0 -1 0 792)" d="M349.277 651.372L349.277 664.939" stroke="#000000" stroke-width="0.398" fill="none" /><path id="1126" transform="matrix(1 0 0 -1 0 792)" d="M349.476 651.372L408.1 651.372L408.1 664.939L349.476 664.939z" stroke="none" fill="#CCCCEB" fill-rule="nonzero" /><path id="1132" transform="matrix(1 0 0 -1 0 792)" d="M408.299 651.372L408.299 664.939" stroke="#000000" stroke-width="0.398" fill="none" /><path id="1133" transform="matrix(1 0 0 -1 0 792)" d="M408.498 651.372L476.689 651.372L476.689 664.939L408.498 664.939z" stroke="none" fill="#CCCCEB" fill-rule="nonzero" /><path id="1134" transform="matrix(1 0 0 -1 0 792)" d="M476.888 651.372L476.888 664.939" stroke="#000000" stroke-width="0.398" fill="none" /><path id="1135" transform="matrix(1 0 0 -1 0 792)" d="M97.702 651.173L477.088 651.173" stroke="#000000" stroke-width="0.398" fill="none" /><path id="1136" transform="matrix(1 0 0 -1 0 792)" d="M97.702 648.781L477.088 648.781" stroke="#000000" stroke-width="0.398" fill="none" /><path id="1137" transform="matrix(1 0 0 -1 0 792)" d="M97.901 635.016L97.901 648.583" stroke="#000000" stroke-width="0.398" fill="none" /><path id="1143" transform="matrix(1 0 0 -1 0 792)" d="M134.564 639.297L137.553 639.297" stroke="#000000" stroke-width="0.398" fill="none" /><path id="1148" transform="matrix(1 0 0 -1 0 792)" d="M290.255 635.016L290.255 648.583" stroke="#000000" stroke-width="0.398" fill="none" /><path id="1150" transform="matrix(1 0 0 -1 0 792)" d="M349.277 635.016L349.277 648.583" stroke="#000000" stroke-width="0.398" fill="none" /><path id="1152" transform="matrix(1 0 0 -1 0 792)" d="M408.299 635.016L408.299 648.583" stroke="#000000" stroke-width="0.398" fill="none" /><path id="1154" transform="matrix(1 0 0 -1 0 792)" d="M476.888 635.016L476.888 648.583" stroke="#000000" stroke-width="0.398" fill="none" /><path id="1155" transform="matrix(1 0 0 -1 0 792)" d="M97.702 634.816L477.088 634.816" stroke="#000000" stroke-width="0.398" fill="none" /><path id="1156" transform="matrix(1 0 0 -1 0 792)" d="M97.901 621.05L97.901 634.617" stroke="#000000" stroke-width="0.398" fill="none" /><path id="1162" transform="matrix(1 0 0 -1 0 792)" d="M134.564 625.332L137.553 625.332" stroke="#000000" stroke-width="0.398" fill="none" /><path id="1169" transform="matrix(1 0 0 -1 0 792)" d="M290.255 621.05L290.255 634.617" stroke="#000000" stroke-width="0.398" fill="none" /><path id="1171" transform="matrix(1 0 0 -1 0 792)" d="M349.277 621.05L349.277 634.617" stroke="#000000" stroke-width="0.398" fill="none" /><path id="1173" transform="matrix(1 0 0 -1 0 792)" d="M408.299 621.05L408.299 634.617" stroke="#000000" stroke-width="0.398" fill="none" /><path id="1175" transform="matrix(1 0 0 -1 0 792)" d="M476.888 621.05L476.888 634.617" stroke="#000000" stroke-width="0.398" fill="none" /><path id="1176" transform="matrix(1 0 0 -1 0 792)" d="M97.702 620.851L477.088 620.851" stroke="#000000" stroke-width="0.398" fill="none" /><path id="1177" transform="matrix(1 0 0 -1 0 792)" d="M97.901 607.085L97.901 620.652" stroke="#000000" stroke-width="0.398" fill="none" /><path id="1183" transform="matrix(1 0 0 -1 0 792)" d="M134.564 611.367L137.553 611.367" stroke="#000000" stroke-width="0.398" fill="none" /><path id="1190" transform="matrix(1 0 0 -1 0 792)" d="M290.255 607.085L290.255 620.652" stroke="#000000" stroke-width="0.398" fill="none" /><path id="1192" transform="matrix(1 0 0 -1 0 792)" d="M349.277 607.085L349.277 620.652" stroke="#000000" stroke-width="0.398" fill="none" /><path id="1194" transform="matrix(1 0 0 -1 0 792)" d="M408.299 607.085L408.299 620.652" stroke="#000000" stroke-width="0.398" fill="none" /><path id="1196" transform="matrix(1 0 0 -1 0 792)" d="M476.888 607.085L476.888 620.652" stroke="#000000" stroke-width="0.398" fill="none" /><path id="1197" transform="matrix(1 0 0 -1 0 792)" d="M97.702 606.886L477.088 606.886" stroke="#000000" stroke-width="0.398" fill="none" /><path id="1198" transform="matrix(1 0 0 -1 0 792)" d="M97.901 593.12L97.901 606.687" stroke="#000000" stroke-width="0.398" fill="none" /><path id="1204" transform="matrix(1 0 0 -1 0 792)" d="M134.564 597.402L137.553 597.402" stroke="#000000" stroke-width="0.398" fill="none" /><path id="1209" transform="matrix(1 0 0 -1 0 792)" d="M162.061 597.402L165.05 597.402" stroke="#000000" stroke-width="0.398" fill="none" /><path id="1213" transform="matrix(1 0 0 -1 0 792)" d="M290.255 593.12L290.255 606.687" stroke="#000000" stroke-width="0.398" fill="none" /><path id="1215" transform="matrix(1 0 0 -1 0 792)" d="M349.277 593.12L349.277 606.687" stroke="#000000" stroke-width="0.398" fill="none" /><path id="1217" transform="matrix(1 0 0 -1 0 792)" d="M408.299 593.12L408.299 606.687" stroke="#000000" stroke-width="0.398" fill="none" /><path id="1219" transform="matrix(1 0 0 -1 0 792)" d="M476.888 593.12L476.888 606.687" stroke="#000000" stroke-width="0.398" fill="none" /><path id="1220" transform="matrix(1 0 0 -1 0 792)" d="M97.702 592.921L477.088 592.921" stroke="#000000" stroke-width="0.398" fill="none" /><path id="1221" transform="matrix(1 0 0 -1 0 792)" d="M97.901 579.155L97.901 592.722" stroke="#000000" stroke-width="0.398" fill="none" /><path id="1227" transform="matrix(1 0 0 -1 0 792)" d="M134.564 583.437L137.553 583.437" stroke="#000000" stroke-width="0.398" fill="none" /><path id="1232" transform="matrix(1 0 0 -1 0 792)" d="M162.061 583.437L165.05 583.437" stroke="#000000" stroke-width="0.398" fill="none" /><path id="1236" transform="matrix(1 0 0 -1 0 792)" d="M290.255 579.155L290.255 592.722" stroke="#000000" stroke-width="0.398" fill="none" /><path id="1238" transform="matrix(1 0 0 -1 0 792)" d="M349.277 579.155L349.277 592.722" stroke="#000000" stroke-width="0.398" fill="none" /><path id="1240" transform="matrix(1 0 0 -1 0 792)" d="M408.299 579.155L408.299 592.722" stroke="#000000" stroke-width="0.398" fill="none" /><path id="1242" transform="matrix(1 0 0 -1 0 792)" d="M476.888 579.155L476.888 592.722" stroke="#000000" stroke-width="0.398" fill="none" /><path id="1243" transform="matrix(1 0 0 -1 0 792)" d="M97.702 578.956L477.088 578.956" stroke="#000000" stroke-width="0.398" fill="none" /><path id="1244" transform="matrix(1 0 0 -1 0 792)" d="M97.901 565.19L97.901 578.757" stroke="#000000" stroke-width="0.398" fill="none" /><path id="1250" transform="matrix(1 0 0 -1 0 792)" d="M134.564 569.471L137.553 569.471" stroke="#000000" stroke-width="0.398" fill="none" /><path id="1255" transform="matrix(1 0 0 -1 0 792)" d="M162.061 569.471L165.05 569.471" stroke="#000000" stroke-width="0.398" fill="none" /><path id="1265" transform="matrix(1 0 0 -1 0 792)" d="M219.445 569.471L222.434 569.471" stroke="#000000" stroke-width="0.398" fill="none" /><path id="1270" transform="matrix(1 0 0 -1 0 792)" d="M290.255 565.19L290.255 578.757" stroke="#000000" stroke-width="0.398" fill="none" /><path id="1272" transform="matrix(1 0 0 -1 0 792)" d="M349.277 565.19L349.277 578.757" stroke="#000000" stroke-width="0.398" fill="none" /><path id="1274" transform="matrix(1 0 0 -1 0 792)" d="M408.299 565.19L408.299 578.757" stroke="#000000" stroke-width="0.398" fill="none" /><path id="1276" transform="matrix(1 0 0 -1 0 792)" d="M476.888 565.19L476.888 578.757" stroke="#000000" stroke-width="0.398" fill="none" /><path id="1277" transform="matrix(1 0 0 -1 0 792)" d="M97.702 564.991L477.088 564.991" stroke="#000000" stroke-width="0.398" fill="none" /><path id="1278" transform="matrix(1 0 0 -1 0 792)" d="M97.901 551.225L97.901 564.792" stroke="#000000" stroke-width="0.398" fill="none" /><path id="1284" transform="matrix(1 0 0 -1 0 792)" d="M134.564 555.506L137.553 555.506" stroke="#000000" stroke-width="0.398" fill="none" /><path id="1293" transform="matrix(1 0 0 -1 0 792)" d="M185.971 555.506L188.96 555.506" stroke="#000000" stroke-width="0.398" fill="none" /><path id="1305" transform="matrix(1 0 0 -1 0 792)" d="M290.255 551.225L290.255 564.792" stroke="#000000" stroke-width="0.398" fill="none" /><path id="1307" transform="matrix(1 0 0 -1 0 792)" d="M349.277 551.225L349.277 564.792" stroke="#000000" stroke-width="0.398" fill="none" /><path id="1309" transform="matrix(1 0 0 -1 0 792)" d="M408.299 551.225L408.299 564.792" stroke="#000000" stroke-width="0.398" fill="none" /><path id="1311" transform="matrix(1 0 0 -1 0 792)" d="M476.888 551.225L476.888 564.792" stroke="#000000" stroke-width="0.398" fill="none" /><path id="1312" transform="matrix(1 0 0 -1 0 792)" d="M97.702 551.025L477.088 551.025" stroke="#000000" stroke-width="0.398" fill="none" /><path id="1313" transform="matrix(1 0 0 -1 0 792)" d="M97.901 537.26L97.901 550.827" stroke="#000000" stroke-width="0.398" fill="none" /><path id="1319" transform="matrix(1 0 0 -1 0 792)" d="M134.564 541.541L137.553 541.541" stroke="#000000" stroke-width="0.398" fill="none" /><path id="1326" transform="matrix(1 0 0 -1 0 792)" d="M174.016 541.541L177.005 541.541" stroke="#000000" stroke-width="0.398" fill="none" /><path id="1332" transform="matrix(1 0 0 -1 0 792)" d="M207.49 541.541L210.479 541.541" stroke="#000000" stroke-width="0.398" fill="none" /><path id="1339" transform="matrix(1 0 0 -1 0 792)" d="M290.255 537.26L290.255 550.827" stroke="#000000" stroke-width="0.398" fill="none" /><path id="1341" transform="matrix(1 0 0 -1 0 792)" d="M349.277 537.26L349.277 550.827" stroke="#000000" stroke-width="0.398" fill="none" /><path id="1343" transform="matrix(1 0 0 -1 0 792)" d="M408.299 537.26L408.299 550.827" stroke="#000000" stroke-width="0.398" fill="none" /><path id="1345" transform="matrix(1 0 0 -1 0 792)" d="M476.888 537.26L476.888 550.827" stroke="#000000" stroke-width="0.398" fill="none" /><path id="1346" transform="matrix(1 0 0 -1 0 792)" d="M97.702 537.06L477.088 537.06" stroke="#000000" stroke-width="0.398" fill="none" /><path id="1347" transform="matrix(1 0 0 -1 0 792)" d="M97.901 523.294L97.901 536.861" stroke="#000000" stroke-width="0.398" fill="none" /><path id="1352" transform="matrix(1 0 0 -1 0 792)" d="M128.586 527.576L131.575 527.576" stroke="#000000" stroke-width="0.398" fill="none" /><path id="1358" transform="matrix(1 0 0 -1 0 792)" d="M290.255 523.294L290.255 536.861" stroke="#000000" stroke-width="0.398" fill="none" /><path id="1360" transform="matrix(1 0 0 -1 0 792)" d="M349.277 523.294L349.277 536.861" stroke="#000000" stroke-width="0.398" fill="none" /><path id="1364" transform="matrix(1 0 0 -1 0 792)" d="M408.299 523.294L408.299 536.861" stroke="#000000" stroke-width="0.398" fill="none" /><path id="1374" transform="matrix(1 0 0 -1 0 792)" d="M476.888 523.294L476.888 536.861" stroke="#000000" stroke-width="0.398" fill="none" /><path id="1375" transform="matrix(1 0 0 -1 0 792)" d="M97.702 523.095L477.088 523.095" stroke="#000000" stroke-width="0.398" fill="none" /><path id="1376" transform="matrix(1 0 0 -1 0 792)" d="M97.901 509.329L97.901 522.896" stroke="#000000" stroke-width="0.398" fill="none" /><path id="1381" transform="matrix(1 0 0 -1 0 792)" d="M128.586 513.611L131.575 513.611" stroke="#000000" stroke-width="0.398" fill="none" /><path id="1388" transform="matrix(1 0 0 -1 0 792)" d="M290.255 509.329L290.255 522.896" stroke="#000000" stroke-width="0.398" fill="none" /><path id="1390" transform="matrix(1 0 0 -1 0 792)" d="M349.277 509.329L349.277 522.896" stroke="#000000" stroke-width="0.398" fill="none" /><path id="1392" transform="matrix(1 0 0 -1 0 792)" d="M408.299 509.329L408.299 522.896" stroke="#000000" stroke-width="0.398" fill="none" /><path id="1394" transform="matrix(1 0 0 -1 0 792)" d="M476.888 509.329L476.888 522.896" stroke="#000000" stroke-width="0.398" fill="none" /><path id="1395" transform="matrix(1 0 0 -1 0 792)" d="M97.702 509.13L477.088 509.13" stroke="#000000" stroke-width="0.398" fill="none" /><path id="1396" transform="matrix(1 0 0 -1 0 792)" d="M97.901 495.364L97.901 508.931" stroke="#000000" stroke-width="0.398" fill="none" /><path id="1401" transform="matrix(1 0 0 -1 0 792)" d="M128.586 499.646L131.575 499.646" stroke="#000000" stroke-width="0.398" fill="none" /><path id="1409" transform="matrix(1 0 0 -1 0 792)" d="M174.016 499.646L177.005 499.646" stroke="#000000" stroke-width="0.398" fill="none" /><path id="1417" transform="matrix(1 0 0 -1 0 792)" d="M290.255 495.364L290.255 508.931" stroke="#000000" stroke-width="0.398" fill="none" /><path id="1419" transform="matrix(1 0 0 -1 0 792)" d="M349.277 495.364L349.277 508.931" stroke="#000000" stroke-width="0.398" fill="none" /><path id="1421" transform="matrix(1 0 0 -1 0 792)" d="M408.299 495.364L408.299 508.931" stroke="#000000" stroke-width="0.398" fill="none" /><path id="1423" transform="matrix(1 0 0 -1 0 792)" d="M476.888 495.364L476.888 508.931" stroke="#000000" stroke-width="0.398" fill="none" /><path id="1424" transform="matrix(1 0 0 -1 0 792)" d="M97.702 495.165L477.088 495.165" stroke="#000000" stroke-width="0.398" fill="none" /><path id="1425" transform="matrix(1 0 0 -1 0 792)" d="M97.901 481.399L97.901 494.966" stroke="#000000" stroke-width="0.398" fill="none" /><path id="1430" transform="matrix(1 0 0 -1 0 792)" d="M128.586 485.68L131.575 485.68" stroke="#000000" stroke-width="0.398" fill="none" /><path id="1438" transform="matrix(1 0 0 -1 0 792)" d="M174.016 485.68L177.005 485.68" stroke="#000000" stroke-width="0.398" fill="none" /><path id="1445" transform="matrix(1 0 0 -1 0 792)" d="M290.255 481.399L290.255 494.966" stroke="#000000" stroke-width="0.398" fill="none" /><path id="1447" transform="matrix(1 0 0 -1 0 792)" d="M349.277 481.399L349.277 494.966" stroke="#000000" stroke-width="0.398" fill="none" /><path id="1449" transform="matrix(1 0 0 -1 0 792)" d="M408.299 481.399L408.299 494.966" stroke="#000000" stroke-width="0.398" fill="none" /><path id="1451" transform="matrix(1 0 0 -1 0 792)" d="M476.888 481.399L476.888 494.966" stroke="#000000" stroke-width="0.398" fill="none" /><path id="1452" transform="matrix(1 0 0 -1 0 792)" d="M97.702 481.2L477.088 481.2" stroke="#000000" stroke-width="0.398" fill="none" /><path id="1453" transform="matrix(1 0 0 -1 0 792)" d="M97.901 467.434L97.901 481.001" stroke="#000000" stroke-width="0.398" fill="none" /><path id="1458" transform="matrix(1 0 0 -1 0 792)" d="M128.586 471.715L131.575 471.715" stroke="#000000" stroke-width="0.398" fill="none" /><path id="1466" transform="matrix(1 0 0 -1 0 792)" d="M290.255 467.434L290.255 481.001" stroke="#000000" stroke-width="0.398" fill="none" /><path id="1468" transform="matrix(1 0 0 -1 0 792)" d="M349.277 467.434L349.277 481.001" stroke="#000000" stroke-width="0.398" fill="none" /><path id="1470" transform="matrix(1 0 0 -1 0 792)" d="M408.299 467.434L408.299 481.001" stroke="#000000" stroke-width="0.398" fill="none" /><path id="1472" transform="matrix(1 0 0 -1 0 792)" d="M476.888 467.434L476.888 481.001" stroke="#000000" stroke-width="0.398" fill="none" /><path id="1473" transform="matrix(1 0 0 -1 0 792)" d="M97.702 467.235L477.088 467.235" stroke="#000000" stroke-width="0.398" fill="none" /><path id="1474" transform="matrix(1 0 0 -1 0 792)" d="M97.901 453.469L97.901 467.036" stroke="#000000" stroke-width="0.398" fill="none" /><path id="1479" transform="matrix(1 0 0 -1 0 792)" d="M128.586 457.75L131.575 457.75" stroke="#000000" stroke-width="0.398" fill="none" /><path id="1484" transform="matrix(1 0 0 -1 0 792)" d="M290.255 453.469L290.255 467.036" stroke="#000000" stroke-width="0.398" fill="none" /><path id="1486" transform="matrix(1 0 0 -1 0 792)" d="M349.277 453.469L349.277 467.036" stroke="#000000" stroke-width="0.398" fill="none" /><path id="1492" transform="matrix(1 0 0 -1 0 792)" d="M408.299 453.469L408.299 467.036" stroke="#000000" stroke-width="0.398" fill="none" /><path id="1502" transform="matrix(1 0 0 -1 0 792)" d="M476.888 453.469L476.888 467.036" stroke="#000000" stroke-width="0.398" fill="none" /><path id="1503" transform="matrix(1 0 0 -1 0 792)" d="M97.702 453.269L477.088 453.269" stroke="#000000" stroke-width="0.398" fill="none" /><path id="1504" transform="matrix(1 0 0 -1 0 792)" d="M97.901 439.504L97.901 453.071" stroke="#000000" stroke-width="0.398" fill="none" /><path id="1509" transform="matrix(1 0 0 -1 0 792)" d="M128.586 443.785L131.575 443.785" stroke="#000000" stroke-width="0.398" fill="none" /><path id="1514" transform="matrix(1 0 0 -1 0 792)" d="M156.083 443.785L159.072 443.785" stroke="#000000" stroke-width="0.398" fill="none" /><path id="1519" transform="matrix(1 0 0 -1 0 792)" d="M290.255 439.504L290.255 453.071" stroke="#000000" stroke-width="0.398" fill="none" /><path id="1521" transform="matrix(1 0 0 -1 0 792)" d="M349.277 439.504L349.277 453.071" stroke="#000000" stroke-width="0.398" fill="none" /><path id="1526" transform="matrix(1 0 0 -1 0 792)" d="M408.299 439.504L408.299 453.071" stroke="#000000" stroke-width="0.398" fill="none" /><path id="1538" transform="matrix(1 0 0 -1 0 792)" d="M476.888 439.504L476.888 453.071" stroke="#000000" stroke-width="0.398" fill="none" /><path id="1539" transform="matrix(1 0 0 -1 0 792)" d="M97.702 439.304L477.088 439.304" stroke="#000000" stroke-width="0.398" fill="none" /><path id="1540" transform="matrix(1 0 0 -1 0 792)" d="M97.901 425.538L97.901 439.105" stroke="#000000" stroke-width="0.398" fill="none" /><path id="1546" transform="matrix(1 0 0 -1 0 792)" d="M134.564 429.82L137.553 429.82" stroke="#000000" stroke-width="0.398" fill="none" /><path id="1551" transform="matrix(1 0 0 -1 0 792)" d="M290.255 425.538L290.255 439.105" stroke="#000000" stroke-width="0.398" fill="none" /><path id="1553" transform="matrix(1 0 0 -1 0 792)" d="M349.277 425.538L349.277 439.105" stroke="#000000" stroke-width="0.398" fill="none" /><path id="1557" transform="matrix(1 0 0 -1 0 792)" d="M408.299 425.538L408.299 439.105" stroke="#000000" stroke-width="0.398" fill="none" /><path id="1569" transform="matrix(1 0 0 -1 0 792)" d="M476.888 425.538L476.888 439.105" stroke="#000000" stroke-width="0.398" fill="none" /><path id="1570" transform="matrix(1 0 0 -1 0 792)" d="M97.702 425.339L477.088 425.339" stroke="#000000" stroke-width="0.398" fill="none" /><path id="1571" transform="matrix(1 0 0 -1 0 792)" d="M97.901 411.573L97.901 425.14" stroke="#000000" stroke-width="0.398" fill="none" /><path id="1579" transform="matrix(1 0 0 -1 0 792)" d="M146.519 415.855L149.508 415.855" stroke="#000000" stroke-width="0.398" fill="none" /><path id="1586" transform="matrix(1 0 0 -1 0 792)" d="M290.255 411.573L290.255 425.14" stroke="#000000" stroke-width="0.398" fill="none" /><path id="1588" transform="matrix(1 0 0 -1 0 792)" d="M349.277 411.573L349.277 425.14" stroke="#000000" stroke-width="0.398" fill="none" /><path id="1590" transform="matrix(1 0 0 -1 0 792)" d="M408.299 411.573L408.299 425.14" stroke="#000000" stroke-width="0.398" fill="none" /><path id="1592" transform="matrix(1 0 0 -1 0 792)" d="M476.888 411.573L476.888 425.14" stroke="#000000" stroke-width="0.398" fill="none" /><path id="1593" transform="matrix(1 0 0 -1 0 792)" d="M97.702 411.374L477.088 411.374" stroke="#000000" stroke-width="0.398" fill="none" /><path id="1594" transform="matrix(1 0 0 -1 0 792)" d="M97.901 397.608L97.901 411.175" stroke="#000000" stroke-width="0.398" fill="none" /><path id="1602" transform="matrix(1 0 0 -1 0 792)" d="M146.519 401.89L149.508 401.89" stroke="#000000" stroke-width="0.398" fill="none" /><path id="1607" transform="matrix(1 0 0 -1 0 792)" d="M290.255 397.608L290.255 411.175" stroke="#000000" stroke-width="0.398" fill="none" /><path id="1609" transform="matrix(1 0 0 -1 0 792)" d="M349.277 397.608L349.277 411.175" stroke="#000000" stroke-width="0.398" fill="none" /><path id="1611" transform="matrix(1 0 0 -1 0 792)" d="M408.299 397.608L408.299 411.175" stroke="#000000" stroke-width="0.398" fill="none" /><path id="1613" transform="matrix(1 0 0 -1 0 792)" d="M476.888 397.608L476.888 411.175" stroke="#000000" stroke-width="0.398" fill="none" /><path id="1614" transform="matrix(1 0 0 -1 0 792)" d="M97.702 397.409L477.088 397.409" stroke="#000000" stroke-width="0.398" fill="none" /><path id="1615" transform="matrix(1 0 0 -1 0 792)" d="M97.901 383.643L97.901 397.21" stroke="#000000" stroke-width="0.398" fill="none" /><path id="1623" transform="matrix(1 0 0 -1 0 792)" d="M146.519 387.924L149.508 387.924" stroke="#000000" stroke-width="0.398" fill="none" /><path id="1630" transform="matrix(1 0 0 -1 0 792)" d="M185.971 387.924L188.96 387.924" stroke="#000000" stroke-width="0.398" fill="none" /><path id="1637" transform="matrix(1 0 0 -1 0 792)" d="M290.255 383.643L290.255 397.21" stroke="#000000" stroke-width="0.398" fill="none" /><path id="1639" transform="matrix(1 0 0 -1 0 792)" d="M349.277 383.643L349.277 397.21" stroke="#000000" stroke-width="0.398" fill="none" /><path id="1641" transform="matrix(1 0 0 -1 0 792)" d="M408.299 383.643L408.299 397.21" stroke="#000000" stroke-width="0.398" fill="none" /><path id="1651" transform="matrix(1 0 0 -1 0 792)" d="M476.888 383.643L476.888 397.21" stroke="#000000" stroke-width="0.398" fill="none" /><path id="1652" transform="matrix(1 0 0 -1 0 792)" d="M97.702 383.444L477.088 383.444" stroke="#000000" stroke-width="0.398" fill="none" /><path id="1653" transform="matrix(1 0 0 -1 0 792)" d="M97.901 369.678L97.901 383.245" stroke="#000000" stroke-width="0.398" fill="none" /><path id="1661" transform="matrix(1 0 0 -1 0 792)" d="M146.519 373.959L149.508 373.959" stroke="#000000" stroke-width="0.398" fill="none" /><path id="1668" transform="matrix(1 0 0 -1 0 792)" d="M185.971 373.959L188.96 373.959" stroke="#000000" stroke-width="0.398" fill="none" /><path id="1674" transform="matrix(1 0 0 -1 0 792)" d="M290.255 369.678L290.255 383.245" stroke="#000000" stroke-width="0.398" fill="none" /><path id="1676" transform="matrix(1 0 0 -1 0 792)" d="M349.277 369.678L349.277 383.245" stroke="#000000" stroke-width="0.398" fill="none" /><path id="1678" transform="matrix(1 0 0 -1 0 792)" d="M408.299 369.678L408.299 383.245" stroke="#000000" stroke-width="0.398" fill="none" /><path id="1688" transform="matrix(1 0 0 -1 0 792)" d="M476.888 369.678L476.888 383.245" stroke="#000000" stroke-width="0.398" fill="none" /><path id="1689" transform="matrix(1 0 0 -1 0 792)" d="M97.702 369.479L477.088 369.479" stroke="#000000" stroke-width="0.398" fill="none" /><path id="1690" transform="matrix(1 0 0 -1 0 792)" d="M97.901 355.713L97.901 369.28" stroke="#000000" stroke-width="0.398" fill="none" /><path id="1698" transform="matrix(1 0 0 -1 0 792)" d="M146.519 359.994L149.508 359.994" stroke="#000000" stroke-width="0.398" fill="none" /><path id="1705" transform="matrix(1 0 0 -1 0 792)" d="M185.971 359.994L188.96 359.994" stroke="#000000" stroke-width="0.398" fill="none" /><path id="1711" transform="matrix(1 0 0 -1 0 792)" d="M290.255 355.713L290.255 369.28" stroke="#000000" stroke-width="0.398" fill="none" /><path id="1713" transform="matrix(1 0 0 -1 0 792)" d="M349.277 355.713L349.277 369.28" stroke="#000000" stroke-width="0.398" fill="none" /><path id="1715" transform="matrix(1 0 0 -1 0 792)" d="M408.299 355.713L408.299 369.28" stroke="#000000" stroke-width="0.398" fill="none" /><path id="1717" transform="matrix(1 0 0 -1 0 792)" d="M476.888 355.713L476.888 369.28" stroke="#000000" stroke-width="0.398" fill="none" /><path id="1718" transform="matrix(1 0 0 -1 0 792)" d="M97.702 355.513L477.088 355.513" stroke="#000000" stroke-width="0.398" fill="none" /><path id="1719" transform="matrix(1 0 0 -1 0 792)" d="M97.901 341.747L97.901 355.314" stroke="#000000" stroke-width="0.398" fill="none" /><path id="1727" transform="matrix(1 0 0 -1 0 792)" d="M146.519 346.029L149.508 346.029" stroke="#000000" stroke-width="0.398" fill="none" /><path id="1734" transform="matrix(1 0 0 -1 0 792)" d="M185.971 346.029L188.96 346.029" stroke="#000000" stroke-width="0.398" fill="none" /><path id="1739" transform="matrix(1 0 0 -1 0 792)" d="M290.255 341.747L290.255 355.314" stroke="#000000" stroke-width="0.398" fill="none" /><path id="1741" transform="matrix(1 0 0 -1 0 792)" d="M349.277 341.747L349.277 355.314" stroke="#000000" stroke-width="0.398" fill="none" /><path id="1743" transform="matrix(1 0 0 -1 0 792)" d="M408.299 341.747L408.299 355.314" stroke="#000000" stroke-width="0.398" fill="none" /><path id="1745" transform="matrix(1 0 0 -1 0 792)" d="M476.888 341.747L476.888 355.314" stroke="#000000" stroke-width="0.398" fill="none" /><path id="1746" transform="matrix(1 0 0 -1 0 792)" d="M97.702 341.548L477.088 341.548" stroke="#000000" stroke-width="0.398" fill="none" /><path id="1747" transform="matrix(1 0 0 -1 0 792)" d="M97.901 327.782L97.901 341.349" stroke="#000000" stroke-width="0.398" fill="none" /><path id="1755" transform="matrix(1 0 0 -1 0 792)" d="M146.519 332.064L149.508 332.064" stroke="#000000" stroke-width="0.398" fill="none" /><path id="1762" transform="matrix(1 0 0 -1 0 792)" d="M185.971 332.064L188.96 332.064" stroke="#000000" stroke-width="0.398" fill="none" /><path id="1767" transform="matrix(1 0 0 -1 0 792)" d="M290.255 327.782L290.255 341.349" stroke="#000000" stroke-width="0.398" fill="none" /><path id="1769" transform="matrix(1 0 0 -1 0 792)" d="M349.277 327.782L349.277 341.349" stroke="#000000" stroke-width="0.398" fill="none" /><path id="1775" transform="matrix(1 0 0 -1 0 792)" d="M408.299 327.782L408.299 341.349" stroke="#000000" stroke-width="0.398" fill="none" /><path id="1785" transform="matrix(1 0 0 -1 0 792)" d="M476.888 327.782L476.888 341.349" stroke="#000000" stroke-width="0.398" fill="none" /><path id="1786" transform="matrix(1 0 0 -1 0 792)" d="M97.702 327.583L477.088 327.583" stroke="#000000" stroke-width="0.398" fill="none" /><path id="1787" transform="matrix(1 0 0 -1 0 792)" d="M97.901 313.817L97.901 327.384" stroke="#000000" stroke-width="0.398" fill="none" /><path id="1795" transform="matrix(1 0 0 -1 0 792)" d="M146.519 318.099L149.508 318.099" stroke="#000000" stroke-width="0.398" fill="none" /><path id="1803" transform="matrix(1 0 0 -1 0 792)" d="M290.255 313.817L290.255 327.384" stroke="#000000" stroke-width="0.398" fill="none" /><path id="1805" transform="matrix(1 0 0 -1 0 792)" d="M349.277 313.817L349.277 327.384" stroke="#000000" stroke-width="0.398" fill="none" /><path id="1807" transform="matrix(1 0 0 -1 0 792)" d="M408.299 313.817L408.299 327.384" stroke="#000000" stroke-width="0.398" fill="none" /><path id="1809" transform="matrix(1 0 0 -1 0 792)" d="M476.888 313.817L476.888 327.384" stroke="#000000" stroke-width="0.398" fill="none" /><path id="1810" transform="matrix(1 0 0 -1 0 792)" d="M97.702 313.618L477.088 313.618" stroke="#000000" stroke-width="0.398" fill="none" /><path id="1834" transform="matrix(1 0 0 -1 0 792)" d="M96.038 234.344L478.751 234.344" stroke="#000000" stroke-width="0.398" fill="none" /><path id="1835" transform="matrix(1 0 0 -1 0 792)" d="M96.237 220.578L96.237 234.145" stroke="#000000" stroke-width="0.398" fill="none" /><path id="1836" transform="matrix(1 0 0 -1 0 792)" d="M96.437 220.578L288.392 220.578L288.392 234.145L96.437 234.145z" stroke="none" fill="#CCCCEB" fill-rule="nonzero" /><path id="1842" transform="matrix(1 0 0 -1 0 792)" d="M288.591 220.578L288.591 234.145" stroke="#000000" stroke-width="0.398" fill="none" /><path id="1843" transform="matrix(1 0 0 -1 0 792)" d="M288.79 220.578L347.414 220.578L347.414 234.145L288.79 234.145z" stroke="none" fill="#CCCCEB" fill-rule="nonzero" /><path id="1853" transform="matrix(1 0 0 -1 0 792)" d="M347.613 220.578L347.613 234.145" stroke="#000000" stroke-width="0.398" fill="none" /><path id="1854" transform="matrix(1 0 0 -1 0 792)" d="M347.812 220.578L406.436 220.578L406.436 234.145L347.812 234.145z" stroke="none" fill="#CCCCEB" fill-rule="nonzero" /><path id="1862" transform="matrix(1 0 0 -1 0 792)" d="M406.635 220.578L406.635 234.145" stroke="#000000" stroke-width="0.398" fill="none" /><path id="1863" transform="matrix(1 0 0 -1 0 792)" d="M406.835 220.578L478.353 220.578L478.353 234.145L406.835 234.145z" stroke="none" fill="#CCCCEB" fill-rule="nonzero" /><path id="1867" transform="matrix(1 0 0 -1 0 792)" d="M478.552 220.578L478.552 234.145" stroke="#000000" stroke-width="0.398" fill="none" /><path id="1868" transform="matrix(1 0 0 -1 0 792)" d="M96.237 207.012L96.237 220.579" stroke="#000000" stroke-width="0.398" fill="none" /><path id="1869" transform="matrix(1 0 0 -1 0 792)" d="M96.437 207.012L288.392 207.012L288.392 220.579L96.437 220.579z" stroke="none" fill="#CCCCEB" fill-rule="nonzero" /><path id="1870" transform="matrix(1 0 0 -1 0 792)" d="M288.591 207.012L288.591 220.579" stroke="#000000" stroke-width="0.398" fill="none" /><path id="1871" transform="matrix(1 0 0 -1 0 792)" d="M288.79 207.012L347.414 207.012L347.414 220.579L288.79 220.579z" stroke="none" fill="#CCCCEB" fill-rule="nonzero" /><path id="1872" transform="matrix(1 0 0 -1 0 792)" d="M347.613 207.012L347.613 220.579" stroke="#000000" stroke-width="0.398" fill="none" /><path id="1873" transform="matrix(1 0 0 -1 0 792)" d="M347.812 207.012L406.436 207.012L406.436 220.579L347.812 220.579z" stroke="none" fill="#CCCCEB" fill-rule="nonzero" /><path id="1879" transform="matrix(1 0 0 -1 0 792)" d="M406.635 207.012L406.635 220.579" stroke="#000000" stroke-width="0.398" fill="none" /><path id="1880" transform="matrix(1 0 0 -1 0 792)" d="M406.835 207.012L478.353 207.012L478.353 220.579L406.835 220.579z" stroke="none" fill="#CCCCEB" fill-rule="nonzero" /><path id="1881" transform="matrix(1 0 0 -1 0 792)" d="M478.552 207.012L478.552 220.579" stroke="#000000" stroke-width="0.398" fill="none" /><path id="1882" transform="matrix(1 0 0 -1 0 792)" d="M96.038 206.812L478.751 206.812" stroke="#000000" stroke-width="0.398" fill="none" /><path id="1883" transform="matrix(1 0 0 -1 0 792)" d="M96.038 204.421L478.751 204.421" stroke="#000000" stroke-width="0.398" fill="none" /><path id="1884" transform="matrix(1 0 0 -1 0 792)" d="M96.237 190.655L96.237 204.222" stroke="#000000" stroke-width="0.398" fill="none" /><path id="1896" transform="matrix(1 0 0 -1 0 792)" d="M288.591 190.655L288.591 204.222" stroke="#000000" stroke-width="0.398" fill="none" /><path id="1898" transform="matrix(1 0 0 -1 0 792)" d="M347.613 190.655L347.613 204.222" stroke="#000000" stroke-width="0.398" fill="none" /><path id="1900" transform="matrix(1 0 0 -1 0 792)" d="M406.635 190.655L406.635 204.222" stroke="#000000" stroke-width="0.398" fill="none" /><path id="1902" transform="matrix(1 0 0 -1 0 792)" d="M478.552 190.655L478.552 204.222" stroke="#000000" stroke-width="0.398" fill="none" /><path id="1903" transform="matrix(1 0 0 -1 0 792)" d="M96.038 190.456L478.751 190.456" stroke="#000000" stroke-width="0.398" fill="none" /><path id="1904" transform="matrix(1 0 0 -1 0 792)" d="M96.237 176.69L96.237 190.257" stroke="#000000" stroke-width="0.398" fill="none" /><path id="1911" transform="matrix(1 0 0 -1 0 792)" d="M138.877 180.972L141.866 180.972" stroke="#000000" stroke-width="0.398" fill="none" /><path id="1917" transform="matrix(1 0 0 -1 0 792)" d="M172.352 180.972L175.341 180.972" stroke="#000000" stroke-width="0.398" fill="none" /><path id="1920" transform="matrix(1 0 0 -1 0 792)" d="M187.894 180.972L190.883 180.972" stroke="#000000" stroke-width="0.398" fill="none" /><path id="1929" transform="matrix(1 0 0 -1 0 792)" d="M288.591 176.69L288.591 190.257" stroke="#000000" stroke-width="0.398" fill="none" /><path id="1931" transform="matrix(1 0 0 -1 0 792)" d="M347.613 176.69L347.613 190.257" stroke="#000000" stroke-width="0.398" fill="none" /><path id="1937" transform="matrix(1 0 0 -1 0 792)" d="M406.635 176.69L406.635 190.257" stroke="#000000" stroke-width="0.398" fill="none" /><path id="1947" transform="matrix(1 0 0 -1 0 792)" d="M478.552 176.69L478.552 190.257" stroke="#000000" stroke-width="0.398" fill="none" /><path id="1948" transform="matrix(1 0 0 -1 0 792)" d="M96.038 176.491L478.751 176.491" stroke="#000000" stroke-width="0.398" fill="none" /><path id="1949" transform="matrix(1 0 0 -1 0 792)" d="M96.237 162.725L96.237 176.292" stroke="#000000" stroke-width="0.398" fill="none" /><path id="1956" transform="matrix(1 0 0 -1 0 792)" d="M138.877 167.007L141.866 167.007" stroke="#000000" stroke-width="0.398" fill="none" /><path id="1962" transform="matrix(1 0 0 -1 0 792)" d="M172.352 167.007L175.341 167.007" stroke="#000000" stroke-width="0.398" fill="none" /><path id="1965" transform="matrix(1 0 0 -1 0 792)" d="M187.894 167.007L190.883 167.007" stroke="#000000" stroke-width="0.398" fill="none" /><path id="1969" transform="matrix(1 0 0 -1 0 792)" d="M288.591 162.725L288.591 176.292" stroke="#000000" stroke-width="0.398" fill="none" /><path id="1971" transform="matrix(1 0 0 -1 0 792)" d="M347.613 162.725L347.613 176.292" stroke="#000000" stroke-width="0.398" fill="none" /><path id="1973" transform="matrix(1 0 0 -1 0 792)" d="M406.635 162.725L406.635 176.292" stroke="#000000" stroke-width="0.398" fill="none" /><path id="1975" transform="matrix(1 0 0 -1 0 792)" d="M478.552 162.725L478.552 176.292" stroke="#000000" stroke-width="0.398" fill="none" /><path id="1976" transform="matrix(1 0 0 -1 0 792)" d="M96.038 162.526L478.751 162.526" stroke="#000000" stroke-width="0.398" fill="none" /><path id="1977" transform="matrix(1 0 0 -1 0 792)" d="M96.237 148.76L96.237 162.327" stroke="#000000" stroke-width="0.398" fill="none" /><path id="1984" transform="matrix(1 0 0 -1 0 792)" d="M138.877 153.041L141.866 153.041" stroke="#000000" stroke-width="0.398" fill="none" /><path id="1993" transform="matrix(1 0 0 -1 0 792)" d="M288.591 148.76L288.591 162.327" stroke="#000000" stroke-width="0.398" fill="none" /><path id="1995" transform="matrix(1 0 0 -1 0 792)" d="M347.613 148.76L347.613 162.327" stroke="#000000" stroke-width="0.398" fill="none" /><path id="2001" transform="matrix(1 0 0 -1 0 792)" d="M406.635 148.76L406.635 162.327" stroke="#000000" stroke-width="0.398" fill="none" /><path id="2011" transform="matrix(1 0 0 -1 0 792)" d="M478.552 148.76L478.552 162.327" stroke="#000000" stroke-width="0.398" fill="none" /><path id="2012" transform="matrix(1 0 0 -1 0 792)" d="M96.038 148.561L478.751 148.561" stroke="#000000" stroke-width="0.398" fill="none" /><path id="2013" transform="matrix(1 0 0 -1 0 792)" d="M96.237 134.795L96.237 148.362" stroke="#000000" stroke-width="0.398" fill="none" /><path id="2020" transform="matrix(1 0 0 -1 0 792)" d="M138.877 139.076L141.866 139.076" stroke="#000000" stroke-width="0.398" fill="none" /><path id="2029" transform="matrix(1 0 0 -1 0 792)" d="M190.285 139.076L193.274 139.076" stroke="#000000" stroke-width="0.398" fill="none" /><path id="2035" transform="matrix(1 0 0 -1 0 792)" d="M288.591 134.795L288.591 148.362" stroke="#000000" stroke-width="0.398" fill="none" /><path id="2037" transform="matrix(1 0 0 -1 0 792)" d="M347.613 134.795L347.613 148.362" stroke="#000000" stroke-width="0.398" fill="none" /><path id="2039" transform="matrix(1 0 0 -1 0 792)" d="M406.635 134.795L406.635 148.362" stroke="#000000" stroke-width="0.398" fill="none" /><path id="2049" transform="matrix(1 0 0 -1 0 792)" d="M478.552 134.795L478.552 148.362" stroke="#000000" stroke-width="0.398" fill="none" /><path id="2050" transform="matrix(1 0 0 -1 0 792)" d="M96.038 134.596L478.751 134.596" stroke="#000000" stroke-width="0.398" fill="none" /><path id="2051" transform="matrix(1 0 0 -1 0 792)" d="M96.237 120.83L96.237 134.397" stroke="#000000" stroke-width="0.398" fill="none" /><path id="2058" transform="matrix(1 0 0 -1 0 792)" d="M138.877 125.111L141.866 125.111" stroke="#000000" stroke-width="0.398" fill="none" /><path id="2067" transform="matrix(1 0 0 -1 0 792)" d="M190.285 125.111L193.274 125.111" stroke="#000000" stroke-width="0.398" fill="none" /><path id="2074" transform="matrix(1 0 0 -1 0 792)" d="M288.591 120.83L288.591 134.397" stroke="#000000" stroke-width="0.398" fill="none" /><path id="2076" transform="matrix(1 0 0 -1 0 792)" d="M347.613 120.83L347.613 134.397" stroke="#000000" stroke-width="0.398" fill="none" /><path id="2082" transform="matrix(1 0 0 -1 0 792)" d="M406.635 120.83L406.635 134.397" stroke="#000000" stroke-width="0.398" fill="none" /><path id="2094" transform="matrix(1 0 0 -1 0 792)" d="M478.552 120.83L478.552 134.397" stroke="#000000" stroke-width="0.398" fill="none" /><path id="2095" transform="matrix(1 0 0 -1 0 792)" d="M96.038 120.63L478.751 120.63" stroke="#000000" stroke-width="0.398" fill="none" /></g></g></svg>