<svg xmlns="http://www.w3.org/2000/svg" xmlns:xlink="http://www.w3.org/1999/xlink" id="body_27" preserveAspectRatio="xMinYMin meet" viewBox="0 0 1632 1056"><defs><clipPath id="1"><path id="" clip-rule="evenodd" transform="matrix(1 0 0 1 0 0)" d="M0 792L0 0L0 0L1224 0L1224 0L1224 792L1224 792L0 792z" /></clipPath></defs><g transform="matrix(1.333333 0 0 1.333333 0 0)"><g clip-path="url(#1)"><path id="16" transform="matrix(1 0 0 -1 0 792)" d="M701.933 721.28L1168.588 721.28" stroke="#000000" stroke-width="0.498" fill="none" /><path id="17" transform="matrix(1 0 0 -1 0 792)" d="M1159.621 564.524L1162.61 564.524" stroke="#000000" stroke-width="0.398" fill="none" /><path id="18" transform="matrix(1 0 0 -1 0 792)" d="M744.374 550.975L747.363 550.975" stroke="#000000" stroke-width="0.398" fill="none" /><path id="19" transform="matrix(1 0 0 -1 0 792)" d="M870.112 489.425L873.101 489.425" stroke="#000000" stroke-width="0.398" fill="none" /><path id="20" transform="matrix(1 0 0 -1 0 792)" d="M885.654 489.425L888.643 489.425" stroke="#000000" stroke-width="0.398" fill="none" /><path id="78" transform="matrix(1 0 0 -1 0 792)" d="M833.199 362.143L836.188 362.143" stroke="#000000" stroke-width="0.398" fill="none" /><path id="79" transform="matrix(1 0 0 -1 0 792)" d="M910.675 362.143L913.664 362.143" stroke="#000000" stroke-width="0.398" fill="none" /><path id="80" transform="matrix(1 0 0 -1 0 792)" d="M938.172 362.143L941.161 362.143" stroke="#000000" stroke-width="0.398" fill="none" /><path id="81" transform="matrix(1 0 0 -1 0 792)" d="M928.791 348.593L931.78 348.593" stroke="#000000" stroke-width="0.398" fill="none" /><path id="99" transform="matrix(1 0 0 -1 0 792)" d="M744.374 80.994L747.363 80.994" stroke="#000000" stroke-width="0.398" fill="none" /><path id="100" transform="matrix(1 0 0 -1 0 792)" d="M765.893 80.994L768.882 80.994" stroke="#000000" stroke-width="0.398" fill="none" /><path id="101" transform="matrix(1 0 0 -1 0 792)" d="M858.741 80.994L861.73 80.994" stroke="#000000" stroke-width="0.398" fill="none" /><path id="102" transform="matrix(1 0 0 -1 0 792)" d="M898.193 80.994L901.182 80.994" stroke="#000000" stroke-width="0.398" fill="none" /><path id="103" transform="matrix(1 0 0 -1 0 792)" d="M1058.068 80.994L1061.057 80.994" stroke="#000000" stroke-width="0.398" fill="none" /><path id="104" transform="matrix(1 0 0 -1 0 792)" d="M1079.588 80.994L1082.577 80.994" stroke="#000000" stroke-width="0.398" fill="none" /><path id="105" transform="matrix(1 0 0 -1 0 792)" d="M718.869 682.599L1111.387 682.599L1111.387 682.599L1111.387 695.7445L1111.387 695.7445L718.869 695.7445z" stroke="#FFFFFF" stroke-width="1" fill="#FFFFFF" fill-rule="nonzero" /><path id="138" transform="matrix(1 0 0 -1 0 792)" d="M718.296 649.701L1168.591 649.701L1168.591 649.701L1168.591 670.2537L1168.591 670.2537L718.296 670.2537z" stroke="#FFFFFF" stroke-width="1" fill="#FFFFFF" fill-rule="nonzero" /><path id="169" transform="matrix(1 0 0 -1 0 792)" d="M718.296 613.641L1062.02 613.641L1062.02 613.641L1062.02 634.1937L1062.02 634.1937L718.296 634.1937z" stroke="#FFFFFF" stroke-width="1" fill="#FFFFFF" fill-rule="nonzero" /><path id="192" transform="matrix(1 0 0 -1 0 792)" d="M718.869 591.958L1168.59 591.958L1168.59 591.958L1168.59 605.1035L1168.59 605.1035L718.869 605.1035z" stroke="#FFFFFF" stroke-width="1" fill="#FFFFFF" fill-rule="nonzero" /><path id="237" transform="matrix(1 0 0 -1 0 792)" d="M701.933 578.409L941.78 578.409L941.78 578.409L941.78 591.5545L941.78 591.5545L701.933 591.5545z" stroke="#FFFFFF" stroke-width="1" fill="#FFFFFF" fill-rule="nonzero" /><path id="253" transform="matrix(1 0 0 -1 0 792)" d="M718.869 561.26L1168.587 561.26L1168.587 561.26L1168.587 574.4055L1168.587 574.4055L718.869 574.4055z" stroke="#FFFFFF" stroke-width="1" fill="#FFFFFF" fill-rule="nonzero" /><path id="289" transform="matrix(1 0 0 -1 0 792)" d="M701.933 534.162L1168.585 534.162L1168.585 534.162L1168.585 560.8565L1168.585 560.8565L701.933 560.8565z" stroke="#FFFFFF" stroke-width="1" fill="#FFFFFF" fill-rule="nonzero" /><path id="325" transform="matrix(1 0 0 -1 0 792)" d="M718.296 501.264L929.039 501.264L929.039 501.264L929.039 521.8168L929.039 521.8168L718.296 521.8168z" stroke="#FFFFFF" stroke-width="1" fill="#FFFFFF" fill-rule="nonzero" /><path id="347" transform="matrix(1 0 0 -1 0 792)" d="M718.296 478.753L912.552 478.753L912.552 478.753L912.552 499.3058L912.552 499.3058L718.296 499.3058z" stroke="#FFFFFF" stroke-width="1" fill="#FFFFFF" fill-rule="nonzero" /><path id="366" transform="matrix(1 0 0 -1 0 792)" d="M718.869 460.671L1088.687 460.671L1088.687 460.671L1088.687 473.8165L1088.687 473.8165L718.869 473.8165z" stroke="#FFFFFF" stroke-width="1" fill="#FFFFFF" fill-rule="nonzero" /><path id="391" transform="matrix(1 0 0 -1 0 792)" d="M701.933 409.858L946.439 409.858L946.439 409.858L946.439 423.0035L946.439 423.0035L701.933 423.0035z" stroke="#FFFFFF" stroke-width="1" fill="#FFFFFF" fill-rule="nonzero" /><path id="411" transform="matrix(1 0 0 -1 0 792)" d="M718.869 358.878L1168.591 358.878L1168.591 358.878L1168.591 372.0235L1168.591 372.0235L718.869 372.0235z" stroke="#FFFFFF" stroke-width="1" fill="#FFFFFF" fill-rule="nonzero" /><path id="455" transform="matrix(1 0 0 -1 0 792)" d="M701.933 331.78L1168.588 331.78L1168.588 331.78L1168.588 358.4745L1168.588 358.4745L701.933 358.4745z" stroke="#FFFFFF" stroke-width="1" fill="#FFFFFF" fill-rule="nonzero" /><path id="499" transform="matrix(1 0 0 -1 0 792)" d="M718.869 318.231L1168.585 318.231L1168.585 318.231L1168.585 331.3765L1168.585 331.3765L718.869 331.3765z" stroke="#FFFFFF" stroke-width="1" fill="#FFFFFF" fill-rule="nonzero" /><path id="534" transform="matrix(1 0 0 -1 0 792)" d="M701.933 277.583L1168.591 277.583L1168.591 277.583L1168.591 317.8275L1168.591 317.8275L701.933 317.8275z" stroke="#FFFFFF" stroke-width="1" fill="#FFFFFF" fill-rule="nonzero" /><path id="633" transform="matrix(1 0 0 -1 0 792)" d="M701.933 172.574L1168.591 172.574L1168.591 172.574L1168.591 239.9154L1168.591 239.9154L701.933 239.9154z" stroke="#FFFFFF" stroke-width="1" fill="#FFFFFF" fill-rule="nonzero" /><path id="763" transform="matrix(1 0 0 -1 0 792)" d="M718.869 159.024L1168.585 159.024L1168.585 159.024L1168.585 172.1695L1168.585 172.1695L718.869 172.1695z" stroke="#FFFFFF" stroke-width="1" fill="#FFFFFF" fill-rule="nonzero" /><path id="798" transform="matrix(1 0 0 -1 0 792)" d="M701.933 64.1796L1168.591 64.1796L1168.591 64.1796L1168.591 158.6201L1168.591 158.6201L701.933 158.6201z" stroke="#FFFFFF" stroke-width="1" fill="#FFFFFF" fill-rule="nonzero" /><path id="1088" transform="matrix(1 0 0 -1 0 792)" d="M89.933 721.28L556.588 721.28" stroke="#000000" stroke-width="0.498" fill="none" /><path id="1547" transform="matrix(1 0 0 -1 0 792)" d="M547.621 564.524L550.61 564.524" stroke="#000000" stroke-width="0.398" fill="none" /><path id="1556" transform="matrix(1 0 0 -1 0 792)" d="M132.374 550.975L135.363 550.975" stroke="#000000" stroke-width="0.398" fill="none" /><path id="1707" transform="matrix(1 0 0 -1 0 792)" d="M258.112 489.425L261.101 489.425" stroke="#000000" stroke-width="0.398" fill="none" /><path id="1710" transform="matrix(1 0 0 -1 0 792)" d="M273.654 489.425L276.643 489.425" stroke="#000000" stroke-width="0.398" fill="none" /><path id="1904" transform="matrix(1 0 0 -1 0 792)" d="M221.199 362.143L224.188 362.143" stroke="#000000" stroke-width="0.398" fill="none" /><path id="1917" transform="matrix(1 0 0 -1 0 792)" d="M298.675 362.143L301.664 362.143" stroke="#000000" stroke-width="0.398" fill="none" /><path id="1922" transform="matrix(1 0 0 -1 0 792)" d="M326.172 362.143L329.161 362.143" stroke="#000000" stroke-width="0.398" fill="none" /><path id="2008" transform="matrix(1 0 0 -1 0 792)" d="M316.791 348.593L319.78 348.593" stroke="#000000" stroke-width="0.398" fill="none" /><path id="3357" transform="matrix(1 0 0 -1 0 792)" d="M132.374 80.994L135.363 80.994" stroke="#000000" stroke-width="0.398" fill="none" /><path id="3361" transform="matrix(1 0 0 -1 0 792)" d="M153.893 80.994L156.882 80.994" stroke="#000000" stroke-width="0.398" fill="none" /><path id="3377" transform="matrix(1 0 0 -1 0 792)" d="M246.741 80.994L249.73 80.994" stroke="#000000" stroke-width="0.398" fill="none" /><path id="3384" transform="matrix(1 0 0 -1 0 792)" d="M286.193 80.994L289.182 80.994" stroke="#000000" stroke-width="0.398" fill="none" /><path id="3413" transform="matrix(1 0 0 -1 0 792)" d="M446.068 80.994L449.057 80.994" stroke="#000000" stroke-width="0.398" fill="none" /><path id="3417" transform="matrix(1 0 0 -1 0 792)" d="M467.588 80.994L470.577 80.994" stroke="#000000" stroke-width="0.398" fill="none" /></g></g></svg>