<svg xmlns="http://www.w3.org/2000/svg" xmlns:xlink="http://www.w3.org/1999/xlink" id="body_11" preserveAspectRatio="xMinYMin meet" viewBox="0 0 1632 1056"><defs><clipPath id="1"><path id="" clip-rule="evenodd" transform="matrix(1 0 0 1 0 0)" d="M0 792L0 0L0 0L1224 0L1224 0L1224 792L1224 792L0 792z" /></clipPath></defs><g transform="matrix(1.333333 0 0 1.333333 0 0)"><g clip-path="url(#1)"><path id="17" transform="matrix(1 0 0 -1 0 792)" d="M701.933 721.28L1168.588 721.28" stroke="#000000" stroke-width="0.498" fill="none" /><path id="18" transform="matrix(1 0 0 -1 0 792)" d="M712.884 696.423L1157.636 696.423" stroke="#000000" stroke-width="0.398" fill="none" /><path id="19" transform="matrix(1 0 0 -1 0 792)" d="M712.884 696.423L1157.636 696.423" stroke="#000000" stroke-width="0.398" fill="none" /><path id="20" transform="matrix(1 0 0 -1 0 792)" d="M713.0829 682.658L713.0829 696.225" stroke="#000000" stroke-width="0.398" fill="none" /><path id="21" transform="matrix(1 0 0 -1 0 792)" d="M713.283 682.658L1042.038 682.658L1042.038 696.225L713.283 696.225z" stroke="none" fill="#CCCCEB" fill-rule="nonzero" /><path id="31" transform="matrix(1 0 0 -1 0 792)" d="M1042.237 682.658L1042.237 696.225" stroke="#000000" stroke-width="0.398" fill="none" /><path id="32" transform="matrix(1 0 0 -1 0 792)" d="M1042.436 682.658L1157.238 682.658L1157.238 696.225L1042.436 696.225z" stroke="none" fill="#CCCCEB" fill-rule="nonzero" /><path id="39" transform="matrix(1 0 0 -1 0 792)" d="M1157.437 682.658L1157.437 696.225" stroke="#000000" stroke-width="0.398" fill="none" /><path id="40" transform="matrix(1 0 0 -1 0 792)" d="M712.884 682.458L1157.636 682.458" stroke="#000000" stroke-width="0.398" fill="none" /><path id="41" transform="matrix(1 0 0 -1 0 792)" d="M712.884 682.458L1157.636 682.458" stroke="#000000" stroke-width="0.398" fill="none" /><path id="42" transform="matrix(1 0 0 -1 0 792)" d="M712.884 682.06L1157.636 682.06" stroke="#000000" stroke-width="0.398" fill="none" /><path id="43" transform="matrix(1 0 0 -1 0 792)" d="M712.884 682.06L1157.636 682.06" stroke="#000000" stroke-width="0.398" fill="none" /><path id="44" transform="matrix(1 0 0 -1 0 792)" d="M712.884 682.06L1157.636 682.06" stroke="#000000" stroke-width="0.398" fill="none" /><path id="45" transform="matrix(1 0 0 -1 0 792)" d="M713.0829 668.294L713.0829 681.861" stroke="#000000" stroke-width="0.398" fill="none" /><path id="84" transform="matrix(1 0 0 -1 0 792)" d="M1042.237 668.294L1042.237 681.861" stroke="#000000" stroke-width="0.398" fill="none" /><path id="86" transform="matrix(1 0 0 -1 0 792)" d="M1157.437 668.294L1157.437 681.861" stroke="#000000" stroke-width="0.398" fill="none" /><path id="87" transform="matrix(1 0 0 -1 0 792)" d="M712.884 668.095L1157.636 668.095" stroke="#000000" stroke-width="0.398" fill="none" /><path id="88" transform="matrix(1 0 0 -1 0 792)" d="M712.884 668.095L1157.636 668.095" stroke="#000000" stroke-width="0.398" fill="none" /><path id="89" transform="matrix(1 0 0 -1 0 792)" d="M713.0829 654.329L713.0829 667.896" stroke="#000000" stroke-width="0.398" fill="none" /><path id="129" transform="matrix(1 0 0 -1 0 792)" d="M1042.237 654.329L1042.237 667.896" stroke="#000000" stroke-width="0.398" fill="none" /><path id="131" transform="matrix(1 0 0 -1 0 792)" d="M1157.437 654.329L1157.437 667.896" stroke="#000000" stroke-width="0.398" fill="none" /><path id="132" transform="matrix(1 0 0 -1 0 792)" d="M712.884 654.129L1157.636 654.129" stroke="#000000" stroke-width="0.398" fill="none" /><path id="133" transform="matrix(1 0 0 -1 0 792)" d="M712.884 654.129L1157.636 654.129" stroke="#000000" stroke-width="0.398" fill="none" /><path id="150" transform="matrix(1 0 0 -1 0 792)" d="M701.933 450.345L1086.864 450.345" stroke="#000000" stroke-width="0.398" fill="none" /><path id="151" transform="matrix(1 0 0 -1 0 792)" d="M702.132 436.579L702.132 450.146" stroke="#000000" stroke-width="0.398" fill="none" /><path id="152" transform="matrix(1 0 0 -1 0 792)" d="M702.331 436.579L1031.086 436.579L1031.086 450.146L702.331 450.146z" stroke="none" fill="#CCCCEB" fill-rule="nonzero" /><path id="162" transform="matrix(1 0 0 -1 0 792)" d="M1031.285 436.579L1031.285 450.146" stroke="#000000" stroke-width="0.398" fill="none" /><path id="163" transform="matrix(1 0 0 -1 0 792)" d="M1031.484 436.579L1086.464 436.579L1086.464 450.146L1031.484 450.146z" stroke="none" fill="#CCCCEB" fill-rule="nonzero" /><path id="170" transform="matrix(1 0 0 -1 0 792)" d="M1086.664 436.579L1086.664 450.146" stroke="#000000" stroke-width="0.398" fill="none" /><path id="171" transform="matrix(1 0 0 -1 0 792)" d="M701.933 436.379L1086.864 436.379" stroke="#000000" stroke-width="0.398" fill="none" /><path id="172" transform="matrix(1 0 0 -1 0 792)" d="M701.933 433.988L1086.864 433.988" stroke="#000000" stroke-width="0.398" fill="none" /><path id="173" transform="matrix(1 0 0 -1 0 792)" d="M702.132 420.222L702.132 433.789" stroke="#000000" stroke-width="0.398" fill="none" /><path id="211" transform="matrix(1 0 0 -1 0 792)" d="M1031.285 420.222L1031.285 433.789" stroke="#000000" stroke-width="0.398" fill="none" /><path id="213" transform="matrix(1 0 0 -1 0 792)" d="M1086.664 420.222L1086.664 433.789" stroke="#000000" stroke-width="0.398" fill="none" /><path id="214" transform="matrix(1 0 0 -1 0 792)" d="M701.933 420.023L1086.864 420.023" stroke="#000000" stroke-width="0.398" fill="none" /><path id="215" transform="matrix(1 0 0 -1 0 792)" d="M702.132 406.257L702.132 419.824" stroke="#000000" stroke-width="0.398" fill="none" /><path id="259" transform="matrix(1 0 0 -1 0 792)" d="M1031.285 406.257L1031.285 419.824" stroke="#000000" stroke-width="0.398" fill="none" /><path id="261" transform="matrix(1 0 0 -1 0 792)" d="M1086.664 406.257L1086.664 419.824" stroke="#000000" stroke-width="0.398" fill="none" /><path id="262" transform="matrix(1 0 0 -1 0 792)" d="M701.933 406.058L1086.864 406.058" stroke="#000000" stroke-width="0.398" fill="none" /><path id="263" transform="matrix(1 0 0 -1 0 792)" d="M702.132 392.292L702.132 405.859" stroke="#000000" stroke-width="0.398" fill="none" /><path id="299" transform="matrix(1 0 0 -1 0 792)" d="M1031.285 392.292L1031.285 405.859" stroke="#000000" stroke-width="0.398" fill="none" /><path id="301" transform="matrix(1 0 0 -1 0 792)" d="M1086.664 392.292L1086.664 405.859" stroke="#000000" stroke-width="0.398" fill="none" /><path id="302" transform="matrix(1 0 0 -1 0 792)" d="M701.933 392.093L1086.864 392.093" stroke="#000000" stroke-width="0.398" fill="none" /><path id="303" transform="matrix(1 0 0 -1 0 792)" d="M702.132 364.795L702.132 391.893" stroke="#000000" stroke-width="0.398" fill="none" /><path id="368" transform="matrix(1 0 0 -1 0 792)" d="M1031.285 364.795L1031.285 391.893" stroke="#000000" stroke-width="0.398" fill="none" /><path id="370" transform="matrix(1 0 0 -1 0 792)" d="M1086.664 364.795L1086.664 391.893" stroke="#000000" stroke-width="0.398" fill="none" /><path id="371" transform="matrix(1 0 0 -1 0 792)" d="M701.933 364.596L1086.864 364.596" stroke="#000000" stroke-width="0.398" fill="none" /><path id="372" transform="matrix(1 0 0 -1 0 792)" d="M702.132 337.298L702.132 364.396" stroke="#000000" stroke-width="0.398" fill="none" /><path id="443" transform="matrix(1 0 0 -1 0 792)" d="M1031.285 337.298L1031.285 364.396" stroke="#000000" stroke-width="0.398" fill="none" /><path id="445" transform="matrix(1 0 0 -1 0 792)" d="M1086.664 337.298L1086.664 364.396" stroke="#000000" stroke-width="0.398" fill="none" /><path id="446" transform="matrix(1 0 0 -1 0 792)" d="M701.933 337.099L1086.864 337.099" stroke="#000000" stroke-width="0.398" fill="none" /><path id="447" transform="matrix(1 0 0 -1 0 792)" d="M702.132 323.333L702.132 336.9" stroke="#000000" stroke-width="0.398" fill="none" /><path id="485" transform="matrix(1 0 0 -1 0 792)" d="M1031.285 323.333L1031.285 336.9" stroke="#000000" stroke-width="0.398" fill="none" /><path id="487" transform="matrix(1 0 0 -1 0 792)" d="M1086.664 323.333L1086.664 336.9" stroke="#000000" stroke-width="0.398" fill="none" /><path id="488" transform="matrix(1 0 0 -1 0 792)" d="M701.933 323.134L1086.864 323.134" stroke="#000000" stroke-width="0.398" fill="none" /><path id="489" transform="matrix(1 0 0 -1 0 792)" d="M702.132 309.368L702.132 322.935" stroke="#000000" stroke-width="0.398" fill="none" /><path id="520" transform="matrix(1 0 0 -1 0 792)" d="M1031.285 309.368L1031.285 322.935" stroke="#000000" stroke-width="0.398" fill="none" /><path id="522" transform="matrix(1 0 0 -1 0 792)" d="M1086.664 309.368L1086.664 322.935" stroke="#000000" stroke-width="0.398" fill="none" /><path id="523" transform="matrix(1 0 0 -1 0 792)" d="M701.933 309.169L1086.864 309.169" stroke="#000000" stroke-width="0.398" fill="none" /><path id="524" transform="matrix(1 0 0 -1 0 792)" d="M713.093 282.704L1157.427 282.704" stroke="#000000" stroke-width="0.398" fill="none" /><path id="525" transform="matrix(1 0 0 -1 0 792)" d="M713.293 268.956L713.293 282.505" stroke="#000000" stroke-width="0.398" fill="none" /><path id="526" transform="matrix(1 0 0 -1 0 792)" d="M713.4919 268.956L794.7869 268.956L794.7869 282.505L713.4919 282.505z" stroke="none" fill="#CCCCEB" fill-rule="nonzero" /><path id="531" transform="matrix(1 0 0 -1 0 792)" d="M794.986 268.956L794.986 282.505" stroke="#000000" stroke-width="0.398" fill="none" /><path id="532" transform="matrix(1 0 0 -1 0 792)" d="M795.186 268.956L848.9839 268.956L848.9839 282.505L795.186 282.505z" stroke="none" fill="#CCCCEB" fill-rule="nonzero" /><path id="537" transform="matrix(1 0 0 -1 0 792)" d="M849.183 268.956L849.183 282.505" stroke="#000000" stroke-width="0.398" fill="none" /><path id="538" transform="matrix(1 0 0 -1 0 792)" d="M849.382 268.956L924.7 268.956L924.7 282.505L849.382 282.505z" stroke="none" fill="#CCCCEB" fill-rule="nonzero" /><path id="551" transform="matrix(1 0 0 -1 0 792)" d="M924.899 268.956L924.899 282.505" stroke="#000000" stroke-width="0.398" fill="none" /><path id="552" transform="matrix(1 0 0 -1 0 792)" d="M925.098 268.956L1157.028 268.956L1157.028 282.505L925.098 282.505z" stroke="none" fill="#CCCCEB" fill-rule="nonzero" /><path id="564" transform="matrix(1 0 0 -1 0 792)" d="M1157.228 268.956L1157.228 282.505" stroke="#000000" stroke-width="0.398" fill="none" /><path id="565" transform="matrix(1 0 0 -1 0 792)" d="M713.093 268.757L1157.427 268.757" stroke="#000000" stroke-width="0.398" fill="none" /><path id="566" transform="matrix(1 0 0 -1 0 792)" d="M713.093 266.366L1157.427 266.366" stroke="#000000" stroke-width="0.398" fill="none" /><path id="567" transform="matrix(1 0 0 -1 0 792)" d="M713.293 252.617L713.293 266.166" stroke="#000000" stroke-width="0.398" fill="none" /><path id="568" transform="matrix(1 0 0 -1 0 792)" d="M755.933 256.881L758.922 256.881" stroke="#000000" stroke-width="0.398" fill="none" /><path id="569" transform="matrix(1 0 0 -1 0 792)" d="M794.986 252.617L794.986 266.166" stroke="#000000" stroke-width="0.398" fill="none" /><path id="570" transform="matrix(1 0 0 -1 0 792)" d="M849.183 252.617L849.183 266.166" stroke="#000000" stroke-width="0.398" fill="none" /><path id="571" transform="matrix(1 0 0 -1 0 792)" d="M924.899 252.617L924.899 266.166" stroke="#000000" stroke-width="0.398" fill="none" /><path id="572" transform="matrix(1 0 0 -1 0 792)" d="M1157.228 252.617L1157.228 266.166" stroke="#000000" stroke-width="0.398" fill="none" /><path id="573" transform="matrix(1 0 0 -1 0 792)" d="M713.093 252.418L1157.427 252.418" stroke="#000000" stroke-width="0.398" fill="none" /><path id="574" transform="matrix(1 0 0 -1 0 792)" d="M713.293 238.669L713.293 252.218" stroke="#000000" stroke-width="0.398" fill="none" /><path id="575" transform="matrix(1 0 0 -1 0 792)" d="M755.933 242.934L758.922 242.934" stroke="#000000" stroke-width="0.398" fill="none" /><path id="576" transform="matrix(1 0 0 -1 0 792)" d="M794.986 238.669L794.986 252.218" stroke="#000000" stroke-width="0.398" fill="none" /><path id="577" transform="matrix(1 0 0 -1 0 792)" d="M849.183 238.669L849.183 252.218" stroke="#000000" stroke-width="0.398" fill="none" /><path id="578" transform="matrix(1 0 0 -1 0 792)" d="M891.823 242.934L894.812 242.934" stroke="#000000" stroke-width="0.398" fill="none" /><path id="579" transform="matrix(1 0 0 -1 0 792)" d="M924.899 238.669L924.899 252.218" stroke="#000000" stroke-width="0.398" fill="none" /><path id="580" transform="matrix(1 0 0 -1 0 792)" d="M967.539 242.934L970.528 242.934" stroke="#000000" stroke-width="0.398" fill="none" /><path id="581" transform="matrix(1 0 0 -1 0 792)" d="M1048.834 242.934L1051.823 242.934" stroke="#000000" stroke-width="0.398" fill="none" /><path id="582" transform="matrix(1 0 0 -1 0 792)" d="M1124.152 242.934L1127.141 242.934" stroke="#000000" stroke-width="0.398" fill="none" /><path id="583" transform="matrix(1 0 0 -1 0 792)" d="M1157.228 238.669L1157.228 252.218" stroke="#000000" stroke-width="0.398" fill="none" /><path id="584" transform="matrix(1 0 0 -1 0 792)" d="M713.093 238.47L1157.427 238.47" stroke="#000000" stroke-width="0.398" fill="none" /><path id="585" transform="matrix(1 0 0 -1 0 792)" d="M784.556 128.604L787.545 128.604" stroke="#000000" stroke-width="0.398" fill="none" /><path id="586" transform="matrix(1 0 0 -1 0 792)" d="M729.206 600.396L1168.588 600.396L1168.588 600.396L1168.588 636.6408L1168.588 636.6408L729.206 636.6408z" stroke="#FFFFFF" stroke-width="1" fill="#FFFFFF" fill-rule="nonzero" /><path id="674" transform="matrix(1 0 0 -1 0 792)" d="M729.206 584.015L1157.963 584.015L1157.963 584.015L1157.963 596.3487L1157.963 596.3487L729.206 596.3487z" stroke="#FFFFFF" stroke-width="1" fill="#FFFFFF" fill-rule="nonzero" /><path id="707" transform="matrix(1 0 0 -1 0 792)" d="M701.933 477.5L1168.591 477.5L1168.591 477.5L1168.591 531.2925L1168.591 531.2925L701.933 531.2925z" stroke="#FFFFFF" stroke-width="1" fill="#FFFFFF" fill-rule="nonzero" /><path id="838" transform="matrix(1 0 0 -1 0 792)" d="M718.869 462.901L964.736 462.901L964.736 462.901L964.736 476.3783L964.736 476.3783L718.869 476.3783z" stroke="#FFFFFF" stroke-width="1" fill="#FFFFFF" fill-rule="nonzero" /><path id="866" transform="matrix(1 0 0 -1 0 792)" d="M719.469 254.321L1074.538 254.321L1074.538 254.321L1074.538 264.7618L1074.538 264.7618L719.469 264.7618z" stroke="#FFFFFF" stroke-width="1" fill="#FFFFFF" fill-rule="nonzero" /><path id="886" transform="matrix(1 0 0 -1 0 792)" d="M719.469 240.373L1151.051 240.373L1151.051 240.373L1151.051 250.8138L1151.051 250.8138L719.469 250.8138z" stroke="#FFFFFF" stroke-width="1" fill="#FFFFFF" fill-rule="nonzero" /><path id="911" transform="matrix(1 0 0 -1 0 792)" d="M822.036 215.759L1048.487 215.759L1048.487 215.759L1048.487 228.9045L1048.487 228.9045L822.036 228.9045z" stroke="#FFFFFF" stroke-width="1" fill="#FFFFFF" fill-rule="nonzero" /><path id="927" transform="matrix(1 0 0 -1 0 792)" d="M729.206 153.902L1168.59 153.902L1168.59 153.902L1168.59 178.2605L1168.59 178.2605L729.206 178.2605z" stroke="#FFFFFF" stroke-width="1" fill="#FFFFFF" fill-rule="nonzero" /><path id="994" transform="matrix(1 0 0 -1 0 792)" d="M729.206 77.7446L1168.587 77.7446L1168.587 77.7446L1168.587 149.8543L1168.587 149.8543L729.206 149.8543z" stroke="#FFFFFF" stroke-width="1" fill="#FFFFFF" fill-rule="nonzero" /><path id="1237" transform="matrix(1 0 0 -1 0 792)" d="M89.933 721.28L556.588 721.28" stroke="#000000" stroke-width="0.498" fill="none" /><path id="1238" transform="matrix(1 0 0 -1 0 792)" d="M100.884 696.423L545.636 696.423" stroke="#000000" stroke-width="0.398" fill="none" /><path id="1239" transform="matrix(1 0 0 -1 0 792)" d="M100.884 696.423L545.636 696.423" stroke="#000000" stroke-width="0.398" fill="none" /><path id="1240" transform="matrix(1 0 0 -1 0 792)" d="M101.083 682.658L101.083 696.225" stroke="#000000" stroke-width="0.398" fill="none" /><path id="1241" transform="matrix(1 0 0 -1 0 792)" d="M101.283 682.658L430.038 682.658L430.038 696.225L101.283 696.225z" stroke="none" fill="#CCCCEB" fill-rule="nonzero" /><path id="1251" transform="matrix(1 0 0 -1 0 792)" d="M430.237 682.658L430.237 696.225" stroke="#000000" stroke-width="0.398" fill="none" /><path id="1252" transform="matrix(1 0 0 -1 0 792)" d="M430.436 682.658L545.238 682.658L545.238 696.225L430.436 696.225z" stroke="none" fill="#CCCCEB" fill-rule="nonzero" /><path id="1259" transform="matrix(1 0 0 -1 0 792)" d="M545.437 682.658L545.437 696.225" stroke="#000000" stroke-width="0.398" fill="none" /><path id="1260" transform="matrix(1 0 0 -1 0 792)" d="M100.884 682.458L545.636 682.458" stroke="#000000" stroke-width="0.398" fill="none" /><path id="1261" transform="matrix(1 0 0 -1 0 792)" d="M100.884 682.458L545.636 682.458" stroke="#000000" stroke-width="0.398" fill="none" /><path id="1262" transform="matrix(1 0 0 -1 0 792)" d="M100.884 682.06L545.636 682.06" stroke="#000000" stroke-width="0.398" fill="none" /><path id="1263" transform="matrix(1 0 0 -1 0 792)" d="M100.884 682.06L545.636 682.06" stroke="#000000" stroke-width="0.398" fill="none" /><path id="1264" transform="matrix(1 0 0 -1 0 792)" d="M100.884 682.06L545.636 682.06" stroke="#000000" stroke-width="0.398" fill="none" /><path id="1265" transform="matrix(1 0 0 -1 0 792)" d="M101.083 668.294L101.083 681.861" stroke="#000000" stroke-width="0.398" fill="none" /><path id="1304" transform="matrix(1 0 0 -1 0 792)" d="M430.237 668.294L430.237 681.861" stroke="#000000" stroke-width="0.398" fill="none" /><path id="1306" transform="matrix(1 0 0 -1 0 792)" d="M545.437 668.294L545.437 681.861" stroke="#000000" stroke-width="0.398" fill="none" /><path id="1307" transform="matrix(1 0 0 -1 0 792)" d="M100.884 668.095L545.636 668.095" stroke="#000000" stroke-width="0.398" fill="none" /><path id="1308" transform="matrix(1 0 0 -1 0 792)" d="M100.884 668.095L545.636 668.095" stroke="#000000" stroke-width="0.398" fill="none" /><path id="1309" transform="matrix(1 0 0 -1 0 792)" d="M101.083 654.329L101.083 667.896" stroke="#000000" stroke-width="0.398" fill="none" /><path id="1349" transform="matrix(1 0 0 -1 0 792)" d="M430.237 654.329L430.237 667.896" stroke="#000000" stroke-width="0.398" fill="none" /><path id="1351" transform="matrix(1 0 0 -1 0 792)" d="M545.437 654.329L545.437 667.896" stroke="#000000" stroke-width="0.398" fill="none" /><path id="1352" transform="matrix(1 0 0 -1 0 792)" d="M100.884 654.129L545.636 654.129" stroke="#000000" stroke-width="0.398" fill="none" /><path id="1353" transform="matrix(1 0 0 -1 0 792)" d="M100.884 654.129L545.636 654.129" stroke="#000000" stroke-width="0.398" fill="none" /><path id="2054" transform="matrix(1 0 0 -1 0 792)" d="M89.933 450.345L474.864 450.345" stroke="#000000" stroke-width="0.398" fill="none" /><path id="2055" transform="matrix(1 0 0 -1 0 792)" d="M90.132 436.579L90.132 450.146" stroke="#000000" stroke-width="0.398" fill="none" /><path id="2056" transform="matrix(1 0 0 -1 0 792)" d="M90.331 436.579L419.086 436.579L419.086 450.146L90.331 450.146z" stroke="none" fill="#CCCCEB" fill-rule="nonzero" /><path id="2066" transform="matrix(1 0 0 -1 0 792)" d="M419.285 436.579L419.285 450.146" stroke="#000000" stroke-width="0.398" fill="none" /><path id="2067" transform="matrix(1 0 0 -1 0 792)" d="M419.484 436.579L474.464 436.579L474.464 450.146L419.484 450.146z" stroke="none" fill="#CCCCEB" fill-rule="nonzero" /><path id="2074" transform="matrix(1 0 0 -1 0 792)" d="M474.664 436.579L474.664 450.146" stroke="#000000" stroke-width="0.398" fill="none" /><path id="2075" transform="matrix(1 0 0 -1 0 792)" d="M89.933 436.379L474.864 436.379" stroke="#000000" stroke-width="0.398" fill="none" /><path id="2076" transform="matrix(1 0 0 -1 0 792)" d="M89.933 433.988L474.864 433.988" stroke="#000000" stroke-width="0.398" fill="none" /><path id="2077" transform="matrix(1 0 0 -1 0 792)" d="M90.132 420.222L90.132 433.789" stroke="#000000" stroke-width="0.398" fill="none" /><path id="2115" transform="matrix(1 0 0 -1 0 792)" d="M419.285 420.222L419.285 433.789" stroke="#000000" stroke-width="0.398" fill="none" /><path id="2117" transform="matrix(1 0 0 -1 0 792)" d="M474.664 420.222L474.664 433.789" stroke="#000000" stroke-width="0.398" fill="none" /><path id="2118" transform="matrix(1 0 0 -1 0 792)" d="M89.933 420.023L474.864 420.023" stroke="#000000" stroke-width="0.398" fill="none" /><path id="2119" transform="matrix(1 0 0 -1 0 792)" d="M90.132 406.257L90.132 419.824" stroke="#000000" stroke-width="0.398" fill="none" /><path id="2163" transform="matrix(1 0 0 -1 0 792)" d="M419.285 406.257L419.285 419.824" stroke="#000000" stroke-width="0.398" fill="none" /><path id="2165" transform="matrix(1 0 0 -1 0 792)" d="M474.664 406.257L474.664 419.824" stroke="#000000" stroke-width="0.398" fill="none" /><path id="2166" transform="matrix(1 0 0 -1 0 792)" d="M89.933 406.058L474.864 406.058" stroke="#000000" stroke-width="0.398" fill="none" /><path id="2167" transform="matrix(1 0 0 -1 0 792)" d="M90.132 392.292L90.132 405.859" stroke="#000000" stroke-width="0.398" fill="none" /><path id="2203" transform="matrix(1 0 0 -1 0 792)" d="M419.285 392.292L419.285 405.859" stroke="#000000" stroke-width="0.398" fill="none" /><path id="2205" transform="matrix(1 0 0 -1 0 792)" d="M474.664 392.292L474.664 405.859" stroke="#000000" stroke-width="0.398" fill="none" /><path id="2206" transform="matrix(1 0 0 -1 0 792)" d="M89.933 392.093L474.864 392.093" stroke="#000000" stroke-width="0.398" fill="none" /><path id="2207" transform="matrix(1 0 0 -1 0 792)" d="M90.132 364.795L90.132 391.893" stroke="#000000" stroke-width="0.398" fill="none" /><path id="2272" transform="matrix(1 0 0 -1 0 792)" d="M419.285 364.795L419.285 391.893" stroke="#000000" stroke-width="0.398" fill="none" /><path id="2274" transform="matrix(1 0 0 -1 0 792)" d="M474.664 364.795L474.664 391.893" stroke="#000000" stroke-width="0.398" fill="none" /><path id="2275" transform="matrix(1 0 0 -1 0 792)" d="M89.933 364.596L474.864 364.596" stroke="#000000" stroke-width="0.398" fill="none" /><path id="2276" transform="matrix(1 0 0 -1 0 792)" d="M90.132 337.298L90.132 364.396" stroke="#000000" stroke-width="0.398" fill="none" /><path id="2347" transform="matrix(1 0 0 -1 0 792)" d="M419.285 337.298L419.285 364.396" stroke="#000000" stroke-width="0.398" fill="none" /><path id="2349" transform="matrix(1 0 0 -1 0 792)" d="M474.664 337.298L474.664 364.396" stroke="#000000" stroke-width="0.398" fill="none" /><path id="2350" transform="matrix(1 0 0 -1 0 792)" d="M89.933 337.099L474.864 337.099" stroke="#000000" stroke-width="0.398" fill="none" /><path id="2351" transform="matrix(1 0 0 -1 0 792)" d="M90.132 323.333L90.132 336.9" stroke="#000000" stroke-width="0.398" fill="none" /><path id="2389" transform="matrix(1 0 0 -1 0 792)" d="M419.285 323.333L419.285 336.9" stroke="#000000" stroke-width="0.398" fill="none" /><path id="2391" transform="matrix(1 0 0 -1 0 792)" d="M474.664 323.333L474.664 336.9" stroke="#000000" stroke-width="0.398" fill="none" /><path id="2392" transform="matrix(1 0 0 -1 0 792)" d="M89.933 323.134L474.864 323.134" stroke="#000000" stroke-width="0.398" fill="none" /><path id="2393" transform="matrix(1 0 0 -1 0 792)" d="M90.132 309.368L90.132 322.935" stroke="#000000" stroke-width="0.398" fill="none" /><path id="2424" transform="matrix(1 0 0 -1 0 792)" d="M419.285 309.368L419.285 322.935" stroke="#000000" stroke-width="0.398" fill="none" /><path id="2426" transform="matrix(1 0 0 -1 0 792)" d="M474.664 309.368L474.664 322.935" stroke="#000000" stroke-width="0.398" fill="none" /><path id="2427" transform="matrix(1 0 0 -1 0 792)" d="M89.933 309.169L474.864 309.169" stroke="#000000" stroke-width="0.398" fill="none" /><path id="2428" transform="matrix(1 0 0 -1 0 792)" d="M101.093 282.704L545.427 282.704" stroke="#000000" stroke-width="0.398" fill="none" /><path id="2429" transform="matrix(1 0 0 -1 0 792)" d="M101.293 268.956L101.293 282.505" stroke="#000000" stroke-width="0.398" fill="none" /><path id="2430" transform="matrix(1 0 0 -1 0 792)" d="M101.492 268.956L182.787 268.956L182.787 282.505L101.492 282.505z" stroke="none" fill="#CCCCEB" fill-rule="nonzero" /><path id="2435" transform="matrix(1 0 0 -1 0 792)" d="M182.986 268.956L182.986 282.505" stroke="#000000" stroke-width="0.398" fill="none" /><path id="2436" transform="matrix(1 0 0 -1 0 792)" d="M183.186 268.956L236.984 268.956L236.984 282.505L183.186 282.505z" stroke="none" fill="#CCCCEB" fill-rule="nonzero" /><path id="2441" transform="matrix(1 0 0 -1 0 792)" d="M237.183 268.956L237.183 282.505" stroke="#000000" stroke-width="0.398" fill="none" /><path id="2442" transform="matrix(1 0 0 -1 0 792)" d="M237.382 268.956L312.7 268.956L312.7 282.505L237.382 282.505z" stroke="none" fill="#CCCCEB" fill-rule="nonzero" /><path id="2455" transform="matrix(1 0 0 -1 0 792)" d="M312.899 268.956L312.899 282.505" stroke="#000000" stroke-width="0.398" fill="none" /><path id="2456" transform="matrix(1 0 0 -1 0 792)" d="M313.098 268.956L545.028 268.956L545.028 282.505L313.098 282.505z" stroke="none" fill="#CCCCEB" fill-rule="nonzero" /><path id="2468" transform="matrix(1 0 0 -1 0 792)" d="M545.228 268.956L545.228 282.505" stroke="#000000" stroke-width="0.398" fill="none" /><path id="2469" transform="matrix(1 0 0 -1 0 792)" d="M101.093 268.757L545.427 268.757" stroke="#000000" stroke-width="0.398" fill="none" /><path id="2470" transform="matrix(1 0 0 -1 0 792)" d="M101.093 266.366L545.427 266.366" stroke="#000000" stroke-width="0.398" fill="none" /><path id="2471" transform="matrix(1 0 0 -1 0 792)" d="M101.293 252.617L101.293 266.166" stroke="#000000" stroke-width="0.398" fill="none" /><path id="2478" transform="matrix(1 0 0 -1 0 792)" d="M143.933 256.881L146.922 256.881" stroke="#000000" stroke-width="0.398" fill="none" /><path id="2483" transform="matrix(1 0 0 -1 0 792)" d="M182.986 252.617L182.986 266.166" stroke="#000000" stroke-width="0.398" fill="none" /><path id="2491" transform="matrix(1 0 0 -1 0 792)" d="M237.183 252.617L237.183 266.166" stroke="#000000" stroke-width="0.398" fill="none" /><path id="2493" transform="matrix(1 0 0 -1 0 792)" d="M312.899 252.617L312.899 266.166" stroke="#000000" stroke-width="0.398" fill="none" /><path id="2516" transform="matrix(1 0 0 -1 0 792)" d="M545.228 252.617L545.228 266.166" stroke="#000000" stroke-width="0.398" fill="none" /><path id="2517" transform="matrix(1 0 0 -1 0 792)" d="M101.093 252.418L545.427 252.418" stroke="#000000" stroke-width="0.398" fill="none" /><path id="2518" transform="matrix(1 0 0 -1 0 792)" d="M101.293 238.669L101.293 252.218" stroke="#000000" stroke-width="0.398" fill="none" /><path id="2525" transform="matrix(1 0 0 -1 0 792)" d="M143.933 242.934L146.922 242.934" stroke="#000000" stroke-width="0.398" fill="none" /><path id="2531" transform="matrix(1 0 0 -1 0 792)" d="M182.986 238.669L182.986 252.218" stroke="#000000" stroke-width="0.398" fill="none" /><path id="2536" transform="matrix(1 0 0 -1 0 792)" d="M237.183 238.669L237.183 252.218" stroke="#000000" stroke-width="0.398" fill="none" /><path id="2543" transform="matrix(1 0 0 -1 0 792)" d="M279.823 242.934L282.812 242.934" stroke="#000000" stroke-width="0.398" fill="none" /><path id="2548" transform="matrix(1 0 0 -1 0 792)" d="M312.899 238.669L312.899 252.218" stroke="#000000" stroke-width="0.398" fill="none" /><path id="2555" transform="matrix(1 0 0 -1 0 792)" d="M355.539 242.934L358.528 242.934" stroke="#000000" stroke-width="0.398" fill="none" /><path id="2568" transform="matrix(1 0 0 -1 0 792)" d="M436.834 242.934L439.823 242.934" stroke="#000000" stroke-width="0.398" fill="none" /><path id="2580" transform="matrix(1 0 0 -1 0 792)" d="M512.152 242.934L515.141 242.934" stroke="#000000" stroke-width="0.398" fill="none" /><path id="2585" transform="matrix(1 0 0 -1 0 792)" d="M545.228 238.669L545.228 252.218" stroke="#000000" stroke-width="0.398" fill="none" /><path id="2586" transform="matrix(1 0 0 -1 0 792)" d="M101.093 238.47L545.427 238.47" stroke="#000000" stroke-width="0.398" fill="none" /><path id="2884" transform="matrix(1 0 0 -1 0 792)" d="M172.556 128.604L175.545 128.604" stroke="#000000" stroke-width="0.398" fill="none" /></g></g></svg>