<svg xmlns="http://www.w3.org/2000/svg" xmlns:xlink="http://www.w3.org/1999/xlink" id="body_23" preserveAspectRatio="xMinYMin meet" viewBox="0 0 1632 1056"><defs><clipPath id="1"><path id="" clip-rule="evenodd" transform="matrix(1 0 0 1 0 0)" d="M0 792L0 0L0 0L1224 0L1224 0L1224 792L1224 792L0 792z" /></clipPath></defs><g transform="matrix(1.333333 0 0 1.333333 0 0)"><g clip-path="url(#1)"><path id="16" transform="matrix(1 0 0 -1 0 792)" d="M701.933 721.28L1168.588 721.28" stroke="#000000" stroke-width="0.498" fill="none" /><path id="17" transform="matrix(1 0 0 -1 0 792)" d="M712.884 696.423L1157.636 696.423" stroke="#000000" stroke-width="0.398" fill="none" /><path id="18" transform="matrix(1 0 0 -1 0 792)" d="M712.884 696.423L1157.636 696.423" stroke="#000000" stroke-width="0.398" fill="none" /><path id="19" transform="matrix(1 0 0 -1 0 792)" d="M713.0829 682.658L713.0829 696.225" stroke="#000000" stroke-width="0.398" fill="none" /><path id="20" transform="matrix(1 0 0 -1 0 792)" d="M713.283 682.658L1042.038 682.658L1042.038 696.225L713.283 696.225z" stroke="none" fill="#CCCCEB" fill-rule="nonzero" /><path id="30" transform="matrix(1 0 0 -1 0 792)" d="M1042.237 682.658L1042.237 696.225" stroke="#000000" stroke-width="0.398" fill="none" /><path id="31" transform="matrix(1 0 0 -1 0 792)" d="M1042.436 682.658L1157.238 682.658L1157.238 696.225L1042.436 696.225z" stroke="none" fill="#CCCCEB" fill-rule="nonzero" /><path id="38" transform="matrix(1 0 0 -1 0 792)" d="M1157.437 682.658L1157.437 696.225" stroke="#000000" stroke-width="0.398" fill="none" /><path id="39" transform="matrix(1 0 0 -1 0 792)" d="M712.884 682.458L1157.636 682.458" stroke="#000000" stroke-width="0.398" fill="none" /><path id="40" transform="matrix(1 0 0 -1 0 792)" d="M712.884 682.458L1157.636 682.458" stroke="#000000" stroke-width="0.398" fill="none" /><path id="41" transform="matrix(1 0 0 -1 0 792)" d="M712.884 682.06L1157.636 682.06" stroke="#000000" stroke-width="0.398" fill="none" /><path id="42" transform="matrix(1 0 0 -1 0 792)" d="M712.884 682.06L1157.636 682.06" stroke="#000000" stroke-width="0.398" fill="none" /><path id="43" transform="matrix(1 0 0 -1 0 792)" d="M712.884 682.06L1157.636 682.06" stroke="#000000" stroke-width="0.398" fill="none" /><path id="44" transform="matrix(1 0 0 -1 0 792)" d="M713.0829 654.762L713.0829 681.86" stroke="#000000" stroke-width="0.398" fill="none" /><path id="118" transform="matrix(1 0 0 -1 0 792)" d="M1042.237 654.762L1042.237 681.86" stroke="#000000" stroke-width="0.398" fill="none" /><path id="120" transform="matrix(1 0 0 -1 0 792)" d="M1157.437 654.762L1157.437 681.86" stroke="#000000" stroke-width="0.398" fill="none" /><path id="121" transform="matrix(1 0 0 -1 0 792)" d="M712.884 654.563L1157.636 654.563" stroke="#000000" stroke-width="0.398" fill="none" /><path id="122" transform="matrix(1 0 0 -1 0 792)" d="M712.884 654.563L1157.636 654.563" stroke="#000000" stroke-width="0.398" fill="none" /><path id="123" transform="matrix(1 0 0 -1 0 792)" d="M713.0829 627.265L713.0829 654.363" stroke="#000000" stroke-width="0.398" fill="none" /><path id="185" transform="matrix(1 0 0 -1 0 792)" d="M1042.237 627.265L1042.237 654.363" stroke="#000000" stroke-width="0.398" fill="none" /><path id="187" transform="matrix(1 0 0 -1 0 792)" d="M1157.437 627.265L1157.437 654.363" stroke="#000000" stroke-width="0.398" fill="none" /><path id="188" transform="matrix(1 0 0 -1 0 792)" d="M712.884 627.066L1157.636 627.066" stroke="#000000" stroke-width="0.398" fill="none" /><path id="189" transform="matrix(1 0 0 -1 0 792)" d="M712.884 627.066L1157.636 627.066" stroke="#000000" stroke-width="0.398" fill="none" /><path id="190" transform="matrix(1 0 0 -1 0 792)" d="M713.0829 613.318L713.0829 626.867" stroke="#000000" stroke-width="0.398" fill="none" /><path id="191" transform="matrix(1 0 0 -1 0 792)" d="M1157.437 613.318L1157.437 626.867" stroke="#000000" stroke-width="0.398" fill="none" /><path id="192" transform="matrix(1 0 0 -1 0 792)" d="M712.884 613.118L1157.636 613.118" stroke="#000000" stroke-width="0.398" fill="none" /><path id="193" transform="matrix(1 0 0 -1 0 792)" d="M712.884 613.118L1157.636 613.118" stroke="#000000" stroke-width="0.398" fill="none" /><path id="194" transform="matrix(1 0 0 -1 0 792)" d="M713.0829 599.352L713.0829 612.919" stroke="#000000" stroke-width="0.398" fill="none" /><path id="221" transform="matrix(1 0 0 -1 0 792)" d="M1042.237 599.352L1042.237 612.919" stroke="#000000" stroke-width="0.398" fill="none" /><path id="223" transform="matrix(1 0 0 -1 0 792)" d="M1157.437 599.352L1157.437 612.919" stroke="#000000" stroke-width="0.398" fill="none" /><path id="224" transform="matrix(1 0 0 -1 0 792)" d="M712.884 599.153L1157.636 599.153" stroke="#000000" stroke-width="0.398" fill="none" /><path id="225" transform="matrix(1 0 0 -1 0 792)" d="M712.884 599.153L1157.636 599.153" stroke="#000000" stroke-width="0.398" fill="none" /><path id="226" transform="matrix(1 0 0 -1 0 792)" d="M713.0829 571.856L713.0829 598.954" stroke="#000000" stroke-width="0.398" fill="none" /><path id="280" transform="matrix(1 0 0 -1 0 792)" d="M1042.237 571.856L1042.237 598.954" stroke="#000000" stroke-width="0.398" fill="none" /><path id="282" transform="matrix(1 0 0 -1 0 792)" d="M1157.437 571.856L1157.437 598.954" stroke="#000000" stroke-width="0.398" fill="none" /><path id="283" transform="matrix(1 0 0 -1 0 792)" d="M712.884 571.656L1157.636 571.656" stroke="#000000" stroke-width="0.398" fill="none" /><path id="284" transform="matrix(1 0 0 -1 0 792)" d="M712.884 571.656L1157.636 571.656" stroke="#000000" stroke-width="0.398" fill="none" /><path id="285" transform="matrix(1 0 0 -1 0 792)" d="M713.0829 557.89L713.0829 571.457" stroke="#000000" stroke-width="0.398" fill="none" /><path id="313" transform="matrix(1 0 0 -1 0 792)" d="M1042.237 557.89L1042.237 571.457" stroke="#000000" stroke-width="0.398" fill="none" /><path id="315" transform="matrix(1 0 0 -1 0 792)" d="M1157.437 557.89L1157.437 571.457" stroke="#000000" stroke-width="0.398" fill="none" /><path id="316" transform="matrix(1 0 0 -1 0 792)" d="M712.884 557.691L1157.636 557.691" stroke="#000000" stroke-width="0.398" fill="none" /><path id="317" transform="matrix(1 0 0 -1 0 792)" d="M712.884 557.691L1157.636 557.691" stroke="#000000" stroke-width="0.398" fill="none" /><path id="318" transform="matrix(1 0 0 -1 0 792)" d="M713.0829 530.394L713.0829 557.492" stroke="#000000" stroke-width="0.398" fill="none" /><path id="390" transform="matrix(1 0 0 -1 0 792)" d="M1042.237 530.394L1042.237 557.492" stroke="#000000" stroke-width="0.398" fill="none" /><path id="392" transform="matrix(1 0 0 -1 0 792)" d="M1157.437 530.394L1157.437 557.492" stroke="#000000" stroke-width="0.398" fill="none" /><path id="393" transform="matrix(1 0 0 -1 0 792)" d="M712.884 530.194L1157.636 530.194" stroke="#000000" stroke-width="0.398" fill="none" /><path id="394" transform="matrix(1 0 0 -1 0 792)" d="M712.884 530.194L1157.636 530.194" stroke="#000000" stroke-width="0.398" fill="none" /><path id="395" transform="matrix(1 0 0 -1 0 792)" d="M713.0829 502.897L713.0829 529.995" stroke="#000000" stroke-width="0.398" fill="none" /><path id="454" transform="matrix(1 0 0 -1 0 792)" d="M1042.237 502.897L1042.237 529.995" stroke="#000000" stroke-width="0.398" fill="none" /><path id="456" transform="matrix(1 0 0 -1 0 792)" d="M1157.437 502.897L1157.437 529.995" stroke="#000000" stroke-width="0.398" fill="none" /><path id="457" transform="matrix(1 0 0 -1 0 792)" d="M712.884 502.697L1157.636 502.697" stroke="#000000" stroke-width="0.398" fill="none" /><path id="458" transform="matrix(1 0 0 -1 0 792)" d="M712.884 502.697L1157.636 502.697" stroke="#000000" stroke-width="0.398" fill="none" /><path id="459" transform="matrix(1 0 0 -1 0 792)" d="M713.0829 488.949L713.0829 502.498" stroke="#000000" stroke-width="0.398" fill="none" /><path id="460" transform="matrix(1 0 0 -1 0 792)" d="M1157.437 488.949L1157.437 502.498" stroke="#000000" stroke-width="0.398" fill="none" /><path id="461" transform="matrix(1 0 0 -1 0 792)" d="M712.884 488.75L1157.636 488.75" stroke="#000000" stroke-width="0.398" fill="none" /><path id="462" transform="matrix(1 0 0 -1 0 792)" d="M712.884 488.75L1157.636 488.75" stroke="#000000" stroke-width="0.398" fill="none" /><path id="463" transform="matrix(1 0 0 -1 0 792)" d="M713.0829 461.452L713.0829 488.55" stroke="#000000" stroke-width="0.398" fill="none" /><path id="532" transform="matrix(1 0 0 -1 0 792)" d="M1042.237 461.452L1042.237 488.55" stroke="#000000" stroke-width="0.398" fill="none" /><path id="534" transform="matrix(1 0 0 -1 0 792)" d="M1157.437 461.452L1157.437 488.55" stroke="#000000" stroke-width="0.398" fill="none" /><path id="535" transform="matrix(1 0 0 -1 0 792)" d="M712.884 461.253L1157.636 461.253" stroke="#000000" stroke-width="0.398" fill="none" /><path id="536" transform="matrix(1 0 0 -1 0 792)" d="M712.884 461.253L1157.636 461.253" stroke="#000000" stroke-width="0.398" fill="none" /><path id="537" transform="matrix(1 0 0 -1 0 792)" d="M713.0829 447.487L713.0829 461.054" stroke="#000000" stroke-width="0.398" fill="none" /><path id="578" transform="matrix(1 0 0 -1 0 792)" d="M1042.237 447.487L1042.237 461.054" stroke="#000000" stroke-width="0.398" fill="none" /><path id="580" transform="matrix(1 0 0 -1 0 792)" d="M1157.437 447.487L1157.437 461.054" stroke="#000000" stroke-width="0.398" fill="none" /><path id="581" transform="matrix(1 0 0 -1 0 792)" d="M712.884 447.288L1157.636 447.288" stroke="#000000" stroke-width="0.398" fill="none" /><path id="582" transform="matrix(1 0 0 -1 0 792)" d="M712.884 447.288L1157.636 447.288" stroke="#000000" stroke-width="0.398" fill="none" /><path id="593" transform="matrix(1 0 0 -1 0 792)" d="M701.933 195.551L1086.864 195.551" stroke="#000000" stroke-width="0.398" fill="none" /><path id="594" transform="matrix(1 0 0 -1 0 792)" d="M702.132 181.785L702.132 195.352" stroke="#000000" stroke-width="0.398" fill="none" /><path id="595" transform="matrix(1 0 0 -1 0 792)" d="M702.331 181.785L1031.086 181.785L1031.086 195.352L702.331 195.352z" stroke="none" fill="#CCCCEB" fill-rule="nonzero" /><path id="605" transform="matrix(1 0 0 -1 0 792)" d="M1031.285 181.785L1031.285 195.352" stroke="#000000" stroke-width="0.398" fill="none" /><path id="606" transform="matrix(1 0 0 -1 0 792)" d="M1031.484 181.785L1086.464 181.785L1086.464 195.352L1031.484 195.352z" stroke="none" fill="#CCCCEB" fill-rule="nonzero" /><path id="613" transform="matrix(1 0 0 -1 0 792)" d="M1086.664 181.785L1086.664 195.352" stroke="#000000" stroke-width="0.398" fill="none" /><path id="614" transform="matrix(1 0 0 -1 0 792)" d="M701.933 181.586L1086.864 181.586" stroke="#000000" stroke-width="0.398" fill="none" /><path id="615" transform="matrix(1 0 0 -1 0 792)" d="M701.933 179.195L1086.864 179.195" stroke="#000000" stroke-width="0.398" fill="none" /><path id="616" transform="matrix(1 0 0 -1 0 792)" d="M702.132 138.348L702.132 178.996" stroke="#000000" stroke-width="0.398" fill="none" /><path id="713" transform="matrix(1 0 0 -1 0 792)" d="M1031.285 138.348L1031.285 178.996" stroke="#000000" stroke-width="0.398" fill="none" /><path id="715" transform="matrix(1 0 0 -1 0 792)" d="M1086.664 138.348L1086.664 178.996" stroke="#000000" stroke-width="0.398" fill="none" /><path id="716" transform="matrix(1 0 0 -1 0 792)" d="M701.933 138.149L1086.864 138.149" stroke="#000000" stroke-width="0.398" fill="none" /><path id="717" transform="matrix(1 0 0 -1 0 792)" d="M729.206 323.012L1168.59 323.012L1168.59 323.012L1168.59 430.987L1168.59 430.987L729.206 430.987z" stroke="#FFFFFF" stroke-width="1" fill="#FFFFFF" fill-rule="nonzero" /><path id="960" transform="matrix(1 0 0 -1 0 792)" d="M729.206 271.36L1168.588 271.36L1168.588 271.36L1168.588 319.6284L1168.588 319.6284L729.206 319.6284z" stroke="#FFFFFF" stroke-width="1" fill="#FFFFFF" fill-rule="nonzero" /><path id="1093" transform="matrix(1 0 0 -1 0 792)" d="M701.933 207.845L848.889 207.845L848.889 207.845L848.889 220.9905L848.889 220.9905L701.933 220.9905z" stroke="#FFFFFF" stroke-width="1" fill="#FFFFFF" fill-rule="nonzero" /><path id="1102" transform="matrix(1 0 0 -1 0 792)" d="M729.206 66.6226L1168.59 66.6226L1168.59 66.6226L1168.59 114.8911L1168.59 114.8911L729.206 114.8911z" stroke="#FFFFFF" stroke-width="1" fill="#FFFFFF" fill-rule="nonzero" /><path id="1236" transform="matrix(1 0 0 -1 0 792)" d="M89.933 721.28L556.588 721.28" stroke="#000000" stroke-width="0.498" fill="none" /><path id="1237" transform="matrix(1 0 0 -1 0 792)" d="M100.884 696.423L545.636 696.423" stroke="#000000" stroke-width="0.398" fill="none" /><path id="1238" transform="matrix(1 0 0 -1 0 792)" d="M100.884 696.423L545.636 696.423" stroke="#000000" stroke-width="0.398" fill="none" /><path id="1239" transform="matrix(1 0 0 -1 0 792)" d="M101.083 682.658L101.083 696.225" stroke="#000000" stroke-width="0.398" fill="none" /><path id="1240" transform="matrix(1 0 0 -1 0 792)" d="M101.283 682.658L430.038 682.658L430.038 696.225L101.283 696.225z" stroke="none" fill="#CCCCEB" fill-rule="nonzero" /><path id="1250" transform="matrix(1 0 0 -1 0 792)" d="M430.237 682.658L430.237 696.225" stroke="#000000" stroke-width="0.398" fill="none" /><path id="1251" transform="matrix(1 0 0 -1 0 792)" d="M430.436 682.658L545.238 682.658L545.238 696.225L430.436 696.225z" stroke="none" fill="#CCCCEB" fill-rule="nonzero" /><path id="1258" transform="matrix(1 0 0 -1 0 792)" d="M545.437 682.658L545.437 696.225" stroke="#000000" stroke-width="0.398" fill="none" /><path id="1259" transform="matrix(1 0 0 -1 0 792)" d="M100.884 682.458L545.636 682.458" stroke="#000000" stroke-width="0.398" fill="none" /><path id="1260" transform="matrix(1 0 0 -1 0 792)" d="M100.884 682.458L545.636 682.458" stroke="#000000" stroke-width="0.398" fill="none" /><path id="1261" transform="matrix(1 0 0 -1 0 792)" d="M100.884 682.06L545.636 682.06" stroke="#000000" stroke-width="0.398" fill="none" /><path id="1262" transform="matrix(1 0 0 -1 0 792)" d="M100.884 682.06L545.636 682.06" stroke="#000000" stroke-width="0.398" fill="none" /><path id="1263" transform="matrix(1 0 0 -1 0 792)" d="M100.884 682.06L545.636 682.06" stroke="#000000" stroke-width="0.398" fill="none" /><path id="1264" transform="matrix(1 0 0 -1 0 792)" d="M101.083 654.762L101.083 681.86" stroke="#000000" stroke-width="0.398" fill="none" /><path id="1338" transform="matrix(1 0 0 -1 0 792)" d="M430.237 654.762L430.237 681.86" stroke="#000000" stroke-width="0.398" fill="none" /><path id="1340" transform="matrix(1 0 0 -1 0 792)" d="M545.437 654.762L545.437 681.86" stroke="#000000" stroke-width="0.398" fill="none" /><path id="1341" transform="matrix(1 0 0 -1 0 792)" d="M100.884 654.563L545.636 654.563" stroke="#000000" stroke-width="0.398" fill="none" /><path id="1342" transform="matrix(1 0 0 -1 0 792)" d="M100.884 654.563L545.636 654.563" stroke="#000000" stroke-width="0.398" fill="none" /><path id="1343" transform="matrix(1 0 0 -1 0 792)" d="M101.083 627.265L101.083 654.363" stroke="#000000" stroke-width="0.398" fill="none" /><path id="1405" transform="matrix(1 0 0 -1 0 792)" d="M430.237 627.265L430.237 654.363" stroke="#000000" stroke-width="0.398" fill="none" /><path id="1407" transform="matrix(1 0 0 -1 0 792)" d="M545.437 627.265L545.437 654.363" stroke="#000000" stroke-width="0.398" fill="none" /><path id="1408" transform="matrix(1 0 0 -1 0 792)" d="M100.884 627.066L545.636 627.066" stroke="#000000" stroke-width="0.398" fill="none" /><path id="1409" transform="matrix(1 0 0 -1 0 792)" d="M100.884 627.066L545.636 627.066" stroke="#000000" stroke-width="0.398" fill="none" /><path id="1410" transform="matrix(1 0 0 -1 0 792)" d="M101.083 613.318L101.083 626.867" stroke="#000000" stroke-width="0.398" fill="none" /><path id="1411" transform="matrix(1 0 0 -1 0 792)" d="M545.437 613.318L545.437 626.867" stroke="#000000" stroke-width="0.398" fill="none" /><path id="1412" transform="matrix(1 0 0 -1 0 792)" d="M100.884 613.118L545.636 613.118" stroke="#000000" stroke-width="0.398" fill="none" /><path id="1413" transform="matrix(1 0 0 -1 0 792)" d="M100.884 613.118L545.636 613.118" stroke="#000000" stroke-width="0.398" fill="none" /><path id="1414" transform="matrix(1 0 0 -1 0 792)" d="M101.083 599.352L101.083 612.919" stroke="#000000" stroke-width="0.398" fill="none" /><path id="1441" transform="matrix(1 0 0 -1 0 792)" d="M430.237 599.352L430.237 612.919" stroke="#000000" stroke-width="0.398" fill="none" /><path id="1443" transform="matrix(1 0 0 -1 0 792)" d="M545.437 599.352L545.437 612.919" stroke="#000000" stroke-width="0.398" fill="none" /><path id="1444" transform="matrix(1 0 0 -1 0 792)" d="M100.884 599.153L545.636 599.153" stroke="#000000" stroke-width="0.398" fill="none" /><path id="1445" transform="matrix(1 0 0 -1 0 792)" d="M100.884 599.153L545.636 599.153" stroke="#000000" stroke-width="0.398" fill="none" /><path id="1446" transform="matrix(1 0 0 -1 0 792)" d="M101.083 571.856L101.083 598.954" stroke="#000000" stroke-width="0.398" fill="none" /><path id="1500" transform="matrix(1 0 0 -1 0 792)" d="M430.237 571.856L430.237 598.954" stroke="#000000" stroke-width="0.398" fill="none" /><path id="1502" transform="matrix(1 0 0 -1 0 792)" d="M545.437 571.856L545.437 598.954" stroke="#000000" stroke-width="0.398" fill="none" /><path id="1503" transform="matrix(1 0 0 -1 0 792)" d="M100.884 571.656L545.636 571.656" stroke="#000000" stroke-width="0.398" fill="none" /><path id="1504" transform="matrix(1 0 0 -1 0 792)" d="M100.884 571.656L545.636 571.656" stroke="#000000" stroke-width="0.398" fill="none" /><path id="1505" transform="matrix(1 0 0 -1 0 792)" d="M101.083 557.89L101.083 571.457" stroke="#000000" stroke-width="0.398" fill="none" /><path id="1533" transform="matrix(1 0 0 -1 0 792)" d="M430.237 557.89L430.237 571.457" stroke="#000000" stroke-width="0.398" fill="none" /><path id="1535" transform="matrix(1 0 0 -1 0 792)" d="M545.437 557.89L545.437 571.457" stroke="#000000" stroke-width="0.398" fill="none" /><path id="1536" transform="matrix(1 0 0 -1 0 792)" d="M100.884 557.691L545.636 557.691" stroke="#000000" stroke-width="0.398" fill="none" /><path id="1537" transform="matrix(1 0 0 -1 0 792)" d="M100.884 557.691L545.636 557.691" stroke="#000000" stroke-width="0.398" fill="none" /><path id="1538" transform="matrix(1 0 0 -1 0 792)" d="M101.083 530.394L101.083 557.492" stroke="#000000" stroke-width="0.398" fill="none" /><path id="1610" transform="matrix(1 0 0 -1 0 792)" d="M430.237 530.394L430.237 557.492" stroke="#000000" stroke-width="0.398" fill="none" /><path id="1612" transform="matrix(1 0 0 -1 0 792)" d="M545.437 530.394L545.437 557.492" stroke="#000000" stroke-width="0.398" fill="none" /><path id="1613" transform="matrix(1 0 0 -1 0 792)" d="M100.884 530.194L545.636 530.194" stroke="#000000" stroke-width="0.398" fill="none" /><path id="1614" transform="matrix(1 0 0 -1 0 792)" d="M100.884 530.194L545.636 530.194" stroke="#000000" stroke-width="0.398" fill="none" /><path id="1615" transform="matrix(1 0 0 -1 0 792)" d="M101.083 502.897L101.083 529.995" stroke="#000000" stroke-width="0.398" fill="none" /><path id="1674" transform="matrix(1 0 0 -1 0 792)" d="M430.237 502.897L430.237 529.995" stroke="#000000" stroke-width="0.398" fill="none" /><path id="1676" transform="matrix(1 0 0 -1 0 792)" d="M545.437 502.897L545.437 529.995" stroke="#000000" stroke-width="0.398" fill="none" /><path id="1677" transform="matrix(1 0 0 -1 0 792)" d="M100.884 502.697L545.636 502.697" stroke="#000000" stroke-width="0.398" fill="none" /><path id="1678" transform="matrix(1 0 0 -1 0 792)" d="M100.884 502.697L545.636 502.697" stroke="#000000" stroke-width="0.398" fill="none" /><path id="1679" transform="matrix(1 0 0 -1 0 792)" d="M101.083 488.949L101.083 502.498" stroke="#000000" stroke-width="0.398" fill="none" /><path id="1680" transform="matrix(1 0 0 -1 0 792)" d="M545.437 488.949L545.437 502.498" stroke="#000000" stroke-width="0.398" fill="none" /><path id="1681" transform="matrix(1 0 0 -1 0 792)" d="M100.884 488.75L545.636 488.75" stroke="#000000" stroke-width="0.398" fill="none" /><path id="1682" transform="matrix(1 0 0 -1 0 792)" d="M100.884 488.75L545.636 488.75" stroke="#000000" stroke-width="0.398" fill="none" /><path id="1683" transform="matrix(1 0 0 -1 0 792)" d="M101.083 461.452L101.083 488.55" stroke="#000000" stroke-width="0.398" fill="none" /><path id="1752" transform="matrix(1 0 0 -1 0 792)" d="M430.237 461.452L430.237 488.55" stroke="#000000" stroke-width="0.398" fill="none" /><path id="1754" transform="matrix(1 0 0 -1 0 792)" d="M545.437 461.452L545.437 488.55" stroke="#000000" stroke-width="0.398" fill="none" /><path id="1755" transform="matrix(1 0 0 -1 0 792)" d="M100.884 461.253L545.636 461.253" stroke="#000000" stroke-width="0.398" fill="none" /><path id="1756" transform="matrix(1 0 0 -1 0 792)" d="M100.884 461.253L545.636 461.253" stroke="#000000" stroke-width="0.398" fill="none" /><path id="1757" transform="matrix(1 0 0 -1 0 792)" d="M101.083 447.487L101.083 461.054" stroke="#000000" stroke-width="0.398" fill="none" /><path id="1798" transform="matrix(1 0 0 -1 0 792)" d="M430.237 447.487L430.237 461.054" stroke="#000000" stroke-width="0.398" fill="none" /><path id="1800" transform="matrix(1 0 0 -1 0 792)" d="M545.437 447.487L545.437 461.054" stroke="#000000" stroke-width="0.398" fill="none" /><path id="1801" transform="matrix(1 0 0 -1 0 792)" d="M100.884 447.288L545.636 447.288" stroke="#000000" stroke-width="0.398" fill="none" /><path id="1802" transform="matrix(1 0 0 -1 0 792)" d="M100.884 447.288L545.636 447.288" stroke="#000000" stroke-width="0.398" fill="none" /><path id="2858" transform="matrix(1 0 0 -1 0 792)" d="M89.933 195.551L474.864 195.551" stroke="#000000" stroke-width="0.398" fill="none" /><path id="2859" transform="matrix(1 0 0 -1 0 792)" d="M90.132 181.785L90.132 195.352" stroke="#000000" stroke-width="0.398" fill="none" /><path id="2860" transform="matrix(1 0 0 -1 0 792)" d="M90.331 181.785L419.086 181.785L419.086 195.352L90.331 195.352z" stroke="none" fill="#CCCCEB" fill-rule="nonzero" /><path id="2870" transform="matrix(1 0 0 -1 0 792)" d="M419.285 181.785L419.285 195.352" stroke="#000000" stroke-width="0.398" fill="none" /><path id="2871" transform="matrix(1 0 0 -1 0 792)" d="M419.484 181.785L474.464 181.785L474.464 195.352L419.484 195.352z" stroke="none" fill="#CCCCEB" fill-rule="nonzero" /><path id="2878" transform="matrix(1 0 0 -1 0 792)" d="M474.664 181.785L474.664 195.352" stroke="#000000" stroke-width="0.398" fill="none" /><path id="2879" transform="matrix(1 0 0 -1 0 792)" d="M89.933 181.586L474.864 181.586" stroke="#000000" stroke-width="0.398" fill="none" /><path id="2880" transform="matrix(1 0 0 -1 0 792)" d="M89.933 179.195L474.864 179.195" stroke="#000000" stroke-width="0.398" fill="none" /><path id="2881" transform="matrix(1 0 0 -1 0 792)" d="M90.132 138.348L90.132 178.996" stroke="#000000" stroke-width="0.398" fill="none" /><path id="2978" transform="matrix(1 0 0 -1 0 792)" d="M419.285 138.348L419.285 178.996" stroke="#000000" stroke-width="0.398" fill="none" /><path id="2980" transform="matrix(1 0 0 -1 0 792)" d="M474.664 138.348L474.664 178.996" stroke="#000000" stroke-width="0.398" fill="none" /><path id="2981" transform="matrix(1 0 0 -1 0 792)" d="M89.933 138.149L474.864 138.149" stroke="#000000" stroke-width="0.398" fill="none" /></g></g></svg>