<svg xmlns="http://www.w3.org/2000/svg" xmlns:xlink="http://www.w3.org/1999/xlink" id="body_25" preserveAspectRatio="xMinYMin meet" viewBox="0 0 1632 1056"><defs><clipPath id="1"><path id="" clip-rule="evenodd" transform="matrix(1 0 0 1 0 0)" d="M0 792L0 0L0 0L1224 0L1224 0L1224 792L1224 792L0 792z" /></clipPath></defs><g transform="matrix(1.333333 0 0 1.333333 0 0)"><g clip-path="url(#1)"><path id="16" transform="matrix(1 0 0 -1 0 792)" d="M701.933 721.28L1168.588 721.28" stroke="#000000" stroke-width="0.498" fill="none" /><path id="26" transform="matrix(1 0 0 -1 0 792)" d="M742.795 671.148L1127.726 671.148" stroke="#000000" stroke-width="0.398" fill="none" /><path id="27" transform="matrix(1 0 0 -1 0 792)" d="M742.795 671.148L1127.726 671.148" stroke="#000000" stroke-width="0.398" fill="none" /><path id="28" transform="matrix(1 0 0 -1 0 792)" d="M742.994 657.382L742.994 670.949" stroke="#000000" stroke-width="0.398" fill="none" /><path id="29" transform="matrix(1 0 0 -1 0 792)" d="M743.193 657.382L1071.948 657.382L1071.948 670.949L743.193 670.949z" stroke="none" fill="#CCCCEB" fill-rule="nonzero" /><path id="39" transform="matrix(1 0 0 -1 0 792)" d="M1072.147 657.382L1072.147 670.949" stroke="#000000" stroke-width="0.398" fill="none" /><path id="40" transform="matrix(1 0 0 -1 0 792)" d="M1072.347 657.382L1127.327 657.382L1127.327 670.949L1072.347 670.949z" stroke="none" fill="#CCCCEB" fill-rule="nonzero" /><path id="47" transform="matrix(1 0 0 -1 0 792)" d="M1127.526 657.382L1127.526 670.949" stroke="#000000" stroke-width="0.398" fill="none" /><path id="48" transform="matrix(1 0 0 -1 0 792)" d="M742.795 657.182L1127.726 657.182" stroke="#000000" stroke-width="0.398" fill="none" /><path id="49" transform="matrix(1 0 0 -1 0 792)" d="M742.795 657.182L1127.726 657.182" stroke="#000000" stroke-width="0.398" fill="none" /><path id="50" transform="matrix(1 0 0 -1 0 792)" d="M742.795 656.784L1127.726 656.784" stroke="#000000" stroke-width="0.398" fill="none" /><path id="51" transform="matrix(1 0 0 -1 0 792)" d="M742.795 656.784L1127.726 656.784" stroke="#000000" stroke-width="0.398" fill="none" /><path id="52" transform="matrix(1 0 0 -1 0 792)" d="M742.994 643.018L742.994 656.585" stroke="#000000" stroke-width="0.398" fill="none" /><path id="61" transform="matrix(1 0 0 -1 0 792)" d="M797.589 647.3L800.578 647.3" stroke="#000000" stroke-width="0.398" fill="none" /><path id="66" transform="matrix(1 0 0 -1 0 792)" d="M1072.147 643.018L1072.147 656.585" stroke="#000000" stroke-width="0.398" fill="none" /><path id="68" transform="matrix(1 0 0 -1 0 792)" d="M1127.526 643.018L1127.526 656.585" stroke="#000000" stroke-width="0.398" fill="none" /><path id="69" transform="matrix(1 0 0 -1 0 792)" d="M742.795 642.819L1127.726 642.819" stroke="#000000" stroke-width="0.398" fill="none" /><path id="70" transform="matrix(1 0 0 -1 0 792)" d="M742.795 642.819L1127.726 642.819" stroke="#000000" stroke-width="0.398" fill="none" /><path id="71" transform="matrix(1 0 0 -1 0 792)" d="M742.994 629.053L742.994 642.62" stroke="#000000" stroke-width="0.398" fill="none" /><path id="78" transform="matrix(1 0 0 -1 0 792)" d="M1072.147 629.053L1072.147 642.62" stroke="#000000" stroke-width="0.398" fill="none" /><path id="80" transform="matrix(1 0 0 -1 0 792)" d="M1127.526 629.053L1127.526 642.62" stroke="#000000" stroke-width="0.398" fill="none" /><path id="81" transform="matrix(1 0 0 -1 0 792)" d="M742.795 628.854L1127.726 628.854" stroke="#000000" stroke-width="0.398" fill="none" /><path id="82" transform="matrix(1 0 0 -1 0 792)" d="M742.795 628.854L1127.726 628.854" stroke="#000000" stroke-width="0.398" fill="none" /><path id="83" transform="matrix(1 0 0 -1 0 792)" d="M742.994 615.088L742.994 628.655" stroke="#000000" stroke-width="0.398" fill="none" /><path id="88" transform="matrix(1 0 0 -1 0 792)" d="M1072.147 615.088L1072.147 628.655" stroke="#000000" stroke-width="0.398" fill="none" /><path id="90" transform="matrix(1 0 0 -1 0 792)" d="M1127.526 615.088L1127.526 628.655" stroke="#000000" stroke-width="0.398" fill="none" /><path id="91" transform="matrix(1 0 0 -1 0 792)" d="M742.795 614.889L1127.726 614.889" stroke="#000000" stroke-width="0.398" fill="none" /><path id="92" transform="matrix(1 0 0 -1 0 792)" d="M742.795 614.889L1127.726 614.889" stroke="#000000" stroke-width="0.398" fill="none" /><path id="93" transform="matrix(1 0 0 -1 0 792)" d="M742.994 601.123L742.994 614.69" stroke="#000000" stroke-width="0.398" fill="none" /><path id="102" transform="matrix(1 0 0 -1 0 792)" d="M797.589 605.404L800.578 605.404" stroke="#000000" stroke-width="0.398" fill="none" /><path id="108" transform="matrix(1 0 0 -1 0 792)" d="M1072.147 601.123L1072.147 614.69" stroke="#000000" stroke-width="0.398" fill="none" /><path id="110" transform="matrix(1 0 0 -1 0 792)" d="M1127.526 601.123L1127.526 614.69" stroke="#000000" stroke-width="0.398" fill="none" /><path id="111" transform="matrix(1 0 0 -1 0 792)" d="M742.795 600.923L1127.726 600.923" stroke="#000000" stroke-width="0.398" fill="none" /><path id="112" transform="matrix(1 0 0 -1 0 792)" d="M742.795 600.923L1127.726 600.923" stroke="#000000" stroke-width="0.398" fill="none" /><path id="113" transform="matrix(1 0 0 -1 0 792)" d="M742.994 587.157L742.994 600.724" stroke="#000000" stroke-width="0.398" fill="none" /><path id="119" transform="matrix(1 0 0 -1 0 792)" d="M1072.147 587.157L1072.147 600.724" stroke="#000000" stroke-width="0.398" fill="none" /><path id="121" transform="matrix(1 0 0 -1 0 792)" d="M1127.526 587.157L1127.526 600.724" stroke="#000000" stroke-width="0.398" fill="none" /><path id="122" transform="matrix(1 0 0 -1 0 792)" d="M742.795 586.958L1127.726 586.958" stroke="#000000" stroke-width="0.398" fill="none" /><path id="123" transform="matrix(1 0 0 -1 0 792)" d="M742.795 586.958L1127.726 586.958" stroke="#000000" stroke-width="0.398" fill="none" /><path id="124" transform="matrix(1 0 0 -1 0 792)" d="M742.994 573.192L742.994 586.759" stroke="#000000" stroke-width="0.398" fill="none" /><path id="133" transform="matrix(1 0 0 -1 0 792)" d="M797.589 577.474L800.578 577.474" stroke="#000000" stroke-width="0.398" fill="none" /><path id="137" transform="matrix(1 0 0 -1 0 792)" d="M1072.147 573.192L1072.147 586.759" stroke="#000000" stroke-width="0.398" fill="none" /><path id="139" transform="matrix(1 0 0 -1 0 792)" d="M1127.526 573.192L1127.526 586.759" stroke="#000000" stroke-width="0.398" fill="none" /><path id="140" transform="matrix(1 0 0 -1 0 792)" d="M742.795 572.993L1127.726 572.993" stroke="#000000" stroke-width="0.398" fill="none" /><path id="141" transform="matrix(1 0 0 -1 0 792)" d="M742.795 572.993L1127.726 572.993" stroke="#000000" stroke-width="0.398" fill="none" /><path id="142" transform="matrix(1 0 0 -1 0 792)" d="M742.994 559.227L742.994 572.794" stroke="#000000" stroke-width="0.398" fill="none" /><path id="146" transform="matrix(1 0 0 -1 0 792)" d="M1072.147 559.227L1072.147 572.794" stroke="#000000" stroke-width="0.398" fill="none" /><path id="148" transform="matrix(1 0 0 -1 0 792)" d="M1127.526 559.227L1127.526 572.794" stroke="#000000" stroke-width="0.398" fill="none" /><path id="149" transform="matrix(1 0 0 -1 0 792)" d="M742.795 559.028L1127.726 559.028" stroke="#000000" stroke-width="0.398" fill="none" /><path id="150" transform="matrix(1 0 0 -1 0 792)" d="M742.795 559.028L1127.726 559.028" stroke="#000000" stroke-width="0.398" fill="none" /><path id="151" transform="matrix(1 0 0 -1 0 792)" d="M742.994 545.262L742.994 558.829" stroke="#000000" stroke-width="0.398" fill="none" /><path id="157" transform="matrix(1 0 0 -1 0 792)" d="M1072.147 545.262L1072.147 558.829" stroke="#000000" stroke-width="0.398" fill="none" /><path id="159" transform="matrix(1 0 0 -1 0 792)" d="M1127.526 545.262L1127.526 558.829" stroke="#000000" stroke-width="0.398" fill="none" /><path id="160" transform="matrix(1 0 0 -1 0 792)" d="M742.795 545.063L1127.726 545.063" stroke="#000000" stroke-width="0.398" fill="none" /><path id="161" transform="matrix(1 0 0 -1 0 792)" d="M742.795 545.063L1127.726 545.063" stroke="#000000" stroke-width="0.398" fill="none" /><path id="162" transform="matrix(1 0 0 -1 0 792)" d="M742.994 531.297L742.994 544.864" stroke="#000000" stroke-width="0.398" fill="none" /><path id="171" transform="matrix(1 0 0 -1 0 792)" d="M797.589 535.578L800.578 535.578" stroke="#000000" stroke-width="0.398" fill="none" /><path id="176" transform="matrix(1 0 0 -1 0 792)" d="M825.086 535.578L828.075 535.578" stroke="#000000" stroke-width="0.398" fill="none" /><path id="178" transform="matrix(1 0 0 -1 0 792)" d="M834.65 535.578L837.639 535.578" stroke="#000000" stroke-width="0.398" fill="none" /><path id="180" transform="matrix(1 0 0 -1 0 792)" d="M844.215 535.578L847.204 535.578" stroke="#000000" stroke-width="0.398" fill="none" /><path id="182" transform="matrix(1 0 0 -1 0 792)" d="M1072.147 531.297L1072.147 544.864" stroke="#000000" stroke-width="0.398" fill="none" /><path id="184" transform="matrix(1 0 0 -1 0 792)" d="M1127.526 531.297L1127.526 544.864" stroke="#000000" stroke-width="0.398" fill="none" /><path id="185" transform="matrix(1 0 0 -1 0 792)" d="M742.795 531.098L1127.726 531.098" stroke="#000000" stroke-width="0.398" fill="none" /><path id="186" transform="matrix(1 0 0 -1 0 792)" d="M742.795 531.098L1127.726 531.098" stroke="#000000" stroke-width="0.398" fill="none" /><path id="187" transform="matrix(1 0 0 -1 0 792)" d="M742.994 517.332L742.994 530.899" stroke="#000000" stroke-width="0.398" fill="none" /><path id="196" transform="matrix(1 0 0 -1 0 792)" d="M797.589 521.613L800.578 521.613" stroke="#000000" stroke-width="0.398" fill="none" /><path id="201" transform="matrix(1 0 0 -1 0 792)" d="M825.086 521.613L828.075 521.613" stroke="#000000" stroke-width="0.398" fill="none" /><path id="203" transform="matrix(1 0 0 -1 0 792)" d="M834.65 521.613L837.639 521.613" stroke="#000000" stroke-width="0.398" fill="none" /><path id="205" transform="matrix(1 0 0 -1 0 792)" d="M844.215 521.613L847.204 521.613" stroke="#000000" stroke-width="0.398" fill="none" /><path id="207" transform="matrix(1 0 0 -1 0 792)" d="M853.779 521.613L856.768 521.613" stroke="#000000" stroke-width="0.398" fill="none" /><path id="211" transform="matrix(1 0 0 -1 0 792)" d="M1072.147 517.332L1072.147 530.899" stroke="#000000" stroke-width="0.398" fill="none" /><path id="213" transform="matrix(1 0 0 -1 0 792)" d="M1127.526 517.332L1127.526 530.899" stroke="#000000" stroke-width="0.398" fill="none" /><path id="214" transform="matrix(1 0 0 -1 0 792)" d="M742.795 517.132L1127.726 517.132" stroke="#000000" stroke-width="0.398" fill="none" /><path id="215" transform="matrix(1 0 0 -1 0 792)" d="M742.795 517.132L1127.726 517.132" stroke="#000000" stroke-width="0.398" fill="none" /><path id="216" transform="matrix(1 0 0 -1 0 792)" d="M742.994 503.367L742.994 516.934" stroke="#000000" stroke-width="0.398" fill="none" /><path id="225" transform="matrix(1 0 0 -1 0 792)" d="M797.589 507.648L800.578 507.648" stroke="#000000" stroke-width="0.398" fill="none" /><path id="231" transform="matrix(1 0 0 -1 0 792)" d="M831.064 507.648L834.053 507.648" stroke="#000000" stroke-width="0.398" fill="none" /><path id="233" transform="matrix(1 0 0 -1 0 792)" d="M840.628 507.648L843.617 507.648" stroke="#000000" stroke-width="0.398" fill="none" /><path id="235" transform="matrix(1 0 0 -1 0 792)" d="M850.192 507.648L853.181 507.648" stroke="#000000" stroke-width="0.398" fill="none" /><path id="237" transform="matrix(1 0 0 -1 0 792)" d="M1072.147 503.367L1072.147 516.934" stroke="#000000" stroke-width="0.398" fill="none" /><path id="239" transform="matrix(1 0 0 -1 0 792)" d="M1127.526 503.367L1127.526 516.934" stroke="#000000" stroke-width="0.398" fill="none" /><path id="240" transform="matrix(1 0 0 -1 0 792)" d="M742.795 503.167L1127.726 503.167" stroke="#000000" stroke-width="0.398" fill="none" /><path id="241" transform="matrix(1 0 0 -1 0 792)" d="M742.795 503.167L1127.726 503.167" stroke="#000000" stroke-width="0.398" fill="none" /><path id="242" transform="matrix(1 0 0 -1 0 792)" d="M742.994 489.401L742.994 502.968" stroke="#000000" stroke-width="0.398" fill="none" /><path id="251" transform="matrix(1 0 0 -1 0 792)" d="M797.589 493.683L800.578 493.683" stroke="#000000" stroke-width="0.398" fill="none" /><path id="257" transform="matrix(1 0 0 -1 0 792)" d="M831.064 493.683L834.053 493.683" stroke="#000000" stroke-width="0.398" fill="none" /><path id="259" transform="matrix(1 0 0 -1 0 792)" d="M840.628 493.683L843.617 493.683" stroke="#000000" stroke-width="0.398" fill="none" /><path id="261" transform="matrix(1 0 0 -1 0 792)" d="M850.192 493.683L853.181 493.683" stroke="#000000" stroke-width="0.398" fill="none" /><path id="263" transform="matrix(1 0 0 -1 0 792)" d="M859.756 493.683L862.745 493.683" stroke="#000000" stroke-width="0.398" fill="none" /><path id="267" transform="matrix(1 0 0 -1 0 792)" d="M1072.147 489.401L1072.147 502.968" stroke="#000000" stroke-width="0.398" fill="none" /><path id="269" transform="matrix(1 0 0 -1 0 792)" d="M1127.526 489.401L1127.526 502.968" stroke="#000000" stroke-width="0.398" fill="none" /><path id="270" transform="matrix(1 0 0 -1 0 792)" d="M742.795 489.202L1127.726 489.202" stroke="#000000" stroke-width="0.398" fill="none" /><path id="271" transform="matrix(1 0 0 -1 0 792)" d="M742.795 489.202L1127.726 489.202" stroke="#000000" stroke-width="0.398" fill="none" /><path id="272" transform="matrix(1 0 0 -1 0 792)" d="M742.994 475.436L742.994 489.003" stroke="#000000" stroke-width="0.398" fill="none" /><path id="281" transform="matrix(1 0 0 -1 0 792)" d="M797.589 479.718L800.578 479.718" stroke="#000000" stroke-width="0.398" fill="none" /><path id="287" transform="matrix(1 0 0 -1 0 792)" d="M831.064 479.718L834.053 479.718" stroke="#000000" stroke-width="0.398" fill="none" /><path id="289" transform="matrix(1 0 0 -1 0 792)" d="M840.628 479.718L843.617 479.718" stroke="#000000" stroke-width="0.398" fill="none" /><path id="291" transform="matrix(1 0 0 -1 0 792)" d="M850.192 479.718L853.181 479.718" stroke="#000000" stroke-width="0.398" fill="none" /><path id="293" transform="matrix(1 0 0 -1 0 792)" d="M859.756 479.718L862.745 479.718" stroke="#000000" stroke-width="0.398" fill="none" /><path id="295" transform="matrix(1 0 0 -1 0 792)" d="M1072.147 475.436L1072.147 489.003" stroke="#000000" stroke-width="0.398" fill="none" /><path id="297" transform="matrix(1 0 0 -1 0 792)" d="M1127.526 475.436L1127.526 489.003" stroke="#000000" stroke-width="0.398" fill="none" /><path id="298" transform="matrix(1 0 0 -1 0 792)" d="M742.795 475.237L1127.726 475.237" stroke="#000000" stroke-width="0.398" fill="none" /><path id="299" transform="matrix(1 0 0 -1 0 792)" d="M742.795 475.237L1127.726 475.237" stroke="#000000" stroke-width="0.398" fill="none" /><path id="300" transform="matrix(1 0 0 -1 0 792)" d="M742.994 461.471L742.994 475.038" stroke="#000000" stroke-width="0.398" fill="none" /><path id="309" transform="matrix(1 0 0 -1 0 792)" d="M797.589 465.753L800.578 465.753" stroke="#000000" stroke-width="0.398" fill="none" /><path id="315" transform="matrix(1 0 0 -1 0 792)" d="M831.064 465.753L834.053 465.753" stroke="#000000" stroke-width="0.398" fill="none" /><path id="317" transform="matrix(1 0 0 -1 0 792)" d="M840.628 465.753L843.617 465.753" stroke="#000000" stroke-width="0.398" fill="none" /><path id="319" transform="matrix(1 0 0 -1 0 792)" d="M850.192 465.753L853.181 465.753" stroke="#000000" stroke-width="0.398" fill="none" /><path id="321" transform="matrix(1 0 0 -1 0 792)" d="M859.756 465.753L862.745 465.753" stroke="#000000" stroke-width="0.398" fill="none" /><path id="323" transform="matrix(1 0 0 -1 0 792)" d="M869.32 465.753L872.309 465.753" stroke="#000000" stroke-width="0.398" fill="none" /><path id="327" transform="matrix(1 0 0 -1 0 792)" d="M1072.147 461.471L1072.147 475.038" stroke="#000000" stroke-width="0.398" fill="none" /><path id="329" transform="matrix(1 0 0 -1 0 792)" d="M1127.526 461.471L1127.526 475.038" stroke="#000000" stroke-width="0.398" fill="none" /><path id="330" transform="matrix(1 0 0 -1 0 792)" d="M742.795 461.272L1127.726 461.272" stroke="#000000" stroke-width="0.398" fill="none" /><path id="331" transform="matrix(1 0 0 -1 0 792)" d="M742.795 461.272L1127.726 461.272" stroke="#000000" stroke-width="0.398" fill="none" /><path id="332" transform="matrix(1 0 0 -1 0 792)" d="M742.994 447.506L742.994 461.073" stroke="#000000" stroke-width="0.398" fill="none" /><path id="341" transform="matrix(1 0 0 -1 0 792)" d="M797.589 451.788L800.578 451.788" stroke="#000000" stroke-width="0.398" fill="none" /><path id="347" transform="matrix(1 0 0 -1 0 792)" d="M831.064 451.788L834.053 451.788" stroke="#000000" stroke-width="0.398" fill="none" /><path id="349" transform="matrix(1 0 0 -1 0 792)" d="M840.628 451.788L843.617 451.788" stroke="#000000" stroke-width="0.398" fill="none" /><path id="351" transform="matrix(1 0 0 -1 0 792)" d="M850.192 451.788L853.181 451.788" stroke="#000000" stroke-width="0.398" fill="none" /><path id="353" transform="matrix(1 0 0 -1 0 792)" d="M859.756 451.788L862.745 451.788" stroke="#000000" stroke-width="0.398" fill="none" /><path id="355" transform="matrix(1 0 0 -1 0 792)" d="M1072.147 447.506L1072.147 461.073" stroke="#000000" stroke-width="0.398" fill="none" /><path id="357" transform="matrix(1 0 0 -1 0 792)" d="M1127.526 447.506L1127.526 461.073" stroke="#000000" stroke-width="0.398" fill="none" /><path id="358" transform="matrix(1 0 0 -1 0 792)" d="M742.795 447.307L1127.726 447.307" stroke="#000000" stroke-width="0.398" fill="none" /><path id="359" transform="matrix(1 0 0 -1 0 792)" d="M742.795 447.307L1127.726 447.307" stroke="#000000" stroke-width="0.398" fill="none" /><path id="360" transform="matrix(1 0 0 -1 0 792)" d="M742.994 433.541L742.994 447.108" stroke="#000000" stroke-width="0.398" fill="none" /><path id="369" transform="matrix(1 0 0 -1 0 792)" d="M797.589 437.822L800.578 437.822" stroke="#000000" stroke-width="0.398" fill="none" /><path id="375" transform="matrix(1 0 0 -1 0 792)" d="M831.064 437.822L834.053 437.822" stroke="#000000" stroke-width="0.398" fill="none" /><path id="377" transform="matrix(1 0 0 -1 0 792)" d="M840.628 437.822L843.617 437.822" stroke="#000000" stroke-width="0.398" fill="none" /><path id="379" transform="matrix(1 0 0 -1 0 792)" d="M850.192 437.822L853.181 437.822" stroke="#000000" stroke-width="0.398" fill="none" /><path id="381" transform="matrix(1 0 0 -1 0 792)" d="M859.756 437.822L862.745 437.822" stroke="#000000" stroke-width="0.398" fill="none" /><path id="383" transform="matrix(1 0 0 -1 0 792)" d="M869.32 437.822L872.309 437.822" stroke="#000000" stroke-width="0.398" fill="none" /><path id="387" transform="matrix(1 0 0 -1 0 792)" d="M1072.147 433.541L1072.147 447.108" stroke="#000000" stroke-width="0.398" fill="none" /><path id="389" transform="matrix(1 0 0 -1 0 792)" d="M1127.526 433.541L1127.526 447.108" stroke="#000000" stroke-width="0.398" fill="none" /><path id="390" transform="matrix(1 0 0 -1 0 792)" d="M742.795 433.342L1127.726 433.342" stroke="#000000" stroke-width="0.398" fill="none" /><path id="391" transform="matrix(1 0 0 -1 0 792)" d="M742.795 433.342L1127.726 433.342" stroke="#000000" stroke-width="0.398" fill="none" /><path id="392" transform="matrix(1 0 0 -1 0 792)" d="M742.994 419.576L742.994 433.143" stroke="#000000" stroke-width="0.398" fill="none" /><path id="401" transform="matrix(1 0 0 -1 0 792)" d="M797.589 423.857L800.578 423.857" stroke="#000000" stroke-width="0.398" fill="none" /><path id="405" transform="matrix(1 0 0 -1 0 792)" d="M819.1089 423.857L822.098 423.857" stroke="#000000" stroke-width="0.398" fill="none" /><path id="407" transform="matrix(1 0 0 -1 0 792)" d="M828.673 423.857L831.662 423.857" stroke="#000000" stroke-width="0.398" fill="none" /><path id="409" transform="matrix(1 0 0 -1 0 792)" d="M838.237 423.857L841.226 423.857" stroke="#000000" stroke-width="0.398" fill="none" /><path id="411" transform="matrix(1 0 0 -1 0 792)" d="M847.801 423.857L850.79 423.857" stroke="#000000" stroke-width="0.398" fill="none" /><path id="413" transform="matrix(1 0 0 -1 0 792)" d="M1072.147 419.576L1072.147 433.143" stroke="#000000" stroke-width="0.398" fill="none" /><path id="415" transform="matrix(1 0 0 -1 0 792)" d="M1127.526 419.576L1127.526 433.143" stroke="#000000" stroke-width="0.398" fill="none" /><path id="416" transform="matrix(1 0 0 -1 0 792)" d="M742.795 419.376L1127.726 419.376" stroke="#000000" stroke-width="0.398" fill="none" /><path id="417" transform="matrix(1 0 0 -1 0 792)" d="M742.795 419.376L1127.726 419.376" stroke="#000000" stroke-width="0.398" fill="none" /><path id="418" transform="matrix(1 0 0 -1 0 792)" d="M742.994 405.611L742.994 419.178" stroke="#000000" stroke-width="0.398" fill="none" /><path id="427" transform="matrix(1 0 0 -1 0 792)" d="M797.589 409.892L800.578 409.892" stroke="#000000" stroke-width="0.398" fill="none" /><path id="431" transform="matrix(1 0 0 -1 0 792)" d="M819.1089 409.892L822.098 409.892" stroke="#000000" stroke-width="0.398" fill="none" /><path id="433" transform="matrix(1 0 0 -1 0 792)" d="M828.673 409.892L831.662 409.892" stroke="#000000" stroke-width="0.398" fill="none" /><path id="435" transform="matrix(1 0 0 -1 0 792)" d="M838.237 409.892L841.226 409.892" stroke="#000000" stroke-width="0.398" fill="none" /><path id="437" transform="matrix(1 0 0 -1 0 792)" d="M847.801 409.892L850.79 409.892" stroke="#000000" stroke-width="0.398" fill="none" /><path id="439" transform="matrix(1 0 0 -1 0 792)" d="M857.365 409.892L860.354 409.892" stroke="#000000" stroke-width="0.398" fill="none" /><path id="443" transform="matrix(1 0 0 -1 0 792)" d="M1072.147 405.611L1072.147 419.178" stroke="#000000" stroke-width="0.398" fill="none" /><path id="445" transform="matrix(1 0 0 -1 0 792)" d="M1127.526 405.611L1127.526 419.178" stroke="#000000" stroke-width="0.398" fill="none" /><path id="446" transform="matrix(1 0 0 -1 0 792)" d="M742.795 405.411L1127.726 405.411" stroke="#000000" stroke-width="0.398" fill="none" /><path id="447" transform="matrix(1 0 0 -1 0 792)" d="M742.795 405.411L1127.726 405.411" stroke="#000000" stroke-width="0.398" fill="none" /><path id="448" transform="matrix(1 0 0 -1 0 792)" d="M742.994 391.645L742.994 405.212" stroke="#000000" stroke-width="0.398" fill="none" /><path id="457" transform="matrix(1 0 0 -1 0 792)" d="M797.589 395.927L800.578 395.927" stroke="#000000" stroke-width="0.398" fill="none" /><path id="461" transform="matrix(1 0 0 -1 0 792)" d="M819.1089 395.927L822.098 395.927" stroke="#000000" stroke-width="0.398" fill="none" /><path id="464" transform="matrix(1 0 0 -1 0 792)" d="M834.65 395.927L837.639 395.927" stroke="#000000" stroke-width="0.398" fill="none" /><path id="467" transform="matrix(1 0 0 -1 0 792)" d="M850.192 395.927L853.181 395.927" stroke="#000000" stroke-width="0.398" fill="none" /><path id="470" transform="matrix(1 0 0 -1 0 792)" d="M865.7339 395.927L868.723 395.927" stroke="#000000" stroke-width="0.398" fill="none" /><path id="472" transform="matrix(1 0 0 -1 0 792)" d="M1072.147 391.645L1072.147 405.212" stroke="#000000" stroke-width="0.398" fill="none" /><path id="474" transform="matrix(1 0 0 -1 0 792)" d="M1127.526 391.645L1127.526 405.212" stroke="#000000" stroke-width="0.398" fill="none" /><path id="475" transform="matrix(1 0 0 -1 0 792)" d="M742.795 391.446L1127.726 391.446" stroke="#000000" stroke-width="0.398" fill="none" /><path id="476" transform="matrix(1 0 0 -1 0 792)" d="M742.795 391.446L1127.726 391.446" stroke="#000000" stroke-width="0.398" fill="none" /><path id="477" transform="matrix(1 0 0 -1 0 792)" d="M742.994 377.68L742.994 391.247" stroke="#000000" stroke-width="0.398" fill="none" /><path id="486" transform="matrix(1 0 0 -1 0 792)" d="M797.589 381.962L800.578 381.962" stroke="#000000" stroke-width="0.398" fill="none" /><path id="490" transform="matrix(1 0 0 -1 0 792)" d="M819.1089 381.962L822.098 381.962" stroke="#000000" stroke-width="0.398" fill="none" /><path id="493" transform="matrix(1 0 0 -1 0 792)" d="M834.65 381.962L837.639 381.962" stroke="#000000" stroke-width="0.398" fill="none" /><path id="496" transform="matrix(1 0 0 -1 0 792)" d="M850.192 381.962L853.181 381.962" stroke="#000000" stroke-width="0.398" fill="none" /><path id="499" transform="matrix(1 0 0 -1 0 792)" d="M865.7339 381.962L868.723 381.962" stroke="#000000" stroke-width="0.398" fill="none" /><path id="501" transform="matrix(1 0 0 -1 0 792)" d="M875.298 381.962L878.287 381.962" stroke="#000000" stroke-width="0.398" fill="none" /><path id="505" transform="matrix(1 0 0 -1 0 792)" d="M1072.147 377.68L1072.147 391.247" stroke="#000000" stroke-width="0.398" fill="none" /><path id="507" transform="matrix(1 0 0 -1 0 792)" d="M1127.526 377.68L1127.526 391.247" stroke="#000000" stroke-width="0.398" fill="none" /><path id="508" transform="matrix(1 0 0 -1 0 792)" d="M742.795 377.481L1127.726 377.481" stroke="#000000" stroke-width="0.398" fill="none" /><path id="509" transform="matrix(1 0 0 -1 0 792)" d="M742.795 377.481L1127.726 377.481" stroke="#000000" stroke-width="0.398" fill="none" /><path id="529" transform="matrix(1 0 0 -1 0 792)" d="M825.155 207.377L1045.365 207.377" stroke="#000000" stroke-width="0.398" fill="none" /><path id="530" transform="matrix(1 0 0 -1 0 792)" d="M825.354 193.628L825.354 207.177" stroke="#000000" stroke-width="0.398" fill="none" /><path id="531" transform="matrix(1 0 0 -1 0 792)" d="M894.601 193.628L894.601 207.177" stroke="#000000" stroke-width="0.398" fill="none" /><path id="532" transform="matrix(1 0 0 -1 0 792)" d="M896.993 193.628L896.993 207.177" stroke="#000000" stroke-width="0.398" fill="none" /><path id="533" transform="matrix(1 0 0 -1 0 792)" d="M897.192 193.628L1044.967 193.628L1044.967 207.177L897.192 207.177z" stroke="none" fill="#CCCCEB" fill-rule="nonzero" /><path id="547" transform="matrix(1 0 0 -1 0 792)" d="M1045.166 193.628L1045.166 207.177" stroke="#000000" stroke-width="0.398" fill="none" /><path id="548" transform="matrix(1 0 0 -1 0 792)" d="M825.155 193.429L1045.365 193.429" stroke="#000000" stroke-width="0.398" fill="none" /><path id="549" transform="matrix(1 0 0 -1 0 792)" d="M825.155 179.68L896.793 179.68L896.793 193.229L825.155 193.229z" stroke="none" fill="#CCCCEB" fill-rule="nonzero" /><path id="561" transform="matrix(1 0 0 -1 0 792)" d="M896.993 179.68L896.993 193.229" stroke="#000000" stroke-width="0.398" fill="none" /><path id="563" transform="matrix(1 0 0 -1 0 792)" d="M917.558 179.68L917.558 193.229" stroke="#000000" stroke-width="0.398" fill="none" /><path id="565" transform="matrix(1 0 0 -1 0 792)" d="M938.124 179.68L938.124 193.229" stroke="#000000" stroke-width="0.398" fill="none" /><path id="568" transform="matrix(1 0 0 -1 0 792)" d="M965.63 179.68L965.63 193.229" stroke="#000000" stroke-width="0.398" fill="none" /><path id="572" transform="matrix(1 0 0 -1 0 792)" d="M1001.624 179.68L1001.624 193.229" stroke="#000000" stroke-width="0.398" fill="none" /><path id="577" transform="matrix(1 0 0 -1 0 792)" d="M1045.166 179.68L1045.166 193.229" stroke="#000000" stroke-width="0.398" fill="none" /><path id="578" transform="matrix(1 0 0 -1 0 792)" d="M825.155 179.481L1045.365 179.481" stroke="#000000" stroke-width="0.398" fill="none" /><path id="579" transform="matrix(1 0 0 -1 0 792)" d="M825.155 177.09L1045.365 177.09" stroke="#000000" stroke-width="0.398" fill="none" /><path id="580" transform="matrix(1 0 0 -1 0 792)" d="M825.354 163.342L825.354 176.891" stroke="#000000" stroke-width="0.398" fill="none" /><path id="582" transform="matrix(1 0 0 -1 0 792)" d="M894.601 163.342L894.601 176.891" stroke="#000000" stroke-width="0.398" fill="none" /><path id="583" transform="matrix(1 0 0 -1 0 792)" d="M896.993 163.342L896.993 176.891" stroke="#000000" stroke-width="0.398" fill="none" /><path id="585" transform="matrix(1 0 0 -1 0 792)" d="M917.558 163.342L917.558 176.891" stroke="#000000" stroke-width="0.398" fill="none" /><path id="587" transform="matrix(1 0 0 -1 0 792)" d="M938.124 163.342L938.124 176.891" stroke="#000000" stroke-width="0.398" fill="none" /><path id="589" transform="matrix(1 0 0 -1 0 792)" d="M965.63 163.342L965.63 176.891" stroke="#000000" stroke-width="0.398" fill="none" /><path id="591" transform="matrix(1 0 0 -1 0 792)" d="M1001.624 163.342L1001.624 176.891" stroke="#000000" stroke-width="0.398" fill="none" /><path id="593" transform="matrix(1 0 0 -1 0 792)" d="M1045.166 163.342L1045.166 176.891" stroke="#000000" stroke-width="0.398" fill="none" /><path id="594" transform="matrix(1 0 0 -1 0 792)" d="M825.155 163.143L1045.365 163.143" stroke="#000000" stroke-width="0.398" fill="none" /><path id="595" transform="matrix(1 0 0 -1 0 792)" d="M825.354 149.394L825.354 162.943" stroke="#000000" stroke-width="0.398" fill="none" /><path id="599" transform="matrix(1 0 0 -1 0 792)" d="M894.601 149.394L894.601 162.943" stroke="#000000" stroke-width="0.398" fill="none" /><path id="600" transform="matrix(1 0 0 -1 0 792)" d="M896.993 149.394L896.993 162.943" stroke="#000000" stroke-width="0.398" fill="none" /><path id="602" transform="matrix(1 0 0 -1 0 792)" d="M917.558 149.394L917.558 162.943" stroke="#000000" stroke-width="0.398" fill="none" /><path id="604" transform="matrix(1 0 0 -1 0 792)" d="M938.124 149.394L938.124 162.943" stroke="#000000" stroke-width="0.398" fill="none" /><path id="606" transform="matrix(1 0 0 -1 0 792)" d="M965.63 149.394L965.63 162.943" stroke="#000000" stroke-width="0.398" fill="none" /><path id="608" transform="matrix(1 0 0 -1 0 792)" d="M1001.624 149.394L1001.624 162.943" stroke="#000000" stroke-width="0.398" fill="none" /><path id="610" transform="matrix(1 0 0 -1 0 792)" d="M1045.166 149.394L1045.166 162.943" stroke="#000000" stroke-width="0.398" fill="none" /><path id="611" transform="matrix(1 0 0 -1 0 792)" d="M825.155 149.195L1045.365 149.195" stroke="#000000" stroke-width="0.398" fill="none" /><path id="612" transform="matrix(1 0 0 -1 0 792)" d="M825.354 135.446L825.354 148.995" stroke="#000000" stroke-width="0.398" fill="none" /><path id="617" transform="matrix(1 0 0 -1 0 792)" d="M894.601 135.446L894.601 148.995" stroke="#000000" stroke-width="0.398" fill="none" /><path id="618" transform="matrix(1 0 0 -1 0 792)" d="M896.993 135.446L896.993 148.995" stroke="#000000" stroke-width="0.398" fill="none" /><path id="619" transform="matrix(1 0 0 -1 0 792)" d="M917.558 135.446L917.558 148.995" stroke="#000000" stroke-width="0.398" fill="none" /><path id="620" transform="matrix(1 0 0 -1 0 792)" d="M938.124 135.446L938.124 148.995" stroke="#000000" stroke-width="0.398" fill="none" /><path id="621" transform="matrix(1 0 0 -1 0 792)" d="M965.63 135.446L965.63 148.995" stroke="#000000" stroke-width="0.398" fill="none" /><path id="622" transform="matrix(1 0 0 -1 0 792)" d="M1001.624 135.446L1001.624 148.995" stroke="#000000" stroke-width="0.398" fill="none" /><path id="623" transform="matrix(1 0 0 -1 0 792)" d="M1045.166 135.446L1045.166 148.995" stroke="#000000" stroke-width="0.398" fill="none" /><path id="624" transform="matrix(1 0 0 -1 0 792)" d="M825.155 135.247L1045.365 135.247" stroke="#000000" stroke-width="0.398" fill="none" /><path id="625" transform="matrix(1 0 0 -1 0 792)" d="M786.876 112.536L1083.647 112.536L1083.647 112.536L1083.647 125.6815L1083.647 125.6815L786.876 125.6815z" stroke="#FFFFFF" stroke-width="1" fill="#FFFFFF" fill-rule="nonzero" /><path id="688" transform="matrix(1 0 0 -1 0 792)" d="M89.933 721.28L556.588 721.28" stroke="#000000" stroke-width="0.498" fill="none" /><path id="698" transform="matrix(1 0 0 -1 0 792)" d="M130.795 671.148L515.726 671.148" stroke="#000000" stroke-width="0.398" fill="none" /><path id="699" transform="matrix(1 0 0 -1 0 792)" d="M130.795 671.148L515.726 671.148" stroke="#000000" stroke-width="0.398" fill="none" /><path id="700" transform="matrix(1 0 0 -1 0 792)" d="M130.994 657.382L130.994 670.949" stroke="#000000" stroke-width="0.398" fill="none" /><path id="701" transform="matrix(1 0 0 -1 0 792)" d="M131.193 657.382L459.948 657.382L459.948 670.949L131.193 670.949z" stroke="none" fill="#CCCCEB" fill-rule="nonzero" /><path id="711" transform="matrix(1 0 0 -1 0 792)" d="M460.147 657.382L460.147 670.949" stroke="#000000" stroke-width="0.398" fill="none" /><path id="712" transform="matrix(1 0 0 -1 0 792)" d="M460.347 657.382L515.327 657.382L515.327 670.949L460.347 670.949z" stroke="none" fill="#CCCCEB" fill-rule="nonzero" /><path id="719" transform="matrix(1 0 0 -1 0 792)" d="M515.526 657.382L515.526 670.949" stroke="#000000" stroke-width="0.398" fill="none" /><path id="720" transform="matrix(1 0 0 -1 0 792)" d="M130.795 657.182L515.726 657.182" stroke="#000000" stroke-width="0.398" fill="none" /><path id="721" transform="matrix(1 0 0 -1 0 792)" d="M130.795 657.182L515.726 657.182" stroke="#000000" stroke-width="0.398" fill="none" /><path id="722" transform="matrix(1 0 0 -1 0 792)" d="M130.795 656.784L515.726 656.784" stroke="#000000" stroke-width="0.398" fill="none" /><path id="723" transform="matrix(1 0 0 -1 0 792)" d="M130.795 656.784L515.726 656.784" stroke="#000000" stroke-width="0.398" fill="none" /><path id="724" transform="matrix(1 0 0 -1 0 792)" d="M130.994 643.018L130.994 656.585" stroke="#000000" stroke-width="0.398" fill="none" /><path id="733" transform="matrix(1 0 0 -1 0 792)" d="M185.589 647.3L188.578 647.3" stroke="#000000" stroke-width="0.398" fill="none" /><path id="738" transform="matrix(1 0 0 -1 0 792)" d="M460.147 643.018L460.147 656.585" stroke="#000000" stroke-width="0.398" fill="none" /><path id="740" transform="matrix(1 0 0 -1 0 792)" d="M515.526 643.018L515.526 656.585" stroke="#000000" stroke-width="0.398" fill="none" /><path id="741" transform="matrix(1 0 0 -1 0 792)" d="M130.795 642.819L515.726 642.819" stroke="#000000" stroke-width="0.398" fill="none" /><path id="742" transform="matrix(1 0 0 -1 0 792)" d="M130.795 642.819L515.726 642.819" stroke="#000000" stroke-width="0.398" fill="none" /><path id="743" transform="matrix(1 0 0 -1 0 792)" d="M130.994 629.053L130.994 642.62" stroke="#000000" stroke-width="0.398" fill="none" /><path id="750" transform="matrix(1 0 0 -1 0 792)" d="M460.147 629.053L460.147 642.62" stroke="#000000" stroke-width="0.398" fill="none" /><path id="752" transform="matrix(1 0 0 -1 0 792)" d="M515.526 629.053L515.526 642.62" stroke="#000000" stroke-width="0.398" fill="none" /><path id="753" transform="matrix(1 0 0 -1 0 792)" d="M130.795 628.854L515.726 628.854" stroke="#000000" stroke-width="0.398" fill="none" /><path id="754" transform="matrix(1 0 0 -1 0 792)" d="M130.795 628.854L515.726 628.854" stroke="#000000" stroke-width="0.398" fill="none" /><path id="755" transform="matrix(1 0 0 -1 0 792)" d="M130.994 615.088L130.994 628.655" stroke="#000000" stroke-width="0.398" fill="none" /><path id="760" transform="matrix(1 0 0 -1 0 792)" d="M460.147 615.088L460.147 628.655" stroke="#000000" stroke-width="0.398" fill="none" /><path id="762" transform="matrix(1 0 0 -1 0 792)" d="M515.526 615.088L515.526 628.655" stroke="#000000" stroke-width="0.398" fill="none" /><path id="763" transform="matrix(1 0 0 -1 0 792)" d="M130.795 614.889L515.726 614.889" stroke="#000000" stroke-width="0.398" fill="none" /><path id="764" transform="matrix(1 0 0 -1 0 792)" d="M130.795 614.889L515.726 614.889" stroke="#000000" stroke-width="0.398" fill="none" /><path id="765" transform="matrix(1 0 0 -1 0 792)" d="M130.994 601.123L130.994 614.69" stroke="#000000" stroke-width="0.398" fill="none" /><path id="774" transform="matrix(1 0 0 -1 0 792)" d="M185.589 605.404L188.578 605.404" stroke="#000000" stroke-width="0.398" fill="none" /><path id="780" transform="matrix(1 0 0 -1 0 792)" d="M460.147 601.123L460.147 614.69" stroke="#000000" stroke-width="0.398" fill="none" /><path id="782" transform="matrix(1 0 0 -1 0 792)" d="M515.526 601.123L515.526 614.69" stroke="#000000" stroke-width="0.398" fill="none" /><path id="783" transform="matrix(1 0 0 -1 0 792)" d="M130.795 600.923L515.726 600.923" stroke="#000000" stroke-width="0.398" fill="none" /><path id="784" transform="matrix(1 0 0 -1 0 792)" d="M130.795 600.923L515.726 600.923" stroke="#000000" stroke-width="0.398" fill="none" /><path id="785" transform="matrix(1 0 0 -1 0 792)" d="M130.994 587.157L130.994 600.724" stroke="#000000" stroke-width="0.398" fill="none" /><path id="791" transform="matrix(1 0 0 -1 0 792)" d="M460.147 587.157L460.147 600.724" stroke="#000000" stroke-width="0.398" fill="none" /><path id="793" transform="matrix(1 0 0 -1 0 792)" d="M515.526 587.157L515.526 600.724" stroke="#000000" stroke-width="0.398" fill="none" /><path id="794" transform="matrix(1 0 0 -1 0 792)" d="M130.795 586.958L515.726 586.958" stroke="#000000" stroke-width="0.398" fill="none" /><path id="795" transform="matrix(1 0 0 -1 0 792)" d="M130.795 586.958L515.726 586.958" stroke="#000000" stroke-width="0.398" fill="none" /><path id="796" transform="matrix(1 0 0 -1 0 792)" d="M130.994 573.192L130.994 586.759" stroke="#000000" stroke-width="0.398" fill="none" /><path id="805" transform="matrix(1 0 0 -1 0 792)" d="M185.589 577.474L188.578 577.474" stroke="#000000" stroke-width="0.398" fill="none" /><path id="809" transform="matrix(1 0 0 -1 0 792)" d="M460.147 573.192L460.147 586.759" stroke="#000000" stroke-width="0.398" fill="none" /><path id="811" transform="matrix(1 0 0 -1 0 792)" d="M515.526 573.192L515.526 586.759" stroke="#000000" stroke-width="0.398" fill="none" /><path id="812" transform="matrix(1 0 0 -1 0 792)" d="M130.795 572.993L515.726 572.993" stroke="#000000" stroke-width="0.398" fill="none" /><path id="813" transform="matrix(1 0 0 -1 0 792)" d="M130.795 572.993L515.726 572.993" stroke="#000000" stroke-width="0.398" fill="none" /><path id="814" transform="matrix(1 0 0 -1 0 792)" d="M130.994 559.227L130.994 572.794" stroke="#000000" stroke-width="0.398" fill="none" /><path id="818" transform="matrix(1 0 0 -1 0 792)" d="M460.147 559.227L460.147 572.794" stroke="#000000" stroke-width="0.398" fill="none" /><path id="820" transform="matrix(1 0 0 -1 0 792)" d="M515.526 559.227L515.526 572.794" stroke="#000000" stroke-width="0.398" fill="none" /><path id="821" transform="matrix(1 0 0 -1 0 792)" d="M130.795 559.028L515.726 559.028" stroke="#000000" stroke-width="0.398" fill="none" /><path id="822" transform="matrix(1 0 0 -1 0 792)" d="M130.795 559.028L515.726 559.028" stroke="#000000" stroke-width="0.398" fill="none" /><path id="823" transform="matrix(1 0 0 -1 0 792)" d="M130.994 545.262L130.994 558.829" stroke="#000000" stroke-width="0.398" fill="none" /><path id="829" transform="matrix(1 0 0 -1 0 792)" d="M460.147 545.262L460.147 558.829" stroke="#000000" stroke-width="0.398" fill="none" /><path id="831" transform="matrix(1 0 0 -1 0 792)" d="M515.526 545.262L515.526 558.829" stroke="#000000" stroke-width="0.398" fill="none" /><path id="832" transform="matrix(1 0 0 -1 0 792)" d="M130.795 545.063L515.726 545.063" stroke="#000000" stroke-width="0.398" fill="none" /><path id="833" transform="matrix(1 0 0 -1 0 792)" d="M130.795 545.063L515.726 545.063" stroke="#000000" stroke-width="0.398" fill="none" /><path id="834" transform="matrix(1 0 0 -1 0 792)" d="M130.994 531.297L130.994 544.864" stroke="#000000" stroke-width="0.398" fill="none" /><path id="843" transform="matrix(1 0 0 -1 0 792)" d="M185.589 535.578L188.578 535.578" stroke="#000000" stroke-width="0.398" fill="none" /><path id="848" transform="matrix(1 0 0 -1 0 792)" d="M213.086 535.578L216.075 535.578" stroke="#000000" stroke-width="0.398" fill="none" /><path id="850" transform="matrix(1 0 0 -1 0 792)" d="M222.65 535.578L225.639 535.578" stroke="#000000" stroke-width="0.398" fill="none" /><path id="852" transform="matrix(1 0 0 -1 0 792)" d="M232.215 535.578L235.204 535.578" stroke="#000000" stroke-width="0.398" fill="none" /><path id="854" transform="matrix(1 0 0 -1 0 792)" d="M460.147 531.297L460.147 544.864" stroke="#000000" stroke-width="0.398" fill="none" /><path id="856" transform="matrix(1 0 0 -1 0 792)" d="M515.526 531.297L515.526 544.864" stroke="#000000" stroke-width="0.398" fill="none" /><path id="857" transform="matrix(1 0 0 -1 0 792)" d="M130.795 531.098L515.726 531.098" stroke="#000000" stroke-width="0.398" fill="none" /><path id="858" transform="matrix(1 0 0 -1 0 792)" d="M130.795 531.098L515.726 531.098" stroke="#000000" stroke-width="0.398" fill="none" /><path id="859" transform="matrix(1 0 0 -1 0 792)" d="M130.994 517.332L130.994 530.899" stroke="#000000" stroke-width="0.398" fill="none" /><path id="868" transform="matrix(1 0 0 -1 0 792)" d="M185.589 521.613L188.578 521.613" stroke="#000000" stroke-width="0.398" fill="none" /><path id="873" transform="matrix(1 0 0 -1 0 792)" d="M213.086 521.613L216.075 521.613" stroke="#000000" stroke-width="0.398" fill="none" /><path id="875" transform="matrix(1 0 0 -1 0 792)" d="M222.65 521.613L225.639 521.613" stroke="#000000" stroke-width="0.398" fill="none" /><path id="877" transform="matrix(1 0 0 -1 0 792)" d="M232.215 521.613L235.204 521.613" stroke="#000000" stroke-width="0.398" fill="none" /><path id="879" transform="matrix(1 0 0 -1 0 792)" d="M241.779 521.613L244.768 521.613" stroke="#000000" stroke-width="0.398" fill="none" /><path id="883" transform="matrix(1 0 0 -1 0 792)" d="M460.147 517.332L460.147 530.899" stroke="#000000" stroke-width="0.398" fill="none" /><path id="885" transform="matrix(1 0 0 -1 0 792)" d="M515.526 517.332L515.526 530.899" stroke="#000000" stroke-width="0.398" fill="none" /><path id="886" transform="matrix(1 0 0 -1 0 792)" d="M130.795 517.132L515.726 517.132" stroke="#000000" stroke-width="0.398" fill="none" /><path id="887" transform="matrix(1 0 0 -1 0 792)" d="M130.795 517.132L515.726 517.132" stroke="#000000" stroke-width="0.398" fill="none" /><path id="888" transform="matrix(1 0 0 -1 0 792)" d="M130.994 503.367L130.994 516.934" stroke="#000000" stroke-width="0.398" fill="none" /><path id="897" transform="matrix(1 0 0 -1 0 792)" d="M185.589 507.648L188.578 507.648" stroke="#000000" stroke-width="0.398" fill="none" /><path id="903" transform="matrix(1 0 0 -1 0 792)" d="M219.064 507.648L222.053 507.648" stroke="#000000" stroke-width="0.398" fill="none" /><path id="905" transform="matrix(1 0 0 -1 0 792)" d="M228.628 507.648L231.617 507.648" stroke="#000000" stroke-width="0.398" fill="none" /><path id="907" transform="matrix(1 0 0 -1 0 792)" d="M238.192 507.648L241.181 507.648" stroke="#000000" stroke-width="0.398" fill="none" /><path id="909" transform="matrix(1 0 0 -1 0 792)" d="M460.147 503.367L460.147 516.934" stroke="#000000" stroke-width="0.398" fill="none" /><path id="911" transform="matrix(1 0 0 -1 0 792)" d="M515.526 503.367L515.526 516.934" stroke="#000000" stroke-width="0.398" fill="none" /><path id="912" transform="matrix(1 0 0 -1 0 792)" d="M130.795 503.167L515.726 503.167" stroke="#000000" stroke-width="0.398" fill="none" /><path id="913" transform="matrix(1 0 0 -1 0 792)" d="M130.795 503.167L515.726 503.167" stroke="#000000" stroke-width="0.398" fill="none" /><path id="914" transform="matrix(1 0 0 -1 0 792)" d="M130.994 489.401L130.994 502.968" stroke="#000000" stroke-width="0.398" fill="none" /><path id="923" transform="matrix(1 0 0 -1 0 792)" d="M185.589 493.683L188.578 493.683" stroke="#000000" stroke-width="0.398" fill="none" /><path id="929" transform="matrix(1 0 0 -1 0 792)" d="M219.064 493.683L222.053 493.683" stroke="#000000" stroke-width="0.398" fill="none" /><path id="931" transform="matrix(1 0 0 -1 0 792)" d="M228.628 493.683L231.617 493.683" stroke="#000000" stroke-width="0.398" fill="none" /><path id="933" transform="matrix(1 0 0 -1 0 792)" d="M238.192 493.683L241.181 493.683" stroke="#000000" stroke-width="0.398" fill="none" /><path id="935" transform="matrix(1 0 0 -1 0 792)" d="M247.756 493.683L250.745 493.683" stroke="#000000" stroke-width="0.398" fill="none" /><path id="939" transform="matrix(1 0 0 -1 0 792)" d="M460.147 489.401L460.147 502.968" stroke="#000000" stroke-width="0.398" fill="none" /><path id="941" transform="matrix(1 0 0 -1 0 792)" d="M515.526 489.401L515.526 502.968" stroke="#000000" stroke-width="0.398" fill="none" /><path id="942" transform="matrix(1 0 0 -1 0 792)" d="M130.795 489.202L515.726 489.202" stroke="#000000" stroke-width="0.398" fill="none" /><path id="943" transform="matrix(1 0 0 -1 0 792)" d="M130.795 489.202L515.726 489.202" stroke="#000000" stroke-width="0.398" fill="none" /><path id="944" transform="matrix(1 0 0 -1 0 792)" d="M130.994 475.436L130.994 489.003" stroke="#000000" stroke-width="0.398" fill="none" /><path id="953" transform="matrix(1 0 0 -1 0 792)" d="M185.589 479.718L188.578 479.718" stroke="#000000" stroke-width="0.398" fill="none" /><path id="959" transform="matrix(1 0 0 -1 0 792)" d="M219.064 479.718L222.053 479.718" stroke="#000000" stroke-width="0.398" fill="none" /><path id="961" transform="matrix(1 0 0 -1 0 792)" d="M228.628 479.718L231.617 479.718" stroke="#000000" stroke-width="0.398" fill="none" /><path id="963" transform="matrix(1 0 0 -1 0 792)" d="M238.192 479.718L241.181 479.718" stroke="#000000" stroke-width="0.398" fill="none" /><path id="965" transform="matrix(1 0 0 -1 0 792)" d="M247.756 479.718L250.745 479.718" stroke="#000000" stroke-width="0.398" fill="none" /><path id="967" transform="matrix(1 0 0 -1 0 792)" d="M460.147 475.436L460.147 489.003" stroke="#000000" stroke-width="0.398" fill="none" /><path id="969" transform="matrix(1 0 0 -1 0 792)" d="M515.526 475.436L515.526 489.003" stroke="#000000" stroke-width="0.398" fill="none" /><path id="970" transform="matrix(1 0 0 -1 0 792)" d="M130.795 475.237L515.726 475.237" stroke="#000000" stroke-width="0.398" fill="none" /><path id="971" transform="matrix(1 0 0 -1 0 792)" d="M130.795 475.237L515.726 475.237" stroke="#000000" stroke-width="0.398" fill="none" /><path id="972" transform="matrix(1 0 0 -1 0 792)" d="M130.994 461.471L130.994 475.038" stroke="#000000" stroke-width="0.398" fill="none" /><path id="981" transform="matrix(1 0 0 -1 0 792)" d="M185.589 465.753L188.578 465.753" stroke="#000000" stroke-width="0.398" fill="none" /><path id="987" transform="matrix(1 0 0 -1 0 792)" d="M219.064 465.753L222.053 465.753" stroke="#000000" stroke-width="0.398" fill="none" /><path id="989" transform="matrix(1 0 0 -1 0 792)" d="M228.628 465.753L231.617 465.753" stroke="#000000" stroke-width="0.398" fill="none" /><path id="991" transform="matrix(1 0 0 -1 0 792)" d="M238.192 465.753L241.181 465.753" stroke="#000000" stroke-width="0.398" fill="none" /><path id="993" transform="matrix(1 0 0 -1 0 792)" d="M247.756 465.753L250.745 465.753" stroke="#000000" stroke-width="0.398" fill="none" /><path id="995" transform="matrix(1 0 0 -1 0 792)" d="M257.32 465.753L260.309 465.753" stroke="#000000" stroke-width="0.398" fill="none" /><path id="999" transform="matrix(1 0 0 -1 0 792)" d="M460.147 461.471L460.147 475.038" stroke="#000000" stroke-width="0.398" fill="none" /><path id="1001" transform="matrix(1 0 0 -1 0 792)" d="M515.526 461.471L515.526 475.038" stroke="#000000" stroke-width="0.398" fill="none" /><path id="1002" transform="matrix(1 0 0 -1 0 792)" d="M130.795 461.272L515.726 461.272" stroke="#000000" stroke-width="0.398" fill="none" /><path id="1003" transform="matrix(1 0 0 -1 0 792)" d="M130.795 461.272L515.726 461.272" stroke="#000000" stroke-width="0.398" fill="none" /><path id="1004" transform="matrix(1 0 0 -1 0 792)" d="M130.994 447.506L130.994 461.073" stroke="#000000" stroke-width="0.398" fill="none" /><path id="1013" transform="matrix(1 0 0 -1 0 792)" d="M185.589 451.788L188.578 451.788" stroke="#000000" stroke-width="0.398" fill="none" /><path id="1019" transform="matrix(1 0 0 -1 0 792)" d="M219.064 451.788L222.053 451.788" stroke="#000000" stroke-width="0.398" fill="none" /><path id="1021" transform="matrix(1 0 0 -1 0 792)" d="M228.628 451.788L231.617 451.788" stroke="#000000" stroke-width="0.398" fill="none" /><path id="1023" transform="matrix(1 0 0 -1 0 792)" d="M238.192 451.788L241.181 451.788" stroke="#000000" stroke-width="0.398" fill="none" /><path id="1025" transform="matrix(1 0 0 -1 0 792)" d="M247.756 451.788L250.745 451.788" stroke="#000000" stroke-width="0.398" fill="none" /><path id="1027" transform="matrix(1 0 0 -1 0 792)" d="M460.147 447.506L460.147 461.073" stroke="#000000" stroke-width="0.398" fill="none" /><path id="1029" transform="matrix(1 0 0 -1 0 792)" d="M515.526 447.506L515.526 461.073" stroke="#000000" stroke-width="0.398" fill="none" /><path id="1030" transform="matrix(1 0 0 -1 0 792)" d="M130.795 447.307L515.726 447.307" stroke="#000000" stroke-width="0.398" fill="none" /><path id="1031" transform="matrix(1 0 0 -1 0 792)" d="M130.795 447.307L515.726 447.307" stroke="#000000" stroke-width="0.398" fill="none" /><path id="1032" transform="matrix(1 0 0 -1 0 792)" d="M130.994 433.541L130.994 447.108" stroke="#000000" stroke-width="0.398" fill="none" /><path id="1041" transform="matrix(1 0 0 -1 0 792)" d="M185.589 437.822L188.578 437.822" stroke="#000000" stroke-width="0.398" fill="none" /><path id="1047" transform="matrix(1 0 0 -1 0 792)" d="M219.064 437.822L222.053 437.822" stroke="#000000" stroke-width="0.398" fill="none" /><path id="1049" transform="matrix(1 0 0 -1 0 792)" d="M228.628 437.822L231.617 437.822" stroke="#000000" stroke-width="0.398" fill="none" /><path id="1051" transform="matrix(1 0 0 -1 0 792)" d="M238.192 437.822L241.181 437.822" stroke="#000000" stroke-width="0.398" fill="none" /><path id="1053" transform="matrix(1 0 0 -1 0 792)" d="M247.756 437.822L250.745 437.822" stroke="#000000" stroke-width="0.398" fill="none" /><path id="1055" transform="matrix(1 0 0 -1 0 792)" d="M257.32 437.822L260.309 437.822" stroke="#000000" stroke-width="0.398" fill="none" /><path id="1059" transform="matrix(1 0 0 -1 0 792)" d="M460.147 433.541L460.147 447.108" stroke="#000000" stroke-width="0.398" fill="none" /><path id="1061" transform="matrix(1 0 0 -1 0 792)" d="M515.526 433.541L515.526 447.108" stroke="#000000" stroke-width="0.398" fill="none" /><path id="1062" transform="matrix(1 0 0 -1 0 792)" d="M130.795 433.342L515.726 433.342" stroke="#000000" stroke-width="0.398" fill="none" /><path id="1063" transform="matrix(1 0 0 -1 0 792)" d="M130.795 433.342L515.726 433.342" stroke="#000000" stroke-width="0.398" fill="none" /><path id="1064" transform="matrix(1 0 0 -1 0 792)" d="M130.994 419.576L130.994 433.143" stroke="#000000" stroke-width="0.398" fill="none" /><path id="1073" transform="matrix(1 0 0 -1 0 792)" d="M185.589 423.857L188.578 423.857" stroke="#000000" stroke-width="0.398" fill="none" /><path id="1077" transform="matrix(1 0 0 -1 0 792)" d="M207.109 423.857L210.098 423.857" stroke="#000000" stroke-width="0.398" fill="none" /><path id="1079" transform="matrix(1 0 0 -1 0 792)" d="M216.673 423.857L219.662 423.857" stroke="#000000" stroke-width="0.398" fill="none" /><path id="1081" transform="matrix(1 0 0 -1 0 792)" d="M226.237 423.857L229.226 423.857" stroke="#000000" stroke-width="0.398" fill="none" /><path id="1083" transform="matrix(1 0 0 -1 0 792)" d="M235.801 423.857L238.79 423.857" stroke="#000000" stroke-width="0.398" fill="none" /><path id="1085" transform="matrix(1 0 0 -1 0 792)" d="M460.147 419.576L460.147 433.143" stroke="#000000" stroke-width="0.398" fill="none" /><path id="1087" transform="matrix(1 0 0 -1 0 792)" d="M515.526 419.576L515.526 433.143" stroke="#000000" stroke-width="0.398" fill="none" /><path id="1088" transform="matrix(1 0 0 -1 0 792)" d="M130.795 419.376L515.726 419.376" stroke="#000000" stroke-width="0.398" fill="none" /><path id="1089" transform="matrix(1 0 0 -1 0 792)" d="M130.795 419.376L515.726 419.376" stroke="#000000" stroke-width="0.398" fill="none" /><path id="1090" transform="matrix(1 0 0 -1 0 792)" d="M130.994 405.611L130.994 419.178" stroke="#000000" stroke-width="0.398" fill="none" /><path id="1099" transform="matrix(1 0 0 -1 0 792)" d="M185.589 409.892L188.578 409.892" stroke="#000000" stroke-width="0.398" fill="none" /><path id="1103" transform="matrix(1 0 0 -1 0 792)" d="M207.109 409.892L210.098 409.892" stroke="#000000" stroke-width="0.398" fill="none" /><path id="1105" transform="matrix(1 0 0 -1 0 792)" d="M216.673 409.892L219.662 409.892" stroke="#000000" stroke-width="0.398" fill="none" /><path id="1107" transform="matrix(1 0 0 -1 0 792)" d="M226.237 409.892L229.226 409.892" stroke="#000000" stroke-width="0.398" fill="none" /><path id="1109" transform="matrix(1 0 0 -1 0 792)" d="M235.801 409.892L238.79 409.892" stroke="#000000" stroke-width="0.398" fill="none" /><path id="1111" transform="matrix(1 0 0 -1 0 792)" d="M245.365 409.892L248.354 409.892" stroke="#000000" stroke-width="0.398" fill="none" /><path id="1115" transform="matrix(1 0 0 -1 0 792)" d="M460.147 405.611L460.147 419.178" stroke="#000000" stroke-width="0.398" fill="none" /><path id="1117" transform="matrix(1 0 0 -1 0 792)" d="M515.526 405.611L515.526 419.178" stroke="#000000" stroke-width="0.398" fill="none" /><path id="1118" transform="matrix(1 0 0 -1 0 792)" d="M130.795 405.411L515.726 405.411" stroke="#000000" stroke-width="0.398" fill="none" /><path id="1119" transform="matrix(1 0 0 -1 0 792)" d="M130.795 405.411L515.726 405.411" stroke="#000000" stroke-width="0.398" fill="none" /><path id="1120" transform="matrix(1 0 0 -1 0 792)" d="M130.994 391.645L130.994 405.212" stroke="#000000" stroke-width="0.398" fill="none" /><path id="1129" transform="matrix(1 0 0 -1 0 792)" d="M185.589 395.927L188.578 395.927" stroke="#000000" stroke-width="0.398" fill="none" /><path id="1133" transform="matrix(1 0 0 -1 0 792)" d="M207.109 395.927L210.098 395.927" stroke="#000000" stroke-width="0.398" fill="none" /><path id="1136" transform="matrix(1 0 0 -1 0 792)" d="M222.65 395.927L225.639 395.927" stroke="#000000" stroke-width="0.398" fill="none" /><path id="1139" transform="matrix(1 0 0 -1 0 792)" d="M238.192 395.927L241.181 395.927" stroke="#000000" stroke-width="0.398" fill="none" /><path id="1142" transform="matrix(1 0 0 -1 0 792)" d="M253.734 395.927L256.723 395.927" stroke="#000000" stroke-width="0.398" fill="none" /><path id="1144" transform="matrix(1 0 0 -1 0 792)" d="M460.147 391.645L460.147 405.212" stroke="#000000" stroke-width="0.398" fill="none" /><path id="1146" transform="matrix(1 0 0 -1 0 792)" d="M515.526 391.645L515.526 405.212" stroke="#000000" stroke-width="0.398" fill="none" /><path id="1147" transform="matrix(1 0 0 -1 0 792)" d="M130.795 391.446L515.726 391.446" stroke="#000000" stroke-width="0.398" fill="none" /><path id="1148" transform="matrix(1 0 0 -1 0 792)" d="M130.795 391.446L515.726 391.446" stroke="#000000" stroke-width="0.398" fill="none" /><path id="1149" transform="matrix(1 0 0 -1 0 792)" d="M130.994 377.68L130.994 391.247" stroke="#000000" stroke-width="0.398" fill="none" /><path id="1158" transform="matrix(1 0 0 -1 0 792)" d="M185.589 381.962L188.578 381.962" stroke="#000000" stroke-width="0.398" fill="none" /><path id="1162" transform="matrix(1 0 0 -1 0 792)" d="M207.109 381.962L210.098 381.962" stroke="#000000" stroke-width="0.398" fill="none" /><path id="1165" transform="matrix(1 0 0 -1 0 792)" d="M222.65 381.962L225.639 381.962" stroke="#000000" stroke-width="0.398" fill="none" /><path id="1168" transform="matrix(1 0 0 -1 0 792)" d="M238.192 381.962L241.181 381.962" stroke="#000000" stroke-width="0.398" fill="none" /><path id="1171" transform="matrix(1 0 0 -1 0 792)" d="M253.734 381.962L256.723 381.962" stroke="#000000" stroke-width="0.398" fill="none" /><path id="1173" transform="matrix(1 0 0 -1 0 792)" d="M263.298 381.962L266.287 381.962" stroke="#000000" stroke-width="0.398" fill="none" /><path id="1177" transform="matrix(1 0 0 -1 0 792)" d="M460.147 377.68L460.147 391.247" stroke="#000000" stroke-width="0.398" fill="none" /><path id="1179" transform="matrix(1 0 0 -1 0 792)" d="M515.526 377.68L515.526 391.247" stroke="#000000" stroke-width="0.398" fill="none" /><path id="1180" transform="matrix(1 0 0 -1 0 792)" d="M130.795 377.481L515.726 377.481" stroke="#000000" stroke-width="0.398" fill="none" /><path id="1181" transform="matrix(1 0 0 -1 0 792)" d="M130.795 377.481L515.726 377.481" stroke="#000000" stroke-width="0.398" fill="none" /><path id="1201" transform="matrix(1 0 0 -1 0 792)" d="M213.155 207.377L433.365 207.377" stroke="#000000" stroke-width="0.398" fill="none" /><path id="1202" transform="matrix(1 0 0 -1 0 792)" d="M213.354 193.628L213.354 207.177" stroke="#000000" stroke-width="0.398" fill="none" /><path id="1203" transform="matrix(1 0 0 -1 0 792)" d="M282.601 193.628L282.601 207.177" stroke="#000000" stroke-width="0.398" fill="none" /><path id="1204" transform="matrix(1 0 0 -1 0 792)" d="M284.993 193.628L284.993 207.177" stroke="#000000" stroke-width="0.398" fill="none" /><path id="1205" transform="matrix(1 0 0 -1 0 792)" d="M285.192 193.628L432.967 193.628L432.967 207.177L285.192 207.177z" stroke="none" fill="#CCCCEB" fill-rule="nonzero" /><path id="1219" transform="matrix(1 0 0 -1 0 792)" d="M433.166 193.628L433.166 207.177" stroke="#000000" stroke-width="0.398" fill="none" /><path id="1220" transform="matrix(1 0 0 -1 0 792)" d="M213.155 193.429L433.365 193.429" stroke="#000000" stroke-width="0.398" fill="none" /><path id="1221" transform="matrix(1 0 0 -1 0 792)" d="M213.155 179.68L284.793 179.68L284.793 193.229L213.155 193.229z" stroke="none" fill="#CCCCEB" fill-rule="nonzero" /><path id="1233" transform="matrix(1 0 0 -1 0 792)" d="M284.993 179.68L284.993 193.229" stroke="#000000" stroke-width="0.398" fill="none" /><path id="1235" transform="matrix(1 0 0 -1 0 792)" d="M305.558 179.68L305.558 193.229" stroke="#000000" stroke-width="0.398" fill="none" /><path id="1237" transform="matrix(1 0 0 -1 0 792)" d="M326.124 179.68L326.124 193.229" stroke="#000000" stroke-width="0.398" fill="none" /><path id="1240" transform="matrix(1 0 0 -1 0 792)" d="M353.63 179.68L353.63 193.229" stroke="#000000" stroke-width="0.398" fill="none" /><path id="1244" transform="matrix(1 0 0 -1 0 792)" d="M389.624 179.68L389.624 193.229" stroke="#000000" stroke-width="0.398" fill="none" /><path id="1249" transform="matrix(1 0 0 -1 0 792)" d="M433.166 179.68L433.166 193.229" stroke="#000000" stroke-width="0.398" fill="none" /><path id="1250" transform="matrix(1 0 0 -1 0 792)" d="M213.155 179.481L433.365 179.481" stroke="#000000" stroke-width="0.398" fill="none" /><path id="1251" transform="matrix(1 0 0 -1 0 792)" d="M213.155 177.09L433.365 177.09" stroke="#000000" stroke-width="0.398" fill="none" /><path id="1252" transform="matrix(1 0 0 -1 0 792)" d="M213.354 163.342L213.354 176.891" stroke="#000000" stroke-width="0.398" fill="none" /><path id="1254" transform="matrix(1 0 0 -1 0 792)" d="M282.601 163.342L282.601 176.891" stroke="#000000" stroke-width="0.398" fill="none" /><path id="1255" transform="matrix(1 0 0 -1 0 792)" d="M284.993 163.342L284.993 176.891" stroke="#000000" stroke-width="0.398" fill="none" /><path id="1257" transform="matrix(1 0 0 -1 0 792)" d="M305.558 163.342L305.558 176.891" stroke="#000000" stroke-width="0.398" fill="none" /><path id="1259" transform="matrix(1 0 0 -1 0 792)" d="M326.124 163.342L326.124 176.891" stroke="#000000" stroke-width="0.398" fill="none" /><path id="1261" transform="matrix(1 0 0 -1 0 792)" d="M353.63 163.342L353.63 176.891" stroke="#000000" stroke-width="0.398" fill="none" /><path id="1263" transform="matrix(1 0 0 -1 0 792)" d="M389.624 163.342L389.624 176.891" stroke="#000000" stroke-width="0.398" fill="none" /><path id="1265" transform="matrix(1 0 0 -1 0 792)" d="M433.166 163.342L433.166 176.891" stroke="#000000" stroke-width="0.398" fill="none" /><path id="1266" transform="matrix(1 0 0 -1 0 792)" d="M213.155 163.143L433.365 163.143" stroke="#000000" stroke-width="0.398" fill="none" /><path id="1267" transform="matrix(1 0 0 -1 0 792)" d="M213.354 149.394L213.354 162.943" stroke="#000000" stroke-width="0.398" fill="none" /><path id="1271" transform="matrix(1 0 0 -1 0 792)" d="M282.601 149.394L282.601 162.943" stroke="#000000" stroke-width="0.398" fill="none" /><path id="1272" transform="matrix(1 0 0 -1 0 792)" d="M284.993 149.394L284.993 162.943" stroke="#000000" stroke-width="0.398" fill="none" /><path id="1274" transform="matrix(1 0 0 -1 0 792)" d="M305.558 149.394L305.558 162.943" stroke="#000000" stroke-width="0.398" fill="none" /><path id="1276" transform="matrix(1 0 0 -1 0 792)" d="M326.124 149.394L326.124 162.943" stroke="#000000" stroke-width="0.398" fill="none" /><path id="1278" transform="matrix(1 0 0 -1 0 792)" d="M353.63 149.394L353.63 162.943" stroke="#000000" stroke-width="0.398" fill="none" /><path id="1280" transform="matrix(1 0 0 -1 0 792)" d="M389.624 149.394L389.624 162.943" stroke="#000000" stroke-width="0.398" fill="none" /><path id="1282" transform="matrix(1 0 0 -1 0 792)" d="M433.166 149.394L433.166 162.943" stroke="#000000" stroke-width="0.398" fill="none" /><path id="1283" transform="matrix(1 0 0 -1 0 792)" d="M213.155 149.195L433.365 149.195" stroke="#000000" stroke-width="0.398" fill="none" /><path id="1284" transform="matrix(1 0 0 -1 0 792)" d="M213.354 135.446L213.354 148.995" stroke="#000000" stroke-width="0.398" fill="none" /><path id="1289" transform="matrix(1 0 0 -1 0 792)" d="M282.601 135.446L282.601 148.995" stroke="#000000" stroke-width="0.398" fill="none" /><path id="1290" transform="matrix(1 0 0 -1 0 792)" d="M284.993 135.446L284.993 148.995" stroke="#000000" stroke-width="0.398" fill="none" /><path id="1292" transform="matrix(1 0 0 -1 0 792)" d="M305.558 135.446L305.558 148.995" stroke="#000000" stroke-width="0.398" fill="none" /><path id="1294" transform="matrix(1 0 0 -1 0 792)" d="M326.124 135.446L326.124 148.995" stroke="#000000" stroke-width="0.398" fill="none" /><path id="1296" transform="matrix(1 0 0 -1 0 792)" d="M353.63 135.446L353.63 148.995" stroke="#000000" stroke-width="0.398" fill="none" /><path id="1298" transform="matrix(1 0 0 -1 0 792)" d="M389.624 135.446L389.624 148.995" stroke="#000000" stroke-width="0.398" fill="none" /><path id="1300" transform="matrix(1 0 0 -1 0 792)" d="M433.166 135.446L433.166 148.995" stroke="#000000" stroke-width="0.398" fill="none" /><path id="1301" transform="matrix(1 0 0 -1 0 792)" d="M213.155 135.247L433.365 135.247" stroke="#000000" stroke-width="0.398" fill="none" /></g></g></svg>