<svg xmlns="http://www.w3.org/2000/svg" xmlns:xlink="http://www.w3.org/1999/xlink" id="body_7" preserveAspectRatio="xMinYMin meet" viewBox="0 0 1632 1056"><defs><clipPath id="1"><path id="" clip-rule="evenodd" transform="matrix(1 0 0 1 0 0)" d="M0 792L0 0L0 0L1224 0L1224 0L1224 792L1224 792L0 792z" /></clipPath></defs><g transform="matrix(1.333333 0 0 1.333333 0 0)"><g clip-path="url(#1)"><path id="17" transform="matrix(1 0 0 -1 0 792)" d="M701.933 721.28L1168.588 721.28" stroke="#000000" stroke-width="0.498" fill="none" /><path id="103" transform="matrix(1 0 0 -1 0 792)" d="M986.014 153.704L989.003 153.704" stroke="#000000" stroke-width="0.398" fill="none" /><path id="104" transform="matrix(1 0 0 -1 0 792)" d="M1069.783 153.704L1072.772 153.704" stroke="#000000" stroke-width="0.398" fill="none" /><path id="105" transform="matrix(1 0 0 -1 0 792)" d="M701.933 641.951L1168.591 641.951L1168.591 641.951L1168.591 695.7445L1168.591 695.7445L701.933 695.7445z" stroke="#FFFFFF" stroke-width="1" fill="#FFFFFF" fill-rule="nonzero" /><path id="214" transform="matrix(1 0 0 -1 0 792)" d="M718.869 628.401L1168.585 628.401L1168.585 628.401L1168.585 641.5465L1168.585 641.5465L718.869 641.5465z" stroke="#FFFFFF" stroke-width="1" fill="#FFFFFF" fill-rule="nonzero" /><path id="246" transform="matrix(1 0 0 -1 0 792)" d="M701.933 614.853L1142.737 614.853L1142.737 614.853L1142.737 627.9985L1142.737 627.9985L701.933 627.9985z" stroke="#FFFFFF" stroke-width="1" fill="#FFFFFF" fill-rule="nonzero" /><path id="280" transform="matrix(1 0 0 -1 0 792)" d="M701.933 523.861L1168.591 523.861L1168.591 523.861L1168.591 577.6545L1168.591 577.6545L701.933 577.6545z" stroke="#FFFFFF" stroke-width="1" fill="#FFFFFF" fill-rule="nonzero" /><path id="383" transform="matrix(1 0 0 -1 0 792)" d="M701.933 437.28L1168.591 437.28L1168.591 437.28L1168.591 477.5235L1168.591 477.5235L701.933 477.5235z" stroke="#FFFFFF" stroke-width="1" fill="#FFFFFF" fill-rule="nonzero" /><path id="469" transform="matrix(1 0 0 -1 0 792)" d="M701.933 337.15L1168.592 337.15L1168.592 337.15L1168.592 390.9425L1168.592 390.9425L701.933 390.9425z" stroke="#FFFFFF" stroke-width="1" fill="#FFFFFF" fill-rule="nonzero" /><path id="600" transform="matrix(1 0 0 -1 0 792)" d="M701.933 237.02L1168.591 237.02L1168.591 237.02L1168.591 290.8125L1168.591 290.8125L701.933 290.8125z" stroke="#FFFFFF" stroke-width="1" fill="#FFFFFF" fill-rule="nonzero" /><path id="699" transform="matrix(1 0 0 -1 0 792)" d="M701.933 136.89L1168.591 136.89L1168.591 136.89L1168.591 190.6833L1168.591 190.6833L701.933 190.6833z" stroke="#FFFFFF" stroke-width="1" fill="#FFFFFF" fill-rule="nonzero" /><path id="814" transform="matrix(1 0 0 -1 0 792)" d="M718.869 123.009L1168.588 123.009L1168.588 123.009L1168.588 136.4862L1168.588 136.4862L718.869 136.4862z" stroke="#FFFFFF" stroke-width="1" fill="#FFFFFF" fill-rule="nonzero" /><path id="850" transform="matrix(1 0 0 -1 0 792)" d="M701.933 109.46L1105.882 109.46L1105.882 109.46L1105.882 122.9372L1105.882 122.9372L701.933 122.9372z" stroke="#FFFFFF" stroke-width="1" fill="#FFFFFF" fill-rule="nonzero" /><path id="882" transform="matrix(1 0 0 -1 0 792)" d="M729.206 66.6227L1168.588 66.6227L1168.588 66.6227L1168.588 102.8664L1168.588 102.8664L729.206 102.8664z" stroke="#FFFFFF" stroke-width="1" fill="#FFFFFF" fill-rule="nonzero" /><path id="989" transform="matrix(1 0 0 -1 0 792)" d="M89.933 721.28L556.588 721.28" stroke="#000000" stroke-width="0.498" fill="none" /><path id="2880" transform="matrix(1 0 0 -1 0 792)" d="M374.014 153.704L377.003 153.704" stroke="#000000" stroke-width="0.398" fill="none" /><path id="2894" transform="matrix(1 0 0 -1 0 792)" d="M457.783 153.704L460.772 153.704" stroke="#000000" stroke-width="0.398" fill="none" /></g></g></svg>