<svg xmlns="http://www.w3.org/2000/svg" xmlns:xlink="http://www.w3.org/1999/xlink" id="body_59" preserveAspectRatio="xMinYMin meet" viewBox="0 0 1632 1056"><defs><clipPath id="1"><path id="" clip-rule="evenodd" transform="matrix(1 0 0 1 0 0)" d="M0 792L0 0L0 0L1224 0L1224 0L1224 792L1224 792L0 792z" /></clipPath></defs><g transform="matrix(1.333333 0 0 1.333333 0 0)"><g clip-path="url(#1)"><path id="1" transform="matrix(1 0 0 -1 0 792)" d="M701.933 721.28L1168.588 721.28" stroke="#000000" stroke-width="0.498" fill="none" /><path id="2" transform="matrix(1 0 0 -1 0 792)" d="M765.204 589.193L1105.317 589.193" stroke="#000000" stroke-width="0.398" fill="none" /><path id="3" transform="matrix(1 0 0 -1 0 792)" d="M765.403 575.427L765.403 588.994" stroke="#000000" stroke-width="0.398" fill="none" /><path id="4" transform="matrix(1 0 0 -1 0 792)" d="M765.602 575.427L957.557 575.427L957.557 588.994L765.602 588.994z" stroke="none" fill="#CCCCEB" fill-rule="nonzero" /><path id="10" transform="matrix(1 0 0 -1 0 792)" d="M957.756 575.427L957.756 588.994" stroke="#000000" stroke-width="0.398" fill="none" /><path id="11" transform="matrix(1 0 0 -1 0 792)" d="M957.956 575.427L1016.58 575.427L1016.58 588.994L957.956 588.994z" stroke="none" fill="#CCCCEB" fill-rule="nonzero" /><path id="21" transform="matrix(1 0 0 -1 0 792)" d="M1016.778 575.427L1016.778 588.994" stroke="#000000" stroke-width="0.398" fill="none" /><path id="22" transform="matrix(1 0 0 -1 0 792)" d="M1016.978 575.427L1075.602 575.427L1075.602 588.994L1016.978 588.994z" stroke="none" fill="#CCCCEB" fill-rule="nonzero" /><path id="30" transform="matrix(1 0 0 -1 0 792)" d="M1075.801 575.427L1075.801 588.994" stroke="#000000" stroke-width="0.398" fill="none" /><path id="31" transform="matrix(1 0 0 -1 0 792)" d="M1076 575.427L1104.919 575.427L1104.919 588.994L1076 588.994z" stroke="none" fill="#CCCCEB" fill-rule="nonzero" /><path id="35" transform="matrix(1 0 0 -1 0 792)" d="M1105.118 575.427L1105.118 588.994" stroke="#000000" stroke-width="0.398" fill="none" /><path id="36" transform="matrix(1 0 0 -1 0 792)" d="M765.403 561.861L765.403 575.428" stroke="#000000" stroke-width="0.398" fill="none" /><path id="37" transform="matrix(1 0 0 -1 0 792)" d="M765.602 561.861L957.557 561.861L957.557 575.428L765.602 575.428z" stroke="none" fill="#CCCCEB" fill-rule="nonzero" /><path id="38" transform="matrix(1 0 0 -1 0 792)" d="M957.756 561.861L957.756 575.428" stroke="#000000" stroke-width="0.398" fill="none" /><path id="39" transform="matrix(1 0 0 -1 0 792)" d="M957.956 561.861L1016.58 561.861L1016.58 575.428L957.956 575.428z" stroke="none" fill="#CCCCEB" fill-rule="nonzero" /><path id="40" transform="matrix(1 0 0 -1 0 792)" d="M1016.778 561.861L1016.778 575.428" stroke="#000000" stroke-width="0.398" fill="none" /><path id="41" transform="matrix(1 0 0 -1 0 792)" d="M1016.978 561.861L1075.602 561.861L1075.602 575.428L1016.978 575.428z" stroke="none" fill="#CCCCEB" fill-rule="nonzero" /><path id="47" transform="matrix(1 0 0 -1 0 792)" d="M1075.801 561.861L1075.801 575.428" stroke="#000000" stroke-width="0.398" fill="none" /><path id="48" transform="matrix(1 0 0 -1 0 792)" d="M1076 561.861L1104.919 561.861L1104.919 575.428L1076 575.428z" stroke="none" fill="#CCCCEB" fill-rule="nonzero" /><path id="49" transform="matrix(1 0 0 -1 0 792)" d="M1105.118 561.861L1105.118 575.428" stroke="#000000" stroke-width="0.398" fill="none" /><path id="50" transform="matrix(1 0 0 -1 0 792)" d="M765.204 561.661L1105.317 561.661" stroke="#000000" stroke-width="0.398" fill="none" /><path id="51" transform="matrix(1 0 0 -1 0 792)" d="M765.204 559.27L1105.317 559.27" stroke="#000000" stroke-width="0.398" fill="none" /><path id="52" transform="matrix(1 0 0 -1 0 792)" d="M765.403 545.504L765.403 559.071" stroke="#000000" stroke-width="0.398" fill="none" /><path id="61" transform="matrix(1 0 0 -1 0 792)" d="M957.756 545.504L957.756 559.071" stroke="#000000" stroke-width="0.398" fill="none" /><path id="63" transform="matrix(1 0 0 -1 0 792)" d="M1016.778 545.504L1016.778 559.071" stroke="#000000" stroke-width="0.398" fill="none" /><path id="65" transform="matrix(1 0 0 -1 0 792)" d="M1075.801 545.504L1075.801 559.071" stroke="#000000" stroke-width="0.398" fill="none" /><path id="67" transform="matrix(1 0 0 -1 0 792)" d="M1105.118 545.504L1105.118 559.071" stroke="#000000" stroke-width="0.398" fill="none" /><path id="68" transform="matrix(1 0 0 -1 0 792)" d="M765.204 545.305L1105.317 545.305" stroke="#000000" stroke-width="0.398" fill="none" /><path id="69" transform="matrix(1 0 0 -1 0 792)" d="M765.403 531.539L765.403 545.106" stroke="#000000" stroke-width="0.398" fill="none" /><path id="75" transform="matrix(1 0 0 -1 0 792)" d="M802.065 535.821L805.054 535.821" stroke="#000000" stroke-width="0.398" fill="none" /><path id="84" transform="matrix(1 0 0 -1 0 792)" d="M957.756 531.539L957.756 545.106" stroke="#000000" stroke-width="0.398" fill="none" /><path id="86" transform="matrix(1 0 0 -1 0 792)" d="M1016.778 531.539L1016.778 545.106" stroke="#000000" stroke-width="0.398" fill="none" /><path id="88" transform="matrix(1 0 0 -1 0 792)" d="M1075.801 531.539L1075.801 545.106" stroke="#000000" stroke-width="0.398" fill="none" /><path id="90" transform="matrix(1 0 0 -1 0 792)" d="M1105.118 531.539L1105.118 545.106" stroke="#000000" stroke-width="0.398" fill="none" /><path id="91" transform="matrix(1 0 0 -1 0 792)" d="M765.204 531.34L1105.317 531.34" stroke="#000000" stroke-width="0.398" fill="none" /><path id="92" transform="matrix(1 0 0 -1 0 792)" d="M765.403 517.574L765.403 531.141" stroke="#000000" stroke-width="0.398" fill="none" /><path id="98" transform="matrix(1 0 0 -1 0 792)" d="M802.065 521.856L805.054 521.856" stroke="#000000" stroke-width="0.398" fill="none" /><path id="107" transform="matrix(1 0 0 -1 0 792)" d="M853.472 521.856L856.461 521.856" stroke="#000000" stroke-width="0.398" fill="none" /><path id="117" transform="matrix(1 0 0 -1 0 792)" d="M957.756 517.574L957.756 531.141" stroke="#000000" stroke-width="0.398" fill="none" /><path id="119" transform="matrix(1 0 0 -1 0 792)" d="M1016.778 517.574L1016.778 531.141" stroke="#000000" stroke-width="0.398" fill="none" /><path id="121" transform="matrix(1 0 0 -1 0 792)" d="M1075.801 517.574L1075.801 531.141" stroke="#000000" stroke-width="0.398" fill="none" /><path id="123" transform="matrix(1 0 0 -1 0 792)" d="M1105.118 517.574L1105.118 531.141" stroke="#000000" stroke-width="0.398" fill="none" /><path id="124" transform="matrix(1 0 0 -1 0 792)" d="M765.204 517.375L1105.317 517.375" stroke="#000000" stroke-width="0.398" fill="none" /><path id="125" transform="matrix(1 0 0 -1 0 792)" d="M765.403 503.609L765.403 517.176" stroke="#000000" stroke-width="0.398" fill="none" /><path id="131" transform="matrix(1 0 0 -1 0 792)" d="M802.065 507.89L805.054 507.89" stroke="#000000" stroke-width="0.398" fill="none" /><path id="140" transform="matrix(1 0 0 -1 0 792)" d="M853.472 507.89L856.461 507.89" stroke="#000000" stroke-width="0.398" fill="none" /><path id="145" transform="matrix(1 0 0 -1 0 792)" d="M957.756 503.609L957.756 517.176" stroke="#000000" stroke-width="0.398" fill="none" /><path id="147" transform="matrix(1 0 0 -1 0 792)" d="M1016.778 503.609L1016.778 517.176" stroke="#000000" stroke-width="0.398" fill="none" /><path id="149" transform="matrix(1 0 0 -1 0 792)" d="M1075.801 503.609L1075.801 517.176" stroke="#000000" stroke-width="0.398" fill="none" /><path id="151" transform="matrix(1 0 0 -1 0 792)" d="M1105.118 503.609L1105.118 517.176" stroke="#000000" stroke-width="0.398" fill="none" /><path id="152" transform="matrix(1 0 0 -1 0 792)" d="M765.204 503.41L1105.317 503.41" stroke="#000000" stroke-width="0.398" fill="none" /><path id="153" transform="matrix(1 0 0 -1 0 792)" d="M765.403 489.644L765.403 503.211" stroke="#000000" stroke-width="0.398" fill="none" /><path id="171" transform="matrix(1 0 0 -1 0 792)" d="M957.756 489.644L957.756 503.211" stroke="#000000" stroke-width="0.398" fill="none" /><path id="173" transform="matrix(1 0 0 -1 0 792)" d="M1016.778 489.644L1016.778 503.211" stroke="#000000" stroke-width="0.398" fill="none" /><path id="175" transform="matrix(1 0 0 -1 0 792)" d="M1075.801 489.644L1075.801 503.211" stroke="#000000" stroke-width="0.398" fill="none" /><path id="177" transform="matrix(1 0 0 -1 0 792)" d="M1105.118 489.644L1105.118 503.211" stroke="#000000" stroke-width="0.398" fill="none" /><path id="178" transform="matrix(1 0 0 -1 0 792)" d="M765.204 489.445L1105.317 489.445" stroke="#000000" stroke-width="0.398" fill="none" /><path id="179" transform="matrix(1 0 0 -1 0 792)" d="M765.403 475.679L765.403 489.246" stroke="#000000" stroke-width="0.398" fill="none" /><path id="197" transform="matrix(1 0 0 -1 0 792)" d="M957.756 475.679L957.756 489.246" stroke="#000000" stroke-width="0.398" fill="none" /><path id="199" transform="matrix(1 0 0 -1 0 792)" d="M1016.778 475.679L1016.778 489.246" stroke="#000000" stroke-width="0.398" fill="none" /><path id="201" transform="matrix(1 0 0 -1 0 792)" d="M1075.801 475.679L1075.801 489.246" stroke="#000000" stroke-width="0.398" fill="none" /><path id="203" transform="matrix(1 0 0 -1 0 792)" d="M1105.118 475.679L1105.118 489.246" stroke="#000000" stroke-width="0.398" fill="none" /><path id="204" transform="matrix(1 0 0 -1 0 792)" d="M765.204 475.479L1105.317 475.479" stroke="#000000" stroke-width="0.398" fill="none" /><path id="205" transform="matrix(1 0 0 -1 0 792)" d="M765.403 461.714L765.403 475.281" stroke="#000000" stroke-width="0.398" fill="none" /><path id="224" transform="matrix(1 0 0 -1 0 792)" d="M957.756 461.714L957.756 475.281" stroke="#000000" stroke-width="0.398" fill="none" /><path id="226" transform="matrix(1 0 0 -1 0 792)" d="M1016.778 461.714L1016.778 475.281" stroke="#000000" stroke-width="0.398" fill="none" /><path id="228" transform="matrix(1 0 0 -1 0 792)" d="M1075.801 461.714L1075.801 475.281" stroke="#000000" stroke-width="0.398" fill="none" /><path id="230" transform="matrix(1 0 0 -1 0 792)" d="M1105.118 461.714L1105.118 475.281" stroke="#000000" stroke-width="0.398" fill="none" /><path id="231" transform="matrix(1 0 0 -1 0 792)" d="M765.204 461.514L1105.317 461.514" stroke="#000000" stroke-width="0.398" fill="none" /><path id="232" transform="matrix(1 0 0 -1 0 792)" d="M765.403 447.748L765.403 461.315" stroke="#000000" stroke-width="0.398" fill="none" /><path id="251" transform="matrix(1 0 0 -1 0 792)" d="M957.756 447.748L957.756 461.315" stroke="#000000" stroke-width="0.398" fill="none" /><path id="253" transform="matrix(1 0 0 -1 0 792)" d="M1016.778 447.748L1016.778 461.315" stroke="#000000" stroke-width="0.398" fill="none" /><path id="255" transform="matrix(1 0 0 -1 0 792)" d="M1075.801 447.748L1075.801 461.315" stroke="#000000" stroke-width="0.398" fill="none" /><path id="257" transform="matrix(1 0 0 -1 0 792)" d="M1105.118 447.748L1105.118 461.315" stroke="#000000" stroke-width="0.398" fill="none" /><path id="258" transform="matrix(1 0 0 -1 0 792)" d="M765.204 447.549L1105.317 447.549" stroke="#000000" stroke-width="0.398" fill="none" /><path id="259" transform="matrix(1 0 0 -1 0 792)" d="M765.403 433.783L765.403 447.35" stroke="#000000" stroke-width="0.398" fill="none" /><path id="279" transform="matrix(1 0 0 -1 0 792)" d="M957.756 433.783L957.756 447.35" stroke="#000000" stroke-width="0.398" fill="none" /><path id="281" transform="matrix(1 0 0 -1 0 792)" d="M1016.778 433.783L1016.778 447.35" stroke="#000000" stroke-width="0.398" fill="none" /><path id="283" transform="matrix(1 0 0 -1 0 792)" d="M1075.801 433.783L1075.801 447.35" stroke="#000000" stroke-width="0.398" fill="none" /><path id="285" transform="matrix(1 0 0 -1 0 792)" d="M1105.118 433.783L1105.118 447.35" stroke="#000000" stroke-width="0.398" fill="none" /><path id="286" transform="matrix(1 0 0 -1 0 792)" d="M765.204 433.584L1105.317 433.584" stroke="#000000" stroke-width="0.398" fill="none" /><path id="287" transform="matrix(1 0 0 -1 0 792)" d="M765.403 419.818L765.403 433.385" stroke="#000000" stroke-width="0.398" fill="none" /><path id="293" transform="matrix(1 0 0 -1 0 792)" d="M802.065 424.1L805.054 424.1" stroke="#000000" stroke-width="0.398" fill="none" /><path id="299" transform="matrix(1 0 0 -1 0 792)" d="M835.54 424.1L838.529 424.1" stroke="#000000" stroke-width="0.398" fill="none" /><path id="307" transform="matrix(1 0 0 -1 0 792)" d="M957.756 419.818L957.756 433.385" stroke="#000000" stroke-width="0.398" fill="none" /><path id="309" transform="matrix(1 0 0 -1 0 792)" d="M1016.778 419.818L1016.778 433.385" stroke="#000000" stroke-width="0.398" fill="none" /><path id="311" transform="matrix(1 0 0 -1 0 792)" d="M1075.801 419.818L1075.801 433.385" stroke="#000000" stroke-width="0.398" fill="none" /><path id="313" transform="matrix(1 0 0 -1 0 792)" d="M1105.118 419.818L1105.118 433.385" stroke="#000000" stroke-width="0.398" fill="none" /><path id="314" transform="matrix(1 0 0 -1 0 792)" d="M765.204 419.619L1105.317 419.619" stroke="#000000" stroke-width="0.398" fill="none" /><path id="315" transform="matrix(1 0 0 -1 0 792)" d="M765.403 405.853L765.403 419.42" stroke="#000000" stroke-width="0.398" fill="none" /><path id="321" transform="matrix(1 0 0 -1 0 792)" d="M802.065 410.134L805.054 410.134" stroke="#000000" stroke-width="0.398" fill="none" /><path id="327" transform="matrix(1 0 0 -1 0 792)" d="M835.54 410.134L838.529 410.134" stroke="#000000" stroke-width="0.398" fill="none" /><path id="333" transform="matrix(1 0 0 -1 0 792)" d="M869.014 410.134L872.003 410.134" stroke="#000000" stroke-width="0.398" fill="none" /><path id="340" transform="matrix(1 0 0 -1 0 792)" d="M957.756 405.853L957.756 419.42" stroke="#000000" stroke-width="0.398" fill="none" /><path id="342" transform="matrix(1 0 0 -1 0 792)" d="M1016.778 405.853L1016.778 419.42" stroke="#000000" stroke-width="0.398" fill="none" /><path id="344" transform="matrix(1 0 0 -1 0 792)" d="M1075.801 405.853L1075.801 419.42" stroke="#000000" stroke-width="0.398" fill="none" /><path id="346" transform="matrix(1 0 0 -1 0 792)" d="M1105.118 405.853L1105.118 419.42" stroke="#000000" stroke-width="0.398" fill="none" /><path id="347" transform="matrix(1 0 0 -1 0 792)" d="M765.204 405.654L1105.317 405.654" stroke="#000000" stroke-width="0.398" fill="none" /><path id="348" transform="matrix(1 0 0 -1 0 792)" d="M765.403 391.888L765.403 405.455" stroke="#000000" stroke-width="0.398" fill="none" /><path id="354" transform="matrix(1 0 0 -1 0 792)" d="M802.065 396.169L805.054 396.169" stroke="#000000" stroke-width="0.398" fill="none" /><path id="360" transform="matrix(1 0 0 -1 0 792)" d="M835.54 396.169L838.529 396.169" stroke="#000000" stroke-width="0.398" fill="none" /><path id="364" transform="matrix(1 0 0 -1 0 792)" d="M857.059 396.169L860.048 396.169" stroke="#000000" stroke-width="0.398" fill="none" /><path id="369" transform="matrix(1 0 0 -1 0 792)" d="M957.756 391.888L957.756 405.455" stroke="#000000" stroke-width="0.398" fill="none" /><path id="371" transform="matrix(1 0 0 -1 0 792)" d="M1016.778 391.888L1016.778 405.455" stroke="#000000" stroke-width="0.398" fill="none" /><path id="373" transform="matrix(1 0 0 -1 0 792)" d="M1075.801 391.888L1075.801 405.455" stroke="#000000" stroke-width="0.398" fill="none" /><path id="375" transform="matrix(1 0 0 -1 0 792)" d="M1105.118 391.888L1105.118 405.455" stroke="#000000" stroke-width="0.398" fill="none" /><path id="376" transform="matrix(1 0 0 -1 0 792)" d="M765.204 391.689L1105.317 391.689" stroke="#000000" stroke-width="0.398" fill="none" /><path id="377" transform="matrix(1 0 0 -1 0 792)" d="M765.403 377.923L765.403 391.49" stroke="#000000" stroke-width="0.398" fill="none" /><path id="383" transform="matrix(1 0 0 -1 0 792)" d="M802.065 382.204L805.054 382.204" stroke="#000000" stroke-width="0.398" fill="none" /><path id="389" transform="matrix(1 0 0 -1 0 792)" d="M835.54 382.204L838.529 382.204" stroke="#000000" stroke-width="0.398" fill="none" /><path id="395" transform="matrix(1 0 0 -1 0 792)" d="M869.014 382.204L872.003 382.204" stroke="#000000" stroke-width="0.398" fill="none" /><path id="403" transform="matrix(1 0 0 -1 0 792)" d="M957.756 377.923L957.756 391.49" stroke="#000000" stroke-width="0.398" fill="none" /><path id="405" transform="matrix(1 0 0 -1 0 792)" d="M1016.778 377.923L1016.778 391.49" stroke="#000000" stroke-width="0.398" fill="none" /><path id="407" transform="matrix(1 0 0 -1 0 792)" d="M1075.801 377.923L1075.801 391.49" stroke="#000000" stroke-width="0.398" fill="none" /><path id="409" transform="matrix(1 0 0 -1 0 792)" d="M1105.118 377.923L1105.118 391.49" stroke="#000000" stroke-width="0.398" fill="none" /><path id="410" transform="matrix(1 0 0 -1 0 792)" d="M765.204 377.723L1105.317 377.723" stroke="#000000" stroke-width="0.398" fill="none" /><path id="411" transform="matrix(1 0 0 -1 0 792)" d="M765.403 363.957L765.403 377.524" stroke="#000000" stroke-width="0.398" fill="none" /><path id="427" transform="matrix(1 0 0 -1 0 792)" d="M957.756 363.957L957.756 377.524" stroke="#000000" stroke-width="0.398" fill="none" /><path id="429" transform="matrix(1 0 0 -1 0 792)" d="M1016.778 363.957L1016.778 377.524" stroke="#000000" stroke-width="0.398" fill="none" /><path id="431" transform="matrix(1 0 0 -1 0 792)" d="M1075.801 363.957L1075.801 377.524" stroke="#000000" stroke-width="0.398" fill="none" /><path id="433" transform="matrix(1 0 0 -1 0 792)" d="M1105.118 363.957L1105.118 377.524" stroke="#000000" stroke-width="0.398" fill="none" /><path id="434" transform="matrix(1 0 0 -1 0 792)" d="M765.204 363.758L1105.317 363.758" stroke="#000000" stroke-width="0.398" fill="none" /><path id="435" transform="matrix(1 0 0 -1 0 792)" d="M765.403 349.992L765.403 363.559" stroke="#000000" stroke-width="0.398" fill="none" /><path id="451" transform="matrix(1 0 0 -1 0 792)" d="M957.756 349.992L957.756 363.559" stroke="#000000" stroke-width="0.398" fill="none" /><path id="453" transform="matrix(1 0 0 -1 0 792)" d="M1016.778 349.992L1016.778 363.559" stroke="#000000" stroke-width="0.398" fill="none" /><path id="455" transform="matrix(1 0 0 -1 0 792)" d="M1075.801 349.992L1075.801 363.559" stroke="#000000" stroke-width="0.398" fill="none" /><path id="457" transform="matrix(1 0 0 -1 0 792)" d="M1105.118 349.992L1105.118 363.559" stroke="#000000" stroke-width="0.398" fill="none" /><path id="458" transform="matrix(1 0 0 -1 0 792)" d="M765.204 349.793L1105.317 349.793" stroke="#000000" stroke-width="0.398" fill="none" /><path id="459" transform="matrix(1 0 0 -1 0 792)" d="M765.403 336.027L765.403 349.594" stroke="#000000" stroke-width="0.398" fill="none" /><path id="476" transform="matrix(1 0 0 -1 0 792)" d="M957.756 336.027L957.756 349.594" stroke="#000000" stroke-width="0.398" fill="none" /><path id="478" transform="matrix(1 0 0 -1 0 792)" d="M1016.778 336.027L1016.778 349.594" stroke="#000000" stroke-width="0.398" fill="none" /><path id="480" transform="matrix(1 0 0 -1 0 792)" d="M1075.801 336.027L1075.801 349.594" stroke="#000000" stroke-width="0.398" fill="none" /><path id="482" transform="matrix(1 0 0 -1 0 792)" d="M1105.118 336.027L1105.118 349.594" stroke="#000000" stroke-width="0.398" fill="none" /><path id="483" transform="matrix(1 0 0 -1 0 792)" d="M765.204 335.828L1105.317 335.828" stroke="#000000" stroke-width="0.398" fill="none" /><path id="484" transform="matrix(1 0 0 -1 0 792)" d="M765.403 322.062L765.403 335.629" stroke="#000000" stroke-width="0.398" fill="none" /><path id="501" transform="matrix(1 0 0 -1 0 792)" d="M957.756 322.062L957.756 335.629" stroke="#000000" stroke-width="0.398" fill="none" /><path id="503" transform="matrix(1 0 0 -1 0 792)" d="M1016.778 322.062L1016.778 335.629" stroke="#000000" stroke-width="0.398" fill="none" /><path id="505" transform="matrix(1 0 0 -1 0 792)" d="M1075.801 322.062L1075.801 335.629" stroke="#000000" stroke-width="0.398" fill="none" /><path id="507" transform="matrix(1 0 0 -1 0 792)" d="M1105.118 322.062L1105.118 335.629" stroke="#000000" stroke-width="0.398" fill="none" /><path id="508" transform="matrix(1 0 0 -1 0 792)" d="M765.204 321.863L1105.317 321.863" stroke="#000000" stroke-width="0.398" fill="none" /><path id="509" transform="matrix(1 0 0 -1 0 792)" d="M765.403 308.097L765.403 321.664" stroke="#000000" stroke-width="0.398" fill="none" /><path id="518" transform="matrix(1 0 0 -1 0 792)" d="M819.998 312.378L822.987 312.378" stroke="#000000" stroke-width="0.398" fill="none" /><path id="530" transform="matrix(1 0 0 -1 0 792)" d="M957.756 308.097L957.756 321.664" stroke="#000000" stroke-width="0.398" fill="none" /><path id="532" transform="matrix(1 0 0 -1 0 792)" d="M1016.778 308.097L1016.778 321.664" stroke="#000000" stroke-width="0.398" fill="none" /><path id="534" transform="matrix(1 0 0 -1 0 792)" d="M1075.801 308.097L1075.801 321.664" stroke="#000000" stroke-width="0.398" fill="none" /><path id="536" transform="matrix(1 0 0 -1 0 792)" d="M1105.118 308.097L1105.118 321.664" stroke="#000000" stroke-width="0.398" fill="none" /><path id="537" transform="matrix(1 0 0 -1 0 792)" d="M765.204 307.898L1105.317 307.898" stroke="#000000" stroke-width="0.398" fill="none" /><path id="538" transform="matrix(1 0 0 -1 0 792)" d="M765.403 294.132L765.403 307.699" stroke="#000000" stroke-width="0.398" fill="none" /><path id="545" transform="matrix(1 0 0 -1 0 792)" d="M808.043 298.413L811.032 298.413" stroke="#000000" stroke-width="0.398" fill="none" /><path id="557" transform="matrix(1 0 0 -1 0 792)" d="M957.756 294.132L957.756 307.699" stroke="#000000" stroke-width="0.398" fill="none" /><path id="559" transform="matrix(1 0 0 -1 0 792)" d="M1016.778 294.132L1016.778 307.699" stroke="#000000" stroke-width="0.398" fill="none" /><path id="561" transform="matrix(1 0 0 -1 0 792)" d="M1075.801 294.132L1075.801 307.699" stroke="#000000" stroke-width="0.398" fill="none" /><path id="563" transform="matrix(1 0 0 -1 0 792)" d="M1105.118 294.132L1105.118 307.699" stroke="#000000" stroke-width="0.398" fill="none" /><path id="564" transform="matrix(1 0 0 -1 0 792)" d="M765.204 293.932L1105.317 293.932" stroke="#000000" stroke-width="0.398" fill="none" /><path id="565" transform="matrix(1 0 0 -1 0 792)" d="M765.403 280.167L765.403 293.734" stroke="#000000" stroke-width="0.398" fill="none" /><path id="575" transform="matrix(1 0 0 -1 0 792)" d="M825.976 284.448L828.965 284.448" stroke="#000000" stroke-width="0.398" fill="none" /><path id="587" transform="matrix(1 0 0 -1 0 792)" d="M957.756 280.167L957.756 293.734" stroke="#000000" stroke-width="0.398" fill="none" /><path id="589" transform="matrix(1 0 0 -1 0 792)" d="M1016.778 280.167L1016.778 293.734" stroke="#000000" stroke-width="0.398" fill="none" /><path id="591" transform="matrix(1 0 0 -1 0 792)" d="M1075.801 280.167L1075.801 293.734" stroke="#000000" stroke-width="0.398" fill="none" /><path id="593" transform="matrix(1 0 0 -1 0 792)" d="M1105.118 280.167L1105.118 293.734" stroke="#000000" stroke-width="0.398" fill="none" /><path id="594" transform="matrix(1 0 0 -1 0 792)" d="M765.204 279.967L1105.317 279.967" stroke="#000000" stroke-width="0.398" fill="none" /><path id="595" transform="matrix(1 0 0 -1 0 792)" d="M765.403 266.201L765.403 279.768" stroke="#000000" stroke-width="0.398" fill="none" /><path id="600" transform="matrix(1 0 0 -1 0 792)" d="M796.088 270.483L799.077 270.483" stroke="#000000" stroke-width="0.398" fill="none" /><path id="610" transform="matrix(1 0 0 -1 0 792)" d="M957.756 266.201L957.756 279.768" stroke="#000000" stroke-width="0.398" fill="none" /><path id="612" transform="matrix(1 0 0 -1 0 792)" d="M1016.778 266.201L1016.778 279.768" stroke="#000000" stroke-width="0.398" fill="none" /><path id="614" transform="matrix(1 0 0 -1 0 792)" d="M1075.801 266.201L1075.801 279.768" stroke="#000000" stroke-width="0.398" fill="none" /><path id="616" transform="matrix(1 0 0 -1 0 792)" d="M1105.118 266.201L1105.118 279.768" stroke="#000000" stroke-width="0.398" fill="none" /><path id="617" transform="matrix(1 0 0 -1 0 792)" d="M765.204 266.002L1105.317 266.002" stroke="#000000" stroke-width="0.398" fill="none" /><path id="618" transform="matrix(1 0 0 -1 0 792)" d="M765.403 252.236L765.403 265.803" stroke="#000000" stroke-width="0.398" fill="none" /><path id="623" transform="matrix(1 0 0 -1 0 792)" d="M796.088 256.518L799.077 256.518" stroke="#000000" stroke-width="0.398" fill="none" /><path id="632" transform="matrix(1 0 0 -1 0 792)" d="M957.756 252.236L957.756 265.803" stroke="#000000" stroke-width="0.398" fill="none" /><path id="634" transform="matrix(1 0 0 -1 0 792)" d="M1016.778 252.236L1016.778 265.803" stroke="#000000" stroke-width="0.398" fill="none" /><path id="636" transform="matrix(1 0 0 -1 0 792)" d="M1075.801 252.236L1075.801 265.803" stroke="#000000" stroke-width="0.398" fill="none" /><path id="638" transform="matrix(1 0 0 -1 0 792)" d="M1105.118 252.236L1105.118 265.803" stroke="#000000" stroke-width="0.398" fill="none" /><path id="639" transform="matrix(1 0 0 -1 0 792)" d="M765.204 252.037L1105.317 252.037" stroke="#000000" stroke-width="0.398" fill="none" /><path id="640" transform="matrix(1 0 0 -1 0 792)" d="M765.403 238.271L765.403 251.838" stroke="#000000" stroke-width="0.398" fill="none" /><path id="645" transform="matrix(1 0 0 -1 0 792)" d="M796.088 242.553L799.077 242.553" stroke="#000000" stroke-width="0.398" fill="none" /><path id="652" transform="matrix(1 0 0 -1 0 792)" d="M957.756 238.271L957.756 251.838" stroke="#000000" stroke-width="0.398" fill="none" /><path id="654" transform="matrix(1 0 0 -1 0 792)" d="M1016.778 238.271L1016.778 251.838" stroke="#000000" stroke-width="0.398" fill="none" /><path id="656" transform="matrix(1 0 0 -1 0 792)" d="M1075.801 238.271L1075.801 251.838" stroke="#000000" stroke-width="0.398" fill="none" /><path id="658" transform="matrix(1 0 0 -1 0 792)" d="M1105.118 238.271L1105.118 251.838" stroke="#000000" stroke-width="0.398" fill="none" /><path id="659" transform="matrix(1 0 0 -1 0 792)" d="M765.204 238.072L1105.317 238.072" stroke="#000000" stroke-width="0.398" fill="none" /><path id="660" transform="matrix(1 0 0 -1 0 792)" d="M765.403 224.306L765.403 237.873" stroke="#000000" stroke-width="0.398" fill="none" /><path id="671" transform="matrix(1 0 0 -1 0 792)" d="M957.756 224.306L957.756 237.873" stroke="#000000" stroke-width="0.398" fill="none" /><path id="673" transform="matrix(1 0 0 -1 0 792)" d="M1016.778 224.306L1016.778 237.873" stroke="#000000" stroke-width="0.398" fill="none" /><path id="675" transform="matrix(1 0 0 -1 0 792)" d="M1075.801 224.306L1075.801 237.873" stroke="#000000" stroke-width="0.398" fill="none" /><path id="677" transform="matrix(1 0 0 -1 0 792)" d="M1105.118 224.306L1105.118 237.873" stroke="#000000" stroke-width="0.398" fill="none" /><path id="678" transform="matrix(1 0 0 -1 0 792)" d="M765.204 224.107L1105.317 224.107" stroke="#000000" stroke-width="0.398" fill="none" /><path id="679" transform="matrix(1 0 0 -1 0 792)" d="M765.403 210.341L765.403 223.908" stroke="#000000" stroke-width="0.398" fill="none" /><path id="685" transform="matrix(1 0 0 -1 0 792)" d="M802.065 214.622L805.054 214.622" stroke="#000000" stroke-width="0.398" fill="none" /><path id="693" transform="matrix(1 0 0 -1 0 792)" d="M957.756 210.341L957.756 223.908" stroke="#000000" stroke-width="0.398" fill="none" /><path id="695" transform="matrix(1 0 0 -1 0 792)" d="M1016.778 210.341L1016.778 223.908" stroke="#000000" stroke-width="0.398" fill="none" /><path id="697" transform="matrix(1 0 0 -1 0 792)" d="M1075.801 210.341L1075.801 223.908" stroke="#000000" stroke-width="0.398" fill="none" /><path id="699" transform="matrix(1 0 0 -1 0 792)" d="M1105.118 210.341L1105.118 223.908" stroke="#000000" stroke-width="0.398" fill="none" /><path id="700" transform="matrix(1 0 0 -1 0 792)" d="M765.204 210.142L1105.317 210.142" stroke="#000000" stroke-width="0.398" fill="none" /><path id="719" transform="matrix(1 0 0 -1 0 792)" d="M701.933 722.529L1168.588 722.529L1168.588 722.529L1168.588 735.6745L1168.588 735.6745L701.933 735.6745z" stroke="#FFFFFF" stroke-width="1" fill="#FFFFFF" fill-rule="nonzero" /><path id="770" transform="matrix(1 0 0 -1 0 792)" d="M89.933 721.28L556.588 721.28" stroke="#000000" stroke-width="0.498" fill="none" /><path id="771" transform="matrix(1 0 0 -1 0 792)" d="M153.204 589.193L493.317 589.193" stroke="#000000" stroke-width="0.398" fill="none" /><path id="772" transform="matrix(1 0 0 -1 0 792)" d="M153.403 575.427L153.403 588.994" stroke="#000000" stroke-width="0.398" fill="none" /><path id="773" transform="matrix(1 0 0 -1 0 792)" d="M153.602 575.427L345.557 575.427L345.557 588.994L153.602 588.994z" stroke="none" fill="#CCCCEB" fill-rule="nonzero" /><path id="779" transform="matrix(1 0 0 -1 0 792)" d="M345.756 575.427L345.756 588.994" stroke="#000000" stroke-width="0.398" fill="none" /><path id="780" transform="matrix(1 0 0 -1 0 792)" d="M345.956 575.427L404.58 575.427L404.58 588.994L345.956 588.994z" stroke="none" fill="#CCCCEB" fill-rule="nonzero" /><path id="790" transform="matrix(1 0 0 -1 0 792)" d="M404.778 575.427L404.778 588.994" stroke="#000000" stroke-width="0.398" fill="none" /><path id="791" transform="matrix(1 0 0 -1 0 792)" d="M404.978 575.427L463.602 575.427L463.602 588.994L404.978 588.994z" stroke="none" fill="#CCCCEB" fill-rule="nonzero" /><path id="799" transform="matrix(1 0 0 -1 0 792)" d="M463.801 575.427L463.801 588.994" stroke="#000000" stroke-width="0.398" fill="none" /><path id="800" transform="matrix(1 0 0 -1 0 792)" d="M464 575.427L492.919 575.427L492.919 588.994L464 588.994z" stroke="none" fill="#CCCCEB" fill-rule="nonzero" /><path id="804" transform="matrix(1 0 0 -1 0 792)" d="M493.118 575.427L493.118 588.994" stroke="#000000" stroke-width="0.398" fill="none" /><path id="805" transform="matrix(1 0 0 -1 0 792)" d="M153.403 561.861L153.403 575.428" stroke="#000000" stroke-width="0.398" fill="none" /><path id="806" transform="matrix(1 0 0 -1 0 792)" d="M153.602 561.861L345.557 561.861L345.557 575.428L153.602 575.428z" stroke="none" fill="#CCCCEB" fill-rule="nonzero" /><path id="807" transform="matrix(1 0 0 -1 0 792)" d="M345.756 561.861L345.756 575.428" stroke="#000000" stroke-width="0.398" fill="none" /><path id="808" transform="matrix(1 0 0 -1 0 792)" d="M345.956 561.861L404.58 561.861L404.58 575.428L345.956 575.428z" stroke="none" fill="#CCCCEB" fill-rule="nonzero" /><path id="809" transform="matrix(1 0 0 -1 0 792)" d="M404.778 561.861L404.778 575.428" stroke="#000000" stroke-width="0.398" fill="none" /><path id="810" transform="matrix(1 0 0 -1 0 792)" d="M404.978 561.861L463.602 561.861L463.602 575.428L404.978 575.428z" stroke="none" fill="#CCCCEB" fill-rule="nonzero" /><path id="816" transform="matrix(1 0 0 -1 0 792)" d="M463.801 561.861L463.801 575.428" stroke="#000000" stroke-width="0.398" fill="none" /><path id="817" transform="matrix(1 0 0 -1 0 792)" d="M464 561.861L492.919 561.861L492.919 575.428L464 575.428z" stroke="none" fill="#CCCCEB" fill-rule="nonzero" /><path id="818" transform="matrix(1 0 0 -1 0 792)" d="M493.118 561.861L493.118 575.428" stroke="#000000" stroke-width="0.398" fill="none" /><path id="819" transform="matrix(1 0 0 -1 0 792)" d="M153.204 561.661L493.317 561.661" stroke="#000000" stroke-width="0.398" fill="none" /><path id="820" transform="matrix(1 0 0 -1 0 792)" d="M153.204 559.27L493.317 559.27" stroke="#000000" stroke-width="0.398" fill="none" /><path id="821" transform="matrix(1 0 0 -1 0 792)" d="M153.403 545.504L153.403 559.071" stroke="#000000" stroke-width="0.398" fill="none" /><path id="830" transform="matrix(1 0 0 -1 0 792)" d="M345.756 545.504L345.756 559.071" stroke="#000000" stroke-width="0.398" fill="none" /><path id="832" transform="matrix(1 0 0 -1 0 792)" d="M404.778 545.504L404.778 559.071" stroke="#000000" stroke-width="0.398" fill="none" /><path id="834" transform="matrix(1 0 0 -1 0 792)" d="M463.801 545.504L463.801 559.071" stroke="#000000" stroke-width="0.398" fill="none" /><path id="836" transform="matrix(1 0 0 -1 0 792)" d="M493.118 545.504L493.118 559.071" stroke="#000000" stroke-width="0.398" fill="none" /><path id="837" transform="matrix(1 0 0 -1 0 792)" d="M153.204 545.305L493.317 545.305" stroke="#000000" stroke-width="0.398" fill="none" /><path id="838" transform="matrix(1 0 0 -1 0 792)" d="M153.403 531.539L153.403 545.106" stroke="#000000" stroke-width="0.398" fill="none" /><path id="844" transform="matrix(1 0 0 -1 0 792)" d="M190.065 535.821L193.054 535.821" stroke="#000000" stroke-width="0.398" fill="none" /><path id="853" transform="matrix(1 0 0 -1 0 792)" d="M345.756 531.539L345.756 545.106" stroke="#000000" stroke-width="0.398" fill="none" /><path id="855" transform="matrix(1 0 0 -1 0 792)" d="M404.778 531.539L404.778 545.106" stroke="#000000" stroke-width="0.398" fill="none" /><path id="857" transform="matrix(1 0 0 -1 0 792)" d="M463.801 531.539L463.801 545.106" stroke="#000000" stroke-width="0.398" fill="none" /><path id="859" transform="matrix(1 0 0 -1 0 792)" d="M493.118 531.539L493.118 545.106" stroke="#000000" stroke-width="0.398" fill="none" /><path id="860" transform="matrix(1 0 0 -1 0 792)" d="M153.204 531.34L493.317 531.34" stroke="#000000" stroke-width="0.398" fill="none" /><path id="861" transform="matrix(1 0 0 -1 0 792)" d="M153.403 517.574L153.403 531.141" stroke="#000000" stroke-width="0.398" fill="none" /><path id="867" transform="matrix(1 0 0 -1 0 792)" d="M190.065 521.856L193.054 521.856" stroke="#000000" stroke-width="0.398" fill="none" /><path id="876" transform="matrix(1 0 0 -1 0 792)" d="M241.472 521.856L244.461 521.856" stroke="#000000" stroke-width="0.398" fill="none" /><path id="886" transform="matrix(1 0 0 -1 0 792)" d="M345.756 517.574L345.756 531.141" stroke="#000000" stroke-width="0.398" fill="none" /><path id="888" transform="matrix(1 0 0 -1 0 792)" d="M404.778 517.574L404.778 531.141" stroke="#000000" stroke-width="0.398" fill="none" /><path id="890" transform="matrix(1 0 0 -1 0 792)" d="M463.801 517.574L463.801 531.141" stroke="#000000" stroke-width="0.398" fill="none" /><path id="892" transform="matrix(1 0 0 -1 0 792)" d="M493.118 517.574L493.118 531.141" stroke="#000000" stroke-width="0.398" fill="none" /><path id="893" transform="matrix(1 0 0 -1 0 792)" d="M153.204 517.375L493.317 517.375" stroke="#000000" stroke-width="0.398" fill="none" /><path id="894" transform="matrix(1 0 0 -1 0 792)" d="M153.403 503.609L153.403 517.176" stroke="#000000" stroke-width="0.398" fill="none" /><path id="900" transform="matrix(1 0 0 -1 0 792)" d="M190.065 507.89L193.054 507.89" stroke="#000000" stroke-width="0.398" fill="none" /><path id="909" transform="matrix(1 0 0 -1 0 792)" d="M241.472 507.89L244.461 507.89" stroke="#000000" stroke-width="0.398" fill="none" /><path id="914" transform="matrix(1 0 0 -1 0 792)" d="M345.756 503.609L345.756 517.176" stroke="#000000" stroke-width="0.398" fill="none" /><path id="916" transform="matrix(1 0 0 -1 0 792)" d="M404.778 503.609L404.778 517.176" stroke="#000000" stroke-width="0.398" fill="none" /><path id="918" transform="matrix(1 0 0 -1 0 792)" d="M463.801 503.609L463.801 517.176" stroke="#000000" stroke-width="0.398" fill="none" /><path id="920" transform="matrix(1 0 0 -1 0 792)" d="M493.118 503.609L493.118 517.176" stroke="#000000" stroke-width="0.398" fill="none" /><path id="921" transform="matrix(1 0 0 -1 0 792)" d="M153.204 503.41L493.317 503.41" stroke="#000000" stroke-width="0.398" fill="none" /><path id="922" transform="matrix(1 0 0 -1 0 792)" d="M153.403 489.644L153.403 503.211" stroke="#000000" stroke-width="0.398" fill="none" /><path id="940" transform="matrix(1 0 0 -1 0 792)" d="M345.756 489.644L345.756 503.211" stroke="#000000" stroke-width="0.398" fill="none" /><path id="942" transform="matrix(1 0 0 -1 0 792)" d="M404.778 489.644L404.778 503.211" stroke="#000000" stroke-width="0.398" fill="none" /><path id="944" transform="matrix(1 0 0 -1 0 792)" d="M463.801 489.644L463.801 503.211" stroke="#000000" stroke-width="0.398" fill="none" /><path id="946" transform="matrix(1 0 0 -1 0 792)" d="M493.118 489.644L493.118 503.211" stroke="#000000" stroke-width="0.398" fill="none" /><path id="947" transform="matrix(1 0 0 -1 0 792)" d="M153.204 489.445L493.317 489.445" stroke="#000000" stroke-width="0.398" fill="none" /><path id="948" transform="matrix(1 0 0 -1 0 792)" d="M153.403 475.679L153.403 489.246" stroke="#000000" stroke-width="0.398" fill="none" /><path id="966" transform="matrix(1 0 0 -1 0 792)" d="M345.756 475.679L345.756 489.246" stroke="#000000" stroke-width="0.398" fill="none" /><path id="968" transform="matrix(1 0 0 -1 0 792)" d="M404.778 475.679L404.778 489.246" stroke="#000000" stroke-width="0.398" fill="none" /><path id="970" transform="matrix(1 0 0 -1 0 792)" d="M463.801 475.679L463.801 489.246" stroke="#000000" stroke-width="0.398" fill="none" /><path id="972" transform="matrix(1 0 0 -1 0 792)" d="M493.118 475.679L493.118 489.246" stroke="#000000" stroke-width="0.398" fill="none" /><path id="973" transform="matrix(1 0 0 -1 0 792)" d="M153.204 475.479L493.317 475.479" stroke="#000000" stroke-width="0.398" fill="none" /><path id="974" transform="matrix(1 0 0 -1 0 792)" d="M153.403 461.714L153.403 475.281" stroke="#000000" stroke-width="0.398" fill="none" /><path id="993" transform="matrix(1 0 0 -1 0 792)" d="M345.756 461.714L345.756 475.281" stroke="#000000" stroke-width="0.398" fill="none" /><path id="995" transform="matrix(1 0 0 -1 0 792)" d="M404.778 461.714L404.778 475.281" stroke="#000000" stroke-width="0.398" fill="none" /><path id="997" transform="matrix(1 0 0 -1 0 792)" d="M463.801 461.714L463.801 475.281" stroke="#000000" stroke-width="0.398" fill="none" /><path id="999" transform="matrix(1 0 0 -1 0 792)" d="M493.118 461.714L493.118 475.281" stroke="#000000" stroke-width="0.398" fill="none" /><path id="1000" transform="matrix(1 0 0 -1 0 792)" d="M153.204 461.514L493.317 461.514" stroke="#000000" stroke-width="0.398" fill="none" /><path id="1001" transform="matrix(1 0 0 -1 0 792)" d="M153.403 447.748L153.403 461.315" stroke="#000000" stroke-width="0.398" fill="none" /><path id="1020" transform="matrix(1 0 0 -1 0 792)" d="M345.756 447.748L345.756 461.315" stroke="#000000" stroke-width="0.398" fill="none" /><path id="1022" transform="matrix(1 0 0 -1 0 792)" d="M404.778 447.748L404.778 461.315" stroke="#000000" stroke-width="0.398" fill="none" /><path id="1024" transform="matrix(1 0 0 -1 0 792)" d="M463.801 447.748L463.801 461.315" stroke="#000000" stroke-width="0.398" fill="none" /><path id="1026" transform="matrix(1 0 0 -1 0 792)" d="M493.118 447.748L493.118 461.315" stroke="#000000" stroke-width="0.398" fill="none" /><path id="1027" transform="matrix(1 0 0 -1 0 792)" d="M153.204 447.549L493.317 447.549" stroke="#000000" stroke-width="0.398" fill="none" /><path id="1028" transform="matrix(1 0 0 -1 0 792)" d="M153.403 433.783L153.403 447.35" stroke="#000000" stroke-width="0.398" fill="none" /><path id="1048" transform="matrix(1 0 0 -1 0 792)" d="M345.756 433.783L345.756 447.35" stroke="#000000" stroke-width="0.398" fill="none" /><path id="1050" transform="matrix(1 0 0 -1 0 792)" d="M404.778 433.783L404.778 447.35" stroke="#000000" stroke-width="0.398" fill="none" /><path id="1052" transform="matrix(1 0 0 -1 0 792)" d="M463.801 433.783L463.801 447.35" stroke="#000000" stroke-width="0.398" fill="none" /><path id="1054" transform="matrix(1 0 0 -1 0 792)" d="M493.118 433.783L493.118 447.35" stroke="#000000" stroke-width="0.398" fill="none" /><path id="1055" transform="matrix(1 0 0 -1 0 792)" d="M153.204 433.584L493.317 433.584" stroke="#000000" stroke-width="0.398" fill="none" /><path id="1056" transform="matrix(1 0 0 -1 0 792)" d="M153.403 419.818L153.403 433.385" stroke="#000000" stroke-width="0.398" fill="none" /><path id="1062" transform="matrix(1 0 0 -1 0 792)" d="M190.065 424.1L193.054 424.1" stroke="#000000" stroke-width="0.398" fill="none" /><path id="1068" transform="matrix(1 0 0 -1 0 792)" d="M223.54 424.1L226.529 424.1" stroke="#000000" stroke-width="0.398" fill="none" /><path id="1076" transform="matrix(1 0 0 -1 0 792)" d="M345.756 419.818L345.756 433.385" stroke="#000000" stroke-width="0.398" fill="none" /><path id="1078" transform="matrix(1 0 0 -1 0 792)" d="M404.778 419.818L404.778 433.385" stroke="#000000" stroke-width="0.398" fill="none" /><path id="1080" transform="matrix(1 0 0 -1 0 792)" d="M463.801 419.818L463.801 433.385" stroke="#000000" stroke-width="0.398" fill="none" /><path id="1082" transform="matrix(1 0 0 -1 0 792)" d="M493.118 419.818L493.118 433.385" stroke="#000000" stroke-width="0.398" fill="none" /><path id="1083" transform="matrix(1 0 0 -1 0 792)" d="M153.204 419.619L493.317 419.619" stroke="#000000" stroke-width="0.398" fill="none" /><path id="1084" transform="matrix(1 0 0 -1 0 792)" d="M153.403 405.853L153.403 419.42" stroke="#000000" stroke-width="0.398" fill="none" /><path id="1090" transform="matrix(1 0 0 -1 0 792)" d="M190.065 410.134L193.054 410.134" stroke="#000000" stroke-width="0.398" fill="none" /><path id="1096" transform="matrix(1 0 0 -1 0 792)" d="M223.54 410.134L226.529 410.134" stroke="#000000" stroke-width="0.398" fill="none" /><path id="1102" transform="matrix(1 0 0 -1 0 792)" d="M257.014 410.134L260.003 410.134" stroke="#000000" stroke-width="0.398" fill="none" /><path id="1109" transform="matrix(1 0 0 -1 0 792)" d="M345.756 405.853L345.756 419.42" stroke="#000000" stroke-width="0.398" fill="none" /><path id="1111" transform="matrix(1 0 0 -1 0 792)" d="M404.778 405.853L404.778 419.42" stroke="#000000" stroke-width="0.398" fill="none" /><path id="1113" transform="matrix(1 0 0 -1 0 792)" d="M463.801 405.853L463.801 419.42" stroke="#000000" stroke-width="0.398" fill="none" /><path id="1115" transform="matrix(1 0 0 -1 0 792)" d="M493.118 405.853L493.118 419.42" stroke="#000000" stroke-width="0.398" fill="none" /><path id="1116" transform="matrix(1 0 0 -1 0 792)" d="M153.204 405.654L493.317 405.654" stroke="#000000" stroke-width="0.398" fill="none" /><path id="1117" transform="matrix(1 0 0 -1 0 792)" d="M153.403 391.888L153.403 405.455" stroke="#000000" stroke-width="0.398" fill="none" /><path id="1123" transform="matrix(1 0 0 -1 0 792)" d="M190.065 396.169L193.054 396.169" stroke="#000000" stroke-width="0.398" fill="none" /><path id="1129" transform="matrix(1 0 0 -1 0 792)" d="M223.54 396.169L226.529 396.169" stroke="#000000" stroke-width="0.398" fill="none" /><path id="1133" transform="matrix(1 0 0 -1 0 792)" d="M245.059 396.169L248.048 396.169" stroke="#000000" stroke-width="0.398" fill="none" /><path id="1138" transform="matrix(1 0 0 -1 0 792)" d="M345.756 391.888L345.756 405.455" stroke="#000000" stroke-width="0.398" fill="none" /><path id="1140" transform="matrix(1 0 0 -1 0 792)" d="M404.778 391.888L404.778 405.455" stroke="#000000" stroke-width="0.398" fill="none" /><path id="1142" transform="matrix(1 0 0 -1 0 792)" d="M463.801 391.888L463.801 405.455" stroke="#000000" stroke-width="0.398" fill="none" /><path id="1144" transform="matrix(1 0 0 -1 0 792)" d="M493.118 391.888L493.118 405.455" stroke="#000000" stroke-width="0.398" fill="none" /><path id="1145" transform="matrix(1 0 0 -1 0 792)" d="M153.204 391.689L493.317 391.689" stroke="#000000" stroke-width="0.398" fill="none" /><path id="1146" transform="matrix(1 0 0 -1 0 792)" d="M153.403 377.923L153.403 391.49" stroke="#000000" stroke-width="0.398" fill="none" /><path id="1152" transform="matrix(1 0 0 -1 0 792)" d="M190.065 382.204L193.054 382.204" stroke="#000000" stroke-width="0.398" fill="none" /><path id="1158" transform="matrix(1 0 0 -1 0 792)" d="M223.54 382.204L226.529 382.204" stroke="#000000" stroke-width="0.398" fill="none" /><path id="1164" transform="matrix(1 0 0 -1 0 792)" d="M257.014 382.204L260.003 382.204" stroke="#000000" stroke-width="0.398" fill="none" /><path id="1172" transform="matrix(1 0 0 -1 0 792)" d="M345.756 377.923L345.756 391.49" stroke="#000000" stroke-width="0.398" fill="none" /><path id="1174" transform="matrix(1 0 0 -1 0 792)" d="M404.778 377.923L404.778 391.49" stroke="#000000" stroke-width="0.398" fill="none" /><path id="1176" transform="matrix(1 0 0 -1 0 792)" d="M463.801 377.923L463.801 391.49" stroke="#000000" stroke-width="0.398" fill="none" /><path id="1178" transform="matrix(1 0 0 -1 0 792)" d="M493.118 377.923L493.118 391.49" stroke="#000000" stroke-width="0.398" fill="none" /><path id="1179" transform="matrix(1 0 0 -1 0 792)" d="M153.204 377.723L493.317 377.723" stroke="#000000" stroke-width="0.398" fill="none" /><path id="1180" transform="matrix(1 0 0 -1 0 792)" d="M153.403 363.957L153.403 377.524" stroke="#000000" stroke-width="0.398" fill="none" /><path id="1196" transform="matrix(1 0 0 -1 0 792)" d="M345.756 363.957L345.756 377.524" stroke="#000000" stroke-width="0.398" fill="none" /><path id="1198" transform="matrix(1 0 0 -1 0 792)" d="M404.778 363.957L404.778 377.524" stroke="#000000" stroke-width="0.398" fill="none" /><path id="1200" transform="matrix(1 0 0 -1 0 792)" d="M463.801 363.957L463.801 377.524" stroke="#000000" stroke-width="0.398" fill="none" /><path id="1202" transform="matrix(1 0 0 -1 0 792)" d="M493.118 363.957L493.118 377.524" stroke="#000000" stroke-width="0.398" fill="none" /><path id="1203" transform="matrix(1 0 0 -1 0 792)" d="M153.204 363.758L493.317 363.758" stroke="#000000" stroke-width="0.398" fill="none" /><path id="1204" transform="matrix(1 0 0 -1 0 792)" d="M153.403 349.992L153.403 363.559" stroke="#000000" stroke-width="0.398" fill="none" /><path id="1220" transform="matrix(1 0 0 -1 0 792)" d="M345.756 349.992L345.756 363.559" stroke="#000000" stroke-width="0.398" fill="none" /><path id="1222" transform="matrix(1 0 0 -1 0 792)" d="M404.778 349.992L404.778 363.559" stroke="#000000" stroke-width="0.398" fill="none" /><path id="1224" transform="matrix(1 0 0 -1 0 792)" d="M463.801 349.992L463.801 363.559" stroke="#000000" stroke-width="0.398" fill="none" /><path id="1226" transform="matrix(1 0 0 -1 0 792)" d="M493.118 349.992L493.118 363.559" stroke="#000000" stroke-width="0.398" fill="none" /><path id="1227" transform="matrix(1 0 0 -1 0 792)" d="M153.204 349.793L493.317 349.793" stroke="#000000" stroke-width="0.398" fill="none" /><path id="1228" transform="matrix(1 0 0 -1 0 792)" d="M153.403 336.027L153.403 349.594" stroke="#000000" stroke-width="0.398" fill="none" /><path id="1245" transform="matrix(1 0 0 -1 0 792)" d="M345.756 336.027L345.756 349.594" stroke="#000000" stroke-width="0.398" fill="none" /><path id="1247" transform="matrix(1 0 0 -1 0 792)" d="M404.778 336.027L404.778 349.594" stroke="#000000" stroke-width="0.398" fill="none" /><path id="1249" transform="matrix(1 0 0 -1 0 792)" d="M463.801 336.027L463.801 349.594" stroke="#000000" stroke-width="0.398" fill="none" /><path id="1251" transform="matrix(1 0 0 -1 0 792)" d="M493.118 336.027L493.118 349.594" stroke="#000000" stroke-width="0.398" fill="none" /><path id="1252" transform="matrix(1 0 0 -1 0 792)" d="M153.204 335.828L493.317 335.828" stroke="#000000" stroke-width="0.398" fill="none" /><path id="1253" transform="matrix(1 0 0 -1 0 792)" d="M153.403 322.062L153.403 335.629" stroke="#000000" stroke-width="0.398" fill="none" /><path id="1270" transform="matrix(1 0 0 -1 0 792)" d="M345.756 322.062L345.756 335.629" stroke="#000000" stroke-width="0.398" fill="none" /><path id="1272" transform="matrix(1 0 0 -1 0 792)" d="M404.778 322.062L404.778 335.629" stroke="#000000" stroke-width="0.398" fill="none" /><path id="1274" transform="matrix(1 0 0 -1 0 792)" d="M463.801 322.062L463.801 335.629" stroke="#000000" stroke-width="0.398" fill="none" /><path id="1276" transform="matrix(1 0 0 -1 0 792)" d="M493.118 322.062L493.118 335.629" stroke="#000000" stroke-width="0.398" fill="none" /><path id="1277" transform="matrix(1 0 0 -1 0 792)" d="M153.204 321.863L493.317 321.863" stroke="#000000" stroke-width="0.398" fill="none" /><path id="1278" transform="matrix(1 0 0 -1 0 792)" d="M153.403 308.097L153.403 321.664" stroke="#000000" stroke-width="0.398" fill="none" /><path id="1287" transform="matrix(1 0 0 -1 0 792)" d="M207.998 312.378L210.987 312.378" stroke="#000000" stroke-width="0.398" fill="none" /><path id="1299" transform="matrix(1 0 0 -1 0 792)" d="M345.756 308.097L345.756 321.664" stroke="#000000" stroke-width="0.398" fill="none" /><path id="1301" transform="matrix(1 0 0 -1 0 792)" d="M404.778 308.097L404.778 321.664" stroke="#000000" stroke-width="0.398" fill="none" /><path id="1303" transform="matrix(1 0 0 -1 0 792)" d="M463.801 308.097L463.801 321.664" stroke="#000000" stroke-width="0.398" fill="none" /><path id="1305" transform="matrix(1 0 0 -1 0 792)" d="M493.118 308.097L493.118 321.664" stroke="#000000" stroke-width="0.398" fill="none" /><path id="1306" transform="matrix(1 0 0 -1 0 792)" d="M153.204 307.898L493.317 307.898" stroke="#000000" stroke-width="0.398" fill="none" /><path id="1307" transform="matrix(1 0 0 -1 0 792)" d="M153.403 294.132L153.403 307.699" stroke="#000000" stroke-width="0.398" fill="none" /><path id="1314" transform="matrix(1 0 0 -1 0 792)" d="M196.043 298.413L199.032 298.413" stroke="#000000" stroke-width="0.398" fill="none" /><path id="1326" transform="matrix(1 0 0 -1 0 792)" d="M345.756 294.132L345.756 307.699" stroke="#000000" stroke-width="0.398" fill="none" /><path id="1328" transform="matrix(1 0 0 -1 0 792)" d="M404.778 294.132L404.778 307.699" stroke="#000000" stroke-width="0.398" fill="none" /><path id="1330" transform="matrix(1 0 0 -1 0 792)" d="M463.801 294.132L463.801 307.699" stroke="#000000" stroke-width="0.398" fill="none" /><path id="1332" transform="matrix(1 0 0 -1 0 792)" d="M493.118 294.132L493.118 307.699" stroke="#000000" stroke-width="0.398" fill="none" /><path id="1333" transform="matrix(1 0 0 -1 0 792)" d="M153.204 293.932L493.317 293.932" stroke="#000000" stroke-width="0.398" fill="none" /><path id="1334" transform="matrix(1 0 0 -1 0 792)" d="M153.403 280.167L153.403 293.734" stroke="#000000" stroke-width="0.398" fill="none" /><path id="1344" transform="matrix(1 0 0 -1 0 792)" d="M213.976 284.448L216.965 284.448" stroke="#000000" stroke-width="0.398" fill="none" /><path id="1356" transform="matrix(1 0 0 -1 0 792)" d="M345.756 280.167L345.756 293.734" stroke="#000000" stroke-width="0.398" fill="none" /><path id="1358" transform="matrix(1 0 0 -1 0 792)" d="M404.778 280.167L404.778 293.734" stroke="#000000" stroke-width="0.398" fill="none" /><path id="1360" transform="matrix(1 0 0 -1 0 792)" d="M463.801 280.167L463.801 293.734" stroke="#000000" stroke-width="0.398" fill="none" /><path id="1362" transform="matrix(1 0 0 -1 0 792)" d="M493.118 280.167L493.118 293.734" stroke="#000000" stroke-width="0.398" fill="none" /><path id="1363" transform="matrix(1 0 0 -1 0 792)" d="M153.204 279.967L493.317 279.967" stroke="#000000" stroke-width="0.398" fill="none" /><path id="1364" transform="matrix(1 0 0 -1 0 792)" d="M153.403 266.201L153.403 279.768" stroke="#000000" stroke-width="0.398" fill="none" /><path id="1369" transform="matrix(1 0 0 -1 0 792)" d="M184.088 270.483L187.077 270.483" stroke="#000000" stroke-width="0.398" fill="none" /><path id="1379" transform="matrix(1 0 0 -1 0 792)" d="M345.756 266.201L345.756 279.768" stroke="#000000" stroke-width="0.398" fill="none" /><path id="1381" transform="matrix(1 0 0 -1 0 792)" d="M404.778 266.201L404.778 279.768" stroke="#000000" stroke-width="0.398" fill="none" /><path id="1383" transform="matrix(1 0 0 -1 0 792)" d="M463.801 266.201L463.801 279.768" stroke="#000000" stroke-width="0.398" fill="none" /><path id="1385" transform="matrix(1 0 0 -1 0 792)" d="M493.118 266.201L493.118 279.768" stroke="#000000" stroke-width="0.398" fill="none" /><path id="1386" transform="matrix(1 0 0 -1 0 792)" d="M153.204 266.002L493.317 266.002" stroke="#000000" stroke-width="0.398" fill="none" /><path id="1387" transform="matrix(1 0 0 -1 0 792)" d="M153.403 252.236L153.403 265.803" stroke="#000000" stroke-width="0.398" fill="none" /><path id="1392" transform="matrix(1 0 0 -1 0 792)" d="M184.088 256.518L187.077 256.518" stroke="#000000" stroke-width="0.398" fill="none" /><path id="1401" transform="matrix(1 0 0 -1 0 792)" d="M345.756 252.236L345.756 265.803" stroke="#000000" stroke-width="0.398" fill="none" /><path id="1403" transform="matrix(1 0 0 -1 0 792)" d="M404.778 252.236L404.778 265.803" stroke="#000000" stroke-width="0.398" fill="none" /><path id="1405" transform="matrix(1 0 0 -1 0 792)" d="M463.801 252.236L463.801 265.803" stroke="#000000" stroke-width="0.398" fill="none" /><path id="1407" transform="matrix(1 0 0 -1 0 792)" d="M493.118 252.236L493.118 265.803" stroke="#000000" stroke-width="0.398" fill="none" /><path id="1408" transform="matrix(1 0 0 -1 0 792)" d="M153.204 252.037L493.317 252.037" stroke="#000000" stroke-width="0.398" fill="none" /><path id="1409" transform="matrix(1 0 0 -1 0 792)" d="M153.403 238.271L153.403 251.838" stroke="#000000" stroke-width="0.398" fill="none" /><path id="1414" transform="matrix(1 0 0 -1 0 792)" d="M184.088 242.553L187.077 242.553" stroke="#000000" stroke-width="0.398" fill="none" /><path id="1421" transform="matrix(1 0 0 -1 0 792)" d="M345.756 238.271L345.756 251.838" stroke="#000000" stroke-width="0.398" fill="none" /><path id="1423" transform="matrix(1 0 0 -1 0 792)" d="M404.778 238.271L404.778 251.838" stroke="#000000" stroke-width="0.398" fill="none" /><path id="1425" transform="matrix(1 0 0 -1 0 792)" d="M463.801 238.271L463.801 251.838" stroke="#000000" stroke-width="0.398" fill="none" /><path id="1427" transform="matrix(1 0 0 -1 0 792)" d="M493.118 238.271L493.118 251.838" stroke="#000000" stroke-width="0.398" fill="none" /><path id="1428" transform="matrix(1 0 0 -1 0 792)" d="M153.204 238.072L493.317 238.072" stroke="#000000" stroke-width="0.398" fill="none" /><path id="1429" transform="matrix(1 0 0 -1 0 792)" d="M153.403 224.306L153.403 237.873" stroke="#000000" stroke-width="0.398" fill="none" /><path id="1440" transform="matrix(1 0 0 -1 0 792)" d="M345.756 224.306L345.756 237.873" stroke="#000000" stroke-width="0.398" fill="none" /><path id="1442" transform="matrix(1 0 0 -1 0 792)" d="M404.778 224.306L404.778 237.873" stroke="#000000" stroke-width="0.398" fill="none" /><path id="1444" transform="matrix(1 0 0 -1 0 792)" d="M463.801 224.306L463.801 237.873" stroke="#000000" stroke-width="0.398" fill="none" /><path id="1446" transform="matrix(1 0 0 -1 0 792)" d="M493.118 224.306L493.118 237.873" stroke="#000000" stroke-width="0.398" fill="none" /><path id="1447" transform="matrix(1 0 0 -1 0 792)" d="M153.204 224.107L493.317 224.107" stroke="#000000" stroke-width="0.398" fill="none" /><path id="1448" transform="matrix(1 0 0 -1 0 792)" d="M153.403 210.341L153.403 223.908" stroke="#000000" stroke-width="0.398" fill="none" /><path id="1454" transform="matrix(1 0 0 -1 0 792)" d="M190.065 214.622L193.054 214.622" stroke="#000000" stroke-width="0.398" fill="none" /><path id="1462" transform="matrix(1 0 0 -1 0 792)" d="M345.756 210.341L345.756 223.908" stroke="#000000" stroke-width="0.398" fill="none" /><path id="1464" transform="matrix(1 0 0 -1 0 792)" d="M404.778 210.341L404.778 223.908" stroke="#000000" stroke-width="0.398" fill="none" /><path id="1466" transform="matrix(1 0 0 -1 0 792)" d="M463.801 210.341L463.801 223.908" stroke="#000000" stroke-width="0.398" fill="none" /><path id="1468" transform="matrix(1 0 0 -1 0 792)" d="M493.118 210.341L493.118 223.908" stroke="#000000" stroke-width="0.398" fill="none" /><path id="1469" transform="matrix(1 0 0 -1 0 792)" d="M153.204 210.142L493.317 210.142" stroke="#000000" stroke-width="0.398" fill="none" /></g></g></svg>