<svg xmlns="http://www.w3.org/2000/svg" xmlns:xlink="http://www.w3.org/1999/xlink" id="body_51" preserveAspectRatio="xMinYMin meet" viewBox="0 0 1632 1056"><defs><clipPath id="1"><path id="" clip-rule="evenodd" transform="matrix(1 0 0 1 0 0)" d="M0 792L0 0L0 0L1224 0L1224 0L1224 792L1224 792L0 792z" /></clipPath></defs><g transform="matrix(1.333333 0 0 1.333333 0 0)"><g clip-path="url(#1)"><path id="99" transform="matrix(1 0 0 -1 0 792)" d="M781.001 375.81L783.99 375.81" stroke="#000000" stroke-width="0.398" fill="none" /><path id="100" transform="matrix(1 0 0 -1 0 792)" d="M832.408 375.81L835.397 375.81" stroke="#000000" stroke-width="0.398" fill="none" /><path id="195" transform="matrix(1 0 0 -1 0 792)" d="M782.77 238.3L1087.75 238.3" stroke="#000000" stroke-width="0.398" fill="none" /><path id="196" transform="matrix(1 0 0 -1 0 792)" d="M782.77 238.3L1087.75 238.3" stroke="#000000" stroke-width="0.398" fill="none" /><path id="197" transform="matrix(1 0 0 -1 0 792)" d="M782.97 224.552L782.97 238.101" stroke="#000000" stroke-width="0.398" fill="none" /><path id="198" transform="matrix(1 0 0 -1 0 792)" d="M783.169 224.552L933.804 224.552L933.804 238.101L783.169 238.101z" stroke="none" fill="#CCCCEB" fill-rule="nonzero" /><path id="206" transform="matrix(1 0 0 -1 0 792)" d="M934.003 224.552L934.003 238.101" stroke="#000000" stroke-width="0.398" fill="none" /><path id="207" transform="matrix(1 0 0 -1 0 792)" d="M934.203 224.552L1087.352 224.552L1087.352 238.101L934.203 238.101z" stroke="none" fill="#CCCCEB" fill-rule="nonzero" /><path id="208" transform="matrix(1 0 0 -1 0 792)" d="M1087.551 224.552L1087.551 238.101" stroke="#000000" stroke-width="0.398" fill="none" /><path id="209" transform="matrix(1 0 0 -1 0 792)" d="M782.77 224.353L1087.75 224.353" stroke="#000000" stroke-width="0.398" fill="none" /><path id="210" transform="matrix(1 0 0 -1 0 792)" d="M782.77 224.353L1087.75 224.353" stroke="#000000" stroke-width="0.398" fill="none" /><path id="211" transform="matrix(1 0 0 -1 0 792)" d="M782.97 210.604L782.97 224.153" stroke="#000000" stroke-width="0.398" fill="none" /><path id="218" transform="matrix(1 0 0 -1 0 792)" d="M934.003 210.604L934.003 224.153" stroke="#000000" stroke-width="0.398" fill="none" /><path id="238" transform="matrix(1 0 0 -1 0 792)" d="M1087.551 210.604L1087.551 224.153" stroke="#000000" stroke-width="0.398" fill="none" /><path id="239" transform="matrix(1 0 0 -1 0 792)" d="M782.77 210.405L1087.75 210.405" stroke="#000000" stroke-width="0.398" fill="none" /><path id="240" transform="matrix(1 0 0 -1 0 792)" d="M782.77 210.405L1087.75 210.405" stroke="#000000" stroke-width="0.398" fill="none" /><path id="241" transform="matrix(1 0 0 -1 0 792)" d="M782.97 196.657L782.97 210.206" stroke="#000000" stroke-width="0.398" fill="none" /><path id="250" transform="matrix(1 0 0 -1 0 792)" d="M934.003 196.657L934.003 210.206" stroke="#000000" stroke-width="0.398" fill="none" /><path id="270" transform="matrix(1 0 0 -1 0 792)" d="M1087.551 196.657L1087.551 210.206" stroke="#000000" stroke-width="0.398" fill="none" /><path id="271" transform="matrix(1 0 0 -1 0 792)" d="M782.77 196.457L1087.75 196.457" stroke="#000000" stroke-width="0.398" fill="none" /><path id="272" transform="matrix(1 0 0 -1 0 792)" d="M782.77 196.457L1087.75 196.457" stroke="#000000" stroke-width="0.398" fill="none" /><path id="273" transform="matrix(1 0 0 -1 0 792)" d="M782.97 182.709L782.97 196.258" stroke="#000000" stroke-width="0.398" fill="none" /><path id="281" transform="matrix(1 0 0 -1 0 792)" d="M934.003 182.709L934.003 196.258" stroke="#000000" stroke-width="0.398" fill="none" /><path id="295" transform="matrix(1 0 0 -1 0 792)" d="M1087.551 182.709L1087.551 196.258" stroke="#000000" stroke-width="0.398" fill="none" /><path id="296" transform="matrix(1 0 0 -1 0 792)" d="M782.77 182.51L1087.75 182.51" stroke="#000000" stroke-width="0.398" fill="none" /><path id="297" transform="matrix(1 0 0 -1 0 792)" d="M782.77 182.51L1087.75 182.51" stroke="#000000" stroke-width="0.398" fill="none" /><path id="298" transform="matrix(1 0 0 -1 0 792)" d="M782.97 168.761L782.97 182.31" stroke="#000000" stroke-width="0.398" fill="none" /><path id="306" transform="matrix(1 0 0 -1 0 792)" d="M831.587 173.025L834.576 173.025" stroke="#000000" stroke-width="0.398" fill="none" /><path id="315" transform="matrix(1 0 0 -1 0 792)" d="M882.995 173.025L885.984 173.025" stroke="#000000" stroke-width="0.398" fill="none" /><path id="323" transform="matrix(1 0 0 -1 0 792)" d="M934.003 168.761L934.003 182.31" stroke="#000000" stroke-width="0.398" fill="none" /><path id="344" transform="matrix(1 0 0 -1 0 792)" d="M1087.551 168.761L1087.551 182.31" stroke="#000000" stroke-width="0.398" fill="none" /><path id="345" transform="matrix(1 0 0 -1 0 792)" d="M782.77 168.562L1087.75 168.562" stroke="#000000" stroke-width="0.398" fill="none" /><path id="346" transform="matrix(1 0 0 -1 0 792)" d="M782.77 168.562L1087.75 168.562" stroke="#000000" stroke-width="0.398" fill="none" /><path id="347" transform="matrix(1 0 0 -1 0 792)" d="M782.97 154.813L782.97 168.362" stroke="#000000" stroke-width="0.398" fill="none" /><path id="358" transform="matrix(1 0 0 -1 0 792)" d="M934.003 154.813L934.003 168.362" stroke="#000000" stroke-width="0.398" fill="none" /><path id="378" transform="matrix(1 0 0 -1 0 792)" d="M1087.551 154.813L1087.551 168.362" stroke="#000000" stroke-width="0.398" fill="none" /><path id="379" transform="matrix(1 0 0 -1 0 792)" d="M782.77 154.614L1087.75 154.614" stroke="#000000" stroke-width="0.398" fill="none" /><path id="380" transform="matrix(1 0 0 -1 0 792)" d="M782.77 154.614L1087.75 154.614" stroke="#000000" stroke-width="0.398" fill="none" /><path id="403" transform="matrix(1 0 0 -1 0 792)" d="M701.933 552.679L962.867 552.679L962.867 552.679L962.867 584.927L962.867 584.927L701.933 584.927z" stroke="#FFFFFF" stroke-width="1" fill="#FFFFFF" fill-rule="nonzero" /><path id="409" transform="matrix(1 0 0 -1 0 792)" d="M701.933 448.344L1168.591 448.344L1168.591 448.344L1168.591 488.5875L1168.591 488.5875L701.933 488.5875z" stroke="#FFFFFF" stroke-width="1" fill="#FFFFFF" fill-rule="nonzero" /><path id="476" transform="matrix(1 0 0 -1 0 792)" d="M718.869 434.463L1022.769 434.463L1022.769 434.463L1022.769 447.9403L1022.769 447.9403L718.869 447.9403z" stroke="#FFFFFF" stroke-width="1" fill="#FFFFFF" fill-rule="nonzero" /><path id="502" transform="matrix(1 0 0 -1 0 792)" d="M718.869 414.044L903.774 414.044L903.774 414.044L903.774 427.1895L903.774 427.1895L718.869 427.1895z" stroke="#FFFFFF" stroke-width="1" fill="#FFFFFF" fill-rule="nonzero" /><path id="519" transform="matrix(1 0 0 -1 0 792)" d="M718.869 372.546L1000.611 372.546L1000.611 372.546L1000.611 385.6915L1000.611 385.6915L718.869 385.6915z" stroke="#FFFFFF" stroke-width="1" fill="#FFFFFF" fill-rule="nonzero" /><path id="551" transform="matrix(1 0 0 -1 0 792)" d="M718.869 317.497L1168.586 317.497L1168.586 317.497L1168.586 330.6425L1168.586 330.6425L718.869 330.6425z" stroke="#FFFFFF" stroke-width="1" fill="#FFFFFF" fill-rule="nonzero" /><path id="575" transform="matrix(1 0 0 -1 0 792)" d="M701.933 276.849L1168.591 276.849L1168.591 276.849L1168.591 317.0925L1168.591 317.0925L701.933 317.0925z" stroke="#FFFFFF" stroke-width="1" fill="#FFFFFF" fill-rule="nonzero" /><path id="655" transform="matrix(1 0 0 -1 0 792)" d="M718.869 263.301L1168.584 263.301L1168.584 263.301L1168.584 276.4465L1168.584 276.4465L718.869 276.4465z" stroke="#FFFFFF" stroke-width="1" fill="#FFFFFF" fill-rule="nonzero" /><path id="687" transform="matrix(1 0 0 -1 0 792)" d="M701.933 249.75L951.223 249.75L951.223 249.75L951.223 262.8955L951.223 262.8955L701.933 262.8955z" stroke="#FFFFFF" stroke-width="1" fill="#FFFFFF" fill-rule="nonzero" /><path id="1157" transform="matrix(1 0 0 -1 0 792)" d="M169.001 375.81L171.99 375.81" stroke="#000000" stroke-width="0.398" fill="none" /><path id="1166" transform="matrix(1 0 0 -1 0 792)" d="M220.408 375.81L223.397 375.81" stroke="#000000" stroke-width="0.398" fill="none" /><path id="1715" transform="matrix(1 0 0 -1 0 792)" d="M170.77 238.3L475.75 238.3" stroke="#000000" stroke-width="0.398" fill="none" /><path id="1716" transform="matrix(1 0 0 -1 0 792)" d="M170.77 238.3L475.75 238.3" stroke="#000000" stroke-width="0.398" fill="none" /><path id="1717" transform="matrix(1 0 0 -1 0 792)" d="M170.97 224.552L170.97 238.101" stroke="#000000" stroke-width="0.398" fill="none" /><path id="1718" transform="matrix(1 0 0 -1 0 792)" d="M171.169 224.552L321.804 224.552L321.804 238.101L171.169 238.101z" stroke="none" fill="#CCCCEB" fill-rule="nonzero" /><path id="1726" transform="matrix(1 0 0 -1 0 792)" d="M322.003 224.552L322.003 238.101" stroke="#000000" stroke-width="0.398" fill="none" /><path id="1727" transform="matrix(1 0 0 -1 0 792)" d="M322.203 224.552L475.352 224.552L475.352 238.101L322.203 238.101z" stroke="none" fill="#CCCCEB" fill-rule="nonzero" /><path id="1728" transform="matrix(1 0 0 -1 0 792)" d="M475.551 224.552L475.551 238.101" stroke="#000000" stroke-width="0.398" fill="none" /><path id="1729" transform="matrix(1 0 0 -1 0 792)" d="M170.77 224.353L475.75 224.353" stroke="#000000" stroke-width="0.398" fill="none" /><path id="1730" transform="matrix(1 0 0 -1 0 792)" d="M170.77 224.353L475.75 224.353" stroke="#000000" stroke-width="0.398" fill="none" /><path id="1731" transform="matrix(1 0 0 -1 0 792)" d="M170.97 210.604L170.97 224.153" stroke="#000000" stroke-width="0.398" fill="none" /><path id="1738" transform="matrix(1 0 0 -1 0 792)" d="M322.003 210.604L322.003 224.153" stroke="#000000" stroke-width="0.398" fill="none" /><path id="1758" transform="matrix(1 0 0 -1 0 792)" d="M475.551 210.604L475.551 224.153" stroke="#000000" stroke-width="0.398" fill="none" /><path id="1759" transform="matrix(1 0 0 -1 0 792)" d="M170.77 210.405L475.75 210.405" stroke="#000000" stroke-width="0.398" fill="none" /><path id="1760" transform="matrix(1 0 0 -1 0 792)" d="M170.77 210.405L475.75 210.405" stroke="#000000" stroke-width="0.398" fill="none" /><path id="1761" transform="matrix(1 0 0 -1 0 792)" d="M170.97 196.657L170.97 210.206" stroke="#000000" stroke-width="0.398" fill="none" /><path id="1770" transform="matrix(1 0 0 -1 0 792)" d="M322.003 196.657L322.003 210.206" stroke="#000000" stroke-width="0.398" fill="none" /><path id="1790" transform="matrix(1 0 0 -1 0 792)" d="M475.551 196.657L475.551 210.206" stroke="#000000" stroke-width="0.398" fill="none" /><path id="1791" transform="matrix(1 0 0 -1 0 792)" d="M170.77 196.457L475.75 196.457" stroke="#000000" stroke-width="0.398" fill="none" /><path id="1792" transform="matrix(1 0 0 -1 0 792)" d="M170.77 196.457L475.75 196.457" stroke="#000000" stroke-width="0.398" fill="none" /><path id="1793" transform="matrix(1 0 0 -1 0 792)" d="M170.97 182.709L170.97 196.258" stroke="#000000" stroke-width="0.398" fill="none" /><path id="1801" transform="matrix(1 0 0 -1 0 792)" d="M322.003 182.709L322.003 196.258" stroke="#000000" stroke-width="0.398" fill="none" /><path id="1815" transform="matrix(1 0 0 -1 0 792)" d="M475.551 182.709L475.551 196.258" stroke="#000000" stroke-width="0.398" fill="none" /><path id="1816" transform="matrix(1 0 0 -1 0 792)" d="M170.77 182.51L475.75 182.51" stroke="#000000" stroke-width="0.398" fill="none" /><path id="1817" transform="matrix(1 0 0 -1 0 792)" d="M170.77 182.51L475.75 182.51" stroke="#000000" stroke-width="0.398" fill="none" /><path id="1818" transform="matrix(1 0 0 -1 0 792)" d="M170.97 168.761L170.97 182.31" stroke="#000000" stroke-width="0.398" fill="none" /><path id="1826" transform="matrix(1 0 0 -1 0 792)" d="M219.587 173.025L222.576 173.025" stroke="#000000" stroke-width="0.398" fill="none" /><path id="1835" transform="matrix(1 0 0 -1 0 792)" d="M270.995 173.025L273.984 173.025" stroke="#000000" stroke-width="0.398" fill="none" /><path id="1843" transform="matrix(1 0 0 -1 0 792)" d="M322.003 168.761L322.003 182.31" stroke="#000000" stroke-width="0.398" fill="none" /><path id="1864" transform="matrix(1 0 0 -1 0 792)" d="M475.551 168.761L475.551 182.31" stroke="#000000" stroke-width="0.398" fill="none" /><path id="1865" transform="matrix(1 0 0 -1 0 792)" d="M170.77 168.562L475.75 168.562" stroke="#000000" stroke-width="0.398" fill="none" /><path id="1866" transform="matrix(1 0 0 -1 0 792)" d="M170.77 168.562L475.75 168.562" stroke="#000000" stroke-width="0.398" fill="none" /><path id="1867" transform="matrix(1 0 0 -1 0 792)" d="M170.97 154.813L170.97 168.362" stroke="#000000" stroke-width="0.398" fill="none" /><path id="1878" transform="matrix(1 0 0 -1 0 792)" d="M322.003 154.813L322.003 168.362" stroke="#000000" stroke-width="0.398" fill="none" /><path id="1898" transform="matrix(1 0 0 -1 0 792)" d="M475.551 154.813L475.551 168.362" stroke="#000000" stroke-width="0.398" fill="none" /><path id="1899" transform="matrix(1 0 0 -1 0 792)" d="M170.77 154.614L475.75 154.614" stroke="#000000" stroke-width="0.398" fill="none" /><path id="1900" transform="matrix(1 0 0 -1 0 792)" d="M170.77 154.614L475.75 154.614" stroke="#000000" stroke-width="0.398" fill="none" /></g></g></svg>