<svg xmlns="http://www.w3.org/2000/svg" xmlns:xlink="http://www.w3.org/1999/xlink" id="body_57" preserveAspectRatio="xMinYMin meet" viewBox="0 0 1632 1056"><defs><clipPath id="1"><path id="" clip-rule="evenodd" transform="matrix(1 0 0 1 0 0)" d="M0 792L0 0L0 0L1224 0L1224 0L1224 792L1224 792L0 792z" /></clipPath></defs><g transform="matrix(1.333333 0 0 1.333333 0 0)"><g clip-path="url(#1)"><path id="1" transform="matrix(1 0 0 -1 0 792)" d="M701.933 721.28L1168.588 721.28" stroke="#000000" stroke-width="0.498" fill="none" /><path id="2" transform="matrix(1 0 0 -1 0 792)" d="M718.3 664.414L1152.22 664.414" stroke="#000000" stroke-width="0.398" fill="none" /><path id="3" transform="matrix(1 0 0 -1 0 792)" d="M718.5 650.648L718.5 664.215" stroke="#000000" stroke-width="0.398" fill="none" /><path id="4" transform="matrix(1 0 0 -1 0 792)" d="M718.699 650.648L910.654 650.648L910.654 664.215L718.699 664.215z" stroke="none" fill="#CCCCEB" fill-rule="nonzero" /><path id="10" transform="matrix(1 0 0 -1 0 792)" d="M910.853 650.648L910.853 664.215" stroke="#000000" stroke-width="0.398" fill="none" /><path id="11" transform="matrix(1 0 0 -1 0 792)" d="M911.053 650.648L969.677 650.648L969.677 664.215L911.053 664.215z" stroke="none" fill="#CCCCEB" fill-rule="nonzero" /><path id="21" transform="matrix(1 0 0 -1 0 792)" d="M969.875 650.648L969.875 664.215" stroke="#000000" stroke-width="0.398" fill="none" /><path id="22" transform="matrix(1 0 0 -1 0 792)" d="M970.075 650.648L1028.699 650.648L1028.699 664.215L970.075 664.215z" stroke="none" fill="#CCCCEB" fill-rule="nonzero" /><path id="30" transform="matrix(1 0 0 -1 0 792)" d="M1028.898 650.648L1028.898 664.215" stroke="#000000" stroke-width="0.398" fill="none" /><path id="31" transform="matrix(1 0 0 -1 0 792)" d="M1029.097 650.648L1151.822 650.648L1151.822 664.215L1029.097 664.215z" stroke="none" fill="#CCCCEB" fill-rule="nonzero" /><path id="35" transform="matrix(1 0 0 -1 0 792)" d="M1152.021 650.648L1152.021 664.215" stroke="#000000" stroke-width="0.398" fill="none" /><path id="36" transform="matrix(1 0 0 -1 0 792)" d="M718.5 637.082L718.5 650.649" stroke="#000000" stroke-width="0.398" fill="none" /><path id="37" transform="matrix(1 0 0 -1 0 792)" d="M718.699 637.082L910.654 637.082L910.654 650.649L718.699 650.649z" stroke="none" fill="#CCCCEB" fill-rule="nonzero" /><path id="38" transform="matrix(1 0 0 -1 0 792)" d="M910.853 637.082L910.853 650.649" stroke="#000000" stroke-width="0.398" fill="none" /><path id="39" transform="matrix(1 0 0 -1 0 792)" d="M911.053 637.082L969.677 637.082L969.677 650.649L911.053 650.649z" stroke="none" fill="#CCCCEB" fill-rule="nonzero" /><path id="40" transform="matrix(1 0 0 -1 0 792)" d="M969.875 637.082L969.875 650.649" stroke="#000000" stroke-width="0.398" fill="none" /><path id="41" transform="matrix(1 0 0 -1 0 792)" d="M970.075 637.082L1028.699 637.082L1028.699 650.649L970.075 650.649z" stroke="none" fill="#CCCCEB" fill-rule="nonzero" /><path id="47" transform="matrix(1 0 0 -1 0 792)" d="M1028.898 637.082L1028.898 650.649" stroke="#000000" stroke-width="0.398" fill="none" /><path id="48" transform="matrix(1 0 0 -1 0 792)" d="M1029.097 637.082L1151.822 637.082L1151.822 650.649L1029.097 650.649z" stroke="none" fill="#CCCCEB" fill-rule="nonzero" /><path id="49" transform="matrix(1 0 0 -1 0 792)" d="M1152.021 637.082L1152.021 650.649" stroke="#000000" stroke-width="0.398" fill="none" /><path id="50" transform="matrix(1 0 0 -1 0 792)" d="M718.3 636.882L1152.22 636.882" stroke="#000000" stroke-width="0.398" fill="none" /><path id="51" transform="matrix(1 0 0 -1 0 792)" d="M718.3 634.491L1152.22 634.491" stroke="#000000" stroke-width="0.398" fill="none" /><path id="52" transform="matrix(1 0 0 -1 0 792)" d="M718.5 620.725L718.5 634.292" stroke="#000000" stroke-width="0.398" fill="none" /><path id="59" transform="matrix(1 0 0 -1 0 792)" d="M761.14 625.007L764.129 625.007" stroke="#000000" stroke-width="0.398" fill="none" /><path id="66" transform="matrix(1 0 0 -1 0 792)" d="M800.592 625.007L803.581 625.007" stroke="#000000" stroke-width="0.398" fill="none" /><path id="72" transform="matrix(1 0 0 -1 0 792)" d="M834.066 625.007L837.055 625.007" stroke="#000000" stroke-width="0.398" fill="none" /><path id="80" transform="matrix(1 0 0 -1 0 792)" d="M910.853 620.725L910.853 634.292" stroke="#000000" stroke-width="0.398" fill="none" /><path id="82" transform="matrix(1 0 0 -1 0 792)" d="M969.875 620.725L969.875 634.292" stroke="#000000" stroke-width="0.398" fill="none" /><path id="88" transform="matrix(1 0 0 -1 0 792)" d="M1028.898 620.725L1028.898 634.292" stroke="#000000" stroke-width="0.398" fill="none" /><path id="104" transform="matrix(1 0 0 -1 0 792)" d="M1152.021 620.725L1152.021 634.292" stroke="#000000" stroke-width="0.398" fill="none" /><path id="105" transform="matrix(1 0 0 -1 0 792)" d="M718.3 620.526L1152.22 620.526" stroke="#000000" stroke-width="0.398" fill="none" /><path id="106" transform="matrix(1 0 0 -1 0 792)" d="M718.5 606.76L718.5 620.327" stroke="#000000" stroke-width="0.398" fill="none" /><path id="113" transform="matrix(1 0 0 -1 0 792)" d="M761.14 611.042L764.129 611.042" stroke="#000000" stroke-width="0.398" fill="none" /><path id="120" transform="matrix(1 0 0 -1 0 792)" d="M800.592 611.042L803.581 611.042" stroke="#000000" stroke-width="0.398" fill="none" /><path id="126" transform="matrix(1 0 0 -1 0 792)" d="M834.066 611.042L837.055 611.042" stroke="#000000" stroke-width="0.398" fill="none" /><path id="131" transform="matrix(1 0 0 -1 0 792)" d="M910.853 606.76L910.853 620.327" stroke="#000000" stroke-width="0.398" fill="none" /><path id="133" transform="matrix(1 0 0 -1 0 792)" d="M969.875 606.76L969.875 620.327" stroke="#000000" stroke-width="0.398" fill="none" /><path id="135" transform="matrix(1 0 0 -1 0 792)" d="M1028.898 606.76L1028.898 620.327" stroke="#000000" stroke-width="0.398" fill="none" /><path id="151" transform="matrix(1 0 0 -1 0 792)" d="M1152.021 606.76L1152.021 620.327" stroke="#000000" stroke-width="0.398" fill="none" /><path id="152" transform="matrix(1 0 0 -1 0 792)" d="M718.3 606.561L1152.22 606.561" stroke="#000000" stroke-width="0.398" fill="none" /><path id="153" transform="matrix(1 0 0 -1 0 792)" d="M718.5 592.795L718.5 606.362" stroke="#000000" stroke-width="0.398" fill="none" /><path id="160" transform="matrix(1 0 0 -1 0 792)" d="M761.14 597.077L764.129 597.077" stroke="#000000" stroke-width="0.398" fill="none" /><path id="167" transform="matrix(1 0 0 -1 0 792)" d="M800.592 597.077L803.581 597.077" stroke="#000000" stroke-width="0.398" fill="none" /><path id="173" transform="matrix(1 0 0 -1 0 792)" d="M834.066 597.077L837.055 597.077" stroke="#000000" stroke-width="0.398" fill="none" /><path id="180" transform="matrix(1 0 0 -1 0 792)" d="M910.853 592.795L910.853 606.362" stroke="#000000" stroke-width="0.398" fill="none" /><path id="182" transform="matrix(1 0 0 -1 0 792)" d="M969.875 592.795L969.875 606.362" stroke="#000000" stroke-width="0.398" fill="none" /><path id="184" transform="matrix(1 0 0 -1 0 792)" d="M1028.898 592.795L1028.898 606.362" stroke="#000000" stroke-width="0.398" fill="none" /><path id="200" transform="matrix(1 0 0 -1 0 792)" d="M1152.021 592.795L1152.021 606.362" stroke="#000000" stroke-width="0.398" fill="none" /><path id="201" transform="matrix(1 0 0 -1 0 792)" d="M718.3 592.596L1152.22 592.596" stroke="#000000" stroke-width="0.398" fill="none" /><path id="202" transform="matrix(1 0 0 -1 0 792)" d="M718.5 578.83L718.5 592.397" stroke="#000000" stroke-width="0.398" fill="none" /><path id="209" transform="matrix(1 0 0 -1 0 792)" d="M761.14 583.111L764.129 583.111" stroke="#000000" stroke-width="0.398" fill="none" /><path id="216" transform="matrix(1 0 0 -1 0 792)" d="M800.592 583.111L803.581 583.111" stroke="#000000" stroke-width="0.398" fill="none" /><path id="222" transform="matrix(1 0 0 -1 0 792)" d="M834.066 583.111L837.055 583.111" stroke="#000000" stroke-width="0.398" fill="none" /><path id="227" transform="matrix(1 0 0 -1 0 792)" d="M910.853 578.83L910.853 592.397" stroke="#000000" stroke-width="0.398" fill="none" /><path id="229" transform="matrix(1 0 0 -1 0 792)" d="M969.875 578.83L969.875 592.397" stroke="#000000" stroke-width="0.398" fill="none" /><path id="235" transform="matrix(1 0 0 -1 0 792)" d="M1028.898 578.83L1028.898 592.397" stroke="#000000" stroke-width="0.398" fill="none" /><path id="251" transform="matrix(1 0 0 -1 0 792)" d="M1152.021 578.83L1152.021 592.397" stroke="#000000" stroke-width="0.398" fill="none" /><path id="252" transform="matrix(1 0 0 -1 0 792)" d="M718.3 578.631L1152.22 578.631" stroke="#000000" stroke-width="0.398" fill="none" /><path id="253" transform="matrix(1 0 0 -1 0 792)" d="M718.5 564.865L718.5 578.432" stroke="#000000" stroke-width="0.398" fill="none" /><path id="260" transform="matrix(1 0 0 -1 0 792)" d="M761.14 569.146L764.129 569.146" stroke="#000000" stroke-width="0.398" fill="none" /><path id="267" transform="matrix(1 0 0 -1 0 792)" d="M800.592 569.146L803.581 569.146" stroke="#000000" stroke-width="0.398" fill="none" /><path id="273" transform="matrix(1 0 0 -1 0 792)" d="M834.066 569.146L837.055 569.146" stroke="#000000" stroke-width="0.398" fill="none" /><path id="284" transform="matrix(1 0 0 -1 0 792)" d="M910.853 564.865L910.853 578.432" stroke="#000000" stroke-width="0.398" fill="none" /><path id="286" transform="matrix(1 0 0 -1 0 792)" d="M969.875 564.865L969.875 578.432" stroke="#000000" stroke-width="0.398" fill="none" /><path id="292" transform="matrix(1 0 0 -1 0 792)" d="M1028.898 564.865L1028.898 578.432" stroke="#000000" stroke-width="0.398" fill="none" /><path id="308" transform="matrix(1 0 0 -1 0 792)" d="M1152.021 564.865L1152.021 578.432" stroke="#000000" stroke-width="0.398" fill="none" /><path id="309" transform="matrix(1 0 0 -1 0 792)" d="M718.3 564.666L1152.22 564.666" stroke="#000000" stroke-width="0.398" fill="none" /><path id="310" transform="matrix(1 0 0 -1 0 792)" d="M718.5 550.9L718.5 564.467" stroke="#000000" stroke-width="0.398" fill="none" /><path id="317" transform="matrix(1 0 0 -1 0 792)" d="M761.14 555.181L764.129 555.181" stroke="#000000" stroke-width="0.398" fill="none" /><path id="324" transform="matrix(1 0 0 -1 0 792)" d="M800.592 555.181L803.581 555.181" stroke="#000000" stroke-width="0.398" fill="none" /><path id="330" transform="matrix(1 0 0 -1 0 792)" d="M834.066 555.181L837.055 555.181" stroke="#000000" stroke-width="0.398" fill="none" /><path id="338" transform="matrix(1 0 0 -1 0 792)" d="M910.853 550.9L910.853 564.467" stroke="#000000" stroke-width="0.398" fill="none" /><path id="340" transform="matrix(1 0 0 -1 0 792)" d="M969.875 550.9L969.875 564.467" stroke="#000000" stroke-width="0.398" fill="none" /><path id="345" transform="matrix(1 0 0 -1 0 792)" d="M1028.898 550.9L1028.898 564.467" stroke="#000000" stroke-width="0.398" fill="none" /><path id="368" transform="matrix(1 0 0 -1 0 792)" d="M1152.021 550.9L1152.021 564.467" stroke="#000000" stroke-width="0.398" fill="none" /><path id="369" transform="matrix(1 0 0 -1 0 792)" d="M718.3 550.7L1152.22 550.7" stroke="#000000" stroke-width="0.398" fill="none" /><path id="370" transform="matrix(1 0 0 -1 0 792)" d="M718.5 536.934L718.5 550.501" stroke="#000000" stroke-width="0.398" fill="none" /><path id="375" transform="matrix(1 0 0 -1 0 792)" d="M749.185 541.216L752.174 541.216" stroke="#000000" stroke-width="0.398" fill="none" /><path id="380" transform="matrix(1 0 0 -1 0 792)" d="M776.682 541.216L779.671 541.216" stroke="#000000" stroke-width="0.398" fill="none" /><path id="386" transform="matrix(1 0 0 -1 0 792)" d="M910.853 536.934L910.853 550.501" stroke="#000000" stroke-width="0.398" fill="none" /><path id="388" transform="matrix(1 0 0 -1 0 792)" d="M969.875 536.934L969.875 550.501" stroke="#000000" stroke-width="0.398" fill="none" /><path id="390" transform="matrix(1 0 0 -1 0 792)" d="M1028.898 536.934L1028.898 550.501" stroke="#000000" stroke-width="0.398" fill="none" /><path id="392" transform="matrix(1 0 0 -1 0 792)" d="M1152.021 536.934L1152.021 550.501" stroke="#000000" stroke-width="0.398" fill="none" /><path id="393" transform="matrix(1 0 0 -1 0 792)" d="M718.3 536.735L1152.22 536.735" stroke="#000000" stroke-width="0.398" fill="none" /><path id="394" transform="matrix(1 0 0 -1 0 792)" d="M718.5 522.969L718.5 536.536" stroke="#000000" stroke-width="0.398" fill="none" /><path id="399" transform="matrix(1 0 0 -1 0 792)" d="M749.185 527.251L752.174 527.251" stroke="#000000" stroke-width="0.398" fill="none" /><path id="404" transform="matrix(1 0 0 -1 0 792)" d="M776.682 527.251L779.671 527.251" stroke="#000000" stroke-width="0.398" fill="none" /><path id="410" transform="matrix(1 0 0 -1 0 792)" d="M810.156 527.251L813.145 527.251" stroke="#000000" stroke-width="0.398" fill="none" /><path id="417" transform="matrix(1 0 0 -1 0 792)" d="M910.853 522.969L910.853 536.536" stroke="#000000" stroke-width="0.398" fill="none" /><path id="419" transform="matrix(1 0 0 -1 0 792)" d="M969.875 522.969L969.875 536.536" stroke="#000000" stroke-width="0.398" fill="none" /><path id="421" transform="matrix(1 0 0 -1 0 792)" d="M1028.898 522.969L1028.898 536.536" stroke="#000000" stroke-width="0.398" fill="none" /><path id="423" transform="matrix(1 0 0 -1 0 792)" d="M1152.021 522.969L1152.021 536.536" stroke="#000000" stroke-width="0.398" fill="none" /><path id="424" transform="matrix(1 0 0 -1 0 792)" d="M718.3 522.77L1152.22 522.77" stroke="#000000" stroke-width="0.398" fill="none" /><path id="425" transform="matrix(1 0 0 -1 0 792)" d="M718.5 509.004L718.5 522.571" stroke="#000000" stroke-width="0.398" fill="none" /><path id="430" transform="matrix(1 0 0 -1 0 792)" d="M749.185 513.286L752.174 513.286" stroke="#000000" stroke-width="0.398" fill="none" /><path id="435" transform="matrix(1 0 0 -1 0 792)" d="M776.682 513.286L779.671 513.286" stroke="#000000" stroke-width="0.398" fill="none" /><path id="441" transform="matrix(1 0 0 -1 0 792)" d="M810.156 513.286L813.145 513.286" stroke="#000000" stroke-width="0.398" fill="none" /><path id="449" transform="matrix(1 0 0 -1 0 792)" d="M910.853 509.004L910.853 522.571" stroke="#000000" stroke-width="0.398" fill="none" /><path id="451" transform="matrix(1 0 0 -1 0 792)" d="M969.875 509.004L969.875 522.571" stroke="#000000" stroke-width="0.398" fill="none" /><path id="453" transform="matrix(1 0 0 -1 0 792)" d="M1028.898 509.004L1028.898 522.571" stroke="#000000" stroke-width="0.398" fill="none" /><path id="455" transform="matrix(1 0 0 -1 0 792)" d="M1152.021 509.004L1152.021 522.571" stroke="#000000" stroke-width="0.398" fill="none" /><path id="456" transform="matrix(1 0 0 -1 0 792)" d="M718.3 508.805L1152.22 508.805" stroke="#000000" stroke-width="0.398" fill="none" /><path id="457" transform="matrix(1 0 0 -1 0 792)" d="M718.5 495.039L718.5 508.606" stroke="#000000" stroke-width="0.398" fill="none" /><path id="463" transform="matrix(1 0 0 -1 0 792)" d="M755.162 499.321L758.151 499.321" stroke="#000000" stroke-width="0.398" fill="none" /><path id="470" transform="matrix(1 0 0 -1 0 792)" d="M794.614 499.321L797.603 499.321" stroke="#000000" stroke-width="0.398" fill="none" /><path id="478" transform="matrix(1 0 0 -1 0 792)" d="M910.853 495.039L910.853 508.606" stroke="#000000" stroke-width="0.398" fill="none" /><path id="480" transform="matrix(1 0 0 -1 0 792)" d="M969.875 495.039L969.875 508.606" stroke="#000000" stroke-width="0.398" fill="none" /><path id="482" transform="matrix(1 0 0 -1 0 792)" d="M1028.898 495.039L1028.898 508.606" stroke="#000000" stroke-width="0.398" fill="none" /><path id="494" transform="matrix(1 0 0 -1 0 792)" d="M1152.021 495.039L1152.021 508.606" stroke="#000000" stroke-width="0.398" fill="none" /><path id="495" transform="matrix(1 0 0 -1 0 792)" d="M718.3 494.84L1152.22 494.84" stroke="#000000" stroke-width="0.398" fill="none" /><path id="496" transform="matrix(1 0 0 -1 0 792)" d="M718.5 481.074L718.5 494.641" stroke="#000000" stroke-width="0.398" fill="none" /><path id="503" transform="matrix(1 0 0 -1 0 792)" d="M761.14 485.355L764.129 485.355" stroke="#000000" stroke-width="0.398" fill="none" /><path id="509" transform="matrix(1 0 0 -1 0 792)" d="M794.614 485.355L797.603 485.355" stroke="#000000" stroke-width="0.398" fill="none" /><path id="516" transform="matrix(1 0 0 -1 0 792)" d="M834.066 485.355L837.055 485.355" stroke="#000000" stroke-width="0.398" fill="none" /><path id="524" transform="matrix(1 0 0 -1 0 792)" d="M910.853 481.074L910.853 494.641" stroke="#000000" stroke-width="0.398" fill="none" /><path id="526" transform="matrix(1 0 0 -1 0 792)" d="M969.875 481.074L969.875 494.641" stroke="#000000" stroke-width="0.398" fill="none" /><path id="528" transform="matrix(1 0 0 -1 0 792)" d="M1028.898 481.074L1028.898 494.641" stroke="#000000" stroke-width="0.398" fill="none" /><path id="530" transform="matrix(1 0 0 -1 0 792)" d="M1152.021 481.074L1152.021 494.641" stroke="#000000" stroke-width="0.398" fill="none" /><path id="531" transform="matrix(1 0 0 -1 0 792)" d="M718.3 480.875L1152.22 480.875" stroke="#000000" stroke-width="0.398" fill="none" /><path id="532" transform="matrix(1 0 0 -1 0 792)" d="M718.5 467.109L718.5 480.676" stroke="#000000" stroke-width="0.398" fill="none" /><path id="539" transform="matrix(1 0 0 -1 0 792)" d="M761.14 471.39L764.129 471.39" stroke="#000000" stroke-width="0.398" fill="none" /><path id="545" transform="matrix(1 0 0 -1 0 792)" d="M794.614 471.39L797.603 471.39" stroke="#000000" stroke-width="0.398" fill="none" /><path id="552" transform="matrix(1 0 0 -1 0 792)" d="M834.066 471.39L837.055 471.39" stroke="#000000" stroke-width="0.398" fill="none" /><path id="560" transform="matrix(1 0 0 -1 0 792)" d="M910.853 467.109L910.853 480.676" stroke="#000000" stroke-width="0.398" fill="none" /><path id="562" transform="matrix(1 0 0 -1 0 792)" d="M969.875 467.109L969.875 480.676" stroke="#000000" stroke-width="0.398" fill="none" /><path id="564" transform="matrix(1 0 0 -1 0 792)" d="M1028.898 467.109L1028.898 480.676" stroke="#000000" stroke-width="0.398" fill="none" /><path id="566" transform="matrix(1 0 0 -1 0 792)" d="M1152.021 467.109L1152.021 480.676" stroke="#000000" stroke-width="0.398" fill="none" /><path id="567" transform="matrix(1 0 0 -1 0 792)" d="M718.3 466.91L1152.22 466.91" stroke="#000000" stroke-width="0.398" fill="none" /><path id="568" transform="matrix(1 0 0 -1 0 792)" d="M718.5 453.144L718.5 466.711" stroke="#000000" stroke-width="0.398" fill="none" /><path id="572" transform="matrix(1 0 0 -1 0 792)" d="M743.207 457.425L746.196 457.425" stroke="#000000" stroke-width="0.398" fill="none" /><path id="578" transform="matrix(1 0 0 -1 0 792)" d="M776.682 457.425L779.671 457.425" stroke="#000000" stroke-width="0.398" fill="none" /><path id="584" transform="matrix(1 0 0 -1 0 792)" d="M810.156 457.425L813.145 457.425" stroke="#000000" stroke-width="0.398" fill="none" /><path id="591" transform="matrix(1 0 0 -1 0 792)" d="M849.608 457.425L852.597 457.425" stroke="#000000" stroke-width="0.398" fill="none" /><path id="599" transform="matrix(1 0 0 -1 0 792)" d="M910.853 453.144L910.853 466.711" stroke="#000000" stroke-width="0.398" fill="none" /><path id="601" transform="matrix(1 0 0 -1 0 792)" d="M969.875 453.144L969.875 466.711" stroke="#000000" stroke-width="0.398" fill="none" /><path id="603" transform="matrix(1 0 0 -1 0 792)" d="M1028.898 453.144L1028.898 466.711" stroke="#000000" stroke-width="0.398" fill="none" /><path id="605" transform="matrix(1 0 0 -1 0 792)" d="M1152.021 453.144L1152.021 466.711" stroke="#000000" stroke-width="0.398" fill="none" /><path id="606" transform="matrix(1 0 0 -1 0 792)" d="M718.3 452.944L1152.22 452.944" stroke="#000000" stroke-width="0.398" fill="none" /><path id="607" transform="matrix(1 0 0 -1 0 792)" d="M718.5 439.178L718.5 452.745" stroke="#000000" stroke-width="0.398" fill="none" /><path id="613" transform="matrix(1 0 0 -1 0 792)" d="M755.162 443.46L758.151 443.46" stroke="#000000" stroke-width="0.398" fill="none" /><path id="619" transform="matrix(1 0 0 -1 0 792)" d="M788.637 443.46L791.626 443.46" stroke="#000000" stroke-width="0.398" fill="none" /><path id="626" transform="matrix(1 0 0 -1 0 792)" d="M828.089 443.46L831.078 443.46" stroke="#000000" stroke-width="0.398" fill="none" /><path id="634" transform="matrix(1 0 0 -1 0 792)" d="M910.853 439.178L910.853 452.745" stroke="#000000" stroke-width="0.398" fill="none" /><path id="636" transform="matrix(1 0 0 -1 0 792)" d="M969.875 439.178L969.875 452.745" stroke="#000000" stroke-width="0.398" fill="none" /><path id="638" transform="matrix(1 0 0 -1 0 792)" d="M1028.898 439.178L1028.898 452.745" stroke="#000000" stroke-width="0.398" fill="none" /><path id="640" transform="matrix(1 0 0 -1 0 792)" d="M1152.021 439.178L1152.021 452.745" stroke="#000000" stroke-width="0.398" fill="none" /><path id="641" transform="matrix(1 0 0 -1 0 792)" d="M718.3 438.979L1152.22 438.979" stroke="#000000" stroke-width="0.398" fill="none" /><path id="642" transform="matrix(1 0 0 -1 0 792)" d="M718.5 411.682L718.5 438.78" stroke="#000000" stroke-width="0.398" fill="none" /><path id="643" transform="matrix(1 0 0 -1 0 792)" d="M779.073 429.495L782.062 429.495" stroke="#000000" stroke-width="0.398" fill="none" /><path id="644" transform="matrix(1 0 0 -1 0 792)" d="M812.547 429.495L815.536 429.495" stroke="#000000" stroke-width="0.398" fill="none" /><path id="645" transform="matrix(1 0 0 -1 0 792)" d="M846.021 429.495L849.01 429.495" stroke="#000000" stroke-width="0.398" fill="none" /><path id="646" transform="matrix(1 0 0 -1 0 792)" d="M885.474 429.495L888.463 429.495" stroke="#000000" stroke-width="0.398" fill="none" /><path id="647" transform="matrix(1 0 0 -1 0 792)" d="M910.853 411.682L910.853 438.78" stroke="#000000" stroke-width="0.398" fill="none" /><path id="648" transform="matrix(1 0 0 -1 0 792)" d="M969.875 411.682L969.875 438.78" stroke="#000000" stroke-width="0.398" fill="none" /><path id="649" transform="matrix(1 0 0 -1 0 792)" d="M1028.898 411.682L1028.898 438.78" stroke="#000000" stroke-width="0.398" fill="none" /><path id="650" transform="matrix(1 0 0 -1 0 792)" d="M1152.021 411.682L1152.021 438.78" stroke="#000000" stroke-width="0.398" fill="none" /><path id="651" transform="matrix(1 0 0 -1 0 792)" d="M718.3 411.482L1152.22 411.482" stroke="#000000" stroke-width="0.398" fill="none" /><path id="652" transform="matrix(1 0 0 -1 0 792)" d="M718.5 384.185L718.5 411.283" stroke="#000000" stroke-width="0.398" fill="none" /><path id="653" transform="matrix(1 0 0 -1 0 792)" d="M767.117 401.998L770.106 401.998" stroke="#000000" stroke-width="0.398" fill="none" /><path id="654" transform="matrix(1 0 0 -1 0 792)" d="M800.592 401.998L803.581 401.998" stroke="#000000" stroke-width="0.398" fill="none" /><path id="655" transform="matrix(1 0 0 -1 0 792)" d="M834.066 401.998L837.055 401.998" stroke="#000000" stroke-width="0.398" fill="none" /><path id="656" transform="matrix(1 0 0 -1 0 792)" d="M873.518 401.998L876.507 401.998" stroke="#000000" stroke-width="0.398" fill="none" /><path id="657" transform="matrix(1 0 0 -1 0 792)" d="M910.853 384.185L910.853 411.283" stroke="#000000" stroke-width="0.398" fill="none" /><path id="658" transform="matrix(1 0 0 -1 0 792)" d="M969.875 384.185L969.875 411.283" stroke="#000000" stroke-width="0.398" fill="none" /><path id="659" transform="matrix(1 0 0 -1 0 792)" d="M1028.898 384.185L1028.898 411.283" stroke="#000000" stroke-width="0.398" fill="none" /><path id="660" transform="matrix(1 0 0 -1 0 792)" d="M1152.021 384.185L1152.021 411.283" stroke="#000000" stroke-width="0.398" fill="none" /><path id="661" transform="matrix(1 0 0 -1 0 792)" d="M718.3 383.985L1152.22 383.985" stroke="#000000" stroke-width="0.398" fill="none" /><path id="662" transform="matrix(1 0 0 -1 0 792)" d="M718.5 370.22L718.5 383.787" stroke="#000000" stroke-width="0.398" fill="none" /><path id="670" transform="matrix(1 0 0 -1 0 792)" d="M767.117 374.501L770.106 374.501" stroke="#000000" stroke-width="0.398" fill="none" /><path id="676" transform="matrix(1 0 0 -1 0 792)" d="M800.592 374.501L803.581 374.501" stroke="#000000" stroke-width="0.398" fill="none" /><path id="683" transform="matrix(1 0 0 -1 0 792)" d="M840.044 374.501L843.033 374.501" stroke="#000000" stroke-width="0.398" fill="none" /><path id="691" transform="matrix(1 0 0 -1 0 792)" d="M910.853 370.22L910.853 383.787" stroke="#000000" stroke-width="0.398" fill="none" /><path id="692" transform="matrix(1 0 0 -1 0 792)" d="M969.875 370.22L969.875 383.787" stroke="#000000" stroke-width="0.398" fill="none" /><path id="694" transform="matrix(1 0 0 -1 0 792)" d="M1028.898 370.22L1028.898 383.787" stroke="#000000" stroke-width="0.398" fill="none" /><path id="706" transform="matrix(1 0 0 -1 0 792)" d="M1152.021 370.22L1152.021 383.787" stroke="#000000" stroke-width="0.398" fill="none" /><path id="707" transform="matrix(1 0 0 -1 0 792)" d="M718.3 370.02L1152.22 370.02" stroke="#000000" stroke-width="0.398" fill="none" /><path id="708" transform="matrix(1 0 0 -1 0 792)" d="M718.5 342.723L718.5 369.821" stroke="#000000" stroke-width="0.398" fill="none" /><path id="709" transform="matrix(1 0 0 -1 0 792)" d="M761.14 360.536L764.129 360.536" stroke="#000000" stroke-width="0.398" fill="none" /><path id="710" transform="matrix(1 0 0 -1 0 792)" d="M800.592 360.536L803.581 360.536" stroke="#000000" stroke-width="0.398" fill="none" /><path id="711" transform="matrix(1 0 0 -1 0 792)" d="M834.066 360.536L837.055 360.536" stroke="#000000" stroke-width="0.398" fill="none" /><path id="712" transform="matrix(1 0 0 -1 0 792)" d="M873.518 360.536L876.507 360.536" stroke="#000000" stroke-width="0.398" fill="none" /><path id="713" transform="matrix(1 0 0 -1 0 792)" d="M910.853 342.723L910.853 369.821" stroke="#000000" stroke-width="0.398" fill="none" /><path id="714" transform="matrix(1 0 0 -1 0 792)" d="M969.875 342.723L969.875 369.821" stroke="#000000" stroke-width="0.398" fill="none" /><path id="715" transform="matrix(1 0 0 -1 0 792)" d="M1028.898 342.723L1028.898 369.821" stroke="#000000" stroke-width="0.398" fill="none" /><path id="716" transform="matrix(1 0 0 -1 0 792)" d="M1152.021 342.723L1152.021 369.821" stroke="#000000" stroke-width="0.398" fill="none" /><path id="717" transform="matrix(1 0 0 -1 0 792)" d="M718.3 342.523L1152.22 342.523" stroke="#000000" stroke-width="0.398" fill="none" /><path id="718" transform="matrix(1 0 0 -1 0 792)" d="M710.013 234.669L1160.507 234.669" stroke="#000000" stroke-width="0.398" fill="none" /><path id="719" transform="matrix(1 0 0 -1 0 792)" d="M710.213 220.903L710.213 234.47" stroke="#000000" stroke-width="0.398" fill="none" /><path id="720" transform="matrix(1 0 0 -1 0 792)" d="M710.412 220.903L902.367 220.903L902.367 234.47L710.412 234.47z" stroke="none" fill="#CCCCEB" fill-rule="nonzero" /><path id="726" transform="matrix(1 0 0 -1 0 792)" d="M902.566 220.903L902.566 234.47" stroke="#000000" stroke-width="0.398" fill="none" /><path id="727" transform="matrix(1 0 0 -1 0 792)" d="M902.766 220.903L961.39 220.903L961.39 234.47L902.766 234.47z" stroke="none" fill="#CCCCEB" fill-rule="nonzero" /><path id="737" transform="matrix(1 0 0 -1 0 792)" d="M961.588 220.903L961.588 234.47" stroke="#000000" stroke-width="0.398" fill="none" /><path id="738" transform="matrix(1 0 0 -1 0 792)" d="M961.788 220.903L1042.56 220.903L1042.56 234.47L961.788 234.47z" stroke="none" fill="#CCCCEB" fill-rule="nonzero" /><path id="746" transform="matrix(1 0 0 -1 0 792)" d="M1042.759 220.903L1042.759 234.47" stroke="#000000" stroke-width="0.398" fill="none" /><path id="747" transform="matrix(1 0 0 -1 0 792)" d="M1042.958 220.903L1160.108 220.903L1160.108 234.47L1042.958 234.47z" stroke="none" fill="#CCCCEB" fill-rule="nonzero" /><path id="751" transform="matrix(1 0 0 -1 0 792)" d="M1160.308 220.903L1160.308 234.47" stroke="#000000" stroke-width="0.398" fill="none" /><path id="752" transform="matrix(1 0 0 -1 0 792)" d="M710.213 207.337L710.213 220.904" stroke="#000000" stroke-width="0.398" fill="none" /><path id="753" transform="matrix(1 0 0 -1 0 792)" d="M710.412 207.337L902.367 207.337L902.367 220.904L710.412 220.904z" stroke="none" fill="#CCCCEB" fill-rule="nonzero" /><path id="754" transform="matrix(1 0 0 -1 0 792)" d="M902.566 207.337L902.566 220.904" stroke="#000000" stroke-width="0.398" fill="none" /><path id="755" transform="matrix(1 0 0 -1 0 792)" d="M902.766 207.337L961.39 207.337L961.39 220.904L902.766 220.904z" stroke="none" fill="#CCCCEB" fill-rule="nonzero" /><path id="756" transform="matrix(1 0 0 -1 0 792)" d="M961.588 207.337L961.588 220.904" stroke="#000000" stroke-width="0.398" fill="none" /><path id="757" transform="matrix(1 0 0 -1 0 792)" d="M961.788 207.337L1042.56 207.337L1042.56 220.904L961.788 220.904z" stroke="none" fill="#CCCCEB" fill-rule="nonzero" /><path id="763" transform="matrix(1 0 0 -1 0 792)" d="M1042.759 207.337L1042.759 220.904" stroke="#000000" stroke-width="0.398" fill="none" /><path id="764" transform="matrix(1 0 0 -1 0 792)" d="M1042.958 207.337L1160.108 207.337L1160.108 220.904L1042.958 220.904z" stroke="none" fill="#CCCCEB" fill-rule="nonzero" /><path id="765" transform="matrix(1 0 0 -1 0 792)" d="M1160.308 207.337L1160.308 220.904" stroke="#000000" stroke-width="0.398" fill="none" /><path id="766" transform="matrix(1 0 0 -1 0 792)" d="M710.013 207.137L1160.507 207.137" stroke="#000000" stroke-width="0.398" fill="none" /><path id="767" transform="matrix(1 0 0 -1 0 792)" d="M710.013 204.746L1160.507 204.746" stroke="#000000" stroke-width="0.398" fill="none" /><path id="768" transform="matrix(1 0 0 -1 0 792)" d="M710.213 190.98L710.213 204.547" stroke="#000000" stroke-width="0.398" fill="none" /><path id="775" transform="matrix(1 0 0 -1 0 792)" d="M752.853 195.262L755.842 195.262" stroke="#000000" stroke-width="0.398" fill="none" /><path id="780" transform="matrix(1 0 0 -1 0 792)" d="M902.566 190.98L902.566 204.547" stroke="#000000" stroke-width="0.398" fill="none" /><path id="782" transform="matrix(1 0 0 -1 0 792)" d="M961.588 190.98L961.588 204.547" stroke="#000000" stroke-width="0.398" fill="none" /><path id="784" transform="matrix(1 0 0 -1 0 792)" d="M1042.759 190.98L1042.759 204.547" stroke="#000000" stroke-width="0.398" fill="none" /><path id="805" transform="matrix(1 0 0 -1 0 792)" d="M1160.308 190.98L1160.308 204.547" stroke="#000000" stroke-width="0.398" fill="none" /><path id="806" transform="matrix(1 0 0 -1 0 792)" d="M710.013 190.781L1160.507 190.781" stroke="#000000" stroke-width="0.398" fill="none" /><path id="807" transform="matrix(1 0 0 -1 0 792)" d="M710.213 177.015L710.213 190.582" stroke="#000000" stroke-width="0.398" fill="none" /><path id="814" transform="matrix(1 0 0 -1 0 792)" d="M752.853 181.297L755.842 181.297" stroke="#000000" stroke-width="0.398" fill="none" /><path id="820" transform="matrix(1 0 0 -1 0 792)" d="M902.566 177.015L902.566 190.582" stroke="#000000" stroke-width="0.398" fill="none" /><path id="822" transform="matrix(1 0 0 -1 0 792)" d="M961.588 177.015L961.588 190.582" stroke="#000000" stroke-width="0.398" fill="none" /><path id="829" transform="matrix(1 0 0 -1 0 792)" d="M1006.956 181.279L1009.945 181.279" stroke="#000000" stroke-width="0.398" fill="none" /><path id="834" transform="matrix(1 0 0 -1 0 792)" d="M1042.759 177.015L1042.759 190.582" stroke="#000000" stroke-width="0.398" fill="none" /><path id="855" transform="matrix(1 0 0 -1 0 792)" d="M1160.308 177.015L1160.308 190.582" stroke="#000000" stroke-width="0.398" fill="none" /><path id="856" transform="matrix(1 0 0 -1 0 792)" d="M710.013 176.816L1160.507 176.816" stroke="#000000" stroke-width="0.398" fill="none" /><path id="857" transform="matrix(1 0 0 -1 0 792)" d="M710.213 163.05L710.213 176.617" stroke="#000000" stroke-width="0.398" fill="none" /><path id="864" transform="matrix(1 0 0 -1 0 792)" d="M752.853 167.332L755.842 167.332" stroke="#000000" stroke-width="0.398" fill="none" /><path id="871" transform="matrix(1 0 0 -1 0 792)" d="M902.566 163.05L902.566 176.617" stroke="#000000" stroke-width="0.398" fill="none" /><path id="873" transform="matrix(1 0 0 -1 0 792)" d="M961.588 163.05L961.588 176.617" stroke="#000000" stroke-width="0.398" fill="none" /><path id="875" transform="matrix(1 0 0 -1 0 792)" d="M1042.759 163.05L1042.759 176.617" stroke="#000000" stroke-width="0.398" fill="none" /><path id="877" transform="matrix(1 0 0 -1 0 792)" d="M1160.308 163.05L1160.308 176.617" stroke="#000000" stroke-width="0.398" fill="none" /><path id="878" transform="matrix(1 0 0 -1 0 792)" d="M710.013 162.851L1160.507 162.851" stroke="#000000" stroke-width="0.398" fill="none" /><path id="879" transform="matrix(1 0 0 -1 0 792)" d="M710.213 149.085L710.213 162.652" stroke="#000000" stroke-width="0.398" fill="none" /><path id="886" transform="matrix(1 0 0 -1 0 792)" d="M752.853 153.367L755.842 153.367" stroke="#000000" stroke-width="0.398" fill="none" /><path id="893" transform="matrix(1 0 0 -1 0 792)" d="M902.566 149.085L902.566 162.652" stroke="#000000" stroke-width="0.398" fill="none" /><path id="895" transform="matrix(1 0 0 -1 0 792)" d="M961.588 149.085L961.588 162.652" stroke="#000000" stroke-width="0.398" fill="none" /><path id="897" transform="matrix(1 0 0 -1 0 792)" d="M1042.759 149.085L1042.759 162.652" stroke="#000000" stroke-width="0.398" fill="none" /><path id="899" transform="matrix(1 0 0 -1 0 792)" d="M1160.308 149.085L1160.308 162.652" stroke="#000000" stroke-width="0.398" fill="none" /><path id="900" transform="matrix(1 0 0 -1 0 792)" d="M710.013 148.886L1160.507 148.886" stroke="#000000" stroke-width="0.398" fill="none" /><path id="901" transform="matrix(1 0 0 -1 0 792)" d="M710.213 135.12L710.213 148.687" stroke="#000000" stroke-width="0.398" fill="none" /><path id="908" transform="matrix(1 0 0 -1 0 792)" d="M752.853 139.401L755.842 139.401" stroke="#000000" stroke-width="0.398" fill="none" /><path id="912" transform="matrix(1 0 0 -1 0 792)" d="M774.3719 139.401L777.361 139.401" stroke="#000000" stroke-width="0.398" fill="none" /><path id="920" transform="matrix(1 0 0 -1 0 792)" d="M902.566 135.12L902.566 148.687" stroke="#000000" stroke-width="0.398" fill="none" /><path id="922" transform="matrix(1 0 0 -1 0 792)" d="M961.588 135.12L961.588 148.687" stroke="#000000" stroke-width="0.398" fill="none" /><path id="927" transform="matrix(1 0 0 -1 0 792)" d="M1042.759 135.12L1042.759 148.687" stroke="#000000" stroke-width="0.398" fill="none" /><path id="929" transform="matrix(1 0 0 -1 0 792)" d="M1160.308 135.12L1160.308 148.687" stroke="#000000" stroke-width="0.398" fill="none" /><path id="930" transform="matrix(1 0 0 -1 0 792)" d="M710.013 134.921L1160.507 134.921" stroke="#000000" stroke-width="0.398" fill="none" /><path id="931" transform="matrix(1 0 0 -1 0 792)" d="M701.933 722.529L1168.588 722.529L1168.588 722.529L1168.588 735.6745L1168.588 735.6745L701.933 735.6745z" stroke="#FFFFFF" stroke-width="1" fill="#FFFFFF" fill-rule="nonzero" /><path id="940" transform="matrix(1 0 0 -1 0 792)" d="M724.677 413.385L1093.187 413.385L1093.187 413.385L1093.187 437.3758L1093.187 437.3758L724.677 437.3758z" stroke="#FFFFFF" stroke-width="1" fill="#FFFFFF" fill-rule="nonzero" /><path id="953" transform="matrix(1 0 0 -1 0 792)" d="M724.677 385.888L1093.187 385.888L1093.187 385.888L1093.187 409.8788L1093.187 409.8788L724.677 409.8788z" stroke="#FFFFFF" stroke-width="1" fill="#FFFFFF" fill-rule="nonzero" /><path id="967" transform="matrix(1 0 0 -1 0 792)" d="M724.677 335.36L1128.685 335.36L1128.685 335.36L1128.685 368.4171L1128.685 368.4171L724.677 368.4171z" stroke="#FFFFFF" stroke-width="1" fill="#FFFFFF" fill-rule="nonzero" /><path id="1005" transform="matrix(1 0 0 -1 0 792)" d="M857.141 319.812L1013.381 319.812L1013.381 319.812L1013.381 332.9575L1013.381 332.9575L857.141 332.9575z" stroke="#FFFFFF" stroke-width="1" fill="#FFFFFF" fill-rule="nonzero" /><path id="1020" transform="matrix(1 0 0 -1 0 792)" d="M869.61 112.209L1000.912 112.209L1000.912 112.209L1000.912 125.3545L1000.912 125.3545L869.61 125.3545z" stroke="#FFFFFF" stroke-width="1" fill="#FFFFFF" fill-rule="nonzero" /><path id="1075" transform="matrix(1 0 0 -1 0 792)" d="M89.933 721.28L556.588 721.28" stroke="#000000" stroke-width="0.498" fill="none" /><path id="1076" transform="matrix(1 0 0 -1 0 792)" d="M106.3 664.414L540.22 664.414" stroke="#000000" stroke-width="0.398" fill="none" /><path id="1077" transform="matrix(1 0 0 -1 0 792)" d="M106.5 650.648L106.5 664.215" stroke="#000000" stroke-width="0.398" fill="none" /><path id="1078" transform="matrix(1 0 0 -1 0 792)" d="M106.699 650.648L298.654 650.648L298.654 664.215L106.699 664.215z" stroke="none" fill="#CCCCEB" fill-rule="nonzero" /><path id="1084" transform="matrix(1 0 0 -1 0 792)" d="M298.853 650.648L298.853 664.215" stroke="#000000" stroke-width="0.398" fill="none" /><path id="1085" transform="matrix(1 0 0 -1 0 792)" d="M299.053 650.648L357.677 650.648L357.677 664.215L299.053 664.215z" stroke="none" fill="#CCCCEB" fill-rule="nonzero" /><path id="1095" transform="matrix(1 0 0 -1 0 792)" d="M357.875 650.648L357.875 664.215" stroke="#000000" stroke-width="0.398" fill="none" /><path id="1096" transform="matrix(1 0 0 -1 0 792)" d="M358.075 650.648L416.699 650.648L416.699 664.215L358.075 664.215z" stroke="none" fill="#CCCCEB" fill-rule="nonzero" /><path id="1104" transform="matrix(1 0 0 -1 0 792)" d="M416.898 650.648L416.898 664.215" stroke="#000000" stroke-width="0.398" fill="none" /><path id="1105" transform="matrix(1 0 0 -1 0 792)" d="M417.097 650.648L539.822 650.648L539.822 664.215L417.097 664.215z" stroke="none" fill="#CCCCEB" fill-rule="nonzero" /><path id="1109" transform="matrix(1 0 0 -1 0 792)" d="M540.021 650.648L540.021 664.215" stroke="#000000" stroke-width="0.398" fill="none" /><path id="1110" transform="matrix(1 0 0 -1 0 792)" d="M106.5 637.082L106.5 650.649" stroke="#000000" stroke-width="0.398" fill="none" /><path id="1111" transform="matrix(1 0 0 -1 0 792)" d="M106.699 637.082L298.654 637.082L298.654 650.649L106.699 650.649z" stroke="none" fill="#CCCCEB" fill-rule="nonzero" /><path id="1112" transform="matrix(1 0 0 -1 0 792)" d="M298.853 637.082L298.853 650.649" stroke="#000000" stroke-width="0.398" fill="none" /><path id="1113" transform="matrix(1 0 0 -1 0 792)" d="M299.053 637.082L357.677 637.082L357.677 650.649L299.053 650.649z" stroke="none" fill="#CCCCEB" fill-rule="nonzero" /><path id="1114" transform="matrix(1 0 0 -1 0 792)" d="M357.875 637.082L357.875 650.649" stroke="#000000" stroke-width="0.398" fill="none" /><path id="1115" transform="matrix(1 0 0 -1 0 792)" d="M358.075 637.082L416.699 637.082L416.699 650.649L358.075 650.649z" stroke="none" fill="#CCCCEB" fill-rule="nonzero" /><path id="1121" transform="matrix(1 0 0 -1 0 792)" d="M416.898 637.082L416.898 650.649" stroke="#000000" stroke-width="0.398" fill="none" /><path id="1122" transform="matrix(1 0 0 -1 0 792)" d="M417.097 637.082L539.822 637.082L539.822 650.649L417.097 650.649z" stroke="none" fill="#CCCCEB" fill-rule="nonzero" /><path id="1123" transform="matrix(1 0 0 -1 0 792)" d="M540.021 637.082L540.021 650.649" stroke="#000000" stroke-width="0.398" fill="none" /><path id="1124" transform="matrix(1 0 0 -1 0 792)" d="M106.3 636.882L540.22 636.882" stroke="#000000" stroke-width="0.398" fill="none" /><path id="1125" transform="matrix(1 0 0 -1 0 792)" d="M106.3 634.491L540.22 634.491" stroke="#000000" stroke-width="0.398" fill="none" /><path id="1126" transform="matrix(1 0 0 -1 0 792)" d="M106.5 620.725L106.5 634.292" stroke="#000000" stroke-width="0.398" fill="none" /><path id="1133" transform="matrix(1 0 0 -1 0 792)" d="M149.14 625.007L152.129 625.007" stroke="#000000" stroke-width="0.398" fill="none" /><path id="1140" transform="matrix(1 0 0 -1 0 792)" d="M188.592 625.007L191.581 625.007" stroke="#000000" stroke-width="0.398" fill="none" /><path id="1146" transform="matrix(1 0 0 -1 0 792)" d="M222.066 625.007L225.055 625.007" stroke="#000000" stroke-width="0.398" fill="none" /><path id="1154" transform="matrix(1 0 0 -1 0 792)" d="M298.853 620.725L298.853 634.292" stroke="#000000" stroke-width="0.398" fill="none" /><path id="1156" transform="matrix(1 0 0 -1 0 792)" d="M357.875 620.725L357.875 634.292" stroke="#000000" stroke-width="0.398" fill="none" /><path id="1162" transform="matrix(1 0 0 -1 0 792)" d="M416.898 620.725L416.898 634.292" stroke="#000000" stroke-width="0.398" fill="none" /><path id="1178" transform="matrix(1 0 0 -1 0 792)" d="M540.021 620.725L540.021 634.292" stroke="#000000" stroke-width="0.398" fill="none" /><path id="1179" transform="matrix(1 0 0 -1 0 792)" d="M106.3 620.526L540.22 620.526" stroke="#000000" stroke-width="0.398" fill="none" /><path id="1180" transform="matrix(1 0 0 -1 0 792)" d="M106.5 606.76L106.5 620.327" stroke="#000000" stroke-width="0.398" fill="none" /><path id="1187" transform="matrix(1 0 0 -1 0 792)" d="M149.14 611.042L152.129 611.042" stroke="#000000" stroke-width="0.398" fill="none" /><path id="1194" transform="matrix(1 0 0 -1 0 792)" d="M188.592 611.042L191.581 611.042" stroke="#000000" stroke-width="0.398" fill="none" /><path id="1200" transform="matrix(1 0 0 -1 0 792)" d="M222.066 611.042L225.055 611.042" stroke="#000000" stroke-width="0.398" fill="none" /><path id="1205" transform="matrix(1 0 0 -1 0 792)" d="M298.853 606.76L298.853 620.327" stroke="#000000" stroke-width="0.398" fill="none" /><path id="1207" transform="matrix(1 0 0 -1 0 792)" d="M357.875 606.76L357.875 620.327" stroke="#000000" stroke-width="0.398" fill="none" /><path id="1209" transform="matrix(1 0 0 -1 0 792)" d="M416.898 606.76L416.898 620.327" stroke="#000000" stroke-width="0.398" fill="none" /><path id="1225" transform="matrix(1 0 0 -1 0 792)" d="M540.021 606.76L540.021 620.327" stroke="#000000" stroke-width="0.398" fill="none" /><path id="1226" transform="matrix(1 0 0 -1 0 792)" d="M106.3 606.561L540.22 606.561" stroke="#000000" stroke-width="0.398" fill="none" /><path id="1227" transform="matrix(1 0 0 -1 0 792)" d="M106.5 592.795L106.5 606.362" stroke="#000000" stroke-width="0.398" fill="none" /><path id="1234" transform="matrix(1 0 0 -1 0 792)" d="M149.14 597.077L152.129 597.077" stroke="#000000" stroke-width="0.398" fill="none" /><path id="1241" transform="matrix(1 0 0 -1 0 792)" d="M188.592 597.077L191.581 597.077" stroke="#000000" stroke-width="0.398" fill="none" /><path id="1247" transform="matrix(1 0 0 -1 0 792)" d="M222.066 597.077L225.055 597.077" stroke="#000000" stroke-width="0.398" fill="none" /><path id="1254" transform="matrix(1 0 0 -1 0 792)" d="M298.853 592.795L298.853 606.362" stroke="#000000" stroke-width="0.398" fill="none" /><path id="1256" transform="matrix(1 0 0 -1 0 792)" d="M357.875 592.795L357.875 606.362" stroke="#000000" stroke-width="0.398" fill="none" /><path id="1258" transform="matrix(1 0 0 -1 0 792)" d="M416.898 592.795L416.898 606.362" stroke="#000000" stroke-width="0.398" fill="none" /><path id="1274" transform="matrix(1 0 0 -1 0 792)" d="M540.021 592.795L540.021 606.362" stroke="#000000" stroke-width="0.398" fill="none" /><path id="1275" transform="matrix(1 0 0 -1 0 792)" d="M106.3 592.596L540.22 592.596" stroke="#000000" stroke-width="0.398" fill="none" /><path id="1276" transform="matrix(1 0 0 -1 0 792)" d="M106.5 578.83L106.5 592.397" stroke="#000000" stroke-width="0.398" fill="none" /><path id="1283" transform="matrix(1 0 0 -1 0 792)" d="M149.14 583.111L152.129 583.111" stroke="#000000" stroke-width="0.398" fill="none" /><path id="1290" transform="matrix(1 0 0 -1 0 792)" d="M188.592 583.111L191.581 583.111" stroke="#000000" stroke-width="0.398" fill="none" /><path id="1296" transform="matrix(1 0 0 -1 0 792)" d="M222.066 583.111L225.055 583.111" stroke="#000000" stroke-width="0.398" fill="none" /><path id="1301" transform="matrix(1 0 0 -1 0 792)" d="M298.853 578.83L298.853 592.397" stroke="#000000" stroke-width="0.398" fill="none" /><path id="1303" transform="matrix(1 0 0 -1 0 792)" d="M357.875 578.83L357.875 592.397" stroke="#000000" stroke-width="0.398" fill="none" /><path id="1309" transform="matrix(1 0 0 -1 0 792)" d="M416.898 578.83L416.898 592.397" stroke="#000000" stroke-width="0.398" fill="none" /><path id="1325" transform="matrix(1 0 0 -1 0 792)" d="M540.021 578.83L540.021 592.397" stroke="#000000" stroke-width="0.398" fill="none" /><path id="1326" transform="matrix(1 0 0 -1 0 792)" d="M106.3 578.631L540.22 578.631" stroke="#000000" stroke-width="0.398" fill="none" /><path id="1327" transform="matrix(1 0 0 -1 0 792)" d="M106.5 564.865L106.5 578.432" stroke="#000000" stroke-width="0.398" fill="none" /><path id="1334" transform="matrix(1 0 0 -1 0 792)" d="M149.14 569.146L152.129 569.146" stroke="#000000" stroke-width="0.398" fill="none" /><path id="1341" transform="matrix(1 0 0 -1 0 792)" d="M188.592 569.146L191.581 569.146" stroke="#000000" stroke-width="0.398" fill="none" /><path id="1347" transform="matrix(1 0 0 -1 0 792)" d="M222.066 569.146L225.055 569.146" stroke="#000000" stroke-width="0.398" fill="none" /><path id="1358" transform="matrix(1 0 0 -1 0 792)" d="M298.853 564.865L298.853 578.432" stroke="#000000" stroke-width="0.398" fill="none" /><path id="1360" transform="matrix(1 0 0 -1 0 792)" d="M357.875 564.865L357.875 578.432" stroke="#000000" stroke-width="0.398" fill="none" /><path id="1366" transform="matrix(1 0 0 -1 0 792)" d="M416.898 564.865L416.898 578.432" stroke="#000000" stroke-width="0.398" fill="none" /><path id="1382" transform="matrix(1 0 0 -1 0 792)" d="M540.021 564.865L540.021 578.432" stroke="#000000" stroke-width="0.398" fill="none" /><path id="1383" transform="matrix(1 0 0 -1 0 792)" d="M106.3 564.666L540.22 564.666" stroke="#000000" stroke-width="0.398" fill="none" /><path id="1384" transform="matrix(1 0 0 -1 0 792)" d="M106.5 550.9L106.5 564.467" stroke="#000000" stroke-width="0.398" fill="none" /><path id="1391" transform="matrix(1 0 0 -1 0 792)" d="M149.14 555.181L152.129 555.181" stroke="#000000" stroke-width="0.398" fill="none" /><path id="1398" transform="matrix(1 0 0 -1 0 792)" d="M188.592 555.181L191.581 555.181" stroke="#000000" stroke-width="0.398" fill="none" /><path id="1404" transform="matrix(1 0 0 -1 0 792)" d="M222.066 555.181L225.055 555.181" stroke="#000000" stroke-width="0.398" fill="none" /><path id="1412" transform="matrix(1 0 0 -1 0 792)" d="M298.853 550.9L298.853 564.467" stroke="#000000" stroke-width="0.398" fill="none" /><path id="1414" transform="matrix(1 0 0 -1 0 792)" d="M357.875 550.9L357.875 564.467" stroke="#000000" stroke-width="0.398" fill="none" /><path id="1419" transform="matrix(1 0 0 -1 0 792)" d="M416.898 550.9L416.898 564.467" stroke="#000000" stroke-width="0.398" fill="none" /><path id="1442" transform="matrix(1 0 0 -1 0 792)" d="M540.021 550.9L540.021 564.467" stroke="#000000" stroke-width="0.398" fill="none" /><path id="1443" transform="matrix(1 0 0 -1 0 792)" d="M106.3 550.7L540.22 550.7" stroke="#000000" stroke-width="0.398" fill="none" /><path id="1444" transform="matrix(1 0 0 -1 0 792)" d="M106.5 536.934L106.5 550.501" stroke="#000000" stroke-width="0.398" fill="none" /><path id="1449" transform="matrix(1 0 0 -1 0 792)" d="M137.185 541.216L140.174 541.216" stroke="#000000" stroke-width="0.398" fill="none" /><path id="1454" transform="matrix(1 0 0 -1 0 792)" d="M164.682 541.216L167.671 541.216" stroke="#000000" stroke-width="0.398" fill="none" /><path id="1460" transform="matrix(1 0 0 -1 0 792)" d="M298.853 536.934L298.853 550.501" stroke="#000000" stroke-width="0.398" fill="none" /><path id="1462" transform="matrix(1 0 0 -1 0 792)" d="M357.875 536.934L357.875 550.501" stroke="#000000" stroke-width="0.398" fill="none" /><path id="1464" transform="matrix(1 0 0 -1 0 792)" d="M416.898 536.934L416.898 550.501" stroke="#000000" stroke-width="0.398" fill="none" /><path id="1466" transform="matrix(1 0 0 -1 0 792)" d="M540.021 536.934L540.021 550.501" stroke="#000000" stroke-width="0.398" fill="none" /><path id="1467" transform="matrix(1 0 0 -1 0 792)" d="M106.3 536.735L540.22 536.735" stroke="#000000" stroke-width="0.398" fill="none" /><path id="1468" transform="matrix(1 0 0 -1 0 792)" d="M106.5 522.969L106.5 536.536" stroke="#000000" stroke-width="0.398" fill="none" /><path id="1473" transform="matrix(1 0 0 -1 0 792)" d="M137.185 527.251L140.174 527.251" stroke="#000000" stroke-width="0.398" fill="none" /><path id="1478" transform="matrix(1 0 0 -1 0 792)" d="M164.682 527.251L167.671 527.251" stroke="#000000" stroke-width="0.398" fill="none" /><path id="1484" transform="matrix(1 0 0 -1 0 792)" d="M198.156 527.251L201.145 527.251" stroke="#000000" stroke-width="0.398" fill="none" /><path id="1491" transform="matrix(1 0 0 -1 0 792)" d="M298.853 522.969L298.853 536.536" stroke="#000000" stroke-width="0.398" fill="none" /><path id="1493" transform="matrix(1 0 0 -1 0 792)" d="M357.875 522.969L357.875 536.536" stroke="#000000" stroke-width="0.398" fill="none" /><path id="1495" transform="matrix(1 0 0 -1 0 792)" d="M416.898 522.969L416.898 536.536" stroke="#000000" stroke-width="0.398" fill="none" /><path id="1497" transform="matrix(1 0 0 -1 0 792)" d="M540.021 522.969L540.021 536.536" stroke="#000000" stroke-width="0.398" fill="none" /><path id="1498" transform="matrix(1 0 0 -1 0 792)" d="M106.3 522.77L540.22 522.77" stroke="#000000" stroke-width="0.398" fill="none" /><path id="1499" transform="matrix(1 0 0 -1 0 792)" d="M106.5 509.004L106.5 522.571" stroke="#000000" stroke-width="0.398" fill="none" /><path id="1504" transform="matrix(1 0 0 -1 0 792)" d="M137.185 513.286L140.174 513.286" stroke="#000000" stroke-width="0.398" fill="none" /><path id="1509" transform="matrix(1 0 0 -1 0 792)" d="M164.682 513.286L167.671 513.286" stroke="#000000" stroke-width="0.398" fill="none" /><path id="1515" transform="matrix(1 0 0 -1 0 792)" d="M198.156 513.286L201.145 513.286" stroke="#000000" stroke-width="0.398" fill="none" /><path id="1523" transform="matrix(1 0 0 -1 0 792)" d="M298.853 509.004L298.853 522.571" stroke="#000000" stroke-width="0.398" fill="none" /><path id="1525" transform="matrix(1 0 0 -1 0 792)" d="M357.875 509.004L357.875 522.571" stroke="#000000" stroke-width="0.398" fill="none" /><path id="1527" transform="matrix(1 0 0 -1 0 792)" d="M416.898 509.004L416.898 522.571" stroke="#000000" stroke-width="0.398" fill="none" /><path id="1529" transform="matrix(1 0 0 -1 0 792)" d="M540.021 509.004L540.021 522.571" stroke="#000000" stroke-width="0.398" fill="none" /><path id="1530" transform="matrix(1 0 0 -1 0 792)" d="M106.3 508.805L540.22 508.805" stroke="#000000" stroke-width="0.398" fill="none" /><path id="1531" transform="matrix(1 0 0 -1 0 792)" d="M106.5 495.039L106.5 508.606" stroke="#000000" stroke-width="0.398" fill="none" /><path id="1537" transform="matrix(1 0 0 -1 0 792)" d="M143.162 499.321L146.151 499.321" stroke="#000000" stroke-width="0.398" fill="none" /><path id="1544" transform="matrix(1 0 0 -1 0 792)" d="M182.614 499.321L185.603 499.321" stroke="#000000" stroke-width="0.398" fill="none" /><path id="1552" transform="matrix(1 0 0 -1 0 792)" d="M298.853 495.039L298.853 508.606" stroke="#000000" stroke-width="0.398" fill="none" /><path id="1554" transform="matrix(1 0 0 -1 0 792)" d="M357.875 495.039L357.875 508.606" stroke="#000000" stroke-width="0.398" fill="none" /><path id="1556" transform="matrix(1 0 0 -1 0 792)" d="M416.898 495.039L416.898 508.606" stroke="#000000" stroke-width="0.398" fill="none" /><path id="1568" transform="matrix(1 0 0 -1 0 792)" d="M540.021 495.039L540.021 508.606" stroke="#000000" stroke-width="0.398" fill="none" /><path id="1569" transform="matrix(1 0 0 -1 0 792)" d="M106.3 494.84L540.22 494.84" stroke="#000000" stroke-width="0.398" fill="none" /><path id="1570" transform="matrix(1 0 0 -1 0 792)" d="M106.5 481.074L106.5 494.641" stroke="#000000" stroke-width="0.398" fill="none" /><path id="1577" transform="matrix(1 0 0 -1 0 792)" d="M149.14 485.355L152.129 485.355" stroke="#000000" stroke-width="0.398" fill="none" /><path id="1583" transform="matrix(1 0 0 -1 0 792)" d="M182.614 485.355L185.603 485.355" stroke="#000000" stroke-width="0.398" fill="none" /><path id="1590" transform="matrix(1 0 0 -1 0 792)" d="M222.066 485.355L225.055 485.355" stroke="#000000" stroke-width="0.398" fill="none" /><path id="1598" transform="matrix(1 0 0 -1 0 792)" d="M298.853 481.074L298.853 494.641" stroke="#000000" stroke-width="0.398" fill="none" /><path id="1600" transform="matrix(1 0 0 -1 0 792)" d="M357.875 481.074L357.875 494.641" stroke="#000000" stroke-width="0.398" fill="none" /><path id="1602" transform="matrix(1 0 0 -1 0 792)" d="M416.898 481.074L416.898 494.641" stroke="#000000" stroke-width="0.398" fill="none" /><path id="1604" transform="matrix(1 0 0 -1 0 792)" d="M540.021 481.074L540.021 494.641" stroke="#000000" stroke-width="0.398" fill="none" /><path id="1605" transform="matrix(1 0 0 -1 0 792)" d="M106.3 480.875L540.22 480.875" stroke="#000000" stroke-width="0.398" fill="none" /><path id="1606" transform="matrix(1 0 0 -1 0 792)" d="M106.5 467.109L106.5 480.676" stroke="#000000" stroke-width="0.398" fill="none" /><path id="1613" transform="matrix(1 0 0 -1 0 792)" d="M149.14 471.39L152.129 471.39" stroke="#000000" stroke-width="0.398" fill="none" /><path id="1619" transform="matrix(1 0 0 -1 0 792)" d="M182.614 471.39L185.603 471.39" stroke="#000000" stroke-width="0.398" fill="none" /><path id="1626" transform="matrix(1 0 0 -1 0 792)" d="M222.066 471.39L225.055 471.39" stroke="#000000" stroke-width="0.398" fill="none" /><path id="1634" transform="matrix(1 0 0 -1 0 792)" d="M298.853 467.109L298.853 480.676" stroke="#000000" stroke-width="0.398" fill="none" /><path id="1636" transform="matrix(1 0 0 -1 0 792)" d="M357.875 467.109L357.875 480.676" stroke="#000000" stroke-width="0.398" fill="none" /><path id="1638" transform="matrix(1 0 0 -1 0 792)" d="M416.898 467.109L416.898 480.676" stroke="#000000" stroke-width="0.398" fill="none" /><path id="1640" transform="matrix(1 0 0 -1 0 792)" d="M540.021 467.109L540.021 480.676" stroke="#000000" stroke-width="0.398" fill="none" /><path id="1641" transform="matrix(1 0 0 -1 0 792)" d="M106.3 466.91L540.22 466.91" stroke="#000000" stroke-width="0.398" fill="none" /><path id="1642" transform="matrix(1 0 0 -1 0 792)" d="M106.5 453.144L106.5 466.711" stroke="#000000" stroke-width="0.398" fill="none" /><path id="1646" transform="matrix(1 0 0 -1 0 792)" d="M131.207 457.425L134.196 457.425" stroke="#000000" stroke-width="0.398" fill="none" /><path id="1652" transform="matrix(1 0 0 -1 0 792)" d="M164.682 457.425L167.671 457.425" stroke="#000000" stroke-width="0.398" fill="none" /><path id="1658" transform="matrix(1 0 0 -1 0 792)" d="M198.156 457.425L201.145 457.425" stroke="#000000" stroke-width="0.398" fill="none" /><path id="1665" transform="matrix(1 0 0 -1 0 792)" d="M237.608 457.425L240.597 457.425" stroke="#000000" stroke-width="0.398" fill="none" /><path id="1673" transform="matrix(1 0 0 -1 0 792)" d="M298.853 453.144L298.853 466.711" stroke="#000000" stroke-width="0.398" fill="none" /><path id="1675" transform="matrix(1 0 0 -1 0 792)" d="M357.875 453.144L357.875 466.711" stroke="#000000" stroke-width="0.398" fill="none" /><path id="1677" transform="matrix(1 0 0 -1 0 792)" d="M416.898 453.144L416.898 466.711" stroke="#000000" stroke-width="0.398" fill="none" /><path id="1679" transform="matrix(1 0 0 -1 0 792)" d="M540.021 453.144L540.021 466.711" stroke="#000000" stroke-width="0.398" fill="none" /><path id="1680" transform="matrix(1 0 0 -1 0 792)" d="M106.3 452.944L540.22 452.944" stroke="#000000" stroke-width="0.398" fill="none" /><path id="1681" transform="matrix(1 0 0 -1 0 792)" d="M106.5 439.178L106.5 452.745" stroke="#000000" stroke-width="0.398" fill="none" /><path id="1687" transform="matrix(1 0 0 -1 0 792)" d="M143.162 443.46L146.151 443.46" stroke="#000000" stroke-width="0.398" fill="none" /><path id="1693" transform="matrix(1 0 0 -1 0 792)" d="M176.637 443.46L179.626 443.46" stroke="#000000" stroke-width="0.398" fill="none" /><path id="1700" transform="matrix(1 0 0 -1 0 792)" d="M216.089 443.46L219.078 443.46" stroke="#000000" stroke-width="0.398" fill="none" /><path id="1708" transform="matrix(1 0 0 -1 0 792)" d="M298.853 439.178L298.853 452.745" stroke="#000000" stroke-width="0.398" fill="none" /><path id="1710" transform="matrix(1 0 0 -1 0 792)" d="M357.875 439.178L357.875 452.745" stroke="#000000" stroke-width="0.398" fill="none" /><path id="1712" transform="matrix(1 0 0 -1 0 792)" d="M416.898 439.178L416.898 452.745" stroke="#000000" stroke-width="0.398" fill="none" /><path id="1714" transform="matrix(1 0 0 -1 0 792)" d="M540.021 439.178L540.021 452.745" stroke="#000000" stroke-width="0.398" fill="none" /><path id="1715" transform="matrix(1 0 0 -1 0 792)" d="M106.3 438.979L540.22 438.979" stroke="#000000" stroke-width="0.398" fill="none" /><path id="1716" transform="matrix(1 0 0 -1 0 792)" d="M106.5 411.682L106.5 438.78" stroke="#000000" stroke-width="0.398" fill="none" /><path id="1726" transform="matrix(1 0 0 -1 0 792)" d="M167.073 429.495L170.062 429.495" stroke="#000000" stroke-width="0.398" fill="none" /><path id="1732" transform="matrix(1 0 0 -1 0 792)" d="M200.547 429.495L203.536 429.495" stroke="#000000" stroke-width="0.398" fill="none" /><path id="1738" transform="matrix(1 0 0 -1 0 792)" d="M234.021 429.495L237.01 429.495" stroke="#000000" stroke-width="0.398" fill="none" /><path id="1745" transform="matrix(1 0 0 -1 0 792)" d="M273.474 429.495L276.463 429.495" stroke="#000000" stroke-width="0.398" fill="none" /><path id="1754" transform="matrix(1 0 0 -1 0 792)" d="M298.853 411.682L298.853 438.78" stroke="#000000" stroke-width="0.398" fill="none" /><path id="1756" transform="matrix(1 0 0 -1 0 792)" d="M357.875 411.682L357.875 438.78" stroke="#000000" stroke-width="0.398" fill="none" /><path id="1758" transform="matrix(1 0 0 -1 0 792)" d="M416.898 411.682L416.898 438.78" stroke="#000000" stroke-width="0.398" fill="none" /><path id="1760" transform="matrix(1 0 0 -1 0 792)" d="M540.021 411.682L540.021 438.78" stroke="#000000" stroke-width="0.398" fill="none" /><path id="1761" transform="matrix(1 0 0 -1 0 792)" d="M106.3 411.482L540.22 411.482" stroke="#000000" stroke-width="0.398" fill="none" /><path id="1762" transform="matrix(1 0 0 -1 0 792)" d="M106.5 384.185L106.5 411.283" stroke="#000000" stroke-width="0.398" fill="none" /><path id="1770" transform="matrix(1 0 0 -1 0 792)" d="M155.117 401.998L158.106 401.998" stroke="#000000" stroke-width="0.398" fill="none" /><path id="1776" transform="matrix(1 0 0 -1 0 792)" d="M188.592 401.998L191.581 401.998" stroke="#000000" stroke-width="0.398" fill="none" /><path id="1782" transform="matrix(1 0 0 -1 0 792)" d="M222.066 401.998L225.055 401.998" stroke="#000000" stroke-width="0.398" fill="none" /><path id="1789" transform="matrix(1 0 0 -1 0 792)" d="M261.518 401.998L264.507 401.998" stroke="#000000" stroke-width="0.398" fill="none" /><path id="1798" transform="matrix(1 0 0 -1 0 792)" d="M298.853 384.185L298.853 411.283" stroke="#000000" stroke-width="0.398" fill="none" /><path id="1800" transform="matrix(1 0 0 -1 0 792)" d="M357.875 384.185L357.875 411.283" stroke="#000000" stroke-width="0.398" fill="none" /><path id="1802" transform="matrix(1 0 0 -1 0 792)" d="M416.898 384.185L416.898 411.283" stroke="#000000" stroke-width="0.398" fill="none" /><path id="1804" transform="matrix(1 0 0 -1 0 792)" d="M540.021 384.185L540.021 411.283" stroke="#000000" stroke-width="0.398" fill="none" /><path id="1805" transform="matrix(1 0 0 -1 0 792)" d="M106.3 383.985L540.22 383.985" stroke="#000000" stroke-width="0.398" fill="none" /><path id="1806" transform="matrix(1 0 0 -1 0 792)" d="M106.5 370.22L106.5 383.787" stroke="#000000" stroke-width="0.398" fill="none" /><path id="1814" transform="matrix(1 0 0 -1 0 792)" d="M155.117 374.501L158.106 374.501" stroke="#000000" stroke-width="0.398" fill="none" /><path id="1820" transform="matrix(1 0 0 -1 0 792)" d="M188.592 374.501L191.581 374.501" stroke="#000000" stroke-width="0.398" fill="none" /><path id="1827" transform="matrix(1 0 0 -1 0 792)" d="M228.044 374.501L231.033 374.501" stroke="#000000" stroke-width="0.398" fill="none" /><path id="1835" transform="matrix(1 0 0 -1 0 792)" d="M298.853 370.22L298.853 383.787" stroke="#000000" stroke-width="0.398" fill="none" /><path id="1837" transform="matrix(1 0 0 -1 0 792)" d="M357.875 370.22L357.875 383.787" stroke="#000000" stroke-width="0.398" fill="none" /><path id="1839" transform="matrix(1 0 0 -1 0 792)" d="M416.898 370.22L416.898 383.787" stroke="#000000" stroke-width="0.398" fill="none" /><path id="1851" transform="matrix(1 0 0 -1 0 792)" d="M540.021 370.22L540.021 383.787" stroke="#000000" stroke-width="0.398" fill="none" /><path id="1852" transform="matrix(1 0 0 -1 0 792)" d="M106.3 370.02L540.22 370.02" stroke="#000000" stroke-width="0.398" fill="none" /><path id="1853" transform="matrix(1 0 0 -1 0 792)" d="M106.5 342.723L106.5 369.821" stroke="#000000" stroke-width="0.398" fill="none" /><path id="1860" transform="matrix(1 0 0 -1 0 792)" d="M149.14 360.536L152.129 360.536" stroke="#000000" stroke-width="0.398" fill="none" /><path id="1867" transform="matrix(1 0 0 -1 0 792)" d="M188.592 360.536L191.581 360.536" stroke="#000000" stroke-width="0.398" fill="none" /><path id="1873" transform="matrix(1 0 0 -1 0 792)" d="M222.066 360.536L225.055 360.536" stroke="#000000" stroke-width="0.398" fill="none" /><path id="1880" transform="matrix(1 0 0 -1 0 792)" d="M261.518 360.536L264.507 360.536" stroke="#000000" stroke-width="0.398" fill="none" /><path id="1889" transform="matrix(1 0 0 -1 0 792)" d="M298.853 342.723L298.853 369.821" stroke="#000000" stroke-width="0.398" fill="none" /><path id="1891" transform="matrix(1 0 0 -1 0 792)" d="M357.875 342.723L357.875 369.821" stroke="#000000" stroke-width="0.398" fill="none" /><path id="1893" transform="matrix(1 0 0 -1 0 792)" d="M416.898 342.723L416.898 369.821" stroke="#000000" stroke-width="0.398" fill="none" /><path id="1909" transform="matrix(1 0 0 -1 0 792)" d="M540.021 342.723L540.021 369.821" stroke="#000000" stroke-width="0.398" fill="none" /><path id="1910" transform="matrix(1 0 0 -1 0 792)" d="M106.3 342.523L540.22 342.523" stroke="#000000" stroke-width="0.398" fill="none" /><path id="1941" transform="matrix(1 0 0 -1 0 792)" d="M98.013 234.669L548.507 234.669" stroke="#000000" stroke-width="0.398" fill="none" /><path id="1942" transform="matrix(1 0 0 -1 0 792)" d="M98.213 220.903L98.213 234.47" stroke="#000000" stroke-width="0.398" fill="none" /><path id="1943" transform="matrix(1 0 0 -1 0 792)" d="M98.412 220.903L290.367 220.903L290.367 234.47L98.412 234.47z" stroke="none" fill="#CCCCEB" fill-rule="nonzero" /><path id="1949" transform="matrix(1 0 0 -1 0 792)" d="M290.566 220.903L290.566 234.47" stroke="#000000" stroke-width="0.398" fill="none" /><path id="1950" transform="matrix(1 0 0 -1 0 792)" d="M290.766 220.903L349.39 220.903L349.39 234.47L290.766 234.47z" stroke="none" fill="#CCCCEB" fill-rule="nonzero" /><path id="1960" transform="matrix(1 0 0 -1 0 792)" d="M349.588 220.903L349.588 234.47" stroke="#000000" stroke-width="0.398" fill="none" /><path id="1961" transform="matrix(1 0 0 -1 0 792)" d="M349.788 220.903L430.56 220.903L430.56 234.47L349.788 234.47z" stroke="none" fill="#CCCCEB" fill-rule="nonzero" /><path id="1969" transform="matrix(1 0 0 -1 0 792)" d="M430.759 220.903L430.759 234.47" stroke="#000000" stroke-width="0.398" fill="none" /><path id="1970" transform="matrix(1 0 0 -1 0 792)" d="M430.958 220.903L548.108 220.903L548.108 234.47L430.958 234.47z" stroke="none" fill="#CCCCEB" fill-rule="nonzero" /><path id="1974" transform="matrix(1 0 0 -1 0 792)" d="M548.308 220.903L548.308 234.47" stroke="#000000" stroke-width="0.398" fill="none" /><path id="1975" transform="matrix(1 0 0 -1 0 792)" d="M98.213 207.337L98.213 220.904" stroke="#000000" stroke-width="0.398" fill="none" /><path id="1976" transform="matrix(1 0 0 -1 0 792)" d="M98.412 207.337L290.367 207.337L290.367 220.904L98.412 220.904z" stroke="none" fill="#CCCCEB" fill-rule="nonzero" /><path id="1977" transform="matrix(1 0 0 -1 0 792)" d="M290.566 207.337L290.566 220.904" stroke="#000000" stroke-width="0.398" fill="none" /><path id="1978" transform="matrix(1 0 0 -1 0 792)" d="M290.766 207.337L349.39 207.337L349.39 220.904L290.766 220.904z" stroke="none" fill="#CCCCEB" fill-rule="nonzero" /><path id="1979" transform="matrix(1 0 0 -1 0 792)" d="M349.588 207.337L349.588 220.904" stroke="#000000" stroke-width="0.398" fill="none" /><path id="1980" transform="matrix(1 0 0 -1 0 792)" d="M349.788 207.337L430.56 207.337L430.56 220.904L349.788 220.904z" stroke="none" fill="#CCCCEB" fill-rule="nonzero" /><path id="1986" transform="matrix(1 0 0 -1 0 792)" d="M430.759 207.337L430.759 220.904" stroke="#000000" stroke-width="0.398" fill="none" /><path id="1987" transform="matrix(1 0 0 -1 0 792)" d="M430.958 207.337L548.108 207.337L548.108 220.904L430.958 220.904z" stroke="none" fill="#CCCCEB" fill-rule="nonzero" /><path id="1988" transform="matrix(1 0 0 -1 0 792)" d="M548.308 207.337L548.308 220.904" stroke="#000000" stroke-width="0.398" fill="none" /><path id="1989" transform="matrix(1 0 0 -1 0 792)" d="M98.013 207.137L548.507 207.137" stroke="#000000" stroke-width="0.398" fill="none" /><path id="1990" transform="matrix(1 0 0 -1 0 792)" d="M98.013 204.746L548.507 204.746" stroke="#000000" stroke-width="0.398" fill="none" /><path id="1991" transform="matrix(1 0 0 -1 0 792)" d="M98.213 190.98L98.213 204.547" stroke="#000000" stroke-width="0.398" fill="none" /><path id="1998" transform="matrix(1 0 0 -1 0 792)" d="M140.853 195.262L143.842 195.262" stroke="#000000" stroke-width="0.398" fill="none" /><path id="2003" transform="matrix(1 0 0 -1 0 792)" d="M290.566 190.98L290.566 204.547" stroke="#000000" stroke-width="0.398" fill="none" /><path id="2005" transform="matrix(1 0 0 -1 0 792)" d="M349.588 190.98L349.588 204.547" stroke="#000000" stroke-width="0.398" fill="none" /><path id="2007" transform="matrix(1 0 0 -1 0 792)" d="M430.759 190.98L430.759 204.547" stroke="#000000" stroke-width="0.398" fill="none" /><path id="2028" transform="matrix(1 0 0 -1 0 792)" d="M548.308 190.98L548.308 204.547" stroke="#000000" stroke-width="0.398" fill="none" /><path id="2029" transform="matrix(1 0 0 -1 0 792)" d="M98.013 190.781L548.507 190.781" stroke="#000000" stroke-width="0.398" fill="none" /><path id="2030" transform="matrix(1 0 0 -1 0 792)" d="M98.213 177.015L98.213 190.582" stroke="#000000" stroke-width="0.398" fill="none" /><path id="2037" transform="matrix(1 0 0 -1 0 792)" d="M140.853 181.297L143.842 181.297" stroke="#000000" stroke-width="0.398" fill="none" /><path id="2043" transform="matrix(1 0 0 -1 0 792)" d="M290.566 177.015L290.566 190.582" stroke="#000000" stroke-width="0.398" fill="none" /><path id="2045" transform="matrix(1 0 0 -1 0 792)" d="M349.588 177.015L349.588 190.582" stroke="#000000" stroke-width="0.398" fill="none" /><path id="2052" transform="matrix(1 0 0 -1 0 792)" d="M394.956 181.279L397.945 181.279" stroke="#000000" stroke-width="0.398" fill="none" /><path id="2057" transform="matrix(1 0 0 -1 0 792)" d="M430.759 177.015L430.759 190.582" stroke="#000000" stroke-width="0.398" fill="none" /><path id="2078" transform="matrix(1 0 0 -1 0 792)" d="M548.308 177.015L548.308 190.582" stroke="#000000" stroke-width="0.398" fill="none" /><path id="2079" transform="matrix(1 0 0 -1 0 792)" d="M98.013 176.816L548.507 176.816" stroke="#000000" stroke-width="0.398" fill="none" /><path id="2080" transform="matrix(1 0 0 -1 0 792)" d="M98.213 163.05L98.213 176.617" stroke="#000000" stroke-width="0.398" fill="none" /><path id="2087" transform="matrix(1 0 0 -1 0 792)" d="M140.853 167.332L143.842 167.332" stroke="#000000" stroke-width="0.398" fill="none" /><path id="2094" transform="matrix(1 0 0 -1 0 792)" d="M290.566 163.05L290.566 176.617" stroke="#000000" stroke-width="0.398" fill="none" /><path id="2096" transform="matrix(1 0 0 -1 0 792)" d="M349.588 163.05L349.588 176.617" stroke="#000000" stroke-width="0.398" fill="none" /><path id="2098" transform="matrix(1 0 0 -1 0 792)" d="M430.759 163.05L430.759 176.617" stroke="#000000" stroke-width="0.398" fill="none" /><path id="2100" transform="matrix(1 0 0 -1 0 792)" d="M548.308 163.05L548.308 176.617" stroke="#000000" stroke-width="0.398" fill="none" /><path id="2101" transform="matrix(1 0 0 -1 0 792)" d="M98.013 162.851L548.507 162.851" stroke="#000000" stroke-width="0.398" fill="none" /><path id="2102" transform="matrix(1 0 0 -1 0 792)" d="M98.213 149.085L98.213 162.652" stroke="#000000" stroke-width="0.398" fill="none" /><path id="2109" transform="matrix(1 0 0 -1 0 792)" d="M140.853 153.367L143.842 153.367" stroke="#000000" stroke-width="0.398" fill="none" /><path id="2116" transform="matrix(1 0 0 -1 0 792)" d="M290.566 149.085L290.566 162.652" stroke="#000000" stroke-width="0.398" fill="none" /><path id="2118" transform="matrix(1 0 0 -1 0 792)" d="M349.588 149.085L349.588 162.652" stroke="#000000" stroke-width="0.398" fill="none" /><path id="2120" transform="matrix(1 0 0 -1 0 792)" d="M430.759 149.085L430.759 162.652" stroke="#000000" stroke-width="0.398" fill="none" /><path id="2122" transform="matrix(1 0 0 -1 0 792)" d="M548.308 149.085L548.308 162.652" stroke="#000000" stroke-width="0.398" fill="none" /><path id="2123" transform="matrix(1 0 0 -1 0 792)" d="M98.013 148.886L548.507 148.886" stroke="#000000" stroke-width="0.398" fill="none" /><path id="2124" transform="matrix(1 0 0 -1 0 792)" d="M98.213 135.12L98.213 148.687" stroke="#000000" stroke-width="0.398" fill="none" /><path id="2131" transform="matrix(1 0 0 -1 0 792)" d="M140.853 139.401L143.842 139.401" stroke="#000000" stroke-width="0.398" fill="none" /><path id="2135" transform="matrix(1 0 0 -1 0 792)" d="M162.372 139.401L165.361 139.401" stroke="#000000" stroke-width="0.398" fill="none" /><path id="2143" transform="matrix(1 0 0 -1 0 792)" d="M290.566 135.12L290.566 148.687" stroke="#000000" stroke-width="0.398" fill="none" /><path id="2145" transform="matrix(1 0 0 -1 0 792)" d="M349.588 135.12L349.588 148.687" stroke="#000000" stroke-width="0.398" fill="none" /><path id="2150" transform="matrix(1 0 0 -1 0 792)" d="M430.759 135.12L430.759 148.687" stroke="#000000" stroke-width="0.398" fill="none" /><path id="2152" transform="matrix(1 0 0 -1 0 792)" d="M548.308 135.12L548.308 148.687" stroke="#000000" stroke-width="0.398" fill="none" /><path id="2153" transform="matrix(1 0 0 -1 0 792)" d="M98.013 134.921L548.507 134.921" stroke="#000000" stroke-width="0.398" fill="none" /></g></g></svg>