<svg xmlns="http://www.w3.org/2000/svg" xmlns:xlink="http://www.w3.org/1999/xlink" id="body_47" preserveAspectRatio="xMinYMin meet" viewBox="0 0 1632 1056"><defs><clipPath id="1"><path id="" clip-rule="evenodd" transform="matrix(1 0 0 1 0 0)" d="M0 792L0 0L0 0L1224 0L1224 0L1224 792L1224 792L0 792z" /></clipPath></defs><g transform="matrix(1.333333 0 0 1.333333 0 0)"><g clip-path="url(#1)"><path id="1" transform="matrix(1 0 0 -1 0 792)" d="M701.933 721.28L1168.588 721.28" stroke="#000000" stroke-width="0.498" fill="none" /><path id="2" transform="matrix(1 0 0 -1 0 792)" d="M742.795 696.423L1127.726 696.423" stroke="#000000" stroke-width="0.398" fill="none" /><path id="3" transform="matrix(1 0 0 -1 0 792)" d="M742.795 696.423L1127.726 696.423" stroke="#000000" stroke-width="0.398" fill="none" /><path id="4" transform="matrix(1 0 0 -1 0 792)" d="M742.994 682.658L742.994 696.225" stroke="#000000" stroke-width="0.398" fill="none" /><path id="5" transform="matrix(1 0 0 -1 0 792)" d="M743.193 682.658L1071.948 682.658L1071.948 696.225L743.193 696.225z" stroke="none" fill="#CCCCEB" fill-rule="nonzero" /><path id="15" transform="matrix(1 0 0 -1 0 792)" d="M1072.147 682.658L1072.147 696.225" stroke="#000000" stroke-width="0.398" fill="none" /><path id="16" transform="matrix(1 0 0 -1 0 792)" d="M1072.347 682.658L1127.327 682.658L1127.327 696.225L1072.347 696.225z" stroke="none" fill="#CCCCEB" fill-rule="nonzero" /><path id="23" transform="matrix(1 0 0 -1 0 792)" d="M1127.526 682.658L1127.526 696.225" stroke="#000000" stroke-width="0.398" fill="none" /><path id="24" transform="matrix(1 0 0 -1 0 792)" d="M742.795 682.458L1127.726 682.458" stroke="#000000" stroke-width="0.398" fill="none" /><path id="25" transform="matrix(1 0 0 -1 0 792)" d="M742.795 682.458L1127.726 682.458" stroke="#000000" stroke-width="0.398" fill="none" /><path id="26" transform="matrix(1 0 0 -1 0 792)" d="M742.795 682.06L1127.726 682.06" stroke="#000000" stroke-width="0.398" fill="none" /><path id="27" transform="matrix(1 0 0 -1 0 792)" d="M742.795 682.06L1127.726 682.06" stroke="#000000" stroke-width="0.398" fill="none" /><path id="28" transform="matrix(1 0 0 -1 0 792)" d="M742.795 682.06L1127.726 682.06" stroke="#000000" stroke-width="0.398" fill="none" /><path id="29" transform="matrix(1 0 0 -1 0 792)" d="M742.994 668.294L742.994 681.861" stroke="#000000" stroke-width="0.398" fill="none" /><path id="77" transform="matrix(1 0 0 -1 0 792)" d="M1072.147 668.294L1072.147 681.861" stroke="#000000" stroke-width="0.398" fill="none" /><path id="79" transform="matrix(1 0 0 -1 0 792)" d="M1127.526 668.294L1127.526 681.861" stroke="#000000" stroke-width="0.398" fill="none" /><path id="80" transform="matrix(1 0 0 -1 0 792)" d="M742.795 668.095L1127.726 668.095" stroke="#000000" stroke-width="0.398" fill="none" /><path id="81" transform="matrix(1 0 0 -1 0 792)" d="M742.795 668.095L1127.726 668.095" stroke="#000000" stroke-width="0.398" fill="none" /><path id="82" transform="matrix(1 0 0 -1 0 792)" d="M742.994 654.329L742.994 667.896" stroke="#000000" stroke-width="0.398" fill="none" /><path id="136" transform="matrix(1 0 0 -1 0 792)" d="M1072.147 654.329L1072.147 667.896" stroke="#000000" stroke-width="0.398" fill="none" /><path id="138" transform="matrix(1 0 0 -1 0 792)" d="M1127.526 654.329L1127.526 667.896" stroke="#000000" stroke-width="0.398" fill="none" /><path id="139" transform="matrix(1 0 0 -1 0 792)" d="M742.795 654.129L1127.726 654.129" stroke="#000000" stroke-width="0.398" fill="none" /><path id="140" transform="matrix(1 0 0 -1 0 792)" d="M742.795 654.129L1127.726 654.129" stroke="#000000" stroke-width="0.398" fill="none" /><path id="141" transform="matrix(1 0 0 -1 0 792)" d="M742.994 640.364L742.994 653.931" stroke="#000000" stroke-width="0.398" fill="none" /><path id="187" transform="matrix(1 0 0 -1 0 792)" d="M1072.147 640.364L1072.147 653.931" stroke="#000000" stroke-width="0.398" fill="none" /><path id="189" transform="matrix(1 0 0 -1 0 792)" d="M1127.526 640.364L1127.526 653.931" stroke="#000000" stroke-width="0.398" fill="none" /><path id="190" transform="matrix(1 0 0 -1 0 792)" d="M742.795 640.164L1127.726 640.164" stroke="#000000" stroke-width="0.398" fill="none" /><path id="191" transform="matrix(1 0 0 -1 0 792)" d="M742.795 640.164L1127.726 640.164" stroke="#000000" stroke-width="0.398" fill="none" /><path id="192" transform="matrix(1 0 0 -1 0 792)" d="M742.994 626.398L742.994 639.965" stroke="#000000" stroke-width="0.398" fill="none" /><path id="231" transform="matrix(1 0 0 -1 0 792)" d="M1072.147 626.398L1072.147 639.965" stroke="#000000" stroke-width="0.398" fill="none" /><path id="233" transform="matrix(1 0 0 -1 0 792)" d="M1127.526 626.398L1127.526 639.965" stroke="#000000" stroke-width="0.398" fill="none" /><path id="234" transform="matrix(1 0 0 -1 0 792)" d="M742.795 626.199L1127.726 626.199" stroke="#000000" stroke-width="0.398" fill="none" /><path id="235" transform="matrix(1 0 0 -1 0 792)" d="M742.795 626.199L1127.726 626.199" stroke="#000000" stroke-width="0.398" fill="none" /><path id="236" transform="matrix(1 0 0 -1 0 792)" d="M742.994 598.902L742.994 626" stroke="#000000" stroke-width="0.398" fill="none" /><path id="323" transform="matrix(1 0 0 -1 0 792)" d="M1072.147 598.902L1072.147 626" stroke="#000000" stroke-width="0.398" fill="none" /><path id="325" transform="matrix(1 0 0 -1 0 792)" d="M1127.526 598.902L1127.526 626" stroke="#000000" stroke-width="0.398" fill="none" /><path id="326" transform="matrix(1 0 0 -1 0 792)" d="M742.795 598.702L1127.726 598.702" stroke="#000000" stroke-width="0.398" fill="none" /><path id="327" transform="matrix(1 0 0 -1 0 792)" d="M742.795 598.702L1127.726 598.702" stroke="#000000" stroke-width="0.398" fill="none" /><path id="328" transform="matrix(1 0 0 -1 0 792)" d="M742.994 571.405L742.994 598.5031" stroke="#000000" stroke-width="0.398" fill="none" /><path id="423" transform="matrix(1 0 0 -1 0 792)" d="M1072.147 571.405L1072.147 598.5031" stroke="#000000" stroke-width="0.398" fill="none" /><path id="425" transform="matrix(1 0 0 -1 0 792)" d="M1127.526 571.405L1127.526 598.5031" stroke="#000000" stroke-width="0.398" fill="none" /><path id="426" transform="matrix(1 0 0 -1 0 792)" d="M742.795 571.205L1127.726 571.205" stroke="#000000" stroke-width="0.398" fill="none" /><path id="427" transform="matrix(1 0 0 -1 0 792)" d="M742.795 571.205L1127.726 571.205" stroke="#000000" stroke-width="0.398" fill="none" /><path id="428" transform="matrix(1 0 0 -1 0 792)" d="M701.933 722.529L1168.588 722.529L1168.588 722.529L1168.588 735.6745L1168.588 735.6745L701.933 735.6745z" stroke="#FFFFFF" stroke-width="1" fill="#FFFFFF" fill-rule="nonzero" /><path id="501" transform="matrix(1 0 0 -1 0 792)" d="M89.933 721.28L556.588 721.28" stroke="#000000" stroke-width="0.498" fill="none" /><path id="502" transform="matrix(1 0 0 -1 0 792)" d="M130.795 696.423L515.726 696.423" stroke="#000000" stroke-width="0.398" fill="none" /><path id="503" transform="matrix(1 0 0 -1 0 792)" d="M130.795 696.423L515.726 696.423" stroke="#000000" stroke-width="0.398" fill="none" /><path id="504" transform="matrix(1 0 0 -1 0 792)" d="M130.994 682.658L130.994 696.225" stroke="#000000" stroke-width="0.398" fill="none" /><path id="505" transform="matrix(1 0 0 -1 0 792)" d="M131.193 682.658L459.948 682.658L459.948 696.225L131.193 696.225z" stroke="none" fill="#CCCCEB" fill-rule="nonzero" /><path id="515" transform="matrix(1 0 0 -1 0 792)" d="M460.147 682.658L460.147 696.225" stroke="#000000" stroke-width="0.398" fill="none" /><path id="516" transform="matrix(1 0 0 -1 0 792)" d="M460.347 682.658L515.327 682.658L515.327 696.225L460.347 696.225z" stroke="none" fill="#CCCCEB" fill-rule="nonzero" /><path id="523" transform="matrix(1 0 0 -1 0 792)" d="M515.526 682.658L515.526 696.225" stroke="#000000" stroke-width="0.398" fill="none" /><path id="524" transform="matrix(1 0 0 -1 0 792)" d="M130.795 682.458L515.726 682.458" stroke="#000000" stroke-width="0.398" fill="none" /><path id="525" transform="matrix(1 0 0 -1 0 792)" d="M130.795 682.458L515.726 682.458" stroke="#000000" stroke-width="0.398" fill="none" /><path id="526" transform="matrix(1 0 0 -1 0 792)" d="M130.795 682.06L515.726 682.06" stroke="#000000" stroke-width="0.398" fill="none" /><path id="527" transform="matrix(1 0 0 -1 0 792)" d="M130.795 682.06L515.726 682.06" stroke="#000000" stroke-width="0.398" fill="none" /><path id="528" transform="matrix(1 0 0 -1 0 792)" d="M130.795 682.06L515.726 682.06" stroke="#000000" stroke-width="0.398" fill="none" /><path id="529" transform="matrix(1 0 0 -1 0 792)" d="M130.994 668.294L130.994 681.861" stroke="#000000" stroke-width="0.398" fill="none" /><path id="577" transform="matrix(1 0 0 -1 0 792)" d="M460.147 668.294L460.147 681.861" stroke="#000000" stroke-width="0.398" fill="none" /><path id="579" transform="matrix(1 0 0 -1 0 792)" d="M515.526 668.294L515.526 681.861" stroke="#000000" stroke-width="0.398" fill="none" /><path id="580" transform="matrix(1 0 0 -1 0 792)" d="M130.795 668.095L515.726 668.095" stroke="#000000" stroke-width="0.398" fill="none" /><path id="581" transform="matrix(1 0 0 -1 0 792)" d="M130.795 668.095L515.726 668.095" stroke="#000000" stroke-width="0.398" fill="none" /><path id="582" transform="matrix(1 0 0 -1 0 792)" d="M130.994 654.329L130.994 667.896" stroke="#000000" stroke-width="0.398" fill="none" /><path id="636" transform="matrix(1 0 0 -1 0 792)" d="M460.147 654.329L460.147 667.896" stroke="#000000" stroke-width="0.398" fill="none" /><path id="638" transform="matrix(1 0 0 -1 0 792)" d="M515.526 654.329L515.526 667.896" stroke="#000000" stroke-width="0.398" fill="none" /><path id="639" transform="matrix(1 0 0 -1 0 792)" d="M130.795 654.129L515.726 654.129" stroke="#000000" stroke-width="0.398" fill="none" /><path id="640" transform="matrix(1 0 0 -1 0 792)" d="M130.795 654.129L515.726 654.129" stroke="#000000" stroke-width="0.398" fill="none" /><path id="641" transform="matrix(1 0 0 -1 0 792)" d="M130.994 640.364L130.994 653.931" stroke="#000000" stroke-width="0.398" fill="none" /><path id="687" transform="matrix(1 0 0 -1 0 792)" d="M460.147 640.364L460.147 653.931" stroke="#000000" stroke-width="0.398" fill="none" /><path id="689" transform="matrix(1 0 0 -1 0 792)" d="M515.526 640.364L515.526 653.931" stroke="#000000" stroke-width="0.398" fill="none" /><path id="690" transform="matrix(1 0 0 -1 0 792)" d="M130.795 640.164L515.726 640.164" stroke="#000000" stroke-width="0.398" fill="none" /><path id="691" transform="matrix(1 0 0 -1 0 792)" d="M130.795 640.164L515.726 640.164" stroke="#000000" stroke-width="0.398" fill="none" /><path id="692" transform="matrix(1 0 0 -1 0 792)" d="M130.994 626.398L130.994 639.965" stroke="#000000" stroke-width="0.398" fill="none" /><path id="731" transform="matrix(1 0 0 -1 0 792)" d="M460.147 626.398L460.147 639.965" stroke="#000000" stroke-width="0.398" fill="none" /><path id="733" transform="matrix(1 0 0 -1 0 792)" d="M515.526 626.398L515.526 639.965" stroke="#000000" stroke-width="0.398" fill="none" /><path id="734" transform="matrix(1 0 0 -1 0 792)" d="M130.795 626.199L515.726 626.199" stroke="#000000" stroke-width="0.398" fill="none" /><path id="735" transform="matrix(1 0 0 -1 0 792)" d="M130.795 626.199L515.726 626.199" stroke="#000000" stroke-width="0.398" fill="none" /><path id="736" transform="matrix(1 0 0 -1 0 792)" d="M130.994 598.902L130.994 626" stroke="#000000" stroke-width="0.398" fill="none" /><path id="823" transform="matrix(1 0 0 -1 0 792)" d="M460.147 598.902L460.147 626" stroke="#000000" stroke-width="0.398" fill="none" /><path id="825" transform="matrix(1 0 0 -1 0 792)" d="M515.526 598.902L515.526 626" stroke="#000000" stroke-width="0.398" fill="none" /><path id="826" transform="matrix(1 0 0 -1 0 792)" d="M130.795 598.702L515.726 598.702" stroke="#000000" stroke-width="0.398" fill="none" /><path id="827" transform="matrix(1 0 0 -1 0 792)" d="M130.795 598.702L515.726 598.702" stroke="#000000" stroke-width="0.398" fill="none" /><path id="828" transform="matrix(1 0 0 -1 0 792)" d="M130.994 571.405L130.994 598.5031" stroke="#000000" stroke-width="0.398" fill="none" /><path id="923" transform="matrix(1 0 0 -1 0 792)" d="M460.147 571.405L460.147 598.5031" stroke="#000000" stroke-width="0.398" fill="none" /><path id="925" transform="matrix(1 0 0 -1 0 792)" d="M515.526 571.405L515.526 598.5031" stroke="#000000" stroke-width="0.398" fill="none" /><path id="926" transform="matrix(1 0 0 -1 0 792)" d="M130.795 571.205L515.726 571.205" stroke="#000000" stroke-width="0.398" fill="none" /><path id="927" transform="matrix(1 0 0 -1 0 792)" d="M130.795 571.205L515.726 571.205" stroke="#000000" stroke-width="0.398" fill="none" /></g></g></svg>