<svg xmlns="http://www.w3.org/2000/svg" xmlns:xlink="http://www.w3.org/1999/xlink" id="body_52" preserveAspectRatio="xMinYMin meet" viewBox="0 0 1632 1056"><defs><clipPath id="1"><path id="" clip-rule="evenodd" transform="matrix(1 0 0 1 0 0)" d="M0 792L0 0L0 0L1224 0L1224 0L1224 792L1224 792L0 792z" /></clipPath></defs><g transform="matrix(1.333333 0 0 1.333333 0 0)"><g clip-path="url(#1)"><path id="1" transform="matrix(1 0 0 -1 0 792)" d="M666.067 721.28L1132.722 721.28" stroke="#000000" stroke-width="0.498" fill="none" /><path id="2" transform="matrix(1 0 0 -1 0 792)" d="M706.929 644.049L1091.86 644.049" stroke="#000000" stroke-width="0.398" fill="none" /><path id="3" transform="matrix(1 0 0 -1 0 792)" d="M706.929 644.049L1091.86 644.049" stroke="#000000" stroke-width="0.398" fill="none" /><path id="4" transform="matrix(1 0 0 -1 0 792)" d="M707.129 630.283L707.129 643.85" stroke="#000000" stroke-width="0.398" fill="none" /><path id="5" transform="matrix(1 0 0 -1 0 792)" d="M707.328 630.283L1036.083 630.283L1036.083 643.85L707.328 643.85z" stroke="none" fill="#CCCCEB" fill-rule="nonzero" /><path id="15" transform="matrix(1 0 0 -1 0 792)" d="M1036.282 630.283L1036.282 643.85" stroke="#000000" stroke-width="0.398" fill="none" /><path id="16" transform="matrix(1 0 0 -1 0 792)" d="M1036.481 630.283L1091.461 630.283L1091.461 643.85L1036.481 643.85z" stroke="none" fill="#CCCCEB" fill-rule="nonzero" /><path id="23" transform="matrix(1 0 0 -1 0 792)" d="M1091.661 630.283L1091.661 643.85" stroke="#000000" stroke-width="0.398" fill="none" /><path id="24" transform="matrix(1 0 0 -1 0 792)" d="M706.929 630.084L1091.86 630.084" stroke="#000000" stroke-width="0.398" fill="none" /><path id="25" transform="matrix(1 0 0 -1 0 792)" d="M706.929 630.084L1091.86 630.084" stroke="#000000" stroke-width="0.398" fill="none" /><path id="26" transform="matrix(1 0 0 -1 0 792)" d="M706.929 629.686L1091.86 629.686" stroke="#000000" stroke-width="0.398" fill="none" /><path id="27" transform="matrix(1 0 0 -1 0 792)" d="M706.929 629.686L1091.86 629.686" stroke="#000000" stroke-width="0.398" fill="none" /><path id="28" transform="matrix(1 0 0 -1 0 792)" d="M707.129 615.92L707.129 629.487" stroke="#000000" stroke-width="0.398" fill="none" /><path id="70" transform="matrix(1 0 0 -1 0 792)" d="M1036.282 615.92L1036.282 629.487" stroke="#000000" stroke-width="0.398" fill="none" /><path id="72" transform="matrix(1 0 0 -1 0 792)" d="M1091.661 615.92L1091.661 629.487" stroke="#000000" stroke-width="0.398" fill="none" /><path id="73" transform="matrix(1 0 0 -1 0 792)" d="M706.929 615.72L1091.86 615.72" stroke="#000000" stroke-width="0.398" fill="none" /><path id="74" transform="matrix(1 0 0 -1 0 792)" d="M706.929 615.72L1091.86 615.72" stroke="#000000" stroke-width="0.398" fill="none" /><path id="75" transform="matrix(1 0 0 -1 0 792)" d="M707.129 601.955L707.129 615.522" stroke="#000000" stroke-width="0.398" fill="none" /><path id="113" transform="matrix(1 0 0 -1 0 792)" d="M1036.282 601.955L1036.282 615.522" stroke="#000000" stroke-width="0.398" fill="none" /><path id="115" transform="matrix(1 0 0 -1 0 792)" d="M1091.661 601.955L1091.661 615.522" stroke="#000000" stroke-width="0.398" fill="none" /><path id="116" transform="matrix(1 0 0 -1 0 792)" d="M706.929 601.755L1091.86 601.755" stroke="#000000" stroke-width="0.398" fill="none" /><path id="117" transform="matrix(1 0 0 -1 0 792)" d="M706.929 601.755L1091.86 601.755" stroke="#000000" stroke-width="0.398" fill="none" /><path id="118" transform="matrix(1 0 0 -1 0 792)" d="M707.129 587.989L707.129 601.556" stroke="#000000" stroke-width="0.398" fill="none" /><path id="156" transform="matrix(1 0 0 -1 0 792)" d="M1036.282 587.989L1036.282 601.556" stroke="#000000" stroke-width="0.398" fill="none" /><path id="158" transform="matrix(1 0 0 -1 0 792)" d="M1091.661 587.989L1091.661 601.556" stroke="#000000" stroke-width="0.398" fill="none" /><path id="159" transform="matrix(1 0 0 -1 0 792)" d="M706.929 587.79L1091.86 587.79" stroke="#000000" stroke-width="0.398" fill="none" /><path id="160" transform="matrix(1 0 0 -1 0 792)" d="M706.929 587.79L1091.86 587.79" stroke="#000000" stroke-width="0.398" fill="none" /><path id="161" transform="matrix(1 0 0 -1 0 792)" d="M707.129 574.024L707.129 587.591" stroke="#000000" stroke-width="0.398" fill="none" /><path id="201" transform="matrix(1 0 0 -1 0 792)" d="M1036.282 574.024L1036.282 587.591" stroke="#000000" stroke-width="0.398" fill="none" /><path id="203" transform="matrix(1 0 0 -1 0 792)" d="M1091.661 574.024L1091.661 587.591" stroke="#000000" stroke-width="0.398" fill="none" /><path id="204" transform="matrix(1 0 0 -1 0 792)" d="M706.929 573.825L1091.86 573.825" stroke="#000000" stroke-width="0.398" fill="none" /><path id="205" transform="matrix(1 0 0 -1 0 792)" d="M706.929 573.825L1091.86 573.825" stroke="#000000" stroke-width="0.398" fill="none" /><path id="206" transform="matrix(1 0 0 -1 0 792)" d="M707.129 560.059L707.129 573.626" stroke="#000000" stroke-width="0.398" fill="none" /><path id="232" transform="matrix(1 0 0 -1 0 792)" d="M1036.282 560.059L1036.282 573.626" stroke="#000000" stroke-width="0.398" fill="none" /><path id="234" transform="matrix(1 0 0 -1 0 792)" d="M1091.661 560.059L1091.661 573.626" stroke="#000000" stroke-width="0.398" fill="none" /><path id="235" transform="matrix(1 0 0 -1 0 792)" d="M706.929 559.86L1091.86 559.86" stroke="#000000" stroke-width="0.398" fill="none" /><path id="236" transform="matrix(1 0 0 -1 0 792)" d="M706.929 559.86L1091.86 559.86" stroke="#000000" stroke-width="0.398" fill="none" /><path id="237" transform="matrix(1 0 0 -1 0 792)" d="M707.129 546.094L707.129 559.661" stroke="#000000" stroke-width="0.398" fill="none" /><path id="278" transform="matrix(1 0 0 -1 0 792)" d="M1036.282 546.094L1036.282 559.661" stroke="#000000" stroke-width="0.398" fill="none" /><path id="280" transform="matrix(1 0 0 -1 0 792)" d="M1091.661 546.094L1091.661 559.661" stroke="#000000" stroke-width="0.398" fill="none" /><path id="281" transform="matrix(1 0 0 -1 0 792)" d="M706.929 545.895L1091.86 545.895" stroke="#000000" stroke-width="0.398" fill="none" /><path id="282" transform="matrix(1 0 0 -1 0 792)" d="M706.929 545.895L1091.86 545.895" stroke="#000000" stroke-width="0.398" fill="none" /><path id="283" transform="matrix(1 0 0 -1 0 792)" d="M707.129 532.129L707.129 545.696" stroke="#000000" stroke-width="0.398" fill="none" /><path id="324" transform="matrix(1 0 0 -1 0 792)" d="M1036.282 532.129L1036.282 545.696" stroke="#000000" stroke-width="0.398" fill="none" /><path id="326" transform="matrix(1 0 0 -1 0 792)" d="M1091.661 532.129L1091.661 545.696" stroke="#000000" stroke-width="0.398" fill="none" /><path id="327" transform="matrix(1 0 0 -1 0 792)" d="M706.929 531.93L1091.86 531.93" stroke="#000000" stroke-width="0.398" fill="none" /><path id="328" transform="matrix(1 0 0 -1 0 792)" d="M706.929 531.93L1091.86 531.93" stroke="#000000" stroke-width="0.398" fill="none" /><path id="329" transform="matrix(1 0 0 -1 0 792)" d="M707.129 518.164L707.129 531.731" stroke="#000000" stroke-width="0.398" fill="none" /><path id="378" transform="matrix(1 0 0 -1 0 792)" d="M1036.282 518.164L1036.282 531.731" stroke="#000000" stroke-width="0.398" fill="none" /><path id="380" transform="matrix(1 0 0 -1 0 792)" d="M1091.661 518.164L1091.661 531.731" stroke="#000000" stroke-width="0.398" fill="none" /><path id="381" transform="matrix(1 0 0 -1 0 792)" d="M706.929 517.964L1091.86 517.964" stroke="#000000" stroke-width="0.398" fill="none" /><path id="382" transform="matrix(1 0 0 -1 0 792)" d="M706.929 517.964L1091.86 517.964" stroke="#000000" stroke-width="0.398" fill="none" /><path id="383" transform="matrix(1 0 0 -1 0 792)" d="M707.129 504.198L707.129 517.765" stroke="#000000" stroke-width="0.398" fill="none" /><path id="430" transform="matrix(1 0 0 -1 0 792)" d="M1036.282 504.198L1036.282 517.765" stroke="#000000" stroke-width="0.398" fill="none" /><path id="432" transform="matrix(1 0 0 -1 0 792)" d="M1091.661 504.198L1091.661 517.765" stroke="#000000" stroke-width="0.398" fill="none" /><path id="433" transform="matrix(1 0 0 -1 0 792)" d="M706.929 503.999L1091.86 503.999" stroke="#000000" stroke-width="0.398" fill="none" /><path id="434" transform="matrix(1 0 0 -1 0 792)" d="M706.929 503.999L1091.86 503.999" stroke="#000000" stroke-width="0.398" fill="none" /><path id="435" transform="matrix(1 0 0 -1 0 792)" d="M707.129 490.233L707.129 503.8" stroke="#000000" stroke-width="0.398" fill="none" /><path id="486" transform="matrix(1 0 0 -1 0 792)" d="M1036.282 490.233L1036.282 503.8" stroke="#000000" stroke-width="0.398" fill="none" /><path id="488" transform="matrix(1 0 0 -1 0 792)" d="M1091.661 490.233L1091.661 503.8" stroke="#000000" stroke-width="0.398" fill="none" /><path id="489" transform="matrix(1 0 0 -1 0 792)" d="M706.929 490.034L1091.86 490.034" stroke="#000000" stroke-width="0.398" fill="none" /><path id="490" transform="matrix(1 0 0 -1 0 792)" d="M706.929 490.034L1091.86 490.034" stroke="#000000" stroke-width="0.398" fill="none" /><path id="491" transform="matrix(1 0 0 -1 0 792)" d="M707.129 476.268L707.129 489.835" stroke="#000000" stroke-width="0.398" fill="none" /><path id="540" transform="matrix(1 0 0 -1 0 792)" d="M1036.282 476.268L1036.282 489.835" stroke="#000000" stroke-width="0.398" fill="none" /><path id="542" transform="matrix(1 0 0 -1 0 792)" d="M1091.661 476.268L1091.661 489.835" stroke="#000000" stroke-width="0.398" fill="none" /><path id="543" transform="matrix(1 0 0 -1 0 792)" d="M706.929 476.069L1091.86 476.069" stroke="#000000" stroke-width="0.398" fill="none" /><path id="544" transform="matrix(1 0 0 -1 0 792)" d="M706.929 476.069L1091.86 476.069" stroke="#000000" stroke-width="0.398" fill="none" /><path id="545" transform="matrix(1 0 0 -1 0 792)" d="M707.129 462.303L707.129 475.87" stroke="#000000" stroke-width="0.398" fill="none" /><path id="592" transform="matrix(1 0 0 -1 0 792)" d="M1036.282 462.303L1036.282 475.87" stroke="#000000" stroke-width="0.398" fill="none" /><path id="594" transform="matrix(1 0 0 -1 0 792)" d="M1091.661 462.303L1091.661 475.87" stroke="#000000" stroke-width="0.398" fill="none" /><path id="595" transform="matrix(1 0 0 -1 0 792)" d="M706.929 462.104L1091.86 462.104" stroke="#000000" stroke-width="0.398" fill="none" /><path id="596" transform="matrix(1 0 0 -1 0 792)" d="M706.929 462.104L1091.86 462.104" stroke="#000000" stroke-width="0.398" fill="none" /><path id="597" transform="matrix(1 0 0 -1 0 792)" d="M707.129 448.338L707.129 461.905" stroke="#000000" stroke-width="0.398" fill="none" /><path id="645" transform="matrix(1 0 0 -1 0 792)" d="M1036.282 448.338L1036.282 461.905" stroke="#000000" stroke-width="0.398" fill="none" /><path id="647" transform="matrix(1 0 0 -1 0 792)" d="M1091.661 448.338L1091.661 461.905" stroke="#000000" stroke-width="0.398" fill="none" /><path id="648" transform="matrix(1 0 0 -1 0 792)" d="M706.929 448.139L1091.86 448.139" stroke="#000000" stroke-width="0.398" fill="none" /><path id="649" transform="matrix(1 0 0 -1 0 792)" d="M706.929 448.139L1091.86 448.139" stroke="#000000" stroke-width="0.398" fill="none" /><path id="650" transform="matrix(1 0 0 -1 0 792)" d="M707.129 420.841L707.129 447.939" stroke="#000000" stroke-width="0.398" fill="none" /><path id="706" transform="matrix(1 0 0 -1 0 792)" d="M1036.282 420.841L1036.282 447.939" stroke="#000000" stroke-width="0.398" fill="none" /><path id="708" transform="matrix(1 0 0 -1 0 792)" d="M1091.661 420.841L1091.661 447.939" stroke="#000000" stroke-width="0.398" fill="none" /><path id="709" transform="matrix(1 0 0 -1 0 792)" d="M706.929 420.642L1091.86 420.642" stroke="#000000" stroke-width="0.398" fill="none" /><path id="710" transform="matrix(1 0 0 -1 0 792)" d="M706.929 420.642L1091.86 420.642" stroke="#000000" stroke-width="0.398" fill="none" /><path id="711" transform="matrix(1 0 0 -1 0 792)" d="M707.129 393.344L707.129 420.442" stroke="#000000" stroke-width="0.398" fill="none" /><path id="779" transform="matrix(1 0 0 -1 0 792)" d="M1036.282 393.344L1036.282 420.442" stroke="#000000" stroke-width="0.398" fill="none" /><path id="781" transform="matrix(1 0 0 -1 0 792)" d="M1091.661 393.344L1091.661 420.442" stroke="#000000" stroke-width="0.398" fill="none" /><path id="782" transform="matrix(1 0 0 -1 0 792)" d="M706.929 393.145L1091.86 393.145" stroke="#000000" stroke-width="0.398" fill="none" /><path id="783" transform="matrix(1 0 0 -1 0 792)" d="M706.929 393.145L1091.86 393.145" stroke="#000000" stroke-width="0.398" fill="none" /><path id="784" transform="matrix(1 0 0 -1 0 792)" d="M707.129 379.379L707.129 392.946" stroke="#000000" stroke-width="0.398" fill="none" /><path id="823" transform="matrix(1 0 0 -1 0 792)" d="M1036.282 379.379L1036.282 392.946" stroke="#000000" stroke-width="0.398" fill="none" /><path id="825" transform="matrix(1 0 0 -1 0 792)" d="M1091.661 379.379L1091.661 392.946" stroke="#000000" stroke-width="0.398" fill="none" /><path id="826" transform="matrix(1 0 0 -1 0 792)" d="M706.929 379.18L1091.86 379.18" stroke="#000000" stroke-width="0.398" fill="none" /><path id="827" transform="matrix(1 0 0 -1 0 792)" d="M706.929 379.18L1091.86 379.18" stroke="#000000" stroke-width="0.398" fill="none" /><path id="828" transform="matrix(1 0 0 -1 0 792)" d="M707.129 365.414L707.129 378.981" stroke="#000000" stroke-width="0.398" fill="none" /><path id="870" transform="matrix(1 0 0 -1 0 792)" d="M1036.282 365.414L1036.282 378.981" stroke="#000000" stroke-width="0.398" fill="none" /><path id="872" transform="matrix(1 0 0 -1 0 792)" d="M1091.661 365.414L1091.661 378.981" stroke="#000000" stroke-width="0.398" fill="none" /><path id="873" transform="matrix(1 0 0 -1 0 792)" d="M706.929 365.215L1091.86 365.215" stroke="#000000" stroke-width="0.398" fill="none" /><path id="874" transform="matrix(1 0 0 -1 0 792)" d="M706.929 365.215L1091.86 365.215" stroke="#000000" stroke-width="0.398" fill="none" /><path id="875" transform="matrix(1 0 0 -1 0 792)" d="M707.129 337.917L707.129 365.015" stroke="#000000" stroke-width="0.398" fill="none" /><path id="933" transform="matrix(1 0 0 -1 0 792)" d="M1036.282 337.917L1036.282 365.015" stroke="#000000" stroke-width="0.398" fill="none" /><path id="935" transform="matrix(1 0 0 -1 0 792)" d="M1091.661 337.917L1091.661 365.015" stroke="#000000" stroke-width="0.398" fill="none" /><path id="936" transform="matrix(1 0 0 -1 0 792)" d="M706.929 337.718L1091.86 337.718" stroke="#000000" stroke-width="0.398" fill="none" /><path id="937" transform="matrix(1 0 0 -1 0 792)" d="M706.929 337.718L1091.86 337.718" stroke="#000000" stroke-width="0.398" fill="none" /><path id="938" transform="matrix(1 0 0 -1 0 792)" d="M707.129 310.42L707.129 337.518" stroke="#000000" stroke-width="0.398" fill="none" /><path id="999" transform="matrix(1 0 0 -1 0 792)" d="M1036.282 310.42L1036.282 337.518" stroke="#000000" stroke-width="0.398" fill="none" /><path id="1001" transform="matrix(1 0 0 -1 0 792)" d="M1091.661 310.42L1091.661 337.518" stroke="#000000" stroke-width="0.398" fill="none" /><path id="1002" transform="matrix(1 0 0 -1 0 792)" d="M706.929 310.221L1091.86 310.221" stroke="#000000" stroke-width="0.398" fill="none" /><path id="1003" transform="matrix(1 0 0 -1 0 792)" d="M706.929 310.221L1091.86 310.221" stroke="#000000" stroke-width="0.398" fill="none" /><path id="1004" transform="matrix(1 0 0 -1 0 792)" d="M707.129 296.455L707.129 310.022" stroke="#000000" stroke-width="0.398" fill="none" /><path id="1055" transform="matrix(1 0 0 -1 0 792)" d="M1036.282 296.455L1036.282 310.022" stroke="#000000" stroke-width="0.398" fill="none" /><path id="1057" transform="matrix(1 0 0 -1 0 792)" d="M1091.661 296.455L1091.661 310.022" stroke="#000000" stroke-width="0.398" fill="none" /><path id="1058" transform="matrix(1 0 0 -1 0 792)" d="M706.929 296.256L1091.86 296.256" stroke="#000000" stroke-width="0.398" fill="none" /><path id="1059" transform="matrix(1 0 0 -1 0 792)" d="M706.929 296.256L1091.86 296.256" stroke="#000000" stroke-width="0.398" fill="none" /><path id="1060" transform="matrix(1 0 0 -1 0 792)" d="M707.129 282.49L707.129 296.057" stroke="#000000" stroke-width="0.398" fill="none" /><path id="1090" transform="matrix(1 0 0 -1 0 792)" d="M1036.282 282.49L1036.282 296.057" stroke="#000000" stroke-width="0.398" fill="none" /><path id="1092" transform="matrix(1 0 0 -1 0 792)" d="M1091.661 282.49L1091.661 296.057" stroke="#000000" stroke-width="0.398" fill="none" /><path id="1093" transform="matrix(1 0 0 -1 0 792)" d="M706.929 282.291L1091.86 282.291" stroke="#000000" stroke-width="0.398" fill="none" /><path id="1094" transform="matrix(1 0 0 -1 0 792)" d="M706.929 282.291L1091.86 282.291" stroke="#000000" stroke-width="0.398" fill="none" /><path id="1095" transform="matrix(1 0 0 -1 0 792)" d="M707.129 268.525L707.129 282.092" stroke="#000000" stroke-width="0.398" fill="none" /><path id="1131" transform="matrix(1 0 0 -1 0 792)" d="M1036.282 268.525L1036.282 282.092" stroke="#000000" stroke-width="0.398" fill="none" /><path id="1133" transform="matrix(1 0 0 -1 0 792)" d="M1091.661 268.525L1091.661 282.092" stroke="#000000" stroke-width="0.398" fill="none" /><path id="1134" transform="matrix(1 0 0 -1 0 792)" d="M706.929 268.325L1091.86 268.325" stroke="#000000" stroke-width="0.398" fill="none" /><path id="1135" transform="matrix(1 0 0 -1 0 792)" d="M706.929 268.325L1091.86 268.325" stroke="#000000" stroke-width="0.398" fill="none" /><path id="1136" transform="matrix(1 0 0 -1 0 792)" d="M707.129 241.028L707.129 268.126" stroke="#000000" stroke-width="0.398" fill="none" /><path id="1197" transform="matrix(1 0 0 -1 0 792)" d="M1036.282 241.028L1036.282 268.126" stroke="#000000" stroke-width="0.398" fill="none" /><path id="1199" transform="matrix(1 0 0 -1 0 792)" d="M1091.661 241.028L1091.661 268.126" stroke="#000000" stroke-width="0.398" fill="none" /><path id="1200" transform="matrix(1 0 0 -1 0 792)" d="M706.929 240.829L1091.86 240.829" stroke="#000000" stroke-width="0.398" fill="none" /><path id="1201" transform="matrix(1 0 0 -1 0 792)" d="M706.929 240.829L1091.86 240.829" stroke="#000000" stroke-width="0.398" fill="none" /><path id="1202" transform="matrix(1 0 0 -1 0 792)" d="M707.129 213.531L707.129 240.629" stroke="#000000" stroke-width="0.398" fill="none" /><path id="1264" transform="matrix(1 0 0 -1 0 792)" d="M1036.282 213.531L1036.282 240.629" stroke="#000000" stroke-width="0.398" fill="none" /><path id="1266" transform="matrix(1 0 0 -1 0 792)" d="M1091.661 213.531L1091.661 240.629" stroke="#000000" stroke-width="0.398" fill="none" /><path id="1267" transform="matrix(1 0 0 -1 0 792)" d="M706.929 213.332L1091.86 213.332" stroke="#000000" stroke-width="0.398" fill="none" /><path id="1268" transform="matrix(1 0 0 -1 0 792)" d="M706.929 213.332L1091.86 213.332" stroke="#000000" stroke-width="0.398" fill="none" /><path id="1269" transform="matrix(1 0 0 -1 0 792)" d="M707.129 199.566L707.129 213.133" stroke="#000000" stroke-width="0.398" fill="none" /><path id="1309" transform="matrix(1 0 0 -1 0 792)" d="M1036.282 199.566L1036.282 213.133" stroke="#000000" stroke-width="0.398" fill="none" /><path id="1311" transform="matrix(1 0 0 -1 0 792)" d="M1091.661 199.566L1091.661 213.133" stroke="#000000" stroke-width="0.398" fill="none" /><path id="1312" transform="matrix(1 0 0 -1 0 792)" d="M706.929 199.367L1091.86 199.367" stroke="#000000" stroke-width="0.398" fill="none" /><path id="1313" transform="matrix(1 0 0 -1 0 792)" d="M706.929 199.367L1091.86 199.367" stroke="#000000" stroke-width="0.398" fill="none" /><path id="1314" transform="matrix(1 0 0 -1 0 792)" d="M707.129 185.601L707.129 199.168" stroke="#000000" stroke-width="0.398" fill="none" /><path id="1338" transform="matrix(1 0 0 -1 0 792)" d="M1036.282 185.601L1036.282 199.168" stroke="#000000" stroke-width="0.398" fill="none" /><path id="1340" transform="matrix(1 0 0 -1 0 792)" d="M1091.661 185.601L1091.661 199.168" stroke="#000000" stroke-width="0.398" fill="none" /><path id="1341" transform="matrix(1 0 0 -1 0 792)" d="M706.929 185.401L1091.86 185.401" stroke="#000000" stroke-width="0.398" fill="none" /><path id="1342" transform="matrix(1 0 0 -1 0 792)" d="M706.929 185.401L1091.86 185.401" stroke="#000000" stroke-width="0.398" fill="none" /><path id="1343" transform="matrix(1 0 0 -1 0 792)" d="M707.129 171.635L707.129 185.202" stroke="#000000" stroke-width="0.398" fill="none" /><path id="1366" transform="matrix(1 0 0 -1 0 792)" d="M1036.282 171.635L1036.282 185.202" stroke="#000000" stroke-width="0.398" fill="none" /><path id="1368" transform="matrix(1 0 0 -1 0 792)" d="M1091.661 171.635L1091.661 185.202" stroke="#000000" stroke-width="0.398" fill="none" /><path id="1369" transform="matrix(1 0 0 -1 0 792)" d="M706.929 171.436L1091.86 171.436" stroke="#000000" stroke-width="0.398" fill="none" /><path id="1370" transform="matrix(1 0 0 -1 0 792)" d="M706.929 171.436L1091.86 171.436" stroke="#000000" stroke-width="0.398" fill="none" /><path id="1371" transform="matrix(1 0 0 -1 0 792)" d="M707.129 157.67L707.129 171.237" stroke="#000000" stroke-width="0.398" fill="none" /><path id="1419" transform="matrix(1 0 0 -1 0 792)" d="M1036.282 157.67L1036.282 171.237" stroke="#000000" stroke-width="0.398" fill="none" /><path id="1421" transform="matrix(1 0 0 -1 0 792)" d="M1091.661 157.67L1091.661 171.237" stroke="#000000" stroke-width="0.398" fill="none" /><path id="1422" transform="matrix(1 0 0 -1 0 792)" d="M706.929 157.471L1091.86 157.471" stroke="#000000" stroke-width="0.398" fill="none" /><path id="1423" transform="matrix(1 0 0 -1 0 792)" d="M706.929 157.471L1091.86 157.471" stroke="#000000" stroke-width="0.398" fill="none" /><path id="1424" transform="matrix(1 0 0 -1 0 792)" d="M707.129 143.705L707.129 157.272" stroke="#000000" stroke-width="0.398" fill="none" /><path id="1474" transform="matrix(1 0 0 -1 0 792)" d="M1036.282 143.705L1036.282 157.272" stroke="#000000" stroke-width="0.398" fill="none" /><path id="1476" transform="matrix(1 0 0 -1 0 792)" d="M1091.661 143.705L1091.661 157.272" stroke="#000000" stroke-width="0.398" fill="none" /><path id="1477" transform="matrix(1 0 0 -1 0 792)" d="M706.929 143.506L1091.86 143.506" stroke="#000000" stroke-width="0.398" fill="none" /><path id="1478" transform="matrix(1 0 0 -1 0 792)" d="M706.929 143.506L1091.86 143.506" stroke="#000000" stroke-width="0.398" fill="none" /><path id="1479" transform="matrix(1 0 0 -1 0 792)" d="M707.129 129.74L707.129 143.307" stroke="#000000" stroke-width="0.398" fill="none" /><path id="1531" transform="matrix(1 0 0 -1 0 792)" d="M1036.282 129.74L1036.282 143.307" stroke="#000000" stroke-width="0.398" fill="none" /><path id="1533" transform="matrix(1 0 0 -1 0 792)" d="M1091.661 129.74L1091.661 143.307" stroke="#000000" stroke-width="0.398" fill="none" /><path id="1534" transform="matrix(1 0 0 -1 0 792)" d="M706.929 129.541L1091.86 129.541" stroke="#000000" stroke-width="0.398" fill="none" /><path id="1535" transform="matrix(1 0 0 -1 0 792)" d="M706.929 129.541L1091.86 129.541" stroke="#000000" stroke-width="0.398" fill="none" /><path id="1536" transform="matrix(1 0 0 -1 0 792)" d="M707.129 115.775L707.129 129.342" stroke="#000000" stroke-width="0.398" fill="none" /><path id="1564" transform="matrix(1 0 0 -1 0 792)" d="M1036.282 115.775L1036.282 129.342" stroke="#000000" stroke-width="0.398" fill="none" /><path id="1566" transform="matrix(1 0 0 -1 0 792)" d="M1091.661 115.775L1091.661 129.342" stroke="#000000" stroke-width="0.398" fill="none" /><path id="1567" transform="matrix(1 0 0 -1 0 792)" d="M706.929 115.576L1091.86 115.576" stroke="#000000" stroke-width="0.398" fill="none" /><path id="1568" transform="matrix(1 0 0 -1 0 792)" d="M706.929 115.576L1091.86 115.576" stroke="#000000" stroke-width="0.398" fill="none" /><path id="1569" transform="matrix(1 0 0 -1 0 792)" d="M707.129 88.278L707.129 115.376" stroke="#000000" stroke-width="0.398" fill="none" /><path id="1638" transform="matrix(1 0 0 -1 0 792)" d="M1036.282 88.278L1036.282 115.376" stroke="#000000" stroke-width="0.398" fill="none" /><path id="1640" transform="matrix(1 0 0 -1 0 792)" d="M1091.661 88.278L1091.661 115.376" stroke="#000000" stroke-width="0.398" fill="none" /><path id="1641" transform="matrix(1 0 0 -1 0 792)" d="M706.929 88.079L1091.86 88.079" stroke="#000000" stroke-width="0.398" fill="none" /><path id="1642" transform="matrix(1 0 0 -1 0 792)" d="M666.067 722.529L1132.724 722.529L1132.724 722.529L1132.724 735.6745L1132.724 735.6745L666.067 735.6745z" stroke="#FFFFFF" stroke-width="1" fill="#FFFFFF" fill-rule="nonzero" /><path id="1652" transform="matrix(1 0 0 -1 0 792)" d="M683.004 682.599L1132.721 682.599L1132.721 682.599L1132.721 695.7445L1132.721 695.7445L683.004 695.7445z" stroke="#FFFFFF" stroke-width="1" fill="#FFFFFF" fill-rule="nonzero" /><path id="1684" transform="matrix(1 0 0 -1 0 792)" d="M666.067 655.5L1132.721 655.5L1132.721 655.5L1132.721 682.1955L1132.721 682.1955L666.067 682.1955z" stroke="#FFFFFF" stroke-width="1" fill="#FFFFFF" fill-rule="nonzero" /><path id="1806" transform="matrix(1 0 0 -1 0 792)" d="M54.067 721.28L520.722 721.28" stroke="#000000" stroke-width="0.498" fill="none" /><path id="2027" transform="matrix(1 0 0 -1 0 792)" d="M94.929 644.049L479.86 644.049" stroke="#000000" stroke-width="0.398" fill="none" /><path id="2028" transform="matrix(1 0 0 -1 0 792)" d="M94.929 644.049L479.86 644.049" stroke="#000000" stroke-width="0.398" fill="none" /><path id="2029" transform="matrix(1 0 0 -1 0 792)" d="M95.129 630.283L95.129 643.85" stroke="#000000" stroke-width="0.398" fill="none" /><path id="2030" transform="matrix(1 0 0 -1 0 792)" d="M95.328 630.283L424.083 630.283L424.083 643.85L95.328 643.85z" stroke="none" fill="#CCCCEB" fill-rule="nonzero" /><path id="2040" transform="matrix(1 0 0 -1 0 792)" d="M424.282 630.283L424.282 643.85" stroke="#000000" stroke-width="0.398" fill="none" /><path id="2041" transform="matrix(1 0 0 -1 0 792)" d="M424.481 630.283L479.461 630.283L479.461 643.85L424.481 643.85z" stroke="none" fill="#CCCCEB" fill-rule="nonzero" /><path id="2048" transform="matrix(1 0 0 -1 0 792)" d="M479.661 630.283L479.661 643.85" stroke="#000000" stroke-width="0.398" fill="none" /><path id="2049" transform="matrix(1 0 0 -1 0 792)" d="M94.929 630.084L479.86 630.084" stroke="#000000" stroke-width="0.398" fill="none" /><path id="2050" transform="matrix(1 0 0 -1 0 792)" d="M94.929 630.084L479.86 630.084" stroke="#000000" stroke-width="0.398" fill="none" /><path id="2051" transform="matrix(1 0 0 -1 0 792)" d="M94.929 629.686L479.86 629.686" stroke="#000000" stroke-width="0.398" fill="none" /><path id="2052" transform="matrix(1 0 0 -1 0 792)" d="M94.929 629.686L479.86 629.686" stroke="#000000" stroke-width="0.398" fill="none" /><path id="2053" transform="matrix(1 0 0 -1 0 792)" d="M95.129 615.92L95.129 629.487" stroke="#000000" stroke-width="0.398" fill="none" /><path id="2095" transform="matrix(1 0 0 -1 0 792)" d="M424.282 615.92L424.282 629.487" stroke="#000000" stroke-width="0.398" fill="none" /><path id="2097" transform="matrix(1 0 0 -1 0 792)" d="M479.661 615.92L479.661 629.487" stroke="#000000" stroke-width="0.398" fill="none" /><path id="2098" transform="matrix(1 0 0 -1 0 792)" d="M94.929 615.72L479.86 615.72" stroke="#000000" stroke-width="0.398" fill="none" /><path id="2099" transform="matrix(1 0 0 -1 0 792)" d="M94.929 615.72L479.86 615.72" stroke="#000000" stroke-width="0.398" fill="none" /><path id="2100" transform="matrix(1 0 0 -1 0 792)" d="M95.129 601.955L95.129 615.522" stroke="#000000" stroke-width="0.398" fill="none" /><path id="2138" transform="matrix(1 0 0 -1 0 792)" d="M424.282 601.955L424.282 615.522" stroke="#000000" stroke-width="0.398" fill="none" /><path id="2140" transform="matrix(1 0 0 -1 0 792)" d="M479.661 601.955L479.661 615.522" stroke="#000000" stroke-width="0.398" fill="none" /><path id="2141" transform="matrix(1 0 0 -1 0 792)" d="M94.929 601.755L479.86 601.755" stroke="#000000" stroke-width="0.398" fill="none" /><path id="2142" transform="matrix(1 0 0 -1 0 792)" d="M94.929 601.755L479.86 601.755" stroke="#000000" stroke-width="0.398" fill="none" /><path id="2143" transform="matrix(1 0 0 -1 0 792)" d="M95.129 587.989L95.129 601.556" stroke="#000000" stroke-width="0.398" fill="none" /><path id="2181" transform="matrix(1 0 0 -1 0 792)" d="M424.282 587.989L424.282 601.556" stroke="#000000" stroke-width="0.398" fill="none" /><path id="2183" transform="matrix(1 0 0 -1 0 792)" d="M479.661 587.989L479.661 601.556" stroke="#000000" stroke-width="0.398" fill="none" /><path id="2184" transform="matrix(1 0 0 -1 0 792)" d="M94.929 587.79L479.86 587.79" stroke="#000000" stroke-width="0.398" fill="none" /><path id="2185" transform="matrix(1 0 0 -1 0 792)" d="M94.929 587.79L479.86 587.79" stroke="#000000" stroke-width="0.398" fill="none" /><path id="2186" transform="matrix(1 0 0 -1 0 792)" d="M95.129 574.024L95.129 587.591" stroke="#000000" stroke-width="0.398" fill="none" /><path id="2226" transform="matrix(1 0 0 -1 0 792)" d="M424.282 574.024L424.282 587.591" stroke="#000000" stroke-width="0.398" fill="none" /><path id="2228" transform="matrix(1 0 0 -1 0 792)" d="M479.661 574.024L479.661 587.591" stroke="#000000" stroke-width="0.398" fill="none" /><path id="2229" transform="matrix(1 0 0 -1 0 792)" d="M94.929 573.825L479.86 573.825" stroke="#000000" stroke-width="0.398" fill="none" /><path id="2230" transform="matrix(1 0 0 -1 0 792)" d="M94.929 573.825L479.86 573.825" stroke="#000000" stroke-width="0.398" fill="none" /><path id="2231" transform="matrix(1 0 0 -1 0 792)" d="M95.129 560.059L95.129 573.626" stroke="#000000" stroke-width="0.398" fill="none" /><path id="2257" transform="matrix(1 0 0 -1 0 792)" d="M424.282 560.059L424.282 573.626" stroke="#000000" stroke-width="0.398" fill="none" /><path id="2259" transform="matrix(1 0 0 -1 0 792)" d="M479.661 560.059L479.661 573.626" stroke="#000000" stroke-width="0.398" fill="none" /><path id="2260" transform="matrix(1 0 0 -1 0 792)" d="M94.929 559.86L479.86 559.86" stroke="#000000" stroke-width="0.398" fill="none" /><path id="2261" transform="matrix(1 0 0 -1 0 792)" d="M94.929 559.86L479.86 559.86" stroke="#000000" stroke-width="0.398" fill="none" /><path id="2262" transform="matrix(1 0 0 -1 0 792)" d="M95.129 546.094L95.129 559.661" stroke="#000000" stroke-width="0.398" fill="none" /><path id="2303" transform="matrix(1 0 0 -1 0 792)" d="M424.282 546.094L424.282 559.661" stroke="#000000" stroke-width="0.398" fill="none" /><path id="2305" transform="matrix(1 0 0 -1 0 792)" d="M479.661 546.094L479.661 559.661" stroke="#000000" stroke-width="0.398" fill="none" /><path id="2306" transform="matrix(1 0 0 -1 0 792)" d="M94.929 545.895L479.86 545.895" stroke="#000000" stroke-width="0.398" fill="none" /><path id="2307" transform="matrix(1 0 0 -1 0 792)" d="M94.929 545.895L479.86 545.895" stroke="#000000" stroke-width="0.398" fill="none" /><path id="2308" transform="matrix(1 0 0 -1 0 792)" d="M95.129 532.129L95.129 545.696" stroke="#000000" stroke-width="0.398" fill="none" /><path id="2349" transform="matrix(1 0 0 -1 0 792)" d="M424.282 532.129L424.282 545.696" stroke="#000000" stroke-width="0.398" fill="none" /><path id="2351" transform="matrix(1 0 0 -1 0 792)" d="M479.661 532.129L479.661 545.696" stroke="#000000" stroke-width="0.398" fill="none" /><path id="2352" transform="matrix(1 0 0 -1 0 792)" d="M94.929 531.93L479.86 531.93" stroke="#000000" stroke-width="0.398" fill="none" /><path id="2353" transform="matrix(1 0 0 -1 0 792)" d="M94.929 531.93L479.86 531.93" stroke="#000000" stroke-width="0.398" fill="none" /><path id="2354" transform="matrix(1 0 0 -1 0 792)" d="M95.129 518.164L95.129 531.731" stroke="#000000" stroke-width="0.398" fill="none" /><path id="2403" transform="matrix(1 0 0 -1 0 792)" d="M424.282 518.164L424.282 531.731" stroke="#000000" stroke-width="0.398" fill="none" /><path id="2405" transform="matrix(1 0 0 -1 0 792)" d="M479.661 518.164L479.661 531.731" stroke="#000000" stroke-width="0.398" fill="none" /><path id="2406" transform="matrix(1 0 0 -1 0 792)" d="M94.929 517.964L479.86 517.964" stroke="#000000" stroke-width="0.398" fill="none" /><path id="2407" transform="matrix(1 0 0 -1 0 792)" d="M94.929 517.964L479.86 517.964" stroke="#000000" stroke-width="0.398" fill="none" /><path id="2408" transform="matrix(1 0 0 -1 0 792)" d="M95.129 504.198L95.129 517.765" stroke="#000000" stroke-width="0.398" fill="none" /><path id="2455" transform="matrix(1 0 0 -1 0 792)" d="M424.282 504.198L424.282 517.765" stroke="#000000" stroke-width="0.398" fill="none" /><path id="2457" transform="matrix(1 0 0 -1 0 792)" d="M479.661 504.198L479.661 517.765" stroke="#000000" stroke-width="0.398" fill="none" /><path id="2458" transform="matrix(1 0 0 -1 0 792)" d="M94.929 503.999L479.86 503.999" stroke="#000000" stroke-width="0.398" fill="none" /><path id="2459" transform="matrix(1 0 0 -1 0 792)" d="M94.929 503.999L479.86 503.999" stroke="#000000" stroke-width="0.398" fill="none" /><path id="2460" transform="matrix(1 0 0 -1 0 792)" d="M95.129 490.233L95.129 503.8" stroke="#000000" stroke-width="0.398" fill="none" /><path id="2511" transform="matrix(1 0 0 -1 0 792)" d="M424.282 490.233L424.282 503.8" stroke="#000000" stroke-width="0.398" fill="none" /><path id="2513" transform="matrix(1 0 0 -1 0 792)" d="M479.661 490.233L479.661 503.8" stroke="#000000" stroke-width="0.398" fill="none" /><path id="2514" transform="matrix(1 0 0 -1 0 792)" d="M94.929 490.034L479.86 490.034" stroke="#000000" stroke-width="0.398" fill="none" /><path id="2515" transform="matrix(1 0 0 -1 0 792)" d="M94.929 490.034L479.86 490.034" stroke="#000000" stroke-width="0.398" fill="none" /><path id="2516" transform="matrix(1 0 0 -1 0 792)" d="M95.129 476.268L95.129 489.835" stroke="#000000" stroke-width="0.398" fill="none" /><path id="2565" transform="matrix(1 0 0 -1 0 792)" d="M424.282 476.268L424.282 489.835" stroke="#000000" stroke-width="0.398" fill="none" /><path id="2567" transform="matrix(1 0 0 -1 0 792)" d="M479.661 476.268L479.661 489.835" stroke="#000000" stroke-width="0.398" fill="none" /><path id="2568" transform="matrix(1 0 0 -1 0 792)" d="M94.929 476.069L479.86 476.069" stroke="#000000" stroke-width="0.398" fill="none" /><path id="2569" transform="matrix(1 0 0 -1 0 792)" d="M94.929 476.069L479.86 476.069" stroke="#000000" stroke-width="0.398" fill="none" /><path id="2570" transform="matrix(1 0 0 -1 0 792)" d="M95.129 462.303L95.129 475.87" stroke="#000000" stroke-width="0.398" fill="none" /><path id="2617" transform="matrix(1 0 0 -1 0 792)" d="M424.282 462.303L424.282 475.87" stroke="#000000" stroke-width="0.398" fill="none" /><path id="2619" transform="matrix(1 0 0 -1 0 792)" d="M479.661 462.303L479.661 475.87" stroke="#000000" stroke-width="0.398" fill="none" /><path id="2620" transform="matrix(1 0 0 -1 0 792)" d="M94.929 462.104L479.86 462.104" stroke="#000000" stroke-width="0.398" fill="none" /><path id="2621" transform="matrix(1 0 0 -1 0 792)" d="M94.929 462.104L479.86 462.104" stroke="#000000" stroke-width="0.398" fill="none" /><path id="2622" transform="matrix(1 0 0 -1 0 792)" d="M95.129 448.338L95.129 461.905" stroke="#000000" stroke-width="0.398" fill="none" /><path id="2670" transform="matrix(1 0 0 -1 0 792)" d="M424.282 448.338L424.282 461.905" stroke="#000000" stroke-width="0.398" fill="none" /><path id="2672" transform="matrix(1 0 0 -1 0 792)" d="M479.661 448.338L479.661 461.905" stroke="#000000" stroke-width="0.398" fill="none" /><path id="2673" transform="matrix(1 0 0 -1 0 792)" d="M94.929 448.139L479.86 448.139" stroke="#000000" stroke-width="0.398" fill="none" /><path id="2674" transform="matrix(1 0 0 -1 0 792)" d="M94.929 448.139L479.86 448.139" stroke="#000000" stroke-width="0.398" fill="none" /><path id="2675" transform="matrix(1 0 0 -1 0 792)" d="M95.129 420.841L95.129 447.939" stroke="#000000" stroke-width="0.398" fill="none" /><path id="2731" transform="matrix(1 0 0 -1 0 792)" d="M424.282 420.841L424.282 447.939" stroke="#000000" stroke-width="0.398" fill="none" /><path id="2733" transform="matrix(1 0 0 -1 0 792)" d="M479.661 420.841L479.661 447.939" stroke="#000000" stroke-width="0.398" fill="none" /><path id="2734" transform="matrix(1 0 0 -1 0 792)" d="M94.929 420.642L479.86 420.642" stroke="#000000" stroke-width="0.398" fill="none" /><path id="2735" transform="matrix(1 0 0 -1 0 792)" d="M94.929 420.642L479.86 420.642" stroke="#000000" stroke-width="0.398" fill="none" /><path id="2736" transform="matrix(1 0 0 -1 0 792)" d="M95.129 393.344L95.129 420.442" stroke="#000000" stroke-width="0.398" fill="none" /><path id="2804" transform="matrix(1 0 0 -1 0 792)" d="M424.282 393.344L424.282 420.442" stroke="#000000" stroke-width="0.398" fill="none" /><path id="2806" transform="matrix(1 0 0 -1 0 792)" d="M479.661 393.344L479.661 420.442" stroke="#000000" stroke-width="0.398" fill="none" /><path id="2807" transform="matrix(1 0 0 -1 0 792)" d="M94.929 393.145L479.86 393.145" stroke="#000000" stroke-width="0.398" fill="none" /><path id="2808" transform="matrix(1 0 0 -1 0 792)" d="M94.929 393.145L479.86 393.145" stroke="#000000" stroke-width="0.398" fill="none" /><path id="2809" transform="matrix(1 0 0 -1 0 792)" d="M95.129 379.379L95.129 392.946" stroke="#000000" stroke-width="0.398" fill="none" /><path id="2848" transform="matrix(1 0 0 -1 0 792)" d="M424.282 379.379L424.282 392.946" stroke="#000000" stroke-width="0.398" fill="none" /><path id="2850" transform="matrix(1 0 0 -1 0 792)" d="M479.661 379.379L479.661 392.946" stroke="#000000" stroke-width="0.398" fill="none" /><path id="2851" transform="matrix(1 0 0 -1 0 792)" d="M94.929 379.18L479.86 379.18" stroke="#000000" stroke-width="0.398" fill="none" /><path id="2852" transform="matrix(1 0 0 -1 0 792)" d="M94.929 379.18L479.86 379.18" stroke="#000000" stroke-width="0.398" fill="none" /><path id="2853" transform="matrix(1 0 0 -1 0 792)" d="M95.129 365.414L95.129 378.981" stroke="#000000" stroke-width="0.398" fill="none" /><path id="2895" transform="matrix(1 0 0 -1 0 792)" d="M424.282 365.414L424.282 378.981" stroke="#000000" stroke-width="0.398" fill="none" /><path id="2897" transform="matrix(1 0 0 -1 0 792)" d="M479.661 365.414L479.661 378.981" stroke="#000000" stroke-width="0.398" fill="none" /><path id="2898" transform="matrix(1 0 0 -1 0 792)" d="M94.929 365.215L479.86 365.215" stroke="#000000" stroke-width="0.398" fill="none" /><path id="2899" transform="matrix(1 0 0 -1 0 792)" d="M94.929 365.215L479.86 365.215" stroke="#000000" stroke-width="0.398" fill="none" /><path id="2900" transform="matrix(1 0 0 -1 0 792)" d="M95.129 337.917L95.129 365.015" stroke="#000000" stroke-width="0.398" fill="none" /><path id="2958" transform="matrix(1 0 0 -1 0 792)" d="M424.282 337.917L424.282 365.015" stroke="#000000" stroke-width="0.398" fill="none" /><path id="2960" transform="matrix(1 0 0 -1 0 792)" d="M479.661 337.917L479.661 365.015" stroke="#000000" stroke-width="0.398" fill="none" /><path id="2961" transform="matrix(1 0 0 -1 0 792)" d="M94.929 337.718L479.86 337.718" stroke="#000000" stroke-width="0.398" fill="none" /><path id="2962" transform="matrix(1 0 0 -1 0 792)" d="M94.929 337.718L479.86 337.718" stroke="#000000" stroke-width="0.398" fill="none" /><path id="2963" transform="matrix(1 0 0 -1 0 792)" d="M95.129 310.42L95.129 337.518" stroke="#000000" stroke-width="0.398" fill="none" /><path id="3024" transform="matrix(1 0 0 -1 0 792)" d="M424.282 310.42L424.282 337.518" stroke="#000000" stroke-width="0.398" fill="none" /><path id="3026" transform="matrix(1 0 0 -1 0 792)" d="M479.661 310.42L479.661 337.518" stroke="#000000" stroke-width="0.398" fill="none" /><path id="3027" transform="matrix(1 0 0 -1 0 792)" d="M94.929 310.221L479.86 310.221" stroke="#000000" stroke-width="0.398" fill="none" /><path id="3028" transform="matrix(1 0 0 -1 0 792)" d="M94.929 310.221L479.86 310.221" stroke="#000000" stroke-width="0.398" fill="none" /><path id="3029" transform="matrix(1 0 0 -1 0 792)" d="M95.129 296.455L95.129 310.022" stroke="#000000" stroke-width="0.398" fill="none" /><path id="3080" transform="matrix(1 0 0 -1 0 792)" d="M424.282 296.455L424.282 310.022" stroke="#000000" stroke-width="0.398" fill="none" /><path id="3082" transform="matrix(1 0 0 -1 0 792)" d="M479.661 296.455L479.661 310.022" stroke="#000000" stroke-width="0.398" fill="none" /><path id="3083" transform="matrix(1 0 0 -1 0 792)" d="M94.929 296.256L479.86 296.256" stroke="#000000" stroke-width="0.398" fill="none" /><path id="3084" transform="matrix(1 0 0 -1 0 792)" d="M94.929 296.256L479.86 296.256" stroke="#000000" stroke-width="0.398" fill="none" /><path id="3085" transform="matrix(1 0 0 -1 0 792)" d="M95.129 282.49L95.129 296.057" stroke="#000000" stroke-width="0.398" fill="none" /><path id="3115" transform="matrix(1 0 0 -1 0 792)" d="M424.282 282.49L424.282 296.057" stroke="#000000" stroke-width="0.398" fill="none" /><path id="3117" transform="matrix(1 0 0 -1 0 792)" d="M479.661 282.49L479.661 296.057" stroke="#000000" stroke-width="0.398" fill="none" /><path id="3118" transform="matrix(1 0 0 -1 0 792)" d="M94.929 282.291L479.86 282.291" stroke="#000000" stroke-width="0.398" fill="none" /><path id="3119" transform="matrix(1 0 0 -1 0 792)" d="M94.929 282.291L479.86 282.291" stroke="#000000" stroke-width="0.398" fill="none" /><path id="3120" transform="matrix(1 0 0 -1 0 792)" d="M95.129 268.525L95.129 282.092" stroke="#000000" stroke-width="0.398" fill="none" /><path id="3156" transform="matrix(1 0 0 -1 0 792)" d="M424.282 268.525L424.282 282.092" stroke="#000000" stroke-width="0.398" fill="none" /><path id="3158" transform="matrix(1 0 0 -1 0 792)" d="M479.661 268.525L479.661 282.092" stroke="#000000" stroke-width="0.398" fill="none" /><path id="3159" transform="matrix(1 0 0 -1 0 792)" d="M94.929 268.325L479.86 268.325" stroke="#000000" stroke-width="0.398" fill="none" /><path id="3160" transform="matrix(1 0 0 -1 0 792)" d="M94.929 268.325L479.86 268.325" stroke="#000000" stroke-width="0.398" fill="none" /><path id="3161" transform="matrix(1 0 0 -1 0 792)" d="M95.129 241.028L95.129 268.126" stroke="#000000" stroke-width="0.398" fill="none" /><path id="3222" transform="matrix(1 0 0 -1 0 792)" d="M424.282 241.028L424.282 268.126" stroke="#000000" stroke-width="0.398" fill="none" /><path id="3224" transform="matrix(1 0 0 -1 0 792)" d="M479.661 241.028L479.661 268.126" stroke="#000000" stroke-width="0.398" fill="none" /><path id="3225" transform="matrix(1 0 0 -1 0 792)" d="M94.929 240.829L479.86 240.829" stroke="#000000" stroke-width="0.398" fill="none" /><path id="3226" transform="matrix(1 0 0 -1 0 792)" d="M94.929 240.829L479.86 240.829" stroke="#000000" stroke-width="0.398" fill="none" /><path id="3227" transform="matrix(1 0 0 -1 0 792)" d="M95.129 213.531L95.129 240.629" stroke="#000000" stroke-width="0.398" fill="none" /><path id="3289" transform="matrix(1 0 0 -1 0 792)" d="M424.282 213.531L424.282 240.629" stroke="#000000" stroke-width="0.398" fill="none" /><path id="3291" transform="matrix(1 0 0 -1 0 792)" d="M479.661 213.531L479.661 240.629" stroke="#000000" stroke-width="0.398" fill="none" /><path id="3292" transform="matrix(1 0 0 -1 0 792)" d="M94.929 213.332L479.86 213.332" stroke="#000000" stroke-width="0.398" fill="none" /><path id="3293" transform="matrix(1 0 0 -1 0 792)" d="M94.929 213.332L479.86 213.332" stroke="#000000" stroke-width="0.398" fill="none" /><path id="3294" transform="matrix(1 0 0 -1 0 792)" d="M95.129 199.566L95.129 213.133" stroke="#000000" stroke-width="0.398" fill="none" /><path id="3334" transform="matrix(1 0 0 -1 0 792)" d="M424.282 199.566L424.282 213.133" stroke="#000000" stroke-width="0.398" fill="none" /><path id="3336" transform="matrix(1 0 0 -1 0 792)" d="M479.661 199.566L479.661 213.133" stroke="#000000" stroke-width="0.398" fill="none" /><path id="3337" transform="matrix(1 0 0 -1 0 792)" d="M94.929 199.367L479.86 199.367" stroke="#000000" stroke-width="0.398" fill="none" /><path id="3338" transform="matrix(1 0 0 -1 0 792)" d="M94.929 199.367L479.86 199.367" stroke="#000000" stroke-width="0.398" fill="none" /><path id="3339" transform="matrix(1 0 0 -1 0 792)" d="M95.129 185.601L95.129 199.168" stroke="#000000" stroke-width="0.398" fill="none" /><path id="3363" transform="matrix(1 0 0 -1 0 792)" d="M424.282 185.601L424.282 199.168" stroke="#000000" stroke-width="0.398" fill="none" /><path id="3365" transform="matrix(1 0 0 -1 0 792)" d="M479.661 185.601L479.661 199.168" stroke="#000000" stroke-width="0.398" fill="none" /><path id="3366" transform="matrix(1 0 0 -1 0 792)" d="M94.929 185.401L479.86 185.401" stroke="#000000" stroke-width="0.398" fill="none" /><path id="3367" transform="matrix(1 0 0 -1 0 792)" d="M94.929 185.401L479.86 185.401" stroke="#000000" stroke-width="0.398" fill="none" /><path id="3368" transform="matrix(1 0 0 -1 0 792)" d="M95.129 171.635L95.129 185.202" stroke="#000000" stroke-width="0.398" fill="none" /><path id="3391" transform="matrix(1 0 0 -1 0 792)" d="M424.282 171.635L424.282 185.202" stroke="#000000" stroke-width="0.398" fill="none" /><path id="3393" transform="matrix(1 0 0 -1 0 792)" d="M479.661 171.635L479.661 185.202" stroke="#000000" stroke-width="0.398" fill="none" /><path id="3394" transform="matrix(1 0 0 -1 0 792)" d="M94.929 171.436L479.86 171.436" stroke="#000000" stroke-width="0.398" fill="none" /><path id="3395" transform="matrix(1 0 0 -1 0 792)" d="M94.929 171.436L479.86 171.436" stroke="#000000" stroke-width="0.398" fill="none" /><path id="3396" transform="matrix(1 0 0 -1 0 792)" d="M95.129 157.67L95.129 171.237" stroke="#000000" stroke-width="0.398" fill="none" /><path id="3444" transform="matrix(1 0 0 -1 0 792)" d="M424.282 157.67L424.282 171.237" stroke="#000000" stroke-width="0.398" fill="none" /><path id="3446" transform="matrix(1 0 0 -1 0 792)" d="M479.661 157.67L479.661 171.237" stroke="#000000" stroke-width="0.398" fill="none" /><path id="3447" transform="matrix(1 0 0 -1 0 792)" d="M94.929 157.471L479.86 157.471" stroke="#000000" stroke-width="0.398" fill="none" /><path id="3448" transform="matrix(1 0 0 -1 0 792)" d="M94.929 157.471L479.86 157.471" stroke="#000000" stroke-width="0.398" fill="none" /><path id="3449" transform="matrix(1 0 0 -1 0 792)" d="M95.129 143.705L95.129 157.272" stroke="#000000" stroke-width="0.398" fill="none" /><path id="3499" transform="matrix(1 0 0 -1 0 792)" d="M424.282 143.705L424.282 157.272" stroke="#000000" stroke-width="0.398" fill="none" /><path id="3501" transform="matrix(1 0 0 -1 0 792)" d="M479.661 143.705L479.661 157.272" stroke="#000000" stroke-width="0.398" fill="none" /><path id="3502" transform="matrix(1 0 0 -1 0 792)" d="M94.929 143.506L479.86 143.506" stroke="#000000" stroke-width="0.398" fill="none" /><path id="3503" transform="matrix(1 0 0 -1 0 792)" d="M94.929 143.506L479.86 143.506" stroke="#000000" stroke-width="0.398" fill="none" /><path id="3504" transform="matrix(1 0 0 -1 0 792)" d="M95.129 129.74L95.129 143.307" stroke="#000000" stroke-width="0.398" fill="none" /><path id="3556" transform="matrix(1 0 0 -1 0 792)" d="M424.282 129.74L424.282 143.307" stroke="#000000" stroke-width="0.398" fill="none" /><path id="3558" transform="matrix(1 0 0 -1 0 792)" d="M479.661 129.74L479.661 143.307" stroke="#000000" stroke-width="0.398" fill="none" /><path id="3559" transform="matrix(1 0 0 -1 0 792)" d="M94.929 129.541L479.86 129.541" stroke="#000000" stroke-width="0.398" fill="none" /><path id="3560" transform="matrix(1 0 0 -1 0 792)" d="M94.929 129.541L479.86 129.541" stroke="#000000" stroke-width="0.398" fill="none" /><path id="3561" transform="matrix(1 0 0 -1 0 792)" d="M95.129 115.775L95.129 129.342" stroke="#000000" stroke-width="0.398" fill="none" /><path id="3589" transform="matrix(1 0 0 -1 0 792)" d="M424.282 115.775L424.282 129.342" stroke="#000000" stroke-width="0.398" fill="none" /><path id="3591" transform="matrix(1 0 0 -1 0 792)" d="M479.661 115.775L479.661 129.342" stroke="#000000" stroke-width="0.398" fill="none" /><path id="3592" transform="matrix(1 0 0 -1 0 792)" d="M94.929 115.576L479.86 115.576" stroke="#000000" stroke-width="0.398" fill="none" /><path id="3593" transform="matrix(1 0 0 -1 0 792)" d="M94.929 115.576L479.86 115.576" stroke="#000000" stroke-width="0.398" fill="none" /><path id="3594" transform="matrix(1 0 0 -1 0 792)" d="M95.129 88.278L95.129 115.376" stroke="#000000" stroke-width="0.398" fill="none" /><path id="3663" transform="matrix(1 0 0 -1 0 792)" d="M424.282 88.278L424.282 115.376" stroke="#000000" stroke-width="0.398" fill="none" /><path id="3665" transform="matrix(1 0 0 -1 0 792)" d="M479.661 88.278L479.661 115.376" stroke="#000000" stroke-width="0.398" fill="none" /><path id="3666" transform="matrix(1 0 0 -1 0 792)" d="M94.929 88.079L479.86 88.079" stroke="#000000" stroke-width="0.398" fill="none" /></g></g></svg>