<svg xmlns="http://www.w3.org/2000/svg" xmlns:xlink="http://www.w3.org/1999/xlink" id="body_39" preserveAspectRatio="xMinYMin meet" viewBox="0 0 1632 1056"><defs><clipPath id="1"><path id="" clip-rule="evenodd" transform="matrix(1 0 0 1 0 0)" d="M0 792L0 0L0 0L1224 0L1224 0L1224 792L1224 792L0 792z" /></clipPath></defs><g transform="matrix(1.333333 0 0 1.333333 0 0)"><g clip-path="url(#1)"><path id="1" transform="matrix(1 0 0 -1 0 792)" d="M701.933 721.28L1168.588 721.28" stroke="#000000" stroke-width="0.498" fill="none" /><path id="2" transform="matrix(1 0 0 -1 0 792)" d="M784.149 672.314L787.138 672.314" stroke="#000000" stroke-width="0.398" fill="none" /><path id="199" transform="matrix(1 0 0 -1 0 792)" d="M701.933 722.529L1168.588 722.529L1168.588 722.529L1168.588 735.6745L1168.588 735.6745L701.933 735.6745z" stroke="#FFFFFF" stroke-width="1" fill="#FFFFFF" fill-rule="nonzero" /><path id="212" transform="matrix(1 0 0 -1 0 792)" d="M718.296 675.191L1168.588 675.191L1168.588 675.191L1168.588 695.7437L1168.588 695.7437L718.296 695.7437z" stroke="#FFFFFF" stroke-width="1" fill="#FFFFFF" fill-rule="nonzero" /><path id="243" transform="matrix(1 0 0 -1 0 792)" d="M729.206 669.05L875.333 669.05L875.333 669.05L875.333 682.1955L875.333 682.1955L729.206 682.1955z" stroke="#FFFFFF" stroke-width="1" fill="#FFFFFF" fill-rule="nonzero" /><path id="261" transform="matrix(1 0 0 -1 0 792)" d="M718.869 640.04L902.873 640.04L902.873 640.04L902.873 653.1855L902.873 653.1855L718.869 653.1855z" stroke="#FFFFFF" stroke-width="1" fill="#FFFFFF" fill-rule="nonzero" /><path id="273" transform="matrix(1 0 0 -1 0 792)" d="M718.869 574.12L1168.588 574.12L1168.588 574.12L1168.588 587.2655L1168.588 587.2655L718.869 587.2655z" stroke="#FFFFFF" stroke-width="1" fill="#FFFFFF" fill-rule="nonzero" /><path id="314" transform="matrix(1 0 0 -1 0 792)" d="M701.933 519.923L1168.591 519.923L1168.591 519.923L1168.591 573.7155L1168.591 573.7155L701.933 573.7155z" stroke="#FFFFFF" stroke-width="1" fill="#FFFFFF" fill-rule="nonzero" /><path id="432" transform="matrix(1 0 0 -1 0 792)" d="M718.869 439.754L1168.584 439.754L1168.584 439.754L1168.584 452.8995L1168.584 452.8995L718.869 452.8995z" stroke="#FFFFFF" stroke-width="1" fill="#FFFFFF" fill-rule="nonzero" /><path id="470" transform="matrix(1 0 0 -1 0 792)" d="M701.933 412.655L1168.588 412.655L1168.588 412.655L1168.588 439.3495L1168.588 439.3495L701.933 439.3495z" stroke="#FFFFFF" stroke-width="1" fill="#FFFFFF" fill-rule="nonzero" /><path id="522" transform="matrix(1 0 0 -1 0 792)" d="M701.933 377.586L951.378 377.586L951.378 377.586L951.378 393.1397L951.378 393.1397L701.933 393.1397z" stroke="#FFFFFF" stroke-width="1" fill="#FFFFFF" fill-rule="nonzero" /><path id="539" transform="matrix(1 0 0 -1 0 792)" d="M701.933 329.194L1168.591 329.194L1168.591 329.194L1168.591 369.4385L1168.591 369.4385L701.933 369.4385z" stroke="#FFFFFF" stroke-width="1" fill="#FFFFFF" fill-rule="nonzero" /><path id="612" transform="matrix(1 0 0 -1 0 792)" d="M718.869 314.944L1168.585 314.944L1168.585 314.944L1168.585 328.0895L1168.585 328.0895L718.869 328.0895z" stroke="#FFFFFF" stroke-width="1" fill="#FFFFFF" fill-rule="nonzero" /><path id="646" transform="matrix(1 0 0 -1 0 792)" d="M701.933 301.395L1102.373 301.395L1102.373 301.395L1102.373 314.5405L1102.373 314.5405L701.933 314.5405z" stroke="#FFFFFF" stroke-width="1" fill="#FFFFFF" fill-rule="nonzero" /><path id="669" transform="matrix(1 0 0 -1 0 792)" d="M718.869 287.145L1168.586 287.145L1168.586 287.145L1168.586 300.2905L1168.586 300.2905L718.869 300.2905z" stroke="#FFFFFF" stroke-width="1" fill="#FFFFFF" fill-rule="nonzero" /><path id="713" transform="matrix(1 0 0 -1 0 792)" d="M701.933 246.498L1168.592 246.498L1168.592 246.498L1168.592 286.7425L1168.592 286.7425L701.933 286.7425z" stroke="#FFFFFF" stroke-width="1" fill="#FFFFFF" fill-rule="nonzero" /><path id="776" transform="matrix(1 0 0 -1 0 792)" d="M718.869 232.248L1168.585 232.248L1168.585 232.248L1168.585 245.3935L1168.585 245.3935L718.869 245.3935z" stroke="#FFFFFF" stroke-width="1" fill="#FFFFFF" fill-rule="nonzero" /><path id="814" transform="matrix(1 0 0 -1 0 792)" d="M701.933 135.239L1168.591 135.239L1168.591 135.239L1168.591 175.4824L1168.591 175.4824L701.933 175.4824z" stroke="#FFFFFF" stroke-width="1" fill="#FFFFFF" fill-rule="nonzero" /><path id="901" transform="matrix(1 0 0 -1 0 792)" d="M718.869 120.989L1168.586 120.989L1168.586 120.989L1168.586 134.1345L1168.586 134.1345L718.869 134.1345z" stroke="#FFFFFF" stroke-width="1" fill="#FFFFFF" fill-rule="nonzero" /><path id="942" transform="matrix(1 0 0 -1 0 792)" d="M701.933 93.8895L1168.586 93.8895L1168.586 93.8895L1168.586 120.5849L1168.586 120.5849L701.933 120.5849z" stroke="#FFFFFF" stroke-width="1" fill="#FFFFFF" fill-rule="nonzero" /><path id="1058" transform="matrix(1 0 0 -1 0 792)" d="M89.933 721.28L556.588 721.28" stroke="#000000" stroke-width="0.498" fill="none" /><path id="1155" transform="matrix(1 0 0 -1 0 792)" d="M172.149 672.314L175.138 672.314" stroke="#000000" stroke-width="0.398" fill="none" /></g></g></svg>