<svg xmlns="http://www.w3.org/2000/svg" xmlns:xlink="http://www.w3.org/1999/xlink" id="body_53" preserveAspectRatio="xMinYMin meet" viewBox="0 0 1632 1056"><defs><clipPath id="1"><path id="" clip-rule="evenodd" transform="matrix(1 0 0 1 0 0)" d="M0 792L0 0L0 0L1224 0L1224 0L1224 792L1224 792L0 792z" /></clipPath></defs><g transform="matrix(1.333333 0 0 1.333333 0 0)"><g clip-path="url(#1)"><path id="1" transform="matrix(1 0 0 -1 0 792)" d="M701.933 721.28L1168.588 721.28" stroke="#000000" stroke-width="0.498" fill="none" /><path id="2" transform="matrix(1 0 0 -1 0 792)" d="M742.795 696.423L1127.726 696.423" stroke="#000000" stroke-width="0.398" fill="none" /><path id="3" transform="matrix(1 0 0 -1 0 792)" d="M742.795 696.423L1127.726 696.423" stroke="#000000" stroke-width="0.398" fill="none" /><path id="4" transform="matrix(1 0 0 -1 0 792)" d="M742.994 682.658L742.994 696.225" stroke="#000000" stroke-width="0.398" fill="none" /><path id="5" transform="matrix(1 0 0 -1 0 792)" d="M743.193 682.658L1071.948 682.658L1071.948 696.225L743.193 696.225z" stroke="none" fill="#CCCCEB" fill-rule="nonzero" /><path id="15" transform="matrix(1 0 0 -1 0 792)" d="M1072.147 682.658L1072.147 696.225" stroke="#000000" stroke-width="0.398" fill="none" /><path id="16" transform="matrix(1 0 0 -1 0 792)" d="M1072.347 682.658L1127.327 682.658L1127.327 696.225L1072.347 696.225z" stroke="none" fill="#CCCCEB" fill-rule="nonzero" /><path id="23" transform="matrix(1 0 0 -1 0 792)" d="M1127.526 682.658L1127.526 696.225" stroke="#000000" stroke-width="0.398" fill="none" /><path id="24" transform="matrix(1 0 0 -1 0 792)" d="M742.795 682.458L1127.726 682.458" stroke="#000000" stroke-width="0.398" fill="none" /><path id="25" transform="matrix(1 0 0 -1 0 792)" d="M742.795 682.458L1127.726 682.458" stroke="#000000" stroke-width="0.398" fill="none" /><path id="26" transform="matrix(1 0 0 -1 0 792)" d="M742.795 682.06L1127.726 682.06" stroke="#000000" stroke-width="0.398" fill="none" /><path id="27" transform="matrix(1 0 0 -1 0 792)" d="M742.795 682.06L1127.726 682.06" stroke="#000000" stroke-width="0.398" fill="none" /><path id="28" transform="matrix(1 0 0 -1 0 792)" d="M742.795 682.06L1127.726 682.06" stroke="#000000" stroke-width="0.398" fill="none" /><path id="29" transform="matrix(1 0 0 -1 0 792)" d="M742.994 654.762L742.994 681.86" stroke="#000000" stroke-width="0.398" fill="none" /><path id="86" transform="matrix(1 0 0 -1 0 792)" d="M1072.147 654.762L1072.147 681.86" stroke="#000000" stroke-width="0.398" fill="none" /><path id="88" transform="matrix(1 0 0 -1 0 792)" d="M1127.526 654.762L1127.526 681.86" stroke="#000000" stroke-width="0.398" fill="none" /><path id="89" transform="matrix(1 0 0 -1 0 792)" d="M742.795 654.563L1127.726 654.563" stroke="#000000" stroke-width="0.398" fill="none" /><path id="90" transform="matrix(1 0 0 -1 0 792)" d="M742.795 654.563L1127.726 654.563" stroke="#000000" stroke-width="0.398" fill="none" /><path id="91" transform="matrix(1 0 0 -1 0 792)" d="M742.994 640.797L742.994 654.364" stroke="#000000" stroke-width="0.398" fill="none" /><path id="119" transform="matrix(1 0 0 -1 0 792)" d="M1072.147 640.797L1072.147 654.364" stroke="#000000" stroke-width="0.398" fill="none" /><path id="121" transform="matrix(1 0 0 -1 0 792)" d="M1127.526 640.797L1127.526 654.364" stroke="#000000" stroke-width="0.398" fill="none" /><path id="122" transform="matrix(1 0 0 -1 0 792)" d="M742.795 640.598L1127.726 640.598" stroke="#000000" stroke-width="0.398" fill="none" /><path id="123" transform="matrix(1 0 0 -1 0 792)" d="M742.795 640.598L1127.726 640.598" stroke="#000000" stroke-width="0.398" fill="none" /><path id="124" transform="matrix(1 0 0 -1 0 792)" d="M742.994 626.832L742.994 640.399" stroke="#000000" stroke-width="0.398" fill="none" /><path id="154" transform="matrix(1 0 0 -1 0 792)" d="M1072.147 626.832L1072.147 640.399" stroke="#000000" stroke-width="0.398" fill="none" /><path id="156" transform="matrix(1 0 0 -1 0 792)" d="M1127.526 626.832L1127.526 640.399" stroke="#000000" stroke-width="0.398" fill="none" /><path id="157" transform="matrix(1 0 0 -1 0 792)" d="M742.795 626.633L1127.726 626.633" stroke="#000000" stroke-width="0.398" fill="none" /><path id="158" transform="matrix(1 0 0 -1 0 792)" d="M742.795 626.633L1127.726 626.633" stroke="#000000" stroke-width="0.398" fill="none" /><path id="159" transform="matrix(1 0 0 -1 0 792)" d="M742.994 612.867L742.994 626.434" stroke="#000000" stroke-width="0.398" fill="none" /><path id="210" transform="matrix(1 0 0 -1 0 792)" d="M1072.147 612.867L1072.147 626.434" stroke="#000000" stroke-width="0.398" fill="none" /><path id="212" transform="matrix(1 0 0 -1 0 792)" d="M1127.526 612.867L1127.526 626.434" stroke="#000000" stroke-width="0.398" fill="none" /><path id="213" transform="matrix(1 0 0 -1 0 792)" d="M742.795 612.667L1127.726 612.667" stroke="#000000" stroke-width="0.398" fill="none" /><path id="214" transform="matrix(1 0 0 -1 0 792)" d="M742.795 612.667L1127.726 612.667" stroke="#000000" stroke-width="0.398" fill="none" /><path id="215" transform="matrix(1 0 0 -1 0 792)" d="M742.994 585.37L742.994 612.468" stroke="#000000" stroke-width="0.398" fill="none" /><path id="290" transform="matrix(1 0 0 -1 0 792)" d="M1072.147 585.37L1072.147 612.468" stroke="#000000" stroke-width="0.398" fill="none" /><path id="292" transform="matrix(1 0 0 -1 0 792)" d="M1127.526 585.37L1127.526 612.468" stroke="#000000" stroke-width="0.398" fill="none" /><path id="293" transform="matrix(1 0 0 -1 0 792)" d="M742.795 585.171L1127.726 585.171" stroke="#000000" stroke-width="0.398" fill="none" /><path id="294" transform="matrix(1 0 0 -1 0 792)" d="M742.795 585.171L1127.726 585.171" stroke="#000000" stroke-width="0.398" fill="none" /><path id="295" transform="matrix(1 0 0 -1 0 792)" d="M742.994 557.873L742.994 584.971" stroke="#000000" stroke-width="0.398" fill="none" /><path id="369" transform="matrix(1 0 0 -1 0 792)" d="M1072.147 557.873L1072.147 584.971" stroke="#000000" stroke-width="0.398" fill="none" /><path id="371" transform="matrix(1 0 0 -1 0 792)" d="M1127.526 557.873L1127.526 584.971" stroke="#000000" stroke-width="0.398" fill="none" /><path id="372" transform="matrix(1 0 0 -1 0 792)" d="M742.795 557.674L1127.726 557.674" stroke="#000000" stroke-width="0.398" fill="none" /><path id="373" transform="matrix(1 0 0 -1 0 792)" d="M742.795 557.674L1127.726 557.674" stroke="#000000" stroke-width="0.398" fill="none" /><path id="374" transform="matrix(1 0 0 -1 0 792)" d="M742.994 543.908L742.994 557.475" stroke="#000000" stroke-width="0.398" fill="none" /><path id="423" transform="matrix(1 0 0 -1 0 792)" d="M1072.147 543.908L1072.147 557.475" stroke="#000000" stroke-width="0.398" fill="none" /><path id="425" transform="matrix(1 0 0 -1 0 792)" d="M1127.526 543.908L1127.526 557.475" stroke="#000000" stroke-width="0.398" fill="none" /><path id="426" transform="matrix(1 0 0 -1 0 792)" d="M742.795 543.709L1127.726 543.709" stroke="#000000" stroke-width="0.398" fill="none" /><path id="427" transform="matrix(1 0 0 -1 0 792)" d="M742.795 543.709L1127.726 543.709" stroke="#000000" stroke-width="0.398" fill="none" /><path id="428" transform="matrix(1 0 0 -1 0 792)" d="M742.994 516.411L742.994 543.509" stroke="#000000" stroke-width="0.398" fill="none" /><path id="500" transform="matrix(1 0 0 -1 0 792)" d="M1072.147 516.411L1072.147 543.509" stroke="#000000" stroke-width="0.398" fill="none" /><path id="502" transform="matrix(1 0 0 -1 0 792)" d="M1127.526 516.411L1127.526 543.509" stroke="#000000" stroke-width="0.398" fill="none" /><path id="503" transform="matrix(1 0 0 -1 0 792)" d="M742.795 516.212L1127.726 516.212" stroke="#000000" stroke-width="0.398" fill="none" /><path id="504" transform="matrix(1 0 0 -1 0 792)" d="M742.795 516.212L1127.726 516.212" stroke="#000000" stroke-width="0.398" fill="none" /><path id="505" transform="matrix(1 0 0 -1 0 792)" d="M742.994 488.914L742.994 516.012" stroke="#000000" stroke-width="0.398" fill="none" /><path id="575" transform="matrix(1 0 0 -1 0 792)" d="M1072.147 488.914L1072.147 516.012" stroke="#000000" stroke-width="0.398" fill="none" /><path id="577" transform="matrix(1 0 0 -1 0 792)" d="M1127.526 488.914L1127.526 516.012" stroke="#000000" stroke-width="0.398" fill="none" /><path id="578" transform="matrix(1 0 0 -1 0 792)" d="M742.795 488.715L1127.726 488.715" stroke="#000000" stroke-width="0.398" fill="none" /><path id="579" transform="matrix(1 0 0 -1 0 792)" d="M742.795 488.715L1127.726 488.715" stroke="#000000" stroke-width="0.398" fill="none" /><path id="580" transform="matrix(1 0 0 -1 0 792)" d="M742.994 461.417L742.994 488.515" stroke="#000000" stroke-width="0.398" fill="none" /><path id="634" transform="matrix(1 0 0 -1 0 792)" d="M1072.147 461.417L1072.147 488.515" stroke="#000000" stroke-width="0.398" fill="none" /><path id="636" transform="matrix(1 0 0 -1 0 792)" d="M1127.526 461.417L1127.526 488.515" stroke="#000000" stroke-width="0.398" fill="none" /><path id="637" transform="matrix(1 0 0 -1 0 792)" d="M742.795 461.218L1127.726 461.218" stroke="#000000" stroke-width="0.398" fill="none" /><path id="638" transform="matrix(1 0 0 -1 0 792)" d="M742.795 461.218L1127.726 461.218" stroke="#000000" stroke-width="0.398" fill="none" /><path id="639" transform="matrix(1 0 0 -1 0 792)" d="M742.994 433.92L742.994 461.018" stroke="#000000" stroke-width="0.398" fill="none" /><path id="694" transform="matrix(1 0 0 -1 0 792)" d="M1072.147 433.92L1072.147 461.018" stroke="#000000" stroke-width="0.398" fill="none" /><path id="696" transform="matrix(1 0 0 -1 0 792)" d="M1127.526 433.92L1127.526 461.018" stroke="#000000" stroke-width="0.398" fill="none" /><path id="697" transform="matrix(1 0 0 -1 0 792)" d="M742.795 433.721L1127.726 433.721" stroke="#000000" stroke-width="0.398" fill="none" /><path id="698" transform="matrix(1 0 0 -1 0 792)" d="M742.795 433.721L1127.726 433.721" stroke="#000000" stroke-width="0.398" fill="none" /><path id="699" transform="matrix(1 0 0 -1 0 792)" d="M742.994 406.423L742.994 433.521" stroke="#000000" stroke-width="0.398" fill="none" /><path id="762" transform="matrix(1 0 0 -1 0 792)" d="M1072.147 406.423L1072.147 433.521" stroke="#000000" stroke-width="0.398" fill="none" /><path id="764" transform="matrix(1 0 0 -1 0 792)" d="M1127.526 406.423L1127.526 433.521" stroke="#000000" stroke-width="0.398" fill="none" /><path id="765" transform="matrix(1 0 0 -1 0 792)" d="M742.795 406.224L1127.726 406.224" stroke="#000000" stroke-width="0.398" fill="none" /><path id="766" transform="matrix(1 0 0 -1 0 792)" d="M742.795 406.224L1127.726 406.224" stroke="#000000" stroke-width="0.398" fill="none" /><path id="767" transform="matrix(1 0 0 -1 0 792)" d="M742.994 392.458L742.994 406.025" stroke="#000000" stroke-width="0.398" fill="none" /><path id="796" transform="matrix(1 0 0 -1 0 792)" d="M1072.147 392.458L1072.147 406.025" stroke="#000000" stroke-width="0.398" fill="none" /><path id="798" transform="matrix(1 0 0 -1 0 792)" d="M1127.526 392.458L1127.526 406.025" stroke="#000000" stroke-width="0.398" fill="none" /><path id="799" transform="matrix(1 0 0 -1 0 792)" d="M742.795 392.259L1127.726 392.259" stroke="#000000" stroke-width="0.398" fill="none" /><path id="800" transform="matrix(1 0 0 -1 0 792)" d="M742.795 392.259L1127.726 392.259" stroke="#000000" stroke-width="0.398" fill="none" /><path id="801" transform="matrix(1 0 0 -1 0 792)" d="M742.994 378.493L742.994 392.06" stroke="#000000" stroke-width="0.398" fill="none" /><path id="821" transform="matrix(1 0 0 -1 0 792)" d="M1072.147 378.493L1072.147 392.06" stroke="#000000" stroke-width="0.398" fill="none" /><path id="823" transform="matrix(1 0 0 -1 0 792)" d="M1127.526 378.493L1127.526 392.06" stroke="#000000" stroke-width="0.398" fill="none" /><path id="824" transform="matrix(1 0 0 -1 0 792)" d="M742.795 378.294L1127.726 378.294" stroke="#000000" stroke-width="0.398" fill="none" /><path id="825" transform="matrix(1 0 0 -1 0 792)" d="M742.795 378.294L1127.726 378.294" stroke="#000000" stroke-width="0.398" fill="none" /><path id="826" transform="matrix(1 0 0 -1 0 792)" d="M742.994 364.528L742.994 378.095" stroke="#000000" stroke-width="0.398" fill="none" /><path id="861" transform="matrix(1 0 0 -1 0 792)" d="M1072.147 364.528L1072.147 378.095" stroke="#000000" stroke-width="0.398" fill="none" /><path id="863" transform="matrix(1 0 0 -1 0 792)" d="M1127.526 364.528L1127.526 378.095" stroke="#000000" stroke-width="0.398" fill="none" /><path id="864" transform="matrix(1 0 0 -1 0 792)" d="M742.795 364.329L1127.726 364.329" stroke="#000000" stroke-width="0.398" fill="none" /><path id="865" transform="matrix(1 0 0 -1 0 792)" d="M742.795 364.329L1127.726 364.329" stroke="#000000" stroke-width="0.398" fill="none" /><path id="866" transform="matrix(1 0 0 -1 0 792)" d="M742.994 350.563L742.994 364.13" stroke="#000000" stroke-width="0.398" fill="none" /><path id="892" transform="matrix(1 0 0 -1 0 792)" d="M1072.147 350.563L1072.147 364.13" stroke="#000000" stroke-width="0.398" fill="none" /><path id="894" transform="matrix(1 0 0 -1 0 792)" d="M1127.526 350.563L1127.526 364.13" stroke="#000000" stroke-width="0.398" fill="none" /><path id="895" transform="matrix(1 0 0 -1 0 792)" d="M742.795 350.364L1127.726 350.364" stroke="#000000" stroke-width="0.398" fill="none" /><path id="896" transform="matrix(1 0 0 -1 0 792)" d="M742.795 350.364L1127.726 350.364" stroke="#000000" stroke-width="0.398" fill="none" /><path id="897" transform="matrix(1 0 0 -1 0 792)" d="M742.795 349.965L1127.726 349.965" stroke="#000000" stroke-width="0.398" fill="none" /><path id="898" transform="matrix(1 0 0 -1 0 792)" d="M742.795 349.965L1127.726 349.965" stroke="#000000" stroke-width="0.398" fill="none" /><path id="899" transform="matrix(1 0 0 -1 0 792)" d="M742.994 336.199L742.994 349.766" stroke="#000000" stroke-width="0.398" fill="none" /><path id="939" transform="matrix(1 0 0 -1 0 792)" d="M1072.147 336.199L1072.147 349.766" stroke="#000000" stroke-width="0.398" fill="none" /><path id="941" transform="matrix(1 0 0 -1 0 792)" d="M1127.526 336.199L1127.526 349.766" stroke="#000000" stroke-width="0.398" fill="none" /><path id="942" transform="matrix(1 0 0 -1 0 792)" d="M742.795 336L1127.726 336" stroke="#000000" stroke-width="0.398" fill="none" /><path id="943" transform="matrix(1 0 0 -1 0 792)" d="M742.795 336L1127.726 336" stroke="#000000" stroke-width="0.398" fill="none" /><path id="944" transform="matrix(1 0 0 -1 0 792)" d="M742.994 308.702L742.994 335.8" stroke="#000000" stroke-width="0.398" fill="none" /><path id="1008" transform="matrix(1 0 0 -1 0 792)" d="M1072.147 308.702L1072.147 335.8" stroke="#000000" stroke-width="0.398" fill="none" /><path id="1010" transform="matrix(1 0 0 -1 0 792)" d="M1127.526 308.702L1127.526 335.8" stroke="#000000" stroke-width="0.398" fill="none" /><path id="1011" transform="matrix(1 0 0 -1 0 792)" d="M742.795 308.503L1127.726 308.503" stroke="#000000" stroke-width="0.398" fill="none" /><path id="1012" transform="matrix(1 0 0 -1 0 792)" d="M742.795 308.503L1127.726 308.503" stroke="#000000" stroke-width="0.398" fill="none" /><path id="1013" transform="matrix(1 0 0 -1 0 792)" d="M742.994 294.737L742.994 308.304" stroke="#000000" stroke-width="0.398" fill="none" /><path id="1051" transform="matrix(1 0 0 -1 0 792)" d="M1072.147 294.737L1072.147 308.304" stroke="#000000" stroke-width="0.398" fill="none" /><path id="1053" transform="matrix(1 0 0 -1 0 792)" d="M1127.526 294.737L1127.526 308.304" stroke="#000000" stroke-width="0.398" fill="none" /><path id="1054" transform="matrix(1 0 0 -1 0 792)" d="M742.795 294.538L1127.726 294.538" stroke="#000000" stroke-width="0.398" fill="none" /><path id="1055" transform="matrix(1 0 0 -1 0 792)" d="M742.795 294.538L1127.726 294.538" stroke="#000000" stroke-width="0.398" fill="none" /><path id="1056" transform="matrix(1 0 0 -1 0 792)" d="M742.994 267.24L742.994 294.338" stroke="#000000" stroke-width="0.398" fill="none" /><path id="1144" transform="matrix(1 0 0 -1 0 792)" d="M1072.147 267.24L1072.147 294.338" stroke="#000000" stroke-width="0.398" fill="none" /><path id="1146" transform="matrix(1 0 0 -1 0 792)" d="M1127.526 267.24L1127.526 294.338" stroke="#000000" stroke-width="0.398" fill="none" /><path id="1147" transform="matrix(1 0 0 -1 0 792)" d="M742.795 267.041L1127.726 267.041" stroke="#000000" stroke-width="0.398" fill="none" /><path id="1148" transform="matrix(1 0 0 -1 0 792)" d="M742.795 267.041L1127.726 267.041" stroke="#000000" stroke-width="0.398" fill="none" /><path id="1149" transform="matrix(1 0 0 -1 0 792)" d="M701.933 722.529L1168.588 722.529L1168.588 722.529L1168.588 735.6745L1168.588 735.6745L701.933 735.6745z" stroke="#FFFFFF" stroke-width="1" fill="#FFFFFF" fill-rule="nonzero" /><path id="1158" transform="matrix(1 0 0 -1 0 792)" d="M729.206 66.6226L1168.591 66.6226L1168.591 66.6226L1168.591 186.5526L1168.591 186.5526L729.206 186.5526z" stroke="#FFFFFF" stroke-width="1" fill="#FFFFFF" fill-rule="nonzero" /><path id="1503" transform="matrix(1 0 0 -1 0 792)" d="M89.933 721.28L556.588 721.28" stroke="#000000" stroke-width="0.498" fill="none" /><path id="1504" transform="matrix(1 0 0 -1 0 792)" d="M130.795 696.423L515.726 696.423" stroke="#000000" stroke-width="0.398" fill="none" /><path id="1505" transform="matrix(1 0 0 -1 0 792)" d="M130.795 696.423L515.726 696.423" stroke="#000000" stroke-width="0.398" fill="none" /><path id="1506" transform="matrix(1 0 0 -1 0 792)" d="M130.994 682.658L130.994 696.225" stroke="#000000" stroke-width="0.398" fill="none" /><path id="1507" transform="matrix(1 0 0 -1 0 792)" d="M131.193 682.658L459.948 682.658L459.948 696.225L131.193 696.225z" stroke="none" fill="#CCCCEB" fill-rule="nonzero" /><path id="1517" transform="matrix(1 0 0 -1 0 792)" d="M460.147 682.658L460.147 696.225" stroke="#000000" stroke-width="0.398" fill="none" /><path id="1518" transform="matrix(1 0 0 -1 0 792)" d="M460.347 682.658L515.327 682.658L515.327 696.225L460.347 696.225z" stroke="none" fill="#CCCCEB" fill-rule="nonzero" /><path id="1525" transform="matrix(1 0 0 -1 0 792)" d="M515.526 682.658L515.526 696.225" stroke="#000000" stroke-width="0.398" fill="none" /><path id="1526" transform="matrix(1 0 0 -1 0 792)" d="M130.795 682.458L515.726 682.458" stroke="#000000" stroke-width="0.398" fill="none" /><path id="1527" transform="matrix(1 0 0 -1 0 792)" d="M130.795 682.458L515.726 682.458" stroke="#000000" stroke-width="0.398" fill="none" /><path id="1528" transform="matrix(1 0 0 -1 0 792)" d="M130.795 682.06L515.726 682.06" stroke="#000000" stroke-width="0.398" fill="none" /><path id="1529" transform="matrix(1 0 0 -1 0 792)" d="M130.795 682.06L515.726 682.06" stroke="#000000" stroke-width="0.398" fill="none" /><path id="1530" transform="matrix(1 0 0 -1 0 792)" d="M130.795 682.06L515.726 682.06" stroke="#000000" stroke-width="0.398" fill="none" /><path id="1531" transform="matrix(1 0 0 -1 0 792)" d="M130.994 654.762L130.994 681.86" stroke="#000000" stroke-width="0.398" fill="none" /><path id="1588" transform="matrix(1 0 0 -1 0 792)" d="M460.147 654.762L460.147 681.86" stroke="#000000" stroke-width="0.398" fill="none" /><path id="1590" transform="matrix(1 0 0 -1 0 792)" d="M515.526 654.762L515.526 681.86" stroke="#000000" stroke-width="0.398" fill="none" /><path id="1591" transform="matrix(1 0 0 -1 0 792)" d="M130.795 654.563L515.726 654.563" stroke="#000000" stroke-width="0.398" fill="none" /><path id="1592" transform="matrix(1 0 0 -1 0 792)" d="M130.795 654.563L515.726 654.563" stroke="#000000" stroke-width="0.398" fill="none" /><path id="1593" transform="matrix(1 0 0 -1 0 792)" d="M130.994 640.797L130.994 654.364" stroke="#000000" stroke-width="0.398" fill="none" /><path id="1621" transform="matrix(1 0 0 -1 0 792)" d="M460.147 640.797L460.147 654.364" stroke="#000000" stroke-width="0.398" fill="none" /><path id="1623" transform="matrix(1 0 0 -1 0 792)" d="M515.526 640.797L515.526 654.364" stroke="#000000" stroke-width="0.398" fill="none" /><path id="1624" transform="matrix(1 0 0 -1 0 792)" d="M130.795 640.598L515.726 640.598" stroke="#000000" stroke-width="0.398" fill="none" /><path id="1625" transform="matrix(1 0 0 -1 0 792)" d="M130.795 640.598L515.726 640.598" stroke="#000000" stroke-width="0.398" fill="none" /><path id="1626" transform="matrix(1 0 0 -1 0 792)" d="M130.994 626.832L130.994 640.399" stroke="#000000" stroke-width="0.398" fill="none" /><path id="1656" transform="matrix(1 0 0 -1 0 792)" d="M460.147 626.832L460.147 640.399" stroke="#000000" stroke-width="0.398" fill="none" /><path id="1658" transform="matrix(1 0 0 -1 0 792)" d="M515.526 626.832L515.526 640.399" stroke="#000000" stroke-width="0.398" fill="none" /><path id="1659" transform="matrix(1 0 0 -1 0 792)" d="M130.795 626.633L515.726 626.633" stroke="#000000" stroke-width="0.398" fill="none" /><path id="1660" transform="matrix(1 0 0 -1 0 792)" d="M130.795 626.633L515.726 626.633" stroke="#000000" stroke-width="0.398" fill="none" /><path id="1661" transform="matrix(1 0 0 -1 0 792)" d="M130.994 612.867L130.994 626.434" stroke="#000000" stroke-width="0.398" fill="none" /><path id="1712" transform="matrix(1 0 0 -1 0 792)" d="M460.147 612.867L460.147 626.434" stroke="#000000" stroke-width="0.398" fill="none" /><path id="1714" transform="matrix(1 0 0 -1 0 792)" d="M515.526 612.867L515.526 626.434" stroke="#000000" stroke-width="0.398" fill="none" /><path id="1715" transform="matrix(1 0 0 -1 0 792)" d="M130.795 612.667L515.726 612.667" stroke="#000000" stroke-width="0.398" fill="none" /><path id="1716" transform="matrix(1 0 0 -1 0 792)" d="M130.795 612.667L515.726 612.667" stroke="#000000" stroke-width="0.398" fill="none" /><path id="1717" transform="matrix(1 0 0 -1 0 792)" d="M130.994 585.37L130.994 612.468" stroke="#000000" stroke-width="0.398" fill="none" /><path id="1792" transform="matrix(1 0 0 -1 0 792)" d="M460.147 585.37L460.147 612.468" stroke="#000000" stroke-width="0.398" fill="none" /><path id="1794" transform="matrix(1 0 0 -1 0 792)" d="M515.526 585.37L515.526 612.468" stroke="#000000" stroke-width="0.398" fill="none" /><path id="1795" transform="matrix(1 0 0 -1 0 792)" d="M130.795 585.171L515.726 585.171" stroke="#000000" stroke-width="0.398" fill="none" /><path id="1796" transform="matrix(1 0 0 -1 0 792)" d="M130.795 585.171L515.726 585.171" stroke="#000000" stroke-width="0.398" fill="none" /><path id="1797" transform="matrix(1 0 0 -1 0 792)" d="M130.994 557.873L130.994 584.971" stroke="#000000" stroke-width="0.398" fill="none" /><path id="1871" transform="matrix(1 0 0 -1 0 792)" d="M460.147 557.873L460.147 584.971" stroke="#000000" stroke-width="0.398" fill="none" /><path id="1873" transform="matrix(1 0 0 -1 0 792)" d="M515.526 557.873L515.526 584.971" stroke="#000000" stroke-width="0.398" fill="none" /><path id="1874" transform="matrix(1 0 0 -1 0 792)" d="M130.795 557.674L515.726 557.674" stroke="#000000" stroke-width="0.398" fill="none" /><path id="1875" transform="matrix(1 0 0 -1 0 792)" d="M130.795 557.674L515.726 557.674" stroke="#000000" stroke-width="0.398" fill="none" /><path id="1876" transform="matrix(1 0 0 -1 0 792)" d="M130.994 543.908L130.994 557.475" stroke="#000000" stroke-width="0.398" fill="none" /><path id="1925" transform="matrix(1 0 0 -1 0 792)" d="M460.147 543.908L460.147 557.475" stroke="#000000" stroke-width="0.398" fill="none" /><path id="1927" transform="matrix(1 0 0 -1 0 792)" d="M515.526 543.908L515.526 557.475" stroke="#000000" stroke-width="0.398" fill="none" /><path id="1928" transform="matrix(1 0 0 -1 0 792)" d="M130.795 543.709L515.726 543.709" stroke="#000000" stroke-width="0.398" fill="none" /><path id="1929" transform="matrix(1 0 0 -1 0 792)" d="M130.795 543.709L515.726 543.709" stroke="#000000" stroke-width="0.398" fill="none" /><path id="1930" transform="matrix(1 0 0 -1 0 792)" d="M130.994 516.411L130.994 543.509" stroke="#000000" stroke-width="0.398" fill="none" /><path id="2002" transform="matrix(1 0 0 -1 0 792)" d="M460.147 516.411L460.147 543.509" stroke="#000000" stroke-width="0.398" fill="none" /><path id="2004" transform="matrix(1 0 0 -1 0 792)" d="M515.526 516.411L515.526 543.509" stroke="#000000" stroke-width="0.398" fill="none" /><path id="2005" transform="matrix(1 0 0 -1 0 792)" d="M130.795 516.212L515.726 516.212" stroke="#000000" stroke-width="0.398" fill="none" /><path id="2006" transform="matrix(1 0 0 -1 0 792)" d="M130.795 516.212L515.726 516.212" stroke="#000000" stroke-width="0.398" fill="none" /><path id="2007" transform="matrix(1 0 0 -1 0 792)" d="M130.994 488.914L130.994 516.012" stroke="#000000" stroke-width="0.398" fill="none" /><path id="2077" transform="matrix(1 0 0 -1 0 792)" d="M460.147 488.914L460.147 516.012" stroke="#000000" stroke-width="0.398" fill="none" /><path id="2079" transform="matrix(1 0 0 -1 0 792)" d="M515.526 488.914L515.526 516.012" stroke="#000000" stroke-width="0.398" fill="none" /><path id="2080" transform="matrix(1 0 0 -1 0 792)" d="M130.795 488.715L515.726 488.715" stroke="#000000" stroke-width="0.398" fill="none" /><path id="2081" transform="matrix(1 0 0 -1 0 792)" d="M130.795 488.715L515.726 488.715" stroke="#000000" stroke-width="0.398" fill="none" /><path id="2082" transform="matrix(1 0 0 -1 0 792)" d="M130.994 461.417L130.994 488.515" stroke="#000000" stroke-width="0.398" fill="none" /><path id="2136" transform="matrix(1 0 0 -1 0 792)" d="M460.147 461.417L460.147 488.515" stroke="#000000" stroke-width="0.398" fill="none" /><path id="2138" transform="matrix(1 0 0 -1 0 792)" d="M515.526 461.417L515.526 488.515" stroke="#000000" stroke-width="0.398" fill="none" /><path id="2139" transform="matrix(1 0 0 -1 0 792)" d="M130.795 461.218L515.726 461.218" stroke="#000000" stroke-width="0.398" fill="none" /><path id="2140" transform="matrix(1 0 0 -1 0 792)" d="M130.795 461.218L515.726 461.218" stroke="#000000" stroke-width="0.398" fill="none" /><path id="2141" transform="matrix(1 0 0 -1 0 792)" d="M130.994 433.92L130.994 461.018" stroke="#000000" stroke-width="0.398" fill="none" /><path id="2196" transform="matrix(1 0 0 -1 0 792)" d="M460.147 433.92L460.147 461.018" stroke="#000000" stroke-width="0.398" fill="none" /><path id="2198" transform="matrix(1 0 0 -1 0 792)" d="M515.526 433.92L515.526 461.018" stroke="#000000" stroke-width="0.398" fill="none" /><path id="2199" transform="matrix(1 0 0 -1 0 792)" d="M130.795 433.721L515.726 433.721" stroke="#000000" stroke-width="0.398" fill="none" /><path id="2200" transform="matrix(1 0 0 -1 0 792)" d="M130.795 433.721L515.726 433.721" stroke="#000000" stroke-width="0.398" fill="none" /><path id="2201" transform="matrix(1 0 0 -1 0 792)" d="M130.994 406.423L130.994 433.521" stroke="#000000" stroke-width="0.398" fill="none" /><path id="2264" transform="matrix(1 0 0 -1 0 792)" d="M460.147 406.423L460.147 433.521" stroke="#000000" stroke-width="0.398" fill="none" /><path id="2266" transform="matrix(1 0 0 -1 0 792)" d="M515.526 406.423L515.526 433.521" stroke="#000000" stroke-width="0.398" fill="none" /><path id="2267" transform="matrix(1 0 0 -1 0 792)" d="M130.795 406.224L515.726 406.224" stroke="#000000" stroke-width="0.398" fill="none" /><path id="2268" transform="matrix(1 0 0 -1 0 792)" d="M130.795 406.224L515.726 406.224" stroke="#000000" stroke-width="0.398" fill="none" /><path id="2269" transform="matrix(1 0 0 -1 0 792)" d="M130.994 392.458L130.994 406.025" stroke="#000000" stroke-width="0.398" fill="none" /><path id="2298" transform="matrix(1 0 0 -1 0 792)" d="M460.147 392.458L460.147 406.025" stroke="#000000" stroke-width="0.398" fill="none" /><path id="2300" transform="matrix(1 0 0 -1 0 792)" d="M515.526 392.458L515.526 406.025" stroke="#000000" stroke-width="0.398" fill="none" /><path id="2301" transform="matrix(1 0 0 -1 0 792)" d="M130.795 392.259L515.726 392.259" stroke="#000000" stroke-width="0.398" fill="none" /><path id="2302" transform="matrix(1 0 0 -1 0 792)" d="M130.795 392.259L515.726 392.259" stroke="#000000" stroke-width="0.398" fill="none" /><path id="2303" transform="matrix(1 0 0 -1 0 792)" d="M130.994 378.493L130.994 392.06" stroke="#000000" stroke-width="0.398" fill="none" /><path id="2323" transform="matrix(1 0 0 -1 0 792)" d="M460.147 378.493L460.147 392.06" stroke="#000000" stroke-width="0.398" fill="none" /><path id="2325" transform="matrix(1 0 0 -1 0 792)" d="M515.526 378.493L515.526 392.06" stroke="#000000" stroke-width="0.398" fill="none" /><path id="2326" transform="matrix(1 0 0 -1 0 792)" d="M130.795 378.294L515.726 378.294" stroke="#000000" stroke-width="0.398" fill="none" /><path id="2327" transform="matrix(1 0 0 -1 0 792)" d="M130.795 378.294L515.726 378.294" stroke="#000000" stroke-width="0.398" fill="none" /><path id="2328" transform="matrix(1 0 0 -1 0 792)" d="M130.994 364.528L130.994 378.095" stroke="#000000" stroke-width="0.398" fill="none" /><path id="2363" transform="matrix(1 0 0 -1 0 792)" d="M460.147 364.528L460.147 378.095" stroke="#000000" stroke-width="0.398" fill="none" /><path id="2365" transform="matrix(1 0 0 -1 0 792)" d="M515.526 364.528L515.526 378.095" stroke="#000000" stroke-width="0.398" fill="none" /><path id="2366" transform="matrix(1 0 0 -1 0 792)" d="M130.795 364.329L515.726 364.329" stroke="#000000" stroke-width="0.398" fill="none" /><path id="2367" transform="matrix(1 0 0 -1 0 792)" d="M130.795 364.329L515.726 364.329" stroke="#000000" stroke-width="0.398" fill="none" /><path id="2368" transform="matrix(1 0 0 -1 0 792)" d="M130.994 350.563L130.994 364.13" stroke="#000000" stroke-width="0.398" fill="none" /><path id="2394" transform="matrix(1 0 0 -1 0 792)" d="M460.147 350.563L460.147 364.13" stroke="#000000" stroke-width="0.398" fill="none" /><path id="2396" transform="matrix(1 0 0 -1 0 792)" d="M515.526 350.563L515.526 364.13" stroke="#000000" stroke-width="0.398" fill="none" /><path id="2397" transform="matrix(1 0 0 -1 0 792)" d="M130.795 350.364L515.726 350.364" stroke="#000000" stroke-width="0.398" fill="none" /><path id="2398" transform="matrix(1 0 0 -1 0 792)" d="M130.795 350.364L515.726 350.364" stroke="#000000" stroke-width="0.398" fill="none" /><path id="2399" transform="matrix(1 0 0 -1 0 792)" d="M130.795 349.965L515.726 349.965" stroke="#000000" stroke-width="0.398" fill="none" /><path id="2400" transform="matrix(1 0 0 -1 0 792)" d="M130.795 349.965L515.726 349.965" stroke="#000000" stroke-width="0.398" fill="none" /><path id="2401" transform="matrix(1 0 0 -1 0 792)" d="M130.994 336.199L130.994 349.766" stroke="#000000" stroke-width="0.398" fill="none" /><path id="2441" transform="matrix(1 0 0 -1 0 792)" d="M460.147 336.199L460.147 349.766" stroke="#000000" stroke-width="0.398" fill="none" /><path id="2443" transform="matrix(1 0 0 -1 0 792)" d="M515.526 336.199L515.526 349.766" stroke="#000000" stroke-width="0.398" fill="none" /><path id="2444" transform="matrix(1 0 0 -1 0 792)" d="M130.795 336L515.726 336" stroke="#000000" stroke-width="0.398" fill="none" /><path id="2445" transform="matrix(1 0 0 -1 0 792)" d="M130.795 336L515.726 336" stroke="#000000" stroke-width="0.398" fill="none" /><path id="2446" transform="matrix(1 0 0 -1 0 792)" d="M130.994 308.702L130.994 335.8" stroke="#000000" stroke-width="0.398" fill="none" /><path id="2510" transform="matrix(1 0 0 -1 0 792)" d="M460.147 308.702L460.147 335.8" stroke="#000000" stroke-width="0.398" fill="none" /><path id="2512" transform="matrix(1 0 0 -1 0 792)" d="M515.526 308.702L515.526 335.8" stroke="#000000" stroke-width="0.398" fill="none" /><path id="2513" transform="matrix(1 0 0 -1 0 792)" d="M130.795 308.503L515.726 308.503" stroke="#000000" stroke-width="0.398" fill="none" /><path id="2514" transform="matrix(1 0 0 -1 0 792)" d="M130.795 308.503L515.726 308.503" stroke="#000000" stroke-width="0.398" fill="none" /><path id="2515" transform="matrix(1 0 0 -1 0 792)" d="M130.994 294.737L130.994 308.304" stroke="#000000" stroke-width="0.398" fill="none" /><path id="2553" transform="matrix(1 0 0 -1 0 792)" d="M460.147 294.737L460.147 308.304" stroke="#000000" stroke-width="0.398" fill="none" /><path id="2555" transform="matrix(1 0 0 -1 0 792)" d="M515.526 294.737L515.526 308.304" stroke="#000000" stroke-width="0.398" fill="none" /><path id="2556" transform="matrix(1 0 0 -1 0 792)" d="M130.795 294.538L515.726 294.538" stroke="#000000" stroke-width="0.398" fill="none" /><path id="2557" transform="matrix(1 0 0 -1 0 792)" d="M130.795 294.538L515.726 294.538" stroke="#000000" stroke-width="0.398" fill="none" /><path id="2558" transform="matrix(1 0 0 -1 0 792)" d="M130.994 267.24L130.994 294.338" stroke="#000000" stroke-width="0.398" fill="none" /><path id="2646" transform="matrix(1 0 0 -1 0 792)" d="M460.147 267.24L460.147 294.338" stroke="#000000" stroke-width="0.398" fill="none" /><path id="2648" transform="matrix(1 0 0 -1 0 792)" d="M515.526 267.24L515.526 294.338" stroke="#000000" stroke-width="0.398" fill="none" /><path id="2649" transform="matrix(1 0 0 -1 0 792)" d="M130.795 267.041L515.726 267.041" stroke="#000000" stroke-width="0.398" fill="none" /><path id="2650" transform="matrix(1 0 0 -1 0 792)" d="M130.795 267.041L515.726 267.041" stroke="#000000" stroke-width="0.398" fill="none" /></g></g></svg>