<svg xmlns="http://www.w3.org/2000/svg" xmlns:xlink="http://www.w3.org/1999/xlink" id="body_76" preserveAspectRatio="xMinYMin meet" viewBox="0 0 1632 1056"><defs><clipPath id="1"><path id="" clip-rule="evenodd" transform="matrix(1 0 0 1 0 0)" d="M0 792L0 0L0 0L1224 0L1224 0L1224 792L1224 792L0 792z" /></clipPath></defs><g transform="matrix(1.333333 0 0 1.333333 0 0)"><g clip-path="url(#1)"><path id="479" transform="matrix(1 0 0 -1 0 792)" d="M666.067 477.567L1132.726 477.567L1132.726 477.567L1132.726 517.8105L1132.726 517.8105L666.067 517.8105z" stroke="#FFFFFF" stroke-width="1" fill="#FFFFFF" fill-rule="nonzero" /><path id="560" transform="matrix(1 0 0 -1 0 792)" d="M666.067 331.42L785.347 331.42L785.347 331.42L785.347 344.5655L785.347 344.5655L666.067 344.5655z" stroke="#FFFFFF" stroke-width="1" fill="#FFFFFF" fill-rule="nonzero" /><path id="585" transform="matrix(1 0 0 -1 0 792)" d="M666.067 81.9955L857.849 81.9955L857.849 81.9955L857.849 95.141L857.849 95.141L666.067 95.141z" stroke="#FFFFFF" stroke-width="1" fill="#FFFFFF" fill-rule="nonzero" /></g></g></svg>