<svg xmlns="http://www.w3.org/2000/svg" xmlns:xlink="http://www.w3.org/1999/xlink" id="body_31" preserveAspectRatio="xMinYMin meet" viewBox="0 0 1632 1056"><defs><clipPath id="1"><path id="" clip-rule="evenodd" transform="matrix(1 0 0 1 0 0)" d="M0 792L0 0L0 0L1224 0L1224 0L1224 792L1224 792L0 792z" /></clipPath></defs><g transform="matrix(1.333333 0 0 1.333333 0 0)"><g clip-path="url(#1)"><path id="16" transform="matrix(1 0 0 -1 0 792)" d="M701.933 721.28L1168.588 721.28" stroke="#000000" stroke-width="0.498" fill="none" /><path id="17" transform="matrix(1 0 0 -1 0 792)" d="M1159.621 649.998L1162.61 649.998" stroke="#000000" stroke-width="0.398" fill="none" /><path id="18" transform="matrix(1 0 0 -1 0 792)" d="M729.206 611.094L1168.591 611.094L1168.591 611.094L1168.591 695.1588L1168.591 695.1588L729.206 695.1588z" stroke="#FFFFFF" stroke-width="1" fill="#FFFFFF" fill-rule="nonzero" /><path id="213" transform="matrix(1 0 0 -1 0 792)" d="M729.206 524.418L1168.587 524.418L1168.587 524.418L1168.587 608.4828L1168.587 608.4828L729.206 608.4828z" stroke="#FFFFFF" stroke-width="1" fill="#FFFFFF" fill-rule="nonzero" /><path id="411" transform="matrix(1 0 0 -1 0 792)" d="M729.206 485.564L1168.592 485.564L1168.592 485.564L1168.592 521.8784L1168.592 521.8784L729.206 521.8784z" stroke="#FFFFFF" stroke-width="1" fill="#FFFFFF" fill-rule="nonzero" /><path id="490" transform="matrix(1 0 0 -1 0 792)" d="M729.206 458.665L1168.587 458.665L1168.587 458.665L1168.587 482.9537L1168.587 482.9537L729.206 482.9537z" stroke="#FFFFFF" stroke-width="1" fill="#FFFFFF" fill-rule="nonzero" /><path id="563" transform="matrix(1 0 0 -1 0 792)" d="M89.933 721.28L556.588 721.28" stroke="#000000" stroke-width="0.498" fill="none" /><path id="896" transform="matrix(1 0 0 -1 0 792)" d="M547.621 649.998L550.61 649.998" stroke="#000000" stroke-width="0.398" fill="none" /></g></g></svg>