<svg xmlns="http://www.w3.org/2000/svg" xmlns:xlink="http://www.w3.org/1999/xlink" id="body_54" preserveAspectRatio="xMinYMin meet" viewBox="0 0 1632 1056"><defs><clipPath id="1"><path id="" clip-rule="evenodd" transform="matrix(1 0 0 1 0 0)" d="M0 792L0 0L0 0L1224 0L1224 0L1224 792L1224 792L0 792z" /></clipPath></defs><g transform="matrix(1.333333 0 0 1.333333 0 0)"><g clip-path="url(#1)"><path id="1" transform="matrix(1 0 0 -1 0 792)" d="M666.067 721.28L1132.722 721.28" stroke="#000000" stroke-width="0.498" fill="none" /><path id="28" transform="matrix(1 0 0 -1 0 792)" d="M729.338 537.914L1069.451 537.914" stroke="#000000" stroke-width="0.398" fill="none" /><path id="29" transform="matrix(1 0 0 -1 0 792)" d="M729.537 524.148L729.537 537.715" stroke="#000000" stroke-width="0.398" fill="none" /><path id="30" transform="matrix(1 0 0 -1 0 792)" d="M729.737 524.148L921.692 524.148L921.692 537.715L729.737 537.715z" stroke="none" fill="#CCCCEB" fill-rule="nonzero" /><path id="36" transform="matrix(1 0 0 -1 0 792)" d="M921.891 524.148L921.891 537.715" stroke="#000000" stroke-width="0.398" fill="none" /><path id="37" transform="matrix(1 0 0 -1 0 792)" d="M922.09 524.148L980.714 524.148L980.714 537.715L922.09 537.715z" stroke="none" fill="#CCCCEB" fill-rule="nonzero" /><path id="47" transform="matrix(1 0 0 -1 0 792)" d="M980.913 524.148L980.913 537.715" stroke="#000000" stroke-width="0.398" fill="none" /><path id="48" transform="matrix(1 0 0 -1 0 792)" d="M981.112 524.148L1039.736 524.148L1039.736 537.715L981.112 537.715z" stroke="none" fill="#CCCCEB" fill-rule="nonzero" /><path id="56" transform="matrix(1 0 0 -1 0 792)" d="M1039.935 524.148L1039.935 537.715" stroke="#000000" stroke-width="0.398" fill="none" /><path id="57" transform="matrix(1 0 0 -1 0 792)" d="M1040.134 524.148L1069.053 524.148L1069.053 537.715L1040.134 537.715z" stroke="none" fill="#CCCCEB" fill-rule="nonzero" /><path id="61" transform="matrix(1 0 0 -1 0 792)" d="M1069.252 524.148L1069.252 537.715" stroke="#000000" stroke-width="0.398" fill="none" /><path id="62" transform="matrix(1 0 0 -1 0 792)" d="M729.537 510.581L729.537 524.148" stroke="#000000" stroke-width="0.398" fill="none" /><path id="63" transform="matrix(1 0 0 -1 0 792)" d="M729.737 510.581L921.692 510.581L921.692 524.148L729.737 524.148z" stroke="none" fill="#CCCCEB" fill-rule="nonzero" /><path id="64" transform="matrix(1 0 0 -1 0 792)" d="M921.891 510.581L921.891 524.148" stroke="#000000" stroke-width="0.398" fill="none" /><path id="65" transform="matrix(1 0 0 -1 0 792)" d="M922.09 510.581L980.714 510.581L980.714 524.148L922.09 524.148z" stroke="none" fill="#CCCCEB" fill-rule="nonzero" /><path id="66" transform="matrix(1 0 0 -1 0 792)" d="M980.913 510.581L980.913 524.148" stroke="#000000" stroke-width="0.398" fill="none" /><path id="67" transform="matrix(1 0 0 -1 0 792)" d="M981.112 510.581L1039.736 510.581L1039.736 524.148L981.112 524.148z" stroke="none" fill="#CCCCEB" fill-rule="nonzero" /><path id="73" transform="matrix(1 0 0 -1 0 792)" d="M1039.935 510.581L1039.935 524.148" stroke="#000000" stroke-width="0.398" fill="none" /><path id="74" transform="matrix(1 0 0 -1 0 792)" d="M1040.134 510.581L1069.053 510.581L1069.053 524.148L1040.134 524.148z" stroke="none" fill="#CCCCEB" fill-rule="nonzero" /><path id="75" transform="matrix(1 0 0 -1 0 792)" d="M1069.252 510.581L1069.252 524.148" stroke="#000000" stroke-width="0.398" fill="none" /><path id="76" transform="matrix(1 0 0 -1 0 792)" d="M729.338 510.382L1069.451 510.382" stroke="#000000" stroke-width="0.398" fill="none" /><path id="77" transform="matrix(1 0 0 -1 0 792)" d="M729.338 507.991L1069.451 507.991" stroke="#000000" stroke-width="0.398" fill="none" /><path id="78" transform="matrix(1 0 0 -1 0 792)" d="M729.537 494.225L729.537 507.792" stroke="#000000" stroke-width="0.398" fill="none" /><path id="94" transform="matrix(1 0 0 -1 0 792)" d="M921.891 494.225L921.891 507.792" stroke="#000000" stroke-width="0.398" fill="none" /><path id="96" transform="matrix(1 0 0 -1 0 792)" d="M980.913 494.225L980.913 507.792" stroke="#000000" stroke-width="0.398" fill="none" /><path id="98" transform="matrix(1 0 0 -1 0 792)" d="M1039.935 494.225L1039.935 507.792" stroke="#000000" stroke-width="0.398" fill="none" /><path id="100" transform="matrix(1 0 0 -1 0 792)" d="M1069.252 494.225L1069.252 507.792" stroke="#000000" stroke-width="0.398" fill="none" /><path id="101" transform="matrix(1 0 0 -1 0 792)" d="M729.338 494.026L1069.451 494.026" stroke="#000000" stroke-width="0.398" fill="none" /><path id="102" transform="matrix(1 0 0 -1 0 792)" d="M729.537 480.26L729.537 493.827" stroke="#000000" stroke-width="0.398" fill="none" /><path id="121" transform="matrix(1 0 0 -1 0 792)" d="M921.891 480.26L921.891 493.827" stroke="#000000" stroke-width="0.398" fill="none" /><path id="123" transform="matrix(1 0 0 -1 0 792)" d="M980.913 480.26L980.913 493.827" stroke="#000000" stroke-width="0.398" fill="none" /><path id="125" transform="matrix(1 0 0 -1 0 792)" d="M1039.935 480.26L1039.935 493.827" stroke="#000000" stroke-width="0.398" fill="none" /><path id="127" transform="matrix(1 0 0 -1 0 792)" d="M1069.252 480.26L1069.252 493.827" stroke="#000000" stroke-width="0.398" fill="none" /><path id="128" transform="matrix(1 0 0 -1 0 792)" d="M729.338 480.061L1069.451 480.061" stroke="#000000" stroke-width="0.398" fill="none" /><path id="129" transform="matrix(1 0 0 -1 0 792)" d="M729.537 466.295L729.537 479.862" stroke="#000000" stroke-width="0.398" fill="none" /><path id="149" transform="matrix(1 0 0 -1 0 792)" d="M921.891 466.295L921.891 479.862" stroke="#000000" stroke-width="0.398" fill="none" /><path id="151" transform="matrix(1 0 0 -1 0 792)" d="M980.913 466.295L980.913 479.862" stroke="#000000" stroke-width="0.398" fill="none" /><path id="153" transform="matrix(1 0 0 -1 0 792)" d="M1039.935 466.295L1039.935 479.862" stroke="#000000" stroke-width="0.398" fill="none" /><path id="155" transform="matrix(1 0 0 -1 0 792)" d="M1069.252 466.295L1069.252 479.862" stroke="#000000" stroke-width="0.398" fill="none" /><path id="156" transform="matrix(1 0 0 -1 0 792)" d="M729.338 466.096L1069.451 466.096" stroke="#000000" stroke-width="0.398" fill="none" /><path id="157" transform="matrix(1 0 0 -1 0 792)" d="M729.537 452.33L729.537 465.897" stroke="#000000" stroke-width="0.398" fill="none" /><path id="179" transform="matrix(1 0 0 -1 0 792)" d="M921.891 452.33L921.891 465.897" stroke="#000000" stroke-width="0.398" fill="none" /><path id="181" transform="matrix(1 0 0 -1 0 792)" d="M980.913 452.33L980.913 465.897" stroke="#000000" stroke-width="0.398" fill="none" /><path id="183" transform="matrix(1 0 0 -1 0 792)" d="M1039.935 452.33L1039.935 465.897" stroke="#000000" stroke-width="0.398" fill="none" /><path id="185" transform="matrix(1 0 0 -1 0 792)" d="M1069.252 452.33L1069.252 465.897" stroke="#000000" stroke-width="0.398" fill="none" /><path id="186" transform="matrix(1 0 0 -1 0 792)" d="M729.338 452.131L1069.451 452.131" stroke="#000000" stroke-width="0.398" fill="none" /><path id="187" transform="matrix(1 0 0 -1 0 792)" d="M729.537 438.365L729.537 451.932" stroke="#000000" stroke-width="0.398" fill="none" /><path id="206" transform="matrix(1 0 0 -1 0 792)" d="M921.891 438.365L921.891 451.932" stroke="#000000" stroke-width="0.398" fill="none" /><path id="208" transform="matrix(1 0 0 -1 0 792)" d="M980.913 438.365L980.913 451.932" stroke="#000000" stroke-width="0.398" fill="none" /><path id="210" transform="matrix(1 0 0 -1 0 792)" d="M1039.935 438.365L1039.935 451.932" stroke="#000000" stroke-width="0.398" fill="none" /><path id="212" transform="matrix(1 0 0 -1 0 792)" d="M1069.252 438.365L1069.252 451.932" stroke="#000000" stroke-width="0.398" fill="none" /><path id="213" transform="matrix(1 0 0 -1 0 792)" d="M729.338 438.165L1069.451 438.165" stroke="#000000" stroke-width="0.398" fill="none" /><path id="214" transform="matrix(1 0 0 -1 0 792)" d="M729.537 424.399L729.537 437.966" stroke="#000000" stroke-width="0.398" fill="none" /><path id="230" transform="matrix(1 0 0 -1 0 792)" d="M921.891 424.399L921.891 437.966" stroke="#000000" stroke-width="0.398" fill="none" /><path id="232" transform="matrix(1 0 0 -1 0 792)" d="M980.913 424.399L980.913 437.966" stroke="#000000" stroke-width="0.398" fill="none" /><path id="234" transform="matrix(1 0 0 -1 0 792)" d="M1039.935 424.399L1039.935 437.966" stroke="#000000" stroke-width="0.398" fill="none" /><path id="236" transform="matrix(1 0 0 -1 0 792)" d="M1069.252 424.399L1069.252 437.966" stroke="#000000" stroke-width="0.398" fill="none" /><path id="237" transform="matrix(1 0 0 -1 0 792)" d="M729.338 424.2L1069.451 424.2" stroke="#000000" stroke-width="0.398" fill="none" /><path id="238" transform="matrix(1 0 0 -1 0 792)" d="M729.537 410.434L729.537 424.001" stroke="#000000" stroke-width="0.398" fill="none" /><path id="262" transform="matrix(1 0 0 -1 0 792)" d="M921.891 410.434L921.891 424.001" stroke="#000000" stroke-width="0.398" fill="none" /><path id="264" transform="matrix(1 0 0 -1 0 792)" d="M980.913 410.434L980.913 424.001" stroke="#000000" stroke-width="0.398" fill="none" /><path id="266" transform="matrix(1 0 0 -1 0 792)" d="M1039.935 410.434L1039.935 424.001" stroke="#000000" stroke-width="0.398" fill="none" /><path id="268" transform="matrix(1 0 0 -1 0 792)" d="M1069.252 410.434L1069.252 424.001" stroke="#000000" stroke-width="0.398" fill="none" /><path id="269" transform="matrix(1 0 0 -1 0 792)" d="M729.338 410.235L1069.451 410.235" stroke="#000000" stroke-width="0.398" fill="none" /><path id="270" transform="matrix(1 0 0 -1 0 792)" d="M729.537 396.469L729.537 410.036" stroke="#000000" stroke-width="0.398" fill="none" /><path id="303" transform="matrix(1 0 0 -1 0 792)" d="M921.891 396.469L921.891 410.036" stroke="#000000" stroke-width="0.398" fill="none" /><path id="305" transform="matrix(1 0 0 -1 0 792)" d="M980.913 396.469L980.913 410.036" stroke="#000000" stroke-width="0.398" fill="none" /><path id="307" transform="matrix(1 0 0 -1 0 792)" d="M1039.935 396.469L1039.935 410.036" stroke="#000000" stroke-width="0.398" fill="none" /><path id="309" transform="matrix(1 0 0 -1 0 792)" d="M1069.252 396.469L1069.252 410.036" stroke="#000000" stroke-width="0.398" fill="none" /><path id="310" transform="matrix(1 0 0 -1 0 792)" d="M729.338 396.27L1069.451 396.27" stroke="#000000" stroke-width="0.398" fill="none" /><path id="311" transform="matrix(1 0 0 -1 0 792)" d="M729.537 382.504L729.537 396.071" stroke="#000000" stroke-width="0.398" fill="none" /><path id="341" transform="matrix(1 0 0 -1 0 792)" d="M921.891 382.504L921.891 396.071" stroke="#000000" stroke-width="0.398" fill="none" /><path id="343" transform="matrix(1 0 0 -1 0 792)" d="M980.913 382.504L980.913 396.071" stroke="#000000" stroke-width="0.398" fill="none" /><path id="345" transform="matrix(1 0 0 -1 0 792)" d="M1039.935 382.504L1039.935 396.071" stroke="#000000" stroke-width="0.398" fill="none" /><path id="347" transform="matrix(1 0 0 -1 0 792)" d="M1069.252 382.504L1069.252 396.071" stroke="#000000" stroke-width="0.398" fill="none" /><path id="348" transform="matrix(1 0 0 -1 0 792)" d="M729.338 382.305L1069.451 382.305" stroke="#000000" stroke-width="0.398" fill="none" /><path id="349" transform="matrix(1 0 0 -1 0 792)" d="M729.537 368.539L729.537 382.106" stroke="#000000" stroke-width="0.398" fill="none" /><path id="373" transform="matrix(1 0 0 -1 0 792)" d="M921.891 368.539L921.891 382.106" stroke="#000000" stroke-width="0.398" fill="none" /><path id="375" transform="matrix(1 0 0 -1 0 792)" d="M980.913 368.539L980.913 382.106" stroke="#000000" stroke-width="0.398" fill="none" /><path id="377" transform="matrix(1 0 0 -1 0 792)" d="M1039.935 368.539L1039.935 382.106" stroke="#000000" stroke-width="0.398" fill="none" /><path id="379" transform="matrix(1 0 0 -1 0 792)" d="M1069.252 368.539L1069.252 382.106" stroke="#000000" stroke-width="0.398" fill="none" /><path id="380" transform="matrix(1 0 0 -1 0 792)" d="M729.338 368.34L1069.451 368.34" stroke="#000000" stroke-width="0.398" fill="none" /><path id="381" transform="matrix(1 0 0 -1 0 792)" d="M729.537 354.574L729.537 368.141" stroke="#000000" stroke-width="0.398" fill="none" /><path id="394" transform="matrix(1 0 0 -1 0 792)" d="M921.891 354.574L921.891 368.141" stroke="#000000" stroke-width="0.398" fill="none" /><path id="396" transform="matrix(1 0 0 -1 0 792)" d="M980.913 354.574L980.913 368.141" stroke="#000000" stroke-width="0.398" fill="none" /><path id="398" transform="matrix(1 0 0 -1 0 792)" d="M1039.935 354.574L1039.935 368.141" stroke="#000000" stroke-width="0.398" fill="none" /><path id="400" transform="matrix(1 0 0 -1 0 792)" d="M1069.252 354.574L1069.252 368.141" stroke="#000000" stroke-width="0.398" fill="none" /><path id="401" transform="matrix(1 0 0 -1 0 792)" d="M729.338 354.375L1069.451 354.375" stroke="#000000" stroke-width="0.398" fill="none" /><path id="402" transform="matrix(1 0 0 -1 0 792)" d="M729.537 340.609L729.537 354.176" stroke="#000000" stroke-width="0.398" fill="none" /><path id="428" transform="matrix(1 0 0 -1 0 792)" d="M921.891 340.609L921.891 354.176" stroke="#000000" stroke-width="0.398" fill="none" /><path id="430" transform="matrix(1 0 0 -1 0 792)" d="M980.913 340.609L980.913 354.176" stroke="#000000" stroke-width="0.398" fill="none" /><path id="432" transform="matrix(1 0 0 -1 0 792)" d="M1039.935 340.609L1039.935 354.176" stroke="#000000" stroke-width="0.398" fill="none" /><path id="434" transform="matrix(1 0 0 -1 0 792)" d="M1069.252 340.609L1069.252 354.176" stroke="#000000" stroke-width="0.398" fill="none" /><path id="435" transform="matrix(1 0 0 -1 0 792)" d="M729.338 340.409L1069.451 340.409" stroke="#000000" stroke-width="0.398" fill="none" /><path id="436" transform="matrix(1 0 0 -1 0 792)" d="M666.067 722.529L1132.724 722.529L1132.724 722.529L1132.724 735.6745L1132.724 735.6745L666.067 735.6745z" stroke="#FFFFFF" stroke-width="1" fill="#FFFFFF" fill-rule="nonzero" /><path id="446" transform="matrix(1 0 0 -1 0 792)" d="M666.067 576.463L1132.726 576.463L1132.726 576.463L1132.726 670.9045L1132.726 670.9045L666.067 670.9045z" stroke="#FFFFFF" stroke-width="1" fill="#FFFFFF" fill-rule="nonzero" /><path id="687" transform="matrix(1 0 0 -1 0 792)" d="M683.004 562.913L1132.723 562.913L1132.723 562.913L1132.723 576.0585L1132.723 576.0585L683.004 576.0585z" stroke="#FFFFFF" stroke-width="1" fill="#FFFFFF" fill-rule="nonzero" /><path id="722" transform="matrix(1 0 0 -1 0 792)" d="M795.05 317.698L1003.741 317.698L1003.741 317.698L1003.741 330.8435L1003.741 330.8435L795.05 330.8435z" stroke="#FFFFFF" stroke-width="1" fill="#FFFFFF" fill-rule="nonzero" /><path id="783" transform="matrix(1 0 0 -1 0 792)" d="M54.067 721.28L520.722 721.28" stroke="#000000" stroke-width="0.498" fill="none" /><path id="1485" transform="matrix(1 0 0 -1 0 792)" d="M117.338 537.914L457.451 537.914" stroke="#000000" stroke-width="0.398" fill="none" /><path id="1486" transform="matrix(1 0 0 -1 0 792)" d="M117.537 524.148L117.537 537.715" stroke="#000000" stroke-width="0.398" fill="none" /><path id="1487" transform="matrix(1 0 0 -1 0 792)" d="M117.737 524.148L309.692 524.148L309.692 537.715L117.737 537.715z" stroke="none" fill="#CCCCEB" fill-rule="nonzero" /><path id="1493" transform="matrix(1 0 0 -1 0 792)" d="M309.891 524.148L309.891 537.715" stroke="#000000" stroke-width="0.398" fill="none" /><path id="1494" transform="matrix(1 0 0 -1 0 792)" d="M310.09 524.148L368.714 524.148L368.714 537.715L310.09 537.715z" stroke="none" fill="#CCCCEB" fill-rule="nonzero" /><path id="1504" transform="matrix(1 0 0 -1 0 792)" d="M368.913 524.148L368.913 537.715" stroke="#000000" stroke-width="0.398" fill="none" /><path id="1505" transform="matrix(1 0 0 -1 0 792)" d="M369.112 524.148L427.736 524.148L427.736 537.715L369.112 537.715z" stroke="none" fill="#CCCCEB" fill-rule="nonzero" /><path id="1513" transform="matrix(1 0 0 -1 0 792)" d="M427.935 524.148L427.935 537.715" stroke="#000000" stroke-width="0.398" fill="none" /><path id="1514" transform="matrix(1 0 0 -1 0 792)" d="M428.134 524.148L457.053 524.148L457.053 537.715L428.134 537.715z" stroke="none" fill="#CCCCEB" fill-rule="nonzero" /><path id="1518" transform="matrix(1 0 0 -1 0 792)" d="M457.252 524.148L457.252 537.715" stroke="#000000" stroke-width="0.398" fill="none" /><path id="1519" transform="matrix(1 0 0 -1 0 792)" d="M117.537 510.581L117.537 524.148" stroke="#000000" stroke-width="0.398" fill="none" /><path id="1520" transform="matrix(1 0 0 -1 0 792)" d="M117.737 510.581L309.692 510.581L309.692 524.148L117.737 524.148z" stroke="none" fill="#CCCCEB" fill-rule="nonzero" /><path id="1521" transform="matrix(1 0 0 -1 0 792)" d="M309.891 510.581L309.891 524.148" stroke="#000000" stroke-width="0.398" fill="none" /><path id="1522" transform="matrix(1 0 0 -1 0 792)" d="M310.09 510.581L368.714 510.581L368.714 524.148L310.09 524.148z" stroke="none" fill="#CCCCEB" fill-rule="nonzero" /><path id="1523" transform="matrix(1 0 0 -1 0 792)" d="M368.913 510.581L368.913 524.148" stroke="#000000" stroke-width="0.398" fill="none" /><path id="1524" transform="matrix(1 0 0 -1 0 792)" d="M369.112 510.581L427.736 510.581L427.736 524.148L369.112 524.148z" stroke="none" fill="#CCCCEB" fill-rule="nonzero" /><path id="1530" transform="matrix(1 0 0 -1 0 792)" d="M427.935 510.581L427.935 524.148" stroke="#000000" stroke-width="0.398" fill="none" /><path id="1531" transform="matrix(1 0 0 -1 0 792)" d="M428.134 510.581L457.053 510.581L457.053 524.148L428.134 524.148z" stroke="none" fill="#CCCCEB" fill-rule="nonzero" /><path id="1532" transform="matrix(1 0 0 -1 0 792)" d="M457.252 510.581L457.252 524.148" stroke="#000000" stroke-width="0.398" fill="none" /><path id="1533" transform="matrix(1 0 0 -1 0 792)" d="M117.338 510.382L457.451 510.382" stroke="#000000" stroke-width="0.398" fill="none" /><path id="1534" transform="matrix(1 0 0 -1 0 792)" d="M117.338 507.991L457.451 507.991" stroke="#000000" stroke-width="0.398" fill="none" /><path id="1535" transform="matrix(1 0 0 -1 0 792)" d="M117.537 494.225L117.537 507.792" stroke="#000000" stroke-width="0.398" fill="none" /><path id="1551" transform="matrix(1 0 0 -1 0 792)" d="M309.891 494.225L309.891 507.792" stroke="#000000" stroke-width="0.398" fill="none" /><path id="1553" transform="matrix(1 0 0 -1 0 792)" d="M368.913 494.225L368.913 507.792" stroke="#000000" stroke-width="0.398" fill="none" /><path id="1555" transform="matrix(1 0 0 -1 0 792)" d="M427.935 494.225L427.935 507.792" stroke="#000000" stroke-width="0.398" fill="none" /><path id="1557" transform="matrix(1 0 0 -1 0 792)" d="M457.252 494.225L457.252 507.792" stroke="#000000" stroke-width="0.398" fill="none" /><path id="1558" transform="matrix(1 0 0 -1 0 792)" d="M117.338 494.026L457.451 494.026" stroke="#000000" stroke-width="0.398" fill="none" /><path id="1559" transform="matrix(1 0 0 -1 0 792)" d="M117.537 480.26L117.537 493.827" stroke="#000000" stroke-width="0.398" fill="none" /><path id="1578" transform="matrix(1 0 0 -1 0 792)" d="M309.891 480.26L309.891 493.827" stroke="#000000" stroke-width="0.398" fill="none" /><path id="1580" transform="matrix(1 0 0 -1 0 792)" d="M368.913 480.26L368.913 493.827" stroke="#000000" stroke-width="0.398" fill="none" /><path id="1582" transform="matrix(1 0 0 -1 0 792)" d="M427.935 480.26L427.935 493.827" stroke="#000000" stroke-width="0.398" fill="none" /><path id="1584" transform="matrix(1 0 0 -1 0 792)" d="M457.252 480.26L457.252 493.827" stroke="#000000" stroke-width="0.398" fill="none" /><path id="1585" transform="matrix(1 0 0 -1 0 792)" d="M117.338 480.061L457.451 480.061" stroke="#000000" stroke-width="0.398" fill="none" /><path id="1586" transform="matrix(1 0 0 -1 0 792)" d="M117.537 466.295L117.537 479.862" stroke="#000000" stroke-width="0.398" fill="none" /><path id="1606" transform="matrix(1 0 0 -1 0 792)" d="M309.891 466.295L309.891 479.862" stroke="#000000" stroke-width="0.398" fill="none" /><path id="1608" transform="matrix(1 0 0 -1 0 792)" d="M368.913 466.295L368.913 479.862" stroke="#000000" stroke-width="0.398" fill="none" /><path id="1610" transform="matrix(1 0 0 -1 0 792)" d="M427.935 466.295L427.935 479.862" stroke="#000000" stroke-width="0.398" fill="none" /><path id="1612" transform="matrix(1 0 0 -1 0 792)" d="M457.252 466.295L457.252 479.862" stroke="#000000" stroke-width="0.398" fill="none" /><path id="1613" transform="matrix(1 0 0 -1 0 792)" d="M117.338 466.096L457.451 466.096" stroke="#000000" stroke-width="0.398" fill="none" /><path id="1614" transform="matrix(1 0 0 -1 0 792)" d="M117.537 452.33L117.537 465.897" stroke="#000000" stroke-width="0.398" fill="none" /><path id="1636" transform="matrix(1 0 0 -1 0 792)" d="M309.891 452.33L309.891 465.897" stroke="#000000" stroke-width="0.398" fill="none" /><path id="1638" transform="matrix(1 0 0 -1 0 792)" d="M368.913 452.33L368.913 465.897" stroke="#000000" stroke-width="0.398" fill="none" /><path id="1640" transform="matrix(1 0 0 -1 0 792)" d="M427.935 452.33L427.935 465.897" stroke="#000000" stroke-width="0.398" fill="none" /><path id="1642" transform="matrix(1 0 0 -1 0 792)" d="M457.252 452.33L457.252 465.897" stroke="#000000" stroke-width="0.398" fill="none" /><path id="1643" transform="matrix(1 0 0 -1 0 792)" d="M117.338 452.131L457.451 452.131" stroke="#000000" stroke-width="0.398" fill="none" /><path id="1644" transform="matrix(1 0 0 -1 0 792)" d="M117.537 438.365L117.537 451.932" stroke="#000000" stroke-width="0.398" fill="none" /><path id="1663" transform="matrix(1 0 0 -1 0 792)" d="M309.891 438.365L309.891 451.932" stroke="#000000" stroke-width="0.398" fill="none" /><path id="1665" transform="matrix(1 0 0 -1 0 792)" d="M368.913 438.365L368.913 451.932" stroke="#000000" stroke-width="0.398" fill="none" /><path id="1667" transform="matrix(1 0 0 -1 0 792)" d="M427.935 438.365L427.935 451.932" stroke="#000000" stroke-width="0.398" fill="none" /><path id="1669" transform="matrix(1 0 0 -1 0 792)" d="M457.252 438.365L457.252 451.932" stroke="#000000" stroke-width="0.398" fill="none" /><path id="1670" transform="matrix(1 0 0 -1 0 792)" d="M117.338 438.165L457.451 438.165" stroke="#000000" stroke-width="0.398" fill="none" /><path id="1671" transform="matrix(1 0 0 -1 0 792)" d="M117.537 424.399L117.537 437.966" stroke="#000000" stroke-width="0.398" fill="none" /><path id="1687" transform="matrix(1 0 0 -1 0 792)" d="M309.891 424.399L309.891 437.966" stroke="#000000" stroke-width="0.398" fill="none" /><path id="1689" transform="matrix(1 0 0 -1 0 792)" d="M368.913 424.399L368.913 437.966" stroke="#000000" stroke-width="0.398" fill="none" /><path id="1691" transform="matrix(1 0 0 -1 0 792)" d="M427.935 424.399L427.935 437.966" stroke="#000000" stroke-width="0.398" fill="none" /><path id="1693" transform="matrix(1 0 0 -1 0 792)" d="M457.252 424.399L457.252 437.966" stroke="#000000" stroke-width="0.398" fill="none" /><path id="1694" transform="matrix(1 0 0 -1 0 792)" d="M117.338 424.2L457.451 424.2" stroke="#000000" stroke-width="0.398" fill="none" /><path id="1695" transform="matrix(1 0 0 -1 0 792)" d="M117.537 410.434L117.537 424.001" stroke="#000000" stroke-width="0.398" fill="none" /><path id="1719" transform="matrix(1 0 0 -1 0 792)" d="M309.891 410.434L309.891 424.001" stroke="#000000" stroke-width="0.398" fill="none" /><path id="1721" transform="matrix(1 0 0 -1 0 792)" d="M368.913 410.434L368.913 424.001" stroke="#000000" stroke-width="0.398" fill="none" /><path id="1723" transform="matrix(1 0 0 -1 0 792)" d="M427.935 410.434L427.935 424.001" stroke="#000000" stroke-width="0.398" fill="none" /><path id="1725" transform="matrix(1 0 0 -1 0 792)" d="M457.252 410.434L457.252 424.001" stroke="#000000" stroke-width="0.398" fill="none" /><path id="1726" transform="matrix(1 0 0 -1 0 792)" d="M117.338 410.235L457.451 410.235" stroke="#000000" stroke-width="0.398" fill="none" /><path id="1727" transform="matrix(1 0 0 -1 0 792)" d="M117.537 396.469L117.537 410.036" stroke="#000000" stroke-width="0.398" fill="none" /><path id="1760" transform="matrix(1 0 0 -1 0 792)" d="M309.891 396.469L309.891 410.036" stroke="#000000" stroke-width="0.398" fill="none" /><path id="1762" transform="matrix(1 0 0 -1 0 792)" d="M368.913 396.469L368.913 410.036" stroke="#000000" stroke-width="0.398" fill="none" /><path id="1764" transform="matrix(1 0 0 -1 0 792)" d="M427.935 396.469L427.935 410.036" stroke="#000000" stroke-width="0.398" fill="none" /><path id="1766" transform="matrix(1 0 0 -1 0 792)" d="M457.252 396.469L457.252 410.036" stroke="#000000" stroke-width="0.398" fill="none" /><path id="1767" transform="matrix(1 0 0 -1 0 792)" d="M117.338 396.27L457.451 396.27" stroke="#000000" stroke-width="0.398" fill="none" /><path id="1768" transform="matrix(1 0 0 -1 0 792)" d="M117.537 382.504L117.537 396.071" stroke="#000000" stroke-width="0.398" fill="none" /><path id="1798" transform="matrix(1 0 0 -1 0 792)" d="M309.891 382.504L309.891 396.071" stroke="#000000" stroke-width="0.398" fill="none" /><path id="1800" transform="matrix(1 0 0 -1 0 792)" d="M368.913 382.504L368.913 396.071" stroke="#000000" stroke-width="0.398" fill="none" /><path id="1802" transform="matrix(1 0 0 -1 0 792)" d="M427.935 382.504L427.935 396.071" stroke="#000000" stroke-width="0.398" fill="none" /><path id="1804" transform="matrix(1 0 0 -1 0 792)" d="M457.252 382.504L457.252 396.071" stroke="#000000" stroke-width="0.398" fill="none" /><path id="1805" transform="matrix(1 0 0 -1 0 792)" d="M117.338 382.305L457.451 382.305" stroke="#000000" stroke-width="0.398" fill="none" /><path id="1806" transform="matrix(1 0 0 -1 0 792)" d="M117.537 368.539L117.537 382.106" stroke="#000000" stroke-width="0.398" fill="none" /><path id="1830" transform="matrix(1 0 0 -1 0 792)" d="M309.891 368.539L309.891 382.106" stroke="#000000" stroke-width="0.398" fill="none" /><path id="1832" transform="matrix(1 0 0 -1 0 792)" d="M368.913 368.539L368.913 382.106" stroke="#000000" stroke-width="0.398" fill="none" /><path id="1834" transform="matrix(1 0 0 -1 0 792)" d="M427.935 368.539L427.935 382.106" stroke="#000000" stroke-width="0.398" fill="none" /><path id="1836" transform="matrix(1 0 0 -1 0 792)" d="M457.252 368.539L457.252 382.106" stroke="#000000" stroke-width="0.398" fill="none" /><path id="1837" transform="matrix(1 0 0 -1 0 792)" d="M117.338 368.34L457.451 368.34" stroke="#000000" stroke-width="0.398" fill="none" /><path id="1838" transform="matrix(1 0 0 -1 0 792)" d="M117.537 354.574L117.537 368.141" stroke="#000000" stroke-width="0.398" fill="none" /><path id="1851" transform="matrix(1 0 0 -1 0 792)" d="M309.891 354.574L309.891 368.141" stroke="#000000" stroke-width="0.398" fill="none" /><path id="1853" transform="matrix(1 0 0 -1 0 792)" d="M368.913 354.574L368.913 368.141" stroke="#000000" stroke-width="0.398" fill="none" /><path id="1855" transform="matrix(1 0 0 -1 0 792)" d="M427.935 354.574L427.935 368.141" stroke="#000000" stroke-width="0.398" fill="none" /><path id="1857" transform="matrix(1 0 0 -1 0 792)" d="M457.252 354.574L457.252 368.141" stroke="#000000" stroke-width="0.398" fill="none" /><path id="1858" transform="matrix(1 0 0 -1 0 792)" d="M117.338 354.375L457.451 354.375" stroke="#000000" stroke-width="0.398" fill="none" /><path id="1859" transform="matrix(1 0 0 -1 0 792)" d="M117.537 340.609L117.537 354.176" stroke="#000000" stroke-width="0.398" fill="none" /><path id="1885" transform="matrix(1 0 0 -1 0 792)" d="M309.891 340.609L309.891 354.176" stroke="#000000" stroke-width="0.398" fill="none" /><path id="1887" transform="matrix(1 0 0 -1 0 792)" d="M368.913 340.609L368.913 354.176" stroke="#000000" stroke-width="0.398" fill="none" /><path id="1889" transform="matrix(1 0 0 -1 0 792)" d="M427.935 340.609L427.935 354.176" stroke="#000000" stroke-width="0.398" fill="none" /><path id="1891" transform="matrix(1 0 0 -1 0 792)" d="M457.252 340.609L457.252 354.176" stroke="#000000" stroke-width="0.398" fill="none" /><path id="1892" transform="matrix(1 0 0 -1 0 792)" d="M117.338 340.409L457.451 340.409" stroke="#000000" stroke-width="0.398" fill="none" /></g></g></svg>