<svg xmlns="http://www.w3.org/2000/svg" xmlns:xlink="http://www.w3.org/1999/xlink" id="body_63" preserveAspectRatio="xMinYMin meet" viewBox="0 0 1632 1056"><defs><clipPath id="1"><path id="" clip-rule="evenodd" transform="matrix(1 0 0 1 0 0)" d="M0 792L0 0L0 0L1224 0L1224 0L1224 792L1224 792L0 792z" /></clipPath></defs><g transform="matrix(1.333333 0 0 1.333333 0 0)"><g clip-path="url(#1)"><path id="1" transform="matrix(1 0 0 -1 0 792)" d="M701.933 721.28L1168.588 721.28" stroke="#000000" stroke-width="0.498" fill="none" /><path id="2" transform="matrix(1 0 0 -1 0 792)" d="M743.46 638.071L1127.061 638.071" stroke="#000000" stroke-width="0.398" fill="none" /><path id="3" transform="matrix(1 0 0 -1 0 792)" d="M743.659 624.305L743.659 637.872" stroke="#000000" stroke-width="0.398" fill="none" /><path id="4" transform="matrix(1 0 0 -1 0 792)" d="M743.858 624.305L935.813 624.305L935.813 637.872L743.858 637.872z" stroke="none" fill="#CCCCEB" fill-rule="nonzero" /><path id="10" transform="matrix(1 0 0 -1 0 792)" d="M936.013 624.305L936.013 637.872" stroke="#000000" stroke-width="0.398" fill="none" /><path id="11" transform="matrix(1 0 0 -1 0 792)" d="M936.212 624.305L994.836 624.305L994.836 637.872L936.212 637.872z" stroke="none" fill="#CCCCEB" fill-rule="nonzero" /><path id="21" transform="matrix(1 0 0 -1 0 792)" d="M995.035 624.305L995.035 637.872" stroke="#000000" stroke-width="0.398" fill="none" /><path id="22" transform="matrix(1 0 0 -1 0 792)" d="M995.234 624.305L1058.073 624.305L1058.073 637.872L995.234 637.872z" stroke="none" fill="#CCCCEB" fill-rule="nonzero" /><path id="30" transform="matrix(1 0 0 -1 0 792)" d="M1058.272 624.305L1058.272 637.872" stroke="#000000" stroke-width="0.398" fill="none" /><path id="31" transform="matrix(1 0 0 -1 0 792)" d="M1058.472 624.305L1126.663 624.305L1126.663 637.872L1058.472 637.872z" stroke="none" fill="#CCCCEB" fill-rule="nonzero" /><path id="35" transform="matrix(1 0 0 -1 0 792)" d="M1126.862 624.305L1126.862 637.872" stroke="#000000" stroke-width="0.398" fill="none" /><path id="36" transform="matrix(1 0 0 -1 0 792)" d="M743.659 610.739L743.659 624.306" stroke="#000000" stroke-width="0.398" fill="none" /><path id="37" transform="matrix(1 0 0 -1 0 792)" d="M743.858 610.739L935.813 610.739L935.813 624.306L743.858 624.306z" stroke="none" fill="#CCCCEB" fill-rule="nonzero" /><path id="38" transform="matrix(1 0 0 -1 0 792)" d="M936.013 610.739L936.013 624.306" stroke="#000000" stroke-width="0.398" fill="none" /><path id="39" transform="matrix(1 0 0 -1 0 792)" d="M936.212 610.739L994.836 610.739L994.836 624.306L936.212 624.306z" stroke="none" fill="#CCCCEB" fill-rule="nonzero" /><path id="40" transform="matrix(1 0 0 -1 0 792)" d="M995.035 610.739L995.035 624.306" stroke="#000000" stroke-width="0.398" fill="none" /><path id="41" transform="matrix(1 0 0 -1 0 792)" d="M995.234 610.739L1058.073 610.739L1058.073 624.306L995.234 624.306z" stroke="none" fill="#CCCCEB" fill-rule="nonzero" /><path id="47" transform="matrix(1 0 0 -1 0 792)" d="M1058.272 610.739L1058.272 624.306" stroke="#000000" stroke-width="0.398" fill="none" /><path id="48" transform="matrix(1 0 0 -1 0 792)" d="M1058.472 610.739L1126.663 610.739L1126.663 624.306L1058.472 624.306z" stroke="none" fill="#CCCCEB" fill-rule="nonzero" /><path id="49" transform="matrix(1 0 0 -1 0 792)" d="M1126.862 610.739L1126.862 624.306" stroke="#000000" stroke-width="0.398" fill="none" /><path id="50" transform="matrix(1 0 0 -1 0 792)" d="M743.46 610.539L1127.061 610.539" stroke="#000000" stroke-width="0.398" fill="none" /><path id="51" transform="matrix(1 0 0 -1 0 792)" d="M743.46 608.148L1127.061 608.148" stroke="#000000" stroke-width="0.398" fill="none" /><path id="52" transform="matrix(1 0 0 -1 0 792)" d="M743.659 594.382L743.659 607.949" stroke="#000000" stroke-width="0.398" fill="none" /><path id="60" transform="matrix(1 0 0 -1 0 792)" d="M792.277 598.664L795.266 598.664" stroke="#000000" stroke-width="0.398" fill="none" /><path id="65" transform="matrix(1 0 0 -1 0 792)" d="M936.013 594.382L936.013 607.949" stroke="#000000" stroke-width="0.398" fill="none" /><path id="66" transform="matrix(1 0 0 -1 0 792)" d="M995.035 594.382L995.035 607.949" stroke="#000000" stroke-width="0.398" fill="none" /><path id="72" transform="matrix(1 0 0 -1 0 792)" d="M1058.272 594.382L1058.272 607.949" stroke="#000000" stroke-width="0.398" fill="none" /><path id="82" transform="matrix(1 0 0 -1 0 792)" d="M1126.862 594.382L1126.862 607.949" stroke="#000000" stroke-width="0.398" fill="none" /><path id="83" transform="matrix(1 0 0 -1 0 792)" d="M743.46 594.183L1127.061 594.183" stroke="#000000" stroke-width="0.398" fill="none" /><path id="84" transform="matrix(1 0 0 -1 0 792)" d="M743.659 580.417L743.659 593.984" stroke="#000000" stroke-width="0.398" fill="none" /><path id="92" transform="matrix(1 0 0 -1 0 792)" d="M792.277 584.699L795.266 584.699" stroke="#000000" stroke-width="0.398" fill="none" /><path id="96" transform="matrix(1 0 0 -1 0 792)" d="M936.013 580.417L936.013 593.984" stroke="#000000" stroke-width="0.398" fill="none" /><path id="97" transform="matrix(1 0 0 -1 0 792)" d="M995.035 580.417L995.035 593.984" stroke="#000000" stroke-width="0.398" fill="none" /><path id="105" transform="matrix(1 0 0 -1 0 792)" d="M1058.272 580.417L1058.272 593.984" stroke="#000000" stroke-width="0.398" fill="none" /><path id="117" transform="matrix(1 0 0 -1 0 792)" d="M1126.862 580.417L1126.862 593.984" stroke="#000000" stroke-width="0.398" fill="none" /><path id="118" transform="matrix(1 0 0 -1 0 792)" d="M743.46 580.218L1127.061 580.218" stroke="#000000" stroke-width="0.398" fill="none" /><path id="119" transform="matrix(1 0 0 -1 0 792)" d="M743.659 566.452L743.659 580.019" stroke="#000000" stroke-width="0.398" fill="none" /><path id="125" transform="matrix(1 0 0 -1 0 792)" d="M780.321 570.734L783.31 570.734" stroke="#000000" stroke-width="0.398" fill="none" /><path id="130" transform="matrix(1 0 0 -1 0 792)" d="M936.013 566.452L936.013 580.019" stroke="#000000" stroke-width="0.398" fill="none" /><path id="132" transform="matrix(1 0 0 -1 0 792)" d="M995.035 566.452L995.035 580.019" stroke="#000000" stroke-width="0.398" fill="none" /><path id="134" transform="matrix(1 0 0 -1 0 792)" d="M1058.272 566.452L1058.272 580.019" stroke="#000000" stroke-width="0.398" fill="none" /><path id="136" transform="matrix(1 0 0 -1 0 792)" d="M1126.862 566.452L1126.862 580.019" stroke="#000000" stroke-width="0.398" fill="none" /><path id="137" transform="matrix(1 0 0 -1 0 792)" d="M743.46 566.253L1127.061 566.253" stroke="#000000" stroke-width="0.398" fill="none" /><path id="138" transform="matrix(1 0 0 -1 0 792)" d="M743.659 552.487L743.659 566.054" stroke="#000000" stroke-width="0.398" fill="none" /><path id="144" transform="matrix(1 0 0 -1 0 792)" d="M780.321 556.768L783.31 556.768" stroke="#000000" stroke-width="0.398" fill="none" /><path id="149" transform="matrix(1 0 0 -1 0 792)" d="M807.818 556.768L810.807 556.768" stroke="#000000" stroke-width="0.398" fill="none" /><path id="154" transform="matrix(1 0 0 -1 0 792)" d="M936.013 552.487L936.013 566.054" stroke="#000000" stroke-width="0.398" fill="none" /><path id="156" transform="matrix(1 0 0 -1 0 792)" d="M995.035 552.487L995.035 566.054" stroke="#000000" stroke-width="0.398" fill="none" /><path id="158" transform="matrix(1 0 0 -1 0 792)" d="M1058.272 552.487L1058.272 566.054" stroke="#000000" stroke-width="0.398" fill="none" /><path id="160" transform="matrix(1 0 0 -1 0 792)" d="M1126.862 552.487L1126.862 566.054" stroke="#000000" stroke-width="0.398" fill="none" /><path id="161" transform="matrix(1 0 0 -1 0 792)" d="M743.46 552.288L1127.061 552.288" stroke="#000000" stroke-width="0.398" fill="none" /><path id="162" transform="matrix(1 0 0 -1 0 792)" d="M743.659 538.522L743.659 552.089" stroke="#000000" stroke-width="0.398" fill="none" /><path id="168" transform="matrix(1 0 0 -1 0 792)" d="M780.321 542.803L783.31 542.803" stroke="#000000" stroke-width="0.398" fill="none" /><path id="173" transform="matrix(1 0 0 -1 0 792)" d="M807.818 542.803L810.807 542.803" stroke="#000000" stroke-width="0.398" fill="none" /><path id="177" transform="matrix(1 0 0 -1 0 792)" d="M936.013 538.522L936.013 552.089" stroke="#000000" stroke-width="0.398" fill="none" /><path id="179" transform="matrix(1 0 0 -1 0 792)" d="M995.035 538.522L995.035 552.089" stroke="#000000" stroke-width="0.398" fill="none" /><path id="181" transform="matrix(1 0 0 -1 0 792)" d="M1058.272 538.522L1058.272 552.089" stroke="#000000" stroke-width="0.398" fill="none" /><path id="183" transform="matrix(1 0 0 -1 0 792)" d="M1126.862 538.522L1126.862 552.089" stroke="#000000" stroke-width="0.398" fill="none" /><path id="184" transform="matrix(1 0 0 -1 0 792)" d="M743.46 538.323L1127.061 538.323" stroke="#000000" stroke-width="0.398" fill="none" /><path id="185" transform="matrix(1 0 0 -1 0 792)" d="M743.659 524.557L743.659 538.124" stroke="#000000" stroke-width="0.398" fill="none" /><path id="193" transform="matrix(1 0 0 -1 0 792)" d="M792.277 528.838L795.266 528.838" stroke="#000000" stroke-width="0.398" fill="none" /><path id="198" transform="matrix(1 0 0 -1 0 792)" d="M936.013 524.557L936.013 538.124" stroke="#000000" stroke-width="0.398" fill="none" /><path id="199" transform="matrix(1 0 0 -1 0 792)" d="M995.035 524.557L995.035 538.124" stroke="#000000" stroke-width="0.398" fill="none" /><path id="205" transform="matrix(1 0 0 -1 0 792)" d="M1058.272 524.557L1058.272 538.124" stroke="#000000" stroke-width="0.398" fill="none" /><path id="215" transform="matrix(1 0 0 -1 0 792)" d="M1126.862 524.557L1126.862 538.124" stroke="#000000" stroke-width="0.398" fill="none" /><path id="216" transform="matrix(1 0 0 -1 0 792)" d="M743.46 524.357L1127.061 524.357" stroke="#000000" stroke-width="0.398" fill="none" /><path id="217" transform="matrix(1 0 0 -1 0 792)" d="M743.659 510.592L743.659 524.159" stroke="#000000" stroke-width="0.398" fill="none" /><path id="225" transform="matrix(1 0 0 -1 0 792)" d="M792.277 514.873L795.266 514.873" stroke="#000000" stroke-width="0.398" fill="none" /><path id="230" transform="matrix(1 0 0 -1 0 792)" d="M936.013 510.592L936.013 524.159" stroke="#000000" stroke-width="0.398" fill="none" /><path id="231" transform="matrix(1 0 0 -1 0 792)" d="M995.035 510.592L995.035 524.159" stroke="#000000" stroke-width="0.398" fill="none" /><path id="238" transform="matrix(1 0 0 -1 0 792)" d="M1058.272 510.592L1058.272 524.159" stroke="#000000" stroke-width="0.398" fill="none" /><path id="250" transform="matrix(1 0 0 -1 0 792)" d="M1126.862 510.592L1126.862 524.159" stroke="#000000" stroke-width="0.398" fill="none" /><path id="251" transform="matrix(1 0 0 -1 0 792)" d="M743.46 510.392L1127.061 510.392" stroke="#000000" stroke-width="0.398" fill="none" /><path id="252" transform="matrix(1 0 0 -1 0 792)" d="M743.659 496.626L743.659 510.193" stroke="#000000" stroke-width="0.398" fill="none" /><path id="260" transform="matrix(1 0 0 -1 0 792)" d="M792.277 500.908L795.266 500.908" stroke="#000000" stroke-width="0.398" fill="none" /><path id="266" transform="matrix(1 0 0 -1 0 792)" d="M825.751 500.908L828.74 500.908" stroke="#000000" stroke-width="0.398" fill="none" /><path id="271" transform="matrix(1 0 0 -1 0 792)" d="M936.013 496.626L936.013 510.193" stroke="#000000" stroke-width="0.398" fill="none" /><path id="272" transform="matrix(1 0 0 -1 0 792)" d="M995.035 496.626L995.035 510.193" stroke="#000000" stroke-width="0.398" fill="none" /><path id="276" transform="matrix(1 0 0 -1 0 792)" d="M1058.272 496.626L1058.272 510.193" stroke="#000000" stroke-width="0.398" fill="none" /><path id="288" transform="matrix(1 0 0 -1 0 792)" d="M1126.862 496.626L1126.862 510.193" stroke="#000000" stroke-width="0.398" fill="none" /><path id="289" transform="matrix(1 0 0 -1 0 792)" d="M743.46 496.427L1127.061 496.427" stroke="#000000" stroke-width="0.398" fill="none" /><path id="290" transform="matrix(1 0 0 -1 0 792)" d="M743.659 482.661L743.659 496.228" stroke="#000000" stroke-width="0.398" fill="none" /><path id="298" transform="matrix(1 0 0 -1 0 792)" d="M792.277 486.943L795.266 486.943" stroke="#000000" stroke-width="0.398" fill="none" /><path id="302" transform="matrix(1 0 0 -1 0 792)" d="M936.013 482.661L936.013 496.228" stroke="#000000" stroke-width="0.398" fill="none" /><path id="303" transform="matrix(1 0 0 -1 0 792)" d="M995.035 482.661L995.035 496.228" stroke="#000000" stroke-width="0.398" fill="none" /><path id="305" transform="matrix(1 0 0 -1 0 792)" d="M1058.272 482.661L1058.272 496.228" stroke="#000000" stroke-width="0.398" fill="none" /><path id="317" transform="matrix(1 0 0 -1 0 792)" d="M1126.862 482.661L1126.862 496.228" stroke="#000000" stroke-width="0.398" fill="none" /><path id="318" transform="matrix(1 0 0 -1 0 792)" d="M743.46 482.462L1127.061 482.462" stroke="#000000" stroke-width="0.398" fill="none" /><path id="319" transform="matrix(1 0 0 -1 0 792)" d="M743.659 468.696L743.659 482.263" stroke="#000000" stroke-width="0.398" fill="none" /><path id="327" transform="matrix(1 0 0 -1 0 792)" d="M792.277 472.978L795.266 472.978" stroke="#000000" stroke-width="0.398" fill="none" /><path id="332" transform="matrix(1 0 0 -1 0 792)" d="M936.013 468.696L936.013 482.263" stroke="#000000" stroke-width="0.398" fill="none" /><path id="333" transform="matrix(1 0 0 -1 0 792)" d="M995.035 468.696L995.035 482.263" stroke="#000000" stroke-width="0.398" fill="none" /><path id="338" transform="matrix(1 0 0 -1 0 792)" d="M1058.272 468.696L1058.272 482.263" stroke="#000000" stroke-width="0.398" fill="none" /><path id="350" transform="matrix(1 0 0 -1 0 792)" d="M1126.862 468.696L1126.862 482.263" stroke="#000000" stroke-width="0.398" fill="none" /><path id="351" transform="matrix(1 0 0 -1 0 792)" d="M743.46 468.497L1127.061 468.497" stroke="#000000" stroke-width="0.398" fill="none" /><path id="352" transform="matrix(1 0 0 -1 0 792)" d="M743.659 454.731L743.659 468.298" stroke="#000000" stroke-width="0.398" fill="none" /><path id="360" transform="matrix(1 0 0 -1 0 792)" d="M792.277 459.012L795.266 459.012" stroke="#000000" stroke-width="0.398" fill="none" /><path id="365" transform="matrix(1 0 0 -1 0 792)" d="M819.7729 459.012L822.762 459.012" stroke="#000000" stroke-width="0.398" fill="none" /><path id="371" transform="matrix(1 0 0 -1 0 792)" d="M853.248 459.012L856.237 459.012" stroke="#000000" stroke-width="0.398" fill="none" /><path id="376" transform="matrix(1 0 0 -1 0 792)" d="M936.013 454.731L936.013 468.298" stroke="#000000" stroke-width="0.398" fill="none" /><path id="377" transform="matrix(1 0 0 -1 0 792)" d="M995.035 454.731L995.035 468.298" stroke="#000000" stroke-width="0.398" fill="none" /><path id="382" transform="matrix(1 0 0 -1 0 792)" d="M1058.272 454.731L1058.272 468.298" stroke="#000000" stroke-width="0.398" fill="none" /><path id="394" transform="matrix(1 0 0 -1 0 792)" d="M1126.862 454.731L1126.862 468.298" stroke="#000000" stroke-width="0.398" fill="none" /><path id="395" transform="matrix(1 0 0 -1 0 792)" d="M743.46 454.532L1127.061 454.532" stroke="#000000" stroke-width="0.398" fill="none" /><path id="396" transform="matrix(1 0 0 -1 0 792)" d="M743.659 440.766L743.659 454.333" stroke="#000000" stroke-width="0.398" fill="none" /><path id="404" transform="matrix(1 0 0 -1 0 792)" d="M792.277 445.047L795.266 445.047" stroke="#000000" stroke-width="0.398" fill="none" /><path id="409" transform="matrix(1 0 0 -1 0 792)" d="M819.7729 445.047L822.762 445.047" stroke="#000000" stroke-width="0.398" fill="none" /><path id="415" transform="matrix(1 0 0 -1 0 792)" d="M853.248 445.047L856.237 445.047" stroke="#000000" stroke-width="0.398" fill="none" /><path id="420" transform="matrix(1 0 0 -1 0 792)" d="M936.013 440.766L936.013 454.333" stroke="#000000" stroke-width="0.398" fill="none" /><path id="421" transform="matrix(1 0 0 -1 0 792)" d="M995.035 440.766L995.035 454.333" stroke="#000000" stroke-width="0.398" fill="none" /><path id="426" transform="matrix(1 0 0 -1 0 792)" d="M1058.272 440.766L1058.272 454.333" stroke="#000000" stroke-width="0.398" fill="none" /><path id="438" transform="matrix(1 0 0 -1 0 792)" d="M1126.862 440.766L1126.862 454.333" stroke="#000000" stroke-width="0.398" fill="none" /><path id="439" transform="matrix(1 0 0 -1 0 792)" d="M743.46 440.567L1127.061 440.567" stroke="#000000" stroke-width="0.398" fill="none" /><path id="440" transform="matrix(1 0 0 -1 0 792)" d="M743.659 426.801L743.659 440.368" stroke="#000000" stroke-width="0.398" fill="none" /><path id="448" transform="matrix(1 0 0 -1 0 792)" d="M792.277 431.082L795.266 431.082" stroke="#000000" stroke-width="0.398" fill="none" /><path id="453" transform="matrix(1 0 0 -1 0 792)" d="M819.7729 431.082L822.762 431.082" stroke="#000000" stroke-width="0.398" fill="none" /><path id="458" transform="matrix(1 0 0 -1 0 792)" d="M936.013 426.801L936.013 440.368" stroke="#000000" stroke-width="0.398" fill="none" /><path id="459" transform="matrix(1 0 0 -1 0 792)" d="M995.035 426.801L995.035 440.368" stroke="#000000" stroke-width="0.398" fill="none" /><path id="466" transform="matrix(1 0 0 -1 0 792)" d="M1058.272 426.801L1058.272 440.368" stroke="#000000" stroke-width="0.398" fill="none" /><path id="478" transform="matrix(1 0 0 -1 0 792)" d="M1126.862 426.801L1126.862 440.368" stroke="#000000" stroke-width="0.398" fill="none" /><path id="479" transform="matrix(1 0 0 -1 0 792)" d="M743.46 426.601L1127.061 426.601" stroke="#000000" stroke-width="0.398" fill="none" /><path id="480" transform="matrix(1 0 0 -1 0 792)" d="M743.659 412.835L743.659 426.402" stroke="#000000" stroke-width="0.398" fill="none" /><path id="488" transform="matrix(1 0 0 -1 0 792)" d="M792.277 417.117L795.266 417.117" stroke="#000000" stroke-width="0.398" fill="none" /><path id="493" transform="matrix(1 0 0 -1 0 792)" d="M819.7729 417.117L822.762 417.117" stroke="#000000" stroke-width="0.398" fill="none" /><path id="499" transform="matrix(1 0 0 -1 0 792)" d="M853.248 417.117L856.237 417.117" stroke="#000000" stroke-width="0.398" fill="none" /><path id="504" transform="matrix(1 0 0 -1 0 792)" d="M936.013 412.835L936.013 426.402" stroke="#000000" stroke-width="0.398" fill="none" /><path id="505" transform="matrix(1 0 0 -1 0 792)" d="M995.035 412.835L995.035 426.402" stroke="#000000" stroke-width="0.398" fill="none" /><path id="509" transform="matrix(1 0 0 -1 0 792)" d="M1058.272 412.835L1058.272 426.402" stroke="#000000" stroke-width="0.398" fill="none" /><path id="521" transform="matrix(1 0 0 -1 0 792)" d="M1126.862 412.835L1126.862 426.402" stroke="#000000" stroke-width="0.398" fill="none" /><path id="522" transform="matrix(1 0 0 -1 0 792)" d="M743.46 412.636L1127.061 412.636" stroke="#000000" stroke-width="0.398" fill="none" /><path id="523" transform="matrix(1 0 0 -1 0 792)" d="M743.659 398.87L743.659 412.437" stroke="#000000" stroke-width="0.398" fill="none" /><path id="531" transform="matrix(1 0 0 -1 0 792)" d="M792.277 403.152L795.266 403.152" stroke="#000000" stroke-width="0.398" fill="none" /><path id="536" transform="matrix(1 0 0 -1 0 792)" d="M819.7729 403.152L822.762 403.152" stroke="#000000" stroke-width="0.398" fill="none" /><path id="540" transform="matrix(1 0 0 -1 0 792)" d="M936.013 398.87L936.013 412.437" stroke="#000000" stroke-width="0.398" fill="none" /><path id="541" transform="matrix(1 0 0 -1 0 792)" d="M995.035 398.87L995.035 412.437" stroke="#000000" stroke-width="0.398" fill="none" /><path id="543" transform="matrix(1 0 0 -1 0 792)" d="M1058.272 398.87L1058.272 412.437" stroke="#000000" stroke-width="0.398" fill="none" /><path id="555" transform="matrix(1 0 0 -1 0 792)" d="M1126.862 398.87L1126.862 412.437" stroke="#000000" stroke-width="0.398" fill="none" /><path id="556" transform="matrix(1 0 0 -1 0 792)" d="M743.46 398.671L1127.061 398.671" stroke="#000000" stroke-width="0.398" fill="none" /><path id="557" transform="matrix(1 0 0 -1 0 792)" d="M743.659 384.905L743.659 398.472" stroke="#000000" stroke-width="0.398" fill="none" /><path id="565" transform="matrix(1 0 0 -1 0 792)" d="M792.277 389.187L795.266 389.187" stroke="#000000" stroke-width="0.398" fill="none" /><path id="570" transform="matrix(1 0 0 -1 0 792)" d="M819.7729 389.187L822.762 389.187" stroke="#000000" stroke-width="0.398" fill="none" /><path id="575" transform="matrix(1 0 0 -1 0 792)" d="M936.013 384.905L936.013 398.472" stroke="#000000" stroke-width="0.398" fill="none" /><path id="576" transform="matrix(1 0 0 -1 0 792)" d="M995.035 384.905L995.035 398.472" stroke="#000000" stroke-width="0.398" fill="none" /><path id="581" transform="matrix(1 0 0 -1 0 792)" d="M1058.272 384.905L1058.272 398.472" stroke="#000000" stroke-width="0.398" fill="none" /><path id="593" transform="matrix(1 0 0 -1 0 792)" d="M1126.862 384.905L1126.862 398.472" stroke="#000000" stroke-width="0.398" fill="none" /><path id="594" transform="matrix(1 0 0 -1 0 792)" d="M743.46 384.706L1127.061 384.706" stroke="#000000" stroke-width="0.398" fill="none" /><path id="595" transform="matrix(1 0 0 -1 0 792)" d="M743.659 370.94L743.659 384.507" stroke="#000000" stroke-width="0.398" fill="none" /><path id="603" transform="matrix(1 0 0 -1 0 792)" d="M792.277 375.222L795.266 375.222" stroke="#000000" stroke-width="0.398" fill="none" /><path id="608" transform="matrix(1 0 0 -1 0 792)" d="M819.7729 375.222L822.762 375.222" stroke="#000000" stroke-width="0.398" fill="none" /><path id="613" transform="matrix(1 0 0 -1 0 792)" d="M847.27 375.222L850.259 375.222" stroke="#000000" stroke-width="0.398" fill="none" /><path id="619" transform="matrix(1 0 0 -1 0 792)" d="M880.745 375.222L883.734 375.222" stroke="#000000" stroke-width="0.398" fill="none" /><path id="624" transform="matrix(1 0 0 -1 0 792)" d="M936.013 370.94L936.013 384.507" stroke="#000000" stroke-width="0.398" fill="none" /><path id="625" transform="matrix(1 0 0 -1 0 792)" d="M995.035 370.94L995.035 384.507" stroke="#000000" stroke-width="0.398" fill="none" /><path id="630" transform="matrix(1 0 0 -1 0 792)" d="M1058.272 370.94L1058.272 384.507" stroke="#000000" stroke-width="0.398" fill="none" /><path id="642" transform="matrix(1 0 0 -1 0 792)" d="M1126.862 370.94L1126.862 384.507" stroke="#000000" stroke-width="0.398" fill="none" /><path id="643" transform="matrix(1 0 0 -1 0 792)" d="M743.46 370.741L1127.061 370.741" stroke="#000000" stroke-width="0.398" fill="none" /><path id="644" transform="matrix(1 0 0 -1 0 792)" d="M743.659 356.975L743.659 370.542" stroke="#000000" stroke-width="0.398" fill="none" /><path id="652" transform="matrix(1 0 0 -1 0 792)" d="M792.277 361.256L795.266 361.256" stroke="#000000" stroke-width="0.398" fill="none" /><path id="657" transform="matrix(1 0 0 -1 0 792)" d="M819.7729 361.256L822.762 361.256" stroke="#000000" stroke-width="0.398" fill="none" /><path id="662" transform="matrix(1 0 0 -1 0 792)" d="M847.27 361.256L850.259 361.256" stroke="#000000" stroke-width="0.398" fill="none" /><path id="668" transform="matrix(1 0 0 -1 0 792)" d="M880.745 361.256L883.734 361.256" stroke="#000000" stroke-width="0.398" fill="none" /><path id="673" transform="matrix(1 0 0 -1 0 792)" d="M936.013 356.975L936.013 370.542" stroke="#000000" stroke-width="0.398" fill="none" /><path id="674" transform="matrix(1 0 0 -1 0 792)" d="M995.035 356.975L995.035 370.542" stroke="#000000" stroke-width="0.398" fill="none" /><path id="679" transform="matrix(1 0 0 -1 0 792)" d="M1058.272 356.975L1058.272 370.542" stroke="#000000" stroke-width="0.398" fill="none" /><path id="691" transform="matrix(1 0 0 -1 0 792)" d="M1126.862 356.975L1126.862 370.542" stroke="#000000" stroke-width="0.398" fill="none" /><path id="692" transform="matrix(1 0 0 -1 0 792)" d="M743.46 356.776L1127.061 356.776" stroke="#000000" stroke-width="0.398" fill="none" /><path id="693" transform="matrix(1 0 0 -1 0 792)" d="M743.659 343.01L743.659 356.577" stroke="#000000" stroke-width="0.398" fill="none" /><path id="699" transform="matrix(1 0 0 -1 0 792)" d="M780.321 347.291L783.31 347.291" stroke="#000000" stroke-width="0.398" fill="none" /><path id="704" transform="matrix(1 0 0 -1 0 792)" d="M936.013 343.01L936.013 356.577" stroke="#000000" stroke-width="0.398" fill="none" /><path id="705" transform="matrix(1 0 0 -1 0 792)" d="M995.035 343.01L995.035 356.577" stroke="#000000" stroke-width="0.398" fill="none" /><path id="711" transform="matrix(1 0 0 -1 0 792)" d="M1058.272 343.01L1058.272 356.577" stroke="#000000" stroke-width="0.398" fill="none" /><path id="721" transform="matrix(1 0 0 -1 0 792)" d="M1126.862 343.01L1126.862 356.577" stroke="#000000" stroke-width="0.398" fill="none" /><path id="722" transform="matrix(1 0 0 -1 0 792)" d="M743.46 342.811L1127.061 342.811" stroke="#000000" stroke-width="0.398" fill="none" /><path id="723" transform="matrix(1 0 0 -1 0 792)" d="M743.659 329.045L743.659 342.612" stroke="#000000" stroke-width="0.398" fill="none" /><path id="729" transform="matrix(1 0 0 -1 0 792)" d="M780.321 333.326L783.31 333.326" stroke="#000000" stroke-width="0.398" fill="none" /><path id="734" transform="matrix(1 0 0 -1 0 792)" d="M936.013 329.045L936.013 342.612" stroke="#000000" stroke-width="0.398" fill="none" /><path id="735" transform="matrix(1 0 0 -1 0 792)" d="M995.035 329.045L995.035 342.612" stroke="#000000" stroke-width="0.398" fill="none" /><path id="740" transform="matrix(1 0 0 -1 0 792)" d="M1058.272 329.045L1058.272 342.612" stroke="#000000" stroke-width="0.398" fill="none" /><path id="752" transform="matrix(1 0 0 -1 0 792)" d="M1126.862 329.045L1126.862 342.612" stroke="#000000" stroke-width="0.398" fill="none" /><path id="753" transform="matrix(1 0 0 -1 0 792)" d="M743.46 328.845L1127.061 328.845" stroke="#000000" stroke-width="0.398" fill="none" /><path id="754" transform="matrix(1 0 0 -1 0 792)" d="M743.659 315.079L743.659 328.646" stroke="#000000" stroke-width="0.398" fill="none" /><path id="760" transform="matrix(1 0 0 -1 0 792)" d="M936.013 315.079L936.013 328.646" stroke="#000000" stroke-width="0.398" fill="none" /><path id="761" transform="matrix(1 0 0 -1 0 792)" d="M995.035 315.079L995.035 328.646" stroke="#000000" stroke-width="0.398" fill="none" /><path id="767" transform="matrix(1 0 0 -1 0 792)" d="M1058.272 315.079L1058.272 328.646" stroke="#000000" stroke-width="0.398" fill="none" /><path id="777" transform="matrix(1 0 0 -1 0 792)" d="M1126.862 315.079L1126.862 328.646" stroke="#000000" stroke-width="0.398" fill="none" /><path id="778" transform="matrix(1 0 0 -1 0 792)" d="M743.46 314.88L1127.061 314.88" stroke="#000000" stroke-width="0.398" fill="none" /><path id="779" transform="matrix(1 0 0 -1 0 792)" d="M743.659 301.114L743.659 314.681" stroke="#000000" stroke-width="0.398" fill="none" /><path id="785" transform="matrix(1 0 0 -1 0 792)" d="M780.321 305.396L783.31 305.396" stroke="#000000" stroke-width="0.398" fill="none" /><path id="789" transform="matrix(1 0 0 -1 0 792)" d="M801.841 305.396L804.83 305.396" stroke="#000000" stroke-width="0.398" fill="none" /><path id="793" transform="matrix(1 0 0 -1 0 792)" d="M936.013 301.114L936.013 314.681" stroke="#000000" stroke-width="0.398" fill="none" /><path id="794" transform="matrix(1 0 0 -1 0 792)" d="M995.035 301.114L995.035 314.681" stroke="#000000" stroke-width="0.398" fill="none" /><path id="798" transform="matrix(1 0 0 -1 0 792)" d="M1058.272 301.114L1058.272 314.681" stroke="#000000" stroke-width="0.398" fill="none" /><path id="810" transform="matrix(1 0 0 -1 0 792)" d="M1126.862 301.114L1126.862 314.681" stroke="#000000" stroke-width="0.398" fill="none" /><path id="811" transform="matrix(1 0 0 -1 0 792)" d="M743.46 300.915L1127.061 300.915" stroke="#000000" stroke-width="0.398" fill="none" /><path id="812" transform="matrix(1 0 0 -1 0 792)" d="M743.659 287.149L743.659 300.716" stroke="#000000" stroke-width="0.398" fill="none" /><path id="818" transform="matrix(1 0 0 -1 0 792)" d="M780.321 291.431L783.31 291.431" stroke="#000000" stroke-width="0.398" fill="none" /><path id="822" transform="matrix(1 0 0 -1 0 792)" d="M801.841 291.431L804.83 291.431" stroke="#000000" stroke-width="0.398" fill="none" /><path id="828" transform="matrix(1 0 0 -1 0 792)" d="M936.013 287.149L936.013 300.716" stroke="#000000" stroke-width="0.398" fill="none" /><path id="829" transform="matrix(1 0 0 -1 0 792)" d="M995.035 287.149L995.035 300.716" stroke="#000000" stroke-width="0.398" fill="none" /><path id="833" transform="matrix(1 0 0 -1 0 792)" d="M1058.272 287.149L1058.272 300.716" stroke="#000000" stroke-width="0.398" fill="none" /><path id="845" transform="matrix(1 0 0 -1 0 792)" d="M1126.862 287.149L1126.862 300.716" stroke="#000000" stroke-width="0.398" fill="none" /><path id="846" transform="matrix(1 0 0 -1 0 792)" d="M743.46 286.95L1127.061 286.95" stroke="#000000" stroke-width="0.398" fill="none" /><path id="847" transform="matrix(1 0 0 -1 0 792)" d="M743.659 273.184L743.659 286.751" stroke="#000000" stroke-width="0.398" fill="none" /><path id="853" transform="matrix(1 0 0 -1 0 792)" d="M780.321 277.466L783.31 277.466" stroke="#000000" stroke-width="0.398" fill="none" /><path id="857" transform="matrix(1 0 0 -1 0 792)" d="M801.841 277.466L804.83 277.466" stroke="#000000" stroke-width="0.398" fill="none" /><path id="861" transform="matrix(1 0 0 -1 0 792)" d="M936.013 273.184L936.013 286.751" stroke="#000000" stroke-width="0.398" fill="none" /><path id="862" transform="matrix(1 0 0 -1 0 792)" d="M995.035 273.184L995.035 286.751" stroke="#000000" stroke-width="0.398" fill="none" /><path id="867" transform="matrix(1 0 0 -1 0 792)" d="M1058.272 273.184L1058.272 286.751" stroke="#000000" stroke-width="0.398" fill="none" /><path id="879" transform="matrix(1 0 0 -1 0 792)" d="M1126.862 273.184L1126.862 286.751" stroke="#000000" stroke-width="0.398" fill="none" /><path id="880" transform="matrix(1 0 0 -1 0 792)" d="M743.46 272.985L1127.061 272.985" stroke="#000000" stroke-width="0.398" fill="none" /><path id="881" transform="matrix(1 0 0 -1 0 792)" d="M743.659 259.219L743.659 272.786" stroke="#000000" stroke-width="0.398" fill="none" /><path id="887" transform="matrix(1 0 0 -1 0 792)" d="M780.321 263.5L783.31 263.5" stroke="#000000" stroke-width="0.398" fill="none" /><path id="891" transform="matrix(1 0 0 -1 0 792)" d="M801.841 263.5L804.83 263.5" stroke="#000000" stroke-width="0.398" fill="none" /><path id="897" transform="matrix(1 0 0 -1 0 792)" d="M936.013 259.219L936.013 272.786" stroke="#000000" stroke-width="0.398" fill="none" /><path id="898" transform="matrix(1 0 0 -1 0 792)" d="M995.035 259.219L995.035 272.786" stroke="#000000" stroke-width="0.398" fill="none" /><path id="903" transform="matrix(1 0 0 -1 0 792)" d="M1058.272 259.219L1058.272 272.786" stroke="#000000" stroke-width="0.398" fill="none" /><path id="915" transform="matrix(1 0 0 -1 0 792)" d="M1126.862 259.219L1126.862 272.786" stroke="#000000" stroke-width="0.398" fill="none" /><path id="916" transform="matrix(1 0 0 -1 0 792)" d="M743.46 259.02L1127.061 259.02" stroke="#000000" stroke-width="0.398" fill="none" /><path id="917" transform="matrix(1 0 0 -1 0 792)" d="M743.659 245.254L743.659 258.821" stroke="#000000" stroke-width="0.398" fill="none" /><path id="923" transform="matrix(1 0 0 -1 0 792)" d="M780.321 249.535L783.31 249.535" stroke="#000000" stroke-width="0.398" fill="none" /><path id="932" transform="matrix(1 0 0 -1 0 792)" d="M831.729 249.535L834.718 249.535" stroke="#000000" stroke-width="0.398" fill="none" /><path id="936" transform="matrix(1 0 0 -1 0 792)" d="M936.013 245.254L936.013 258.821" stroke="#000000" stroke-width="0.398" fill="none" /><path id="937" transform="matrix(1 0 0 -1 0 792)" d="M995.035 245.254L995.035 258.821" stroke="#000000" stroke-width="0.398" fill="none" /><path id="942" transform="matrix(1 0 0 -1 0 792)" d="M1028.447 249.518L1031.436 249.518" stroke="#000000" stroke-width="0.398" fill="none" /><path id="946" transform="matrix(1 0 0 -1 0 792)" d="M1058.272 245.254L1058.272 258.821" stroke="#000000" stroke-width="0.398" fill="none" /><path id="958" transform="matrix(1 0 0 -1 0 792)" d="M1126.862 245.254L1126.862 258.821" stroke="#000000" stroke-width="0.398" fill="none" /><path id="959" transform="matrix(1 0 0 -1 0 792)" d="M743.46 245.054L1127.061 245.054" stroke="#000000" stroke-width="0.398" fill="none" /><path id="960" transform="matrix(1 0 0 -1 0 792)" d="M743.659 231.289L743.659 244.856" stroke="#000000" stroke-width="0.398" fill="none" /><path id="966" transform="matrix(1 0 0 -1 0 792)" d="M780.321 235.57L783.31 235.57" stroke="#000000" stroke-width="0.398" fill="none" /><path id="975" transform="matrix(1 0 0 -1 0 792)" d="M831.729 235.57L834.718 235.57" stroke="#000000" stroke-width="0.398" fill="none" /><path id="981" transform="matrix(1 0 0 -1 0 792)" d="M936.013 231.289L936.013 244.856" stroke="#000000" stroke-width="0.398" fill="none" /><path id="982" transform="matrix(1 0 0 -1 0 792)" d="M995.035 231.289L995.035 244.856" stroke="#000000" stroke-width="0.398" fill="none" /><path id="987" transform="matrix(1 0 0 -1 0 792)" d="M1028.447 235.553L1031.436 235.553" stroke="#000000" stroke-width="0.398" fill="none" /><path id="991" transform="matrix(1 0 0 -1 0 792)" d="M1058.272 231.289L1058.272 244.856" stroke="#000000" stroke-width="0.398" fill="none" /><path id="1003" transform="matrix(1 0 0 -1 0 792)" d="M1126.862 231.289L1126.862 244.856" stroke="#000000" stroke-width="0.398" fill="none" /><path id="1004" transform="matrix(1 0 0 -1 0 792)" d="M743.46 231.089L1127.061 231.089" stroke="#000000" stroke-width="0.398" fill="none" /><path id="1005" transform="matrix(1 0 0 -1 0 792)" d="M743.659 217.323L743.659 230.89" stroke="#000000" stroke-width="0.398" fill="none" /><path id="1011" transform="matrix(1 0 0 -1 0 792)" d="M780.321 221.605L783.31 221.605" stroke="#000000" stroke-width="0.398" fill="none" /><path id="1017" transform="matrix(1 0 0 -1 0 792)" d="M936.013 217.323L936.013 230.89" stroke="#000000" stroke-width="0.398" fill="none" /><path id="1018" transform="matrix(1 0 0 -1 0 792)" d="M995.035 217.323L995.035 230.89" stroke="#000000" stroke-width="0.398" fill="none" /><path id="1026" transform="matrix(1 0 0 -1 0 792)" d="M1058.272 217.323L1058.272 230.89" stroke="#000000" stroke-width="0.398" fill="none" /><path id="1036" transform="matrix(1 0 0 -1 0 792)" d="M1126.862 217.323L1126.862 230.89" stroke="#000000" stroke-width="0.398" fill="none" /><path id="1037" transform="matrix(1 0 0 -1 0 792)" d="M743.46 217.124L1127.061 217.124" stroke="#000000" stroke-width="0.398" fill="none" /><path id="1038" transform="matrix(1 0 0 -1 0 792)" d="M743.659 203.358L743.659 216.925" stroke="#000000" stroke-width="0.398" fill="none" /><path id="1045" transform="matrix(1 0 0 -1 0 792)" d="M936.013 203.358L936.013 216.925" stroke="#000000" stroke-width="0.398" fill="none" /><path id="1046" transform="matrix(1 0 0 -1 0 792)" d="M995.035 203.358L995.035 216.925" stroke="#000000" stroke-width="0.398" fill="none" /><path id="1051" transform="matrix(1 0 0 -1 0 792)" d="M1058.272 203.358L1058.272 216.925" stroke="#000000" stroke-width="0.398" fill="none" /><path id="1061" transform="matrix(1 0 0 -1 0 792)" d="M1126.862 203.358L1126.862 216.925" stroke="#000000" stroke-width="0.398" fill="none" /><path id="1062" transform="matrix(1 0 0 -1 0 792)" d="M743.46 203.159L1127.061 203.159" stroke="#000000" stroke-width="0.398" fill="none" /><path id="1063" transform="matrix(1 0 0 -1 0 792)" d="M743.659 189.393L743.659 202.96" stroke="#000000" stroke-width="0.398" fill="none" /><path id="1069" transform="matrix(1 0 0 -1 0 792)" d="M780.321 193.675L783.31 193.675" stroke="#000000" stroke-width="0.398" fill="none" /><path id="1075" transform="matrix(1 0 0 -1 0 792)" d="M813.796 193.675L816.785 193.675" stroke="#000000" stroke-width="0.398" fill="none" /><path id="1078" transform="matrix(1 0 0 -1 0 792)" d="M936.013 189.393L936.013 202.96" stroke="#000000" stroke-width="0.398" fill="none" /><path id="1080" transform="matrix(1 0 0 -1 0 792)" d="M995.035 189.393L995.035 202.96" stroke="#000000" stroke-width="0.398" fill="none" /><path id="1082" transform="matrix(1 0 0 -1 0 792)" d="M1058.272 189.393L1058.272 202.96" stroke="#000000" stroke-width="0.398" fill="none" /><path id="1084" transform="matrix(1 0 0 -1 0 792)" d="M1126.862 189.393L1126.862 202.96" stroke="#000000" stroke-width="0.398" fill="none" /><path id="1085" transform="matrix(1 0 0 -1 0 792)" d="M743.46 189.194L1127.061 189.194" stroke="#000000" stroke-width="0.398" fill="none" /><path id="1086" transform="matrix(1 0 0 -1 0 792)" d="M743.659 175.428L743.659 188.995" stroke="#000000" stroke-width="0.398" fill="none" /><path id="1092" transform="matrix(1 0 0 -1 0 792)" d="M780.321 179.709L783.31 179.709" stroke="#000000" stroke-width="0.398" fill="none" /><path id="1098" transform="matrix(1 0 0 -1 0 792)" d="M813.796 179.709L816.785 179.709" stroke="#000000" stroke-width="0.398" fill="none" /><path id="1101" transform="matrix(1 0 0 -1 0 792)" d="M936.013 175.428L936.013 188.995" stroke="#000000" stroke-width="0.398" fill="none" /><path id="1103" transform="matrix(1 0 0 -1 0 792)" d="M995.035 175.428L995.035 188.995" stroke="#000000" stroke-width="0.398" fill="none" /><path id="1105" transform="matrix(1 0 0 -1 0 792)" d="M1058.272 175.428L1058.272 188.995" stroke="#000000" stroke-width="0.398" fill="none" /><path id="1107" transform="matrix(1 0 0 -1 0 792)" d="M1126.862 175.428L1126.862 188.995" stroke="#000000" stroke-width="0.398" fill="none" /><path id="1108" transform="matrix(1 0 0 -1 0 792)" d="M743.46 175.229L1127.061 175.229" stroke="#000000" stroke-width="0.398" fill="none" /><path id="1109" transform="matrix(1 0 0 -1 0 792)" d="M743.659 161.463L743.659 175.03" stroke="#000000" stroke-width="0.398" fill="none" /><path id="1115" transform="matrix(1 0 0 -1 0 792)" d="M780.321 165.744L783.31 165.744" stroke="#000000" stroke-width="0.398" fill="none" /><path id="1118" transform="matrix(1 0 0 -1 0 792)" d="M795.863 165.744L798.852 165.744" stroke="#000000" stroke-width="0.398" fill="none" /><path id="1123" transform="matrix(1 0 0 -1 0 792)" d="M936.013 161.463L936.013 175.03" stroke="#000000" stroke-width="0.398" fill="none" /><path id="1125" transform="matrix(1 0 0 -1 0 792)" d="M995.035 161.463L995.035 175.03" stroke="#000000" stroke-width="0.398" fill="none" /><path id="1127" transform="matrix(1 0 0 -1 0 792)" d="M1058.272 161.463L1058.272 175.03" stroke="#000000" stroke-width="0.398" fill="none" /><path id="1129" transform="matrix(1 0 0 -1 0 792)" d="M1126.862 161.463L1126.862 175.03" stroke="#000000" stroke-width="0.398" fill="none" /><path id="1130" transform="matrix(1 0 0 -1 0 792)" d="M743.46 161.264L1127.061 161.264" stroke="#000000" stroke-width="0.398" fill="none" /><path id="1156" transform="matrix(1 0 0 -1 0 792)" d="M701.933 722.529L1168.588 722.529L1168.588 722.529L1168.588 735.6745L1168.588 735.6745L701.933 735.6745z" stroke="#FFFFFF" stroke-width="1" fill="#FFFFFF" fill-rule="nonzero" /><path id="1207" transform="matrix(1 0 0 -1 0 792)" d="M89.933 721.28L556.588 721.28" stroke="#000000" stroke-width="0.498" fill="none" /><path id="1208" transform="matrix(1 0 0 -1 0 792)" d="M131.46 638.071L515.061 638.071" stroke="#000000" stroke-width="0.398" fill="none" /><path id="1209" transform="matrix(1 0 0 -1 0 792)" d="M131.659 624.305L131.659 637.872" stroke="#000000" stroke-width="0.398" fill="none" /><path id="1210" transform="matrix(1 0 0 -1 0 792)" d="M131.858 624.305L323.813 624.305L323.813 637.872L131.858 637.872z" stroke="none" fill="#CCCCEB" fill-rule="nonzero" /><path id="1216" transform="matrix(1 0 0 -1 0 792)" d="M324.013 624.305L324.013 637.872" stroke="#000000" stroke-width="0.398" fill="none" /><path id="1217" transform="matrix(1 0 0 -1 0 792)" d="M324.212 624.305L382.836 624.305L382.836 637.872L324.212 637.872z" stroke="none" fill="#CCCCEB" fill-rule="nonzero" /><path id="1227" transform="matrix(1 0 0 -1 0 792)" d="M383.035 624.305L383.035 637.872" stroke="#000000" stroke-width="0.398" fill="none" /><path id="1228" transform="matrix(1 0 0 -1 0 792)" d="M383.234 624.305L446.073 624.305L446.073 637.872L383.234 637.872z" stroke="none" fill="#CCCCEB" fill-rule="nonzero" /><path id="1236" transform="matrix(1 0 0 -1 0 792)" d="M446.272 624.305L446.272 637.872" stroke="#000000" stroke-width="0.398" fill="none" /><path id="1237" transform="matrix(1 0 0 -1 0 792)" d="M446.472 624.305L514.663 624.305L514.663 637.872L446.472 637.872z" stroke="none" fill="#CCCCEB" fill-rule="nonzero" /><path id="1241" transform="matrix(1 0 0 -1 0 792)" d="M514.862 624.305L514.862 637.872" stroke="#000000" stroke-width="0.398" fill="none" /><path id="1242" transform="matrix(1 0 0 -1 0 792)" d="M131.659 610.739L131.659 624.306" stroke="#000000" stroke-width="0.398" fill="none" /><path id="1243" transform="matrix(1 0 0 -1 0 792)" d="M131.858 610.739L323.813 610.739L323.813 624.306L131.858 624.306z" stroke="none" fill="#CCCCEB" fill-rule="nonzero" /><path id="1244" transform="matrix(1 0 0 -1 0 792)" d="M324.013 610.739L324.013 624.306" stroke="#000000" stroke-width="0.398" fill="none" /><path id="1245" transform="matrix(1 0 0 -1 0 792)" d="M324.212 610.739L382.836 610.739L382.836 624.306L324.212 624.306z" stroke="none" fill="#CCCCEB" fill-rule="nonzero" /><path id="1246" transform="matrix(1 0 0 -1 0 792)" d="M383.035 610.739L383.035 624.306" stroke="#000000" stroke-width="0.398" fill="none" /><path id="1247" transform="matrix(1 0 0 -1 0 792)" d="M383.234 610.739L446.073 610.739L446.073 624.306L383.234 624.306z" stroke="none" fill="#CCCCEB" fill-rule="nonzero" /><path id="1253" transform="matrix(1 0 0 -1 0 792)" d="M446.272 610.739L446.272 624.306" stroke="#000000" stroke-width="0.398" fill="none" /><path id="1254" transform="matrix(1 0 0 -1 0 792)" d="M446.472 610.739L514.663 610.739L514.663 624.306L446.472 624.306z" stroke="none" fill="#CCCCEB" fill-rule="nonzero" /><path id="1255" transform="matrix(1 0 0 -1 0 792)" d="M514.862 610.739L514.862 624.306" stroke="#000000" stroke-width="0.398" fill="none" /><path id="1256" transform="matrix(1 0 0 -1 0 792)" d="M131.46 610.539L515.061 610.539" stroke="#000000" stroke-width="0.398" fill="none" /><path id="1257" transform="matrix(1 0 0 -1 0 792)" d="M131.46 608.148L515.061 608.148" stroke="#000000" stroke-width="0.398" fill="none" /><path id="1258" transform="matrix(1 0 0 -1 0 792)" d="M131.659 594.382L131.659 607.949" stroke="#000000" stroke-width="0.398" fill="none" /><path id="1266" transform="matrix(1 0 0 -1 0 792)" d="M180.277 598.664L183.266 598.664" stroke="#000000" stroke-width="0.398" fill="none" /><path id="1271" transform="matrix(1 0 0 -1 0 792)" d="M324.013 594.382L324.013 607.949" stroke="#000000" stroke-width="0.398" fill="none" /><path id="1273" transform="matrix(1 0 0 -1 0 792)" d="M383.035 594.382L383.035 607.949" stroke="#000000" stroke-width="0.398" fill="none" /><path id="1279" transform="matrix(1 0 0 -1 0 792)" d="M446.272 594.382L446.272 607.949" stroke="#000000" stroke-width="0.398" fill="none" /><path id="1289" transform="matrix(1 0 0 -1 0 792)" d="M514.862 594.382L514.862 607.949" stroke="#000000" stroke-width="0.398" fill="none" /><path id="1290" transform="matrix(1 0 0 -1 0 792)" d="M131.46 594.183L515.061 594.183" stroke="#000000" stroke-width="0.398" fill="none" /><path id="1291" transform="matrix(1 0 0 -1 0 792)" d="M131.659 580.417L131.659 593.984" stroke="#000000" stroke-width="0.398" fill="none" /><path id="1299" transform="matrix(1 0 0 -1 0 792)" d="M180.277 584.699L183.266 584.699" stroke="#000000" stroke-width="0.398" fill="none" /><path id="1303" transform="matrix(1 0 0 -1 0 792)" d="M324.013 580.417L324.013 593.984" stroke="#000000" stroke-width="0.398" fill="none" /><path id="1305" transform="matrix(1 0 0 -1 0 792)" d="M383.035 580.417L383.035 593.984" stroke="#000000" stroke-width="0.398" fill="none" /><path id="1313" transform="matrix(1 0 0 -1 0 792)" d="M446.272 580.417L446.272 593.984" stroke="#000000" stroke-width="0.398" fill="none" /><path id="1325" transform="matrix(1 0 0 -1 0 792)" d="M514.862 580.417L514.862 593.984" stroke="#000000" stroke-width="0.398" fill="none" /><path id="1326" transform="matrix(1 0 0 -1 0 792)" d="M131.46 580.218L515.061 580.218" stroke="#000000" stroke-width="0.398" fill="none" /><path id="1327" transform="matrix(1 0 0 -1 0 792)" d="M131.659 566.452L131.659 580.019" stroke="#000000" stroke-width="0.398" fill="none" /><path id="1333" transform="matrix(1 0 0 -1 0 792)" d="M168.321 570.734L171.31 570.734" stroke="#000000" stroke-width="0.398" fill="none" /><path id="1338" transform="matrix(1 0 0 -1 0 792)" d="M324.013 566.452L324.013 580.019" stroke="#000000" stroke-width="0.398" fill="none" /><path id="1340" transform="matrix(1 0 0 -1 0 792)" d="M383.035 566.452L383.035 580.019" stroke="#000000" stroke-width="0.398" fill="none" /><path id="1342" transform="matrix(1 0 0 -1 0 792)" d="M446.272 566.452L446.272 580.019" stroke="#000000" stroke-width="0.398" fill="none" /><path id="1344" transform="matrix(1 0 0 -1 0 792)" d="M514.862 566.452L514.862 580.019" stroke="#000000" stroke-width="0.398" fill="none" /><path id="1345" transform="matrix(1 0 0 -1 0 792)" d="M131.46 566.253L515.061 566.253" stroke="#000000" stroke-width="0.398" fill="none" /><path id="1346" transform="matrix(1 0 0 -1 0 792)" d="M131.659 552.487L131.659 566.054" stroke="#000000" stroke-width="0.398" fill="none" /><path id="1352" transform="matrix(1 0 0 -1 0 792)" d="M168.321 556.768L171.31 556.768" stroke="#000000" stroke-width="0.398" fill="none" /><path id="1357" transform="matrix(1 0 0 -1 0 792)" d="M195.818 556.768L198.807 556.768" stroke="#000000" stroke-width="0.398" fill="none" /><path id="1362" transform="matrix(1 0 0 -1 0 792)" d="M324.013 552.487L324.013 566.054" stroke="#000000" stroke-width="0.398" fill="none" /><path id="1364" transform="matrix(1 0 0 -1 0 792)" d="M383.035 552.487L383.035 566.054" stroke="#000000" stroke-width="0.398" fill="none" /><path id="1366" transform="matrix(1 0 0 -1 0 792)" d="M446.272 552.487L446.272 566.054" stroke="#000000" stroke-width="0.398" fill="none" /><path id="1368" transform="matrix(1 0 0 -1 0 792)" d="M514.862 552.487L514.862 566.054" stroke="#000000" stroke-width="0.398" fill="none" /><path id="1369" transform="matrix(1 0 0 -1 0 792)" d="M131.46 552.288L515.061 552.288" stroke="#000000" stroke-width="0.398" fill="none" /><path id="1370" transform="matrix(1 0 0 -1 0 792)" d="M131.659 538.522L131.659 552.089" stroke="#000000" stroke-width="0.398" fill="none" /><path id="1376" transform="matrix(1 0 0 -1 0 792)" d="M168.321 542.803L171.31 542.803" stroke="#000000" stroke-width="0.398" fill="none" /><path id="1381" transform="matrix(1 0 0 -1 0 792)" d="M195.818 542.803L198.807 542.803" stroke="#000000" stroke-width="0.398" fill="none" /><path id="1385" transform="matrix(1 0 0 -1 0 792)" d="M324.013 538.522L324.013 552.089" stroke="#000000" stroke-width="0.398" fill="none" /><path id="1387" transform="matrix(1 0 0 -1 0 792)" d="M383.035 538.522L383.035 552.089" stroke="#000000" stroke-width="0.398" fill="none" /><path id="1389" transform="matrix(1 0 0 -1 0 792)" d="M446.272 538.522L446.272 552.089" stroke="#000000" stroke-width="0.398" fill="none" /><path id="1391" transform="matrix(1 0 0 -1 0 792)" d="M514.862 538.522L514.862 552.089" stroke="#000000" stroke-width="0.398" fill="none" /><path id="1392" transform="matrix(1 0 0 -1 0 792)" d="M131.46 538.323L515.061 538.323" stroke="#000000" stroke-width="0.398" fill="none" /><path id="1393" transform="matrix(1 0 0 -1 0 792)" d="M131.659 524.557L131.659 538.124" stroke="#000000" stroke-width="0.398" fill="none" /><path id="1401" transform="matrix(1 0 0 -1 0 792)" d="M180.277 528.838L183.266 528.838" stroke="#000000" stroke-width="0.398" fill="none" /><path id="1406" transform="matrix(1 0 0 -1 0 792)" d="M324.013 524.557L324.013 538.124" stroke="#000000" stroke-width="0.398" fill="none" /><path id="1408" transform="matrix(1 0 0 -1 0 792)" d="M383.035 524.557L383.035 538.124" stroke="#000000" stroke-width="0.398" fill="none" /><path id="1414" transform="matrix(1 0 0 -1 0 792)" d="M446.272 524.557L446.272 538.124" stroke="#000000" stroke-width="0.398" fill="none" /><path id="1424" transform="matrix(1 0 0 -1 0 792)" d="M514.862 524.557L514.862 538.124" stroke="#000000" stroke-width="0.398" fill="none" /><path id="1425" transform="matrix(1 0 0 -1 0 792)" d="M131.46 524.357L515.061 524.357" stroke="#000000" stroke-width="0.398" fill="none" /><path id="1426" transform="matrix(1 0 0 -1 0 792)" d="M131.659 510.592L131.659 524.159" stroke="#000000" stroke-width="0.398" fill="none" /><path id="1434" transform="matrix(1 0 0 -1 0 792)" d="M180.277 514.873L183.266 514.873" stroke="#000000" stroke-width="0.398" fill="none" /><path id="1439" transform="matrix(1 0 0 -1 0 792)" d="M324.013 510.592L324.013 524.159" stroke="#000000" stroke-width="0.398" fill="none" /><path id="1441" transform="matrix(1 0 0 -1 0 792)" d="M383.035 510.592L383.035 524.159" stroke="#000000" stroke-width="0.398" fill="none" /><path id="1448" transform="matrix(1 0 0 -1 0 792)" d="M446.272 510.592L446.272 524.159" stroke="#000000" stroke-width="0.398" fill="none" /><path id="1460" transform="matrix(1 0 0 -1 0 792)" d="M514.862 510.592L514.862 524.159" stroke="#000000" stroke-width="0.398" fill="none" /><path id="1461" transform="matrix(1 0 0 -1 0 792)" d="M131.46 510.392L515.061 510.392" stroke="#000000" stroke-width="0.398" fill="none" /><path id="1462" transform="matrix(1 0 0 -1 0 792)" d="M131.659 496.626L131.659 510.193" stroke="#000000" stroke-width="0.398" fill="none" /><path id="1470" transform="matrix(1 0 0 -1 0 792)" d="M180.277 500.908L183.266 500.908" stroke="#000000" stroke-width="0.398" fill="none" /><path id="1476" transform="matrix(1 0 0 -1 0 792)" d="M213.751 500.908L216.74 500.908" stroke="#000000" stroke-width="0.398" fill="none" /><path id="1481" transform="matrix(1 0 0 -1 0 792)" d="M324.013 496.626L324.013 510.193" stroke="#000000" stroke-width="0.398" fill="none" /><path id="1483" transform="matrix(1 0 0 -1 0 792)" d="M383.035 496.626L383.035 510.193" stroke="#000000" stroke-width="0.398" fill="none" /><path id="1487" transform="matrix(1 0 0 -1 0 792)" d="M446.272 496.626L446.272 510.193" stroke="#000000" stroke-width="0.398" fill="none" /><path id="1499" transform="matrix(1 0 0 -1 0 792)" d="M514.862 496.626L514.862 510.193" stroke="#000000" stroke-width="0.398" fill="none" /><path id="1500" transform="matrix(1 0 0 -1 0 792)" d="M131.46 496.427L515.061 496.427" stroke="#000000" stroke-width="0.398" fill="none" /><path id="1501" transform="matrix(1 0 0 -1 0 792)" d="M131.659 482.661L131.659 496.228" stroke="#000000" stroke-width="0.398" fill="none" /><path id="1509" transform="matrix(1 0 0 -1 0 792)" d="M180.277 486.943L183.266 486.943" stroke="#000000" stroke-width="0.398" fill="none" /><path id="1513" transform="matrix(1 0 0 -1 0 792)" d="M324.013 482.661L324.013 496.228" stroke="#000000" stroke-width="0.398" fill="none" /><path id="1515" transform="matrix(1 0 0 -1 0 792)" d="M383.035 482.661L383.035 496.228" stroke="#000000" stroke-width="0.398" fill="none" /><path id="1517" transform="matrix(1 0 0 -1 0 792)" d="M446.272 482.661L446.272 496.228" stroke="#000000" stroke-width="0.398" fill="none" /><path id="1529" transform="matrix(1 0 0 -1 0 792)" d="M514.862 482.661L514.862 496.228" stroke="#000000" stroke-width="0.398" fill="none" /><path id="1530" transform="matrix(1 0 0 -1 0 792)" d="M131.46 482.462L515.061 482.462" stroke="#000000" stroke-width="0.398" fill="none" /><path id="1531" transform="matrix(1 0 0 -1 0 792)" d="M131.659 468.696L131.659 482.263" stroke="#000000" stroke-width="0.398" fill="none" /><path id="1539" transform="matrix(1 0 0 -1 0 792)" d="M180.277 472.978L183.266 472.978" stroke="#000000" stroke-width="0.398" fill="none" /><path id="1544" transform="matrix(1 0 0 -1 0 792)" d="M324.013 468.696L324.013 482.263" stroke="#000000" stroke-width="0.398" fill="none" /><path id="1546" transform="matrix(1 0 0 -1 0 792)" d="M383.035 468.696L383.035 482.263" stroke="#000000" stroke-width="0.398" fill="none" /><path id="1551" transform="matrix(1 0 0 -1 0 792)" d="M446.272 468.696L446.272 482.263" stroke="#000000" stroke-width="0.398" fill="none" /><path id="1563" transform="matrix(1 0 0 -1 0 792)" d="M514.862 468.696L514.862 482.263" stroke="#000000" stroke-width="0.398" fill="none" /><path id="1564" transform="matrix(1 0 0 -1 0 792)" d="M131.46 468.497L515.061 468.497" stroke="#000000" stroke-width="0.398" fill="none" /><path id="1565" transform="matrix(1 0 0 -1 0 792)" d="M131.659 454.731L131.659 468.298" stroke="#000000" stroke-width="0.398" fill="none" /><path id="1573" transform="matrix(1 0 0 -1 0 792)" d="M180.277 459.012L183.266 459.012" stroke="#000000" stroke-width="0.398" fill="none" /><path id="1578" transform="matrix(1 0 0 -1 0 792)" d="M207.773 459.012L210.762 459.012" stroke="#000000" stroke-width="0.398" fill="none" /><path id="1584" transform="matrix(1 0 0 -1 0 792)" d="M241.248 459.012L244.237 459.012" stroke="#000000" stroke-width="0.398" fill="none" /><path id="1589" transform="matrix(1 0 0 -1 0 792)" d="M324.013 454.731L324.013 468.298" stroke="#000000" stroke-width="0.398" fill="none" /><path id="1591" transform="matrix(1 0 0 -1 0 792)" d="M383.035 454.731L383.035 468.298" stroke="#000000" stroke-width="0.398" fill="none" /><path id="1596" transform="matrix(1 0 0 -1 0 792)" d="M446.272 454.731L446.272 468.298" stroke="#000000" stroke-width="0.398" fill="none" /><path id="1608" transform="matrix(1 0 0 -1 0 792)" d="M514.862 454.731L514.862 468.298" stroke="#000000" stroke-width="0.398" fill="none" /><path id="1609" transform="matrix(1 0 0 -1 0 792)" d="M131.46 454.532L515.061 454.532" stroke="#000000" stroke-width="0.398" fill="none" /><path id="1610" transform="matrix(1 0 0 -1 0 792)" d="M131.659 440.766L131.659 454.333" stroke="#000000" stroke-width="0.398" fill="none" /><path id="1618" transform="matrix(1 0 0 -1 0 792)" d="M180.277 445.047L183.266 445.047" stroke="#000000" stroke-width="0.398" fill="none" /><path id="1623" transform="matrix(1 0 0 -1 0 792)" d="M207.773 445.047L210.762 445.047" stroke="#000000" stroke-width="0.398" fill="none" /><path id="1629" transform="matrix(1 0 0 -1 0 792)" d="M241.248 445.047L244.237 445.047" stroke="#000000" stroke-width="0.398" fill="none" /><path id="1634" transform="matrix(1 0 0 -1 0 792)" d="M324.013 440.766L324.013 454.333" stroke="#000000" stroke-width="0.398" fill="none" /><path id="1636" transform="matrix(1 0 0 -1 0 792)" d="M383.035 440.766L383.035 454.333" stroke="#000000" stroke-width="0.398" fill="none" /><path id="1641" transform="matrix(1 0 0 -1 0 792)" d="M446.272 440.766L446.272 454.333" stroke="#000000" stroke-width="0.398" fill="none" /><path id="1653" transform="matrix(1 0 0 -1 0 792)" d="M514.862 440.766L514.862 454.333" stroke="#000000" stroke-width="0.398" fill="none" /><path id="1654" transform="matrix(1 0 0 -1 0 792)" d="M131.46 440.567L515.061 440.567" stroke="#000000" stroke-width="0.398" fill="none" /><path id="1655" transform="matrix(1 0 0 -1 0 792)" d="M131.659 426.801L131.659 440.368" stroke="#000000" stroke-width="0.398" fill="none" /><path id="1663" transform="matrix(1 0 0 -1 0 792)" d="M180.277 431.082L183.266 431.082" stroke="#000000" stroke-width="0.398" fill="none" /><path id="1668" transform="matrix(1 0 0 -1 0 792)" d="M207.773 431.082L210.762 431.082" stroke="#000000" stroke-width="0.398" fill="none" /><path id="1673" transform="matrix(1 0 0 -1 0 792)" d="M324.013 426.801L324.013 440.368" stroke="#000000" stroke-width="0.398" fill="none" /><path id="1675" transform="matrix(1 0 0 -1 0 792)" d="M383.035 426.801L383.035 440.368" stroke="#000000" stroke-width="0.398" fill="none" /><path id="1682" transform="matrix(1 0 0 -1 0 792)" d="M446.272 426.801L446.272 440.368" stroke="#000000" stroke-width="0.398" fill="none" /><path id="1694" transform="matrix(1 0 0 -1 0 792)" d="M514.862 426.801L514.862 440.368" stroke="#000000" stroke-width="0.398" fill="none" /><path id="1695" transform="matrix(1 0 0 -1 0 792)" d="M131.46 426.601L515.061 426.601" stroke="#000000" stroke-width="0.398" fill="none" /><path id="1696" transform="matrix(1 0 0 -1 0 792)" d="M131.659 412.835L131.659 426.402" stroke="#000000" stroke-width="0.398" fill="none" /><path id="1704" transform="matrix(1 0 0 -1 0 792)" d="M180.277 417.117L183.266 417.117" stroke="#000000" stroke-width="0.398" fill="none" /><path id="1709" transform="matrix(1 0 0 -1 0 792)" d="M207.773 417.117L210.762 417.117" stroke="#000000" stroke-width="0.398" fill="none" /><path id="1715" transform="matrix(1 0 0 -1 0 792)" d="M241.248 417.117L244.237 417.117" stroke="#000000" stroke-width="0.398" fill="none" /><path id="1720" transform="matrix(1 0 0 -1 0 792)" d="M324.013 412.835L324.013 426.402" stroke="#000000" stroke-width="0.398" fill="none" /><path id="1722" transform="matrix(1 0 0 -1 0 792)" d="M383.035 412.835L383.035 426.402" stroke="#000000" stroke-width="0.398" fill="none" /><path id="1726" transform="matrix(1 0 0 -1 0 792)" d="M446.272 412.835L446.272 426.402" stroke="#000000" stroke-width="0.398" fill="none" /><path id="1738" transform="matrix(1 0 0 -1 0 792)" d="M514.862 412.835L514.862 426.402" stroke="#000000" stroke-width="0.398" fill="none" /><path id="1739" transform="matrix(1 0 0 -1 0 792)" d="M131.46 412.636L515.061 412.636" stroke="#000000" stroke-width="0.398" fill="none" /><path id="1740" transform="matrix(1 0 0 -1 0 792)" d="M131.659 398.87L131.659 412.437" stroke="#000000" stroke-width="0.398" fill="none" /><path id="1748" transform="matrix(1 0 0 -1 0 792)" d="M180.277 403.152L183.266 403.152" stroke="#000000" stroke-width="0.398" fill="none" /><path id="1753" transform="matrix(1 0 0 -1 0 792)" d="M207.773 403.152L210.762 403.152" stroke="#000000" stroke-width="0.398" fill="none" /><path id="1757" transform="matrix(1 0 0 -1 0 792)" d="M324.013 398.87L324.013 412.437" stroke="#000000" stroke-width="0.398" fill="none" /><path id="1759" transform="matrix(1 0 0 -1 0 792)" d="M383.035 398.87L383.035 412.437" stroke="#000000" stroke-width="0.398" fill="none" /><path id="1761" transform="matrix(1 0 0 -1 0 792)" d="M446.272 398.87L446.272 412.437" stroke="#000000" stroke-width="0.398" fill="none" /><path id="1773" transform="matrix(1 0 0 -1 0 792)" d="M514.862 398.87L514.862 412.437" stroke="#000000" stroke-width="0.398" fill="none" /><path id="1774" transform="matrix(1 0 0 -1 0 792)" d="M131.46 398.671L515.061 398.671" stroke="#000000" stroke-width="0.398" fill="none" /><path id="1775" transform="matrix(1 0 0 -1 0 792)" d="M131.659 384.905L131.659 398.472" stroke="#000000" stroke-width="0.398" fill="none" /><path id="1783" transform="matrix(1 0 0 -1 0 792)" d="M180.277 389.187L183.266 389.187" stroke="#000000" stroke-width="0.398" fill="none" /><path id="1788" transform="matrix(1 0 0 -1 0 792)" d="M207.773 389.187L210.762 389.187" stroke="#000000" stroke-width="0.398" fill="none" /><path id="1793" transform="matrix(1 0 0 -1 0 792)" d="M324.013 384.905L324.013 398.472" stroke="#000000" stroke-width="0.398" fill="none" /><path id="1795" transform="matrix(1 0 0 -1 0 792)" d="M383.035 384.905L383.035 398.472" stroke="#000000" stroke-width="0.398" fill="none" /><path id="1800" transform="matrix(1 0 0 -1 0 792)" d="M446.272 384.905L446.272 398.472" stroke="#000000" stroke-width="0.398" fill="none" /><path id="1812" transform="matrix(1 0 0 -1 0 792)" d="M514.862 384.905L514.862 398.472" stroke="#000000" stroke-width="0.398" fill="none" /><path id="1813" transform="matrix(1 0 0 -1 0 792)" d="M131.46 384.706L515.061 384.706" stroke="#000000" stroke-width="0.398" fill="none" /><path id="1814" transform="matrix(1 0 0 -1 0 792)" d="M131.659 370.94L131.659 384.507" stroke="#000000" stroke-width="0.398" fill="none" /><path id="1822" transform="matrix(1 0 0 -1 0 792)" d="M180.277 375.222L183.266 375.222" stroke="#000000" stroke-width="0.398" fill="none" /><path id="1827" transform="matrix(1 0 0 -1 0 792)" d="M207.773 375.222L210.762 375.222" stroke="#000000" stroke-width="0.398" fill="none" /><path id="1832" transform="matrix(1 0 0 -1 0 792)" d="M235.27 375.222L238.259 375.222" stroke="#000000" stroke-width="0.398" fill="none" /><path id="1838" transform="matrix(1 0 0 -1 0 792)" d="M268.745 375.222L271.734 375.222" stroke="#000000" stroke-width="0.398" fill="none" /><path id="1843" transform="matrix(1 0 0 -1 0 792)" d="M324.013 370.94L324.013 384.507" stroke="#000000" stroke-width="0.398" fill="none" /><path id="1845" transform="matrix(1 0 0 -1 0 792)" d="M383.035 370.94L383.035 384.507" stroke="#000000" stroke-width="0.398" fill="none" /><path id="1850" transform="matrix(1 0 0 -1 0 792)" d="M446.272 370.94L446.272 384.507" stroke="#000000" stroke-width="0.398" fill="none" /><path id="1862" transform="matrix(1 0 0 -1 0 792)" d="M514.862 370.94L514.862 384.507" stroke="#000000" stroke-width="0.398" fill="none" /><path id="1863" transform="matrix(1 0 0 -1 0 792)" d="M131.46 370.741L515.061 370.741" stroke="#000000" stroke-width="0.398" fill="none" /><path id="1864" transform="matrix(1 0 0 -1 0 792)" d="M131.659 356.975L131.659 370.542" stroke="#000000" stroke-width="0.398" fill="none" /><path id="1872" transform="matrix(1 0 0 -1 0 792)" d="M180.277 361.256L183.266 361.256" stroke="#000000" stroke-width="0.398" fill="none" /><path id="1877" transform="matrix(1 0 0 -1 0 792)" d="M207.773 361.256L210.762 361.256" stroke="#000000" stroke-width="0.398" fill="none" /><path id="1882" transform="matrix(1 0 0 -1 0 792)" d="M235.27 361.256L238.259 361.256" stroke="#000000" stroke-width="0.398" fill="none" /><path id="1888" transform="matrix(1 0 0 -1 0 792)" d="M268.745 361.256L271.734 361.256" stroke="#000000" stroke-width="0.398" fill="none" /><path id="1893" transform="matrix(1 0 0 -1 0 792)" d="M324.013 356.975L324.013 370.542" stroke="#000000" stroke-width="0.398" fill="none" /><path id="1895" transform="matrix(1 0 0 -1 0 792)" d="M383.035 356.975L383.035 370.542" stroke="#000000" stroke-width="0.398" fill="none" /><path id="1900" transform="matrix(1 0 0 -1 0 792)" d="M446.272 356.975L446.272 370.542" stroke="#000000" stroke-width="0.398" fill="none" /><path id="1912" transform="matrix(1 0 0 -1 0 792)" d="M514.862 356.975L514.862 370.542" stroke="#000000" stroke-width="0.398" fill="none" /><path id="1913" transform="matrix(1 0 0 -1 0 792)" d="M131.46 356.776L515.061 356.776" stroke="#000000" stroke-width="0.398" fill="none" /><path id="1914" transform="matrix(1 0 0 -1 0 792)" d="M131.659 343.01L131.659 356.577" stroke="#000000" stroke-width="0.398" fill="none" /><path id="1920" transform="matrix(1 0 0 -1 0 792)" d="M168.321 347.291L171.31 347.291" stroke="#000000" stroke-width="0.398" fill="none" /><path id="1925" transform="matrix(1 0 0 -1 0 792)" d="M324.013 343.01L324.013 356.577" stroke="#000000" stroke-width="0.398" fill="none" /><path id="1927" transform="matrix(1 0 0 -1 0 792)" d="M383.035 343.01L383.035 356.577" stroke="#000000" stroke-width="0.398" fill="none" /><path id="1933" transform="matrix(1 0 0 -1 0 792)" d="M446.272 343.01L446.272 356.577" stroke="#000000" stroke-width="0.398" fill="none" /><path id="1943" transform="matrix(1 0 0 -1 0 792)" d="M514.862 343.01L514.862 356.577" stroke="#000000" stroke-width="0.398" fill="none" /><path id="1944" transform="matrix(1 0 0 -1 0 792)" d="M131.46 342.811L515.061 342.811" stroke="#000000" stroke-width="0.398" fill="none" /><path id="1945" transform="matrix(1 0 0 -1 0 792)" d="M131.659 329.045L131.659 342.612" stroke="#000000" stroke-width="0.398" fill="none" /><path id="1951" transform="matrix(1 0 0 -1 0 792)" d="M168.321 333.326L171.31 333.326" stroke="#000000" stroke-width="0.398" fill="none" /><path id="1956" transform="matrix(1 0 0 -1 0 792)" d="M324.013 329.045L324.013 342.612" stroke="#000000" stroke-width="0.398" fill="none" /><path id="1958" transform="matrix(1 0 0 -1 0 792)" d="M383.035 329.045L383.035 342.612" stroke="#000000" stroke-width="0.398" fill="none" /><path id="1963" transform="matrix(1 0 0 -1 0 792)" d="M446.272 329.045L446.272 342.612" stroke="#000000" stroke-width="0.398" fill="none" /><path id="1975" transform="matrix(1 0 0 -1 0 792)" d="M514.862 329.045L514.862 342.612" stroke="#000000" stroke-width="0.398" fill="none" /><path id="1976" transform="matrix(1 0 0 -1 0 792)" d="M131.46 328.845L515.061 328.845" stroke="#000000" stroke-width="0.398" fill="none" /><path id="1977" transform="matrix(1 0 0 -1 0 792)" d="M131.659 315.079L131.659 328.646" stroke="#000000" stroke-width="0.398" fill="none" /><path id="1983" transform="matrix(1 0 0 -1 0 792)" d="M324.013 315.079L324.013 328.646" stroke="#000000" stroke-width="0.398" fill="none" /><path id="1985" transform="matrix(1 0 0 -1 0 792)" d="M383.035 315.079L383.035 328.646" stroke="#000000" stroke-width="0.398" fill="none" /><path id="1991" transform="matrix(1 0 0 -1 0 792)" d="M446.272 315.079L446.272 328.646" stroke="#000000" stroke-width="0.398" fill="none" /><path id="2001" transform="matrix(1 0 0 -1 0 792)" d="M514.862 315.079L514.862 328.646" stroke="#000000" stroke-width="0.398" fill="none" /><path id="2002" transform="matrix(1 0 0 -1 0 792)" d="M131.46 314.88L515.061 314.88" stroke="#000000" stroke-width="0.398" fill="none" /><path id="2003" transform="matrix(1 0 0 -1 0 792)" d="M131.659 301.114L131.659 314.681" stroke="#000000" stroke-width="0.398" fill="none" /><path id="2009" transform="matrix(1 0 0 -1 0 792)" d="M168.321 305.396L171.31 305.396" stroke="#000000" stroke-width="0.398" fill="none" /><path id="2013" transform="matrix(1 0 0 -1 0 792)" d="M189.841 305.396L192.83 305.396" stroke="#000000" stroke-width="0.398" fill="none" /><path id="2017" transform="matrix(1 0 0 -1 0 792)" d="M324.013 301.114L324.013 314.681" stroke="#000000" stroke-width="0.398" fill="none" /><path id="2019" transform="matrix(1 0 0 -1 0 792)" d="M383.035 301.114L383.035 314.681" stroke="#000000" stroke-width="0.398" fill="none" /><path id="2023" transform="matrix(1 0 0 -1 0 792)" d="M446.272 301.114L446.272 314.681" stroke="#000000" stroke-width="0.398" fill="none" /><path id="2035" transform="matrix(1 0 0 -1 0 792)" d="M514.862 301.114L514.862 314.681" stroke="#000000" stroke-width="0.398" fill="none" /><path id="2036" transform="matrix(1 0 0 -1 0 792)" d="M131.46 300.915L515.061 300.915" stroke="#000000" stroke-width="0.398" fill="none" /><path id="2037" transform="matrix(1 0 0 -1 0 792)" d="M131.659 287.149L131.659 300.716" stroke="#000000" stroke-width="0.398" fill="none" /><path id="2043" transform="matrix(1 0 0 -1 0 792)" d="M168.321 291.431L171.31 291.431" stroke="#000000" stroke-width="0.398" fill="none" /><path id="2047" transform="matrix(1 0 0 -1 0 792)" d="M189.841 291.431L192.83 291.431" stroke="#000000" stroke-width="0.398" fill="none" /><path id="2053" transform="matrix(1 0 0 -1 0 792)" d="M324.013 287.149L324.013 300.716" stroke="#000000" stroke-width="0.398" fill="none" /><path id="2055" transform="matrix(1 0 0 -1 0 792)" d="M383.035 287.149L383.035 300.716" stroke="#000000" stroke-width="0.398" fill="none" /><path id="2059" transform="matrix(1 0 0 -1 0 792)" d="M446.272 287.149L446.272 300.716" stroke="#000000" stroke-width="0.398" fill="none" /><path id="2071" transform="matrix(1 0 0 -1 0 792)" d="M514.862 287.149L514.862 300.716" stroke="#000000" stroke-width="0.398" fill="none" /><path id="2072" transform="matrix(1 0 0 -1 0 792)" d="M131.46 286.95L515.061 286.95" stroke="#000000" stroke-width="0.398" fill="none" /><path id="2073" transform="matrix(1 0 0 -1 0 792)" d="M131.659 273.184L131.659 286.751" stroke="#000000" stroke-width="0.398" fill="none" /><path id="2079" transform="matrix(1 0 0 -1 0 792)" d="M168.321 277.466L171.31 277.466" stroke="#000000" stroke-width="0.398" fill="none" /><path id="2083" transform="matrix(1 0 0 -1 0 792)" d="M189.841 277.466L192.83 277.466" stroke="#000000" stroke-width="0.398" fill="none" /><path id="2087" transform="matrix(1 0 0 -1 0 792)" d="M324.013 273.184L324.013 286.751" stroke="#000000" stroke-width="0.398" fill="none" /><path id="2089" transform="matrix(1 0 0 -1 0 792)" d="M383.035 273.184L383.035 286.751" stroke="#000000" stroke-width="0.398" fill="none" /><path id="2094" transform="matrix(1 0 0 -1 0 792)" d="M446.272 273.184L446.272 286.751" stroke="#000000" stroke-width="0.398" fill="none" /><path id="2106" transform="matrix(1 0 0 -1 0 792)" d="M514.862 273.184L514.862 286.751" stroke="#000000" stroke-width="0.398" fill="none" /><path id="2107" transform="matrix(1 0 0 -1 0 792)" d="M131.46 272.985L515.061 272.985" stroke="#000000" stroke-width="0.398" fill="none" /><path id="2108" transform="matrix(1 0 0 -1 0 792)" d="M131.659 259.219L131.659 272.786" stroke="#000000" stroke-width="0.398" fill="none" /><path id="2114" transform="matrix(1 0 0 -1 0 792)" d="M168.321 263.5L171.31 263.5" stroke="#000000" stroke-width="0.398" fill="none" /><path id="2118" transform="matrix(1 0 0 -1 0 792)" d="M189.841 263.5L192.83 263.5" stroke="#000000" stroke-width="0.398" fill="none" /><path id="2124" transform="matrix(1 0 0 -1 0 792)" d="M324.013 259.219L324.013 272.786" stroke="#000000" stroke-width="0.398" fill="none" /><path id="2126" transform="matrix(1 0 0 -1 0 792)" d="M383.035 259.219L383.035 272.786" stroke="#000000" stroke-width="0.398" fill="none" /><path id="2131" transform="matrix(1 0 0 -1 0 792)" d="M446.272 259.219L446.272 272.786" stroke="#000000" stroke-width="0.398" fill="none" /><path id="2143" transform="matrix(1 0 0 -1 0 792)" d="M514.862 259.219L514.862 272.786" stroke="#000000" stroke-width="0.398" fill="none" /><path id="2144" transform="matrix(1 0 0 -1 0 792)" d="M131.46 259.02L515.061 259.02" stroke="#000000" stroke-width="0.398" fill="none" /><path id="2145" transform="matrix(1 0 0 -1 0 792)" d="M131.659 245.254L131.659 258.821" stroke="#000000" stroke-width="0.398" fill="none" /><path id="2151" transform="matrix(1 0 0 -1 0 792)" d="M168.321 249.535L171.31 249.535" stroke="#000000" stroke-width="0.398" fill="none" /><path id="2160" transform="matrix(1 0 0 -1 0 792)" d="M219.729 249.535L222.718 249.535" stroke="#000000" stroke-width="0.398" fill="none" /><path id="2164" transform="matrix(1 0 0 -1 0 792)" d="M324.013 245.254L324.013 258.821" stroke="#000000" stroke-width="0.398" fill="none" /><path id="2166" transform="matrix(1 0 0 -1 0 792)" d="M383.035 245.254L383.035 258.821" stroke="#000000" stroke-width="0.398" fill="none" /><path id="2171" transform="matrix(1 0 0 -1 0 792)" d="M416.447 249.518L419.436 249.518" stroke="#000000" stroke-width="0.398" fill="none" /><path id="2175" transform="matrix(1 0 0 -1 0 792)" d="M446.272 245.254L446.272 258.821" stroke="#000000" stroke-width="0.398" fill="none" /><path id="2187" transform="matrix(1 0 0 -1 0 792)" d="M514.862 245.254L514.862 258.821" stroke="#000000" stroke-width="0.398" fill="none" /><path id="2188" transform="matrix(1 0 0 -1 0 792)" d="M131.46 245.054L515.061 245.054" stroke="#000000" stroke-width="0.398" fill="none" /><path id="2189" transform="matrix(1 0 0 -1 0 792)" d="M131.659 231.289L131.659 244.856" stroke="#000000" stroke-width="0.398" fill="none" /><path id="2195" transform="matrix(1 0 0 -1 0 792)" d="M168.321 235.57L171.31 235.57" stroke="#000000" stroke-width="0.398" fill="none" /><path id="2204" transform="matrix(1 0 0 -1 0 792)" d="M219.729 235.57L222.718 235.57" stroke="#000000" stroke-width="0.398" fill="none" /><path id="2210" transform="matrix(1 0 0 -1 0 792)" d="M324.013 231.289L324.013 244.856" stroke="#000000" stroke-width="0.398" fill="none" /><path id="2212" transform="matrix(1 0 0 -1 0 792)" d="M383.035 231.289L383.035 244.856" stroke="#000000" stroke-width="0.398" fill="none" /><path id="2217" transform="matrix(1 0 0 -1 0 792)" d="M416.447 235.553L419.436 235.553" stroke="#000000" stroke-width="0.398" fill="none" /><path id="2221" transform="matrix(1 0 0 -1 0 792)" d="M446.272 231.289L446.272 244.856" stroke="#000000" stroke-width="0.398" fill="none" /><path id="2233" transform="matrix(1 0 0 -1 0 792)" d="M514.862 231.289L514.862 244.856" stroke="#000000" stroke-width="0.398" fill="none" /><path id="2234" transform="matrix(1 0 0 -1 0 792)" d="M131.46 231.089L515.061 231.089" stroke="#000000" stroke-width="0.398" fill="none" /><path id="2235" transform="matrix(1 0 0 -1 0 792)" d="M131.659 217.323L131.659 230.89" stroke="#000000" stroke-width="0.398" fill="none" /><path id="2241" transform="matrix(1 0 0 -1 0 792)" d="M168.321 221.605L171.31 221.605" stroke="#000000" stroke-width="0.398" fill="none" /><path id="2247" transform="matrix(1 0 0 -1 0 792)" d="M324.013 217.323L324.013 230.89" stroke="#000000" stroke-width="0.398" fill="none" /><path id="2249" transform="matrix(1 0 0 -1 0 792)" d="M383.035 217.323L383.035 230.89" stroke="#000000" stroke-width="0.398" fill="none" /><path id="2257" transform="matrix(1 0 0 -1 0 792)" d="M446.272 217.323L446.272 230.89" stroke="#000000" stroke-width="0.398" fill="none" /><path id="2267" transform="matrix(1 0 0 -1 0 792)" d="M514.862 217.323L514.862 230.89" stroke="#000000" stroke-width="0.398" fill="none" /><path id="2268" transform="matrix(1 0 0 -1 0 792)" d="M131.46 217.124L515.061 217.124" stroke="#000000" stroke-width="0.398" fill="none" /><path id="2269" transform="matrix(1 0 0 -1 0 792)" d="M131.659 203.358L131.659 216.925" stroke="#000000" stroke-width="0.398" fill="none" /><path id="2276" transform="matrix(1 0 0 -1 0 792)" d="M324.013 203.358L324.013 216.925" stroke="#000000" stroke-width="0.398" fill="none" /><path id="2278" transform="matrix(1 0 0 -1 0 792)" d="M383.035 203.358L383.035 216.925" stroke="#000000" stroke-width="0.398" fill="none" /><path id="2283" transform="matrix(1 0 0 -1 0 792)" d="M446.272 203.358L446.272 216.925" stroke="#000000" stroke-width="0.398" fill="none" /><path id="2293" transform="matrix(1 0 0 -1 0 792)" d="M514.862 203.358L514.862 216.925" stroke="#000000" stroke-width="0.398" fill="none" /><path id="2294" transform="matrix(1 0 0 -1 0 792)" d="M131.46 203.159L515.061 203.159" stroke="#000000" stroke-width="0.398" fill="none" /><path id="2295" transform="matrix(1 0 0 -1 0 792)" d="M131.659 189.393L131.659 202.96" stroke="#000000" stroke-width="0.398" fill="none" /><path id="2301" transform="matrix(1 0 0 -1 0 792)" d="M168.321 193.675L171.31 193.675" stroke="#000000" stroke-width="0.398" fill="none" /><path id="2307" transform="matrix(1 0 0 -1 0 792)" d="M201.796 193.675L204.785 193.675" stroke="#000000" stroke-width="0.398" fill="none" /><path id="2310" transform="matrix(1 0 0 -1 0 792)" d="M324.013 189.393L324.013 202.96" stroke="#000000" stroke-width="0.398" fill="none" /><path id="2312" transform="matrix(1 0 0 -1 0 792)" d="M383.035 189.393L383.035 202.96" stroke="#000000" stroke-width="0.398" fill="none" /><path id="2314" transform="matrix(1 0 0 -1 0 792)" d="M446.272 189.393L446.272 202.96" stroke="#000000" stroke-width="0.398" fill="none" /><path id="2316" transform="matrix(1 0 0 -1 0 792)" d="M514.862 189.393L514.862 202.96" stroke="#000000" stroke-width="0.398" fill="none" /><path id="2317" transform="matrix(1 0 0 -1 0 792)" d="M131.46 189.194L515.061 189.194" stroke="#000000" stroke-width="0.398" fill="none" /><path id="2318" transform="matrix(1 0 0 -1 0 792)" d="M131.659 175.428L131.659 188.995" stroke="#000000" stroke-width="0.398" fill="none" /><path id="2324" transform="matrix(1 0 0 -1 0 792)" d="M168.321 179.709L171.31 179.709" stroke="#000000" stroke-width="0.398" fill="none" /><path id="2330" transform="matrix(1 0 0 -1 0 792)" d="M201.796 179.709L204.785 179.709" stroke="#000000" stroke-width="0.398" fill="none" /><path id="2333" transform="matrix(1 0 0 -1 0 792)" d="M324.013 175.428L324.013 188.995" stroke="#000000" stroke-width="0.398" fill="none" /><path id="2335" transform="matrix(1 0 0 -1 0 792)" d="M383.035 175.428L383.035 188.995" stroke="#000000" stroke-width="0.398" fill="none" /><path id="2337" transform="matrix(1 0 0 -1 0 792)" d="M446.272 175.428L446.272 188.995" stroke="#000000" stroke-width="0.398" fill="none" /><path id="2339" transform="matrix(1 0 0 -1 0 792)" d="M514.862 175.428L514.862 188.995" stroke="#000000" stroke-width="0.398" fill="none" /><path id="2340" transform="matrix(1 0 0 -1 0 792)" d="M131.46 175.229L515.061 175.229" stroke="#000000" stroke-width="0.398" fill="none" /><path id="2341" transform="matrix(1 0 0 -1 0 792)" d="M131.659 161.463L131.659 175.03" stroke="#000000" stroke-width="0.398" fill="none" /><path id="2347" transform="matrix(1 0 0 -1 0 792)" d="M168.321 165.744L171.31 165.744" stroke="#000000" stroke-width="0.398" fill="none" /><path id="2350" transform="matrix(1 0 0 -1 0 792)" d="M183.863 165.744L186.852 165.744" stroke="#000000" stroke-width="0.398" fill="none" /><path id="2355" transform="matrix(1 0 0 -1 0 792)" d="M324.013 161.463L324.013 175.03" stroke="#000000" stroke-width="0.398" fill="none" /><path id="2357" transform="matrix(1 0 0 -1 0 792)" d="M383.035 161.463L383.035 175.03" stroke="#000000" stroke-width="0.398" fill="none" /><path id="2359" transform="matrix(1 0 0 -1 0 792)" d="M446.272 161.463L446.272 175.03" stroke="#000000" stroke-width="0.398" fill="none" /><path id="2361" transform="matrix(1 0 0 -1 0 792)" d="M514.862 161.463L514.862 175.03" stroke="#000000" stroke-width="0.398" fill="none" /><path id="2362" transform="matrix(1 0 0 -1 0 792)" d="M131.46 161.264L515.061 161.264" stroke="#000000" stroke-width="0.398" fill="none" /></g></g></svg>