<svg xmlns="http://www.w3.org/2000/svg" xmlns:xlink="http://www.w3.org/1999/xlink" id="body_49" preserveAspectRatio="xMinYMin meet" viewBox="0 0 1632 1056"><defs><clipPath id="1"><path id="" clip-rule="evenodd" transform="matrix(1 0 0 1 0 0)" d="M0 792L0 0L0 0L1224 0L1224 0L1224 792L1224 792L0 792z" /></clipPath></defs><g transform="matrix(1.333333 0 0 1.333333 0 0)"><g clip-path="url(#1)"><path id="19" transform="matrix(1 0 0 -1 0 792)" d="M701.933 721.28L1168.588 721.28" stroke="#000000" stroke-width="0.498" fill="none" /><path id="31" transform="matrix(1 0 0 -1 0 792)" d="M742.795 599.238L1127.726 599.238" stroke="#000000" stroke-width="0.398" fill="none" /><path id="32" transform="matrix(1 0 0 -1 0 792)" d="M742.795 599.238L1127.726 599.238" stroke="#000000" stroke-width="0.398" fill="none" /><path id="33" transform="matrix(1 0 0 -1 0 792)" d="M742.994 585.472L742.994 599.039" stroke="#000000" stroke-width="0.398" fill="none" /><path id="34" transform="matrix(1 0 0 -1 0 792)" d="M743.193 585.472L1071.948 585.472L1071.948 599.039L743.193 599.039z" stroke="none" fill="#CCCCEB" fill-rule="nonzero" /><path id="44" transform="matrix(1 0 0 -1 0 792)" d="M1072.147 585.472L1072.147 599.039" stroke="#000000" stroke-width="0.398" fill="none" /><path id="45" transform="matrix(1 0 0 -1 0 792)" d="M1072.347 585.472L1127.327 585.472L1127.327 599.039L1072.347 599.039z" stroke="none" fill="#CCCCEB" fill-rule="nonzero" /><path id="52" transform="matrix(1 0 0 -1 0 792)" d="M1127.526 585.472L1127.526 599.039" stroke="#000000" stroke-width="0.398" fill="none" /><path id="53" transform="matrix(1 0 0 -1 0 792)" d="M742.795 585.273L1127.726 585.273" stroke="#000000" stroke-width="0.398" fill="none" /><path id="54" transform="matrix(1 0 0 -1 0 792)" d="M742.795 585.273L1127.726 585.273" stroke="#000000" stroke-width="0.398" fill="none" /><path id="55" transform="matrix(1 0 0 -1 0 792)" d="M742.795 584.874L1127.726 584.874" stroke="#000000" stroke-width="0.398" fill="none" /><path id="56" transform="matrix(1 0 0 -1 0 792)" d="M742.795 584.874L1127.726 584.874" stroke="#000000" stroke-width="0.398" fill="none" /><path id="57" transform="matrix(1 0 0 -1 0 792)" d="M742.994 571.108L742.994 584.675" stroke="#000000" stroke-width="0.398" fill="none" /><path id="109" transform="matrix(1 0 0 -1 0 792)" d="M1072.147 571.108L1072.147 584.675" stroke="#000000" stroke-width="0.398" fill="none" /><path id="111" transform="matrix(1 0 0 -1 0 792)" d="M1127.526 571.108L1127.526 584.675" stroke="#000000" stroke-width="0.398" fill="none" /><path id="112" transform="matrix(1 0 0 -1 0 792)" d="M742.795 570.909L1127.726 570.909" stroke="#000000" stroke-width="0.398" fill="none" /><path id="113" transform="matrix(1 0 0 -1 0 792)" d="M742.795 570.909L1127.726 570.909" stroke="#000000" stroke-width="0.398" fill="none" /><path id="114" transform="matrix(1 0 0 -1 0 792)" d="M742.994 557.143L742.994 570.71" stroke="#000000" stroke-width="0.398" fill="none" /><path id="142" transform="matrix(1 0 0 -1 0 792)" d="M1072.147 557.143L1072.147 570.71" stroke="#000000" stroke-width="0.398" fill="none" /><path id="144" transform="matrix(1 0 0 -1 0 792)" d="M1127.526 557.143L1127.526 570.71" stroke="#000000" stroke-width="0.398" fill="none" /><path id="145" transform="matrix(1 0 0 -1 0 792)" d="M742.795 556.944L1127.726 556.944" stroke="#000000" stroke-width="0.398" fill="none" /><path id="146" transform="matrix(1 0 0 -1 0 792)" d="M742.795 556.944L1127.726 556.944" stroke="#000000" stroke-width="0.398" fill="none" /><path id="162" transform="matrix(1 0 0 -1 0 792)" d="M742.795 458.364L1127.726 458.364" stroke="#000000" stroke-width="0.398" fill="none" /><path id="163" transform="matrix(1 0 0 -1 0 792)" d="M742.795 458.364L1127.726 458.364" stroke="#000000" stroke-width="0.398" fill="none" /><path id="164" transform="matrix(1 0 0 -1 0 792)" d="M742.994 444.598L742.994 458.165" stroke="#000000" stroke-width="0.398" fill="none" /><path id="165" transform="matrix(1 0 0 -1 0 792)" d="M743.193 444.598L1071.948 444.598L1071.948 458.165L743.193 458.165z" stroke="none" fill="#CCCCEB" fill-rule="nonzero" /><path id="175" transform="matrix(1 0 0 -1 0 792)" d="M1072.147 444.598L1072.147 458.165" stroke="#000000" stroke-width="0.398" fill="none" /><path id="176" transform="matrix(1 0 0 -1 0 792)" d="M1072.347 444.598L1127.327 444.598L1127.327 458.165L1072.347 458.165z" stroke="none" fill="#CCCCEB" fill-rule="nonzero" /><path id="183" transform="matrix(1 0 0 -1 0 792)" d="M1127.526 444.598L1127.526 458.165" stroke="#000000" stroke-width="0.398" fill="none" /><path id="184" transform="matrix(1 0 0 -1 0 792)" d="M742.795 444.398L1127.726 444.398" stroke="#000000" stroke-width="0.398" fill="none" /><path id="185" transform="matrix(1 0 0 -1 0 792)" d="M742.795 444.398L1127.726 444.398" stroke="#000000" stroke-width="0.398" fill="none" /><path id="186" transform="matrix(1 0 0 -1 0 792)" d="M742.795 444L1127.726 444" stroke="#000000" stroke-width="0.398" fill="none" /><path id="187" transform="matrix(1 0 0 -1 0 792)" d="M742.795 444L1127.726 444" stroke="#000000" stroke-width="0.398" fill="none" /><path id="188" transform="matrix(1 0 0 -1 0 792)" d="M742.994 430.234L742.994 443.801" stroke="#000000" stroke-width="0.398" fill="none" /><path id="219" transform="matrix(1 0 0 -1 0 792)" d="M1072.147 430.234L1072.147 443.801" stroke="#000000" stroke-width="0.398" fill="none" /><path id="221" transform="matrix(1 0 0 -1 0 792)" d="M1127.526 430.234L1127.526 443.801" stroke="#000000" stroke-width="0.398" fill="none" /><path id="222" transform="matrix(1 0 0 -1 0 792)" d="M742.795 430.035L1127.726 430.035" stroke="#000000" stroke-width="0.398" fill="none" /><path id="223" transform="matrix(1 0 0 -1 0 792)" d="M742.795 430.035L1127.726 430.035" stroke="#000000" stroke-width="0.398" fill="none" /><path id="224" transform="matrix(1 0 0 -1 0 792)" d="M742.994 416.269L742.994 429.836" stroke="#000000" stroke-width="0.398" fill="none" /><path id="242" transform="matrix(1 0 0 -1 0 792)" d="M1072.147 416.269L1072.147 429.836" stroke="#000000" stroke-width="0.398" fill="none" /><path id="244" transform="matrix(1 0 0 -1 0 792)" d="M1127.526 416.269L1127.526 429.836" stroke="#000000" stroke-width="0.398" fill="none" /><path id="245" transform="matrix(1 0 0 -1 0 792)" d="M742.795 416.07L1127.726 416.07" stroke="#000000" stroke-width="0.398" fill="none" /><path id="246" transform="matrix(1 0 0 -1 0 792)" d="M742.795 416.07L1127.726 416.07" stroke="#000000" stroke-width="0.398" fill="none" /><path id="247" transform="matrix(1 0 0 -1 0 792)" d="M742.994 402.304L742.994 415.871" stroke="#000000" stroke-width="0.398" fill="none" /><path id="270" transform="matrix(1 0 0 -1 0 792)" d="M1072.147 402.304L1072.147 415.871" stroke="#000000" stroke-width="0.398" fill="none" /><path id="272" transform="matrix(1 0 0 -1 0 792)" d="M1127.526 402.304L1127.526 415.871" stroke="#000000" stroke-width="0.398" fill="none" /><path id="273" transform="matrix(1 0 0 -1 0 792)" d="M742.795 402.104L1127.726 402.104" stroke="#000000" stroke-width="0.398" fill="none" /><path id="274" transform="matrix(1 0 0 -1 0 792)" d="M742.795 402.104L1127.726 402.104" stroke="#000000" stroke-width="0.398" fill="none" /><path id="275" transform="matrix(1 0 0 -1 0 792)" d="M742.994 388.339L742.994 401.906" stroke="#000000" stroke-width="0.398" fill="none" /><path id="322" transform="matrix(1 0 0 -1 0 792)" d="M1072.147 388.339L1072.147 401.906" stroke="#000000" stroke-width="0.398" fill="none" /><path id="324" transform="matrix(1 0 0 -1 0 792)" d="M1127.526 388.339L1127.526 401.906" stroke="#000000" stroke-width="0.398" fill="none" /><path id="325" transform="matrix(1 0 0 -1 0 792)" d="M742.795 388.139L1127.726 388.139" stroke="#000000" stroke-width="0.398" fill="none" /><path id="326" transform="matrix(1 0 0 -1 0 792)" d="M742.795 388.139L1127.726 388.139" stroke="#000000" stroke-width="0.398" fill="none" /><path id="327" transform="matrix(1 0 0 -1 0 792)" d="M742.994 374.373L742.994 387.94" stroke="#000000" stroke-width="0.398" fill="none" /><path id="350" transform="matrix(1 0 0 -1 0 792)" d="M1072.147 374.373L1072.147 387.94" stroke="#000000" stroke-width="0.398" fill="none" /><path id="352" transform="matrix(1 0 0 -1 0 792)" d="M1127.526 374.373L1127.526 387.94" stroke="#000000" stroke-width="0.398" fill="none" /><path id="353" transform="matrix(1 0 0 -1 0 792)" d="M742.795 374.174L1127.726 374.174" stroke="#000000" stroke-width="0.398" fill="none" /><path id="354" transform="matrix(1 0 0 -1 0 792)" d="M742.795 374.174L1127.726 374.174" stroke="#000000" stroke-width="0.398" fill="none" /><path id="355" transform="matrix(1 0 0 -1 0 792)" d="M742.994 360.408L742.994 373.975" stroke="#000000" stroke-width="0.398" fill="none" /><path id="380" transform="matrix(1 0 0 -1 0 792)" d="M1072.147 360.408L1072.147 373.975" stroke="#000000" stroke-width="0.398" fill="none" /><path id="382" transform="matrix(1 0 0 -1 0 792)" d="M1127.526 360.408L1127.526 373.975" stroke="#000000" stroke-width="0.398" fill="none" /><path id="383" transform="matrix(1 0 0 -1 0 792)" d="M742.795 360.209L1127.726 360.209" stroke="#000000" stroke-width="0.398" fill="none" /><path id="384" transform="matrix(1 0 0 -1 0 792)" d="M742.795 360.209L1127.726 360.209" stroke="#000000" stroke-width="0.398" fill="none" /><path id="385" transform="matrix(1 0 0 -1 0 792)" d="M742.994 346.443L742.994 360.01" stroke="#000000" stroke-width="0.398" fill="none" /><path id="409" transform="matrix(1 0 0 -1 0 792)" d="M1072.147 346.443L1072.147 360.01" stroke="#000000" stroke-width="0.398" fill="none" /><path id="411" transform="matrix(1 0 0 -1 0 792)" d="M1127.526 346.443L1127.526 360.01" stroke="#000000" stroke-width="0.398" fill="none" /><path id="412" transform="matrix(1 0 0 -1 0 792)" d="M742.795 346.244L1127.726 346.244" stroke="#000000" stroke-width="0.398" fill="none" /><path id="413" transform="matrix(1 0 0 -1 0 792)" d="M742.795 346.244L1127.726 346.244" stroke="#000000" stroke-width="0.398" fill="none" /><path id="414" transform="matrix(1 0 0 -1 0 792)" d="M742.994 332.478L742.994 346.045" stroke="#000000" stroke-width="0.398" fill="none" /><path id="451" transform="matrix(1 0 0 -1 0 792)" d="M1072.147 332.478L1072.147 346.045" stroke="#000000" stroke-width="0.398" fill="none" /><path id="453" transform="matrix(1 0 0 -1 0 792)" d="M1127.526 332.478L1127.526 346.045" stroke="#000000" stroke-width="0.398" fill="none" /><path id="454" transform="matrix(1 0 0 -1 0 792)" d="M742.795 332.279L1127.726 332.279" stroke="#000000" stroke-width="0.398" fill="none" /><path id="455" transform="matrix(1 0 0 -1 0 792)" d="M742.795 332.279L1127.726 332.279" stroke="#000000" stroke-width="0.398" fill="none" /><path id="473" transform="matrix(1 0 0 -1 0 792)" d="M742.795 209.788L1127.726 209.788" stroke="#000000" stroke-width="0.398" fill="none" /><path id="474" transform="matrix(1 0 0 -1 0 792)" d="M742.795 209.788L1127.726 209.788" stroke="#000000" stroke-width="0.398" fill="none" /><path id="475" transform="matrix(1 0 0 -1 0 792)" d="M742.994 196.022L742.994 209.589" stroke="#000000" stroke-width="0.398" fill="none" /><path id="476" transform="matrix(1 0 0 -1 0 792)" d="M743.193 196.022L1071.948 196.022L1071.948 209.589L743.193 209.589z" stroke="none" fill="#CCCCEB" fill-rule="nonzero" /><path id="486" transform="matrix(1 0 0 -1 0 792)" d="M1072.147 196.022L1072.147 209.589" stroke="#000000" stroke-width="0.398" fill="none" /><path id="487" transform="matrix(1 0 0 -1 0 792)" d="M1072.347 196.022L1127.327 196.022L1127.327 209.589L1072.347 209.589z" stroke="none" fill="#CCCCEB" fill-rule="nonzero" /><path id="494" transform="matrix(1 0 0 -1 0 792)" d="M1127.526 196.022L1127.526 209.589" stroke="#000000" stroke-width="0.398" fill="none" /><path id="495" transform="matrix(1 0 0 -1 0 792)" d="M742.795 195.823L1127.726 195.823" stroke="#000000" stroke-width="0.398" fill="none" /><path id="496" transform="matrix(1 0 0 -1 0 792)" d="M742.795 195.823L1127.726 195.823" stroke="#000000" stroke-width="0.398" fill="none" /><path id="497" transform="matrix(1 0 0 -1 0 792)" d="M742.795 195.424L1127.726 195.424" stroke="#000000" stroke-width="0.398" fill="none" /><path id="498" transform="matrix(1 0 0 -1 0 792)" d="M742.795 195.424L1127.726 195.424" stroke="#000000" stroke-width="0.398" fill="none" /><path id="499" transform="matrix(1 0 0 -1 0 792)" d="M742.994 181.658L742.994 195.225" stroke="#000000" stroke-width="0.398" fill="none" /><path id="515" transform="matrix(1 0 0 -1 0 792)" d="M1072.147 181.658L1072.147 195.225" stroke="#000000" stroke-width="0.398" fill="none" /><path id="517" transform="matrix(1 0 0 -1 0 792)" d="M1127.526 181.658L1127.526 195.225" stroke="#000000" stroke-width="0.398" fill="none" /><path id="518" transform="matrix(1 0 0 -1 0 792)" d="M742.795 181.459L1127.726 181.459" stroke="#000000" stroke-width="0.398" fill="none" /><path id="519" transform="matrix(1 0 0 -1 0 792)" d="M742.795 181.459L1127.726 181.459" stroke="#000000" stroke-width="0.398" fill="none" /><path id="520" transform="matrix(1 0 0 -1 0 792)" d="M742.994 167.693L742.994 181.26" stroke="#000000" stroke-width="0.398" fill="none" /><path id="537" transform="matrix(1 0 0 -1 0 792)" d="M1072.147 167.693L1072.147 181.26" stroke="#000000" stroke-width="0.398" fill="none" /><path id="539" transform="matrix(1 0 0 -1 0 792)" d="M1127.526 167.693L1127.526 181.26" stroke="#000000" stroke-width="0.398" fill="none" /><path id="540" transform="matrix(1 0 0 -1 0 792)" d="M742.795 167.494L1127.726 167.494" stroke="#000000" stroke-width="0.398" fill="none" /><path id="541" transform="matrix(1 0 0 -1 0 792)" d="M742.795 167.494L1127.726 167.494" stroke="#000000" stroke-width="0.398" fill="none" /><path id="542" transform="matrix(1 0 0 -1 0 792)" d="M729.206 670.87L1168.587 670.87L1168.587 670.87L1168.587 695.1587L1168.587 695.1587L729.206 695.1587z" stroke="#FFFFFF" stroke-width="1" fill="#FFFFFF" fill-rule="nonzero" /><path id="578" transform="matrix(1 0 0 -1 0 792)" d="M701.933 610.688L818.889 610.688L818.889 610.688L818.889 623.8335L818.889 623.8335L701.933 623.8335z" stroke="#FFFFFF" stroke-width="1" fill="#FFFFFF" fill-rule="nonzero" /><path id="585" transform="matrix(1 0 0 -1 0 792)" d="M729.206 529.995L862.743 529.995L862.743 529.995L862.743 542.3287L862.743 542.3287L729.206 542.3287z" stroke="#FFFFFF" stroke-width="1" fill="#FFFFFF" fill-rule="nonzero" /><path id="594" transform="matrix(1 0 0 -1 0 792)" d="M701.933 469.815L837.38 469.815L837.38 469.815L837.38 482.9605L837.38 482.9605L701.933 482.9605z" stroke="#FFFFFF" stroke-width="1" fill="#FFFFFF" fill-rule="nonzero" /><path id="603" transform="matrix(1 0 0 -1 0 792)" d="M729.206 281.42L1168.586 281.42L1168.586 281.42L1168.586 317.6637L1168.586 317.6637L729.206 317.6637z" stroke="#FFFFFF" stroke-width="1" fill="#FFFFFF" fill-rule="nonzero" /><path id="676" transform="matrix(1 0 0 -1 0 792)" d="M701.933 220.907L838.057 220.907L838.057 220.907L838.057 234.3842L838.057 234.3842L701.933 234.3842z" stroke="#FFFFFF" stroke-width="1" fill="#FFFFFF" fill-rule="nonzero" /><path id="685" transform="matrix(1 0 0 -1 0 792)" d="M729.206 128.032L1168.587 128.032L1168.587 128.032L1168.587 152.9483L1168.587 152.9483L729.206 152.9483z" stroke="#FFFFFF" stroke-width="1" fill="#FFFFFF" fill-rule="nonzero" /><path id="769" transform="matrix(1 0 0 -1 0 792)" d="M89.933 721.28L556.588 721.28" stroke="#000000" stroke-width="0.498" fill="none" /><path id="914" transform="matrix(1 0 0 -1 0 792)" d="M130.795 599.238L515.726 599.238" stroke="#000000" stroke-width="0.398" fill="none" /><path id="915" transform="matrix(1 0 0 -1 0 792)" d="M130.795 599.238L515.726 599.238" stroke="#000000" stroke-width="0.398" fill="none" /><path id="916" transform="matrix(1 0 0 -1 0 792)" d="M130.994 585.472L130.994 599.039" stroke="#000000" stroke-width="0.398" fill="none" /><path id="917" transform="matrix(1 0 0 -1 0 792)" d="M131.193 585.472L459.948 585.472L459.948 599.039L131.193 599.039z" stroke="none" fill="#CCCCEB" fill-rule="nonzero" /><path id="927" transform="matrix(1 0 0 -1 0 792)" d="M460.147 585.472L460.147 599.039" stroke="#000000" stroke-width="0.398" fill="none" /><path id="928" transform="matrix(1 0 0 -1 0 792)" d="M460.347 585.472L515.327 585.472L515.327 599.039L460.347 599.039z" stroke="none" fill="#CCCCEB" fill-rule="nonzero" /><path id="935" transform="matrix(1 0 0 -1 0 792)" d="M515.526 585.472L515.526 599.039" stroke="#000000" stroke-width="0.398" fill="none" /><path id="936" transform="matrix(1 0 0 -1 0 792)" d="M130.795 585.273L515.726 585.273" stroke="#000000" stroke-width="0.398" fill="none" /><path id="937" transform="matrix(1 0 0 -1 0 792)" d="M130.795 585.273L515.726 585.273" stroke="#000000" stroke-width="0.398" fill="none" /><path id="938" transform="matrix(1 0 0 -1 0 792)" d="M130.795 584.874L515.726 584.874" stroke="#000000" stroke-width="0.398" fill="none" /><path id="939" transform="matrix(1 0 0 -1 0 792)" d="M130.795 584.874L515.726 584.874" stroke="#000000" stroke-width="0.398" fill="none" /><path id="940" transform="matrix(1 0 0 -1 0 792)" d="M130.994 571.108L130.994 584.675" stroke="#000000" stroke-width="0.398" fill="none" /><path id="992" transform="matrix(1 0 0 -1 0 792)" d="M460.147 571.108L460.147 584.675" stroke="#000000" stroke-width="0.398" fill="none" /><path id="994" transform="matrix(1 0 0 -1 0 792)" d="M515.526 571.108L515.526 584.675" stroke="#000000" stroke-width="0.398" fill="none" /><path id="995" transform="matrix(1 0 0 -1 0 792)" d="M130.795 570.909L515.726 570.909" stroke="#000000" stroke-width="0.398" fill="none" /><path id="996" transform="matrix(1 0 0 -1 0 792)" d="M130.795 570.909L515.726 570.909" stroke="#000000" stroke-width="0.398" fill="none" /><path id="997" transform="matrix(1 0 0 -1 0 792)" d="M130.994 557.143L130.994 570.71" stroke="#000000" stroke-width="0.398" fill="none" /><path id="1025" transform="matrix(1 0 0 -1 0 792)" d="M460.147 557.143L460.147 570.71" stroke="#000000" stroke-width="0.398" fill="none" /><path id="1027" transform="matrix(1 0 0 -1 0 792)" d="M515.526 557.143L515.526 570.71" stroke="#000000" stroke-width="0.398" fill="none" /><path id="1028" transform="matrix(1 0 0 -1 0 792)" d="M130.795 556.944L515.726 556.944" stroke="#000000" stroke-width="0.398" fill="none" /><path id="1029" transform="matrix(1 0 0 -1 0 792)" d="M130.795 556.944L515.726 556.944" stroke="#000000" stroke-width="0.398" fill="none" /><path id="1096" transform="matrix(1 0 0 -1 0 792)" d="M130.795 458.364L515.726 458.364" stroke="#000000" stroke-width="0.398" fill="none" /><path id="1097" transform="matrix(1 0 0 -1 0 792)" d="M130.795 458.364L515.726 458.364" stroke="#000000" stroke-width="0.398" fill="none" /><path id="1098" transform="matrix(1 0 0 -1 0 792)" d="M130.994 444.598L130.994 458.165" stroke="#000000" stroke-width="0.398" fill="none" /><path id="1099" transform="matrix(1 0 0 -1 0 792)" d="M131.193 444.598L459.948 444.598L459.948 458.165L131.193 458.165z" stroke="none" fill="#CCCCEB" fill-rule="nonzero" /><path id="1109" transform="matrix(1 0 0 -1 0 792)" d="M460.147 444.598L460.147 458.165" stroke="#000000" stroke-width="0.398" fill="none" /><path id="1110" transform="matrix(1 0 0 -1 0 792)" d="M460.347 444.598L515.327 444.598L515.327 458.165L460.347 458.165z" stroke="none" fill="#CCCCEB" fill-rule="nonzero" /><path id="1117" transform="matrix(1 0 0 -1 0 792)" d="M515.526 444.598L515.526 458.165" stroke="#000000" stroke-width="0.398" fill="none" /><path id="1118" transform="matrix(1 0 0 -1 0 792)" d="M130.795 444.398L515.726 444.398" stroke="#000000" stroke-width="0.398" fill="none" /><path id="1119" transform="matrix(1 0 0 -1 0 792)" d="M130.795 444.398L515.726 444.398" stroke="#000000" stroke-width="0.398" fill="none" /><path id="1120" transform="matrix(1 0 0 -1 0 792)" d="M130.795 444L515.726 444" stroke="#000000" stroke-width="0.398" fill="none" /><path id="1121" transform="matrix(1 0 0 -1 0 792)" d="M130.795 444L515.726 444" stroke="#000000" stroke-width="0.398" fill="none" /><path id="1122" transform="matrix(1 0 0 -1 0 792)" d="M130.994 430.234L130.994 443.801" stroke="#000000" stroke-width="0.398" fill="none" /><path id="1153" transform="matrix(1 0 0 -1 0 792)" d="M460.147 430.234L460.147 443.801" stroke="#000000" stroke-width="0.398" fill="none" /><path id="1155" transform="matrix(1 0 0 -1 0 792)" d="M515.526 430.234L515.526 443.801" stroke="#000000" stroke-width="0.398" fill="none" /><path id="1156" transform="matrix(1 0 0 -1 0 792)" d="M130.795 430.035L515.726 430.035" stroke="#000000" stroke-width="0.398" fill="none" /><path id="1157" transform="matrix(1 0 0 -1 0 792)" d="M130.795 430.035L515.726 430.035" stroke="#000000" stroke-width="0.398" fill="none" /><path id="1158" transform="matrix(1 0 0 -1 0 792)" d="M130.994 416.269L130.994 429.836" stroke="#000000" stroke-width="0.398" fill="none" /><path id="1176" transform="matrix(1 0 0 -1 0 792)" d="M460.147 416.269L460.147 429.836" stroke="#000000" stroke-width="0.398" fill="none" /><path id="1178" transform="matrix(1 0 0 -1 0 792)" d="M515.526 416.269L515.526 429.836" stroke="#000000" stroke-width="0.398" fill="none" /><path id="1179" transform="matrix(1 0 0 -1 0 792)" d="M130.795 416.07L515.726 416.07" stroke="#000000" stroke-width="0.398" fill="none" /><path id="1180" transform="matrix(1 0 0 -1 0 792)" d="M130.795 416.07L515.726 416.07" stroke="#000000" stroke-width="0.398" fill="none" /><path id="1181" transform="matrix(1 0 0 -1 0 792)" d="M130.994 402.304L130.994 415.871" stroke="#000000" stroke-width="0.398" fill="none" /><path id="1204" transform="matrix(1 0 0 -1 0 792)" d="M460.147 402.304L460.147 415.871" stroke="#000000" stroke-width="0.398" fill="none" /><path id="1206" transform="matrix(1 0 0 -1 0 792)" d="M515.526 402.304L515.526 415.871" stroke="#000000" stroke-width="0.398" fill="none" /><path id="1207" transform="matrix(1 0 0 -1 0 792)" d="M130.795 402.104L515.726 402.104" stroke="#000000" stroke-width="0.398" fill="none" /><path id="1208" transform="matrix(1 0 0 -1 0 792)" d="M130.795 402.104L515.726 402.104" stroke="#000000" stroke-width="0.398" fill="none" /><path id="1209" transform="matrix(1 0 0 -1 0 792)" d="M130.994 388.339L130.994 401.906" stroke="#000000" stroke-width="0.398" fill="none" /><path id="1256" transform="matrix(1 0 0 -1 0 792)" d="M460.147 388.339L460.147 401.906" stroke="#000000" stroke-width="0.398" fill="none" /><path id="1258" transform="matrix(1 0 0 -1 0 792)" d="M515.526 388.339L515.526 401.906" stroke="#000000" stroke-width="0.398" fill="none" /><path id="1259" transform="matrix(1 0 0 -1 0 792)" d="M130.795 388.139L515.726 388.139" stroke="#000000" stroke-width="0.398" fill="none" /><path id="1260" transform="matrix(1 0 0 -1 0 792)" d="M130.795 388.139L515.726 388.139" stroke="#000000" stroke-width="0.398" fill="none" /><path id="1261" transform="matrix(1 0 0 -1 0 792)" d="M130.994 374.373L130.994 387.94" stroke="#000000" stroke-width="0.398" fill="none" /><path id="1284" transform="matrix(1 0 0 -1 0 792)" d="M460.147 374.373L460.147 387.94" stroke="#000000" stroke-width="0.398" fill="none" /><path id="1286" transform="matrix(1 0 0 -1 0 792)" d="M515.526 374.373L515.526 387.94" stroke="#000000" stroke-width="0.398" fill="none" /><path id="1287" transform="matrix(1 0 0 -1 0 792)" d="M130.795 374.174L515.726 374.174" stroke="#000000" stroke-width="0.398" fill="none" /><path id="1288" transform="matrix(1 0 0 -1 0 792)" d="M130.795 374.174L515.726 374.174" stroke="#000000" stroke-width="0.398" fill="none" /><path id="1289" transform="matrix(1 0 0 -1 0 792)" d="M130.994 360.408L130.994 373.975" stroke="#000000" stroke-width="0.398" fill="none" /><path id="1314" transform="matrix(1 0 0 -1 0 792)" d="M460.147 360.408L460.147 373.975" stroke="#000000" stroke-width="0.398" fill="none" /><path id="1316" transform="matrix(1 0 0 -1 0 792)" d="M515.526 360.408L515.526 373.975" stroke="#000000" stroke-width="0.398" fill="none" /><path id="1317" transform="matrix(1 0 0 -1 0 792)" d="M130.795 360.209L515.726 360.209" stroke="#000000" stroke-width="0.398" fill="none" /><path id="1318" transform="matrix(1 0 0 -1 0 792)" d="M130.795 360.209L515.726 360.209" stroke="#000000" stroke-width="0.398" fill="none" /><path id="1319" transform="matrix(1 0 0 -1 0 792)" d="M130.994 346.443L130.994 360.01" stroke="#000000" stroke-width="0.398" fill="none" /><path id="1343" transform="matrix(1 0 0 -1 0 792)" d="M460.147 346.443L460.147 360.01" stroke="#000000" stroke-width="0.398" fill="none" /><path id="1345" transform="matrix(1 0 0 -1 0 792)" d="M515.526 346.443L515.526 360.01" stroke="#000000" stroke-width="0.398" fill="none" /><path id="1346" transform="matrix(1 0 0 -1 0 792)" d="M130.795 346.244L515.726 346.244" stroke="#000000" stroke-width="0.398" fill="none" /><path id="1347" transform="matrix(1 0 0 -1 0 792)" d="M130.795 346.244L515.726 346.244" stroke="#000000" stroke-width="0.398" fill="none" /><path id="1348" transform="matrix(1 0 0 -1 0 792)" d="M130.994 332.478L130.994 346.045" stroke="#000000" stroke-width="0.398" fill="none" /><path id="1385" transform="matrix(1 0 0 -1 0 792)" d="M460.147 332.478L460.147 346.045" stroke="#000000" stroke-width="0.398" fill="none" /><path id="1387" transform="matrix(1 0 0 -1 0 792)" d="M515.526 332.478L515.526 346.045" stroke="#000000" stroke-width="0.398" fill="none" /><path id="1388" transform="matrix(1 0 0 -1 0 792)" d="M130.795 332.279L515.726 332.279" stroke="#000000" stroke-width="0.398" fill="none" /><path id="1389" transform="matrix(1 0 0 -1 0 792)" d="M130.795 332.279L515.726 332.279" stroke="#000000" stroke-width="0.398" fill="none" /><path id="1657" transform="matrix(1 0 0 -1 0 792)" d="M130.795 209.788L515.726 209.788" stroke="#000000" stroke-width="0.398" fill="none" /><path id="1658" transform="matrix(1 0 0 -1 0 792)" d="M130.795 209.788L515.726 209.788" stroke="#000000" stroke-width="0.398" fill="none" /><path id="1659" transform="matrix(1 0 0 -1 0 792)" d="M130.994 196.022L130.994 209.589" stroke="#000000" stroke-width="0.398" fill="none" /><path id="1660" transform="matrix(1 0 0 -1 0 792)" d="M131.193 196.022L459.948 196.022L459.948 209.589L131.193 209.589z" stroke="none" fill="#CCCCEB" fill-rule="nonzero" /><path id="1670" transform="matrix(1 0 0 -1 0 792)" d="M460.147 196.022L460.147 209.589" stroke="#000000" stroke-width="0.398" fill="none" /><path id="1671" transform="matrix(1 0 0 -1 0 792)" d="M460.347 196.022L515.327 196.022L515.327 209.589L460.347 209.589z" stroke="none" fill="#CCCCEB" fill-rule="nonzero" /><path id="1678" transform="matrix(1 0 0 -1 0 792)" d="M515.526 196.022L515.526 209.589" stroke="#000000" stroke-width="0.398" fill="none" /><path id="1679" transform="matrix(1 0 0 -1 0 792)" d="M130.795 195.823L515.726 195.823" stroke="#000000" stroke-width="0.398" fill="none" /><path id="1680" transform="matrix(1 0 0 -1 0 792)" d="M130.795 195.823L515.726 195.823" stroke="#000000" stroke-width="0.398" fill="none" /><path id="1681" transform="matrix(1 0 0 -1 0 792)" d="M130.795 195.424L515.726 195.424" stroke="#000000" stroke-width="0.398" fill="none" /><path id="1682" transform="matrix(1 0 0 -1 0 792)" d="M130.795 195.424L515.726 195.424" stroke="#000000" stroke-width="0.398" fill="none" /><path id="1683" transform="matrix(1 0 0 -1 0 792)" d="M130.994 181.658L130.994 195.225" stroke="#000000" stroke-width="0.398" fill="none" /><path id="1699" transform="matrix(1 0 0 -1 0 792)" d="M460.147 181.658L460.147 195.225" stroke="#000000" stroke-width="0.398" fill="none" /><path id="1701" transform="matrix(1 0 0 -1 0 792)" d="M515.526 181.658L515.526 195.225" stroke="#000000" stroke-width="0.398" fill="none" /><path id="1702" transform="matrix(1 0 0 -1 0 792)" d="M130.795 181.459L515.726 181.459" stroke="#000000" stroke-width="0.398" fill="none" /><path id="1703" transform="matrix(1 0 0 -1 0 792)" d="M130.795 181.459L515.726 181.459" stroke="#000000" stroke-width="0.398" fill="none" /><path id="1704" transform="matrix(1 0 0 -1 0 792)" d="M130.994 167.693L130.994 181.26" stroke="#000000" stroke-width="0.398" fill="none" /><path id="1721" transform="matrix(1 0 0 -1 0 792)" d="M460.147 167.693L460.147 181.26" stroke="#000000" stroke-width="0.398" fill="none" /><path id="1723" transform="matrix(1 0 0 -1 0 792)" d="M515.526 167.693L515.526 181.26" stroke="#000000" stroke-width="0.398" fill="none" /><path id="1724" transform="matrix(1 0 0 -1 0 792)" d="M130.795 167.494L515.726 167.494" stroke="#000000" stroke-width="0.398" fill="none" /><path id="1725" transform="matrix(1 0 0 -1 0 792)" d="M130.795 167.494L515.726 167.494" stroke="#000000" stroke-width="0.398" fill="none" /></g></g></svg>