<svg xmlns="http://www.w3.org/2000/svg" xmlns:xlink="http://www.w3.org/1999/xlink" id="body_18" preserveAspectRatio="xMinYMin meet" viewBox="0 0 1632 1056"><defs><clipPath id="1"><path id="" clip-rule="evenodd" transform="matrix(1 0 0 1 0 0)" d="M0 792L0 0L0 0L1224 0L1224 0L1224 792L1224 792L0 792z" /></clipPath></defs><g transform="matrix(1.333333 0 0 1.333333 0 0)"><g clip-path="url(#1)"><path id="18" transform="matrix(1 0 0 -1 0 792)" d="M666.067 721.28L1132.722 721.28" stroke="#000000" stroke-width="0.498" fill="none" /><path id="19" transform="matrix(1 0 0 -1 0 792)" d="M677.019 696.423L1121.771 696.423" stroke="#000000" stroke-width="0.398" fill="none" /><path id="20" transform="matrix(1 0 0 -1 0 792)" d="M677.019 696.423L1121.771 696.423" stroke="#000000" stroke-width="0.398" fill="none" /><path id="21" transform="matrix(1 0 0 -1 0 792)" d="M677.218 682.658L677.218 696.225" stroke="#000000" stroke-width="0.398" fill="none" /><path id="22" transform="matrix(1 0 0 -1 0 792)" d="M677.417 682.658L1006.172 682.658L1006.172 696.225L677.417 696.225z" stroke="none" fill="#CCCCEB" fill-rule="nonzero" /><path id="32" transform="matrix(1 0 0 -1 0 792)" d="M1006.371 682.658L1006.371 696.225" stroke="#000000" stroke-width="0.398" fill="none" /><path id="33" transform="matrix(1 0 0 -1 0 792)" d="M1006.57 682.658L1121.372 682.658L1121.372 696.225L1006.57 696.225z" stroke="none" fill="#CCCCEB" fill-rule="nonzero" /><path id="40" transform="matrix(1 0 0 -1 0 792)" d="M1121.572 682.658L1121.572 696.225" stroke="#000000" stroke-width="0.398" fill="none" /><path id="41" transform="matrix(1 0 0 -1 0 792)" d="M677.019 682.458L1121.771 682.458" stroke="#000000" stroke-width="0.398" fill="none" /><path id="42" transform="matrix(1 0 0 -1 0 792)" d="M677.019 682.458L1121.771 682.458" stroke="#000000" stroke-width="0.398" fill="none" /><path id="43" transform="matrix(1 0 0 -1 0 792)" d="M677.019 682.06L1121.771 682.06" stroke="#000000" stroke-width="0.398" fill="none" /><path id="44" transform="matrix(1 0 0 -1 0 792)" d="M677.019 682.06L1121.771 682.06" stroke="#000000" stroke-width="0.398" fill="none" /><path id="45" transform="matrix(1 0 0 -1 0 792)" d="M677.019 682.06L1121.771 682.06" stroke="#000000" stroke-width="0.398" fill="none" /><path id="46" transform="matrix(1 0 0 -1 0 792)" d="M677.218 654.762L677.218 681.86" stroke="#000000" stroke-width="0.398" fill="none" /><path id="116" transform="matrix(1 0 0 -1 0 792)" d="M1006.371 654.762L1006.371 681.86" stroke="#000000" stroke-width="0.398" fill="none" /><path id="118" transform="matrix(1 0 0 -1 0 792)" d="M1121.572 654.762L1121.572 681.86" stroke="#000000" stroke-width="0.398" fill="none" /><path id="119" transform="matrix(1 0 0 -1 0 792)" d="M677.019 654.563L1121.771 654.563" stroke="#000000" stroke-width="0.398" fill="none" /><path id="120" transform="matrix(1 0 0 -1 0 792)" d="M677.019 654.563L1121.771 654.563" stroke="#000000" stroke-width="0.398" fill="none" /><path id="121" transform="matrix(1 0 0 -1 0 792)" d="M677.218 640.797L677.218 654.364" stroke="#000000" stroke-width="0.398" fill="none" /><path id="171" transform="matrix(1 0 0 -1 0 792)" d="M1006.371 640.797L1006.371 654.364" stroke="#000000" stroke-width="0.398" fill="none" /><path id="173" transform="matrix(1 0 0 -1 0 792)" d="M1121.572 640.797L1121.572 654.364" stroke="#000000" stroke-width="0.398" fill="none" /><path id="174" transform="matrix(1 0 0 -1 0 792)" d="M677.019 640.598L1121.771 640.598" stroke="#000000" stroke-width="0.398" fill="none" /><path id="175" transform="matrix(1 0 0 -1 0 792)" d="M677.019 640.598L1121.771 640.598" stroke="#000000" stroke-width="0.398" fill="none" /><path id="176" transform="matrix(1 0 0 -1 0 792)" d="M677.218 626.832L677.218 640.399" stroke="#000000" stroke-width="0.398" fill="none" /><path id="205" transform="matrix(1 0 0 -1 0 792)" d="M1006.371 626.832L1006.371 640.399" stroke="#000000" stroke-width="0.398" fill="none" /><path id="207" transform="matrix(1 0 0 -1 0 792)" d="M1121.572 626.832L1121.572 640.399" stroke="#000000" stroke-width="0.398" fill="none" /><path id="208" transform="matrix(1 0 0 -1 0 792)" d="M677.019 626.633L1121.771 626.633" stroke="#000000" stroke-width="0.398" fill="none" /><path id="209" transform="matrix(1 0 0 -1 0 792)" d="M677.019 626.633L1121.771 626.633" stroke="#000000" stroke-width="0.398" fill="none" /><path id="210" transform="matrix(1 0 0 -1 0 792)" d="M677.218 612.867L677.218 626.434" stroke="#000000" stroke-width="0.398" fill="none" /><path id="238" transform="matrix(1 0 0 -1 0 792)" d="M1006.371 612.867L1006.371 626.434" stroke="#000000" stroke-width="0.398" fill="none" /><path id="240" transform="matrix(1 0 0 -1 0 792)" d="M1121.572 612.867L1121.572 626.434" stroke="#000000" stroke-width="0.398" fill="none" /><path id="241" transform="matrix(1 0 0 -1 0 792)" d="M677.019 612.667L1121.771 612.667" stroke="#000000" stroke-width="0.398" fill="none" /><path id="242" transform="matrix(1 0 0 -1 0 792)" d="M677.019 612.667L1121.771 612.667" stroke="#000000" stroke-width="0.398" fill="none" /><path id="243" transform="matrix(1 0 0 -1 0 792)" d="M677.218 585.37L677.218 612.468" stroke="#000000" stroke-width="0.398" fill="none" /><path id="328" transform="matrix(1 0 0 -1 0 792)" d="M1006.371 585.37L1006.371 612.468" stroke="#000000" stroke-width="0.398" fill="none" /><path id="330" transform="matrix(1 0 0 -1 0 792)" d="M1121.572 585.37L1121.572 612.468" stroke="#000000" stroke-width="0.398" fill="none" /><path id="331" transform="matrix(1 0 0 -1 0 792)" d="M677.019 585.171L1121.771 585.171" stroke="#000000" stroke-width="0.398" fill="none" /><path id="332" transform="matrix(1 0 0 -1 0 792)" d="M677.019 585.171L1121.771 585.171" stroke="#000000" stroke-width="0.398" fill="none" /><path id="333" transform="matrix(1 0 0 -1 0 792)" d="M677.218 557.873L677.218 584.971" stroke="#000000" stroke-width="0.398" fill="none" /><path id="407" transform="matrix(1 0 0 -1 0 792)" d="M1006.371 557.873L1006.371 584.971" stroke="#000000" stroke-width="0.398" fill="none" /><path id="409" transform="matrix(1 0 0 -1 0 792)" d="M1121.572 557.873L1121.572 584.971" stroke="#000000" stroke-width="0.398" fill="none" /><path id="410" transform="matrix(1 0 0 -1 0 792)" d="M677.019 557.674L1121.771 557.674" stroke="#000000" stroke-width="0.398" fill="none" /><path id="411" transform="matrix(1 0 0 -1 0 792)" d="M677.019 557.674L1121.771 557.674" stroke="#000000" stroke-width="0.398" fill="none" /><path id="412" transform="matrix(1 0 0 -1 0 792)" d="M677.218 543.908L677.218 557.475" stroke="#000000" stroke-width="0.398" fill="none" /><path id="454" transform="matrix(1 0 0 -1 0 792)" d="M1006.371 543.908L1006.371 557.475" stroke="#000000" stroke-width="0.398" fill="none" /><path id="456" transform="matrix(1 0 0 -1 0 792)" d="M1121.572 543.908L1121.572 557.475" stroke="#000000" stroke-width="0.398" fill="none" /><path id="457" transform="matrix(1 0 0 -1 0 792)" d="M677.019 543.709L1121.771 543.709" stroke="#000000" stroke-width="0.398" fill="none" /><path id="458" transform="matrix(1 0 0 -1 0 792)" d="M677.019 543.709L1121.771 543.709" stroke="#000000" stroke-width="0.398" fill="none" /><path id="459" transform="matrix(1 0 0 -1 0 792)" d="M677.218 516.411L677.218 543.509" stroke="#000000" stroke-width="0.398" fill="none" /><path id="513" transform="matrix(1 0 0 -1 0 792)" d="M1006.371 516.411L1006.371 543.509" stroke="#000000" stroke-width="0.398" fill="none" /><path id="515" transform="matrix(1 0 0 -1 0 792)" d="M1121.572 516.411L1121.572 543.509" stroke="#000000" stroke-width="0.398" fill="none" /><path id="516" transform="matrix(1 0 0 -1 0 792)" d="M677.019 516.212L1121.771 516.212" stroke="#000000" stroke-width="0.398" fill="none" /><path id="517" transform="matrix(1 0 0 -1 0 792)" d="M677.019 516.212L1121.771 516.212" stroke="#000000" stroke-width="0.398" fill="none" /><path id="518" transform="matrix(1 0 0 -1 0 792)" d="M677.218 488.914L677.218 516.012" stroke="#000000" stroke-width="0.398" fill="none" /><path id="591" transform="matrix(1 0 0 -1 0 792)" d="M1006.371 488.914L1006.371 516.012" stroke="#000000" stroke-width="0.398" fill="none" /><path id="594" transform="matrix(1 0 0 -1 0 792)" d="M1121.572 488.914L1121.572 516.012" stroke="#000000" stroke-width="0.398" fill="none" /><path id="595" transform="matrix(1 0 0 -1 0 792)" d="M677.019 488.715L1121.771 488.715" stroke="#000000" stroke-width="0.398" fill="none" /><path id="596" transform="matrix(1 0 0 -1 0 792)" d="M677.019 488.715L1121.771 488.715" stroke="#000000" stroke-width="0.398" fill="none" /><path id="597" transform="matrix(1 0 0 -1 0 792)" d="M677.218 474.949L677.218 488.516" stroke="#000000" stroke-width="0.398" fill="none" /><path id="625" transform="matrix(1 0 0 -1 0 792)" d="M1006.371 474.949L1006.371 488.516" stroke="#000000" stroke-width="0.398" fill="none" /><path id="627" transform="matrix(1 0 0 -1 0 792)" d="M1121.572 474.949L1121.572 488.516" stroke="#000000" stroke-width="0.398" fill="none" /><path id="628" transform="matrix(1 0 0 -1 0 792)" d="M677.019 474.75L1121.771 474.75" stroke="#000000" stroke-width="0.398" fill="none" /><path id="629" transform="matrix(1 0 0 -1 0 792)" d="M677.019 474.75L1121.771 474.75" stroke="#000000" stroke-width="0.398" fill="none" /><path id="630" transform="matrix(1 0 0 -1 0 792)" d="M677.218 460.984L677.218 474.551" stroke="#000000" stroke-width="0.398" fill="none" /><path id="663" transform="matrix(1 0 0 -1 0 792)" d="M1006.371 460.984L1006.371 474.551" stroke="#000000" stroke-width="0.398" fill="none" /><path id="665" transform="matrix(1 0 0 -1 0 792)" d="M1121.572 460.984L1121.572 474.551" stroke="#000000" stroke-width="0.398" fill="none" /><path id="666" transform="matrix(1 0 0 -1 0 792)" d="M677.019 460.784L1121.771 460.784" stroke="#000000" stroke-width="0.398" fill="none" /><path id="667" transform="matrix(1 0 0 -1 0 792)" d="M677.019 460.784L1121.771 460.784" stroke="#000000" stroke-width="0.398" fill="none" /><path id="668" transform="matrix(1 0 0 -1 0 792)" d="M797.7469 338.244L800.736 338.244" stroke="#000000" stroke-width="0.398" fill="none" /><path id="669" transform="matrix(1 0 0 -1 0 792)" d="M693.34 409.926L1132.721 409.926L1132.721 409.926L1132.721 446.1697L1132.721 446.1697L693.34 446.1697z" stroke="#FFFFFF" stroke-width="1" fill="#FFFFFF" fill-rule="nonzero" /><path id="762" transform="matrix(1 0 0 -1 0 792)" d="M693.34 335.206L1132.725 335.206L1132.725 335.206L1132.725 407.3157L1132.725 407.3157L693.34 407.3157z" stroke="#FFFFFF" stroke-width="1" fill="#FFFFFF" fill-rule="nonzero" /><path id="1030" transform="matrix(1 0 0 -1 0 792)" d="M54.067 721.28L520.722 721.28" stroke="#000000" stroke-width="0.498" fill="none" /><path id="1031" transform="matrix(1 0 0 -1 0 792)" d="M65.019 696.423L509.771 696.423" stroke="#000000" stroke-width="0.398" fill="none" /><path id="1032" transform="matrix(1 0 0 -1 0 792)" d="M65.019 696.423L509.771 696.423" stroke="#000000" stroke-width="0.398" fill="none" /><path id="1033" transform="matrix(1 0 0 -1 0 792)" d="M65.218 682.658L65.218 696.225" stroke="#000000" stroke-width="0.398" fill="none" /><path id="1034" transform="matrix(1 0 0 -1 0 792)" d="M65.417 682.658L394.172 682.658L394.172 696.225L65.417 696.225z" stroke="none" fill="#CCCCEB" fill-rule="nonzero" /><path id="1044" transform="matrix(1 0 0 -1 0 792)" d="M394.371 682.658L394.371 696.225" stroke="#000000" stroke-width="0.398" fill="none" /><path id="1045" transform="matrix(1 0 0 -1 0 792)" d="M394.57 682.658L509.372 682.658L509.372 696.225L394.57 696.225z" stroke="none" fill="#CCCCEB" fill-rule="nonzero" /><path id="1052" transform="matrix(1 0 0 -1 0 792)" d="M509.572 682.658L509.572 696.225" stroke="#000000" stroke-width="0.398" fill="none" /><path id="1053" transform="matrix(1 0 0 -1 0 792)" d="M65.019 682.458L509.771 682.458" stroke="#000000" stroke-width="0.398" fill="none" /><path id="1054" transform="matrix(1 0 0 -1 0 792)" d="M65.019 682.458L509.771 682.458" stroke="#000000" stroke-width="0.398" fill="none" /><path id="1055" transform="matrix(1 0 0 -1 0 792)" d="M65.019 682.06L509.771 682.06" stroke="#000000" stroke-width="0.398" fill="none" /><path id="1056" transform="matrix(1 0 0 -1 0 792)" d="M65.019 682.06L509.771 682.06" stroke="#000000" stroke-width="0.398" fill="none" /><path id="1057" transform="matrix(1 0 0 -1 0 792)" d="M65.019 682.06L509.771 682.06" stroke="#000000" stroke-width="0.398" fill="none" /><path id="1058" transform="matrix(1 0 0 -1 0 792)" d="M65.218 654.762L65.218 681.86" stroke="#000000" stroke-width="0.398" fill="none" /><path id="1128" transform="matrix(1 0 0 -1 0 792)" d="M394.371 654.762L394.371 681.86" stroke="#000000" stroke-width="0.398" fill="none" /><path id="1130" transform="matrix(1 0 0 -1 0 792)" d="M509.572 654.762L509.572 681.86" stroke="#000000" stroke-width="0.398" fill="none" /><path id="1131" transform="matrix(1 0 0 -1 0 792)" d="M65.019 654.563L509.771 654.563" stroke="#000000" stroke-width="0.398" fill="none" /><path id="1132" transform="matrix(1 0 0 -1 0 792)" d="M65.019 654.563L509.771 654.563" stroke="#000000" stroke-width="0.398" fill="none" /><path id="1133" transform="matrix(1 0 0 -1 0 792)" d="M65.218 640.797L65.218 654.364" stroke="#000000" stroke-width="0.398" fill="none" /><path id="1183" transform="matrix(1 0 0 -1 0 792)" d="M394.371 640.797L394.371 654.364" stroke="#000000" stroke-width="0.398" fill="none" /><path id="1185" transform="matrix(1 0 0 -1 0 792)" d="M509.572 640.797L509.572 654.364" stroke="#000000" stroke-width="0.398" fill="none" /><path id="1186" transform="matrix(1 0 0 -1 0 792)" d="M65.019 640.598L509.771 640.598" stroke="#000000" stroke-width="0.398" fill="none" /><path id="1187" transform="matrix(1 0 0 -1 0 792)" d="M65.019 640.598L509.771 640.598" stroke="#000000" stroke-width="0.398" fill="none" /><path id="1188" transform="matrix(1 0 0 -1 0 792)" d="M65.218 626.832L65.218 640.399" stroke="#000000" stroke-width="0.398" fill="none" /><path id="1217" transform="matrix(1 0 0 -1 0 792)" d="M394.371 626.832L394.371 640.399" stroke="#000000" stroke-width="0.398" fill="none" /><path id="1219" transform="matrix(1 0 0 -1 0 792)" d="M509.572 626.832L509.572 640.399" stroke="#000000" stroke-width="0.398" fill="none" /><path id="1220" transform="matrix(1 0 0 -1 0 792)" d="M65.019 626.633L509.771 626.633" stroke="#000000" stroke-width="0.398" fill="none" /><path id="1221" transform="matrix(1 0 0 -1 0 792)" d="M65.019 626.633L509.771 626.633" stroke="#000000" stroke-width="0.398" fill="none" /><path id="1222" transform="matrix(1 0 0 -1 0 792)" d="M65.218 612.867L65.218 626.434" stroke="#000000" stroke-width="0.398" fill="none" /><path id="1250" transform="matrix(1 0 0 -1 0 792)" d="M394.371 612.867L394.371 626.434" stroke="#000000" stroke-width="0.398" fill="none" /><path id="1252" transform="matrix(1 0 0 -1 0 792)" d="M509.572 612.867L509.572 626.434" stroke="#000000" stroke-width="0.398" fill="none" /><path id="1253" transform="matrix(1 0 0 -1 0 792)" d="M65.019 612.667L509.771 612.667" stroke="#000000" stroke-width="0.398" fill="none" /><path id="1254" transform="matrix(1 0 0 -1 0 792)" d="M65.019 612.667L509.771 612.667" stroke="#000000" stroke-width="0.398" fill="none" /><path id="1255" transform="matrix(1 0 0 -1 0 792)" d="M65.218 585.37L65.218 612.468" stroke="#000000" stroke-width="0.398" fill="none" /><path id="1340" transform="matrix(1 0 0 -1 0 792)" d="M394.371 585.37L394.371 612.468" stroke="#000000" stroke-width="0.398" fill="none" /><path id="1342" transform="matrix(1 0 0 -1 0 792)" d="M509.572 585.37L509.572 612.468" stroke="#000000" stroke-width="0.398" fill="none" /><path id="1343" transform="matrix(1 0 0 -1 0 792)" d="M65.019 585.171L509.771 585.171" stroke="#000000" stroke-width="0.398" fill="none" /><path id="1344" transform="matrix(1 0 0 -1 0 792)" d="M65.019 585.171L509.771 585.171" stroke="#000000" stroke-width="0.398" fill="none" /><path id="1345" transform="matrix(1 0 0 -1 0 792)" d="M65.218 557.873L65.218 584.971" stroke="#000000" stroke-width="0.398" fill="none" /><path id="1419" transform="matrix(1 0 0 -1 0 792)" d="M394.371 557.873L394.371 584.971" stroke="#000000" stroke-width="0.398" fill="none" /><path id="1421" transform="matrix(1 0 0 -1 0 792)" d="M509.572 557.873L509.572 584.971" stroke="#000000" stroke-width="0.398" fill="none" /><path id="1422" transform="matrix(1 0 0 -1 0 792)" d="M65.019 557.674L509.771 557.674" stroke="#000000" stroke-width="0.398" fill="none" /><path id="1423" transform="matrix(1 0 0 -1 0 792)" d="M65.019 557.674L509.771 557.674" stroke="#000000" stroke-width="0.398" fill="none" /><path id="1424" transform="matrix(1 0 0 -1 0 792)" d="M65.218 543.908L65.218 557.475" stroke="#000000" stroke-width="0.398" fill="none" /><path id="1466" transform="matrix(1 0 0 -1 0 792)" d="M394.371 543.908L394.371 557.475" stroke="#000000" stroke-width="0.398" fill="none" /><path id="1468" transform="matrix(1 0 0 -1 0 792)" d="M509.572 543.908L509.572 557.475" stroke="#000000" stroke-width="0.398" fill="none" /><path id="1469" transform="matrix(1 0 0 -1 0 792)" d="M65.019 543.709L509.771 543.709" stroke="#000000" stroke-width="0.398" fill="none" /><path id="1470" transform="matrix(1 0 0 -1 0 792)" d="M65.019 543.709L509.771 543.709" stroke="#000000" stroke-width="0.398" fill="none" /><path id="1471" transform="matrix(1 0 0 -1 0 792)" d="M65.218 516.411L65.218 543.509" stroke="#000000" stroke-width="0.398" fill="none" /><path id="1525" transform="matrix(1 0 0 -1 0 792)" d="M394.371 516.411L394.371 543.509" stroke="#000000" stroke-width="0.398" fill="none" /><path id="1527" transform="matrix(1 0 0 -1 0 792)" d="M509.572 516.411L509.572 543.509" stroke="#000000" stroke-width="0.398" fill="none" /><path id="1528" transform="matrix(1 0 0 -1 0 792)" d="M65.019 516.212L509.771 516.212" stroke="#000000" stroke-width="0.398" fill="none" /><path id="1529" transform="matrix(1 0 0 -1 0 792)" d="M65.019 516.212L509.771 516.212" stroke="#000000" stroke-width="0.398" fill="none" /><path id="1530" transform="matrix(1 0 0 -1 0 792)" d="M65.218 488.914L65.218 516.012" stroke="#000000" stroke-width="0.398" fill="none" /><path id="1603" transform="matrix(1 0 0 -1 0 792)" d="M394.371 488.914L394.371 516.012" stroke="#000000" stroke-width="0.398" fill="none" /><path id="1606" transform="matrix(1 0 0 -1 0 792)" d="M509.572 488.914L509.572 516.012" stroke="#000000" stroke-width="0.398" fill="none" /><path id="1607" transform="matrix(1 0 0 -1 0 792)" d="M65.019 488.715L509.771 488.715" stroke="#000000" stroke-width="0.398" fill="none" /><path id="1608" transform="matrix(1 0 0 -1 0 792)" d="M65.019 488.715L509.771 488.715" stroke="#000000" stroke-width="0.398" fill="none" /><path id="1609" transform="matrix(1 0 0 -1 0 792)" d="M65.218 474.949L65.218 488.516" stroke="#000000" stroke-width="0.398" fill="none" /><path id="1637" transform="matrix(1 0 0 -1 0 792)" d="M394.371 474.949L394.371 488.516" stroke="#000000" stroke-width="0.398" fill="none" /><path id="1639" transform="matrix(1 0 0 -1 0 792)" d="M509.572 474.949L509.572 488.516" stroke="#000000" stroke-width="0.398" fill="none" /><path id="1640" transform="matrix(1 0 0 -1 0 792)" d="M65.019 474.75L509.771 474.75" stroke="#000000" stroke-width="0.398" fill="none" /><path id="1641" transform="matrix(1 0 0 -1 0 792)" d="M65.019 474.75L509.771 474.75" stroke="#000000" stroke-width="0.398" fill="none" /><path id="1642" transform="matrix(1 0 0 -1 0 792)" d="M65.218 460.984L65.218 474.551" stroke="#000000" stroke-width="0.398" fill="none" /><path id="1675" transform="matrix(1 0 0 -1 0 792)" d="M394.371 460.984L394.371 474.551" stroke="#000000" stroke-width="0.398" fill="none" /><path id="1677" transform="matrix(1 0 0 -1 0 792)" d="M509.572 460.984L509.572 474.551" stroke="#000000" stroke-width="0.398" fill="none" /><path id="1678" transform="matrix(1 0 0 -1 0 792)" d="M65.019 460.784L509.771 460.784" stroke="#000000" stroke-width="0.398" fill="none" /><path id="1679" transform="matrix(1 0 0 -1 0 792)" d="M65.019 460.784L509.771 460.784" stroke="#000000" stroke-width="0.398" fill="none" /><path id="2299" transform="matrix(1 0 0 -1 0 792)" d="M185.747 338.244L188.736 338.244" stroke="#000000" stroke-width="0.398" fill="none" /></g></g></svg>