<svg xmlns="http://www.w3.org/2000/svg" xmlns:xlink="http://www.w3.org/1999/xlink" id="body_32" preserveAspectRatio="xMinYMin meet" viewBox="0 0 1632 1056"><defs><clipPath id="1"><path id="" clip-rule="evenodd" transform="matrix(1 0 0 1 0 0)" d="M0 792L0 0L0 0L1224 0L1224 0L1224 792L1224 792L0 792z" /></clipPath></defs><g transform="matrix(1.333333 0 0 1.333333 0 0)"><g clip-path="url(#1)"><path id="16" transform="matrix(1 0 0 -1 0 792)" d="M666.067 721.28L1132.722 721.28" stroke="#000000" stroke-width="0.498" fill="none" /><path id="35" transform="matrix(1 0 0 -1 0 792)" d="M706.929 572.804L1091.86 572.804" stroke="#000000" stroke-width="0.398" fill="none" /><path id="36" transform="matrix(1 0 0 -1 0 792)" d="M706.929 572.804L1091.86 572.804" stroke="#000000" stroke-width="0.398" fill="none" /><path id="37" transform="matrix(1 0 0 -1 0 792)" d="M707.129 559.038L707.129 572.605" stroke="#000000" stroke-width="0.398" fill="none" /><path id="38" transform="matrix(1 0 0 -1 0 792)" d="M707.328 559.038L1036.083 559.038L1036.083 572.605L707.328 572.605z" stroke="none" fill="#CCCCEB" fill-rule="nonzero" /><path id="48" transform="matrix(1 0 0 -1 0 792)" d="M1036.282 559.038L1036.282 572.605" stroke="#000000" stroke-width="0.398" fill="none" /><path id="49" transform="matrix(1 0 0 -1 0 792)" d="M1036.481 559.038L1091.461 559.038L1091.461 572.605L1036.481 572.605z" stroke="none" fill="#CCCCEB" fill-rule="nonzero" /><path id="56" transform="matrix(1 0 0 -1 0 792)" d="M1091.661 559.038L1091.661 572.605" stroke="#000000" stroke-width="0.398" fill="none" /><path id="57" transform="matrix(1 0 0 -1 0 792)" d="M706.929 558.839L1091.86 558.839" stroke="#000000" stroke-width="0.398" fill="none" /><path id="58" transform="matrix(1 0 0 -1 0 792)" d="M706.929 558.839L1091.86 558.839" stroke="#000000" stroke-width="0.398" fill="none" /><path id="59" transform="matrix(1 0 0 -1 0 792)" d="M706.929 558.44L1091.86 558.44" stroke="#000000" stroke-width="0.398" fill="none" /><path id="60" transform="matrix(1 0 0 -1 0 792)" d="M706.929 558.44L1091.86 558.44" stroke="#000000" stroke-width="0.398" fill="none" /><path id="61" transform="matrix(1 0 0 -1 0 792)" d="M707.129 544.674L707.129 558.241" stroke="#000000" stroke-width="0.398" fill="none" /><path id="91" transform="matrix(1 0 0 -1 0 792)" d="M1036.282 544.674L1036.282 558.241" stroke="#000000" stroke-width="0.398" fill="none" /><path id="93" transform="matrix(1 0 0 -1 0 792)" d="M1091.661 544.674L1091.661 558.241" stroke="#000000" stroke-width="0.398" fill="none" /><path id="94" transform="matrix(1 0 0 -1 0 792)" d="M706.929 544.475L1091.86 544.475" stroke="#000000" stroke-width="0.398" fill="none" /><path id="95" transform="matrix(1 0 0 -1 0 792)" d="M706.929 544.475L1091.86 544.475" stroke="#000000" stroke-width="0.398" fill="none" /><path id="96" transform="matrix(1 0 0 -1 0 792)" d="M707.129 530.709L707.129 544.276" stroke="#000000" stroke-width="0.398" fill="none" /><path id="126" transform="matrix(1 0 0 -1 0 792)" d="M1036.282 530.709L1036.282 544.276" stroke="#000000" stroke-width="0.398" fill="none" /><path id="128" transform="matrix(1 0 0 -1 0 792)" d="M1091.661 530.709L1091.661 544.276" stroke="#000000" stroke-width="0.398" fill="none" /><path id="129" transform="matrix(1 0 0 -1 0 792)" d="M706.929 530.51L1091.86 530.51" stroke="#000000" stroke-width="0.398" fill="none" /><path id="130" transform="matrix(1 0 0 -1 0 792)" d="M706.929 530.51L1091.86 530.51" stroke="#000000" stroke-width="0.398" fill="none" /><path id="131" transform="matrix(1 0 0 -1 0 792)" d="M707.129 516.744L707.129 530.311" stroke="#000000" stroke-width="0.398" fill="none" /><path id="155" transform="matrix(1 0 0 -1 0 792)" d="M1036.282 516.744L1036.282 530.311" stroke="#000000" stroke-width="0.398" fill="none" /><path id="157" transform="matrix(1 0 0 -1 0 792)" d="M1091.661 516.744L1091.661 530.311" stroke="#000000" stroke-width="0.398" fill="none" /><path id="158" transform="matrix(1 0 0 -1 0 792)" d="M706.929 516.545L1091.86 516.545" stroke="#000000" stroke-width="0.398" fill="none" /><path id="159" transform="matrix(1 0 0 -1 0 792)" d="M706.929 516.545L1091.86 516.545" stroke="#000000" stroke-width="0.398" fill="none" /><path id="179" transform="matrix(1 0 0 -1 0 792)" d="M666.067 657.759L1069.212 657.759L1069.212 657.759L1069.212 670.9045L1069.212 670.9045L666.067 670.9045z" stroke="#FFFFFF" stroke-width="1" fill="#FFFFFF" fill-rule="nonzero" /><path id="205" transform="matrix(1 0 0 -1 0 792)" d="M666.067 584.255L1132.721 584.255L1132.721 584.255L1132.721 610.9495L1132.721 610.9495L666.067 610.9495z" stroke="#FFFFFF" stroke-width="1" fill="#FFFFFF" fill-rule="nonzero" /><path id="232" transform="matrix(1 0 0 -1 0 792)" d="M666.067 439.777L1132.725 439.777L1132.725 439.777L1132.725 466.4715L1132.725 466.4715L666.067 466.4715z" stroke="#FFFFFF" stroke-width="1" fill="#FFFFFF" fill-rule="nonzero" /><path id="271" transform="matrix(1 0 0 -1 0 792)" d="M682.431 406.864L969.798 406.864L969.798 406.864L969.798 427.4168L969.798 427.4168L682.431 427.4168z" stroke="#FFFFFF" stroke-width="1" fill="#FFFFFF" fill-rule="nonzero" /><path id="285" transform="matrix(1 0 0 -1 0 792)" d="M682.431 384.349L841.791 384.349L841.791 384.349L841.791 404.9018L841.791 404.9018L682.431 404.9018z" stroke="#FFFFFF" stroke-width="1" fill="#FFFFFF" fill-rule="nonzero" /><path id="296" transform="matrix(1 0 0 -1 0 792)" d="M682.431 361.833L803.347 361.833L803.347 361.833L803.347 382.3858L803.347 382.3858L682.431 382.3858z" stroke="#FFFFFF" stroke-width="1" fill="#FFFFFF" fill-rule="nonzero" /><path id="305" transform="matrix(1 0 0 -1 0 792)" d="M682.431 339.317L774.3946 339.317L774.3946 339.317L774.3946 359.8698L774.3946 359.8698L682.431 359.8698z" stroke="#FFFFFF" stroke-width="1" fill="#FFFFFF" fill-rule="nonzero" /><path id="311" transform="matrix(1 0 0 -1 0 792)" d="M683.004 321.221L1132.721 321.221L1132.721 321.221L1132.721 334.3665L1132.721 334.3665L683.004 334.3665z" stroke="#FFFFFF" stroke-width="1" fill="#FFFFFF" fill-rule="nonzero" /><path id="342" transform="matrix(1 0 0 -1 0 792)" d="M666.067 294.123L1132.725 294.123L1132.725 294.123L1132.725 320.8175L1132.725 320.8175L666.067 320.8175z" stroke="#FFFFFF" stroke-width="1" fill="#FFFFFF" fill-rule="nonzero" /><path id="440" transform="matrix(1 0 0 -1 0 792)" d="M54.067 721.28L520.722 721.28" stroke="#000000" stroke-width="0.498" fill="none" /><path id="629" transform="matrix(1 0 0 -1 0 792)" d="M94.929 572.804L479.86 572.804" stroke="#000000" stroke-width="0.398" fill="none" /><path id="630" transform="matrix(1 0 0 -1 0 792)" d="M94.929 572.804L479.86 572.804" stroke="#000000" stroke-width="0.398" fill="none" /><path id="631" transform="matrix(1 0 0 -1 0 792)" d="M95.129 559.038L95.129 572.605" stroke="#000000" stroke-width="0.398" fill="none" /><path id="632" transform="matrix(1 0 0 -1 0 792)" d="M95.328 559.038L424.083 559.038L424.083 572.605L95.328 572.605z" stroke="none" fill="#CCCCEB" fill-rule="nonzero" /><path id="642" transform="matrix(1 0 0 -1 0 792)" d="M424.282 559.038L424.282 572.605" stroke="#000000" stroke-width="0.398" fill="none" /><path id="643" transform="matrix(1 0 0 -1 0 792)" d="M424.481 559.038L479.461 559.038L479.461 572.605L424.481 572.605z" stroke="none" fill="#CCCCEB" fill-rule="nonzero" /><path id="650" transform="matrix(1 0 0 -1 0 792)" d="M479.661 559.038L479.661 572.605" stroke="#000000" stroke-width="0.398" fill="none" /><path id="651" transform="matrix(1 0 0 -1 0 792)" d="M94.929 558.839L479.86 558.839" stroke="#000000" stroke-width="0.398" fill="none" /><path id="652" transform="matrix(1 0 0 -1 0 792)" d="M94.929 558.839L479.86 558.839" stroke="#000000" stroke-width="0.398" fill="none" /><path id="653" transform="matrix(1 0 0 -1 0 792)" d="M94.929 558.44L479.86 558.44" stroke="#000000" stroke-width="0.398" fill="none" /><path id="654" transform="matrix(1 0 0 -1 0 792)" d="M94.929 558.44L479.86 558.44" stroke="#000000" stroke-width="0.398" fill="none" /><path id="655" transform="matrix(1 0 0 -1 0 792)" d="M95.129 544.674L95.129 558.241" stroke="#000000" stroke-width="0.398" fill="none" /><path id="685" transform="matrix(1 0 0 -1 0 792)" d="M424.282 544.674L424.282 558.241" stroke="#000000" stroke-width="0.398" fill="none" /><path id="687" transform="matrix(1 0 0 -1 0 792)" d="M479.661 544.674L479.661 558.241" stroke="#000000" stroke-width="0.398" fill="none" /><path id="688" transform="matrix(1 0 0 -1 0 792)" d="M94.929 544.475L479.86 544.475" stroke="#000000" stroke-width="0.398" fill="none" /><path id="689" transform="matrix(1 0 0 -1 0 792)" d="M94.929 544.475L479.86 544.475" stroke="#000000" stroke-width="0.398" fill="none" /><path id="690" transform="matrix(1 0 0 -1 0 792)" d="M95.129 530.709L95.129 544.276" stroke="#000000" stroke-width="0.398" fill="none" /><path id="720" transform="matrix(1 0 0 -1 0 792)" d="M424.282 530.709L424.282 544.276" stroke="#000000" stroke-width="0.398" fill="none" /><path id="722" transform="matrix(1 0 0 -1 0 792)" d="M479.661 530.709L479.661 544.276" stroke="#000000" stroke-width="0.398" fill="none" /><path id="723" transform="matrix(1 0 0 -1 0 792)" d="M94.929 530.51L479.86 530.51" stroke="#000000" stroke-width="0.398" fill="none" /><path id="724" transform="matrix(1 0 0 -1 0 792)" d="M94.929 530.51L479.86 530.51" stroke="#000000" stroke-width="0.398" fill="none" /><path id="725" transform="matrix(1 0 0 -1 0 792)" d="M95.129 516.744L95.129 530.311" stroke="#000000" stroke-width="0.398" fill="none" /><path id="749" transform="matrix(1 0 0 -1 0 792)" d="M424.282 516.744L424.282 530.311" stroke="#000000" stroke-width="0.398" fill="none" /><path id="751" transform="matrix(1 0 0 -1 0 792)" d="M479.661 516.744L479.661 530.311" stroke="#000000" stroke-width="0.398" fill="none" /><path id="752" transform="matrix(1 0 0 -1 0 792)" d="M94.929 516.545L479.86 516.545" stroke="#000000" stroke-width="0.398" fill="none" /><path id="753" transform="matrix(1 0 0 -1 0 792)" d="M94.929 516.545L479.86 516.545" stroke="#000000" stroke-width="0.398" fill="none" /></g></g></svg>