<svg xmlns="http://www.w3.org/2000/svg" xmlns:xlink="http://www.w3.org/1999/xlink" id="body_16" preserveAspectRatio="xMinYMin meet" viewBox="0 0 1632 1056"><defs><clipPath id="1"><path id="" clip-rule="evenodd" transform="matrix(1 0 0 1 0 0)" d="M0 792L0 0L0 0L1224 0L1224 0L1224 792L1224 792L0 792z" /></clipPath></defs><g transform="matrix(1.333333 0 0 1.333333 0 0)"><g clip-path="url(#1)"><path id="18" transform="matrix(1 0 0 -1 0 792)" d="M666.067 721.28L1132.722 721.28" stroke="#000000" stroke-width="0.498" fill="none" /><path id="19" transform="matrix(1 0 0 -1 0 792)" d="M727.1819 685.863L730.171 685.863" stroke="#000000" stroke-width="0.398" fill="none" /><path id="20" transform="matrix(1 0 0 -1 0 792)" d="M785.307 685.863L788.296 685.863" stroke="#000000" stroke-width="0.398" fill="none" /><path id="21" transform="matrix(1 0 0 -1 0 792)" d="M849.41 685.863L852.399 685.863" stroke="#000000" stroke-width="0.398" fill="none" /><path id="22" transform="matrix(1 0 0 -1 0 792)" d="M911.908 685.863L914.897 685.863" stroke="#000000" stroke-width="0.398" fill="none" /><path id="89" transform="matrix(1 0 0 -1 0 792)" d="M793.185 432.428L796.174 432.428" stroke="#000000" stroke-width="0.398" fill="none" /><path id="90" transform="matrix(1 0 0 -1 0 792)" d="M783.415 418.879L786.404 418.879" stroke="#000000" stroke-width="0.398" fill="none" /><path id="91" transform="matrix(1 0 0 -1 0 792)" d="M996.924 418.879L999.913 418.879" stroke="#000000" stroke-width="0.398" fill="none" /><path id="204" transform="matrix(1 0 0 -1 0 792)" d="M1035.311 230.886L1038.3 230.886" stroke="#000000" stroke-width="0.398" fill="none" /><path id="205" transform="matrix(1 0 0 -1 0 792)" d="M955.975 217.337L958.964 217.337" stroke="#000000" stroke-width="0.398" fill="none" /><path id="206" transform="matrix(1 0 0 -1 0 792)" d="M782.5099 142.391L785.499 142.391" stroke="#000000" stroke-width="0.398" fill="none" /><path id="207" transform="matrix(1 0 0 -1 0 792)" d="M821.962 142.391L824.951 142.391" stroke="#000000" stroke-width="0.398" fill="none" /><path id="208" transform="matrix(1 0 0 -1 0 792)" d="M861.414 142.391L864.403 142.391" stroke="#000000" stroke-width="0.398" fill="none" /><path id="209" transform="matrix(1 0 0 -1 0 792)" d="M965.369 142.391L968.358 142.391" stroke="#000000" stroke-width="0.398" fill="none" /><path id="210" transform="matrix(1 0 0 -1 0 792)" d="M1004.821 142.391L1007.81 142.391" stroke="#000000" stroke-width="0.398" fill="none" /><path id="211" transform="matrix(1 0 0 -1 0 792)" d="M666.067 655.5L1132.725 655.5L1132.725 655.5L1132.725 695.7445L1132.725 695.7445L666.067 695.7445z" stroke="#FFFFFF" stroke-width="1" fill="#FFFFFF" fill-rule="nonzero" /><path id="301" transform="matrix(1 0 0 -1 0 792)" d="M666.0671 559.687L1132.722 559.687L1132.722 559.687L1132.722 599.9305L1132.722 599.9305L666.0671 599.9305z" stroke="#FFFFFF" stroke-width="1" fill="#FFFFFF" fill-rule="nonzero" /><path id="387" transform="matrix(1 0 0 -1 0 792)" d="M666.0671 475.953L1132.727 475.953L1132.727 475.953L1132.727 523.6915L1132.727 523.6915L666.0671 523.6915z" stroke="#FFFFFF" stroke-width="1" fill="#FFFFFF" fill-rule="nonzero" /><path id="500" transform="matrix(1 0 0 -1 0 792)" d="M683.0041 469.811L1132.722 469.811L1132.722 469.811L1132.722 482.9565L1132.722 482.9565L683.0041 482.9565z" stroke="#FFFFFF" stroke-width="1" fill="#FFFFFF" fill-rule="nonzero" /><path id="522" transform="matrix(1 0 0 -1 0 792)" d="M666.0671 456.262L1053.274 456.262L1053.274 456.262L1053.274 469.4075L1053.274 469.4075L666.0671 469.4075z" stroke="#FFFFFF" stroke-width="1" fill="#FFFFFF" fill-rule="nonzero" /><path id="558" transform="matrix(1 0 0 -1 0 792)" d="M683.0041 442.381L1132.723 442.381L1132.723 442.381L1132.723 455.8583L1132.723 455.8583L683.0041 455.8583z" stroke="#FFFFFF" stroke-width="1" fill="#FFFFFF" fill-rule="nonzero" /><path id="602" transform="matrix(1 0 0 -1 0 792)" d="M666.0671 429.164L1070.226 429.164L1070.226 429.164L1070.226 442.3095L1070.226 442.3095L666.0671 442.3095z" stroke="#FFFFFF" stroke-width="1" fill="#FFFFFF" fill-rule="nonzero" /><path id="658" transform="matrix(1 0 0 -1 0 792)" d="M683.004 415.615L1111.572 415.615L1111.572 415.615L1111.572 428.7605L1111.572 428.7605L683.004 428.7605z" stroke="#FFFFFF" stroke-width="1" fill="#FFFFFF" fill-rule="nonzero" /><path id="706" transform="matrix(1 0 0 -1 0 792)" d="M666.067 364.644L1006.096 364.644L1006.096 364.644L1006.096 378.1213L1006.096 378.1213L666.067 378.1213z" stroke="#FFFFFF" stroke-width="1" fill="#FFFFFF" fill-rule="nonzero" /><path id="739" transform="matrix(1 0 0 -1 0 792)" d="M666.067 254.721L1132.726 254.721L1132.726 254.721L1132.726 322.0625L1132.726 322.0625L666.067 322.0625z" stroke="#FFFFFF" stroke-width="1" fill="#FFFFFF" fill-rule="nonzero" /><path id="887" transform="matrix(1 0 0 -1 0 792)" d="M683.004 241.171L1132.72 241.171L1132.72 241.171L1132.72 254.3165L1132.72 254.3165L683.004 254.3165z" stroke="#FFFFFF" stroke-width="1" fill="#FFFFFF" fill-rule="nonzero" /><path id="915" transform="matrix(1 0 0 -1 0 792)" d="M666.067 159.876L1132.728 159.876L1132.728 159.876L1132.728 240.7674L1132.728 240.7674L666.067 240.7674z" stroke="#FFFFFF" stroke-width="1" fill="#FFFFFF" fill-rule="nonzero" /><path id="1126" transform="matrix(1 0 0 -1 0 792)" d="M683.004 139.126L1132.721 139.126L1132.721 139.126L1132.721 152.2725L1132.721 152.2725L683.004 152.2725z" stroke="#FFFFFF" stroke-width="1" fill="#FFFFFF" fill-rule="nonzero" /><path id="1176" transform="matrix(1 0 0 -1 0 792)" d="M666.067 112.028L1132.726 112.028L1132.726 112.028L1132.726 138.7224L1132.726 138.7224L666.067 138.7224z" stroke="#FFFFFF" stroke-width="1" fill="#FFFFFF" fill-rule="nonzero" /><path id="1211" transform="matrix(1 0 0 -1 0 792)" d="M683.004 91.2776L1132.721 91.2776L1132.721 91.2776L1132.721 104.4231L1132.721 104.4231L683.004 104.4231z" stroke="#FFFFFF" stroke-width="1" fill="#FFFFFF" fill-rule="nonzero" /><path id="1244" transform="matrix(1 0 0 -1 0 792)" d="M666.067 63.8478L1132.725 63.8478L1132.725 63.8478L1132.725 90.8741L1132.725 90.8741L666.067 90.8741z" stroke="#FFFFFF" stroke-width="1" fill="#FFFFFF" fill-rule="nonzero" /><path id="1347" transform="matrix(1 0 0 -1 0 792)" d="M54.067 721.28L520.722 721.28" stroke="#000000" stroke-width="0.498" fill="none" /><path id="1358" transform="matrix(1 0 0 -1 0 792)" d="M115.182 685.863L118.171 685.863" stroke="#000000" stroke-width="0.398" fill="none" /><path id="1368" transform="matrix(1 0 0 -1 0 792)" d="M173.307 685.863L176.296 685.863" stroke="#000000" stroke-width="0.398" fill="none" /><path id="1379" transform="matrix(1 0 0 -1 0 792)" d="M237.41 685.863L240.399 685.863" stroke="#000000" stroke-width="0.398" fill="none" /><path id="1389" transform="matrix(1 0 0 -1 0 792)" d="M299.908 685.863L302.897 685.863" stroke="#000000" stroke-width="0.398" fill="none" /><path id="2366" transform="matrix(1 0 0 -1 0 792)" d="M181.185 432.428L184.174 432.428" stroke="#000000" stroke-width="0.398" fill="none" /><path id="2439" transform="matrix(1 0 0 -1 0 792)" d="M171.415 418.879L174.404 418.879" stroke="#000000" stroke-width="0.398" fill="none" /><path id="2477" transform="matrix(1 0 0 -1 0 792)" d="M384.924 418.879L387.913 418.879" stroke="#000000" stroke-width="0.398" fill="none" /><path id="3190" transform="matrix(1 0 0 -1 0 792)" d="M423.311 230.886L426.3 230.886" stroke="#000000" stroke-width="0.398" fill="none" /><path id="3264" transform="matrix(1 0 0 -1 0 792)" d="M343.975 217.337L346.964 217.337" stroke="#000000" stroke-width="0.398" fill="none" /><path id="3609" transform="matrix(1 0 0 -1 0 792)" d="M170.51 142.391L173.499 142.391" stroke="#000000" stroke-width="0.398" fill="none" /><path id="3616" transform="matrix(1 0 0 -1 0 792)" d="M209.962 142.391L212.951 142.391" stroke="#000000" stroke-width="0.398" fill="none" /><path id="3623" transform="matrix(1 0 0 -1 0 792)" d="M249.414 142.391L252.403 142.391" stroke="#000000" stroke-width="0.398" fill="none" /><path id="3640" transform="matrix(1 0 0 -1 0 792)" d="M353.369 142.391L356.358 142.391" stroke="#000000" stroke-width="0.398" fill="none" /><path id="3647" transform="matrix(1 0 0 -1 0 792)" d="M392.821 142.391L395.81 142.391" stroke="#000000" stroke-width="0.398" fill="none" /></g></g></svg>