<svg xmlns="http://www.w3.org/2000/svg" xmlns:xlink="http://www.w3.org/1999/xlink" id="body_33" preserveAspectRatio="xMinYMin meet" viewBox="0 0 1632 1056"><defs><clipPath id="1"><path id="" clip-rule="evenodd" transform="matrix(1 0 0 1 0 0)" d="M0 792L0 0L0 0L1224 0L1224 0L1224 792L1224 792L0 792z" /></clipPath></defs><g transform="matrix(1.333333 0 0 1.333333 0 0)"><g clip-path="url(#1)"><path id="9" transform="matrix(1 0 0 -1 0 792)" d="M857.74 193.29L860.729 193.29" stroke="#000000" stroke-width="0.398" fill="none" /><path id="10" transform="matrix(1 0 0 -1 0 792)" d="M1160.966 193.29L1163.955 193.29" stroke="#000000" stroke-width="0.398" fill="none" /><path id="11" transform="matrix(1 0 0 -1 0 792)" d="M824.14 179.74L827.129 179.74" stroke="#000000" stroke-width="0.398" fill="none" /><path id="14" transform="matrix(1 0 0 -1 0 792)" d="M701.933 514.986L1060.578 514.986L1060.578 514.986L1060.578 577.122L1060.578 577.122L701.933 577.122z" stroke="#FFFFFF" stroke-width="1" fill="#FFFFFF" fill-rule="nonzero" /><path id="25" transform="matrix(1 0 0 -1 0 792)" d="M701.933 422.422L1168.591 422.422L1168.591 422.422L1168.591 476.2145L1168.591 476.2145L701.933 476.2145z" stroke="#FFFFFF" stroke-width="1" fill="#FFFFFF" fill-rule="nonzero" /><path id="135" transform="matrix(1 0 0 -1 0 792)" d="M718.869 404.97L1168.586 404.97L1168.586 404.97L1168.586 418.1155L1168.586 418.1155L718.869 418.1155z" stroke="#FFFFFF" stroke-width="1" fill="#FFFFFF" fill-rule="nonzero" /><path id="162" transform="matrix(1 0 0 -1 0 792)" d="M701.933 391.421L1168.591 391.421L1168.591 391.421L1168.591 404.5665L1168.591 404.5665L701.933 404.5665z" stroke="#FFFFFF" stroke-width="1" fill="#FFFFFF" fill-rule="nonzero" /><path id="201" transform="matrix(1 0 0 -1 0 792)" d="M701.933 364.322L1168.591 364.322L1168.591 364.322L1168.591 391.0175L1168.591 391.0175L701.933 391.0175z" stroke="#FFFFFF" stroke-width="1" fill="#FFFFFF" fill-rule="nonzero" /><path id="269" transform="matrix(1 0 0 -1 0 792)" d="M718.869 346.871L1168.585 346.871L1168.585 346.871L1168.585 360.0165L1168.585 360.0165L718.869 360.0165z" stroke="#FFFFFF" stroke-width="1" fill="#FFFFFF" fill-rule="nonzero" /><path id="301" transform="matrix(1 0 0 -1 0 792)" d="M701.933 292.674L1168.591 292.674L1168.591 292.674L1168.591 346.4675L1168.591 346.4675L701.933 346.4675z" stroke="#FFFFFF" stroke-width="1" fill="#FFFFFF" fill-rule="nonzero" /><path id="419" transform="matrix(1 0 0 -1 0 792)" d="M718.869 275.223L1168.586 275.223L1168.586 275.223L1168.586 288.3685L1168.586 288.3685L718.869 288.3685z" stroke="#FFFFFF" stroke-width="1" fill="#FFFFFF" fill-rule="nonzero" /><path id="449" transform="matrix(1 0 0 -1 0 792)" d="M701.933 234.576L1168.591 234.576L1168.591 234.576L1168.591 274.8194L1168.591 274.8194L701.933 274.8194z" stroke="#FFFFFF" stroke-width="1" fill="#FFFFFF" fill-rule="nonzero" /><path id="537" transform="matrix(1 0 0 -1 0 792)" d="M718.869 217.124L1168.586 217.124L1168.586 217.124L1168.586 230.2695L1168.586 230.2695L718.869 230.2695z" stroke="#FFFFFF" stroke-width="1" fill="#FFFFFF" fill-rule="nonzero" /><path id="565" transform="matrix(1 0 0 -1 0 792)" d="M701.933 135.829L1169.933 135.829L1169.933 135.829L1169.933 216.7204L1169.933 216.7204L701.933 216.7204z" stroke="#FFFFFF" stroke-width="1" fill="#FFFFFF" fill-rule="nonzero" /><path id="795" transform="matrix(1 0 0 -1 0 792)" d="M718.869 118.377L1168.586 118.377L1168.586 118.377L1168.586 131.5225L1168.586 131.5225L718.869 131.5225z" stroke="#FFFFFF" stroke-width="1" fill="#FFFFFF" fill-rule="nonzero" /><path id="825" transform="matrix(1 0 0 -1 0 792)" d="M701.933 64.1796L1168.591 64.1796L1168.591 64.1796L1168.591 117.973L1168.591 117.973L701.933 117.973z" stroke="#FFFFFF" stroke-width="1" fill="#FFFFFF" fill-rule="nonzero" /><path id="2665" transform="matrix(1 0 0 -1 0 792)" d="M245.74 193.29L248.729 193.29" stroke="#000000" stroke-width="0.398" fill="none" /><path id="2721" transform="matrix(1 0 0 -1 0 792)" d="M548.966 193.29L551.955 193.29" stroke="#000000" stroke-width="0.398" fill="none" /><path id="2743" transform="matrix(1 0 0 -1 0 792)" d="M212.14 179.74L215.129 179.74" stroke="#000000" stroke-width="0.398" fill="none" /></g></g></svg>