<svg xmlns="http://www.w3.org/2000/svg" xmlns:xlink="http://www.w3.org/1999/xlink" id="body_6" preserveAspectRatio="xMinYMin meet" viewBox="0 0 1632 1056"><defs><clipPath id="1"><path id="" clip-rule="evenodd" transform="matrix(1 0 0 1 0 0)" d="M0 792L0 0L0 0L1224 0L1224 0L1224 792L1224 792L0 792z" /></clipPath></defs><g transform="matrix(1.333333 0 0 1.333333 0 0)"><g clip-path="url(#1)"><path id="45" transform="matrix(1 0 0 -1 0 792)" d="M930.022 244.464L933.011 244.464" stroke="#000000" stroke-width="0.398" fill="none" /><path id="47" transform="matrix(1 0 0 -1 0 792)" d="M666.067 462.698L1132.725 462.698L1132.725 462.698L1132.725 516.4905L1132.725 516.4905L666.067 516.4905z" stroke="#FFFFFF" stroke-width="1" fill="#FFFFFF" fill-rule="nonzero" /><path id="143" transform="matrix(1 0 0 -1 0 792)" d="M693.34 368.51L1132.724 368.51L1132.724 368.51L1132.724 452.5746L1132.724 452.5746L693.34 452.5746z" stroke="#FFFFFF" stroke-width="1" fill="#FFFFFF" fill-rule="nonzero" /><path id="373" transform="matrix(1 0 0 -1 0 792)" d="M693.34 304.865L1132.721 304.865L1132.721 304.865L1132.721 365.0187L1132.721 365.0187L693.34 365.0187z" stroke="#FFFFFF" stroke-width="1" fill="#FFFFFF" fill-rule="nonzero" /><path id="498" transform="matrix(1 0 0 -1 0 792)" d="M666.067 173.454L1132.725 173.454L1132.725 173.454L1132.725 254.3455L1132.725 254.3455L666.067 254.3455z" stroke="#FFFFFF" stroke-width="1" fill="#FFFFFF" fill-rule="nonzero" /><path id="647" transform="matrix(1 0 0 -1 0 792)" d="M683.004 159.465L1132.721 159.465L1132.721 159.465L1132.721 172.6105L1132.721 172.6105L683.004 172.6105z" stroke="#FFFFFF" stroke-width="1" fill="#FFFFFF" fill-rule="nonzero" /><path id="680" transform="matrix(1 0 0 -1 0 792)" d="M666.067 118.817L1147.976 118.817L1147.976 118.817L1147.976 159.0615L1147.976 159.0615L666.067 159.0615z" stroke="#FFFFFF" stroke-width="1" fill="#FFFFFF" fill-rule="nonzero" /><path id="762" transform="matrix(1 0 0 -1 0 792)" d="M683.004 104.828L1132.721 104.828L1132.721 104.828L1132.721 117.9735L1132.721 117.9735L683.004 117.9735z" stroke="#FFFFFF" stroke-width="1" fill="#FFFFFF" fill-rule="nonzero" /><path id="792" transform="matrix(1 0 0 -1 0 792)" d="M666.067 64.1796L1132.725 64.1796L1132.725 64.1796L1132.725 104.4241L1132.725 104.4241L666.067 104.4241z" stroke="#FFFFFF" stroke-width="1" fill="#FFFFFF" fill-rule="nonzero" /><path id="2214" transform="matrix(1 0 0 -1 0 792)" d="M318.022 244.464L321.011 244.464" stroke="#000000" stroke-width="0.398" fill="none" /></g></g></svg>