<svg xmlns="http://www.w3.org/2000/svg" xmlns:xlink="http://www.w3.org/1999/xlink" id="body_36" preserveAspectRatio="xMinYMin meet" viewBox="0 0 1632 1056"><defs><clipPath id="1"><path id="" clip-rule="evenodd" transform="matrix(1 0 0 1 0 0)" d="M0 792L0 0L0 0L1224 0L1224 0L1224 792L1224 792L0 792z" /></clipPath></defs><g transform="matrix(1.333333 0 0 1.333333 0 0)"><g clip-path="url(#1)"><path id="1" transform="matrix(1 0 0 -1 0 792)" d="M666.067 721.28L1132.722 721.28" stroke="#000000" stroke-width="0.498" fill="none" /><path id="31" transform="matrix(1 0 0 -1 0 792)" d="M706.929 526.736L1091.86 526.736" stroke="#000000" stroke-width="0.398" fill="none" /><path id="32" transform="matrix(1 0 0 -1 0 792)" d="M706.929 526.736L1091.86 526.736" stroke="#000000" stroke-width="0.398" fill="none" /><path id="33" transform="matrix(1 0 0 -1 0 792)" d="M707.129 512.971L707.129 526.538" stroke="#000000" stroke-width="0.398" fill="none" /><path id="34" transform="matrix(1 0 0 -1 0 792)" d="M707.328 512.971L1036.083 512.971L1036.083 526.538L707.328 526.538z" stroke="none" fill="#CCCCEB" fill-rule="nonzero" /><path id="44" transform="matrix(1 0 0 -1 0 792)" d="M1036.282 512.971L1036.282 526.538" stroke="#000000" stroke-width="0.398" fill="none" /><path id="45" transform="matrix(1 0 0 -1 0 792)" d="M1036.481 512.971L1091.461 512.971L1091.461 526.538L1036.481 526.538z" stroke="none" fill="#CCCCEB" fill-rule="nonzero" /><path id="52" transform="matrix(1 0 0 -1 0 792)" d="M1091.661 512.971L1091.661 526.538" stroke="#000000" stroke-width="0.398" fill="none" /><path id="53" transform="matrix(1 0 0 -1 0 792)" d="M706.929 512.771L1091.86 512.771" stroke="#000000" stroke-width="0.398" fill="none" /><path id="54" transform="matrix(1 0 0 -1 0 792)" d="M706.929 512.771L1091.86 512.771" stroke="#000000" stroke-width="0.398" fill="none" /><path id="55" transform="matrix(1 0 0 -1 0 792)" d="M706.929 512.373L1091.86 512.373" stroke="#000000" stroke-width="0.398" fill="none" /><path id="56" transform="matrix(1 0 0 -1 0 792)" d="M706.929 512.373L1091.86 512.373" stroke="#000000" stroke-width="0.398" fill="none" /><path id="57" transform="matrix(1 0 0 -1 0 792)" d="M707.129 498.607L707.129 512.174" stroke="#000000" stroke-width="0.398" fill="none" /><path id="82" transform="matrix(1 0 0 -1 0 792)" d="M1036.282 498.607L1036.282 512.174" stroke="#000000" stroke-width="0.398" fill="none" /><path id="84" transform="matrix(1 0 0 -1 0 792)" d="M1091.661 498.607L1091.661 512.174" stroke="#000000" stroke-width="0.398" fill="none" /><path id="85" transform="matrix(1 0 0 -1 0 792)" d="M706.929 498.408L1091.86 498.408" stroke="#000000" stroke-width="0.398" fill="none" /><path id="86" transform="matrix(1 0 0 -1 0 792)" d="M706.929 498.408L1091.86 498.408" stroke="#000000" stroke-width="0.398" fill="none" /><path id="87" transform="matrix(1 0 0 -1 0 792)" d="M707.129 484.642L707.129 498.209" stroke="#000000" stroke-width="0.398" fill="none" /><path id="111" transform="matrix(1 0 0 -1 0 792)" d="M1036.282 484.642L1036.282 498.209" stroke="#000000" stroke-width="0.398" fill="none" /><path id="113" transform="matrix(1 0 0 -1 0 792)" d="M1091.661 484.642L1091.661 498.209" stroke="#000000" stroke-width="0.398" fill="none" /><path id="114" transform="matrix(1 0 0 -1 0 792)" d="M706.929 484.442L1091.86 484.442" stroke="#000000" stroke-width="0.398" fill="none" /><path id="115" transform="matrix(1 0 0 -1 0 792)" d="M706.929 484.442L1091.86 484.442" stroke="#000000" stroke-width="0.398" fill="none" /><path id="116" transform="matrix(1 0 0 -1 0 792)" d="M707.129 457.145L707.129 484.243" stroke="#000000" stroke-width="0.398" fill="none" /><path id="180" transform="matrix(1 0 0 -1 0 792)" d="M1036.282 457.145L1036.282 484.243" stroke="#000000" stroke-width="0.398" fill="none" /><path id="182" transform="matrix(1 0 0 -1 0 792)" d="M1091.661 457.145L1091.661 484.243" stroke="#000000" stroke-width="0.398" fill="none" /><path id="183" transform="matrix(1 0 0 -1 0 792)" d="M706.929 456.946L1091.86 456.946" stroke="#000000" stroke-width="0.398" fill="none" /><path id="184" transform="matrix(1 0 0 -1 0 792)" d="M706.929 456.946L1091.86 456.946" stroke="#000000" stroke-width="0.398" fill="none" /><path id="185" transform="matrix(1 0 0 -1 0 792)" d="M707.129 443.18L707.129 456.747" stroke="#000000" stroke-width="0.398" fill="none" /><path id="209" transform="matrix(1 0 0 -1 0 792)" d="M1036.282 443.18L1036.282 456.747" stroke="#000000" stroke-width="0.398" fill="none" /><path id="211" transform="matrix(1 0 0 -1 0 792)" d="M1091.661 443.18L1091.661 456.747" stroke="#000000" stroke-width="0.398" fill="none" /><path id="212" transform="matrix(1 0 0 -1 0 792)" d="M706.929 442.98L1091.86 442.98" stroke="#000000" stroke-width="0.398" fill="none" /><path id="213" transform="matrix(1 0 0 -1 0 792)" d="M706.929 442.98L1091.86 442.98" stroke="#000000" stroke-width="0.398" fill="none" /><path id="214" transform="matrix(1 0 0 -1 0 792)" d="M707.129 415.683L707.129 442.781" stroke="#000000" stroke-width="0.398" fill="none" /><path id="275" transform="matrix(1 0 0 -1 0 792)" d="M1036.282 415.683L1036.282 442.781" stroke="#000000" stroke-width="0.398" fill="none" /><path id="277" transform="matrix(1 0 0 -1 0 792)" d="M1091.661 415.683L1091.661 442.781" stroke="#000000" stroke-width="0.398" fill="none" /><path id="278" transform="matrix(1 0 0 -1 0 792)" d="M706.929 415.484L1091.86 415.484" stroke="#000000" stroke-width="0.398" fill="none" /><path id="279" transform="matrix(1 0 0 -1 0 792)" d="M706.929 415.484L1091.86 415.484" stroke="#000000" stroke-width="0.398" fill="none" /><path id="280" transform="matrix(1 0 0 -1 0 792)" d="M707.129 401.718L707.129 415.285" stroke="#000000" stroke-width="0.398" fill="none" /><path id="303" transform="matrix(1 0 0 -1 0 792)" d="M1036.282 401.718L1036.282 415.285" stroke="#000000" stroke-width="0.398" fill="none" /><path id="305" transform="matrix(1 0 0 -1 0 792)" d="M1091.661 401.718L1091.661 415.285" stroke="#000000" stroke-width="0.398" fill="none" /><path id="306" transform="matrix(1 0 0 -1 0 792)" d="M706.929 401.518L1091.86 401.518" stroke="#000000" stroke-width="0.398" fill="none" /><path id="307" transform="matrix(1 0 0 -1 0 792)" d="M706.929 401.518L1091.86 401.518" stroke="#000000" stroke-width="0.398" fill="none" /><path id="308" transform="matrix(1 0 0 -1 0 792)" d="M707.129 387.753L707.129 401.32" stroke="#000000" stroke-width="0.398" fill="none" /><path id="335" transform="matrix(1 0 0 -1 0 792)" d="M1036.282 387.753L1036.282 401.32" stroke="#000000" stroke-width="0.398" fill="none" /><path id="337" transform="matrix(1 0 0 -1 0 792)" d="M1091.661 387.753L1091.661 401.32" stroke="#000000" stroke-width="0.398" fill="none" /><path id="338" transform="matrix(1 0 0 -1 0 792)" d="M706.929 387.553L1091.86 387.553" stroke="#000000" stroke-width="0.398" fill="none" /><path id="339" transform="matrix(1 0 0 -1 0 792)" d="M706.929 387.553L1091.86 387.553" stroke="#000000" stroke-width="0.398" fill="none" /><path id="340" transform="matrix(1 0 0 -1 0 792)" d="M707.129 373.787L707.129 387.354" stroke="#000000" stroke-width="0.398" fill="none" /><path id="368" transform="matrix(1 0 0 -1 0 792)" d="M1036.282 373.787L1036.282 387.354" stroke="#000000" stroke-width="0.398" fill="none" /><path id="370" transform="matrix(1 0 0 -1 0 792)" d="M1091.661 373.787L1091.661 387.354" stroke="#000000" stroke-width="0.398" fill="none" /><path id="371" transform="matrix(1 0 0 -1 0 792)" d="M706.929 373.588L1091.86 373.588" stroke="#000000" stroke-width="0.398" fill="none" /><path id="372" transform="matrix(1 0 0 -1 0 792)" d="M706.929 373.588L1091.86 373.588" stroke="#000000" stroke-width="0.398" fill="none" /><path id="373" transform="matrix(1 0 0 -1 0 792)" d="M707.129 359.822L707.129 373.389" stroke="#000000" stroke-width="0.398" fill="none" /><path id="402" transform="matrix(1 0 0 -1 0 792)" d="M1036.282 359.822L1036.282 373.389" stroke="#000000" stroke-width="0.398" fill="none" /><path id="404" transform="matrix(1 0 0 -1 0 792)" d="M1091.661 359.822L1091.661 373.389" stroke="#000000" stroke-width="0.398" fill="none" /><path id="405" transform="matrix(1 0 0 -1 0 792)" d="M706.929 359.623L1091.86 359.623" stroke="#000000" stroke-width="0.398" fill="none" /><path id="406" transform="matrix(1 0 0 -1 0 792)" d="M706.929 359.623L1091.86 359.623" stroke="#000000" stroke-width="0.398" fill="none" /><path id="407" transform="matrix(1 0 0 -1 0 792)" d="M707.129 345.857L707.129 359.424" stroke="#000000" stroke-width="0.398" fill="none" /><path id="433" transform="matrix(1 0 0 -1 0 792)" d="M1036.282 345.857L1036.282 359.424" stroke="#000000" stroke-width="0.398" fill="none" /><path id="435" transform="matrix(1 0 0 -1 0 792)" d="M1091.661 345.857L1091.661 359.424" stroke="#000000" stroke-width="0.398" fill="none" /><path id="436" transform="matrix(1 0 0 -1 0 792)" d="M706.929 345.658L1091.86 345.658" stroke="#000000" stroke-width="0.398" fill="none" /><path id="437" transform="matrix(1 0 0 -1 0 792)" d="M706.929 345.658L1091.86 345.658" stroke="#000000" stroke-width="0.398" fill="none" /><path id="438" transform="matrix(1 0 0 -1 0 792)" d="M707.129 331.892L707.129 345.459" stroke="#000000" stroke-width="0.398" fill="none" /><path id="481" transform="matrix(1 0 0 -1 0 792)" d="M1036.282 331.892L1036.282 345.459" stroke="#000000" stroke-width="0.398" fill="none" /><path id="483" transform="matrix(1 0 0 -1 0 792)" d="M1091.661 331.892L1091.661 345.459" stroke="#000000" stroke-width="0.398" fill="none" /><path id="484" transform="matrix(1 0 0 -1 0 792)" d="M706.929 331.693L1091.86 331.693" stroke="#000000" stroke-width="0.398" fill="none" /><path id="485" transform="matrix(1 0 0 -1 0 792)" d="M706.929 331.693L1091.86 331.693" stroke="#000000" stroke-width="0.398" fill="none" /><path id="486" transform="matrix(1 0 0 -1 0 792)" d="M707.129 317.927L707.129 331.494" stroke="#000000" stroke-width="0.398" fill="none" /><path id="509" transform="matrix(1 0 0 -1 0 792)" d="M1036.282 317.927L1036.282 331.494" stroke="#000000" stroke-width="0.398" fill="none" /><path id="511" transform="matrix(1 0 0 -1 0 792)" d="M1091.661 317.927L1091.661 331.494" stroke="#000000" stroke-width="0.398" fill="none" /><path id="512" transform="matrix(1 0 0 -1 0 792)" d="M706.929 317.728L1091.86 317.728" stroke="#000000" stroke-width="0.398" fill="none" /><path id="513" transform="matrix(1 0 0 -1 0 792)" d="M706.929 317.728L1091.86 317.728" stroke="#000000" stroke-width="0.398" fill="none" /><path id="514" transform="matrix(1 0 0 -1 0 792)" d="M707.129 303.979L707.129 317.528" stroke="#000000" stroke-width="0.398" fill="none" /><path id="515" transform="matrix(1 0 0 -1 0 792)" d="M1091.661 303.979L1091.661 317.528" stroke="#000000" stroke-width="0.398" fill="none" /><path id="516" transform="matrix(1 0 0 -1 0 792)" d="M706.929 303.78L1091.86 303.78" stroke="#000000" stroke-width="0.398" fill="none" /><path id="517" transform="matrix(1 0 0 -1 0 792)" d="M706.929 303.78L1091.86 303.78" stroke="#000000" stroke-width="0.398" fill="none" /><path id="518" transform="matrix(1 0 0 -1 0 792)" d="M707.129 276.482L707.129 303.58" stroke="#000000" stroke-width="0.398" fill="none" /><path id="575" transform="matrix(1 0 0 -1 0 792)" d="M1036.282 276.482L1036.282 303.58" stroke="#000000" stroke-width="0.398" fill="none" /><path id="577" transform="matrix(1 0 0 -1 0 792)" d="M1091.661 276.482L1091.661 303.58" stroke="#000000" stroke-width="0.398" fill="none" /><path id="578" transform="matrix(1 0 0 -1 0 792)" d="M706.929 276.283L1091.86 276.283" stroke="#000000" stroke-width="0.398" fill="none" /><path id="579" transform="matrix(1 0 0 -1 0 792)" d="M706.929 276.283L1091.86 276.283" stroke="#000000" stroke-width="0.398" fill="none" /><path id="580" transform="matrix(1 0 0 -1 0 792)" d="M707.129 262.517L707.129 276.084" stroke="#000000" stroke-width="0.398" fill="none" /><path id="609" transform="matrix(1 0 0 -1 0 792)" d="M1036.282 262.517L1036.282 276.084" stroke="#000000" stroke-width="0.398" fill="none" /><path id="611" transform="matrix(1 0 0 -1 0 792)" d="M1091.661 262.517L1091.661 276.084" stroke="#000000" stroke-width="0.398" fill="none" /><path id="612" transform="matrix(1 0 0 -1 0 792)" d="M706.929 262.318L1091.86 262.318" stroke="#000000" stroke-width="0.398" fill="none" /><path id="613" transform="matrix(1 0 0 -1 0 792)" d="M706.929 262.318L1091.86 262.318" stroke="#000000" stroke-width="0.398" fill="none" /><path id="614" transform="matrix(1 0 0 -1 0 792)" d="M921.365 121.641L924.354 121.641" stroke="#000000" stroke-width="0.398" fill="none" /><path id="615" transform="matrix(1 0 0 -1 0 792)" d="M1062.785 108.092L1065.774 108.092" stroke="#000000" stroke-width="0.398" fill="none" /><path id="616" transform="matrix(1 0 0 -1 0 792)" d="M1096.259 108.092L1099.248 108.092" stroke="#000000" stroke-width="0.398" fill="none" /><path id="617" transform="matrix(1 0 0 -1 0 792)" d="M1123.756 108.092L1126.745 108.092" stroke="#000000" stroke-width="0.398" fill="none" /><path id="618" transform="matrix(1 0 0 -1 0 792)" d="M808.537 94.543L811.526 94.543" stroke="#000000" stroke-width="0.398" fill="none" /><path id="619" transform="matrix(1 0 0 -1 0 792)" d="M842.012 94.543L845.001 94.543" stroke="#000000" stroke-width="0.398" fill="none" /><path id="620" transform="matrix(1 0 0 -1 0 792)" d="M869.509 94.543L872.498 94.543" stroke="#000000" stroke-width="0.398" fill="none" /><path id="621" transform="matrix(1 0 0 -1 0 792)" d="M1054.234 80.994L1057.223 80.994" stroke="#000000" stroke-width="0.398" fill="none" /><path id="622" transform="matrix(1 0 0 -1 0 792)" d="M981.944 67.444L984.933 67.444" stroke="#000000" stroke-width="0.398" fill="none" /><path id="623" transform="matrix(1 0 0 -1 0 792)" d="M666.067 722.529L1132.724 722.529L1132.724 722.529L1132.724 735.6745L1132.724 735.6745L666.067 735.6745z" stroke="#FFFFFF" stroke-width="1" fill="#FFFFFF" fill-rule="nonzero" /><path id="636" transform="matrix(1 0 0 -1 0 792)" d="M693.34 658.914L1132.721 658.914L1132.721 658.914L1132.721 695.1587L1132.721 695.1587L693.34 695.1587z" stroke="#FFFFFF" stroke-width="1" fill="#FFFFFF" fill-rule="nonzero" /><path id="726" transform="matrix(1 0 0 -1 0 792)" d="M693.34 611.094L1132.721 611.094L1132.721 611.094L1132.721 659.2928L1132.721 659.2928L693.34 659.2928z" stroke="#FFFFFF" stroke-width="1" fill="#FFFFFF" fill-rule="nonzero" /><path id="812" transform="matrix(1 0 0 -1 0 792)" d="M666.067 537.363L1132.725 537.363L1132.725 537.363L1132.725 564.0575L1132.725 564.0575L666.067 564.0575z" stroke="#FFFFFF" stroke-width="1" fill="#FFFFFF" fill-rule="nonzero" /><path id="860" transform="matrix(1 0 0 -1 0 792)" d="M693.34 209.51L1132.724 209.51L1132.724 209.51L1132.724 245.7548L1132.724 245.7548L693.34 245.7548z" stroke="#FFFFFF" stroke-width="1" fill="#FFFFFF" fill-rule="nonzero" /><path id="939" transform="matrix(1 0 0 -1 0 792)" d="M666.067 169.456L935.087 169.456L935.087 169.456L935.087 188.1204L935.087 188.1204L666.067 188.1204z" stroke="#FFFFFF" stroke-width="1" fill="#FFFFFF" fill-rule="nonzero" /><path id="953" transform="matrix(1 0 0 -1 0 792)" d="M666.067 64.1796L1132.727 64.1796L1132.727 64.1796L1132.727 158.62L1132.727 158.62L666.067 158.62z" stroke="#FFFFFF" stroke-width="1" fill="#FFFFFF" fill-rule="nonzero" /><path id="1298" transform="matrix(1 0 0 -1 0 792)" d="M54.067 721.28L520.722 721.28" stroke="#000000" stroke-width="0.498" fill="none" /><path id="1976" transform="matrix(1 0 0 -1 0 792)" d="M94.929 526.736L479.86 526.736" stroke="#000000" stroke-width="0.398" fill="none" /><path id="1977" transform="matrix(1 0 0 -1 0 792)" d="M94.929 526.736L479.86 526.736" stroke="#000000" stroke-width="0.398" fill="none" /><path id="1978" transform="matrix(1 0 0 -1 0 792)" d="M95.129 512.971L95.129 526.538" stroke="#000000" stroke-width="0.398" fill="none" /><path id="1979" transform="matrix(1 0 0 -1 0 792)" d="M95.328 512.971L424.083 512.971L424.083 526.538L95.328 526.538z" stroke="none" fill="#CCCCEB" fill-rule="nonzero" /><path id="1989" transform="matrix(1 0 0 -1 0 792)" d="M424.282 512.971L424.282 526.538" stroke="#000000" stroke-width="0.398" fill="none" /><path id="1990" transform="matrix(1 0 0 -1 0 792)" d="M424.481 512.971L479.461 512.971L479.461 526.538L424.481 526.538z" stroke="none" fill="#CCCCEB" fill-rule="nonzero" /><path id="1997" transform="matrix(1 0 0 -1 0 792)" d="M479.661 512.971L479.661 526.538" stroke="#000000" stroke-width="0.398" fill="none" /><path id="1998" transform="matrix(1 0 0 -1 0 792)" d="M94.929 512.771L479.86 512.771" stroke="#000000" stroke-width="0.398" fill="none" /><path id="1999" transform="matrix(1 0 0 -1 0 792)" d="M94.929 512.771L479.86 512.771" stroke="#000000" stroke-width="0.398" fill="none" /><path id="2000" transform="matrix(1 0 0 -1 0 792)" d="M94.929 512.373L479.86 512.373" stroke="#000000" stroke-width="0.398" fill="none" /><path id="2001" transform="matrix(1 0 0 -1 0 792)" d="M94.929 512.373L479.86 512.373" stroke="#000000" stroke-width="0.398" fill="none" /><path id="2002" transform="matrix(1 0 0 -1 0 792)" d="M95.129 498.607L95.129 512.174" stroke="#000000" stroke-width="0.398" fill="none" /><path id="2027" transform="matrix(1 0 0 -1 0 792)" d="M424.282 498.607L424.282 512.174" stroke="#000000" stroke-width="0.398" fill="none" /><path id="2029" transform="matrix(1 0 0 -1 0 792)" d="M479.661 498.607L479.661 512.174" stroke="#000000" stroke-width="0.398" fill="none" /><path id="2030" transform="matrix(1 0 0 -1 0 792)" d="M94.929 498.408L479.86 498.408" stroke="#000000" stroke-width="0.398" fill="none" /><path id="2031" transform="matrix(1 0 0 -1 0 792)" d="M94.929 498.408L479.86 498.408" stroke="#000000" stroke-width="0.398" fill="none" /><path id="2032" transform="matrix(1 0 0 -1 0 792)" d="M95.129 484.642L95.129 498.209" stroke="#000000" stroke-width="0.398" fill="none" /><path id="2056" transform="matrix(1 0 0 -1 0 792)" d="M424.282 484.642L424.282 498.209" stroke="#000000" stroke-width="0.398" fill="none" /><path id="2058" transform="matrix(1 0 0 -1 0 792)" d="M479.661 484.642L479.661 498.209" stroke="#000000" stroke-width="0.398" fill="none" /><path id="2059" transform="matrix(1 0 0 -1 0 792)" d="M94.929 484.442L479.86 484.442" stroke="#000000" stroke-width="0.398" fill="none" /><path id="2060" transform="matrix(1 0 0 -1 0 792)" d="M94.929 484.442L479.86 484.442" stroke="#000000" stroke-width="0.398" fill="none" /><path id="2061" transform="matrix(1 0 0 -1 0 792)" d="M95.129 457.145L95.129 484.243" stroke="#000000" stroke-width="0.398" fill="none" /><path id="2125" transform="matrix(1 0 0 -1 0 792)" d="M424.282 457.145L424.282 484.243" stroke="#000000" stroke-width="0.398" fill="none" /><path id="2127" transform="matrix(1 0 0 -1 0 792)" d="M479.661 457.145L479.661 484.243" stroke="#000000" stroke-width="0.398" fill="none" /><path id="2128" transform="matrix(1 0 0 -1 0 792)" d="M94.929 456.946L479.86 456.946" stroke="#000000" stroke-width="0.398" fill="none" /><path id="2129" transform="matrix(1 0 0 -1 0 792)" d="M94.929 456.946L479.86 456.946" stroke="#000000" stroke-width="0.398" fill="none" /><path id="2130" transform="matrix(1 0 0 -1 0 792)" d="M95.129 443.18L95.129 456.747" stroke="#000000" stroke-width="0.398" fill="none" /><path id="2154" transform="matrix(1 0 0 -1 0 792)" d="M424.282 443.18L424.282 456.747" stroke="#000000" stroke-width="0.398" fill="none" /><path id="2156" transform="matrix(1 0 0 -1 0 792)" d="M479.661 443.18L479.661 456.747" stroke="#000000" stroke-width="0.398" fill="none" /><path id="2157" transform="matrix(1 0 0 -1 0 792)" d="M94.929 442.98L479.86 442.98" stroke="#000000" stroke-width="0.398" fill="none" /><path id="2158" transform="matrix(1 0 0 -1 0 792)" d="M94.929 442.98L479.86 442.98" stroke="#000000" stroke-width="0.398" fill="none" /><path id="2159" transform="matrix(1 0 0 -1 0 792)" d="M95.129 415.683L95.129 442.781" stroke="#000000" stroke-width="0.398" fill="none" /><path id="2220" transform="matrix(1 0 0 -1 0 792)" d="M424.282 415.683L424.282 442.781" stroke="#000000" stroke-width="0.398" fill="none" /><path id="2222" transform="matrix(1 0 0 -1 0 792)" d="M479.661 415.683L479.661 442.781" stroke="#000000" stroke-width="0.398" fill="none" /><path id="2223" transform="matrix(1 0 0 -1 0 792)" d="M94.929 415.484L479.86 415.484" stroke="#000000" stroke-width="0.398" fill="none" /><path id="2224" transform="matrix(1 0 0 -1 0 792)" d="M94.929 415.484L479.86 415.484" stroke="#000000" stroke-width="0.398" fill="none" /><path id="2225" transform="matrix(1 0 0 -1 0 792)" d="M95.129 401.718L95.129 415.285" stroke="#000000" stroke-width="0.398" fill="none" /><path id="2248" transform="matrix(1 0 0 -1 0 792)" d="M424.282 401.718L424.282 415.285" stroke="#000000" stroke-width="0.398" fill="none" /><path id="2250" transform="matrix(1 0 0 -1 0 792)" d="M479.661 401.718L479.661 415.285" stroke="#000000" stroke-width="0.398" fill="none" /><path id="2251" transform="matrix(1 0 0 -1 0 792)" d="M94.929 401.518L479.86 401.518" stroke="#000000" stroke-width="0.398" fill="none" /><path id="2252" transform="matrix(1 0 0 -1 0 792)" d="M94.929 401.518L479.86 401.518" stroke="#000000" stroke-width="0.398" fill="none" /><path id="2253" transform="matrix(1 0 0 -1 0 792)" d="M95.129 387.753L95.129 401.32" stroke="#000000" stroke-width="0.398" fill="none" /><path id="2280" transform="matrix(1 0 0 -1 0 792)" d="M424.282 387.753L424.282 401.32" stroke="#000000" stroke-width="0.398" fill="none" /><path id="2282" transform="matrix(1 0 0 -1 0 792)" d="M479.661 387.753L479.661 401.32" stroke="#000000" stroke-width="0.398" fill="none" /><path id="2283" transform="matrix(1 0 0 -1 0 792)" d="M94.929 387.553L479.86 387.553" stroke="#000000" stroke-width="0.398" fill="none" /><path id="2284" transform="matrix(1 0 0 -1 0 792)" d="M94.929 387.553L479.86 387.553" stroke="#000000" stroke-width="0.398" fill="none" /><path id="2285" transform="matrix(1 0 0 -1 0 792)" d="M95.129 373.787L95.129 387.354" stroke="#000000" stroke-width="0.398" fill="none" /><path id="2313" transform="matrix(1 0 0 -1 0 792)" d="M424.282 373.787L424.282 387.354" stroke="#000000" stroke-width="0.398" fill="none" /><path id="2315" transform="matrix(1 0 0 -1 0 792)" d="M479.661 373.787L479.661 387.354" stroke="#000000" stroke-width="0.398" fill="none" /><path id="2316" transform="matrix(1 0 0 -1 0 792)" d="M94.929 373.588L479.86 373.588" stroke="#000000" stroke-width="0.398" fill="none" /><path id="2317" transform="matrix(1 0 0 -1 0 792)" d="M94.929 373.588L479.86 373.588" stroke="#000000" stroke-width="0.398" fill="none" /><path id="2318" transform="matrix(1 0 0 -1 0 792)" d="M95.129 359.822L95.129 373.389" stroke="#000000" stroke-width="0.398" fill="none" /><path id="2347" transform="matrix(1 0 0 -1 0 792)" d="M424.282 359.822L424.282 373.389" stroke="#000000" stroke-width="0.398" fill="none" /><path id="2349" transform="matrix(1 0 0 -1 0 792)" d="M479.661 359.822L479.661 373.389" stroke="#000000" stroke-width="0.398" fill="none" /><path id="2350" transform="matrix(1 0 0 -1 0 792)" d="M94.929 359.623L479.86 359.623" stroke="#000000" stroke-width="0.398" fill="none" /><path id="2351" transform="matrix(1 0 0 -1 0 792)" d="M94.929 359.623L479.86 359.623" stroke="#000000" stroke-width="0.398" fill="none" /><path id="2352" transform="matrix(1 0 0 -1 0 792)" d="M95.129 345.857L95.129 359.424" stroke="#000000" stroke-width="0.398" fill="none" /><path id="2378" transform="matrix(1 0 0 -1 0 792)" d="M424.282 345.857L424.282 359.424" stroke="#000000" stroke-width="0.398" fill="none" /><path id="2380" transform="matrix(1 0 0 -1 0 792)" d="M479.661 345.857L479.661 359.424" stroke="#000000" stroke-width="0.398" fill="none" /><path id="2381" transform="matrix(1 0 0 -1 0 792)" d="M94.929 345.658L479.86 345.658" stroke="#000000" stroke-width="0.398" fill="none" /><path id="2382" transform="matrix(1 0 0 -1 0 792)" d="M94.929 345.658L479.86 345.658" stroke="#000000" stroke-width="0.398" fill="none" /><path id="2383" transform="matrix(1 0 0 -1 0 792)" d="M95.129 331.892L95.129 345.459" stroke="#000000" stroke-width="0.398" fill="none" /><path id="2426" transform="matrix(1 0 0 -1 0 792)" d="M424.282 331.892L424.282 345.459" stroke="#000000" stroke-width="0.398" fill="none" /><path id="2428" transform="matrix(1 0 0 -1 0 792)" d="M479.661 331.892L479.661 345.459" stroke="#000000" stroke-width="0.398" fill="none" /><path id="2429" transform="matrix(1 0 0 -1 0 792)" d="M94.929 331.693L479.86 331.693" stroke="#000000" stroke-width="0.398" fill="none" /><path id="2430" transform="matrix(1 0 0 -1 0 792)" d="M94.929 331.693L479.86 331.693" stroke="#000000" stroke-width="0.398" fill="none" /><path id="2431" transform="matrix(1 0 0 -1 0 792)" d="M95.129 317.927L95.129 331.494" stroke="#000000" stroke-width="0.398" fill="none" /><path id="2454" transform="matrix(1 0 0 -1 0 792)" d="M424.282 317.927L424.282 331.494" stroke="#000000" stroke-width="0.398" fill="none" /><path id="2456" transform="matrix(1 0 0 -1 0 792)" d="M479.661 317.927L479.661 331.494" stroke="#000000" stroke-width="0.398" fill="none" /><path id="2457" transform="matrix(1 0 0 -1 0 792)" d="M94.929 317.728L479.86 317.728" stroke="#000000" stroke-width="0.398" fill="none" /><path id="2458" transform="matrix(1 0 0 -1 0 792)" d="M94.929 317.728L479.86 317.728" stroke="#000000" stroke-width="0.398" fill="none" /><path id="2459" transform="matrix(1 0 0 -1 0 792)" d="M95.129 303.979L95.129 317.528" stroke="#000000" stroke-width="0.398" fill="none" /><path id="2460" transform="matrix(1 0 0 -1 0 792)" d="M479.661 303.979L479.661 317.528" stroke="#000000" stroke-width="0.398" fill="none" /><path id="2461" transform="matrix(1 0 0 -1 0 792)" d="M94.929 303.78L479.86 303.78" stroke="#000000" stroke-width="0.398" fill="none" /><path id="2462" transform="matrix(1 0 0 -1 0 792)" d="M94.929 303.78L479.86 303.78" stroke="#000000" stroke-width="0.398" fill="none" /><path id="2463" transform="matrix(1 0 0 -1 0 792)" d="M95.129 276.482L95.129 303.58" stroke="#000000" stroke-width="0.398" fill="none" /><path id="2520" transform="matrix(1 0 0 -1 0 792)" d="M424.282 276.482L424.282 303.58" stroke="#000000" stroke-width="0.398" fill="none" /><path id="2522" transform="matrix(1 0 0 -1 0 792)" d="M479.661 276.482L479.661 303.58" stroke="#000000" stroke-width="0.398" fill="none" /><path id="2523" transform="matrix(1 0 0 -1 0 792)" d="M94.929 276.283L479.86 276.283" stroke="#000000" stroke-width="0.398" fill="none" /><path id="2524" transform="matrix(1 0 0 -1 0 792)" d="M94.929 276.283L479.86 276.283" stroke="#000000" stroke-width="0.398" fill="none" /><path id="2525" transform="matrix(1 0 0 -1 0 792)" d="M95.129 262.517L95.129 276.084" stroke="#000000" stroke-width="0.398" fill="none" /><path id="2554" transform="matrix(1 0 0 -1 0 792)" d="M424.282 262.517L424.282 276.084" stroke="#000000" stroke-width="0.398" fill="none" /><path id="2556" transform="matrix(1 0 0 -1 0 792)" d="M479.661 262.517L479.661 276.084" stroke="#000000" stroke-width="0.398" fill="none" /><path id="2557" transform="matrix(1 0 0 -1 0 792)" d="M94.929 262.318L479.86 262.318" stroke="#000000" stroke-width="0.398" fill="none" /><path id="2558" transform="matrix(1 0 0 -1 0 792)" d="M94.929 262.318L479.86 262.318" stroke="#000000" stroke-width="0.398" fill="none" /><path id="3034" transform="matrix(1 0 0 -1 0 792)" d="M309.365 121.641L312.354 121.641" stroke="#000000" stroke-width="0.398" fill="none" /><path id="3148" transform="matrix(1 0 0 -1 0 792)" d="M450.785 108.092L453.774 108.092" stroke="#000000" stroke-width="0.398" fill="none" /><path id="3154" transform="matrix(1 0 0 -1 0 792)" d="M484.259 108.092L487.248 108.092" stroke="#000000" stroke-width="0.398" fill="none" /><path id="3159" transform="matrix(1 0 0 -1 0 792)" d="M511.756 108.092L514.745 108.092" stroke="#000000" stroke-width="0.398" fill="none" /><path id="3184" transform="matrix(1 0 0 -1 0 792)" d="M196.537 94.543L199.526 94.543" stroke="#000000" stroke-width="0.398" fill="none" /><path id="3190" transform="matrix(1 0 0 -1 0 792)" d="M230.012 94.543L233.001 94.543" stroke="#000000" stroke-width="0.398" fill="none" /><path id="3195" transform="matrix(1 0 0 -1 0 792)" d="M257.509 94.543L260.498 94.543" stroke="#000000" stroke-width="0.398" fill="none" /><path id="3313" transform="matrix(1 0 0 -1 0 792)" d="M442.234 80.994L445.223 80.994" stroke="#000000" stroke-width="0.398" fill="none" /><path id="3384" transform="matrix(1 0 0 -1 0 792)" d="M369.944 67.444L372.933 67.444" stroke="#000000" stroke-width="0.398" fill="none" /></g></g></svg>