<svg xmlns="http://www.w3.org/2000/svg" xmlns:xlink="http://www.w3.org/1999/xlink" id="body_28" preserveAspectRatio="xMinYMin meet" viewBox="0 0 1632 1056"><defs><clipPath id="1"><path id="" clip-rule="evenodd" transform="matrix(1 0 0 1 0 0)" d="M0 792L0 0L0 0L1224 0L1224 0L1224 792L1224 792L0 792z" /></clipPath></defs><g transform="matrix(1.333333 0 0 1.333333 0 0)"><g clip-path="url(#1)"><path id="16" transform="matrix(1 0 0 -1 0 792)" d="M666.067 721.28L1132.722 721.28" stroke="#000000" stroke-width="0.498" fill="none" /><path id="17" transform="matrix(1 0 0 -1 0 792)" d="M677.019 636.686L1121.771 636.686" stroke="#000000" stroke-width="0.398" fill="none" /><path id="18" transform="matrix(1 0 0 -1 0 792)" d="M677.019 636.686L1121.771 636.686" stroke="#000000" stroke-width="0.398" fill="none" /><path id="19" transform="matrix(1 0 0 -1 0 792)" d="M677.218 622.92L677.218 636.487" stroke="#000000" stroke-width="0.398" fill="none" /><path id="20" transform="matrix(1 0 0 -1 0 792)" d="M677.417 622.92L1006.172 622.92L1006.172 636.487L677.417 636.487z" stroke="none" fill="#CCCCEB" fill-rule="nonzero" /><path id="30" transform="matrix(1 0 0 -1 0 792)" d="M1006.371 622.92L1006.371 636.487" stroke="#000000" stroke-width="0.398" fill="none" /><path id="31" transform="matrix(1 0 0 -1 0 792)" d="M1006.57 622.92L1121.372 622.92L1121.372 636.487L1006.57 636.487z" stroke="none" fill="#CCCCEB" fill-rule="nonzero" /><path id="38" transform="matrix(1 0 0 -1 0 792)" d="M1121.572 622.92L1121.572 636.487" stroke="#000000" stroke-width="0.398" fill="none" /><path id="39" transform="matrix(1 0 0 -1 0 792)" d="M677.019 622.72L1121.771 622.72" stroke="#000000" stroke-width="0.398" fill="none" /><path id="40" transform="matrix(1 0 0 -1 0 792)" d="M677.019 622.72L1121.771 622.72" stroke="#000000" stroke-width="0.398" fill="none" /><path id="41" transform="matrix(1 0 0 -1 0 792)" d="M677.019 622.322L1121.771 622.322" stroke="#000000" stroke-width="0.398" fill="none" /><path id="42" transform="matrix(1 0 0 -1 0 792)" d="M677.019 622.322L1121.771 622.322" stroke="#000000" stroke-width="0.398" fill="none" /><path id="43" transform="matrix(1 0 0 -1 0 792)" d="M677.218 581.475L677.218 622.123" stroke="#000000" stroke-width="0.398" fill="none" /><path id="155" transform="matrix(1 0 0 -1 0 792)" d="M1006.371 581.475L1006.371 622.123" stroke="#000000" stroke-width="0.398" fill="none" /><path id="157" transform="matrix(1 0 0 -1 0 792)" d="M1121.572 581.475L1121.572 622.123" stroke="#000000" stroke-width="0.398" fill="none" /><path id="158" transform="matrix(1 0 0 -1 0 792)" d="M677.019 581.276L1121.771 581.276" stroke="#000000" stroke-width="0.398" fill="none" /><path id="159" transform="matrix(1 0 0 -1 0 792)" d="M677.019 581.276L1121.771 581.276" stroke="#000000" stroke-width="0.398" fill="none" /><path id="160" transform="matrix(1 0 0 -1 0 792)" d="M677.218 553.978L677.218 581.076" stroke="#000000" stroke-width="0.398" fill="none" /><path id="285" transform="matrix(1 0 0 -1 0 792)" d="M1121.572 553.978L1121.572 581.076" stroke="#000000" stroke-width="0.398" fill="none" /><path id="286" transform="matrix(1 0 0 -1 0 792)" d="M677.218 540.412L677.218 553.979" stroke="#000000" stroke-width="0.398" fill="none" /><path id="301" transform="matrix(1 0 0 -1 0 792)" d="M790.543 544.693L793.532 544.693" stroke="#000000" stroke-width="0.398" fill="none" /><path id="313" transform="matrix(1 0 0 -1 0 792)" d="M1006.371 540.412L1006.371 553.979" stroke="#000000" stroke-width="0.398" fill="none" /><path id="316" transform="matrix(1 0 0 -1 0 792)" d="M1121.572 540.412L1121.572 553.979" stroke="#000000" stroke-width="0.398" fill="none" /><path id="317" transform="matrix(1 0 0 -1 0 792)" d="M677.218 526.845L677.218 540.412" stroke="#000000" stroke-width="0.398" fill="none" /><path id="332" transform="matrix(1 0 0 -1 0 792)" d="M790.543 531.126L793.532 531.126" stroke="#000000" stroke-width="0.398" fill="none" /><path id="337" transform="matrix(1 0 0 -1 0 792)" d="M818.04 531.126L821.029 531.126" stroke="#000000" stroke-width="0.398" fill="none" /><path id="341" transform="matrix(1 0 0 -1 0 792)" d="M839.559 531.126L842.548 531.126" stroke="#000000" stroke-width="0.398" fill="none" /><path id="350" transform="matrix(1 0 0 -1 0 792)" d="M890.966 531.126L893.955 531.126" stroke="#000000" stroke-width="0.398" fill="none" /><path id="361" transform="matrix(1 0 0 -1 0 792)" d="M1006.371 526.845L1006.371 540.412" stroke="#000000" stroke-width="0.398" fill="none" /><path id="364" transform="matrix(1 0 0 -1 0 792)" d="M1121.572 526.845L1121.572 540.412" stroke="#000000" stroke-width="0.398" fill="none" /><path id="365" transform="matrix(1 0 0 -1 0 792)" d="M677.218 513.278L677.218 526.845" stroke="#000000" stroke-width="0.398" fill="none" /><path id="380" transform="matrix(1 0 0 -1 0 792)" d="M790.543 517.56L793.532 517.56" stroke="#000000" stroke-width="0.398" fill="none" /><path id="385" transform="matrix(1 0 0 -1 0 792)" d="M818.04 517.56L821.029 517.56" stroke="#000000" stroke-width="0.398" fill="none" /><path id="389" transform="matrix(1 0 0 -1 0 792)" d="M839.559 517.56L842.548 517.56" stroke="#000000" stroke-width="0.398" fill="none" /><path id="398" transform="matrix(1 0 0 -1 0 792)" d="M890.966 517.56L893.955 517.56" stroke="#000000" stroke-width="0.398" fill="none" /><path id="409" transform="matrix(1 0 0 -1 0 792)" d="M1006.371 513.278L1006.371 526.845" stroke="#000000" stroke-width="0.398" fill="none" /><path id="412" transform="matrix(1 0 0 -1 0 792)" d="M1121.572 513.278L1121.572 526.845" stroke="#000000" stroke-width="0.398" fill="none" /><path id="413" transform="matrix(1 0 0 -1 0 792)" d="M677.218 499.712L677.218 513.279" stroke="#000000" stroke-width="0.398" fill="none" /><path id="428" transform="matrix(1 0 0 -1 0 792)" d="M790.543 503.993L793.532 503.993" stroke="#000000" stroke-width="0.398" fill="none" /><path id="433" transform="matrix(1 0 0 -1 0 792)" d="M818.04 503.993L821.029 503.993" stroke="#000000" stroke-width="0.398" fill="none" /><path id="437" transform="matrix(1 0 0 -1 0 792)" d="M839.559 503.993L842.548 503.993" stroke="#000000" stroke-width="0.398" fill="none" /><path id="446" transform="matrix(1 0 0 -1 0 792)" d="M890.966 503.993L893.955 503.993" stroke="#000000" stroke-width="0.398" fill="none" /><path id="457" transform="matrix(1 0 0 -1 0 792)" d="M1006.371 499.712L1006.371 513.279" stroke="#000000" stroke-width="0.398" fill="none" /><path id="460" transform="matrix(1 0 0 -1 0 792)" d="M1121.572 499.712L1121.572 513.279" stroke="#000000" stroke-width="0.398" fill="none" /><path id="461" transform="matrix(1 0 0 -1 0 792)" d="M677.218 486.145L677.218 499.712" stroke="#000000" stroke-width="0.398" fill="none" /><path id="476" transform="matrix(1 0 0 -1 0 792)" d="M790.543 490.427L793.532 490.427" stroke="#000000" stroke-width="0.398" fill="none" /><path id="481" transform="matrix(1 0 0 -1 0 792)" d="M818.04 490.427L821.029 490.427" stroke="#000000" stroke-width="0.398" fill="none" /><path id="485" transform="matrix(1 0 0 -1 0 792)" d="M839.559 490.427L842.548 490.427" stroke="#000000" stroke-width="0.398" fill="none" /><path id="494" transform="matrix(1 0 0 -1 0 792)" d="M890.966 490.427L893.955 490.427" stroke="#000000" stroke-width="0.398" fill="none" /><path id="505" transform="matrix(1 0 0 -1 0 792)" d="M1006.371 486.145L1006.371 499.712" stroke="#000000" stroke-width="0.398" fill="none" /><path id="508" transform="matrix(1 0 0 -1 0 792)" d="M1121.572 486.145L1121.572 499.712" stroke="#000000" stroke-width="0.398" fill="none" /><path id="509" transform="matrix(1 0 0 -1 0 792)" d="M677.218 472.578L677.218 486.145" stroke="#000000" stroke-width="0.398" fill="none" /><path id="524" transform="matrix(1 0 0 -1 0 792)" d="M790.543 476.86L793.532 476.86" stroke="#000000" stroke-width="0.398" fill="none" /><path id="529" transform="matrix(1 0 0 -1 0 792)" d="M818.04 476.86L821.029 476.86" stroke="#000000" stroke-width="0.398" fill="none" /><path id="533" transform="matrix(1 0 0 -1 0 792)" d="M839.559 476.86L842.548 476.86" stroke="#000000" stroke-width="0.398" fill="none" /><path id="542" transform="matrix(1 0 0 -1 0 792)" d="M890.966 476.86L893.955 476.86" stroke="#000000" stroke-width="0.398" fill="none" /><path id="553" transform="matrix(1 0 0 -1 0 792)" d="M1006.371 472.578L1006.371 486.145" stroke="#000000" stroke-width="0.398" fill="none" /><path id="556" transform="matrix(1 0 0 -1 0 792)" d="M1121.572 472.578L1121.572 486.145" stroke="#000000" stroke-width="0.398" fill="none" /><path id="557" transform="matrix(1 0 0 -1 0 792)" d="M677.218 459.012L677.218 472.579" stroke="#000000" stroke-width="0.398" fill="none" /><path id="572" transform="matrix(1 0 0 -1 0 792)" d="M790.543 463.293L793.532 463.293" stroke="#000000" stroke-width="0.398" fill="none" /><path id="577" transform="matrix(1 0 0 -1 0 792)" d="M818.04 463.293L821.029 463.293" stroke="#000000" stroke-width="0.398" fill="none" /><path id="581" transform="matrix(1 0 0 -1 0 792)" d="M839.559 463.293L842.548 463.293" stroke="#000000" stroke-width="0.398" fill="none" /><path id="590" transform="matrix(1 0 0 -1 0 792)" d="M890.966 463.293L893.955 463.293" stroke="#000000" stroke-width="0.398" fill="none" /><path id="601" transform="matrix(1 0 0 -1 0 792)" d="M1006.371 459.012L1006.371 472.579" stroke="#000000" stroke-width="0.398" fill="none" /><path id="604" transform="matrix(1 0 0 -1 0 792)" d="M1121.572 459.012L1121.572 472.579" stroke="#000000" stroke-width="0.398" fill="none" /><path id="605" transform="matrix(1 0 0 -1 0 792)" d="M677.218 445.445L677.218 459.012" stroke="#000000" stroke-width="0.398" fill="none" /><path id="618" transform="matrix(1 0 0 -1 0 792)" d="M778.588 449.727L781.577 449.727" stroke="#000000" stroke-width="0.398" fill="none" /><path id="626" transform="matrix(1 0 0 -1 0 792)" d="M824.017 449.727L827.006 449.727" stroke="#000000" stroke-width="0.398" fill="none" /><path id="629" transform="matrix(1 0 0 -1 0 792)" d="M1006.371 445.445L1006.371 459.012" stroke="#000000" stroke-width="0.398" fill="none" /><path id="631" transform="matrix(1 0 0 -1 0 792)" d="M1121.572 445.445L1121.572 459.012" stroke="#000000" stroke-width="0.398" fill="none" /><path id="632" transform="matrix(1 0 0 -1 0 792)" d="M677.218 431.878L677.218 445.445" stroke="#000000" stroke-width="0.398" fill="none" /><path id="641" transform="matrix(1 0 0 -1 0 792)" d="M1006.371 431.878L1006.371 445.445" stroke="#000000" stroke-width="0.398" fill="none" /><path id="643" transform="matrix(1 0 0 -1 0 792)" d="M1121.572 431.878L1121.572 445.445" stroke="#000000" stroke-width="0.398" fill="none" /><path id="644" transform="matrix(1 0 0 -1 0 792)" d="M677.019 431.679L1121.771 431.679" stroke="#000000" stroke-width="0.398" fill="none" /><path id="645" transform="matrix(1 0 0 -1 0 792)" d="M677.019 431.679L1121.771 431.679" stroke="#000000" stroke-width="0.398" fill="none" /><path id="646" transform="matrix(1 0 0 -1 0 792)" d="M677.218 390.832L677.218 431.48" stroke="#000000" stroke-width="0.398" fill="none" /><path id="782" transform="matrix(1 0 0 -1 0 792)" d="M1121.572 390.832L1121.572 431.48" stroke="#000000" stroke-width="0.398" fill="none" /><path id="783" transform="matrix(1 0 0 -1 0 792)" d="M677.218 377.266L677.218 390.833" stroke="#000000" stroke-width="0.398" fill="none" /><path id="798" transform="matrix(1 0 0 -1 0 792)" d="M790.543 381.547L793.532 381.547" stroke="#000000" stroke-width="0.398" fill="none" /><path id="810" transform="matrix(1 0 0 -1 0 792)" d="M1006.371 377.266L1006.371 390.833" stroke="#000000" stroke-width="0.398" fill="none" /><path id="812" transform="matrix(1 0 0 -1 0 792)" d="M1121.572 377.266L1121.572 390.833" stroke="#000000" stroke-width="0.398" fill="none" /><path id="813" transform="matrix(1 0 0 -1 0 792)" d="M677.218 363.699L677.218 377.266" stroke="#000000" stroke-width="0.398" fill="none" /><path id="826" transform="matrix(1 0 0 -1 0 792)" d="M778.588 367.981L781.577 367.981" stroke="#000000" stroke-width="0.398" fill="none" /><path id="834" transform="matrix(1 0 0 -1 0 792)" d="M824.017 367.981L827.006 367.981" stroke="#000000" stroke-width="0.398" fill="none" /><path id="837" transform="matrix(1 0 0 -1 0 792)" d="M1006.371 363.699L1006.371 377.266" stroke="#000000" stroke-width="0.398" fill="none" /><path id="839" transform="matrix(1 0 0 -1 0 792)" d="M1121.572 363.699L1121.572 377.266" stroke="#000000" stroke-width="0.398" fill="none" /><path id="840" transform="matrix(1 0 0 -1 0 792)" d="M677.218 350.132L677.218 363.699" stroke="#000000" stroke-width="0.398" fill="none" /><path id="849" transform="matrix(1 0 0 -1 0 792)" d="M1006.371 350.132L1006.371 363.699" stroke="#000000" stroke-width="0.398" fill="none" /><path id="851" transform="matrix(1 0 0 -1 0 792)" d="M1121.572 350.132L1121.572 363.699" stroke="#000000" stroke-width="0.398" fill="none" /><path id="852" transform="matrix(1 0 0 -1 0 792)" d="M677.019 349.933L1121.771 349.933" stroke="#000000" stroke-width="0.398" fill="none" /><path id="853" transform="matrix(1 0 0 -1 0 792)" d="M677.019 349.933L1121.771 349.933" stroke="#000000" stroke-width="0.398" fill="none" /><path id="854" transform="matrix(1 0 0 -1 0 792)" d="M677.218 322.636L677.218 349.734" stroke="#000000" stroke-width="0.398" fill="none" /><path id="923" transform="matrix(1 0 0 -1 0 792)" d="M1006.371 322.636L1006.371 349.734" stroke="#000000" stroke-width="0.398" fill="none" /><path id="925" transform="matrix(1 0 0 -1 0 792)" d="M1121.572 322.636L1121.572 349.734" stroke="#000000" stroke-width="0.398" fill="none" /><path id="926" transform="matrix(1 0 0 -1 0 792)" d="M677.019 322.436L1121.771 322.436" stroke="#000000" stroke-width="0.398" fill="none" /><path id="927" transform="matrix(1 0 0 -1 0 792)" d="M677.019 322.436L1121.771 322.436" stroke="#000000" stroke-width="0.398" fill="none" /><path id="928" transform="matrix(1 0 0 -1 0 792)" d="M677.218 281.589L677.218 322.237" stroke="#000000" stroke-width="0.398" fill="none" /><path id="1026" transform="matrix(1 0 0 -1 0 792)" d="M1006.371 281.589L1006.371 322.237" stroke="#000000" stroke-width="0.398" fill="none" /><path id="1028" transform="matrix(1 0 0 -1 0 792)" d="M1121.572 281.589L1121.572 322.237" stroke="#000000" stroke-width="0.398" fill="none" /><path id="1029" transform="matrix(1 0 0 -1 0 792)" d="M677.019 281.39L1121.771 281.39" stroke="#000000" stroke-width="0.398" fill="none" /><path id="1030" transform="matrix(1 0 0 -1 0 792)" d="M677.019 281.39L1121.771 281.39" stroke="#000000" stroke-width="0.398" fill="none" /><path id="1031" transform="matrix(1 0 0 -1 0 792)" d="M677.218 240.543L677.218 281.191" stroke="#000000" stroke-width="0.398" fill="none" /><path id="1152" transform="matrix(1 0 0 -1 0 792)" d="M1006.371 240.543L1006.371 281.191" stroke="#000000" stroke-width="0.398" fill="none" /><path id="1155" transform="matrix(1 0 0 -1 0 792)" d="M1121.572 240.543L1121.572 281.191" stroke="#000000" stroke-width="0.398" fill="none" /><path id="1156" transform="matrix(1 0 0 -1 0 792)" d="M677.019 240.344L1121.771 240.344" stroke="#000000" stroke-width="0.398" fill="none" /><path id="1157" transform="matrix(1 0 0 -1 0 792)" d="M677.019 240.344L1121.771 240.344" stroke="#000000" stroke-width="0.398" fill="none" /><path id="1158" transform="matrix(1 0 0 -1 0 792)" d="M677.218 185.948L677.218 240.145" stroke="#000000" stroke-width="0.398" fill="none" /><path id="1301" transform="matrix(1 0 0 -1 0 792)" d="M1006.371 185.948L1006.371 240.145" stroke="#000000" stroke-width="0.398" fill="none" /><path id="1303" transform="matrix(1 0 0 -1 0 792)" d="M1121.572 185.948L1121.572 240.145" stroke="#000000" stroke-width="0.398" fill="none" /><path id="1304" transform="matrix(1 0 0 -1 0 792)" d="M677.019 185.749L1121.771 185.749" stroke="#000000" stroke-width="0.398" fill="none" /><path id="1305" transform="matrix(1 0 0 -1 0 792)" d="M677.019 185.749L1121.771 185.749" stroke="#000000" stroke-width="0.398" fill="none" /><path id="1306" transform="matrix(1 0 0 -1 0 792)" d="M677.218 144.902L677.218 185.55" stroke="#000000" stroke-width="0.398" fill="none" /><path id="1396" transform="matrix(1 0 0 -1 0 792)" d="M1006.371 144.902L1006.371 185.55" stroke="#000000" stroke-width="0.398" fill="none" /><path id="1398" transform="matrix(1 0 0 -1 0 792)" d="M1121.572 144.902L1121.572 185.55" stroke="#000000" stroke-width="0.398" fill="none" /><path id="1399" transform="matrix(1 0 0 -1 0 792)" d="M677.019 144.703L1121.771 144.703" stroke="#000000" stroke-width="0.398" fill="none" /><path id="1400" transform="matrix(1 0 0 -1 0 792)" d="M677.019 144.703L1121.771 144.703" stroke="#000000" stroke-width="0.398" fill="none" /><path id="1401" transform="matrix(1 0 0 -1 0 792)" d="M677.218 117.405L677.218 144.503" stroke="#000000" stroke-width="0.398" fill="none" /><path id="1499" transform="matrix(1 0 0 -1 0 792)" d="M1121.572 117.405L1121.572 144.503" stroke="#000000" stroke-width="0.398" fill="none" /><path id="1500" transform="matrix(1 0 0 -1 0 792)" d="M677.218 103.838L677.218 117.405" stroke="#000000" stroke-width="0.398" fill="none" /><path id="1509" transform="matrix(1 0 0 -1 0 792)" d="M1006.371 103.838L1006.371 117.405" stroke="#000000" stroke-width="0.398" fill="none" /><path id="1512" transform="matrix(1 0 0 -1 0 792)" d="M1121.572 103.838L1121.572 117.405" stroke="#000000" stroke-width="0.398" fill="none" /><path id="1513" transform="matrix(1 0 0 -1 0 792)" d="M677.218 90.272L677.218 103.839" stroke="#000000" stroke-width="0.398" fill="none" /><path id="1522" transform="matrix(1 0 0 -1 0 792)" d="M1006.371 90.272L1006.371 103.839" stroke="#000000" stroke-width="0.398" fill="none" /><path id="1524" transform="matrix(1 0 0 -1 0 792)" d="M1121.572 90.272L1121.572 103.839" stroke="#000000" stroke-width="0.398" fill="none" /><path id="1525" transform="matrix(1 0 0 -1 0 792)" d="M677.019 90.073L1121.771 90.073" stroke="#000000" stroke-width="0.398" fill="none" /><path id="1526" transform="matrix(1 0 0 -1 0 792)" d="M666.067 681.587L939.71 681.587L939.71 681.587L939.71 697.1407L939.71 697.1407L666.067 697.1407z" stroke="#FFFFFF" stroke-width="1" fill="#FFFFFF" fill-rule="nonzero" /><path id="1542" transform="matrix(1 0 0 -1 0 792)" d="M666.067 648.136L1132.725 648.136L1132.725 648.136L1132.725 674.8305L1132.725 674.8305L666.067 674.8305z" stroke="#FFFFFF" stroke-width="1" fill="#FFFFFF" fill-rule="nonzero" /><path id="1616" transform="matrix(1 0 0 -1 0 792)" d="M54.067 721.28L520.722 721.28" stroke="#000000" stroke-width="0.498" fill="none" /><path id="1788" transform="matrix(1 0 0 -1 0 792)" d="M65.019 636.686L509.771 636.686" stroke="#000000" stroke-width="0.398" fill="none" /><path id="1789" transform="matrix(1 0 0 -1 0 792)" d="M65.019 636.686L509.771 636.686" stroke="#000000" stroke-width="0.398" fill="none" /><path id="1790" transform="matrix(1 0 0 -1 0 792)" d="M65.218 622.92L65.218 636.487" stroke="#000000" stroke-width="0.398" fill="none" /><path id="1791" transform="matrix(1 0 0 -1 0 792)" d="M65.417 622.92L394.172 622.92L394.172 636.487L65.417 636.487z" stroke="none" fill="#CCCCEB" fill-rule="nonzero" /><path id="1801" transform="matrix(1 0 0 -1 0 792)" d="M394.371 622.92L394.371 636.487" stroke="#000000" stroke-width="0.398" fill="none" /><path id="1802" transform="matrix(1 0 0 -1 0 792)" d="M394.57 622.92L509.372 622.92L509.372 636.487L394.57 636.487z" stroke="none" fill="#CCCCEB" fill-rule="nonzero" /><path id="1809" transform="matrix(1 0 0 -1 0 792)" d="M509.572 622.92L509.572 636.487" stroke="#000000" stroke-width="0.398" fill="none" /><path id="1810" transform="matrix(1 0 0 -1 0 792)" d="M65.019 622.72L509.771 622.72" stroke="#000000" stroke-width="0.398" fill="none" /><path id="1811" transform="matrix(1 0 0 -1 0 792)" d="M65.019 622.72L509.771 622.72" stroke="#000000" stroke-width="0.398" fill="none" /><path id="1812" transform="matrix(1 0 0 -1 0 792)" d="M65.019 622.322L509.771 622.322" stroke="#000000" stroke-width="0.398" fill="none" /><path id="1813" transform="matrix(1 0 0 -1 0 792)" d="M65.019 622.322L509.771 622.322" stroke="#000000" stroke-width="0.398" fill="none" /><path id="1814" transform="matrix(1 0 0 -1 0 792)" d="M65.218 581.475L65.218 622.123" stroke="#000000" stroke-width="0.398" fill="none" /><path id="1926" transform="matrix(1 0 0 -1 0 792)" d="M394.371 581.475L394.371 622.123" stroke="#000000" stroke-width="0.398" fill="none" /><path id="1928" transform="matrix(1 0 0 -1 0 792)" d="M509.572 581.475L509.572 622.123" stroke="#000000" stroke-width="0.398" fill="none" /><path id="1929" transform="matrix(1 0 0 -1 0 792)" d="M65.019 581.276L509.771 581.276" stroke="#000000" stroke-width="0.398" fill="none" /><path id="1930" transform="matrix(1 0 0 -1 0 792)" d="M65.019 581.276L509.771 581.276" stroke="#000000" stroke-width="0.398" fill="none" /><path id="1931" transform="matrix(1 0 0 -1 0 792)" d="M65.218 553.978L65.218 581.076" stroke="#000000" stroke-width="0.398" fill="none" /><path id="2056" transform="matrix(1 0 0 -1 0 792)" d="M509.572 553.978L509.572 581.076" stroke="#000000" stroke-width="0.398" fill="none" /><path id="2057" transform="matrix(1 0 0 -1 0 792)" d="M65.218 540.412L65.218 553.979" stroke="#000000" stroke-width="0.398" fill="none" /><path id="2072" transform="matrix(1 0 0 -1 0 792)" d="M178.543 544.693L181.532 544.693" stroke="#000000" stroke-width="0.398" fill="none" /><path id="2084" transform="matrix(1 0 0 -1 0 792)" d="M394.371 540.412L394.371 553.979" stroke="#000000" stroke-width="0.398" fill="none" /><path id="2087" transform="matrix(1 0 0 -1 0 792)" d="M509.572 540.412L509.572 553.979" stroke="#000000" stroke-width="0.398" fill="none" /><path id="2088" transform="matrix(1 0 0 -1 0 792)" d="M65.218 526.845L65.218 540.412" stroke="#000000" stroke-width="0.398" fill="none" /><path id="2103" transform="matrix(1 0 0 -1 0 792)" d="M178.543 531.126L181.532 531.126" stroke="#000000" stroke-width="0.398" fill="none" /><path id="2108" transform="matrix(1 0 0 -1 0 792)" d="M206.04 531.126L209.029 531.126" stroke="#000000" stroke-width="0.398" fill="none" /><path id="2112" transform="matrix(1 0 0 -1 0 792)" d="M227.559 531.126L230.548 531.126" stroke="#000000" stroke-width="0.398" fill="none" /><path id="2121" transform="matrix(1 0 0 -1 0 792)" d="M278.966 531.126L281.955 531.126" stroke="#000000" stroke-width="0.398" fill="none" /><path id="2132" transform="matrix(1 0 0 -1 0 792)" d="M394.371 526.845L394.371 540.412" stroke="#000000" stroke-width="0.398" fill="none" /><path id="2135" transform="matrix(1 0 0 -1 0 792)" d="M509.572 526.845L509.572 540.412" stroke="#000000" stroke-width="0.398" fill="none" /><path id="2136" transform="matrix(1 0 0 -1 0 792)" d="M65.218 513.278L65.218 526.845" stroke="#000000" stroke-width="0.398" fill="none" /><path id="2151" transform="matrix(1 0 0 -1 0 792)" d="M178.543 517.56L181.532 517.56" stroke="#000000" stroke-width="0.398" fill="none" /><path id="2156" transform="matrix(1 0 0 -1 0 792)" d="M206.04 517.56L209.029 517.56" stroke="#000000" stroke-width="0.398" fill="none" /><path id="2160" transform="matrix(1 0 0 -1 0 792)" d="M227.559 517.56L230.548 517.56" stroke="#000000" stroke-width="0.398" fill="none" /><path id="2169" transform="matrix(1 0 0 -1 0 792)" d="M278.966 517.56L281.955 517.56" stroke="#000000" stroke-width="0.398" fill="none" /><path id="2180" transform="matrix(1 0 0 -1 0 792)" d="M394.371 513.278L394.371 526.845" stroke="#000000" stroke-width="0.398" fill="none" /><path id="2183" transform="matrix(1 0 0 -1 0 792)" d="M509.572 513.278L509.572 526.845" stroke="#000000" stroke-width="0.398" fill="none" /><path id="2184" transform="matrix(1 0 0 -1 0 792)" d="M65.218 499.712L65.218 513.279" stroke="#000000" stroke-width="0.398" fill="none" /><path id="2199" transform="matrix(1 0 0 -1 0 792)" d="M178.543 503.993L181.532 503.993" stroke="#000000" stroke-width="0.398" fill="none" /><path id="2204" transform="matrix(1 0 0 -1 0 792)" d="M206.04 503.993L209.029 503.993" stroke="#000000" stroke-width="0.398" fill="none" /><path id="2208" transform="matrix(1 0 0 -1 0 792)" d="M227.559 503.993L230.548 503.993" stroke="#000000" stroke-width="0.398" fill="none" /><path id="2217" transform="matrix(1 0 0 -1 0 792)" d="M278.966 503.993L281.955 503.993" stroke="#000000" stroke-width="0.398" fill="none" /><path id="2228" transform="matrix(1 0 0 -1 0 792)" d="M394.371 499.712L394.371 513.279" stroke="#000000" stroke-width="0.398" fill="none" /><path id="2231" transform="matrix(1 0 0 -1 0 792)" d="M509.572 499.712L509.572 513.279" stroke="#000000" stroke-width="0.398" fill="none" /><path id="2232" transform="matrix(1 0 0 -1 0 792)" d="M65.218 486.145L65.218 499.712" stroke="#000000" stroke-width="0.398" fill="none" /><path id="2247" transform="matrix(1 0 0 -1 0 792)" d="M178.543 490.427L181.532 490.427" stroke="#000000" stroke-width="0.398" fill="none" /><path id="2252" transform="matrix(1 0 0 -1 0 792)" d="M206.04 490.427L209.029 490.427" stroke="#000000" stroke-width="0.398" fill="none" /><path id="2256" transform="matrix(1 0 0 -1 0 792)" d="M227.559 490.427L230.548 490.427" stroke="#000000" stroke-width="0.398" fill="none" /><path id="2265" transform="matrix(1 0 0 -1 0 792)" d="M278.966 490.427L281.955 490.427" stroke="#000000" stroke-width="0.398" fill="none" /><path id="2276" transform="matrix(1 0 0 -1 0 792)" d="M394.371 486.145L394.371 499.712" stroke="#000000" stroke-width="0.398" fill="none" /><path id="2279" transform="matrix(1 0 0 -1 0 792)" d="M509.572 486.145L509.572 499.712" stroke="#000000" stroke-width="0.398" fill="none" /><path id="2280" transform="matrix(1 0 0 -1 0 792)" d="M65.218 472.578L65.218 486.145" stroke="#000000" stroke-width="0.398" fill="none" /><path id="2295" transform="matrix(1 0 0 -1 0 792)" d="M178.543 476.86L181.532 476.86" stroke="#000000" stroke-width="0.398" fill="none" /><path id="2300" transform="matrix(1 0 0 -1 0 792)" d="M206.04 476.86L209.029 476.86" stroke="#000000" stroke-width="0.398" fill="none" /><path id="2304" transform="matrix(1 0 0 -1 0 792)" d="M227.559 476.86L230.548 476.86" stroke="#000000" stroke-width="0.398" fill="none" /><path id="2313" transform="matrix(1 0 0 -1 0 792)" d="M278.966 476.86L281.955 476.86" stroke="#000000" stroke-width="0.398" fill="none" /><path id="2324" transform="matrix(1 0 0 -1 0 792)" d="M394.371 472.578L394.371 486.145" stroke="#000000" stroke-width="0.398" fill="none" /><path id="2327" transform="matrix(1 0 0 -1 0 792)" d="M509.572 472.578L509.572 486.145" stroke="#000000" stroke-width="0.398" fill="none" /><path id="2328" transform="matrix(1 0 0 -1 0 792)" d="M65.218 459.012L65.218 472.579" stroke="#000000" stroke-width="0.398" fill="none" /><path id="2343" transform="matrix(1 0 0 -1 0 792)" d="M178.543 463.293L181.532 463.293" stroke="#000000" stroke-width="0.398" fill="none" /><path id="2348" transform="matrix(1 0 0 -1 0 792)" d="M206.04 463.293L209.029 463.293" stroke="#000000" stroke-width="0.398" fill="none" /><path id="2352" transform="matrix(1 0 0 -1 0 792)" d="M227.559 463.293L230.548 463.293" stroke="#000000" stroke-width="0.398" fill="none" /><path id="2361" transform="matrix(1 0 0 -1 0 792)" d="M278.966 463.293L281.955 463.293" stroke="#000000" stroke-width="0.398" fill="none" /><path id="2372" transform="matrix(1 0 0 -1 0 792)" d="M394.371 459.012L394.371 472.579" stroke="#000000" stroke-width="0.398" fill="none" /><path id="2375" transform="matrix(1 0 0 -1 0 792)" d="M509.572 459.012L509.572 472.579" stroke="#000000" stroke-width="0.398" fill="none" /><path id="2376" transform="matrix(1 0 0 -1 0 792)" d="M65.218 445.445L65.218 459.012" stroke="#000000" stroke-width="0.398" fill="none" /><path id="2389" transform="matrix(1 0 0 -1 0 792)" d="M166.588 449.727L169.577 449.727" stroke="#000000" stroke-width="0.398" fill="none" /><path id="2397" transform="matrix(1 0 0 -1 0 792)" d="M212.017 449.727L215.006 449.727" stroke="#000000" stroke-width="0.398" fill="none" /><path id="2400" transform="matrix(1 0 0 -1 0 792)" d="M394.371 445.445L394.371 459.012" stroke="#000000" stroke-width="0.398" fill="none" /><path id="2402" transform="matrix(1 0 0 -1 0 792)" d="M509.572 445.445L509.572 459.012" stroke="#000000" stroke-width="0.398" fill="none" /><path id="2403" transform="matrix(1 0 0 -1 0 792)" d="M65.218 431.878L65.218 445.445" stroke="#000000" stroke-width="0.398" fill="none" /><path id="2412" transform="matrix(1 0 0 -1 0 792)" d="M394.371 431.878L394.371 445.445" stroke="#000000" stroke-width="0.398" fill="none" /><path id="2414" transform="matrix(1 0 0 -1 0 792)" d="M509.572 431.878L509.572 445.445" stroke="#000000" stroke-width="0.398" fill="none" /><path id="2415" transform="matrix(1 0 0 -1 0 792)" d="M65.019 431.679L509.771 431.679" stroke="#000000" stroke-width="0.398" fill="none" /><path id="2416" transform="matrix(1 0 0 -1 0 792)" d="M65.019 431.679L509.771 431.679" stroke="#000000" stroke-width="0.398" fill="none" /><path id="2417" transform="matrix(1 0 0 -1 0 792)" d="M65.218 390.832L65.218 431.48" stroke="#000000" stroke-width="0.398" fill="none" /><path id="2553" transform="matrix(1 0 0 -1 0 792)" d="M509.572 390.832L509.572 431.48" stroke="#000000" stroke-width="0.398" fill="none" /><path id="2554" transform="matrix(1 0 0 -1 0 792)" d="M65.218 377.266L65.218 390.833" stroke="#000000" stroke-width="0.398" fill="none" /><path id="2569" transform="matrix(1 0 0 -1 0 792)" d="M178.543 381.547L181.532 381.547" stroke="#000000" stroke-width="0.398" fill="none" /><path id="2581" transform="matrix(1 0 0 -1 0 792)" d="M394.371 377.266L394.371 390.833" stroke="#000000" stroke-width="0.398" fill="none" /><path id="2583" transform="matrix(1 0 0 -1 0 792)" d="M509.572 377.266L509.572 390.833" stroke="#000000" stroke-width="0.398" fill="none" /><path id="2584" transform="matrix(1 0 0 -1 0 792)" d="M65.218 363.699L65.218 377.266" stroke="#000000" stroke-width="0.398" fill="none" /><path id="2597" transform="matrix(1 0 0 -1 0 792)" d="M166.588 367.981L169.577 367.981" stroke="#000000" stroke-width="0.398" fill="none" /><path id="2605" transform="matrix(1 0 0 -1 0 792)" d="M212.017 367.981L215.006 367.981" stroke="#000000" stroke-width="0.398" fill="none" /><path id="2608" transform="matrix(1 0 0 -1 0 792)" d="M394.371 363.699L394.371 377.266" stroke="#000000" stroke-width="0.398" fill="none" /><path id="2610" transform="matrix(1 0 0 -1 0 792)" d="M509.572 363.699L509.572 377.266" stroke="#000000" stroke-width="0.398" fill="none" /><path id="2611" transform="matrix(1 0 0 -1 0 792)" d="M65.218 350.132L65.218 363.699" stroke="#000000" stroke-width="0.398" fill="none" /><path id="2620" transform="matrix(1 0 0 -1 0 792)" d="M394.371 350.132L394.371 363.699" stroke="#000000" stroke-width="0.398" fill="none" /><path id="2622" transform="matrix(1 0 0 -1 0 792)" d="M509.572 350.132L509.572 363.699" stroke="#000000" stroke-width="0.398" fill="none" /><path id="2623" transform="matrix(1 0 0 -1 0 792)" d="M65.019 349.933L509.771 349.933" stroke="#000000" stroke-width="0.398" fill="none" /><path id="2624" transform="matrix(1 0 0 -1 0 792)" d="M65.019 349.933L509.771 349.933" stroke="#000000" stroke-width="0.398" fill="none" /><path id="2625" transform="matrix(1 0 0 -1 0 792)" d="M65.218 322.636L65.218 349.734" stroke="#000000" stroke-width="0.398" fill="none" /><path id="2694" transform="matrix(1 0 0 -1 0 792)" d="M394.371 322.636L394.371 349.734" stroke="#000000" stroke-width="0.398" fill="none" /><path id="2696" transform="matrix(1 0 0 -1 0 792)" d="M509.572 322.636L509.572 349.734" stroke="#000000" stroke-width="0.398" fill="none" /><path id="2697" transform="matrix(1 0 0 -1 0 792)" d="M65.019 322.436L509.771 322.436" stroke="#000000" stroke-width="0.398" fill="none" /><path id="2698" transform="matrix(1 0 0 -1 0 792)" d="M65.019 322.436L509.771 322.436" stroke="#000000" stroke-width="0.398" fill="none" /><path id="2699" transform="matrix(1 0 0 -1 0 792)" d="M65.218 281.589L65.218 322.237" stroke="#000000" stroke-width="0.398" fill="none" /><path id="2797" transform="matrix(1 0 0 -1 0 792)" d="M394.371 281.589L394.371 322.237" stroke="#000000" stroke-width="0.398" fill="none" /><path id="2799" transform="matrix(1 0 0 -1 0 792)" d="M509.572 281.589L509.572 322.237" stroke="#000000" stroke-width="0.398" fill="none" /><path id="2800" transform="matrix(1 0 0 -1 0 792)" d="M65.019 281.39L509.771 281.39" stroke="#000000" stroke-width="0.398" fill="none" /><path id="2801" transform="matrix(1 0 0 -1 0 792)" d="M65.019 281.39L509.771 281.39" stroke="#000000" stroke-width="0.398" fill="none" /><path id="2802" transform="matrix(1 0 0 -1 0 792)" d="M65.218 240.543L65.218 281.191" stroke="#000000" stroke-width="0.398" fill="none" /><path id="2923" transform="matrix(1 0 0 -1 0 792)" d="M394.371 240.543L394.371 281.191" stroke="#000000" stroke-width="0.398" fill="none" /><path id="2926" transform="matrix(1 0 0 -1 0 792)" d="M509.572 240.543L509.572 281.191" stroke="#000000" stroke-width="0.398" fill="none" /><path id="2927" transform="matrix(1 0 0 -1 0 792)" d="M65.019 240.344L509.771 240.344" stroke="#000000" stroke-width="0.398" fill="none" /><path id="2928" transform="matrix(1 0 0 -1 0 792)" d="M65.019 240.344L509.771 240.344" stroke="#000000" stroke-width="0.398" fill="none" /><path id="2929" transform="matrix(1 0 0 -1 0 792)" d="M65.218 185.948L65.218 240.145" stroke="#000000" stroke-width="0.398" fill="none" /><path id="3072" transform="matrix(1 0 0 -1 0 792)" d="M394.371 185.948L394.371 240.145" stroke="#000000" stroke-width="0.398" fill="none" /><path id="3074" transform="matrix(1 0 0 -1 0 792)" d="M509.572 185.948L509.572 240.145" stroke="#000000" stroke-width="0.398" fill="none" /><path id="3075" transform="matrix(1 0 0 -1 0 792)" d="M65.019 185.749L509.771 185.749" stroke="#000000" stroke-width="0.398" fill="none" /><path id="3076" transform="matrix(1 0 0 -1 0 792)" d="M65.019 185.749L509.771 185.749" stroke="#000000" stroke-width="0.398" fill="none" /><path id="3077" transform="matrix(1 0 0 -1 0 792)" d="M65.218 144.902L65.218 185.55" stroke="#000000" stroke-width="0.398" fill="none" /><path id="3167" transform="matrix(1 0 0 -1 0 792)" d="M394.371 144.902L394.371 185.55" stroke="#000000" stroke-width="0.398" fill="none" /><path id="3169" transform="matrix(1 0 0 -1 0 792)" d="M509.572 144.902L509.572 185.55" stroke="#000000" stroke-width="0.398" fill="none" /><path id="3170" transform="matrix(1 0 0 -1 0 792)" d="M65.019 144.703L509.771 144.703" stroke="#000000" stroke-width="0.398" fill="none" /><path id="3171" transform="matrix(1 0 0 -1 0 792)" d="M65.019 144.703L509.771 144.703" stroke="#000000" stroke-width="0.398" fill="none" /><path id="3172" transform="matrix(1 0 0 -1 0 792)" d="M65.218 117.405L65.218 144.503" stroke="#000000" stroke-width="0.398" fill="none" /><path id="3270" transform="matrix(1 0 0 -1 0 792)" d="M509.572 117.405L509.572 144.503" stroke="#000000" stroke-width="0.398" fill="none" /><path id="3271" transform="matrix(1 0 0 -1 0 792)" d="M65.218 103.838L65.218 117.405" stroke="#000000" stroke-width="0.398" fill="none" /><path id="3280" transform="matrix(1 0 0 -1 0 792)" d="M394.371 103.838L394.371 117.405" stroke="#000000" stroke-width="0.398" fill="none" /><path id="3283" transform="matrix(1 0 0 -1 0 792)" d="M509.572 103.838L509.572 117.405" stroke="#000000" stroke-width="0.398" fill="none" /><path id="3284" transform="matrix(1 0 0 -1 0 792)" d="M65.218 90.272L65.218 103.839" stroke="#000000" stroke-width="0.398" fill="none" /><path id="3293" transform="matrix(1 0 0 -1 0 792)" d="M394.371 90.272L394.371 103.839" stroke="#000000" stroke-width="0.398" fill="none" /><path id="3295" transform="matrix(1 0 0 -1 0 792)" d="M509.572 90.272L509.572 103.839" stroke="#000000" stroke-width="0.398" fill="none" /><path id="3296" transform="matrix(1 0 0 -1 0 792)" d="M65.019 90.073L509.771 90.073" stroke="#000000" stroke-width="0.398" fill="none" /></g></g></svg>