<svg xmlns="http://www.w3.org/2000/svg" xmlns:xlink="http://www.w3.org/1999/xlink" id="body_79" preserveAspectRatio="xMinYMin meet" viewBox="0 0 1632 1056"><defs><clipPath id="1"><path id="" clip-rule="evenodd" transform="matrix(1 0 0 1 0 0)" d="M0 792L0 0L0 0L1224 0L1224 0L1224 792L1224 792L0 792z" /></clipPath></defs><g transform="matrix(1.333333 0 0 1.333333 0 0)"><g clip-path="url(#1)"><path id="149" transform="matrix(1 0 0 -1 0 792)" d="M804.429 271.263L807.418 271.263" stroke="#000000" stroke-width="0.398" fill="none" /><path id="150" transform="matrix(1 0 0 -1 0 792)" d="M900.953 271.263L903.942 271.263" stroke="#000000" stroke-width="0.398" fill="none" /><path id="151" transform="matrix(1 0 0 -1 0 792)" d="M870.559 194.486L873.548 194.486" stroke="#000000" stroke-width="0.398" fill="none" /><path id="152" transform="matrix(1 0 0 -1 0 792)" d="M921.966 194.486L924.955 194.486" stroke="#000000" stroke-width="0.398" fill="none" /><path id="186" transform="matrix(1 0 0 -1 0 792)" d="M718.296 472.2L1168.588 472.2L1168.588 472.2L1168.588 498.8945L1168.588 498.8945L718.296 498.8945z" stroke="#FFFFFF" stroke-width="1" fill="#FFFFFF" fill-rule="nonzero" /><path id="233" transform="matrix(1 0 0 -1 0 792)" d="M718.296 411.714L921.13 411.714L921.13 411.714L921.13 432.2668L921.13 432.2668L718.296 432.2668z" stroke="#FFFFFF" stroke-width="1" fill="#FFFFFF" fill-rule="nonzero" /><path id="256" transform="matrix(1 0 0 -1 0 792)" d="M718.296 390.638L971.453 390.638L971.453 390.638L971.453 411.1908L971.453 411.1908L718.296 411.1908z" stroke="#FFFFFF" stroke-width="1" fill="#FFFFFF" fill-rule="nonzero" /><path id="278" transform="matrix(1 0 0 -1 0 792)" d="M718.296 342.927L947.344 342.927L947.344 342.927L947.344 363.4798L947.344 363.4798L718.296 363.4798z" stroke="#FFFFFF" stroke-width="1" fill="#FFFFFF" fill-rule="nonzero" /><path id="302" transform="matrix(1 0 0 -1 0 792)" d="M718.296 321.851L1168.587 321.851L1168.587 321.851L1168.587 342.4038L1168.587 342.4038L718.296 342.4038z" stroke="#FFFFFF" stroke-width="1" fill="#FFFFFF" fill-rule="nonzero" /><path id="355" transform="matrix(1 0 0 -1 0 792)" d="M729.206 315.71L1025.824 315.71L1025.824 315.71L1025.824 328.8555L1025.824 328.8555L729.206 328.8555z" stroke="#FFFFFF" stroke-width="1" fill="#FFFFFF" fill-rule="nonzero" /><path id="375" transform="matrix(1 0 0 -1 0 792)" d="M718.296 260.591L1015.942 260.591L1015.942 260.591L1015.942 281.1437L1015.942 281.1437L718.296 281.1437z" stroke="#FFFFFF" stroke-width="1" fill="#FFFFFF" fill-rule="nonzero" /><path id="414" transform="matrix(1 0 0 -1 0 792)" d="M718.296 239.515L1072.669 239.515L1072.669 239.515L1072.669 260.0677L1072.669 260.0677L718.296 260.0677z" stroke="#FFFFFF" stroke-width="1" fill="#FFFFFF" fill-rule="nonzero" /><path id="453" transform="matrix(1 0 0 -1 0 792)" d="M718.296 218.439L1127.345 218.439L1127.345 218.439L1127.345 238.9917L1127.345 238.9917L718.296 238.9917z" stroke="#FFFFFF" stroke-width="1" fill="#FFFFFF" fill-rule="nonzero" /><path id="492" transform="matrix(1 0 0 -1 0 792)" d="M718.296 197.363L1168.592 197.363L1168.592 197.363L1168.592 217.9157L1168.592 217.9157L718.296 217.9157z" stroke="#FFFFFF" stroke-width="1" fill="#FFFFFF" fill-rule="nonzero" /><path id="525" transform="matrix(1 0 0 -1 0 792)" d="M729.206 177.34L1168.588 177.34L1168.588 177.34L1168.588 204.3672L1168.588 204.3672L729.206 204.3672z" stroke="#FFFFFF" stroke-width="1" fill="#FFFFFF" fill-rule="nonzero" /><path id="637" transform="matrix(1 0 0 -1 0 792)" d="M718.296 149.188L1078.589 149.188L1078.589 149.188L1078.589 169.7407L1078.589 169.7407L718.296 169.7407z" stroke="#FFFFFF" stroke-width="1" fill="#FFFFFF" fill-rule="nonzero" /><path id="681" transform="matrix(1 0 0 -1 0 792)" d="M718.296 101.477L1168.59 101.477L1168.59 101.477L1168.59 122.0297L1168.59 122.0297L718.296 122.0297z" stroke="#FFFFFF" stroke-width="1" fill="#FFFFFF" fill-rule="nonzero" /><path id="736" transform="matrix(1 0 0 -1 0 792)" d="M729.206 95.3356L989.563 95.3356L989.563 95.3356L989.563 108.4811L989.563 108.4811L729.206 108.4811z" stroke="#FFFFFF" stroke-width="1" fill="#FFFFFF" fill-rule="nonzero" /><path id="758" transform="matrix(1 0 0 -1 0 792)" d="M701.933 65.887L943.405 65.887L943.405 65.887L943.405 80.0798L943.405 80.0798L701.933 80.0798z" stroke="#FFFFFF" stroke-width="1" fill="#FFFFFF" fill-rule="nonzero" /><path id="1318" transform="matrix(1 0 0 -1 0 792)" d="M192.429 271.263L195.418 271.263" stroke="#000000" stroke-width="0.398" fill="none" /><path id="1334" transform="matrix(1 0 0 -1 0 792)" d="M288.953 271.263L291.942 271.263" stroke="#000000" stroke-width="0.398" fill="none" /><path id="1608" transform="matrix(1 0 0 -1 0 792)" d="M258.559 194.486L261.548 194.486" stroke="#000000" stroke-width="0.398" fill="none" /><path id="1617" transform="matrix(1 0 0 -1 0 792)" d="M309.966 194.486L312.955 194.486" stroke="#000000" stroke-width="0.398" fill="none" /></g></g></svg>