<svg xmlns="http://www.w3.org/2000/svg" xmlns:xlink="http://www.w3.org/1999/xlink" id="body_22" preserveAspectRatio="xMinYMin meet" viewBox="0 0 1632 1056"><defs><clipPath id="1"><path id="" clip-rule="evenodd" transform="matrix(1 0 0 1 0 0)" d="M0 792L0 0L0 0L1224 0L1224 0L1224 792L1224 792L0 792z" /></clipPath></defs><g transform="matrix(1.333333 0 0 1.333333 0 0)"><g clip-path="url(#1)"><path id="16" transform="matrix(1 0 0 -1 0 792)" d="M666.067 721.28L1132.722 721.28" stroke="#000000" stroke-width="0.498" fill="none" /><path id="17" transform="matrix(1 0 0 -1 0 792)" d="M677.019 696.423L1121.771 696.423" stroke="#000000" stroke-width="0.398" fill="none" /><path id="18" transform="matrix(1 0 0 -1 0 792)" d="M677.019 696.423L1121.771 696.423" stroke="#000000" stroke-width="0.398" fill="none" /><path id="19" transform="matrix(1 0 0 -1 0 792)" d="M677.218 682.658L677.218 696.225" stroke="#000000" stroke-width="0.398" fill="none" /><path id="20" transform="matrix(1 0 0 -1 0 792)" d="M677.417 682.658L1006.172 682.658L1006.172 696.225L677.417 696.225z" stroke="none" fill="#CCCCEB" fill-rule="nonzero" /><path id="30" transform="matrix(1 0 0 -1 0 792)" d="M1006.371 682.658L1006.371 696.225" stroke="#000000" stroke-width="0.398" fill="none" /><path id="31" transform="matrix(1 0 0 -1 0 792)" d="M1006.57 682.658L1121.372 682.658L1121.372 696.225L1006.57 696.225z" stroke="none" fill="#CCCCEB" fill-rule="nonzero" /><path id="38" transform="matrix(1 0 0 -1 0 792)" d="M1121.572 682.658L1121.572 696.225" stroke="#000000" stroke-width="0.398" fill="none" /><path id="39" transform="matrix(1 0 0 -1 0 792)" d="M677.019 682.458L1121.771 682.458" stroke="#000000" stroke-width="0.398" fill="none" /><path id="40" transform="matrix(1 0 0 -1 0 792)" d="M677.019 682.458L1121.771 682.458" stroke="#000000" stroke-width="0.398" fill="none" /><path id="41" transform="matrix(1 0 0 -1 0 792)" d="M677.019 682.06L1121.771 682.06" stroke="#000000" stroke-width="0.398" fill="none" /><path id="42" transform="matrix(1 0 0 -1 0 792)" d="M677.019 682.06L1121.771 682.06" stroke="#000000" stroke-width="0.398" fill="none" /><path id="43" transform="matrix(1 0 0 -1 0 792)" d="M677.019 682.06L1121.771 682.06" stroke="#000000" stroke-width="0.398" fill="none" /><path id="44" transform="matrix(1 0 0 -1 0 792)" d="M677.218 654.762L677.218 681.86" stroke="#000000" stroke-width="0.398" fill="none" /><path id="131" transform="matrix(1 0 0 -1 0 792)" d="M1006.371 654.762L1006.371 681.86" stroke="#000000" stroke-width="0.398" fill="none" /><path id="133" transform="matrix(1 0 0 -1 0 792)" d="M1121.572 654.762L1121.572 681.86" stroke="#000000" stroke-width="0.398" fill="none" /><path id="134" transform="matrix(1 0 0 -1 0 792)" d="M677.019 654.563L1121.771 654.563" stroke="#000000" stroke-width="0.398" fill="none" /><path id="135" transform="matrix(1 0 0 -1 0 792)" d="M677.019 654.563L1121.771 654.563" stroke="#000000" stroke-width="0.398" fill="none" /><path id="136" transform="matrix(1 0 0 -1 0 792)" d="M677.218 627.265L677.218 654.363" stroke="#000000" stroke-width="0.398" fill="none" /><path id="196" transform="matrix(1 0 0 -1 0 792)" d="M1006.371 627.265L1006.371 654.363" stroke="#000000" stroke-width="0.398" fill="none" /><path id="198" transform="matrix(1 0 0 -1 0 792)" d="M1121.572 627.265L1121.572 654.363" stroke="#000000" stroke-width="0.398" fill="none" /><path id="199" transform="matrix(1 0 0 -1 0 792)" d="M677.019 627.066L1121.771 627.066" stroke="#000000" stroke-width="0.398" fill="none" /><path id="200" transform="matrix(1 0 0 -1 0 792)" d="M677.019 627.066L1121.771 627.066" stroke="#000000" stroke-width="0.398" fill="none" /><path id="201" transform="matrix(1 0 0 -1 0 792)" d="M677.218 599.768L677.218 626.866" stroke="#000000" stroke-width="0.398" fill="none" /><path id="264" transform="matrix(1 0 0 -1 0 792)" d="M1006.371 599.768L1006.371 626.866" stroke="#000000" stroke-width="0.398" fill="none" /><path id="266" transform="matrix(1 0 0 -1 0 792)" d="M1121.572 599.768L1121.572 626.866" stroke="#000000" stroke-width="0.398" fill="none" /><path id="267" transform="matrix(1 0 0 -1 0 792)" d="M677.019 599.569L1121.771 599.569" stroke="#000000" stroke-width="0.398" fill="none" /><path id="268" transform="matrix(1 0 0 -1 0 792)" d="M677.019 599.569L1121.771 599.569" stroke="#000000" stroke-width="0.398" fill="none" /><path id="269" transform="matrix(1 0 0 -1 0 792)" d="M677.218 572.271L677.218 599.369" stroke="#000000" stroke-width="0.398" fill="none" /><path id="340" transform="matrix(1 0 0 -1 0 792)" d="M1006.371 572.271L1006.371 599.369" stroke="#000000" stroke-width="0.398" fill="none" /><path id="342" transform="matrix(1 0 0 -1 0 792)" d="M1121.572 572.271L1121.572 599.369" stroke="#000000" stroke-width="0.398" fill="none" /><path id="343" transform="matrix(1 0 0 -1 0 792)" d="M677.019 572.072L1121.771 572.072" stroke="#000000" stroke-width="0.398" fill="none" /><path id="344" transform="matrix(1 0 0 -1 0 792)" d="M677.019 572.072L1121.771 572.072" stroke="#000000" stroke-width="0.398" fill="none" /><path id="345" transform="matrix(1 0 0 -1 0 792)" d="M677.218 544.775L677.218 571.873" stroke="#000000" stroke-width="0.398" fill="none" /><path id="411" transform="matrix(1 0 0 -1 0 792)" d="M1006.371 544.775L1006.371 571.873" stroke="#000000" stroke-width="0.398" fill="none" /><path id="413" transform="matrix(1 0 0 -1 0 792)" d="M1121.572 544.775L1121.572 571.873" stroke="#000000" stroke-width="0.398" fill="none" /><path id="414" transform="matrix(1 0 0 -1 0 792)" d="M677.019 544.575L1121.771 544.575" stroke="#000000" stroke-width="0.398" fill="none" /><path id="415" transform="matrix(1 0 0 -1 0 792)" d="M677.019 544.575L1121.771 544.575" stroke="#000000" stroke-width="0.398" fill="none" /><path id="416" transform="matrix(1 0 0 -1 0 792)" d="M677.218 517.278L677.218 544.376" stroke="#000000" stroke-width="0.398" fill="none" /><path id="477" transform="matrix(1 0 0 -1 0 792)" d="M1006.371 517.278L1006.371 544.376" stroke="#000000" stroke-width="0.398" fill="none" /><path id="479" transform="matrix(1 0 0 -1 0 792)" d="M1121.572 517.278L1121.572 544.376" stroke="#000000" stroke-width="0.398" fill="none" /><path id="480" transform="matrix(1 0 0 -1 0 792)" d="M677.019 517.079L1121.771 517.079" stroke="#000000" stroke-width="0.398" fill="none" /><path id="481" transform="matrix(1 0 0 -1 0 792)" d="M677.019 517.079L1121.771 517.079" stroke="#000000" stroke-width="0.398" fill="none" /><path id="482" transform="matrix(1 0 0 -1 0 792)" d="M677.218 503.33L677.218 516.879" stroke="#000000" stroke-width="0.398" fill="none" /><path id="483" transform="matrix(1 0 0 -1 0 792)" d="M1121.572 503.33L1121.572 516.879" stroke="#000000" stroke-width="0.398" fill="none" /><path id="484" transform="matrix(1 0 0 -1 0 792)" d="M677.019 503.131L1121.771 503.131" stroke="#000000" stroke-width="0.398" fill="none" /><path id="485" transform="matrix(1 0 0 -1 0 792)" d="M677.019 503.131L1121.771 503.131" stroke="#000000" stroke-width="0.398" fill="none" /><path id="486" transform="matrix(1 0 0 -1 0 792)" d="M677.218 462.284L677.218 502.932" stroke="#000000" stroke-width="0.398" fill="none" /><path id="588" transform="matrix(1 0 0 -1 0 792)" d="M1006.371 462.284L1006.371 502.932" stroke="#000000" stroke-width="0.398" fill="none" /><path id="590" transform="matrix(1 0 0 -1 0 792)" d="M1121.572 462.284L1121.572 502.932" stroke="#000000" stroke-width="0.398" fill="none" /><path id="591" transform="matrix(1 0 0 -1 0 792)" d="M677.019 462.085L1121.771 462.085" stroke="#000000" stroke-width="0.398" fill="none" /><path id="592" transform="matrix(1 0 0 -1 0 792)" d="M677.019 462.085L1121.771 462.085" stroke="#000000" stroke-width="0.398" fill="none" /><path id="593" transform="matrix(1 0 0 -1 0 792)" d="M677.218 421.238L677.218 461.886" stroke="#000000" stroke-width="0.398" fill="none" /><path id="707" transform="matrix(1 0 0 -1 0 792)" d="M1006.371 421.238L1006.371 461.886" stroke="#000000" stroke-width="0.398" fill="none" /><path id="709" transform="matrix(1 0 0 -1 0 792)" d="M1121.572 421.238L1121.572 461.886" stroke="#000000" stroke-width="0.398" fill="none" /><path id="710" transform="matrix(1 0 0 -1 0 792)" d="M677.019 421.039L1121.771 421.039" stroke="#000000" stroke-width="0.398" fill="none" /><path id="711" transform="matrix(1 0 0 -1 0 792)" d="M677.019 421.039L1121.771 421.039" stroke="#000000" stroke-width="0.398" fill="none" /><path id="712" transform="matrix(1 0 0 -1 0 792)" d="M677.218 393.741L677.218 420.839" stroke="#000000" stroke-width="0.398" fill="none" /><path id="780" transform="matrix(1 0 0 -1 0 792)" d="M1006.371 393.741L1006.371 420.839" stroke="#000000" stroke-width="0.398" fill="none" /><path id="782" transform="matrix(1 0 0 -1 0 792)" d="M1121.572 393.741L1121.572 420.839" stroke="#000000" stroke-width="0.398" fill="none" /><path id="783" transform="matrix(1 0 0 -1 0 792)" d="M677.019 393.542L1121.771 393.542" stroke="#000000" stroke-width="0.398" fill="none" /><path id="784" transform="matrix(1 0 0 -1 0 792)" d="M677.019 393.542L1121.771 393.542" stroke="#000000" stroke-width="0.398" fill="none" /><path id="785" transform="matrix(1 0 0 -1 0 792)" d="M677.218 366.244L677.218 393.342" stroke="#000000" stroke-width="0.398" fill="none" /><path id="865" transform="matrix(1 0 0 -1 0 792)" d="M1006.371 366.244L1006.371 393.342" stroke="#000000" stroke-width="0.398" fill="none" /><path id="867" transform="matrix(1 0 0 -1 0 792)" d="M1121.572 366.244L1121.572 393.342" stroke="#000000" stroke-width="0.398" fill="none" /><path id="868" transform="matrix(1 0 0 -1 0 792)" d="M677.019 366.045L1121.771 366.045" stroke="#000000" stroke-width="0.398" fill="none" /><path id="869" transform="matrix(1 0 0 -1 0 792)" d="M677.019 366.045L1121.771 366.045" stroke="#000000" stroke-width="0.398" fill="none" /><path id="870" transform="matrix(1 0 0 -1 0 792)" d="M677.218 325.198L677.218 365.846" stroke="#000000" stroke-width="0.398" fill="none" /><path id="962" transform="matrix(1 0 0 -1 0 792)" d="M1006.371 325.198L1006.371 365.846" stroke="#000000" stroke-width="0.398" fill="none" /><path id="964" transform="matrix(1 0 0 -1 0 792)" d="M1121.572 325.198L1121.572 365.846" stroke="#000000" stroke-width="0.398" fill="none" /><path id="965" transform="matrix(1 0 0 -1 0 792)" d="M677.019 324.999L1121.771 324.999" stroke="#000000" stroke-width="0.398" fill="none" /><path id="966" transform="matrix(1 0 0 -1 0 792)" d="M677.019 324.999L1121.771 324.999" stroke="#000000" stroke-width="0.398" fill="none" /><path id="967" transform="matrix(1 0 0 -1 0 792)" d="M677.218 284.152L677.218 324.8" stroke="#000000" stroke-width="0.398" fill="none" /><path id="1094" transform="matrix(1 0 0 -1 0 792)" d="M1006.371 284.152L1006.371 324.8" stroke="#000000" stroke-width="0.398" fill="none" /><path id="1096" transform="matrix(1 0 0 -1 0 792)" d="M1121.572 284.152L1121.572 324.8" stroke="#000000" stroke-width="0.398" fill="none" /><path id="1097" transform="matrix(1 0 0 -1 0 792)" d="M677.019 283.953L1121.771 283.953" stroke="#000000" stroke-width="0.398" fill="none" /><path id="1098" transform="matrix(1 0 0 -1 0 792)" d="M677.019 283.953L1121.771 283.953" stroke="#000000" stroke-width="0.398" fill="none" /><path id="1099" transform="matrix(1 0 0 -1 0 792)" d="M677.218 256.655L677.218 283.753" stroke="#000000" stroke-width="0.398" fill="none" /><path id="1185" transform="matrix(1 0 0 -1 0 792)" d="M1006.371 256.655L1006.371 283.753" stroke="#000000" stroke-width="0.398" fill="none" /><path id="1187" transform="matrix(1 0 0 -1 0 792)" d="M1121.572 256.655L1121.572 283.753" stroke="#000000" stroke-width="0.398" fill="none" /><path id="1188" transform="matrix(1 0 0 -1 0 792)" d="M677.019 256.456L1121.771 256.456" stroke="#000000" stroke-width="0.398" fill="none" /><path id="1189" transform="matrix(1 0 0 -1 0 792)" d="M677.019 256.456L1121.771 256.456" stroke="#000000" stroke-width="0.398" fill="none" /><path id="1190" transform="matrix(1 0 0 -1 0 792)" d="M677.218 229.158L677.218 256.256" stroke="#000000" stroke-width="0.398" fill="none" /><path id="1251" transform="matrix(1 0 0 -1 0 792)" d="M1006.371 229.158L1006.371 256.256" stroke="#000000" stroke-width="0.398" fill="none" /><path id="1253" transform="matrix(1 0 0 -1 0 792)" d="M1121.572 229.158L1121.572 256.256" stroke="#000000" stroke-width="0.398" fill="none" /><path id="1254" transform="matrix(1 0 0 -1 0 792)" d="M677.019 228.959L1121.771 228.959" stroke="#000000" stroke-width="0.398" fill="none" /><path id="1255" transform="matrix(1 0 0 -1 0 792)" d="M677.019 228.959L1121.771 228.959" stroke="#000000" stroke-width="0.398" fill="none" /><path id="1256" transform="matrix(1 0 0 -1 0 792)" d="M677.218 201.661L677.218 228.759" stroke="#000000" stroke-width="0.398" fill="none" /><path id="1320" transform="matrix(1 0 0 -1 0 792)" d="M1006.371 201.661L1006.371 228.759" stroke="#000000" stroke-width="0.398" fill="none" /><path id="1322" transform="matrix(1 0 0 -1 0 792)" d="M1121.572 201.661L1121.572 228.759" stroke="#000000" stroke-width="0.398" fill="none" /><path id="1323" transform="matrix(1 0 0 -1 0 792)" d="M677.019 201.462L1121.771 201.462" stroke="#000000" stroke-width="0.398" fill="none" /><path id="1324" transform="matrix(1 0 0 -1 0 792)" d="M677.019 201.462L1121.771 201.462" stroke="#000000" stroke-width="0.398" fill="none" /><path id="1325" transform="matrix(1 0 0 -1 0 792)" d="M677.218 187.714L677.218 201.263" stroke="#000000" stroke-width="0.398" fill="none" /><path id="1326" transform="matrix(1 0 0 -1 0 792)" d="M1121.572 187.714L1121.572 201.263" stroke="#000000" stroke-width="0.398" fill="none" /><path id="1327" transform="matrix(1 0 0 -1 0 792)" d="M677.019 187.514L1121.771 187.514" stroke="#000000" stroke-width="0.398" fill="none" /><path id="1328" transform="matrix(1 0 0 -1 0 792)" d="M677.019 187.514L1121.771 187.514" stroke="#000000" stroke-width="0.398" fill="none" /><path id="1329" transform="matrix(1 0 0 -1 0 792)" d="M677.218 173.749L677.218 187.316" stroke="#000000" stroke-width="0.398" fill="none" /><path id="1353" transform="matrix(1 0 0 -1 0 792)" d="M798.761 178.03L801.75 178.03" stroke="#000000" stroke-width="0.398" fill="none" /><path id="1365" transform="matrix(1 0 0 -1 0 792)" d="M868.101 178.03L871.09 178.03" stroke="#000000" stroke-width="0.398" fill="none" /><path id="1371" transform="matrix(1 0 0 -1 0 792)" d="M901.575 178.03L904.564 178.03" stroke="#000000" stroke-width="0.398" fill="none" /><path id="1378" transform="matrix(1 0 0 -1 0 792)" d="M1006.371 173.749L1006.371 187.316" stroke="#000000" stroke-width="0.398" fill="none" /><path id="1380" transform="matrix(1 0 0 -1 0 792)" d="M1121.572 173.749L1121.572 187.316" stroke="#000000" stroke-width="0.398" fill="none" /><path id="1381" transform="matrix(1 0 0 -1 0 792)" d="M677.019 173.549L1121.771 173.549" stroke="#000000" stroke-width="0.398" fill="none" /><path id="1382" transform="matrix(1 0 0 -1 0 792)" d="M677.019 173.549L1121.771 173.549" stroke="#000000" stroke-width="0.398" fill="none" /><path id="1383" transform="matrix(1 0 0 -1 0 792)" d="M677.218 159.783L677.218 173.35" stroke="#000000" stroke-width="0.398" fill="none" /><path id="1405" transform="matrix(1 0 0 -1 0 792)" d="M1006.371 159.783L1006.371 173.35" stroke="#000000" stroke-width="0.398" fill="none" /><path id="1407" transform="matrix(1 0 0 -1 0 792)" d="M1121.572 159.783L1121.572 173.35" stroke="#000000" stroke-width="0.398" fill="none" /><path id="1408" transform="matrix(1 0 0 -1 0 792)" d="M677.019 159.584L1121.771 159.584" stroke="#000000" stroke-width="0.398" fill="none" /><path id="1409" transform="matrix(1 0 0 -1 0 792)" d="M677.019 159.584L1121.771 159.584" stroke="#000000" stroke-width="0.398" fill="none" /><path id="1410" transform="matrix(1 0 0 -1 0 792)" d="M677.218 145.818L677.218 159.385" stroke="#000000" stroke-width="0.398" fill="none" /><path id="1434" transform="matrix(1 0 0 -1 0 792)" d="M798.761 150.1L801.75 150.1" stroke="#000000" stroke-width="0.398" fill="none" /><path id="1440" transform="matrix(1 0 0 -1 0 792)" d="M832.235 150.1L835.224 150.1" stroke="#000000" stroke-width="0.398" fill="none" /><path id="1447" transform="matrix(1 0 0 -1 0 792)" d="M871.688 150.1L874.677 150.1" stroke="#000000" stroke-width="0.398" fill="none" /><path id="1453" transform="matrix(1 0 0 -1 0 792)" d="M905.162 150.1L908.151 150.1" stroke="#000000" stroke-width="0.398" fill="none" /><path id="1460" transform="matrix(1 0 0 -1 0 792)" d="M1006.371 145.818L1006.371 159.385" stroke="#000000" stroke-width="0.398" fill="none" /><path id="1462" transform="matrix(1 0 0 -1 0 792)" d="M1121.572 145.818L1121.572 159.385" stroke="#000000" stroke-width="0.398" fill="none" /><path id="1463" transform="matrix(1 0 0 -1 0 792)" d="M677.019 145.619L1121.771 145.619" stroke="#000000" stroke-width="0.398" fill="none" /><path id="1464" transform="matrix(1 0 0 -1 0 792)" d="M677.019 145.619L1121.771 145.619" stroke="#000000" stroke-width="0.398" fill="none" /><path id="1465" transform="matrix(1 0 0 -1 0 792)" d="M677.218 131.871L677.218 145.42" stroke="#000000" stroke-width="0.398" fill="none" /><path id="1466" transform="matrix(1 0 0 -1 0 792)" d="M1121.572 131.871L1121.572 145.42" stroke="#000000" stroke-width="0.398" fill="none" /><path id="1467" transform="matrix(1 0 0 -1 0 792)" d="M677.019 131.671L1121.771 131.671" stroke="#000000" stroke-width="0.398" fill="none" /><path id="1468" transform="matrix(1 0 0 -1 0 792)" d="M677.019 131.671L1121.771 131.671" stroke="#000000" stroke-width="0.398" fill="none" /><path id="1469" transform="matrix(1 0 0 -1 0 792)" d="M677.218 117.905L677.218 131.472" stroke="#000000" stroke-width="0.398" fill="none" /><path id="1499" transform="matrix(1 0 0 -1 0 792)" d="M1006.371 117.905L1006.371 131.472" stroke="#000000" stroke-width="0.398" fill="none" /><path id="1501" transform="matrix(1 0 0 -1 0 792)" d="M1121.572 117.905L1121.572 131.472" stroke="#000000" stroke-width="0.398" fill="none" /><path id="1502" transform="matrix(1 0 0 -1 0 792)" d="M677.019 117.706L1121.771 117.706" stroke="#000000" stroke-width="0.398" fill="none" /><path id="1503" transform="matrix(1 0 0 -1 0 792)" d="M677.019 117.706L1121.771 117.706" stroke="#000000" stroke-width="0.398" fill="none" /><path id="1504" transform="matrix(1 0 0 -1 0 792)" d="M677.218 90.409L677.218 117.507" stroke="#000000" stroke-width="0.398" fill="none" /><path id="1572" transform="matrix(1 0 0 -1 0 792)" d="M1006.371 90.409L1006.371 117.507" stroke="#000000" stroke-width="0.398" fill="none" /><path id="1574" transform="matrix(1 0 0 -1 0 792)" d="M1121.572 90.409L1121.572 117.507" stroke="#000000" stroke-width="0.398" fill="none" /><path id="1575" transform="matrix(1 0 0 -1 0 792)" d="M677.019 90.209L1121.771 90.209" stroke="#000000" stroke-width="0.398" fill="none" /><path id="1576" transform="matrix(1 0 0 -1 0 792)" d="M677.019 90.209L1121.771 90.209" stroke="#000000" stroke-width="0.398" fill="none" /><path id="1577" transform="matrix(1 0 0 -1 0 792)" d="M677.218 76.443L677.218 90.01" stroke="#000000" stroke-width="0.398" fill="none" /><path id="1608" transform="matrix(1 0 0 -1 0 792)" d="M1006.371 76.443L1006.371 90.01" stroke="#000000" stroke-width="0.398" fill="none" /><path id="1610" transform="matrix(1 0 0 -1 0 792)" d="M1121.572 76.443L1121.572 90.01" stroke="#000000" stroke-width="0.398" fill="none" /><path id="1611" transform="matrix(1 0 0 -1 0 792)" d="M677.019 76.244L1121.771 76.244" stroke="#000000" stroke-width="0.398" fill="none" /><path id="1646" transform="matrix(1 0 0 -1 0 792)" d="M54.067 721.28L520.722 721.28" stroke="#000000" stroke-width="0.498" fill="none" /><path id="1647" transform="matrix(1 0 0 -1 0 792)" d="M65.019 696.423L509.771 696.423" stroke="#000000" stroke-width="0.398" fill="none" /><path id="1648" transform="matrix(1 0 0 -1 0 792)" d="M65.019 696.423L509.771 696.423" stroke="#000000" stroke-width="0.398" fill="none" /><path id="1649" transform="matrix(1 0 0 -1 0 792)" d="M65.218 682.658L65.218 696.225" stroke="#000000" stroke-width="0.398" fill="none" /><path id="1650" transform="matrix(1 0 0 -1 0 792)" d="M65.417 682.658L394.172 682.658L394.172 696.225L65.417 696.225z" stroke="none" fill="#CCCCEB" fill-rule="nonzero" /><path id="1660" transform="matrix(1 0 0 -1 0 792)" d="M394.371 682.658L394.371 696.225" stroke="#000000" stroke-width="0.398" fill="none" /><path id="1661" transform="matrix(1 0 0 -1 0 792)" d="M394.57 682.658L509.372 682.658L509.372 696.225L394.57 696.225z" stroke="none" fill="#CCCCEB" fill-rule="nonzero" /><path id="1668" transform="matrix(1 0 0 -1 0 792)" d="M509.572 682.658L509.572 696.225" stroke="#000000" stroke-width="0.398" fill="none" /><path id="1669" transform="matrix(1 0 0 -1 0 792)" d="M65.019 682.458L509.771 682.458" stroke="#000000" stroke-width="0.398" fill="none" /><path id="1670" transform="matrix(1 0 0 -1 0 792)" d="M65.019 682.458L509.771 682.458" stroke="#000000" stroke-width="0.398" fill="none" /><path id="1671" transform="matrix(1 0 0 -1 0 792)" d="M65.019 682.06L509.771 682.06" stroke="#000000" stroke-width="0.398" fill="none" /><path id="1672" transform="matrix(1 0 0 -1 0 792)" d="M65.019 682.06L509.771 682.06" stroke="#000000" stroke-width="0.398" fill="none" /><path id="1673" transform="matrix(1 0 0 -1 0 792)" d="M65.019 682.06L509.771 682.06" stroke="#000000" stroke-width="0.398" fill="none" /><path id="1674" transform="matrix(1 0 0 -1 0 792)" d="M65.218 654.762L65.218 681.86" stroke="#000000" stroke-width="0.398" fill="none" /><path id="1761" transform="matrix(1 0 0 -1 0 792)" d="M394.371 654.762L394.371 681.86" stroke="#000000" stroke-width="0.398" fill="none" /><path id="1763" transform="matrix(1 0 0 -1 0 792)" d="M509.572 654.762L509.572 681.86" stroke="#000000" stroke-width="0.398" fill="none" /><path id="1764" transform="matrix(1 0 0 -1 0 792)" d="M65.019 654.563L509.771 654.563" stroke="#000000" stroke-width="0.398" fill="none" /><path id="1765" transform="matrix(1 0 0 -1 0 792)" d="M65.019 654.563L509.771 654.563" stroke="#000000" stroke-width="0.398" fill="none" /><path id="1766" transform="matrix(1 0 0 -1 0 792)" d="M65.218 627.265L65.218 654.363" stroke="#000000" stroke-width="0.398" fill="none" /><path id="1826" transform="matrix(1 0 0 -1 0 792)" d="M394.371 627.265L394.371 654.363" stroke="#000000" stroke-width="0.398" fill="none" /><path id="1828" transform="matrix(1 0 0 -1 0 792)" d="M509.572 627.265L509.572 654.363" stroke="#000000" stroke-width="0.398" fill="none" /><path id="1829" transform="matrix(1 0 0 -1 0 792)" d="M65.019 627.066L509.771 627.066" stroke="#000000" stroke-width="0.398" fill="none" /><path id="1830" transform="matrix(1 0 0 -1 0 792)" d="M65.019 627.066L509.771 627.066" stroke="#000000" stroke-width="0.398" fill="none" /><path id="1831" transform="matrix(1 0 0 -1 0 792)" d="M65.218 599.768L65.218 626.866" stroke="#000000" stroke-width="0.398" fill="none" /><path id="1894" transform="matrix(1 0 0 -1 0 792)" d="M394.371 599.768L394.371 626.866" stroke="#000000" stroke-width="0.398" fill="none" /><path id="1896" transform="matrix(1 0 0 -1 0 792)" d="M509.572 599.768L509.572 626.866" stroke="#000000" stroke-width="0.398" fill="none" /><path id="1897" transform="matrix(1 0 0 -1 0 792)" d="M65.019 599.569L509.771 599.569" stroke="#000000" stroke-width="0.398" fill="none" /><path id="1898" transform="matrix(1 0 0 -1 0 792)" d="M65.019 599.569L509.771 599.569" stroke="#000000" stroke-width="0.398" fill="none" /><path id="1899" transform="matrix(1 0 0 -1 0 792)" d="M65.218 572.271L65.218 599.369" stroke="#000000" stroke-width="0.398" fill="none" /><path id="1970" transform="matrix(1 0 0 -1 0 792)" d="M394.371 572.271L394.371 599.369" stroke="#000000" stroke-width="0.398" fill="none" /><path id="1972" transform="matrix(1 0 0 -1 0 792)" d="M509.572 572.271L509.572 599.369" stroke="#000000" stroke-width="0.398" fill="none" /><path id="1973" transform="matrix(1 0 0 -1 0 792)" d="M65.019 572.072L509.771 572.072" stroke="#000000" stroke-width="0.398" fill="none" /><path id="1974" transform="matrix(1 0 0 -1 0 792)" d="M65.019 572.072L509.771 572.072" stroke="#000000" stroke-width="0.398" fill="none" /><path id="1975" transform="matrix(1 0 0 -1 0 792)" d="M65.218 544.775L65.218 571.873" stroke="#000000" stroke-width="0.398" fill="none" /><path id="2041" transform="matrix(1 0 0 -1 0 792)" d="M394.371 544.775L394.371 571.873" stroke="#000000" stroke-width="0.398" fill="none" /><path id="2043" transform="matrix(1 0 0 -1 0 792)" d="M509.572 544.775L509.572 571.873" stroke="#000000" stroke-width="0.398" fill="none" /><path id="2044" transform="matrix(1 0 0 -1 0 792)" d="M65.019 544.575L509.771 544.575" stroke="#000000" stroke-width="0.398" fill="none" /><path id="2045" transform="matrix(1 0 0 -1 0 792)" d="M65.019 544.575L509.771 544.575" stroke="#000000" stroke-width="0.398" fill="none" /><path id="2046" transform="matrix(1 0 0 -1 0 792)" d="M65.218 517.278L65.218 544.376" stroke="#000000" stroke-width="0.398" fill="none" /><path id="2107" transform="matrix(1 0 0 -1 0 792)" d="M394.371 517.278L394.371 544.376" stroke="#000000" stroke-width="0.398" fill="none" /><path id="2109" transform="matrix(1 0 0 -1 0 792)" d="M509.572 517.278L509.572 544.376" stroke="#000000" stroke-width="0.398" fill="none" /><path id="2110" transform="matrix(1 0 0 -1 0 792)" d="M65.019 517.079L509.771 517.079" stroke="#000000" stroke-width="0.398" fill="none" /><path id="2111" transform="matrix(1 0 0 -1 0 792)" d="M65.019 517.079L509.771 517.079" stroke="#000000" stroke-width="0.398" fill="none" /><path id="2112" transform="matrix(1 0 0 -1 0 792)" d="M65.218 503.33L65.218 516.879" stroke="#000000" stroke-width="0.398" fill="none" /><path id="2113" transform="matrix(1 0 0 -1 0 792)" d="M509.572 503.33L509.572 516.879" stroke="#000000" stroke-width="0.398" fill="none" /><path id="2114" transform="matrix(1 0 0 -1 0 792)" d="M65.019 503.131L509.771 503.131" stroke="#000000" stroke-width="0.398" fill="none" /><path id="2115" transform="matrix(1 0 0 -1 0 792)" d="M65.019 503.131L509.771 503.131" stroke="#000000" stroke-width="0.398" fill="none" /><path id="2116" transform="matrix(1 0 0 -1 0 792)" d="M65.218 462.284L65.218 502.932" stroke="#000000" stroke-width="0.398" fill="none" /><path id="2218" transform="matrix(1 0 0 -1 0 792)" d="M394.371 462.284L394.371 502.932" stroke="#000000" stroke-width="0.398" fill="none" /><path id="2220" transform="matrix(1 0 0 -1 0 792)" d="M509.572 462.284L509.572 502.932" stroke="#000000" stroke-width="0.398" fill="none" /><path id="2221" transform="matrix(1 0 0 -1 0 792)" d="M65.019 462.085L509.771 462.085" stroke="#000000" stroke-width="0.398" fill="none" /><path id="2222" transform="matrix(1 0 0 -1 0 792)" d="M65.019 462.085L509.771 462.085" stroke="#000000" stroke-width="0.398" fill="none" /><path id="2223" transform="matrix(1 0 0 -1 0 792)" d="M65.218 421.238L65.218 461.886" stroke="#000000" stroke-width="0.398" fill="none" /><path id="2337" transform="matrix(1 0 0 -1 0 792)" d="M394.371 421.238L394.371 461.886" stroke="#000000" stroke-width="0.398" fill="none" /><path id="2339" transform="matrix(1 0 0 -1 0 792)" d="M509.572 421.238L509.572 461.886" stroke="#000000" stroke-width="0.398" fill="none" /><path id="2340" transform="matrix(1 0 0 -1 0 792)" d="M65.019 421.039L509.771 421.039" stroke="#000000" stroke-width="0.398" fill="none" /><path id="2341" transform="matrix(1 0 0 -1 0 792)" d="M65.019 421.039L509.771 421.039" stroke="#000000" stroke-width="0.398" fill="none" /><path id="2342" transform="matrix(1 0 0 -1 0 792)" d="M65.218 393.741L65.218 420.839" stroke="#000000" stroke-width="0.398" fill="none" /><path id="2410" transform="matrix(1 0 0 -1 0 792)" d="M394.371 393.741L394.371 420.839" stroke="#000000" stroke-width="0.398" fill="none" /><path id="2412" transform="matrix(1 0 0 -1 0 792)" d="M509.572 393.741L509.572 420.839" stroke="#000000" stroke-width="0.398" fill="none" /><path id="2413" transform="matrix(1 0 0 -1 0 792)" d="M65.019 393.542L509.771 393.542" stroke="#000000" stroke-width="0.398" fill="none" /><path id="2414" transform="matrix(1 0 0 -1 0 792)" d="M65.019 393.542L509.771 393.542" stroke="#000000" stroke-width="0.398" fill="none" /><path id="2415" transform="matrix(1 0 0 -1 0 792)" d="M65.218 366.244L65.218 393.342" stroke="#000000" stroke-width="0.398" fill="none" /><path id="2495" transform="matrix(1 0 0 -1 0 792)" d="M394.371 366.244L394.371 393.342" stroke="#000000" stroke-width="0.398" fill="none" /><path id="2497" transform="matrix(1 0 0 -1 0 792)" d="M509.572 366.244L509.572 393.342" stroke="#000000" stroke-width="0.398" fill="none" /><path id="2498" transform="matrix(1 0 0 -1 0 792)" d="M65.019 366.045L509.771 366.045" stroke="#000000" stroke-width="0.398" fill="none" /><path id="2499" transform="matrix(1 0 0 -1 0 792)" d="M65.019 366.045L509.771 366.045" stroke="#000000" stroke-width="0.398" fill="none" /><path id="2500" transform="matrix(1 0 0 -1 0 792)" d="M65.218 325.198L65.218 365.846" stroke="#000000" stroke-width="0.398" fill="none" /><path id="2592" transform="matrix(1 0 0 -1 0 792)" d="M394.371 325.198L394.371 365.846" stroke="#000000" stroke-width="0.398" fill="none" /><path id="2594" transform="matrix(1 0 0 -1 0 792)" d="M509.572 325.198L509.572 365.846" stroke="#000000" stroke-width="0.398" fill="none" /><path id="2595" transform="matrix(1 0 0 -1 0 792)" d="M65.019 324.999L509.771 324.999" stroke="#000000" stroke-width="0.398" fill="none" /><path id="2596" transform="matrix(1 0 0 -1 0 792)" d="M65.019 324.999L509.771 324.999" stroke="#000000" stroke-width="0.398" fill="none" /><path id="2597" transform="matrix(1 0 0 -1 0 792)" d="M65.218 284.152L65.218 324.8" stroke="#000000" stroke-width="0.398" fill="none" /><path id="2724" transform="matrix(1 0 0 -1 0 792)" d="M394.371 284.152L394.371 324.8" stroke="#000000" stroke-width="0.398" fill="none" /><path id="2726" transform="matrix(1 0 0 -1 0 792)" d="M509.572 284.152L509.572 324.8" stroke="#000000" stroke-width="0.398" fill="none" /><path id="2727" transform="matrix(1 0 0 -1 0 792)" d="M65.019 283.953L509.771 283.953" stroke="#000000" stroke-width="0.398" fill="none" /><path id="2728" transform="matrix(1 0 0 -1 0 792)" d="M65.019 283.953L509.771 283.953" stroke="#000000" stroke-width="0.398" fill="none" /><path id="2729" transform="matrix(1 0 0 -1 0 792)" d="M65.218 256.655L65.218 283.753" stroke="#000000" stroke-width="0.398" fill="none" /><path id="2815" transform="matrix(1 0 0 -1 0 792)" d="M394.371 256.655L394.371 283.753" stroke="#000000" stroke-width="0.398" fill="none" /><path id="2817" transform="matrix(1 0 0 -1 0 792)" d="M509.572 256.655L509.572 283.753" stroke="#000000" stroke-width="0.398" fill="none" /><path id="2818" transform="matrix(1 0 0 -1 0 792)" d="M65.019 256.456L509.771 256.456" stroke="#000000" stroke-width="0.398" fill="none" /><path id="2819" transform="matrix(1 0 0 -1 0 792)" d="M65.019 256.456L509.771 256.456" stroke="#000000" stroke-width="0.398" fill="none" /><path id="2820" transform="matrix(1 0 0 -1 0 792)" d="M65.218 229.158L65.218 256.256" stroke="#000000" stroke-width="0.398" fill="none" /><path id="2881" transform="matrix(1 0 0 -1 0 792)" d="M394.371 229.158L394.371 256.256" stroke="#000000" stroke-width="0.398" fill="none" /><path id="2883" transform="matrix(1 0 0 -1 0 792)" d="M509.572 229.158L509.572 256.256" stroke="#000000" stroke-width="0.398" fill="none" /><path id="2884" transform="matrix(1 0 0 -1 0 792)" d="M65.019 228.959L509.771 228.959" stroke="#000000" stroke-width="0.398" fill="none" /><path id="2885" transform="matrix(1 0 0 -1 0 792)" d="M65.019 228.959L509.771 228.959" stroke="#000000" stroke-width="0.398" fill="none" /><path id="2886" transform="matrix(1 0 0 -1 0 792)" d="M65.218 201.661L65.218 228.759" stroke="#000000" stroke-width="0.398" fill="none" /><path id="2950" transform="matrix(1 0 0 -1 0 792)" d="M394.371 201.661L394.371 228.759" stroke="#000000" stroke-width="0.398" fill="none" /><path id="2952" transform="matrix(1 0 0 -1 0 792)" d="M509.572 201.661L509.572 228.759" stroke="#000000" stroke-width="0.398" fill="none" /><path id="2953" transform="matrix(1 0 0 -1 0 792)" d="M65.019 201.462L509.771 201.462" stroke="#000000" stroke-width="0.398" fill="none" /><path id="2954" transform="matrix(1 0 0 -1 0 792)" d="M65.019 201.462L509.771 201.462" stroke="#000000" stroke-width="0.398" fill="none" /><path id="2955" transform="matrix(1 0 0 -1 0 792)" d="M65.218 187.714L65.218 201.263" stroke="#000000" stroke-width="0.398" fill="none" /><path id="2956" transform="matrix(1 0 0 -1 0 792)" d="M509.572 187.714L509.572 201.263" stroke="#000000" stroke-width="0.398" fill="none" /><path id="2957" transform="matrix(1 0 0 -1 0 792)" d="M65.019 187.514L509.771 187.514" stroke="#000000" stroke-width="0.398" fill="none" /><path id="2958" transform="matrix(1 0 0 -1 0 792)" d="M65.019 187.514L509.771 187.514" stroke="#000000" stroke-width="0.398" fill="none" /><path id="2959" transform="matrix(1 0 0 -1 0 792)" d="M65.218 173.749L65.218 187.316" stroke="#000000" stroke-width="0.398" fill="none" /><path id="2983" transform="matrix(1 0 0 -1 0 792)" d="M186.761 178.03L189.75 178.03" stroke="#000000" stroke-width="0.398" fill="none" /><path id="2995" transform="matrix(1 0 0 -1 0 792)" d="M256.101 178.03L259.09 178.03" stroke="#000000" stroke-width="0.398" fill="none" /><path id="3001" transform="matrix(1 0 0 -1 0 792)" d="M289.575 178.03L292.564 178.03" stroke="#000000" stroke-width="0.398" fill="none" /><path id="3008" transform="matrix(1 0 0 -1 0 792)" d="M394.371 173.749L394.371 187.316" stroke="#000000" stroke-width="0.398" fill="none" /><path id="3010" transform="matrix(1 0 0 -1 0 792)" d="M509.572 173.749L509.572 187.316" stroke="#000000" stroke-width="0.398" fill="none" /><path id="3011" transform="matrix(1 0 0 -1 0 792)" d="M65.019 173.549L509.771 173.549" stroke="#000000" stroke-width="0.398" fill="none" /><path id="3012" transform="matrix(1 0 0 -1 0 792)" d="M65.019 173.549L509.771 173.549" stroke="#000000" stroke-width="0.398" fill="none" /><path id="3013" transform="matrix(1 0 0 -1 0 792)" d="M65.218 159.783L65.218 173.35" stroke="#000000" stroke-width="0.398" fill="none" /><path id="3035" transform="matrix(1 0 0 -1 0 792)" d="M394.371 159.783L394.371 173.35" stroke="#000000" stroke-width="0.398" fill="none" /><path id="3037" transform="matrix(1 0 0 -1 0 792)" d="M509.572 159.783L509.572 173.35" stroke="#000000" stroke-width="0.398" fill="none" /><path id="3038" transform="matrix(1 0 0 -1 0 792)" d="M65.019 159.584L509.771 159.584" stroke="#000000" stroke-width="0.398" fill="none" /><path id="3039" transform="matrix(1 0 0 -1 0 792)" d="M65.019 159.584L509.771 159.584" stroke="#000000" stroke-width="0.398" fill="none" /><path id="3040" transform="matrix(1 0 0 -1 0 792)" d="M65.218 145.818L65.218 159.385" stroke="#000000" stroke-width="0.398" fill="none" /><path id="3064" transform="matrix(1 0 0 -1 0 792)" d="M186.761 150.1L189.75 150.1" stroke="#000000" stroke-width="0.398" fill="none" /><path id="3070" transform="matrix(1 0 0 -1 0 792)" d="M220.235 150.1L223.224 150.1" stroke="#000000" stroke-width="0.398" fill="none" /><path id="3077" transform="matrix(1 0 0 -1 0 792)" d="M259.688 150.1L262.677 150.1" stroke="#000000" stroke-width="0.398" fill="none" /><path id="3083" transform="matrix(1 0 0 -1 0 792)" d="M293.162 150.1L296.151 150.1" stroke="#000000" stroke-width="0.398" fill="none" /><path id="3090" transform="matrix(1 0 0 -1 0 792)" d="M394.371 145.818L394.371 159.385" stroke="#000000" stroke-width="0.398" fill="none" /><path id="3092" transform="matrix(1 0 0 -1 0 792)" d="M509.572 145.818L509.572 159.385" stroke="#000000" stroke-width="0.398" fill="none" /><path id="3093" transform="matrix(1 0 0 -1 0 792)" d="M65.019 145.619L509.771 145.619" stroke="#000000" stroke-width="0.398" fill="none" /><path id="3094" transform="matrix(1 0 0 -1 0 792)" d="M65.019 145.619L509.771 145.619" stroke="#000000" stroke-width="0.398" fill="none" /><path id="3095" transform="matrix(1 0 0 -1 0 792)" d="M65.218 131.871L65.218 145.42" stroke="#000000" stroke-width="0.398" fill="none" /><path id="3096" transform="matrix(1 0 0 -1 0 792)" d="M509.572 131.871L509.572 145.42" stroke="#000000" stroke-width="0.398" fill="none" /><path id="3097" transform="matrix(1 0 0 -1 0 792)" d="M65.019 131.671L509.771 131.671" stroke="#000000" stroke-width="0.398" fill="none" /><path id="3098" transform="matrix(1 0 0 -1 0 792)" d="M65.019 131.671L509.771 131.671" stroke="#000000" stroke-width="0.398" fill="none" /><path id="3099" transform="matrix(1 0 0 -1 0 792)" d="M65.218 117.905L65.218 131.472" stroke="#000000" stroke-width="0.398" fill="none" /><path id="3129" transform="matrix(1 0 0 -1 0 792)" d="M394.371 117.905L394.371 131.472" stroke="#000000" stroke-width="0.398" fill="none" /><path id="3131" transform="matrix(1 0 0 -1 0 792)" d="M509.572 117.905L509.572 131.472" stroke="#000000" stroke-width="0.398" fill="none" /><path id="3132" transform="matrix(1 0 0 -1 0 792)" d="M65.019 117.706L509.771 117.706" stroke="#000000" stroke-width="0.398" fill="none" /><path id="3133" transform="matrix(1 0 0 -1 0 792)" d="M65.019 117.706L509.771 117.706" stroke="#000000" stroke-width="0.398" fill="none" /><path id="3134" transform="matrix(1 0 0 -1 0 792)" d="M65.218 90.409L65.218 117.507" stroke="#000000" stroke-width="0.398" fill="none" /><path id="3202" transform="matrix(1 0 0 -1 0 792)" d="M394.371 90.409L394.371 117.507" stroke="#000000" stroke-width="0.398" fill="none" /><path id="3204" transform="matrix(1 0 0 -1 0 792)" d="M509.572 90.409L509.572 117.507" stroke="#000000" stroke-width="0.398" fill="none" /><path id="3205" transform="matrix(1 0 0 -1 0 792)" d="M65.019 90.209L509.771 90.209" stroke="#000000" stroke-width="0.398" fill="none" /><path id="3206" transform="matrix(1 0 0 -1 0 792)" d="M65.019 90.209L509.771 90.209" stroke="#000000" stroke-width="0.398" fill="none" /><path id="3207" transform="matrix(1 0 0 -1 0 792)" d="M65.218 76.443L65.218 90.01" stroke="#000000" stroke-width="0.398" fill="none" /><path id="3238" transform="matrix(1 0 0 -1 0 792)" d="M394.371 76.443L394.371 90.01" stroke="#000000" stroke-width="0.398" fill="none" /><path id="3240" transform="matrix(1 0 0 -1 0 792)" d="M509.572 76.443L509.572 90.01" stroke="#000000" stroke-width="0.398" fill="none" /><path id="3241" transform="matrix(1 0 0 -1 0 792)" d="M65.019 76.244L509.771 76.244" stroke="#000000" stroke-width="0.398" fill="none" /></g></g></svg>