<svg xmlns="http://www.w3.org/2000/svg" xmlns:xlink="http://www.w3.org/1999/xlink" id="body_41" preserveAspectRatio="xMinYMin meet" viewBox="0 0 1632 1056"><defs><clipPath id="1"><path id="" clip-rule="evenodd" transform="matrix(1 0 0 1 0 0)" d="M0 792L0 0L0 0L1224 0L1224 0L1224 792L1224 792L0 792z" /></clipPath></defs><g transform="matrix(1.333333 0 0 1.333333 0 0)"><g clip-path="url(#1)"><path id="1" transform="matrix(1 0 0 -1 0 792)" d="M701.933 721.28L1168.588 721.28" stroke="#000000" stroke-width="0.498" fill="none" /><path id="138" transform="matrix(1 0 0 -1 0 792)" d="M922.266 587.544L925.255 587.544" stroke="#000000" stroke-width="0.398" fill="none" /><path id="139" transform="matrix(1 0 0 -1 0 792)" d="M768.284 573.995L771.273 573.995" stroke="#000000" stroke-width="0.398" fill="none" /><path id="140" transform="matrix(1 0 0 -1 0 792)" d="M858.426 560.446L861.415 560.446" stroke="#000000" stroke-width="0.398" fill="none" /><path id="141" transform="matrix(1 0 0 -1 0 792)" d="M963.055 560.446L966.044 560.446" stroke="#000000" stroke-width="0.398" fill="none" /><path id="142" transform="matrix(1 0 0 -1 0 792)" d="M1082.666 560.446L1085.655 560.446" stroke="#000000" stroke-width="0.398" fill="none" /><path id="143" transform="matrix(1 0 0 -1 0 792)" d="M983.368 519.798L986.357 519.798" stroke="#000000" stroke-width="0.398" fill="none" /><path id="144" transform="matrix(1 0 0 -1 0 792)" d="M874.862 465.602L877.851 465.602" stroke="#000000" stroke-width="0.398" fill="none" /><path id="145" transform="matrix(1 0 0 -1 0 792)" d="M938.225 465.602L941.214 465.602" stroke="#000000" stroke-width="0.398" fill="none" /><path id="146" transform="matrix(1 0 0 -1 0 792)" d="M977.677 465.602L980.666 465.602" stroke="#000000" stroke-width="0.398" fill="none" /><path id="147" transform="matrix(1 0 0 -1 0 792)" d="M942.378 452.052L945.367 452.052" stroke="#000000" stroke-width="0.398" fill="none" /><path id="148" transform="matrix(1 0 0 -1 0 792)" d="M1005.74 452.052L1008.729 452.052" stroke="#000000" stroke-width="0.398" fill="none" /><path id="149" transform="matrix(1 0 0 -1 0 792)" d="M1045.192 452.052L1048.181 452.052" stroke="#000000" stroke-width="0.398" fill="none" /><path id="150" transform="matrix(1 0 0 -1 0 792)" d="M945.599 94.543L948.588 94.543" stroke="#000000" stroke-width="0.398" fill="none" /><path id="151" transform="matrix(1 0 0 -1 0 792)" d="M768.284 80.994L771.273 80.994" stroke="#000000" stroke-width="0.398" fill="none" /><path id="152" transform="matrix(1 0 0 -1 0 792)" d="M701.933 722.529L1168.588 722.529L1168.588 722.529L1168.588 735.6745L1168.588 735.6745L701.933 735.6745z" stroke="#FFFFFF" stroke-width="1" fill="#FFFFFF" fill-rule="nonzero" /><path id="165" transform="matrix(1 0 0 -1 0 792)" d="M701.933 648.136L1168.591 648.136L1168.591 648.136L1168.591 674.8305L1168.591 674.8305L701.933 674.8305z" stroke="#FFFFFF" stroke-width="1" fill="#FFFFFF" fill-rule="nonzero" /><path id="205" transform="matrix(1 0 0 -1 0 792)" d="M718.869 584.279L1168.583 584.279L1168.583 584.279L1168.583 597.4246L1168.583 597.4246L718.869 597.4246z" stroke="#FFFFFF" stroke-width="1" fill="#FFFFFF" fill-rule="nonzero" /><path id="249" transform="matrix(1 0 0 -1 0 792)" d="M701.933 502.985L1168.592 502.985L1168.592 502.985L1168.592 583.8765L1168.592 583.8765L701.933 583.8765z" stroke="#FFFFFF" stroke-width="1" fill="#FFFFFF" fill-rule="nonzero" /><path id="557" transform="matrix(1 0 0 -1 0 792)" d="M718.869 489.104L1168.584 489.104L1168.584 489.104L1168.584 502.5813L1168.584 502.5813L718.869 502.5813z" stroke="#FFFFFF" stroke-width="1" fill="#FFFFFF" fill-rule="nonzero" /><path id="608" transform="matrix(1 0 0 -1 0 792)" d="M701.933 381.041L1168.591 381.041L1168.591 381.041L1168.591 489.031L1168.591 489.031L701.933 489.031z" stroke="#FFFFFF" stroke-width="1" fill="#FFFFFF" fill-rule="nonzero" /><path id="878" transform="matrix(1 0 0 -1 0 792)" d="M718.869 367.161L1168.583 367.161L1168.583 367.161L1168.583 380.6383L1168.583 380.6383L718.869 380.6383z" stroke="#FFFFFF" stroke-width="1" fill="#FFFFFF" fill-rule="nonzero" /><path id="927" transform="matrix(1 0 0 -1 0 792)" d="M701.933 340.394L1168.593 340.394L1168.593 340.394L1168.593 367.0885L1168.593 367.0885L701.933 367.0885z" stroke="#FFFFFF" stroke-width="1" fill="#FFFFFF" fill-rule="nonzero" /><path id="990" transform="matrix(1 0 0 -1 0 792)" d="M718.869 326.844L1168.585 326.844L1168.585 326.844L1168.585 339.9895L1168.585 339.9895L718.869 339.9895z" stroke="#FFFFFF" stroke-width="1" fill="#FFFFFF" fill-rule="nonzero" /><path id="1027" transform="matrix(1 0 0 -1 0 792)" d="M701.9331 259.099L1168.591 259.099L1168.591 259.099L1168.591 326.4414L1168.591 326.4414L701.9331 326.4414z" stroke="#FFFFFF" stroke-width="1" fill="#FFFFFF" fill-rule="nonzero" /><path id="1190" transform="matrix(1 0 0 -1 0 792)" d="M701.9331 229.59L905.0171 229.59L905.0171 229.59L905.0171 243.7828L905.0171 243.7828L701.9331 243.7828z" stroke="#FFFFFF" stroke-width="1" fill="#FFFFFF" fill-rule="nonzero" /><path id="1203" transform="matrix(1 0 0 -1 0 792)" d="M701.9331 182.232L1168.591 182.232L1168.591 182.232L1168.591 222.4765L1168.591 222.4765L701.9331 222.4765z" stroke="#FFFFFF" stroke-width="1" fill="#FFFFFF" fill-rule="nonzero" /><path id="1301" transform="matrix(1 0 0 -1 0 792)" d="M718.869 168.683L1168.585 168.683L1168.585 168.683L1168.585 181.8285L1168.585 181.8285L718.869 181.8285z" stroke="#FFFFFF" stroke-width="1" fill="#FFFFFF" fill-rule="nonzero" /><path id="1332" transform="matrix(1 0 0 -1 0 792)" d="M701.9331 141.586L1168.591 141.586L1168.591 141.586L1168.591 168.2805L1168.591 168.2805L701.9331 168.2805z" stroke="#FFFFFF" stroke-width="1" fill="#FFFFFF" fill-rule="nonzero" /><path id="1375" transform="matrix(1 0 0 -1 0 792)" d="M715.788 119.377L1154.736 119.377L1154.736 119.377L1154.736 133.5698L1154.736 133.5698L715.788 133.5698z" stroke="#FFFFFF" stroke-width="1" fill="#FFFFFF" fill-rule="nonzero" /><path id="1437" transform="matrix(1 0 0 -1 0 792)" d="M718.869 91.2776L1168.591 91.2776L1168.591 91.2776L1168.591 104.424L1168.591 104.424L718.869 104.424z" stroke="#FFFFFF" stroke-width="1" fill="#FFFFFF" fill-rule="nonzero" /><path id="1470" transform="matrix(1 0 0 -1 0 792)" d="M701.933 64.1796L1168.586 64.1796L1168.586 64.1796L1168.586 90.8741L1168.586 90.8741L701.933 90.8741z" stroke="#FFFFFF" stroke-width="1" fill="#FFFFFF" fill-rule="nonzero" /><path id="1592" transform="matrix(1 0 0 -1 0 792)" d="M89.933 721.28L556.588 721.28" stroke="#000000" stroke-width="0.498" fill="none" /><path id="1857" transform="matrix(1 0 0 -1 0 792)" d="M310.266 587.544L313.255 587.544" stroke="#000000" stroke-width="0.398" fill="none" /><path id="1913" transform="matrix(1 0 0 -1 0 792)" d="M156.284 573.995L159.273 573.995" stroke="#000000" stroke-width="0.398" fill="none" /><path id="2015" transform="matrix(1 0 0 -1 0 792)" d="M246.426 560.446L249.415 560.446" stroke="#000000" stroke-width="0.398" fill="none" /><path id="2033" transform="matrix(1 0 0 -1 0 792)" d="M351.055 560.446L354.044 560.446" stroke="#000000" stroke-width="0.398" fill="none" /><path id="2053" transform="matrix(1 0 0 -1 0 792)" d="M470.666 560.446L473.655 560.446" stroke="#000000" stroke-width="0.398" fill="none" /><path id="2298" transform="matrix(1 0 0 -1 0 792)" d="M371.368 519.798L374.357 519.798" stroke="#000000" stroke-width="0.398" fill="none" /><path id="2592" transform="matrix(1 0 0 -1 0 792)" d="M262.862 465.602L265.851 465.602" stroke="#000000" stroke-width="0.398" fill="none" /><path id="2603" transform="matrix(1 0 0 -1 0 792)" d="M326.225 465.602L329.214 465.602" stroke="#000000" stroke-width="0.398" fill="none" /><path id="2610" transform="matrix(1 0 0 -1 0 792)" d="M365.677 465.602L368.666 465.602" stroke="#000000" stroke-width="0.398" fill="none" /><path id="2687" transform="matrix(1 0 0 -1 0 792)" d="M330.378 452.052L333.367 452.052" stroke="#000000" stroke-width="0.398" fill="none" /><path id="2698" transform="matrix(1 0 0 -1 0 792)" d="M393.74 452.052L396.729 452.052" stroke="#000000" stroke-width="0.398" fill="none" /><path id="2705" transform="matrix(1 0 0 -1 0 792)" d="M433.192 452.052L436.181 452.052" stroke="#000000" stroke-width="0.398" fill="none" /><path id="4496" transform="matrix(1 0 0 -1 0 792)" d="M333.599 94.543L336.588 94.543" stroke="#000000" stroke-width="0.398" fill="none" /><path id="4547" transform="matrix(1 0 0 -1 0 792)" d="M156.284 80.994L159.273 80.994" stroke="#000000" stroke-width="0.398" fill="none" /></g></g></svg>