<svg xmlns="http://www.w3.org/2000/svg" xmlns:xlink="http://www.w3.org/1999/xlink" id="body_15" preserveAspectRatio="xMinYMin meet" viewBox="0 0 1632 1056"><defs><clipPath id="1"><path id="" clip-rule="evenodd" transform="matrix(1 0 0 1 0 0)" d="M0 792L0 0L0 0L1224 0L1224 0L1224 792L1224 792L0 792z" /></clipPath></defs><g transform="matrix(1.333333 0 0 1.333333 0 0)"><g clip-path="url(#1)"><path id="18" transform="matrix(1 0 0 -1 0 792)" d="M701.933 721.28L1168.588 721.28" stroke="#000000" stroke-width="0.498" fill="none" /><path id="19" transform="matrix(1 0 0 -1 0 792)" d="M742.795 696.423L1127.726 696.423" stroke="#000000" stroke-width="0.398" fill="none" /><path id="20" transform="matrix(1 0 0 -1 0 792)" d="M742.795 696.423L1127.726 696.423" stroke="#000000" stroke-width="0.398" fill="none" /><path id="21" transform="matrix(1 0 0 -1 0 792)" d="M742.994 682.658L742.994 696.225" stroke="#000000" stroke-width="0.398" fill="none" /><path id="22" transform="matrix(1 0 0 -1 0 792)" d="M743.193 682.658L1071.948 682.658L1071.948 696.225L743.193 696.225z" stroke="none" fill="#CCCCEB" fill-rule="nonzero" /><path id="32" transform="matrix(1 0 0 -1 0 792)" d="M1072.147 682.658L1072.147 696.225" stroke="#000000" stroke-width="0.398" fill="none" /><path id="33" transform="matrix(1 0 0 -1 0 792)" d="M1072.347 682.658L1127.327 682.658L1127.327 696.225L1072.347 696.225z" stroke="none" fill="#CCCCEB" fill-rule="nonzero" /><path id="40" transform="matrix(1 0 0 -1 0 792)" d="M1127.526 682.658L1127.526 696.225" stroke="#000000" stroke-width="0.398" fill="none" /><path id="41" transform="matrix(1 0 0 -1 0 792)" d="M742.795 682.458L1127.726 682.458" stroke="#000000" stroke-width="0.398" fill="none" /><path id="42" transform="matrix(1 0 0 -1 0 792)" d="M742.795 682.458L1127.726 682.458" stroke="#000000" stroke-width="0.398" fill="none" /><path id="43" transform="matrix(1 0 0 -1 0 792)" d="M742.795 682.06L1127.726 682.06" stroke="#000000" stroke-width="0.398" fill="none" /><path id="44" transform="matrix(1 0 0 -1 0 792)" d="M742.795 682.06L1127.726 682.06" stroke="#000000" stroke-width="0.398" fill="none" /><path id="45" transform="matrix(1 0 0 -1 0 792)" d="M742.795 682.06L1127.726 682.06" stroke="#000000" stroke-width="0.398" fill="none" /><path id="46" transform="matrix(1 0 0 -1 0 792)" d="M742.994 668.294L742.994 681.861" stroke="#000000" stroke-width="0.398" fill="none" /><path id="93" transform="matrix(1 0 0 -1 0 792)" d="M1072.147 668.294L1072.147 681.861" stroke="#000000" stroke-width="0.398" fill="none" /><path id="95" transform="matrix(1 0 0 -1 0 792)" d="M1127.526 668.294L1127.526 681.861" stroke="#000000" stroke-width="0.398" fill="none" /><path id="96" transform="matrix(1 0 0 -1 0 792)" d="M742.795 668.095L1127.726 668.095" stroke="#000000" stroke-width="0.398" fill="none" /><path id="97" transform="matrix(1 0 0 -1 0 792)" d="M742.795 668.095L1127.726 668.095" stroke="#000000" stroke-width="0.398" fill="none" /><path id="98" transform="matrix(1 0 0 -1 0 792)" d="M742.994 654.329L742.994 667.896" stroke="#000000" stroke-width="0.398" fill="none" /><path id="140" transform="matrix(1 0 0 -1 0 792)" d="M1072.147 654.329L1072.147 667.896" stroke="#000000" stroke-width="0.398" fill="none" /><path id="142" transform="matrix(1 0 0 -1 0 792)" d="M1127.526 654.329L1127.526 667.896" stroke="#000000" stroke-width="0.398" fill="none" /><path id="143" transform="matrix(1 0 0 -1 0 792)" d="M742.795 654.129L1127.726 654.129" stroke="#000000" stroke-width="0.398" fill="none" /><path id="144" transform="matrix(1 0 0 -1 0 792)" d="M742.795 654.129L1127.726 654.129" stroke="#000000" stroke-width="0.398" fill="none" /><path id="145" transform="matrix(1 0 0 -1 0 792)" d="M742.994 640.364L742.994 653.931" stroke="#000000" stroke-width="0.398" fill="none" /><path id="187" transform="matrix(1 0 0 -1 0 792)" d="M1072.147 640.364L1072.147 653.931" stroke="#000000" stroke-width="0.398" fill="none" /><path id="189" transform="matrix(1 0 0 -1 0 792)" d="M1127.526 640.364L1127.526 653.931" stroke="#000000" stroke-width="0.398" fill="none" /><path id="190" transform="matrix(1 0 0 -1 0 792)" d="M742.795 640.164L1127.726 640.164" stroke="#000000" stroke-width="0.398" fill="none" /><path id="191" transform="matrix(1 0 0 -1 0 792)" d="M742.795 640.164L1127.726 640.164" stroke="#000000" stroke-width="0.398" fill="none" /><path id="192" transform="matrix(1 0 0 -1 0 792)" d="M742.994 626.398L742.994 639.965" stroke="#000000" stroke-width="0.398" fill="none" /><path id="237" transform="matrix(1 0 0 -1 0 792)" d="M1072.147 626.398L1072.147 639.965" stroke="#000000" stroke-width="0.398" fill="none" /><path id="239" transform="matrix(1 0 0 -1 0 792)" d="M1127.526 626.398L1127.526 639.965" stroke="#000000" stroke-width="0.398" fill="none" /><path id="240" transform="matrix(1 0 0 -1 0 792)" d="M742.795 626.199L1127.726 626.199" stroke="#000000" stroke-width="0.398" fill="none" /><path id="241" transform="matrix(1 0 0 -1 0 792)" d="M742.795 626.199L1127.726 626.199" stroke="#000000" stroke-width="0.398" fill="none" /><path id="242" transform="matrix(1 0 0 -1 0 792)" d="M742.994 612.433L742.994 626" stroke="#000000" stroke-width="0.398" fill="none" /><path id="287" transform="matrix(1 0 0 -1 0 792)" d="M1072.147 612.433L1072.147 626" stroke="#000000" stroke-width="0.398" fill="none" /><path id="289" transform="matrix(1 0 0 -1 0 792)" d="M1127.526 612.433L1127.526 626" stroke="#000000" stroke-width="0.398" fill="none" /><path id="290" transform="matrix(1 0 0 -1 0 792)" d="M742.795 612.234L1127.726 612.234" stroke="#000000" stroke-width="0.398" fill="none" /><path id="291" transform="matrix(1 0 0 -1 0 792)" d="M742.795 612.234L1127.726 612.234" stroke="#000000" stroke-width="0.398" fill="none" /><path id="292" transform="matrix(1 0 0 -1 0 792)" d="M742.994 598.468L742.994 612.035" stroke="#000000" stroke-width="0.398" fill="none" /><path id="329" transform="matrix(1 0 0 -1 0 792)" d="M1072.147 598.468L1072.147 612.035" stroke="#000000" stroke-width="0.398" fill="none" /><path id="331" transform="matrix(1 0 0 -1 0 792)" d="M1127.526 598.468L1127.526 612.035" stroke="#000000" stroke-width="0.398" fill="none" /><path id="332" transform="matrix(1 0 0 -1 0 792)" d="M742.795 598.269L1127.726 598.269" stroke="#000000" stroke-width="0.398" fill="none" /><path id="333" transform="matrix(1 0 0 -1 0 792)" d="M742.795 598.269L1127.726 598.269" stroke="#000000" stroke-width="0.398" fill="none" /><path id="334" transform="matrix(1 0 0 -1 0 792)" d="M742.994 584.503L742.994 598.07" stroke="#000000" stroke-width="0.398" fill="none" /><path id="371" transform="matrix(1 0 0 -1 0 792)" d="M1072.147 584.503L1072.147 598.07" stroke="#000000" stroke-width="0.398" fill="none" /><path id="373" transform="matrix(1 0 0 -1 0 792)" d="M1127.526 584.503L1127.526 598.07" stroke="#000000" stroke-width="0.398" fill="none" /><path id="374" transform="matrix(1 0 0 -1 0 792)" d="M742.795 584.304L1127.726 584.304" stroke="#000000" stroke-width="0.398" fill="none" /><path id="375" transform="matrix(1 0 0 -1 0 792)" d="M742.795 584.304L1127.726 584.304" stroke="#000000" stroke-width="0.398" fill="none" /><path id="376" transform="matrix(1 0 0 -1 0 792)" d="M742.994 570.538L742.994 584.105" stroke="#000000" stroke-width="0.398" fill="none" /><path id="401" transform="matrix(1 0 0 -1 0 792)" d="M870.515 574.819L873.504 574.819" stroke="#000000" stroke-width="0.398" fill="none" /><path id="411" transform="matrix(1 0 0 -1 0 792)" d="M1072.147 570.538L1072.147 584.105" stroke="#000000" stroke-width="0.398" fill="none" /><path id="413" transform="matrix(1 0 0 -1 0 792)" d="M1127.526 570.538L1127.526 584.105" stroke="#000000" stroke-width="0.398" fill="none" /><path id="414" transform="matrix(1 0 0 -1 0 792)" d="M742.795 570.339L1127.726 570.339" stroke="#000000" stroke-width="0.398" fill="none" /><path id="415" transform="matrix(1 0 0 -1 0 792)" d="M742.795 570.339L1127.726 570.339" stroke="#000000" stroke-width="0.398" fill="none" /><path id="416" transform="matrix(1 0 0 -1 0 792)" d="M742.994 556.573L742.994 570.14" stroke="#000000" stroke-width="0.398" fill="none" /><path id="453" transform="matrix(1 0 0 -1 0 792)" d="M1072.147 556.573L1072.147 570.14" stroke="#000000" stroke-width="0.398" fill="none" /><path id="455" transform="matrix(1 0 0 -1 0 792)" d="M1127.526 556.573L1127.526 570.14" stroke="#000000" stroke-width="0.398" fill="none" /><path id="456" transform="matrix(1 0 0 -1 0 792)" d="M742.795 556.373L1127.726 556.373" stroke="#000000" stroke-width="0.398" fill="none" /><path id="457" transform="matrix(1 0 0 -1 0 792)" d="M742.795 556.373L1127.726 556.373" stroke="#000000" stroke-width="0.398" fill="none" /><path id="458" transform="matrix(1 0 0 -1 0 792)" d="M742.994 542.608L742.994 556.175" stroke="#000000" stroke-width="0.398" fill="none" /><path id="483" transform="matrix(1 0 0 -1 0 792)" d="M1072.147 542.608L1072.147 556.175" stroke="#000000" stroke-width="0.398" fill="none" /><path id="485" transform="matrix(1 0 0 -1 0 792)" d="M1127.526 542.608L1127.526 556.175" stroke="#000000" stroke-width="0.398" fill="none" /><path id="486" transform="matrix(1 0 0 -1 0 792)" d="M742.795 542.408L1127.726 542.408" stroke="#000000" stroke-width="0.398" fill="none" /><path id="487" transform="matrix(1 0 0 -1 0 792)" d="M742.795 542.408L1127.726 542.408" stroke="#000000" stroke-width="0.398" fill="none" /><path id="505" transform="matrix(1 0 0 -1 0 792)" d="M916.006 347.493L918.995 347.493" stroke="#000000" stroke-width="0.398" fill="none" /><path id="602" transform="matrix(1 0 0 -1 0 792)" d="M778.356 67.444L781.345 67.444" stroke="#000000" stroke-width="0.398" fill="none" /><path id="603" transform="matrix(1 0 0 -1 0 792)" d="M883.158 67.444L886.147 67.444" stroke="#000000" stroke-width="0.398" fill="none" /><path id="604" transform="matrix(1 0 0 -1 0 792)" d="M1083.332 67.444L1086.321 67.444" stroke="#000000" stroke-width="0.398" fill="none" /><path id="605" transform="matrix(1 0 0 -1 0 792)" d="M1159.621 67.444L1162.61 67.444" stroke="#000000" stroke-width="0.398" fill="none" /><path id="606" transform="matrix(1 0 0 -1 0 792)" d="M729.206 478.903L1168.587 478.903L1168.587 478.903L1168.587 529.6316L1168.587 529.6316L729.206 529.6316z" stroke="#FFFFFF" stroke-width="1" fill="#FFFFFF" fill-rule="nonzero" /><path id="719" transform="matrix(1 0 0 -1 0 792)" d="M701.933 392.077L1168.591 392.077L1168.591 392.077L1168.591 432.3205L1168.591 432.3205L701.933 432.3205z" stroke="#FFFFFF" stroke-width="1" fill="#FFFFFF" fill-rule="nonzero" /><path id="820" transform="matrix(1 0 0 -1 0 792)" d="M718.869 371.327L1168.586 371.327L1168.586 371.327L1168.586 384.4725L1168.586 384.4725L718.869 384.4725z" stroke="#FFFFFF" stroke-width="1" fill="#FFFFFF" fill-rule="nonzero" /><path id="860" transform="matrix(1 0 0 -1 0 792)" d="M701.933 330.679L1168.591 330.679L1168.591 330.679L1168.591 370.9235L1168.591 370.9235L701.933 370.9235z" stroke="#FFFFFF" stroke-width="1" fill="#FFFFFF" fill-rule="nonzero" /><path id="942" transform="matrix(1 0 0 -1 0 792)" d="M701.933 300.218L947.505 300.218L947.505 300.218L947.505 315.7717L947.505 315.7717L701.933 315.7717z" stroke="#FFFFFF" stroke-width="1" fill="#FFFFFF" fill-rule="nonzero" /><path id="958" transform="matrix(1 0 0 -1 0 792)" d="M701.933 226.12L1168.591 226.12L1168.591 226.12L1168.591 293.4625L1168.591 293.4625L701.933 293.4625z" stroke="#FFFFFF" stroke-width="1" fill="#FFFFFF" fill-rule="nonzero" /><path id="1116" transform="matrix(1 0 0 -1 0 792)" d="M718.869 205.039L1168.59 205.039L1168.59 205.039L1168.59 218.5162L1168.59 218.5162L718.869 218.5162z" stroke="#FFFFFF" stroke-width="1" fill="#FFFFFF" fill-rule="nonzero" /><path id="1156" transform="matrix(1 0 0 -1 0 792)" d="M701.933 151.174L1168.591 151.174L1168.591 151.174L1168.591 204.9675L1168.591 204.9675L701.933 204.9675z" stroke="#FFFFFF" stroke-width="1" fill="#FFFFFF" fill-rule="nonzero" /><path id="1277" transform="matrix(1 0 0 -1 0 792)" d="M701.933 64.1796L1168.588 64.1796L1168.588 64.1796L1168.588 90.8741L1168.588 90.8741L701.933 90.8741z" stroke="#FFFFFF" stroke-width="1" fill="#FFFFFF" fill-rule="nonzero" /><path id="1415" transform="matrix(1 0 0 -1 0 792)" d="M89.933 721.28L556.588 721.28" stroke="#000000" stroke-width="0.498" fill="none" /><path id="1416" transform="matrix(1 0 0 -1 0 792)" d="M130.795 696.423L515.726 696.423" stroke="#000000" stroke-width="0.398" fill="none" /><path id="1417" transform="matrix(1 0 0 -1 0 792)" d="M130.795 696.423L515.726 696.423" stroke="#000000" stroke-width="0.398" fill="none" /><path id="1418" transform="matrix(1 0 0 -1 0 792)" d="M130.994 682.658L130.994 696.225" stroke="#000000" stroke-width="0.398" fill="none" /><path id="1419" transform="matrix(1 0 0 -1 0 792)" d="M131.193 682.658L459.948 682.658L459.948 696.225L131.193 696.225z" stroke="none" fill="#CCCCEB" fill-rule="nonzero" /><path id="1429" transform="matrix(1 0 0 -1 0 792)" d="M460.147 682.658L460.147 696.225" stroke="#000000" stroke-width="0.398" fill="none" /><path id="1430" transform="matrix(1 0 0 -1 0 792)" d="M460.347 682.658L515.327 682.658L515.327 696.225L460.347 696.225z" stroke="none" fill="#CCCCEB" fill-rule="nonzero" /><path id="1437" transform="matrix(1 0 0 -1 0 792)" d="M515.526 682.658L515.526 696.225" stroke="#000000" stroke-width="0.398" fill="none" /><path id="1438" transform="matrix(1 0 0 -1 0 792)" d="M130.795 682.458L515.726 682.458" stroke="#000000" stroke-width="0.398" fill="none" /><path id="1439" transform="matrix(1 0 0 -1 0 792)" d="M130.795 682.458L515.726 682.458" stroke="#000000" stroke-width="0.398" fill="none" /><path id="1440" transform="matrix(1 0 0 -1 0 792)" d="M130.795 682.06L515.726 682.06" stroke="#000000" stroke-width="0.398" fill="none" /><path id="1441" transform="matrix(1 0 0 -1 0 792)" d="M130.795 682.06L515.726 682.06" stroke="#000000" stroke-width="0.398" fill="none" /><path id="1442" transform="matrix(1 0 0 -1 0 792)" d="M130.795 682.06L515.726 682.06" stroke="#000000" stroke-width="0.398" fill="none" /><path id="1443" transform="matrix(1 0 0 -1 0 792)" d="M130.994 668.294L130.994 681.861" stroke="#000000" stroke-width="0.398" fill="none" /><path id="1490" transform="matrix(1 0 0 -1 0 792)" d="M460.147 668.294L460.147 681.861" stroke="#000000" stroke-width="0.398" fill="none" /><path id="1492" transform="matrix(1 0 0 -1 0 792)" d="M515.526 668.294L515.526 681.861" stroke="#000000" stroke-width="0.398" fill="none" /><path id="1493" transform="matrix(1 0 0 -1 0 792)" d="M130.795 668.095L515.726 668.095" stroke="#000000" stroke-width="0.398" fill="none" /><path id="1494" transform="matrix(1 0 0 -1 0 792)" d="M130.795 668.095L515.726 668.095" stroke="#000000" stroke-width="0.398" fill="none" /><path id="1495" transform="matrix(1 0 0 -1 0 792)" d="M130.994 654.329L130.994 667.896" stroke="#000000" stroke-width="0.398" fill="none" /><path id="1537" transform="matrix(1 0 0 -1 0 792)" d="M460.147 654.329L460.147 667.896" stroke="#000000" stroke-width="0.398" fill="none" /><path id="1539" transform="matrix(1 0 0 -1 0 792)" d="M515.526 654.329L515.526 667.896" stroke="#000000" stroke-width="0.398" fill="none" /><path id="1540" transform="matrix(1 0 0 -1 0 792)" d="M130.795 654.129L515.726 654.129" stroke="#000000" stroke-width="0.398" fill="none" /><path id="1541" transform="matrix(1 0 0 -1 0 792)" d="M130.795 654.129L515.726 654.129" stroke="#000000" stroke-width="0.398" fill="none" /><path id="1542" transform="matrix(1 0 0 -1 0 792)" d="M130.994 640.364L130.994 653.931" stroke="#000000" stroke-width="0.398" fill="none" /><path id="1584" transform="matrix(1 0 0 -1 0 792)" d="M460.147 640.364L460.147 653.931" stroke="#000000" stroke-width="0.398" fill="none" /><path id="1586" transform="matrix(1 0 0 -1 0 792)" d="M515.526 640.364L515.526 653.931" stroke="#000000" stroke-width="0.398" fill="none" /><path id="1587" transform="matrix(1 0 0 -1 0 792)" d="M130.795 640.164L515.726 640.164" stroke="#000000" stroke-width="0.398" fill="none" /><path id="1588" transform="matrix(1 0 0 -1 0 792)" d="M130.795 640.164L515.726 640.164" stroke="#000000" stroke-width="0.398" fill="none" /><path id="1589" transform="matrix(1 0 0 -1 0 792)" d="M130.994 626.398L130.994 639.965" stroke="#000000" stroke-width="0.398" fill="none" /><path id="1634" transform="matrix(1 0 0 -1 0 792)" d="M460.147 626.398L460.147 639.965" stroke="#000000" stroke-width="0.398" fill="none" /><path id="1636" transform="matrix(1 0 0 -1 0 792)" d="M515.526 626.398L515.526 639.965" stroke="#000000" stroke-width="0.398" fill="none" /><path id="1637" transform="matrix(1 0 0 -1 0 792)" d="M130.795 626.199L515.726 626.199" stroke="#000000" stroke-width="0.398" fill="none" /><path id="1638" transform="matrix(1 0 0 -1 0 792)" d="M130.795 626.199L515.726 626.199" stroke="#000000" stroke-width="0.398" fill="none" /><path id="1639" transform="matrix(1 0 0 -1 0 792)" d="M130.994 612.433L130.994 626" stroke="#000000" stroke-width="0.398" fill="none" /><path id="1684" transform="matrix(1 0 0 -1 0 792)" d="M460.147 612.433L460.147 626" stroke="#000000" stroke-width="0.398" fill="none" /><path id="1686" transform="matrix(1 0 0 -1 0 792)" d="M515.526 612.433L515.526 626" stroke="#000000" stroke-width="0.398" fill="none" /><path id="1687" transform="matrix(1 0 0 -1 0 792)" d="M130.795 612.234L515.726 612.234" stroke="#000000" stroke-width="0.398" fill="none" /><path id="1688" transform="matrix(1 0 0 -1 0 792)" d="M130.795 612.234L515.726 612.234" stroke="#000000" stroke-width="0.398" fill="none" /><path id="1689" transform="matrix(1 0 0 -1 0 792)" d="M130.994 598.468L130.994 612.035" stroke="#000000" stroke-width="0.398" fill="none" /><path id="1726" transform="matrix(1 0 0 -1 0 792)" d="M460.147 598.468L460.147 612.035" stroke="#000000" stroke-width="0.398" fill="none" /><path id="1728" transform="matrix(1 0 0 -1 0 792)" d="M515.526 598.468L515.526 612.035" stroke="#000000" stroke-width="0.398" fill="none" /><path id="1729" transform="matrix(1 0 0 -1 0 792)" d="M130.795 598.269L515.726 598.269" stroke="#000000" stroke-width="0.398" fill="none" /><path id="1730" transform="matrix(1 0 0 -1 0 792)" d="M130.795 598.269L515.726 598.269" stroke="#000000" stroke-width="0.398" fill="none" /><path id="1731" transform="matrix(1 0 0 -1 0 792)" d="M130.994 584.503L130.994 598.07" stroke="#000000" stroke-width="0.398" fill="none" /><path id="1768" transform="matrix(1 0 0 -1 0 792)" d="M460.147 584.503L460.147 598.07" stroke="#000000" stroke-width="0.398" fill="none" /><path id="1770" transform="matrix(1 0 0 -1 0 792)" d="M515.526 584.503L515.526 598.07" stroke="#000000" stroke-width="0.398" fill="none" /><path id="1771" transform="matrix(1 0 0 -1 0 792)" d="M130.795 584.304L515.726 584.304" stroke="#000000" stroke-width="0.398" fill="none" /><path id="1772" transform="matrix(1 0 0 -1 0 792)" d="M130.795 584.304L515.726 584.304" stroke="#000000" stroke-width="0.398" fill="none" /><path id="1773" transform="matrix(1 0 0 -1 0 792)" d="M130.994 570.538L130.994 584.105" stroke="#000000" stroke-width="0.398" fill="none" /><path id="1798" transform="matrix(1 0 0 -1 0 792)" d="M258.515 574.819L261.504 574.819" stroke="#000000" stroke-width="0.398" fill="none" /><path id="1808" transform="matrix(1 0 0 -1 0 792)" d="M460.147 570.538L460.147 584.105" stroke="#000000" stroke-width="0.398" fill="none" /><path id="1810" transform="matrix(1 0 0 -1 0 792)" d="M515.526 570.538L515.526 584.105" stroke="#000000" stroke-width="0.398" fill="none" /><path id="1811" transform="matrix(1 0 0 -1 0 792)" d="M130.795 570.339L515.726 570.339" stroke="#000000" stroke-width="0.398" fill="none" /><path id="1812" transform="matrix(1 0 0 -1 0 792)" d="M130.795 570.339L515.726 570.339" stroke="#000000" stroke-width="0.398" fill="none" /><path id="1813" transform="matrix(1 0 0 -1 0 792)" d="M130.994 556.573L130.994 570.14" stroke="#000000" stroke-width="0.398" fill="none" /><path id="1850" transform="matrix(1 0 0 -1 0 792)" d="M460.147 556.573L460.147 570.14" stroke="#000000" stroke-width="0.398" fill="none" /><path id="1852" transform="matrix(1 0 0 -1 0 792)" d="M515.526 556.573L515.526 570.14" stroke="#000000" stroke-width="0.398" fill="none" /><path id="1853" transform="matrix(1 0 0 -1 0 792)" d="M130.795 556.373L515.726 556.373" stroke="#000000" stroke-width="0.398" fill="none" /><path id="1854" transform="matrix(1 0 0 -1 0 792)" d="M130.795 556.373L515.726 556.373" stroke="#000000" stroke-width="0.398" fill="none" /><path id="1855" transform="matrix(1 0 0 -1 0 792)" d="M130.994 542.608L130.994 556.175" stroke="#000000" stroke-width="0.398" fill="none" /><path id="1880" transform="matrix(1 0 0 -1 0 792)" d="M460.147 542.608L460.147 556.175" stroke="#000000" stroke-width="0.398" fill="none" /><path id="1882" transform="matrix(1 0 0 -1 0 792)" d="M515.526 542.608L515.526 556.175" stroke="#000000" stroke-width="0.398" fill="none" /><path id="1883" transform="matrix(1 0 0 -1 0 792)" d="M130.795 542.408L515.726 542.408" stroke="#000000" stroke-width="0.398" fill="none" /><path id="1884" transform="matrix(1 0 0 -1 0 792)" d="M130.795 542.408L515.726 542.408" stroke="#000000" stroke-width="0.398" fill="none" /><path id="2621" transform="matrix(1 0 0 -1 0 792)" d="M304.006 347.493L306.995 347.493" stroke="#000000" stroke-width="0.398" fill="none" /><path id="3696" transform="matrix(1 0 0 -1 0 792)" d="M166.356 67.444L169.345 67.444" stroke="#000000" stroke-width="0.398" fill="none" /><path id="3713" transform="matrix(1 0 0 -1 0 792)" d="M271.158 67.444L274.147 67.444" stroke="#000000" stroke-width="0.398" fill="none" /><path id="3748" transform="matrix(1 0 0 -1 0 792)" d="M471.332 67.444L474.321 67.444" stroke="#000000" stroke-width="0.398" fill="none" /><path id="3761" transform="matrix(1 0 0 -1 0 792)" d="M547.621 67.444L550.61 67.444" stroke="#000000" stroke-width="0.398" fill="none" /></g></g></svg>