<svg xmlns="http://www.w3.org/2000/svg" xmlns:xlink="http://www.w3.org/1999/xlink" id="body_20" preserveAspectRatio="xMinYMin meet" viewBox="0 0 1632 1056"><defs><clipPath id="1"><path id="" clip-rule="evenodd" transform="matrix(1 0 0 1 0 0)" d="M0 792L0 0L0 0L1224 0L1224 0L1224 792L1224 792L0 792z" /></clipPath></defs><g transform="matrix(1.333333 0 0 1.333333 0 0)"><g clip-path="url(#1)"><path id="16" transform="matrix(1 0 0 -1 0 792)" d="M666.067 721.28L1132.722 721.28" stroke="#000000" stroke-width="0.498" fill="none" /><path id="46" transform="matrix(1 0 0 -1 0 792)" d="M883.206 608.268L886.195 608.268" stroke="#000000" stroke-width="0.398" fill="none" /><path id="47" transform="matrix(1 0 0 -1 0 792)" d="M743.396 481.763L746.385 481.763" stroke="#000000" stroke-width="0.398" fill="none" /><path id="48" transform="matrix(1 0 0 -1 0 792)" d="M775.078 454.664L778.067 454.664" stroke="#000000" stroke-width="0.398" fill="none" /><path id="49" transform="matrix(1 0 0 -1 0 792)" d="M705.8929 441.115L708.882 441.115" stroke="#000000" stroke-width="0.398" fill="none" /><path id="65" transform="matrix(1 0 0 -1 0 792)" d="M666.067 296.949L1050.998 296.949" stroke="#000000" stroke-width="0.398" fill="none" /><path id="66" transform="matrix(1 0 0 -1 0 792)" d="M666.266 283.184L666.266 296.751" stroke="#000000" stroke-width="0.398" fill="none" /><path id="67" transform="matrix(1 0 0 -1 0 792)" d="M666.4659 283.184L995.2209 283.184L995.2209 296.751L666.4659 296.751z" stroke="none" fill="#CCCCEB" fill-rule="nonzero" /><path id="77" transform="matrix(1 0 0 -1 0 792)" d="M995.42 283.184L995.42 296.751" stroke="#000000" stroke-width="0.398" fill="none" /><path id="78" transform="matrix(1 0 0 -1 0 792)" d="M995.619 283.184L1050.599 283.184L1050.599 296.751L995.619 296.751z" stroke="none" fill="#CCCCEB" fill-rule="nonzero" /><path id="85" transform="matrix(1 0 0 -1 0 792)" d="M1050.799 283.184L1050.799 296.751" stroke="#000000" stroke-width="0.398" fill="none" /><path id="86" transform="matrix(1 0 0 -1 0 792)" d="M666.067 282.984L1050.998 282.984" stroke="#000000" stroke-width="0.398" fill="none" /><path id="87" transform="matrix(1 0 0 -1 0 792)" d="M666.067 280.593L1050.998 280.593" stroke="#000000" stroke-width="0.398" fill="none" /><path id="88" transform="matrix(1 0 0 -1 0 792)" d="M666.266 266.827L666.266 280.394" stroke="#000000" stroke-width="0.398" fill="none" /><path id="114" transform="matrix(1 0 0 -1 0 792)" d="M995.42 266.827L995.42 280.394" stroke="#000000" stroke-width="0.398" fill="none" /><path id="116" transform="matrix(1 0 0 -1 0 792)" d="M1050.799 266.827L1050.799 280.394" stroke="#000000" stroke-width="0.398" fill="none" /><path id="117" transform="matrix(1 0 0 -1 0 792)" d="M666.067 266.628L1050.998 266.628" stroke="#000000" stroke-width="0.398" fill="none" /><path id="118" transform="matrix(1 0 0 -1 0 792)" d="M666.266 252.862L666.266 266.429" stroke="#000000" stroke-width="0.398" fill="none" /><path id="142" transform="matrix(1 0 0 -1 0 792)" d="M787.81 257.144L790.799 257.144" stroke="#000000" stroke-width="0.398" fill="none" /><path id="150" transform="matrix(1 0 0 -1 0 792)" d="M995.42 252.862L995.42 266.429" stroke="#000000" stroke-width="0.398" fill="none" /><path id="152" transform="matrix(1 0 0 -1 0 792)" d="M1050.799 252.862L1050.799 266.429" stroke="#000000" stroke-width="0.398" fill="none" /><path id="153" transform="matrix(1 0 0 -1 0 792)" d="M666.067 252.663L1050.998 252.663" stroke="#000000" stroke-width="0.398" fill="none" /><path id="154" transform="matrix(1 0 0 -1 0 792)" d="M666.266 238.897L666.266 252.464" stroke="#000000" stroke-width="0.398" fill="none" /><path id="195" transform="matrix(1 0 0 -1 0 792)" d="M995.42 238.897L995.42 252.464" stroke="#000000" stroke-width="0.398" fill="none" /><path id="197" transform="matrix(1 0 0 -1 0 792)" d="M1050.799 238.897L1050.799 252.464" stroke="#000000" stroke-width="0.398" fill="none" /><path id="198" transform="matrix(1 0 0 -1 0 792)" d="M666.067 238.698L1050.998 238.698" stroke="#000000" stroke-width="0.398" fill="none" /><path id="199" transform="matrix(1 0 0 -1 0 792)" d="M666.266 224.932L666.266 238.499" stroke="#000000" stroke-width="0.398" fill="none" /><path id="223" transform="matrix(1 0 0 -1 0 792)" d="M787.81 229.213L790.799 229.213" stroke="#000000" stroke-width="0.398" fill="none" /><path id="232" transform="matrix(1 0 0 -1 0 792)" d="M995.42 224.932L995.42 238.499" stroke="#000000" stroke-width="0.398" fill="none" /><path id="234" transform="matrix(1 0 0 -1 0 792)" d="M1050.799 224.932L1050.799 238.499" stroke="#000000" stroke-width="0.398" fill="none" /><path id="235" transform="matrix(1 0 0 -1 0 792)" d="M666.067 224.733L1050.998 224.733" stroke="#000000" stroke-width="0.398" fill="none" /><path id="281" transform="matrix(1 0 0 -1 0 792)" d="M666.067 633.427L1132.725 633.427L1132.725 633.427L1132.725 673.6705L1132.725 673.6705L666.067 673.6705z" stroke="#FFFFFF" stroke-width="1" fill="#FFFFFF" fill-rule="nonzero" /><path id="374" transform="matrix(1 0 0 -1 0 792)" d="M682.431 597.595L1015.225 597.595L1015.225 597.595L1015.225 618.1476L1015.225 618.1476L682.431 618.1476z" stroke="#FFFFFF" stroke-width="1" fill="#FFFFFF" fill-rule="nonzero" /><path id="399" transform="matrix(1 0 0 -1 0 792)" d="M682.431 572.744L1132.726 572.744L1132.726 572.744L1132.726 593.2967L1132.726 593.2967L682.431 593.2967z" stroke="#FFFFFF" stroke-width="1" fill="#FFFFFF" fill-rule="nonzero" /><path id="427" transform="matrix(1 0 0 -1 0 792)" d="M693.34 566.603L1121.347 566.603L1121.347 566.603L1121.347 579.7485L1121.347 579.7485L693.34 579.7485z" stroke="#FFFFFF" stroke-width="1" fill="#FFFFFF" fill-rule="nonzero" /><path id="453" transform="matrix(1 0 0 -1 0 792)" d="M682.431 534.343L1132.726 534.343L1132.726 534.343L1132.726 554.8957L1132.726 554.8957L682.431 554.8957z" stroke="#FFFFFF" stroke-width="1" fill="#FFFFFF" fill-rule="nonzero" /><path id="480" transform="matrix(1 0 0 -1 0 792)" d="M693.34 528.202L985.3 528.202L985.3 528.202L985.3 541.3475L985.3 541.3475L693.34 541.3475z" stroke="#FFFFFF" stroke-width="1" fill="#FFFFFF" fill-rule="nonzero" /><path id="498" transform="matrix(1 0 0 -1 0 792)" d="M682.431 495.942L870.198 495.942L870.198 495.942L870.198 516.4948L870.198 516.4948L682.431 516.4948z" stroke="#FFFFFF" stroke-width="1" fill="#FFFFFF" fill-rule="nonzero" /><path id="509" transform="matrix(1 0 0 -1 0 792)" d="M682.431 471.09L1132.726 471.09L1132.726 471.09L1132.726 491.6428L1132.726 491.6428L682.431 491.6428z" stroke="#FFFFFF" stroke-width="1" fill="#FFFFFF" fill-rule="nonzero" /><path id="539" transform="matrix(1 0 0 -1 0 792)" d="M693.34 424.301L1132.727 424.301L1132.727 424.301L1132.727 478.0945L1132.727 478.0945L693.34 478.0945z" stroke="#FFFFFF" stroke-width="1" fill="#FFFFFF" fill-rule="nonzero" /><path id="644" transform="matrix(1 0 0 -1 0 792)" d="M693.34 374.371L1132.721 374.371L1132.721 374.371L1132.721 410.6147L1132.721 410.6147L693.34 410.6147z" stroke="#FFFFFF" stroke-width="1" fill="#FFFFFF" fill-rule="nonzero" /><path id="702" transform="matrix(1 0 0 -1 0 792)" d="M666.067 309.569L1026.984 309.569L1026.984 309.569L1026.984 322.7145L1026.984 322.7145L666.067 322.7145z" stroke="#FFFFFF" stroke-width="1" fill="#FFFFFF" fill-rule="nonzero" /><path id="720" transform="matrix(1 0 0 -1 0 792)" d="M666.067 155.855L974.489 155.855L974.489 155.855L974.489 169.0005L974.489 169.0005L666.067 169.0005z" stroke="#FFFFFF" stroke-width="1" fill="#FFFFFF" fill-rule="nonzero" /><path id="742" transform="matrix(1 0 0 -1 0 792)" d="M666.067 64.1796L1132.725 64.1796L1132.725 64.1796L1132.725 104.4231L1132.725 104.4231L666.067 104.4231z" stroke="#FFFFFF" stroke-width="1" fill="#FFFFFF" fill-rule="nonzero" /><path id="864" transform="matrix(1 0 0 -1 0 792)" d="M54.067 721.28L520.722 721.28" stroke="#000000" stroke-width="0.498" fill="none" /><path id="1191" transform="matrix(1 0 0 -1 0 792)" d="M271.206 608.268L274.195 608.268" stroke="#000000" stroke-width="0.398" fill="none" /><path id="1569" transform="matrix(1 0 0 -1 0 792)" d="M131.396 481.763L134.385 481.763" stroke="#000000" stroke-width="0.398" fill="none" /><path id="1746" transform="matrix(1 0 0 -1 0 792)" d="M163.078 454.664L166.067 454.664" stroke="#000000" stroke-width="0.398" fill="none" /><path id="1814" transform="matrix(1 0 0 -1 0 792)" d="M93.893 441.115L96.882 441.115" stroke="#000000" stroke-width="0.398" fill="none" /><path id="2192" transform="matrix(1 0 0 -1 0 792)" d="M54.067 296.949L438.998 296.949" stroke="#000000" stroke-width="0.398" fill="none" /><path id="2193" transform="matrix(1 0 0 -1 0 792)" d="M54.266 283.184L54.266 296.751" stroke="#000000" stroke-width="0.398" fill="none" /><path id="2194" transform="matrix(1 0 0 -1 0 792)" d="M54.466 283.184L383.221 283.184L383.221 296.751L54.466 296.751z" stroke="none" fill="#CCCCEB" fill-rule="nonzero" /><path id="2204" transform="matrix(1 0 0 -1 0 792)" d="M383.42 283.184L383.42 296.751" stroke="#000000" stroke-width="0.398" fill="none" /><path id="2205" transform="matrix(1 0 0 -1 0 792)" d="M383.619 283.184L438.599 283.184L438.599 296.751L383.619 296.751z" stroke="none" fill="#CCCCEB" fill-rule="nonzero" /><path id="2212" transform="matrix(1 0 0 -1 0 792)" d="M438.799 283.184L438.799 296.751" stroke="#000000" stroke-width="0.398" fill="none" /><path id="2213" transform="matrix(1 0 0 -1 0 792)" d="M54.067 282.984L438.998 282.984" stroke="#000000" stroke-width="0.398" fill="none" /><path id="2214" transform="matrix(1 0 0 -1 0 792)" d="M54.067 280.593L438.998 280.593" stroke="#000000" stroke-width="0.398" fill="none" /><path id="2215" transform="matrix(1 0 0 -1 0 792)" d="M54.266 266.827L54.266 280.394" stroke="#000000" stroke-width="0.398" fill="none" /><path id="2241" transform="matrix(1 0 0 -1 0 792)" d="M383.42 266.827L383.42 280.394" stroke="#000000" stroke-width="0.398" fill="none" /><path id="2243" transform="matrix(1 0 0 -1 0 792)" d="M438.799 266.827L438.799 280.394" stroke="#000000" stroke-width="0.398" fill="none" /><path id="2244" transform="matrix(1 0 0 -1 0 792)" d="M54.067 266.628L438.998 266.628" stroke="#000000" stroke-width="0.398" fill="none" /><path id="2245" transform="matrix(1 0 0 -1 0 792)" d="M54.266 252.862L54.266 266.429" stroke="#000000" stroke-width="0.398" fill="none" /><path id="2269" transform="matrix(1 0 0 -1 0 792)" d="M175.81 257.144L178.799 257.144" stroke="#000000" stroke-width="0.398" fill="none" /><path id="2277" transform="matrix(1 0 0 -1 0 792)" d="M383.42 252.862L383.42 266.429" stroke="#000000" stroke-width="0.398" fill="none" /><path id="2279" transform="matrix(1 0 0 -1 0 792)" d="M438.799 252.862L438.799 266.429" stroke="#000000" stroke-width="0.398" fill="none" /><path id="2280" transform="matrix(1 0 0 -1 0 792)" d="M54.067 252.663L438.998 252.663" stroke="#000000" stroke-width="0.398" fill="none" /><path id="2281" transform="matrix(1 0 0 -1 0 792)" d="M54.266 238.897L54.266 252.464" stroke="#000000" stroke-width="0.398" fill="none" /><path id="2322" transform="matrix(1 0 0 -1 0 792)" d="M383.42 238.897L383.42 252.464" stroke="#000000" stroke-width="0.398" fill="none" /><path id="2324" transform="matrix(1 0 0 -1 0 792)" d="M438.799 238.897L438.799 252.464" stroke="#000000" stroke-width="0.398" fill="none" /><path id="2325" transform="matrix(1 0 0 -1 0 792)" d="M54.067 238.698L438.998 238.698" stroke="#000000" stroke-width="0.398" fill="none" /><path id="2326" transform="matrix(1 0 0 -1 0 792)" d="M54.266 224.932L54.266 238.499" stroke="#000000" stroke-width="0.398" fill="none" /><path id="2350" transform="matrix(1 0 0 -1 0 792)" d="M175.81 229.213L178.799 229.213" stroke="#000000" stroke-width="0.398" fill="none" /><path id="2359" transform="matrix(1 0 0 -1 0 792)" d="M383.42 224.932L383.42 238.499" stroke="#000000" stroke-width="0.398" fill="none" /><path id="2361" transform="matrix(1 0 0 -1 0 792)" d="M438.799 224.932L438.799 238.499" stroke="#000000" stroke-width="0.398" fill="none" /><path id="2362" transform="matrix(1 0 0 -1 0 792)" d="M54.067 224.733L438.998 224.733" stroke="#000000" stroke-width="0.398" fill="none" /></g></g></svg>