<svg xmlns="http://www.w3.org/2000/svg" xmlns:xlink="http://www.w3.org/1999/xlink" id="body_8" preserveAspectRatio="xMinYMin meet" viewBox="0 0 1632 1056"><defs><clipPath id="1"><path id="" clip-rule="evenodd" transform="matrix(1 0 0 1 0 0)" d="M0 792L0 0L0 0L1224 0L1224 0L1224 792L1224 792L0 792z" /></clipPath></defs><g transform="matrix(1.333333 0 0 1.333333 0 0)"><g clip-path="url(#1)"><path id="17" transform="matrix(1 0 0 -1 0 792)" d="M666.067 721.28L1132.722 721.28" stroke="#000000" stroke-width="0.498" fill="none" /><path id="18" transform="matrix(1 0 0 -1 0 792)" d="M666.067 696.423L1050.998 696.423" stroke="#000000" stroke-width="0.398" fill="none" /><path id="19" transform="matrix(1 0 0 -1 0 792)" d="M666.266 682.658L666.266 696.225" stroke="#000000" stroke-width="0.398" fill="none" /><path id="20" transform="matrix(1 0 0 -1 0 792)" d="M666.4659 682.658L995.2209 682.658L995.2209 696.225L666.4659 696.225z" stroke="none" fill="#CCCCEB" fill-rule="nonzero" /><path id="30" transform="matrix(1 0 0 -1 0 792)" d="M995.42 682.658L995.42 696.225" stroke="#000000" stroke-width="0.398" fill="none" /><path id="31" transform="matrix(1 0 0 -1 0 792)" d="M995.619 682.658L1050.599 682.658L1050.599 696.225L995.619 696.225z" stroke="none" fill="#CCCCEB" fill-rule="nonzero" /><path id="38" transform="matrix(1 0 0 -1 0 792)" d="M1050.799 682.658L1050.799 696.225" stroke="#000000" stroke-width="0.398" fill="none" /><path id="39" transform="matrix(1 0 0 -1 0 792)" d="M666.067 682.458L1050.998 682.458" stroke="#000000" stroke-width="0.398" fill="none" /><path id="40" transform="matrix(1 0 0 -1 0 792)" d="M666.067 680.067L1050.998 680.067" stroke="#000000" stroke-width="0.398" fill="none" /><path id="41" transform="matrix(1 0 0 -1 0 792)" d="M666.266 666.301L666.266 679.868" stroke="#000000" stroke-width="0.398" fill="none" /><path id="44" transform="matrix(1 0 0 -1 0 792)" d="M684.996 670.583L687.985 670.583" stroke="#000000" stroke-width="0.398" fill="none" /><path id="50" transform="matrix(1 0 0 -1 0 792)" d="M995.42 666.301L995.42 679.868" stroke="#000000" stroke-width="0.398" fill="none" /><path id="52" transform="matrix(1 0 0 -1 0 792)" d="M1050.799 666.301L1050.799 679.868" stroke="#000000" stroke-width="0.398" fill="none" /><path id="53" transform="matrix(1 0 0 -1 0 792)" d="M666.067 666.102L1050.998 666.102" stroke="#000000" stroke-width="0.398" fill="none" /><path id="54" transform="matrix(1 0 0 -1 0 792)" d="M666.266 652.336L666.266 665.903" stroke="#000000" stroke-width="0.398" fill="none" /><path id="62" transform="matrix(1 0 0 -1 0 792)" d="M714.884 656.618L717.873 656.618" stroke="#000000" stroke-width="0.398" fill="none" /><path id="67" transform="matrix(1 0 0 -1 0 792)" d="M995.42 652.336L995.42 665.903" stroke="#000000" stroke-width="0.398" fill="none" /><path id="69" transform="matrix(1 0 0 -1 0 792)" d="M1050.799 652.336L1050.799 665.903" stroke="#000000" stroke-width="0.398" fill="none" /><path id="70" transform="matrix(1 0 0 -1 0 792)" d="M666.067 652.137L1050.998 652.137" stroke="#000000" stroke-width="0.398" fill="none" /><path id="71" transform="matrix(1 0 0 -1 0 792)" d="M666.266 638.371L666.266 651.938" stroke="#000000" stroke-width="0.398" fill="none" /><path id="79" transform="matrix(1 0 0 -1 0 792)" d="M714.884 642.653L717.873 642.653" stroke="#000000" stroke-width="0.398" fill="none" /><path id="85" transform="matrix(1 0 0 -1 0 792)" d="M995.42 638.371L995.42 651.938" stroke="#000000" stroke-width="0.398" fill="none" /><path id="87" transform="matrix(1 0 0 -1 0 792)" d="M1050.799 638.371L1050.799 651.938" stroke="#000000" stroke-width="0.398" fill="none" /><path id="88" transform="matrix(1 0 0 -1 0 792)" d="M666.067 638.172L1050.998 638.172" stroke="#000000" stroke-width="0.398" fill="none" /><path id="89" transform="matrix(1 0 0 -1 0 792)" d="M666.266 624.406L666.266 637.973" stroke="#000000" stroke-width="0.398" fill="none" /><path id="97" transform="matrix(1 0 0 -1 0 792)" d="M714.884 628.687L717.873 628.687" stroke="#000000" stroke-width="0.398" fill="none" /><path id="107" transform="matrix(1 0 0 -1 0 792)" d="M995.42 624.406L995.42 637.973" stroke="#000000" stroke-width="0.398" fill="none" /><path id="109" transform="matrix(1 0 0 -1 0 792)" d="M1050.799 624.406L1050.799 637.973" stroke="#000000" stroke-width="0.398" fill="none" /><path id="110" transform="matrix(1 0 0 -1 0 792)" d="M666.067 624.207L1050.998 624.207" stroke="#000000" stroke-width="0.398" fill="none" /><path id="111" transform="matrix(1 0 0 -1 0 792)" d="M666.266 610.441L666.266 624.008" stroke="#000000" stroke-width="0.398" fill="none" /><path id="117" transform="matrix(1 0 0 -1 0 792)" d="M702.929 614.722L705.918 614.722" stroke="#000000" stroke-width="0.398" fill="none" /><path id="126" transform="matrix(1 0 0 -1 0 792)" d="M995.42 610.441L995.42 624.008" stroke="#000000" stroke-width="0.398" fill="none" /><path id="128" transform="matrix(1 0 0 -1 0 792)" d="M1050.799 610.441L1050.799 624.008" stroke="#000000" stroke-width="0.398" fill="none" /><path id="129" transform="matrix(1 0 0 -1 0 792)" d="M666.067 610.242L1050.998 610.242" stroke="#000000" stroke-width="0.398" fill="none" /><path id="130" transform="matrix(1 0 0 -1 0 792)" d="M666.266 596.476L666.266 610.043" stroke="#000000" stroke-width="0.398" fill="none" /><path id="136" transform="matrix(1 0 0 -1 0 792)" d="M702.929 600.757L705.918 600.757" stroke="#000000" stroke-width="0.398" fill="none" /><path id="146" transform="matrix(1 0 0 -1 0 792)" d="M995.42 596.476L995.42 610.043" stroke="#000000" stroke-width="0.398" fill="none" /><path id="148" transform="matrix(1 0 0 -1 0 792)" d="M1050.799 596.476L1050.799 610.043" stroke="#000000" stroke-width="0.398" fill="none" /><path id="149" transform="matrix(1 0 0 -1 0 792)" d="M666.067 596.276L1050.998 596.276" stroke="#000000" stroke-width="0.398" fill="none" /><path id="150" transform="matrix(1 0 0 -1 0 792)" d="M666.266 582.51L666.266 596.077" stroke="#000000" stroke-width="0.398" fill="none" /><path id="154" transform="matrix(1 0 0 -1 0 792)" d="M690.974 586.792L693.963 586.792" stroke="#000000" stroke-width="0.398" fill="none" /><path id="157" transform="matrix(1 0 0 -1 0 792)" d="M706.516 586.792L709.505 586.792" stroke="#000000" stroke-width="0.398" fill="none" /><path id="164" transform="matrix(1 0 0 -1 0 792)" d="M995.42 582.51L995.42 596.077" stroke="#000000" stroke-width="0.398" fill="none" /><path id="166" transform="matrix(1 0 0 -1 0 792)" d="M1050.799 582.51L1050.799 596.077" stroke="#000000" stroke-width="0.398" fill="none" /><path id="167" transform="matrix(1 0 0 -1 0 792)" d="M666.067 582.311L1050.998 582.311" stroke="#000000" stroke-width="0.398" fill="none" /><path id="168" transform="matrix(1 0 0 -1 0 792)" d="M666.266 568.545L666.266 582.112" stroke="#000000" stroke-width="0.398" fill="none" /><path id="174" transform="matrix(1 0 0 -1 0 792)" d="M702.929 572.827L705.918 572.827" stroke="#000000" stroke-width="0.398" fill="none" /><path id="178" transform="matrix(1 0 0 -1 0 792)" d="M724.448 572.827L727.437 572.827" stroke="#000000" stroke-width="0.398" fill="none" /><path id="184" transform="matrix(1 0 0 -1 0 792)" d="M995.42 568.545L995.42 582.112" stroke="#000000" stroke-width="0.398" fill="none" /><path id="186" transform="matrix(1 0 0 -1 0 792)" d="M1050.799 568.545L1050.799 582.112" stroke="#000000" stroke-width="0.398" fill="none" /><path id="187" transform="matrix(1 0 0 -1 0 792)" d="M666.067 568.346L1050.998 568.346" stroke="#000000" stroke-width="0.398" fill="none" /><path id="213" transform="matrix(1 0 0 -1 0 792)" d="M666.067 529.588L1050.998 529.588" stroke="#000000" stroke-width="0.398" fill="none" /><path id="214" transform="matrix(1 0 0 -1 0 792)" d="M666.266 515.822L666.266 529.389" stroke="#000000" stroke-width="0.398" fill="none" /><path id="215" transform="matrix(1 0 0 -1 0 792)" d="M666.4659 515.822L995.2209 515.822L995.2209 529.389L666.4659 529.389z" stroke="none" fill="#CCCCEB" fill-rule="nonzero" /><path id="225" transform="matrix(1 0 0 -1 0 792)" d="M995.42 515.822L995.42 529.389" stroke="#000000" stroke-width="0.398" fill="none" /><path id="226" transform="matrix(1 0 0 -1 0 792)" d="M995.619 515.822L1050.599 515.822L1050.599 529.389L995.619 529.389z" stroke="none" fill="#CCCCEB" fill-rule="nonzero" /><path id="233" transform="matrix(1 0 0 -1 0 792)" d="M1050.799 515.822L1050.799 529.389" stroke="#000000" stroke-width="0.398" fill="none" /><path id="234" transform="matrix(1 0 0 -1 0 792)" d="M666.067 515.623L1050.998 515.623" stroke="#000000" stroke-width="0.398" fill="none" /><path id="235" transform="matrix(1 0 0 -1 0 792)" d="M666.067 513.232L1050.998 513.232" stroke="#000000" stroke-width="0.398" fill="none" /><path id="236" transform="matrix(1 0 0 -1 0 792)" d="M666.266 499.466L666.266 513.033" stroke="#000000" stroke-width="0.398" fill="none" /><path id="255" transform="matrix(1 0 0 -1 0 792)" d="M995.42 499.466L995.42 513.033" stroke="#000000" stroke-width="0.398" fill="none" /><path id="257" transform="matrix(1 0 0 -1 0 792)" d="M1050.799 499.466L1050.799 513.033" stroke="#000000" stroke-width="0.398" fill="none" /><path id="258" transform="matrix(1 0 0 -1 0 792)" d="M666.067 499.267L1050.998 499.267" stroke="#000000" stroke-width="0.398" fill="none" /><path id="290" transform="matrix(1 0 0 -1 0 792)" d="M803.806 338.595L806.795 338.595" stroke="#000000" stroke-width="0.398" fill="none" /><path id="291" transform="matrix(1 0 0 -1 0 792)" d="M866.625 338.595L869.614 338.595" stroke="#000000" stroke-width="0.398" fill="none" /><path id="292" transform="matrix(1 0 0 -1 0 792)" d="M1006.611 338.595L1009.6 338.595" stroke="#000000" stroke-width="0.398" fill="none" /><path id="293" transform="matrix(1 0 0 -1 0 792)" d="M1111.801 338.595L1114.79 338.595" stroke="#000000" stroke-width="0.398" fill="none" /><path id="294" transform="matrix(1 0 0 -1 0 792)" d="M857.327 325.046L860.316 325.046" stroke="#000000" stroke-width="0.398" fill="none" /><path id="295" transform="matrix(1 0 0 -1 0 792)" d="M666.067 292.442L1050.998 292.442" stroke="#000000" stroke-width="0.398" fill="none" /><path id="296" transform="matrix(1 0 0 -1 0 792)" d="M666.266 278.676L666.266 292.243" stroke="#000000" stroke-width="0.398" fill="none" /><path id="297" transform="matrix(1 0 0 -1 0 792)" d="M666.4659 278.676L995.2209 278.676L995.2209 292.243L666.4659 292.243z" stroke="none" fill="#CCCCEB" fill-rule="nonzero" /><path id="307" transform="matrix(1 0 0 -1 0 792)" d="M995.42 278.676L995.42 292.243" stroke="#000000" stroke-width="0.398" fill="none" /><path id="308" transform="matrix(1 0 0 -1 0 792)" d="M995.619 278.676L1050.599 278.676L1050.599 292.243L995.619 292.243z" stroke="none" fill="#CCCCEB" fill-rule="nonzero" /><path id="315" transform="matrix(1 0 0 -1 0 792)" d="M1050.799 278.676L1050.799 292.243" stroke="#000000" stroke-width="0.398" fill="none" /><path id="316" transform="matrix(1 0 0 -1 0 792)" d="M666.067 278.477L1050.998 278.477" stroke="#000000" stroke-width="0.398" fill="none" /><path id="317" transform="matrix(1 0 0 -1 0 792)" d="M666.067 276.086L1050.998 276.086" stroke="#000000" stroke-width="0.398" fill="none" /><path id="318" transform="matrix(1 0 0 -1 0 792)" d="M666.266 262.32L666.266 275.887" stroke="#000000" stroke-width="0.398" fill="none" /><path id="338" transform="matrix(1 0 0 -1 0 792)" d="M995.42 262.32L995.42 275.887" stroke="#000000" stroke-width="0.398" fill="none" /><path id="340" transform="matrix(1 0 0 -1 0 792)" d="M1050.799 262.32L1050.799 275.887" stroke="#000000" stroke-width="0.398" fill="none" /><path id="341" transform="matrix(1 0 0 -1 0 792)" d="M666.067 262.121L1050.998 262.121" stroke="#000000" stroke-width="0.398" fill="none" /><path id="342" transform="matrix(1 0 0 -1 0 792)" d="M666.266 248.355L666.266 261.922" stroke="#000000" stroke-width="0.398" fill="none" /><path id="356" transform="matrix(1 0 0 -1 0 792)" d="M995.42 248.355L995.42 261.922" stroke="#000000" stroke-width="0.398" fill="none" /><path id="358" transform="matrix(1 0 0 -1 0 792)" d="M1050.799 248.355L1050.799 261.922" stroke="#000000" stroke-width="0.398" fill="none" /><path id="359" transform="matrix(1 0 0 -1 0 792)" d="M666.067 248.156L1050.998 248.156" stroke="#000000" stroke-width="0.398" fill="none" /><path id="360" transform="matrix(1 0 0 -1 0 792)" d="M666.266 234.39L666.266 247.957" stroke="#000000" stroke-width="0.398" fill="none" /><path id="383" transform="matrix(1 0 0 -1 0 792)" d="M995.42 234.39L995.42 247.957" stroke="#000000" stroke-width="0.398" fill="none" /><path id="385" transform="matrix(1 0 0 -1 0 792)" d="M1050.799 234.39L1050.799 247.957" stroke="#000000" stroke-width="0.398" fill="none" /><path id="386" transform="matrix(1 0 0 -1 0 792)" d="M666.067 234.191L1050.998 234.191" stroke="#000000" stroke-width="0.398" fill="none" /><path id="387" transform="matrix(1 0 0 -1 0 792)" d="M666.067 407.416L1132.725 407.416L1132.725 407.416L1132.725 447.6595L1132.725 447.6595L666.067 447.6595z" stroke="#FFFFFF" stroke-width="1" fill="#FFFFFF" fill-rule="nonzero" /><path id="479" transform="matrix(1 0 0 -1 0 792)" d="M683.004 392.419L1132.721 392.419L1132.721 392.419L1132.721 405.5645L1132.721 405.5645L683.004 405.5645z" stroke="#FFFFFF" stroke-width="1" fill="#FFFFFF" fill-rule="nonzero" /><path id="500" transform="matrix(1 0 0 -1 0 792)" d="M666.067 378.87L983.991 378.87L983.991 378.87L983.991 392.0155L983.991 392.0155L666.067 392.0155z" stroke="#FFFFFF" stroke-width="1" fill="#FFFFFF" fill-rule="nonzero" /><path id="518" transform="matrix(1 0 0 -1 0 792)" d="M683.004 363.543L1132.718 363.543L1132.718 363.543L1132.718 377.0203L1132.718 377.0203L683.004 377.0203z" stroke="#FFFFFF" stroke-width="1" fill="#FFFFFF" fill-rule="nonzero" /><path id="556" transform="matrix(1 0 0 -1 0 792)" d="M683.004 335.33L1132.723 335.33L1132.723 335.33L1132.723 348.4755L1132.723 348.4755L683.004 348.4755z" stroke="#FFFFFF" stroke-width="1" fill="#FFFFFF" fill-rule="nonzero" /><path id="581" transform="matrix(1 0 0 -1 0 792)" d="M666.067 321.781L1083.716 321.781L1083.716 321.781L1083.716 334.9265L1083.716 334.9265L666.067 334.9265z" stroke="#FFFFFF" stroke-width="1" fill="#FFFFFF" fill-rule="nonzero" /><path id="616" transform="matrix(1 0 0 -1 0 792)" d="M683.004 306.786L984.673 306.786L984.673 306.786L984.673 319.9315L984.673 319.9315L683.004 319.9315z" stroke="#FFFFFF" stroke-width="1" fill="#FFFFFF" fill-rule="nonzero" /><path id="635" transform="matrix(1 0 0 -1 0 792)" d="M693.34 133.072L1132.723 133.072L1132.723 133.072L1132.723 205.7396L1132.723 205.7396L693.34 205.7396z" stroke="#FFFFFF" stroke-width="1" fill="#FFFFFF" fill-rule="nonzero" /><path id="800" transform="matrix(1 0 0 -1 0 792)" d="M693.34 79.3697L1132.721 79.3697L1132.721 79.3697L1132.721 128.1264L1132.721 128.1264L693.34 128.1264z" stroke="#FFFFFF" stroke-width="1" fill="#FFFFFF" fill-rule="nonzero" /><path id="945" transform="matrix(1 0 0 -1 0 792)" d="M54.067 721.28L520.722 721.28" stroke="#000000" stroke-width="0.498" fill="none" /><path id="946" transform="matrix(1 0 0 -1 0 792)" d="M54.067 696.423L438.998 696.423" stroke="#000000" stroke-width="0.398" fill="none" /><path id="947" transform="matrix(1 0 0 -1 0 792)" d="M54.266 682.658L54.266 696.225" stroke="#000000" stroke-width="0.398" fill="none" /><path id="948" transform="matrix(1 0 0 -1 0 792)" d="M54.466 682.658L383.221 682.658L383.221 696.225L54.466 696.225z" stroke="none" fill="#CCCCEB" fill-rule="nonzero" /><path id="958" transform="matrix(1 0 0 -1 0 792)" d="M383.42 682.658L383.42 696.225" stroke="#000000" stroke-width="0.398" fill="none" /><path id="959" transform="matrix(1 0 0 -1 0 792)" d="M383.619 682.658L438.599 682.658L438.599 696.225L383.619 696.225z" stroke="none" fill="#CCCCEB" fill-rule="nonzero" /><path id="966" transform="matrix(1 0 0 -1 0 792)" d="M438.799 682.658L438.799 696.225" stroke="#000000" stroke-width="0.398" fill="none" /><path id="967" transform="matrix(1 0 0 -1 0 792)" d="M54.067 682.458L438.998 682.458" stroke="#000000" stroke-width="0.398" fill="none" /><path id="968" transform="matrix(1 0 0 -1 0 792)" d="M54.067 680.067L438.998 680.067" stroke="#000000" stroke-width="0.398" fill="none" /><path id="969" transform="matrix(1 0 0 -1 0 792)" d="M54.266 666.301L54.266 679.868" stroke="#000000" stroke-width="0.398" fill="none" /><path id="972" transform="matrix(1 0 0 -1 0 792)" d="M72.996 670.583L75.985 670.583" stroke="#000000" stroke-width="0.398" fill="none" /><path id="978" transform="matrix(1 0 0 -1 0 792)" d="M383.42 666.301L383.42 679.868" stroke="#000000" stroke-width="0.398" fill="none" /><path id="980" transform="matrix(1 0 0 -1 0 792)" d="M438.799 666.301L438.799 679.868" stroke="#000000" stroke-width="0.398" fill="none" /><path id="981" transform="matrix(1 0 0 -1 0 792)" d="M54.067 666.102L438.998 666.102" stroke="#000000" stroke-width="0.398" fill="none" /><path id="982" transform="matrix(1 0 0 -1 0 792)" d="M54.266 652.336L54.266 665.903" stroke="#000000" stroke-width="0.398" fill="none" /><path id="990" transform="matrix(1 0 0 -1 0 792)" d="M102.884 656.618L105.873 656.618" stroke="#000000" stroke-width="0.398" fill="none" /><path id="995" transform="matrix(1 0 0 -1 0 792)" d="M383.42 652.336L383.42 665.903" stroke="#000000" stroke-width="0.398" fill="none" /><path id="997" transform="matrix(1 0 0 -1 0 792)" d="M438.799 652.336L438.799 665.903" stroke="#000000" stroke-width="0.398" fill="none" /><path id="998" transform="matrix(1 0 0 -1 0 792)" d="M54.067 652.137L438.998 652.137" stroke="#000000" stroke-width="0.398" fill="none" /><path id="999" transform="matrix(1 0 0 -1 0 792)" d="M54.266 638.371L54.266 651.938" stroke="#000000" stroke-width="0.398" fill="none" /><path id="1007" transform="matrix(1 0 0 -1 0 792)" d="M102.884 642.653L105.873 642.653" stroke="#000000" stroke-width="0.398" fill="none" /><path id="1013" transform="matrix(1 0 0 -1 0 792)" d="M383.42 638.371L383.42 651.938" stroke="#000000" stroke-width="0.398" fill="none" /><path id="1015" transform="matrix(1 0 0 -1 0 792)" d="M438.799 638.371L438.799 651.938" stroke="#000000" stroke-width="0.398" fill="none" /><path id="1016" transform="matrix(1 0 0 -1 0 792)" d="M54.067 638.172L438.998 638.172" stroke="#000000" stroke-width="0.398" fill="none" /><path id="1017" transform="matrix(1 0 0 -1 0 792)" d="M54.266 624.406L54.266 637.973" stroke="#000000" stroke-width="0.398" fill="none" /><path id="1025" transform="matrix(1 0 0 -1 0 792)" d="M102.884 628.687L105.873 628.687" stroke="#000000" stroke-width="0.398" fill="none" /><path id="1035" transform="matrix(1 0 0 -1 0 792)" d="M383.42 624.406L383.42 637.973" stroke="#000000" stroke-width="0.398" fill="none" /><path id="1037" transform="matrix(1 0 0 -1 0 792)" d="M438.799 624.406L438.799 637.973" stroke="#000000" stroke-width="0.398" fill="none" /><path id="1038" transform="matrix(1 0 0 -1 0 792)" d="M54.067 624.207L438.998 624.207" stroke="#000000" stroke-width="0.398" fill="none" /><path id="1039" transform="matrix(1 0 0 -1 0 792)" d="M54.266 610.441L54.266 624.008" stroke="#000000" stroke-width="0.398" fill="none" /><path id="1045" transform="matrix(1 0 0 -1 0 792)" d="M90.929 614.722L93.918 614.722" stroke="#000000" stroke-width="0.398" fill="none" /><path id="1054" transform="matrix(1 0 0 -1 0 792)" d="M383.42 610.441L383.42 624.008" stroke="#000000" stroke-width="0.398" fill="none" /><path id="1056" transform="matrix(1 0 0 -1 0 792)" d="M438.799 610.441L438.799 624.008" stroke="#000000" stroke-width="0.398" fill="none" /><path id="1057" transform="matrix(1 0 0 -1 0 792)" d="M54.067 610.242L438.998 610.242" stroke="#000000" stroke-width="0.398" fill="none" /><path id="1058" transform="matrix(1 0 0 -1 0 792)" d="M54.266 596.476L54.266 610.043" stroke="#000000" stroke-width="0.398" fill="none" /><path id="1064" transform="matrix(1 0 0 -1 0 792)" d="M90.929 600.757L93.918 600.757" stroke="#000000" stroke-width="0.398" fill="none" /><path id="1074" transform="matrix(1 0 0 -1 0 792)" d="M383.42 596.476L383.42 610.043" stroke="#000000" stroke-width="0.398" fill="none" /><path id="1076" transform="matrix(1 0 0 -1 0 792)" d="M438.799 596.476L438.799 610.043" stroke="#000000" stroke-width="0.398" fill="none" /><path id="1077" transform="matrix(1 0 0 -1 0 792)" d="M54.067 596.276L438.998 596.276" stroke="#000000" stroke-width="0.398" fill="none" /><path id="1078" transform="matrix(1 0 0 -1 0 792)" d="M54.266 582.51L54.266 596.077" stroke="#000000" stroke-width="0.398" fill="none" /><path id="1082" transform="matrix(1 0 0 -1 0 792)" d="M78.974 586.792L81.963 586.792" stroke="#000000" stroke-width="0.398" fill="none" /><path id="1085" transform="matrix(1 0 0 -1 0 792)" d="M94.516 586.792L97.505 586.792" stroke="#000000" stroke-width="0.398" fill="none" /><path id="1092" transform="matrix(1 0 0 -1 0 792)" d="M383.42 582.51L383.42 596.077" stroke="#000000" stroke-width="0.398" fill="none" /><path id="1094" transform="matrix(1 0 0 -1 0 792)" d="M438.799 582.51L438.799 596.077" stroke="#000000" stroke-width="0.398" fill="none" /><path id="1095" transform="matrix(1 0 0 -1 0 792)" d="M54.067 582.311L438.998 582.311" stroke="#000000" stroke-width="0.398" fill="none" /><path id="1096" transform="matrix(1 0 0 -1 0 792)" d="M54.266 568.545L54.266 582.112" stroke="#000000" stroke-width="0.398" fill="none" /><path id="1102" transform="matrix(1 0 0 -1 0 792)" d="M90.929 572.827L93.918 572.827" stroke="#000000" stroke-width="0.398" fill="none" /><path id="1106" transform="matrix(1 0 0 -1 0 792)" d="M112.448 572.827L115.437 572.827" stroke="#000000" stroke-width="0.398" fill="none" /><path id="1112" transform="matrix(1 0 0 -1 0 792)" d="M383.42 568.545L383.42 582.112" stroke="#000000" stroke-width="0.398" fill="none" /><path id="1114" transform="matrix(1 0 0 -1 0 792)" d="M438.799 568.545L438.799 582.112" stroke="#000000" stroke-width="0.398" fill="none" /><path id="1115" transform="matrix(1 0 0 -1 0 792)" d="M54.067 568.346L438.998 568.346" stroke="#000000" stroke-width="0.398" fill="none" /><path id="1141" transform="matrix(1 0 0 -1 0 792)" d="M54.067 529.588L438.998 529.588" stroke="#000000" stroke-width="0.398" fill="none" /><path id="1142" transform="matrix(1 0 0 -1 0 792)" d="M54.266 515.822L54.266 529.389" stroke="#000000" stroke-width="0.398" fill="none" /><path id="1143" transform="matrix(1 0 0 -1 0 792)" d="M54.466 515.822L383.221 515.822L383.221 529.389L54.466 529.389z" stroke="none" fill="#CCCCEB" fill-rule="nonzero" /><path id="1153" transform="matrix(1 0 0 -1 0 792)" d="M383.42 515.822L383.42 529.389" stroke="#000000" stroke-width="0.398" fill="none" /><path id="1154" transform="matrix(1 0 0 -1 0 792)" d="M383.619 515.822L438.599 515.822L438.599 529.389L383.619 529.389z" stroke="none" fill="#CCCCEB" fill-rule="nonzero" /><path id="1161" transform="matrix(1 0 0 -1 0 792)" d="M438.799 515.822L438.799 529.389" stroke="#000000" stroke-width="0.398" fill="none" /><path id="1162" transform="matrix(1 0 0 -1 0 792)" d="M54.067 515.623L438.998 515.623" stroke="#000000" stroke-width="0.398" fill="none" /><path id="1163" transform="matrix(1 0 0 -1 0 792)" d="M54.067 513.232L438.998 513.232" stroke="#000000" stroke-width="0.398" fill="none" /><path id="1164" transform="matrix(1 0 0 -1 0 792)" d="M54.266 499.466L54.266 513.033" stroke="#000000" stroke-width="0.398" fill="none" /><path id="1183" transform="matrix(1 0 0 -1 0 792)" d="M383.42 499.466L383.42 513.033" stroke="#000000" stroke-width="0.398" fill="none" /><path id="1185" transform="matrix(1 0 0 -1 0 792)" d="M438.799 499.466L438.799 513.033" stroke="#000000" stroke-width="0.398" fill="none" /><path id="1186" transform="matrix(1 0 0 -1 0 792)" d="M54.067 499.267L438.998 499.267" stroke="#000000" stroke-width="0.398" fill="none" /><path id="1719" transform="matrix(1 0 0 -1 0 792)" d="M191.806 338.595L194.795 338.595" stroke="#000000" stroke-width="0.398" fill="none" /><path id="1730" transform="matrix(1 0 0 -1 0 792)" d="M254.625 338.595L257.614 338.595" stroke="#000000" stroke-width="0.398" fill="none" /><path id="1754" transform="matrix(1 0 0 -1 0 792)" d="M394.611 338.595L397.6 338.595" stroke="#000000" stroke-width="0.398" fill="none" /><path id="1772" transform="matrix(1 0 0 -1 0 792)" d="M499.801 338.595L502.79 338.595" stroke="#000000" stroke-width="0.398" fill="none" /><path id="1812" transform="matrix(1 0 0 -1 0 792)" d="M245.327 325.046L248.316 325.046" stroke="#000000" stroke-width="0.398" fill="none" /><path id="1913" transform="matrix(1 0 0 -1 0 792)" d="M54.067 292.442L438.998 292.442" stroke="#000000" stroke-width="0.398" fill="none" /><path id="1914" transform="matrix(1 0 0 -1 0 792)" d="M54.266 278.676L54.266 292.243" stroke="#000000" stroke-width="0.398" fill="none" /><path id="1915" transform="matrix(1 0 0 -1 0 792)" d="M54.466 278.676L383.221 278.676L383.221 292.243L54.466 292.243z" stroke="none" fill="#CCCCEB" fill-rule="nonzero" /><path id="1925" transform="matrix(1 0 0 -1 0 792)" d="M383.42 278.676L383.42 292.243" stroke="#000000" stroke-width="0.398" fill="none" /><path id="1926" transform="matrix(1 0 0 -1 0 792)" d="M383.619 278.676L438.599 278.676L438.599 292.243L383.619 292.243z" stroke="none" fill="#CCCCEB" fill-rule="nonzero" /><path id="1933" transform="matrix(1 0 0 -1 0 792)" d="M438.799 278.676L438.799 292.243" stroke="#000000" stroke-width="0.398" fill="none" /><path id="1934" transform="matrix(1 0 0 -1 0 792)" d="M54.067 278.477L438.998 278.477" stroke="#000000" stroke-width="0.398" fill="none" /><path id="1935" transform="matrix(1 0 0 -1 0 792)" d="M54.067 276.086L438.998 276.086" stroke="#000000" stroke-width="0.398" fill="none" /><path id="1936" transform="matrix(1 0 0 -1 0 792)" d="M54.266 262.32L54.266 275.887" stroke="#000000" stroke-width="0.398" fill="none" /><path id="1956" transform="matrix(1 0 0 -1 0 792)" d="M383.42 262.32L383.42 275.887" stroke="#000000" stroke-width="0.398" fill="none" /><path id="1958" transform="matrix(1 0 0 -1 0 792)" d="M438.799 262.32L438.799 275.887" stroke="#000000" stroke-width="0.398" fill="none" /><path id="1959" transform="matrix(1 0 0 -1 0 792)" d="M54.067 262.121L438.998 262.121" stroke="#000000" stroke-width="0.398" fill="none" /><path id="1960" transform="matrix(1 0 0 -1 0 792)" d="M54.266 248.355L54.266 261.922" stroke="#000000" stroke-width="0.398" fill="none" /><path id="1974" transform="matrix(1 0 0 -1 0 792)" d="M383.42 248.355L383.42 261.922" stroke="#000000" stroke-width="0.398" fill="none" /><path id="1976" transform="matrix(1 0 0 -1 0 792)" d="M438.799 248.355L438.799 261.922" stroke="#000000" stroke-width="0.398" fill="none" /><path id="1977" transform="matrix(1 0 0 -1 0 792)" d="M54.067 248.156L438.998 248.156" stroke="#000000" stroke-width="0.398" fill="none" /><path id="1978" transform="matrix(1 0 0 -1 0 792)" d="M54.266 234.39L54.266 247.957" stroke="#000000" stroke-width="0.398" fill="none" /><path id="2001" transform="matrix(1 0 0 -1 0 792)" d="M383.42 234.39L383.42 247.957" stroke="#000000" stroke-width="0.398" fill="none" /><path id="2003" transform="matrix(1 0 0 -1 0 792)" d="M438.799 234.39L438.799 247.957" stroke="#000000" stroke-width="0.398" fill="none" /><path id="2004" transform="matrix(1 0 0 -1 0 792)" d="M54.067 234.191L438.998 234.191" stroke="#000000" stroke-width="0.398" fill="none" /></g></g></svg>