<svg xmlns="http://www.w3.org/2000/svg" xmlns:xlink="http://www.w3.org/1999/xlink" id="body_73" preserveAspectRatio="xMinYMin meet" viewBox="0 0 1632 1056"><defs><clipPath id="1"><path id="" clip-rule="evenodd" transform="matrix(1 0 0 1 0 0)" d="M0 792L0 0L0 0L1224 0L1224 0L1224 792L1224 792L0 792z" /></clipPath></defs><g transform="matrix(1.333333 0 0 1.333333 0 0)"><g clip-path="url(#1)"><path id="121" transform="matrix(1 0 0 -1 0 792)" d="M701.933 477.567L1168.591 477.567L1168.591 477.567L1168.591 517.8105L1168.591 517.8105L701.933 517.8105z" stroke="#FFFFFF" stroke-width="1" fill="#FFFFFF" fill-rule="nonzero" /><path id="195" transform="matrix(1 0 0 -1 0 792)" d="M718.869 464.018L1168.592 464.018L1168.592 464.018L1168.592 477.1635L1168.592 477.1635L718.869 477.1635z" stroke="#FFFFFF" stroke-width="1" fill="#FFFFFF" fill-rule="nonzero" /><path id="227" transform="matrix(1 0 0 -1 0 792)" d="M701.933 423.37L1168.592 423.37L1168.592 423.37L1168.592 463.6135L1168.592 463.6135L701.933 463.6135z" stroke="#FFFFFF" stroke-width="1" fill="#FFFFFF" fill-rule="nonzero" /><path id="319" transform="matrix(1 0 0 -1 0 792)" d="M718.869 409.821L1168.585 409.821L1168.585 409.821L1168.585 422.9665L1168.585 422.9665L718.869 422.9665z" stroke="#FFFFFF" stroke-width="1" fill="#FFFFFF" fill-rule="nonzero" /><path id="340" transform="matrix(1 0 0 -1 0 792)" d="M701.933 328.525L1168.591 328.525L1168.591 328.525L1168.591 409.4165L1168.591 409.4165L701.933 409.4165z" stroke="#FFFFFF" stroke-width="1" fill="#FFFFFF" fill-rule="nonzero" /><path id="521" transform="matrix(1 0 0 -1 0 792)" d="M701.933 291.723L1057.877 291.723L1057.877 291.723L1057.877 310.3874L1057.877 310.3874L701.933 310.3874z" stroke="#FFFFFF" stroke-width="1" fill="#FFFFFF" fill-rule="nonzero" /><path id="541" transform="matrix(1 0 0 -1 0 792)" d="M701.933 228.061L1168.59 228.061L1168.59 228.061L1168.59 281.8545L1168.59 281.8545L701.933 281.8545z" stroke="#FFFFFF" stroke-width="1" fill="#FFFFFF" fill-rule="nonzero" /><path id="674" transform="matrix(1 0 0 -1 0 792)" d="M718.869 214.181L992.076 214.181L992.076 214.181L992.076 227.6582L992.076 227.6582L718.869 227.6582z" stroke="#FFFFFF" stroke-width="1" fill="#FFFFFF" fill-rule="nonzero" /><path id="700" transform="matrix(1 0 0 -1 0 792)" d="M715.569 189.848L943.951 189.848L943.951 189.848L943.951 202.9935L943.951 202.9935L715.569 202.9935z" stroke="#FFFFFF" stroke-width="1" fill="#FFFFFF" fill-rule="nonzero" /><path id="720" transform="matrix(1 0 0 -1 0 792)" d="M715.569 167.613L943.951 167.613L943.951 167.613L943.951 180.7585L943.951 180.7585L715.569 180.7585z" stroke="#FFFFFF" stroke-width="1" fill="#FFFFFF" fill-rule="nonzero" /><path id="740" transform="matrix(1 0 0 -1 0 792)" d="M718.869 77.7284L1168.591 77.7284L1168.591 77.7284L1168.591 90.8739L1168.591 90.8739L718.869 90.8739z" stroke="#FFFFFF" stroke-width="1" fill="#FFFFFF" fill-rule="nonzero" /><path id="771" transform="matrix(1 0 0 -1 0 792)" d="M701.933 64.1794L924.282 64.1794L924.282 64.1794L924.282 77.3249L924.282 77.3249L701.933 77.3249z" stroke="#FFFFFF" stroke-width="1" fill="#FFFFFF" fill-rule="nonzero" /></g></g></svg>