<svg xmlns="http://www.w3.org/2000/svg" xmlns:xlink="http://www.w3.org/1999/xlink" id="body_1" preserveAspectRatio="xMinYMin meet" viewBox="0 0 1632 1056"><defs><clipPath id="1"><path id="" clip-rule="evenodd" transform="matrix(1 0 0 1 0 0)" d="M0 792L0 0L0 0L1224 0L1224 0L1224 792L1224 792L0 792z" /></clipPath></defs><g transform="matrix(1.333333 0 0 1.333333 0 0)"><g clip-path="url(#1)"><path id="1" transform="matrix(1 0 0 -1 0 792)" d="M736.911 534.71L1049.085 534.71L1049.085 534.71L1049.085 555.5918L1049.085 555.5918L736.911 555.5918z" stroke="#FFFFFF" stroke-width="1" fill="#FFFFFF" fill-rule="nonzero" /><path id="38" transform="matrix(1 0 0 -1 0 792)" d="M683.004 414.568L1102.993 414.568L1102.993 414.568L1102.993 522.558L1102.993 522.558L683.004 522.558z" stroke="#FFFFFF" stroke-width="1" fill="#FFFFFF" fill-rule="nonzero" /><path id="233" transform="matrix(1 0 0 -1 0 792)" d="M683.004 285.424L1102.993 285.424L1102.993 285.424L1102.993 406.964L1102.993 406.964L683.004 406.964z" stroke="#FFFFFF" stroke-width="1" fill="#FFFFFF" fill-rule="nonzero" /><path id="437" transform="matrix(1 0 0 -1 0 792)" d="M683.004 156.281L1102.993 156.281L1102.993 156.281L1102.993 277.82L1102.993 277.82L683.004 277.82z" stroke="#FFFFFF" stroke-width="1" fill="#FFFFFF" fill-rule="nonzero" /><path id="668" transform="matrix(1 0 0 -1 0 792)" d="M683.004 121.982L1102.993 121.982L1102.993 121.982L1102.993 148.6774L1102.993 148.6774L683.004 148.6774z" stroke="#FFFFFF" stroke-width="1" fill="#FFFFFF" fill-rule="nonzero" /></g></g></svg>