<svg xmlns="http://www.w3.org/2000/svg" xmlns:xlink="http://www.w3.org/1999/xlink" id="body_72" preserveAspectRatio="xMinYMin meet" viewBox="0 0 1632 1056"><defs><clipPath id="1"><path id="" clip-rule="evenodd" transform="matrix(1 0 0 1 0 0)" d="M0 792L0 0L0 0L1224 0L1224 0L1224 792L1224 792L0 792z" /></clipPath></defs><g transform="matrix(1.333333 0 0 1.333333 0 0)"><g clip-path="url(#1)"><path id="1" transform="matrix(1 0 0 -1 0 792)" d="M666.067 721.28L1132.722 721.28" stroke="#000000" stroke-width="0.498" fill="none" /><path id="2" transform="matrix(1 0 0 -1 0 792)" d="M666.067 476.107L1162.546 476.107" stroke="#000000" stroke-width="0.398" fill="none" /><path id="3" transform="matrix(1 0 0 -1 0 792)" d="M666.266 462.341L666.266 475.908" stroke="#000000" stroke-width="0.398" fill="none" /><path id="4" transform="matrix(1 0 0 -1 0 792)" d="M666.4659 462.341L858.421 462.341L858.421 475.908L666.4659 475.908z" stroke="none" fill="#CCCCEB" fill-rule="nonzero" /><path id="10" transform="matrix(1 0 0 -1 0 792)" d="M858.62 462.341L858.62 475.908" stroke="#000000" stroke-width="0.398" fill="none" /><path id="11" transform="matrix(1 0 0 -1 0 792)" d="M858.819 462.341L917.443 462.341L917.443 475.908L858.819 475.908z" stroke="none" fill="#CCCCEB" fill-rule="nonzero" /><path id="21" transform="matrix(1 0 0 -1 0 792)" d="M917.642 462.341L917.642 475.908" stroke="#000000" stroke-width="0.398" fill="none" /><path id="22" transform="matrix(1 0 0 -1 0 792)" d="M917.841 462.341L976.465 462.341L976.465 475.908L917.841 475.908z" stroke="none" fill="#CCCCEB" fill-rule="nonzero" /><path id="30" transform="matrix(1 0 0 -1 0 792)" d="M976.664 462.341L976.664 475.908" stroke="#000000" stroke-width="0.398" fill="none" /><path id="31" transform="matrix(1 0 0 -1 0 792)" d="M976.864 462.341L1162.148 462.341L1162.148 475.908L976.864 475.908z" stroke="none" fill="#CCCCEB" fill-rule="nonzero" /><path id="35" transform="matrix(1 0 0 -1 0 792)" d="M1162.347 462.341L1162.347 475.908" stroke="#000000" stroke-width="0.398" fill="none" /><path id="36" transform="matrix(1 0 0 -1 0 792)" d="M666.266 448.774L666.266 462.341" stroke="#000000" stroke-width="0.398" fill="none" /><path id="37" transform="matrix(1 0 0 -1 0 792)" d="M666.4659 448.774L858.421 448.774L858.421 462.341L666.4659 462.341z" stroke="none" fill="#CCCCEB" fill-rule="nonzero" /><path id="38" transform="matrix(1 0 0 -1 0 792)" d="M858.62 448.774L858.62 462.341" stroke="#000000" stroke-width="0.398" fill="none" /><path id="39" transform="matrix(1 0 0 -1 0 792)" d="M858.819 448.774L917.443 448.774L917.443 462.341L858.819 462.341z" stroke="none" fill="#CCCCEB" fill-rule="nonzero" /><path id="40" transform="matrix(1 0 0 -1 0 792)" d="M917.642 448.774L917.642 462.341" stroke="#000000" stroke-width="0.398" fill="none" /><path id="41" transform="matrix(1 0 0 -1 0 792)" d="M917.841 448.774L976.465 448.774L976.465 462.341L917.841 462.341z" stroke="none" fill="#CCCCEB" fill-rule="nonzero" /><path id="47" transform="matrix(1 0 0 -1 0 792)" d="M976.664 448.774L976.664 462.341" stroke="#000000" stroke-width="0.398" fill="none" /><path id="48" transform="matrix(1 0 0 -1 0 792)" d="M976.864 448.774L1162.148 448.774L1162.148 462.341L976.864 462.341z" stroke="none" fill="#CCCCEB" fill-rule="nonzero" /><path id="49" transform="matrix(1 0 0 -1 0 792)" d="M1162.347 448.774L1162.347 462.341" stroke="#000000" stroke-width="0.398" fill="none" /><path id="50" transform="matrix(1 0 0 -1 0 792)" d="M666.067 448.575L1162.546 448.575" stroke="#000000" stroke-width="0.398" fill="none" /><path id="51" transform="matrix(1 0 0 -1 0 792)" d="M666.067 446.184L1162.546 446.184" stroke="#000000" stroke-width="0.398" fill="none" /><path id="52" transform="matrix(1 0 0 -1 0 792)" d="M666.266 432.418L666.266 445.985" stroke="#000000" stroke-width="0.398" fill="none" /><path id="64" transform="matrix(1 0 0 -1 0 792)" d="M738.7939 436.7L741.783 436.7" stroke="#000000" stroke-width="0.398" fill="none" /><path id="72" transform="matrix(1 0 0 -1 0 792)" d="M858.62 432.418L858.62 445.985" stroke="#000000" stroke-width="0.398" fill="none" /><path id="74" transform="matrix(1 0 0 -1 0 792)" d="M917.642 432.418L917.642 445.985" stroke="#000000" stroke-width="0.398" fill="none" /><path id="76" transform="matrix(1 0 0 -1 0 792)" d="M976.664 432.418L976.664 445.985" stroke="#000000" stroke-width="0.398" fill="none" /><path id="88" transform="matrix(1 0 0 -1 0 792)" d="M1162.347 432.418L1162.347 445.985" stroke="#000000" stroke-width="0.398" fill="none" /><path id="89" transform="matrix(1 0 0 -1 0 792)" d="M666.067 432.219L1162.546 432.219" stroke="#000000" stroke-width="0.398" fill="none" /><path id="90" transform="matrix(1 0 0 -1 0 792)" d="M666.266 404.921L666.266 432.019" stroke="#000000" stroke-width="0.398" fill="none" /><path id="102" transform="matrix(1 0 0 -1 0 792)" d="M738.7939 422.735L741.783 422.735" stroke="#000000" stroke-width="0.398" fill="none" /><path id="113" transform="matrix(1 0 0 -1 0 792)" d="M802.157 422.735L805.146 422.735" stroke="#000000" stroke-width="0.398" fill="none" /><path id="120" transform="matrix(1 0 0 -1 0 792)" d="M841.6089 422.735L844.598 422.735" stroke="#000000" stroke-width="0.398" fill="none" /><path id="126" transform="matrix(1 0 0 -1 0 792)" d="M858.62 404.921L858.62 432.019" stroke="#000000" stroke-width="0.398" fill="none" /><path id="128" transform="matrix(1 0 0 -1 0 792)" d="M917.642 404.921L917.642 432.019" stroke="#000000" stroke-width="0.398" fill="none" /><path id="133" transform="matrix(1 0 0 -1 0 792)" d="M976.664 404.921L976.664 432.019" stroke="#000000" stroke-width="0.398" fill="none" /><path id="169" transform="matrix(1 0 0 -1 0 792)" d="M1162.347 404.921L1162.347 432.019" stroke="#000000" stroke-width="0.398" fill="none" /><path id="170" transform="matrix(1 0 0 -1 0 792)" d="M666.067 404.722L1162.546 404.722" stroke="#000000" stroke-width="0.398" fill="none" /><path id="171" transform="matrix(1 0 0 -1 0 792)" d="M666.266 377.424L666.266 404.522" stroke="#000000" stroke-width="0.398" fill="none" /><path id="183" transform="matrix(1 0 0 -1 0 792)" d="M738.7939 395.238L741.783 395.238" stroke="#000000" stroke-width="0.398" fill="none" /><path id="194" transform="matrix(1 0 0 -1 0 792)" d="M802.157 395.238L805.146 395.238" stroke="#000000" stroke-width="0.398" fill="none" /><path id="201" transform="matrix(1 0 0 -1 0 792)" d="M841.6089 395.238L844.598 395.238" stroke="#000000" stroke-width="0.398" fill="none" /><path id="207" transform="matrix(1 0 0 -1 0 792)" d="M858.62 377.424L858.62 404.522" stroke="#000000" stroke-width="0.398" fill="none" /><path id="209" transform="matrix(1 0 0 -1 0 792)" d="M917.642 377.424L917.642 404.522" stroke="#000000" stroke-width="0.398" fill="none" /><path id="211" transform="matrix(1 0 0 -1 0 792)" d="M976.664 377.424L976.664 404.522" stroke="#000000" stroke-width="0.398" fill="none" /><path id="247" transform="matrix(1 0 0 -1 0 792)" d="M1162.347 377.424L1162.347 404.522" stroke="#000000" stroke-width="0.398" fill="none" /><path id="248" transform="matrix(1 0 0 -1 0 792)" d="M666.067 377.225L1162.546 377.225" stroke="#000000" stroke-width="0.398" fill="none" /><path id="249" transform="matrix(1 0 0 -1 0 792)" d="M666.266 349.928L666.266 377.026" stroke="#000000" stroke-width="0.398" fill="none" /><path id="261" transform="matrix(1 0 0 -1 0 792)" d="M738.7939 367.741L741.783 367.741" stroke="#000000" stroke-width="0.398" fill="none" /><path id="272" transform="matrix(1 0 0 -1 0 792)" d="M802.157 367.741L805.146 367.741" stroke="#000000" stroke-width="0.398" fill="none" /><path id="281" transform="matrix(1 0 0 -1 0 792)" d="M714.884 354.192L717.873 354.192" stroke="#000000" stroke-width="0.398" fill="none" /><path id="287" transform="matrix(1 0 0 -1 0 792)" d="M858.62 349.928L858.62 377.026" stroke="#000000" stroke-width="0.398" fill="none" /><path id="288" transform="matrix(1 0 0 -1 0 792)" d="M917.642 349.928L917.642 377.026" stroke="#000000" stroke-width="0.398" fill="none" /><path id="290" transform="matrix(1 0 0 -1 0 792)" d="M976.664 349.928L976.664 377.026" stroke="#000000" stroke-width="0.398" fill="none" /><path id="326" transform="matrix(1 0 0 -1 0 792)" d="M1162.347 349.928L1162.347 377.026" stroke="#000000" stroke-width="0.398" fill="none" /><path id="327" transform="matrix(1 0 0 -1 0 792)" d="M666.067 349.728L1162.546 349.728" stroke="#000000" stroke-width="0.398" fill="none" /><path id="328" transform="matrix(1 0 0 -1 0 792)" d="M666.266 322.431L666.266 349.529" stroke="#000000" stroke-width="0.398" fill="none" /><path id="329" transform="matrix(1 0 0 -1 0 792)" d="M738.7939 340.244L741.783 340.244" stroke="#000000" stroke-width="0.398" fill="none" /><path id="330" transform="matrix(1 0 0 -1 0 792)" d="M802.157 340.244L805.146 340.244" stroke="#000000" stroke-width="0.398" fill="none" /><path id="331" transform="matrix(1 0 0 -1 0 792)" d="M714.884 326.695L717.873 326.695" stroke="#000000" stroke-width="0.398" fill="none" /><path id="332" transform="matrix(1 0 0 -1 0 792)" d="M742.381 326.695L745.37 326.695" stroke="#000000" stroke-width="0.398" fill="none" /><path id="333" transform="matrix(1 0 0 -1 0 792)" d="M763.9 326.695L766.889 326.695" stroke="#000000" stroke-width="0.398" fill="none" /><path id="334" transform="matrix(1 0 0 -1 0 792)" d="M858.62 322.431L858.62 349.529" stroke="#000000" stroke-width="0.398" fill="none" /><path id="335" transform="matrix(1 0 0 -1 0 792)" d="M917.642 322.431L917.642 349.529" stroke="#000000" stroke-width="0.398" fill="none" /><path id="336" transform="matrix(1 0 0 -1 0 792)" d="M976.664 322.431L976.664 349.529" stroke="#000000" stroke-width="0.398" fill="none" /><path id="337" transform="matrix(1 0 0 -1 0 792)" d="M1162.347 322.431L1162.347 349.529" stroke="#000000" stroke-width="0.398" fill="none" /><path id="338" transform="matrix(1 0 0 -1 0 792)" d="M666.067 322.231L1162.546 322.231" stroke="#000000" stroke-width="0.398" fill="none" /><path id="374" transform="matrix(1 0 0 -1 0 792)" d="M666.067 722.529L1132.724 722.529L1132.724 722.529L1132.724 735.6745L1132.724 735.6745L666.067 735.6745z" stroke="#FFFFFF" stroke-width="1" fill="#FFFFFF" fill-rule="nonzero" /><path id="384" transform="matrix(1 0 0 -1 0 792)" d="M672.443 315.068L1156.17 315.068L1156.17 315.068L1156.17 348.1252L1156.17 348.1252L672.443 348.1252z" stroke="#FFFFFF" stroke-width="1" fill="#FFFFFF" fill-rule="nonzero" /><path id="490" transform="matrix(1 0 0 -1 0 792)" d="M54.067 721.28L520.722 721.28" stroke="#000000" stroke-width="0.498" fill="none" /><path id="491" transform="matrix(1 0 0 -1 0 792)" d="M54.067 476.107L550.546 476.107" stroke="#000000" stroke-width="0.398" fill="none" /><path id="492" transform="matrix(1 0 0 -1 0 792)" d="M54.266 462.341L54.266 475.908" stroke="#000000" stroke-width="0.398" fill="none" /><path id="493" transform="matrix(1 0 0 -1 0 792)" d="M54.466 462.341L246.421 462.341L246.421 475.908L54.466 475.908z" stroke="none" fill="#CCCCEB" fill-rule="nonzero" /><path id="499" transform="matrix(1 0 0 -1 0 792)" d="M246.62 462.341L246.62 475.908" stroke="#000000" stroke-width="0.398" fill="none" /><path id="500" transform="matrix(1 0 0 -1 0 792)" d="M246.819 462.341L305.443 462.341L305.443 475.908L246.819 475.908z" stroke="none" fill="#CCCCEB" fill-rule="nonzero" /><path id="510" transform="matrix(1 0 0 -1 0 792)" d="M305.642 462.341L305.642 475.908" stroke="#000000" stroke-width="0.398" fill="none" /><path id="511" transform="matrix(1 0 0 -1 0 792)" d="M305.841 462.341L364.465 462.341L364.465 475.908L305.841 475.908z" stroke="none" fill="#CCCCEB" fill-rule="nonzero" /><path id="519" transform="matrix(1 0 0 -1 0 792)" d="M364.664 462.341L364.664 475.908" stroke="#000000" stroke-width="0.398" fill="none" /><path id="520" transform="matrix(1 0 0 -1 0 792)" d="M364.864 462.341L550.148 462.341L550.148 475.908L364.864 475.908z" stroke="none" fill="#CCCCEB" fill-rule="nonzero" /><path id="524" transform="matrix(1 0 0 -1 0 792)" d="M550.347 462.341L550.347 475.908" stroke="#000000" stroke-width="0.398" fill="none" /><path id="525" transform="matrix(1 0 0 -1 0 792)" d="M54.266 448.774L54.266 462.341" stroke="#000000" stroke-width="0.398" fill="none" /><path id="526" transform="matrix(1 0 0 -1 0 792)" d="M54.466 448.774L246.421 448.774L246.421 462.341L54.466 462.341z" stroke="none" fill="#CCCCEB" fill-rule="nonzero" /><path id="527" transform="matrix(1 0 0 -1 0 792)" d="M246.62 448.774L246.62 462.341" stroke="#000000" stroke-width="0.398" fill="none" /><path id="528" transform="matrix(1 0 0 -1 0 792)" d="M246.819 448.774L305.443 448.774L305.443 462.341L246.819 462.341z" stroke="none" fill="#CCCCEB" fill-rule="nonzero" /><path id="529" transform="matrix(1 0 0 -1 0 792)" d="M305.642 448.774L305.642 462.341" stroke="#000000" stroke-width="0.398" fill="none" /><path id="530" transform="matrix(1 0 0 -1 0 792)" d="M305.841 448.774L364.465 448.774L364.465 462.341L305.841 462.341z" stroke="none" fill="#CCCCEB" fill-rule="nonzero" /><path id="536" transform="matrix(1 0 0 -1 0 792)" d="M364.664 448.774L364.664 462.341" stroke="#000000" stroke-width="0.398" fill="none" /><path id="537" transform="matrix(1 0 0 -1 0 792)" d="M364.864 448.774L550.148 448.774L550.148 462.341L364.864 462.341z" stroke="none" fill="#CCCCEB" fill-rule="nonzero" /><path id="538" transform="matrix(1 0 0 -1 0 792)" d="M550.347 448.774L550.347 462.341" stroke="#000000" stroke-width="0.398" fill="none" /><path id="539" transform="matrix(1 0 0 -1 0 792)" d="M54.067 448.575L550.546 448.575" stroke="#000000" stroke-width="0.398" fill="none" /><path id="540" transform="matrix(1 0 0 -1 0 792)" d="M54.067 446.184L550.546 446.184" stroke="#000000" stroke-width="0.398" fill="none" /><path id="541" transform="matrix(1 0 0 -1 0 792)" d="M54.266 432.418L54.266 445.985" stroke="#000000" stroke-width="0.398" fill="none" /><path id="553" transform="matrix(1 0 0 -1 0 792)" d="M126.794 436.7L129.783 436.7" stroke="#000000" stroke-width="0.398" fill="none" /><path id="561" transform="matrix(1 0 0 -1 0 792)" d="M246.62 432.418L246.62 445.985" stroke="#000000" stroke-width="0.398" fill="none" /><path id="563" transform="matrix(1 0 0 -1 0 792)" d="M305.642 432.418L305.642 445.985" stroke="#000000" stroke-width="0.398" fill="none" /><path id="565" transform="matrix(1 0 0 -1 0 792)" d="M364.664 432.418L364.664 445.985" stroke="#000000" stroke-width="0.398" fill="none" /><path id="577" transform="matrix(1 0 0 -1 0 792)" d="M550.347 432.418L550.347 445.985" stroke="#000000" stroke-width="0.398" fill="none" /><path id="578" transform="matrix(1 0 0 -1 0 792)" d="M54.067 432.219L550.546 432.219" stroke="#000000" stroke-width="0.398" fill="none" /><path id="579" transform="matrix(1 0 0 -1 0 792)" d="M54.266 404.921L54.266 432.019" stroke="#000000" stroke-width="0.398" fill="none" /><path id="591" transform="matrix(1 0 0 -1 0 792)" d="M126.794 422.735L129.783 422.735" stroke="#000000" stroke-width="0.398" fill="none" /><path id="602" transform="matrix(1 0 0 -1 0 792)" d="M190.157 422.735L193.146 422.735" stroke="#000000" stroke-width="0.398" fill="none" /><path id="609" transform="matrix(1 0 0 -1 0 792)" d="M229.609 422.735L232.598 422.735" stroke="#000000" stroke-width="0.398" fill="none" /><path id="615" transform="matrix(1 0 0 -1 0 792)" d="M246.62 404.921L246.62 432.019" stroke="#000000" stroke-width="0.398" fill="none" /><path id="617" transform="matrix(1 0 0 -1 0 792)" d="M305.642 404.921L305.642 432.019" stroke="#000000" stroke-width="0.398" fill="none" /><path id="622" transform="matrix(1 0 0 -1 0 792)" d="M364.664 404.921L364.664 432.019" stroke="#000000" stroke-width="0.398" fill="none" /><path id="658" transform="matrix(1 0 0 -1 0 792)" d="M550.347 404.921L550.347 432.019" stroke="#000000" stroke-width="0.398" fill="none" /><path id="659" transform="matrix(1 0 0 -1 0 792)" d="M54.067 404.722L550.546 404.722" stroke="#000000" stroke-width="0.398" fill="none" /><path id="660" transform="matrix(1 0 0 -1 0 792)" d="M54.266 377.424L54.266 404.522" stroke="#000000" stroke-width="0.398" fill="none" /><path id="672" transform="matrix(1 0 0 -1 0 792)" d="M126.794 395.238L129.783 395.238" stroke="#000000" stroke-width="0.398" fill="none" /><path id="683" transform="matrix(1 0 0 -1 0 792)" d="M190.157 395.238L193.146 395.238" stroke="#000000" stroke-width="0.398" fill="none" /><path id="690" transform="matrix(1 0 0 -1 0 792)" d="M229.609 395.238L232.598 395.238" stroke="#000000" stroke-width="0.398" fill="none" /><path id="696" transform="matrix(1 0 0 -1 0 792)" d="M246.62 377.424L246.62 404.522" stroke="#000000" stroke-width="0.398" fill="none" /><path id="698" transform="matrix(1 0 0 -1 0 792)" d="M305.642 377.424L305.642 404.522" stroke="#000000" stroke-width="0.398" fill="none" /><path id="700" transform="matrix(1 0 0 -1 0 792)" d="M364.664 377.424L364.664 404.522" stroke="#000000" stroke-width="0.398" fill="none" /><path id="736" transform="matrix(1 0 0 -1 0 792)" d="M550.347 377.424L550.347 404.522" stroke="#000000" stroke-width="0.398" fill="none" /><path id="737" transform="matrix(1 0 0 -1 0 792)" d="M54.067 377.225L550.546 377.225" stroke="#000000" stroke-width="0.398" fill="none" /><path id="738" transform="matrix(1 0 0 -1 0 792)" d="M54.266 349.928L54.266 377.026" stroke="#000000" stroke-width="0.398" fill="none" /><path id="750" transform="matrix(1 0 0 -1 0 792)" d="M126.794 367.741L129.783 367.741" stroke="#000000" stroke-width="0.398" fill="none" /><path id="761" transform="matrix(1 0 0 -1 0 792)" d="M190.157 367.741L193.146 367.741" stroke="#000000" stroke-width="0.398" fill="none" /><path id="770" transform="matrix(1 0 0 -1 0 792)" d="M102.884 354.192L105.873 354.192" stroke="#000000" stroke-width="0.398" fill="none" /><path id="776" transform="matrix(1 0 0 -1 0 792)" d="M246.62 349.928L246.62 377.026" stroke="#000000" stroke-width="0.398" fill="none" /><path id="778" transform="matrix(1 0 0 -1 0 792)" d="M305.642 349.928L305.642 377.026" stroke="#000000" stroke-width="0.398" fill="none" /><path id="780" transform="matrix(1 0 0 -1 0 792)" d="M364.664 349.928L364.664 377.026" stroke="#000000" stroke-width="0.398" fill="none" /><path id="816" transform="matrix(1 0 0 -1 0 792)" d="M550.347 349.928L550.347 377.026" stroke="#000000" stroke-width="0.398" fill="none" /><path id="817" transform="matrix(1 0 0 -1 0 792)" d="M54.067 349.728L550.546 349.728" stroke="#000000" stroke-width="0.398" fill="none" /><path id="818" transform="matrix(1 0 0 -1 0 792)" d="M54.266 322.431L54.266 349.529" stroke="#000000" stroke-width="0.398" fill="none" /><path id="830" transform="matrix(1 0 0 -1 0 792)" d="M126.794 340.244L129.783 340.244" stroke="#000000" stroke-width="0.398" fill="none" /><path id="841" transform="matrix(1 0 0 -1 0 792)" d="M190.157 340.244L193.146 340.244" stroke="#000000" stroke-width="0.398" fill="none" /><path id="850" transform="matrix(1 0 0 -1 0 792)" d="M102.884 326.695L105.873 326.695" stroke="#000000" stroke-width="0.398" fill="none" /><path id="855" transform="matrix(1 0 0 -1 0 792)" d="M130.381 326.695L133.37 326.695" stroke="#000000" stroke-width="0.398" fill="none" /><path id="859" transform="matrix(1 0 0 -1 0 792)" d="M151.9 326.695L154.889 326.695" stroke="#000000" stroke-width="0.398" fill="none" /><path id="864" transform="matrix(1 0 0 -1 0 792)" d="M246.62 322.431L246.62 349.529" stroke="#000000" stroke-width="0.398" fill="none" /><path id="866" transform="matrix(1 0 0 -1 0 792)" d="M305.642 322.431L305.642 349.529" stroke="#000000" stroke-width="0.398" fill="none" /><path id="875" transform="matrix(1 0 0 -1 0 792)" d="M364.664 322.431L364.664 349.529" stroke="#000000" stroke-width="0.398" fill="none" /><path id="911" transform="matrix(1 0 0 -1 0 792)" d="M550.347 322.431L550.347 349.529" stroke="#000000" stroke-width="0.398" fill="none" /><path id="912" transform="matrix(1 0 0 -1 0 792)" d="M54.067 322.231L550.546 322.231" stroke="#000000" stroke-width="0.398" fill="none" /></g></g></svg>