<svg xmlns="http://www.w3.org/2000/svg" xmlns:xlink="http://www.w3.org/1999/xlink" id="body_29" preserveAspectRatio="xMinYMin meet" viewBox="0 0 1632 1056"><defs><clipPath id="1"><path id="" clip-rule="evenodd" transform="matrix(1 0 0 1 0 0)" d="M0 792L0 0L0 0L1224 0L1224 0L1224 792L1224 792L0 792z" /></clipPath></defs><g transform="matrix(1.333333 0 0 1.333333 0 0)"><g clip-path="url(#1)"><path id="16" transform="matrix(1 0 0 -1 0 792)" d="M701.933 721.28L1168.588 721.28" stroke="#000000" stroke-width="0.498" fill="none" /><path id="17" transform="matrix(1 0 0 -1 0 792)" d="M712.884 696.423L1157.636 696.423" stroke="#000000" stroke-width="0.398" fill="none" /><path id="18" transform="matrix(1 0 0 -1 0 792)" d="M712.884 696.423L1157.636 696.423" stroke="#000000" stroke-width="0.398" fill="none" /><path id="19" transform="matrix(1 0 0 -1 0 792)" d="M713.0829 682.658L713.0829 696.225" stroke="#000000" stroke-width="0.398" fill="none" /><path id="20" transform="matrix(1 0 0 -1 0 792)" d="M713.283 682.658L1042.038 682.658L1042.038 696.225L713.283 696.225z" stroke="none" fill="#CCCCEB" fill-rule="nonzero" /><path id="30" transform="matrix(1 0 0 -1 0 792)" d="M1042.237 682.658L1042.237 696.225" stroke="#000000" stroke-width="0.398" fill="none" /><path id="31" transform="matrix(1 0 0 -1 0 792)" d="M1042.436 682.658L1157.238 682.658L1157.238 696.225L1042.436 696.225z" stroke="none" fill="#CCCCEB" fill-rule="nonzero" /><path id="38" transform="matrix(1 0 0 -1 0 792)" d="M1157.437 682.658L1157.437 696.225" stroke="#000000" stroke-width="0.398" fill="none" /><path id="39" transform="matrix(1 0 0 -1 0 792)" d="M712.884 682.458L1157.636 682.458" stroke="#000000" stroke-width="0.398" fill="none" /><path id="40" transform="matrix(1 0 0 -1 0 792)" d="M712.884 682.458L1157.636 682.458" stroke="#000000" stroke-width="0.398" fill="none" /><path id="41" transform="matrix(1 0 0 -1 0 792)" d="M712.884 682.06L1157.636 682.06" stroke="#000000" stroke-width="0.398" fill="none" /><path id="42" transform="matrix(1 0 0 -1 0 792)" d="M712.884 682.06L1157.636 682.06" stroke="#000000" stroke-width="0.398" fill="none" /><path id="43" transform="matrix(1 0 0 -1 0 792)" d="M712.884 682.06L1157.636 682.06" stroke="#000000" stroke-width="0.398" fill="none" /><path id="44" transform="matrix(1 0 0 -1 0 792)" d="M713.0829 654.762L713.0829 681.86" stroke="#000000" stroke-width="0.398" fill="none" /><path id="119" transform="matrix(1 0 0 -1 0 792)" d="M1042.237 654.762L1042.237 681.86" stroke="#000000" stroke-width="0.398" fill="none" /><path id="121" transform="matrix(1 0 0 -1 0 792)" d="M1157.437 654.762L1157.437 681.86" stroke="#000000" stroke-width="0.398" fill="none" /><path id="122" transform="matrix(1 0 0 -1 0 792)" d="M712.884 654.563L1157.636 654.563" stroke="#000000" stroke-width="0.398" fill="none" /><path id="123" transform="matrix(1 0 0 -1 0 792)" d="M712.884 654.563L1157.636 654.563" stroke="#000000" stroke-width="0.398" fill="none" /><path id="124" transform="matrix(1 0 0 -1 0 792)" d="M713.0829 613.716L713.0829 654.364" stroke="#000000" stroke-width="0.398" fill="none" /><path id="222" transform="matrix(1 0 0 -1 0 792)" d="M1042.237 613.716L1042.237 654.364" stroke="#000000" stroke-width="0.398" fill="none" /><path id="225" transform="matrix(1 0 0 -1 0 792)" d="M1157.437 613.716L1157.437 654.364" stroke="#000000" stroke-width="0.398" fill="none" /><path id="226" transform="matrix(1 0 0 -1 0 792)" d="M712.884 613.517L1157.636 613.517" stroke="#000000" stroke-width="0.398" fill="none" /><path id="227" transform="matrix(1 0 0 -1 0 792)" d="M712.884 613.517L1157.636 613.517" stroke="#000000" stroke-width="0.398" fill="none" /><path id="228" transform="matrix(1 0 0 -1 0 792)" d="M713.0829 572.67L713.0829 613.318" stroke="#000000" stroke-width="0.398" fill="none" /><path id="337" transform="matrix(1 0 0 -1 0 792)" d="M1042.237 572.67L1042.237 613.318" stroke="#000000" stroke-width="0.398" fill="none" /><path id="339" transform="matrix(1 0 0 -1 0 792)" d="M1157.437 572.67L1157.437 613.318" stroke="#000000" stroke-width="0.398" fill="none" /><path id="340" transform="matrix(1 0 0 -1 0 792)" d="M712.884 572.471L1157.636 572.471" stroke="#000000" stroke-width="0.398" fill="none" /><path id="341" transform="matrix(1 0 0 -1 0 792)" d="M712.884 572.471L1157.636 572.471" stroke="#000000" stroke-width="0.398" fill="none" /><path id="342" transform="matrix(1 0 0 -1 0 792)" d="M713.0829 531.624L713.0829 572.272" stroke="#000000" stroke-width="0.398" fill="none" /><path id="458" transform="matrix(1 0 0 -1 0 792)" d="M1042.237 531.624L1042.237 572.272" stroke="#000000" stroke-width="0.398" fill="none" /><path id="460" transform="matrix(1 0 0 -1 0 792)" d="M1157.437 531.624L1157.437 572.272" stroke="#000000" stroke-width="0.398" fill="none" /><path id="461" transform="matrix(1 0 0 -1 0 792)" d="M712.884 531.425L1157.636 531.425" stroke="#000000" stroke-width="0.398" fill="none" /><path id="462" transform="matrix(1 0 0 -1 0 792)" d="M712.884 531.425L1157.636 531.425" stroke="#000000" stroke-width="0.398" fill="none" /><path id="463" transform="matrix(1 0 0 -1 0 792)" d="M713.0829 504.127L713.0829 531.225" stroke="#000000" stroke-width="0.398" fill="none" /><path id="587" transform="matrix(1 0 0 -1 0 792)" d="M1157.437 504.127L1157.437 531.225" stroke="#000000" stroke-width="0.398" fill="none" /><path id="588" transform="matrix(1 0 0 -1 0 792)" d="M713.0829 490.56L713.0829 504.127" stroke="#000000" stroke-width="0.398" fill="none" /><path id="603" transform="matrix(1 0 0 -1 0 792)" d="M826.408 494.842L829.397 494.842" stroke="#000000" stroke-width="0.398" fill="none" /><path id="615" transform="matrix(1 0 0 -1 0 792)" d="M1042.237 490.56L1042.237 504.127" stroke="#000000" stroke-width="0.398" fill="none" /><path id="618" transform="matrix(1 0 0 -1 0 792)" d="M1157.437 490.56L1157.437 504.127" stroke="#000000" stroke-width="0.398" fill="none" /><path id="619" transform="matrix(1 0 0 -1 0 792)" d="M713.0829 476.994L713.0829 490.561" stroke="#000000" stroke-width="0.398" fill="none" /><path id="634" transform="matrix(1 0 0 -1 0 792)" d="M826.408 481.275L829.397 481.275" stroke="#000000" stroke-width="0.398" fill="none" /><path id="639" transform="matrix(1 0 0 -1 0 792)" d="M853.905 481.275L856.894 481.275" stroke="#000000" stroke-width="0.398" fill="none" /><path id="643" transform="matrix(1 0 0 -1 0 792)" d="M875.425 481.275L878.414 481.275" stroke="#000000" stroke-width="0.398" fill="none" /><path id="652" transform="matrix(1 0 0 -1 0 792)" d="M926.832 481.275L929.821 481.275" stroke="#000000" stroke-width="0.398" fill="none" /><path id="663" transform="matrix(1 0 0 -1 0 792)" d="M1042.237 476.994L1042.237 490.561" stroke="#000000" stroke-width="0.398" fill="none" /><path id="666" transform="matrix(1 0 0 -1 0 792)" d="M1157.437 476.994L1157.437 490.561" stroke="#000000" stroke-width="0.398" fill="none" /><path id="667" transform="matrix(1 0 0 -1 0 792)" d="M713.0829 463.427L713.0829 476.994" stroke="#000000" stroke-width="0.398" fill="none" /><path id="682" transform="matrix(1 0 0 -1 0 792)" d="M826.408 467.709L829.397 467.709" stroke="#000000" stroke-width="0.398" fill="none" /><path id="687" transform="matrix(1 0 0 -1 0 792)" d="M853.905 467.709L856.894 467.709" stroke="#000000" stroke-width="0.398" fill="none" /><path id="691" transform="matrix(1 0 0 -1 0 792)" d="M875.425 467.709L878.414 467.709" stroke="#000000" stroke-width="0.398" fill="none" /><path id="700" transform="matrix(1 0 0 -1 0 792)" d="M926.832 467.709L929.821 467.709" stroke="#000000" stroke-width="0.398" fill="none" /><path id="711" transform="matrix(1 0 0 -1 0 792)" d="M1042.237 463.427L1042.237 476.994" stroke="#000000" stroke-width="0.398" fill="none" /><path id="714" transform="matrix(1 0 0 -1 0 792)" d="M1157.437 463.427L1157.437 476.994" stroke="#000000" stroke-width="0.398" fill="none" /><path id="715" transform="matrix(1 0 0 -1 0 792)" d="M713.0829 449.86L713.0829 463.427" stroke="#000000" stroke-width="0.398" fill="none" /><path id="730" transform="matrix(1 0 0 -1 0 792)" d="M826.408 454.142L829.397 454.142" stroke="#000000" stroke-width="0.398" fill="none" /><path id="735" transform="matrix(1 0 0 -1 0 792)" d="M853.905 454.142L856.894 454.142" stroke="#000000" stroke-width="0.398" fill="none" /><path id="739" transform="matrix(1 0 0 -1 0 792)" d="M875.425 454.142L878.414 454.142" stroke="#000000" stroke-width="0.398" fill="none" /><path id="748" transform="matrix(1 0 0 -1 0 792)" d="M926.832 454.142L929.821 454.142" stroke="#000000" stroke-width="0.398" fill="none" /><path id="759" transform="matrix(1 0 0 -1 0 792)" d="M1042.237 449.86L1042.237 463.427" stroke="#000000" stroke-width="0.398" fill="none" /><path id="762" transform="matrix(1 0 0 -1 0 792)" d="M1157.437 449.86L1157.437 463.427" stroke="#000000" stroke-width="0.398" fill="none" /><path id="763" transform="matrix(1 0 0 -1 0 792)" d="M713.0829 436.294L713.0829 449.861" stroke="#000000" stroke-width="0.398" fill="none" /><path id="778" transform="matrix(1 0 0 -1 0 792)" d="M826.408 440.575L829.397 440.575" stroke="#000000" stroke-width="0.398" fill="none" /><path id="783" transform="matrix(1 0 0 -1 0 792)" d="M853.905 440.575L856.894 440.575" stroke="#000000" stroke-width="0.398" fill="none" /><path id="787" transform="matrix(1 0 0 -1 0 792)" d="M875.425 440.575L878.414 440.575" stroke="#000000" stroke-width="0.398" fill="none" /><path id="796" transform="matrix(1 0 0 -1 0 792)" d="M926.832 440.575L929.821 440.575" stroke="#000000" stroke-width="0.398" fill="none" /><path id="807" transform="matrix(1 0 0 -1 0 792)" d="M1042.237 436.294L1042.237 449.861" stroke="#000000" stroke-width="0.398" fill="none" /><path id="810" transform="matrix(1 0 0 -1 0 792)" d="M1157.437 436.294L1157.437 449.861" stroke="#000000" stroke-width="0.398" fill="none" /><path id="811" transform="matrix(1 0 0 -1 0 792)" d="M713.0829 422.727L713.0829 436.294" stroke="#000000" stroke-width="0.398" fill="none" /><path id="826" transform="matrix(1 0 0 -1 0 792)" d="M826.408 427.009L829.397 427.009" stroke="#000000" stroke-width="0.398" fill="none" /><path id="831" transform="matrix(1 0 0 -1 0 792)" d="M853.905 427.009L856.894 427.009" stroke="#000000" stroke-width="0.398" fill="none" /><path id="835" transform="matrix(1 0 0 -1 0 792)" d="M875.425 427.009L878.414 427.009" stroke="#000000" stroke-width="0.398" fill="none" /><path id="844" transform="matrix(1 0 0 -1 0 792)" d="M926.832 427.009L929.821 427.009" stroke="#000000" stroke-width="0.398" fill="none" /><path id="855" transform="matrix(1 0 0 -1 0 792)" d="M1042.237 422.727L1042.237 436.294" stroke="#000000" stroke-width="0.398" fill="none" /><path id="858" transform="matrix(1 0 0 -1 0 792)" d="M1157.437 422.727L1157.437 436.294" stroke="#000000" stroke-width="0.398" fill="none" /><path id="859" transform="matrix(1 0 0 -1 0 792)" d="M713.0829 409.16L713.0829 422.727" stroke="#000000" stroke-width="0.398" fill="none" /><path id="874" transform="matrix(1 0 0 -1 0 792)" d="M826.408 413.442L829.397 413.442" stroke="#000000" stroke-width="0.398" fill="none" /><path id="879" transform="matrix(1 0 0 -1 0 792)" d="M853.905 413.442L856.894 413.442" stroke="#000000" stroke-width="0.398" fill="none" /><path id="883" transform="matrix(1 0 0 -1 0 792)" d="M875.425 413.442L878.414 413.442" stroke="#000000" stroke-width="0.398" fill="none" /><path id="892" transform="matrix(1 0 0 -1 0 792)" d="M926.832 413.442L929.821 413.442" stroke="#000000" stroke-width="0.398" fill="none" /><path id="903" transform="matrix(1 0 0 -1 0 792)" d="M1042.237 409.16L1042.237 422.727" stroke="#000000" stroke-width="0.398" fill="none" /><path id="906" transform="matrix(1 0 0 -1 0 792)" d="M1157.437 409.16L1157.437 422.727" stroke="#000000" stroke-width="0.398" fill="none" /><path id="907" transform="matrix(1 0 0 -1 0 792)" d="M713.0829 395.594L713.0829 409.161" stroke="#000000" stroke-width="0.398" fill="none" /><path id="920" transform="matrix(1 0 0 -1 0 792)" d="M814.453 399.875L817.442 399.875" stroke="#000000" stroke-width="0.398" fill="none" /><path id="928" transform="matrix(1 0 0 -1 0 792)" d="M859.883 399.875L862.872 399.875" stroke="#000000" stroke-width="0.398" fill="none" /><path id="931" transform="matrix(1 0 0 -1 0 792)" d="M1042.237 395.594L1042.237 409.161" stroke="#000000" stroke-width="0.398" fill="none" /><path id="933" transform="matrix(1 0 0 -1 0 792)" d="M1157.437 395.594L1157.437 409.161" stroke="#000000" stroke-width="0.398" fill="none" /><path id="934" transform="matrix(1 0 0 -1 0 792)" d="M713.0829 382.027L713.0829 395.594" stroke="#000000" stroke-width="0.398" fill="none" /><path id="943" transform="matrix(1 0 0 -1 0 792)" d="M1042.237 382.027L1042.237 395.594" stroke="#000000" stroke-width="0.398" fill="none" /><path id="945" transform="matrix(1 0 0 -1 0 792)" d="M1157.437 382.027L1157.437 395.594" stroke="#000000" stroke-width="0.398" fill="none" /><path id="946" transform="matrix(1 0 0 -1 0 792)" d="M712.884 381.828L1157.636 381.828" stroke="#000000" stroke-width="0.398" fill="none" /><path id="947" transform="matrix(1 0 0 -1 0 792)" d="M712.884 381.828L1157.636 381.828" stroke="#000000" stroke-width="0.398" fill="none" /><path id="948" transform="matrix(1 0 0 -1 0 792)" d="M713.0829 340.981L713.0829 381.629" stroke="#000000" stroke-width="0.398" fill="none" /><path id="1087" transform="matrix(1 0 0 -1 0 792)" d="M1157.437 340.981L1157.437 381.629" stroke="#000000" stroke-width="0.398" fill="none" /><path id="1088" transform="matrix(1 0 0 -1 0 792)" d="M713.0829 327.414L713.0829 340.981" stroke="#000000" stroke-width="0.398" fill="none" /><path id="1103" transform="matrix(1 0 0 -1 0 792)" d="M826.408 331.696L829.397 331.696" stroke="#000000" stroke-width="0.398" fill="none" /><path id="1115" transform="matrix(1 0 0 -1 0 792)" d="M1042.237 327.414L1042.237 340.981" stroke="#000000" stroke-width="0.398" fill="none" /><path id="1117" transform="matrix(1 0 0 -1 0 792)" d="M1157.437 327.414L1157.437 340.981" stroke="#000000" stroke-width="0.398" fill="none" /><path id="1118" transform="matrix(1 0 0 -1 0 792)" d="M713.0829 313.848L713.0829 327.415" stroke="#000000" stroke-width="0.398" fill="none" /><path id="1131" transform="matrix(1 0 0 -1 0 792)" d="M814.453 318.129L817.442 318.129" stroke="#000000" stroke-width="0.398" fill="none" /><path id="1139" transform="matrix(1 0 0 -1 0 792)" d="M859.883 318.129L862.872 318.129" stroke="#000000" stroke-width="0.398" fill="none" /><path id="1142" transform="matrix(1 0 0 -1 0 792)" d="M1042.237 313.848L1042.237 327.415" stroke="#000000" stroke-width="0.398" fill="none" /><path id="1144" transform="matrix(1 0 0 -1 0 792)" d="M1157.437 313.848L1157.437 327.415" stroke="#000000" stroke-width="0.398" fill="none" /><path id="1145" transform="matrix(1 0 0 -1 0 792)" d="M713.0829 300.281L713.0829 313.848" stroke="#000000" stroke-width="0.398" fill="none" /><path id="1154" transform="matrix(1 0 0 -1 0 792)" d="M1042.237 300.281L1042.237 313.848" stroke="#000000" stroke-width="0.398" fill="none" /><path id="1156" transform="matrix(1 0 0 -1 0 792)" d="M1157.437 300.281L1157.437 313.848" stroke="#000000" stroke-width="0.398" fill="none" /><path id="1157" transform="matrix(1 0 0 -1 0 792)" d="M712.884 300.082L1157.636 300.082" stroke="#000000" stroke-width="0.398" fill="none" /><path id="1158" transform="matrix(1 0 0 -1 0 792)" d="M712.884 300.082L1157.636 300.082" stroke="#000000" stroke-width="0.398" fill="none" /><path id="1159" transform="matrix(1 0 0 -1 0 792)" d="M713.0829 259.235L713.0829 299.883" stroke="#000000" stroke-width="0.398" fill="none" /><path id="1271" transform="matrix(1 0 0 -1 0 792)" d="M1042.237 259.235L1042.237 299.883" stroke="#000000" stroke-width="0.398" fill="none" /><path id="1273" transform="matrix(1 0 0 -1 0 792)" d="M1157.437 259.235L1157.437 299.883" stroke="#000000" stroke-width="0.398" fill="none" /><path id="1274" transform="matrix(1 0 0 -1 0 792)" d="M712.884 259.036L1157.636 259.036" stroke="#000000" stroke-width="0.398" fill="none" /><path id="1275" transform="matrix(1 0 0 -1 0 792)" d="M712.884 259.036L1157.636 259.036" stroke="#000000" stroke-width="0.398" fill="none" /><path id="1276" transform="matrix(1 0 0 -1 0 792)" d="M713.0829 218.189L713.0829 258.837" stroke="#000000" stroke-width="0.398" fill="none" /><path id="1411" transform="matrix(1 0 0 -1 0 792)" d="M1042.237 218.189L1042.237 258.837" stroke="#000000" stroke-width="0.398" fill="none" /><path id="1414" transform="matrix(1 0 0 -1 0 792)" d="M1157.437 218.189L1157.437 258.837" stroke="#000000" stroke-width="0.398" fill="none" /><path id="1415" transform="matrix(1 0 0 -1 0 792)" d="M712.884 217.99L1157.636 217.99" stroke="#000000" stroke-width="0.398" fill="none" /><path id="1416" transform="matrix(1 0 0 -1 0 792)" d="M712.884 217.99L1157.636 217.99" stroke="#000000" stroke-width="0.398" fill="none" /><path id="1417" transform="matrix(1 0 0 -1 0 792)" d="M713.0829 163.594L713.0829 217.791" stroke="#000000" stroke-width="0.398" fill="none" /><path id="1574" transform="matrix(1 0 0 -1 0 792)" d="M1042.237 163.594L1042.237 217.791" stroke="#000000" stroke-width="0.398" fill="none" /><path id="1576" transform="matrix(1 0 0 -1 0 792)" d="M1157.437 163.594L1157.437 217.791" stroke="#000000" stroke-width="0.398" fill="none" /><path id="1577" transform="matrix(1 0 0 -1 0 792)" d="M712.884 163.395L1157.636 163.395" stroke="#000000" stroke-width="0.398" fill="none" /><path id="1578" transform="matrix(1 0 0 -1 0 792)" d="M712.884 163.395L1157.636 163.395" stroke="#000000" stroke-width="0.398" fill="none" /><path id="1579" transform="matrix(1 0 0 -1 0 792)" d="M713.0829 136.097L713.0829 163.195" stroke="#000000" stroke-width="0.398" fill="none" /><path id="1633" transform="matrix(1 0 0 -1 0 792)" d="M1042.237 136.097L1042.237 163.195" stroke="#000000" stroke-width="0.398" fill="none" /><path id="1635" transform="matrix(1 0 0 -1 0 792)" d="M1157.437 136.097L1157.437 163.195" stroke="#000000" stroke-width="0.398" fill="none" /><path id="1636" transform="matrix(1 0 0 -1 0 792)" d="M712.884 135.898L1157.636 135.898" stroke="#000000" stroke-width="0.398" fill="none" /><path id="1637" transform="matrix(1 0 0 -1 0 792)" d="M712.884 135.898L1157.636 135.898" stroke="#000000" stroke-width="0.398" fill="none" /><path id="1638" transform="matrix(1 0 0 -1 0 792)" d="M713.0829 122.149L713.0829 135.698" stroke="#000000" stroke-width="0.398" fill="none" /><path id="1691" transform="matrix(1 0 0 -1 0 792)" d="M1157.437 122.149L1157.437 135.698" stroke="#000000" stroke-width="0.398" fill="none" /><path id="1692" transform="matrix(1 0 0 -1 0 792)" d="M713.0829 108.583L713.0829 122.15" stroke="#000000" stroke-width="0.398" fill="none" /><path id="1707" transform="matrix(1 0 0 -1 0 792)" d="M826.408 112.864L829.397 112.864" stroke="#000000" stroke-width="0.398" fill="none" /><path id="1718" transform="matrix(1 0 0 -1 0 792)" d="M889.771 112.864L892.76 112.864" stroke="#000000" stroke-width="0.398" fill="none" /><path id="1723" transform="matrix(1 0 0 -1 0 792)" d="M917.268 112.864L920.257 112.864" stroke="#000000" stroke-width="0.398" fill="none" /><path id="1727" transform="matrix(1 0 0 -1 0 792)" d="M1042.237 108.583L1042.237 122.15" stroke="#000000" stroke-width="0.398" fill="none" /><path id="1729" transform="matrix(1 0 0 -1 0 792)" d="M1157.437 108.583L1157.437 122.15" stroke="#000000" stroke-width="0.398" fill="none" /><path id="1730" transform="matrix(1 0 0 -1 0 792)" d="M713.0829 95.016L713.0829 108.583" stroke="#000000" stroke-width="0.398" fill="none" /><path id="1745" transform="matrix(1 0 0 -1 0 792)" d="M826.408 99.297L829.397 99.297" stroke="#000000" stroke-width="0.398" fill="none" /><path id="1748" transform="matrix(1 0 0 -1 0 792)" d="M1042.237 95.016L1042.237 108.583" stroke="#000000" stroke-width="0.398" fill="none" /><path id="1750" transform="matrix(1 0 0 -1 0 792)" d="M1157.437 95.016L1157.437 108.583" stroke="#000000" stroke-width="0.398" fill="none" /><path id="1751" transform="matrix(1 0 0 -1 0 792)" d="M713.0829 81.449L713.0829 95.016" stroke="#000000" stroke-width="0.398" fill="none" /><path id="1766" transform="matrix(1 0 0 -1 0 792)" d="M826.408 85.731L829.397 85.731" stroke="#000000" stroke-width="0.398" fill="none" /><path id="1769" transform="matrix(1 0 0 -1 0 792)" d="M1042.237 81.449L1042.237 95.016" stroke="#000000" stroke-width="0.398" fill="none" /><path id="1771" transform="matrix(1 0 0 -1 0 792)" d="M1157.437 81.449L1157.437 95.016" stroke="#000000" stroke-width="0.398" fill="none" /><path id="1772" transform="matrix(1 0 0 -1 0 792)" d="M713.0829 67.883L713.0829 81.45" stroke="#000000" stroke-width="0.398" fill="none" /><path id="1786" transform="matrix(1 0 0 -1 0 792)" d="M820.431 72.164L823.42 72.164" stroke="#000000" stroke-width="0.398" fill="none" /><path id="1790" transform="matrix(1 0 0 -1 0 792)" d="M841.95 72.164L844.939 72.164" stroke="#000000" stroke-width="0.398" fill="none" /><path id="1805" transform="matrix(1 0 0 -1 0 792)" d="M929.223 72.164L932.212 72.164" stroke="#000000" stroke-width="0.398" fill="none" /><path id="1809" transform="matrix(1 0 0 -1 0 792)" d="M950.742 72.164L953.731 72.164" stroke="#000000" stroke-width="0.398" fill="none" /><path id="1816" transform="matrix(1 0 0 -1 0 792)" d="M1042.237 67.883L1042.237 81.45" stroke="#000000" stroke-width="0.398" fill="none" /><path id="1818" transform="matrix(1 0 0 -1 0 792)" d="M1157.437 67.883L1157.437 81.45" stroke="#000000" stroke-width="0.398" fill="none" /><path id="1853" transform="matrix(1 0 0 -1 0 792)" d="M89.933 721.28L556.588 721.28" stroke="#000000" stroke-width="0.498" fill="none" /><path id="1854" transform="matrix(1 0 0 -1 0 792)" d="M100.884 696.423L545.636 696.423" stroke="#000000" stroke-width="0.398" fill="none" /><path id="1855" transform="matrix(1 0 0 -1 0 792)" d="M100.884 696.423L545.636 696.423" stroke="#000000" stroke-width="0.398" fill="none" /><path id="1856" transform="matrix(1 0 0 -1 0 792)" d="M101.083 682.658L101.083 696.225" stroke="#000000" stroke-width="0.398" fill="none" /><path id="1857" transform="matrix(1 0 0 -1 0 792)" d="M101.283 682.658L430.038 682.658L430.038 696.225L101.283 696.225z" stroke="none" fill="#CCCCEB" fill-rule="nonzero" /><path id="1867" transform="matrix(1 0 0 -1 0 792)" d="M430.237 682.658L430.237 696.225" stroke="#000000" stroke-width="0.398" fill="none" /><path id="1868" transform="matrix(1 0 0 -1 0 792)" d="M430.436 682.658L545.238 682.658L545.238 696.225L430.436 696.225z" stroke="none" fill="#CCCCEB" fill-rule="nonzero" /><path id="1875" transform="matrix(1 0 0 -1 0 792)" d="M545.437 682.658L545.437 696.225" stroke="#000000" stroke-width="0.398" fill="none" /><path id="1876" transform="matrix(1 0 0 -1 0 792)" d="M100.884 682.458L545.636 682.458" stroke="#000000" stroke-width="0.398" fill="none" /><path id="1877" transform="matrix(1 0 0 -1 0 792)" d="M100.884 682.458L545.636 682.458" stroke="#000000" stroke-width="0.398" fill="none" /><path id="1878" transform="matrix(1 0 0 -1 0 792)" d="M100.884 682.06L545.636 682.06" stroke="#000000" stroke-width="0.398" fill="none" /><path id="1879" transform="matrix(1 0 0 -1 0 792)" d="M100.884 682.06L545.636 682.06" stroke="#000000" stroke-width="0.398" fill="none" /><path id="1880" transform="matrix(1 0 0 -1 0 792)" d="M100.884 682.06L545.636 682.06" stroke="#000000" stroke-width="0.398" fill="none" /><path id="1881" transform="matrix(1 0 0 -1 0 792)" d="M101.083 654.762L101.083 681.86" stroke="#000000" stroke-width="0.398" fill="none" /><path id="1956" transform="matrix(1 0 0 -1 0 792)" d="M430.237 654.762L430.237 681.86" stroke="#000000" stroke-width="0.398" fill="none" /><path id="1958" transform="matrix(1 0 0 -1 0 792)" d="M545.437 654.762L545.437 681.86" stroke="#000000" stroke-width="0.398" fill="none" /><path id="1959" transform="matrix(1 0 0 -1 0 792)" d="M100.884 654.563L545.636 654.563" stroke="#000000" stroke-width="0.398" fill="none" /><path id="1960" transform="matrix(1 0 0 -1 0 792)" d="M100.884 654.563L545.636 654.563" stroke="#000000" stroke-width="0.398" fill="none" /><path id="1961" transform="matrix(1 0 0 -1 0 792)" d="M101.083 613.716L101.083 654.364" stroke="#000000" stroke-width="0.398" fill="none" /><path id="2059" transform="matrix(1 0 0 -1 0 792)" d="M430.237 613.716L430.237 654.364" stroke="#000000" stroke-width="0.398" fill="none" /><path id="2062" transform="matrix(1 0 0 -1 0 792)" d="M545.437 613.716L545.437 654.364" stroke="#000000" stroke-width="0.398" fill="none" /><path id="2063" transform="matrix(1 0 0 -1 0 792)" d="M100.884 613.517L545.636 613.517" stroke="#000000" stroke-width="0.398" fill="none" /><path id="2064" transform="matrix(1 0 0 -1 0 792)" d="M100.884 613.517L545.636 613.517" stroke="#000000" stroke-width="0.398" fill="none" /><path id="2065" transform="matrix(1 0 0 -1 0 792)" d="M101.083 572.67L101.083 613.318" stroke="#000000" stroke-width="0.398" fill="none" /><path id="2174" transform="matrix(1 0 0 -1 0 792)" d="M430.237 572.67L430.237 613.318" stroke="#000000" stroke-width="0.398" fill="none" /><path id="2176" transform="matrix(1 0 0 -1 0 792)" d="M545.437 572.67L545.437 613.318" stroke="#000000" stroke-width="0.398" fill="none" /><path id="2177" transform="matrix(1 0 0 -1 0 792)" d="M100.884 572.471L545.636 572.471" stroke="#000000" stroke-width="0.398" fill="none" /><path id="2178" transform="matrix(1 0 0 -1 0 792)" d="M100.884 572.471L545.636 572.471" stroke="#000000" stroke-width="0.398" fill="none" /><path id="2179" transform="matrix(1 0 0 -1 0 792)" d="M101.083 531.624L101.083 572.272" stroke="#000000" stroke-width="0.398" fill="none" /><path id="2295" transform="matrix(1 0 0 -1 0 792)" d="M430.237 531.624L430.237 572.272" stroke="#000000" stroke-width="0.398" fill="none" /><path id="2297" transform="matrix(1 0 0 -1 0 792)" d="M545.437 531.624L545.437 572.272" stroke="#000000" stroke-width="0.398" fill="none" /><path id="2298" transform="matrix(1 0 0 -1 0 792)" d="M100.884 531.425L545.636 531.425" stroke="#000000" stroke-width="0.398" fill="none" /><path id="2299" transform="matrix(1 0 0 -1 0 792)" d="M100.884 531.425L545.636 531.425" stroke="#000000" stroke-width="0.398" fill="none" /><path id="2300" transform="matrix(1 0 0 -1 0 792)" d="M101.083 504.127L101.083 531.225" stroke="#000000" stroke-width="0.398" fill="none" /><path id="2424" transform="matrix(1 0 0 -1 0 792)" d="M545.437 504.127L545.437 531.225" stroke="#000000" stroke-width="0.398" fill="none" /><path id="2425" transform="matrix(1 0 0 -1 0 792)" d="M101.083 490.56L101.083 504.127" stroke="#000000" stroke-width="0.398" fill="none" /><path id="2440" transform="matrix(1 0 0 -1 0 792)" d="M214.408 494.842L217.397 494.842" stroke="#000000" stroke-width="0.398" fill="none" /><path id="2452" transform="matrix(1 0 0 -1 0 792)" d="M430.237 490.56L430.237 504.127" stroke="#000000" stroke-width="0.398" fill="none" /><path id="2455" transform="matrix(1 0 0 -1 0 792)" d="M545.437 490.56L545.437 504.127" stroke="#000000" stroke-width="0.398" fill="none" /><path id="2456" transform="matrix(1 0 0 -1 0 792)" d="M101.083 476.994L101.083 490.561" stroke="#000000" stroke-width="0.398" fill="none" /><path id="2471" transform="matrix(1 0 0 -1 0 792)" d="M214.408 481.275L217.397 481.275" stroke="#000000" stroke-width="0.398" fill="none" /><path id="2476" transform="matrix(1 0 0 -1 0 792)" d="M241.905 481.275L244.894 481.275" stroke="#000000" stroke-width="0.398" fill="none" /><path id="2480" transform="matrix(1 0 0 -1 0 792)" d="M263.425 481.275L266.414 481.275" stroke="#000000" stroke-width="0.398" fill="none" /><path id="2489" transform="matrix(1 0 0 -1 0 792)" d="M314.832 481.275L317.821 481.275" stroke="#000000" stroke-width="0.398" fill="none" /><path id="2500" transform="matrix(1 0 0 -1 0 792)" d="M430.237 476.994L430.237 490.561" stroke="#000000" stroke-width="0.398" fill="none" /><path id="2503" transform="matrix(1 0 0 -1 0 792)" d="M545.437 476.994L545.437 490.561" stroke="#000000" stroke-width="0.398" fill="none" /><path id="2504" transform="matrix(1 0 0 -1 0 792)" d="M101.083 463.427L101.083 476.994" stroke="#000000" stroke-width="0.398" fill="none" /><path id="2519" transform="matrix(1 0 0 -1 0 792)" d="M214.408 467.709L217.397 467.709" stroke="#000000" stroke-width="0.398" fill="none" /><path id="2524" transform="matrix(1 0 0 -1 0 792)" d="M241.905 467.709L244.894 467.709" stroke="#000000" stroke-width="0.398" fill="none" /><path id="2528" transform="matrix(1 0 0 -1 0 792)" d="M263.425 467.709L266.414 467.709" stroke="#000000" stroke-width="0.398" fill="none" /><path id="2537" transform="matrix(1 0 0 -1 0 792)" d="M314.832 467.709L317.821 467.709" stroke="#000000" stroke-width="0.398" fill="none" /><path id="2548" transform="matrix(1 0 0 -1 0 792)" d="M430.237 463.427L430.237 476.994" stroke="#000000" stroke-width="0.398" fill="none" /><path id="2551" transform="matrix(1 0 0 -1 0 792)" d="M545.437 463.427L545.437 476.994" stroke="#000000" stroke-width="0.398" fill="none" /><path id="2552" transform="matrix(1 0 0 -1 0 792)" d="M101.083 449.86L101.083 463.427" stroke="#000000" stroke-width="0.398" fill="none" /><path id="2567" transform="matrix(1 0 0 -1 0 792)" d="M214.408 454.142L217.397 454.142" stroke="#000000" stroke-width="0.398" fill="none" /><path id="2572" transform="matrix(1 0 0 -1 0 792)" d="M241.905 454.142L244.894 454.142" stroke="#000000" stroke-width="0.398" fill="none" /><path id="2576" transform="matrix(1 0 0 -1 0 792)" d="M263.425 454.142L266.414 454.142" stroke="#000000" stroke-width="0.398" fill="none" /><path id="2585" transform="matrix(1 0 0 -1 0 792)" d="M314.832 454.142L317.821 454.142" stroke="#000000" stroke-width="0.398" fill="none" /><path id="2596" transform="matrix(1 0 0 -1 0 792)" d="M430.237 449.86L430.237 463.427" stroke="#000000" stroke-width="0.398" fill="none" /><path id="2599" transform="matrix(1 0 0 -1 0 792)" d="M545.437 449.86L545.437 463.427" stroke="#000000" stroke-width="0.398" fill="none" /><path id="2600" transform="matrix(1 0 0 -1 0 792)" d="M101.083 436.294L101.083 449.861" stroke="#000000" stroke-width="0.398" fill="none" /><path id="2615" transform="matrix(1 0 0 -1 0 792)" d="M214.408 440.575L217.397 440.575" stroke="#000000" stroke-width="0.398" fill="none" /><path id="2620" transform="matrix(1 0 0 -1 0 792)" d="M241.905 440.575L244.894 440.575" stroke="#000000" stroke-width="0.398" fill="none" /><path id="2624" transform="matrix(1 0 0 -1 0 792)" d="M263.425 440.575L266.414 440.575" stroke="#000000" stroke-width="0.398" fill="none" /><path id="2633" transform="matrix(1 0 0 -1 0 792)" d="M314.832 440.575L317.821 440.575" stroke="#000000" stroke-width="0.398" fill="none" /><path id="2644" transform="matrix(1 0 0 -1 0 792)" d="M430.237 436.294L430.237 449.861" stroke="#000000" stroke-width="0.398" fill="none" /><path id="2647" transform="matrix(1 0 0 -1 0 792)" d="M545.437 436.294L545.437 449.861" stroke="#000000" stroke-width="0.398" fill="none" /><path id="2648" transform="matrix(1 0 0 -1 0 792)" d="M101.083 422.727L101.083 436.294" stroke="#000000" stroke-width="0.398" fill="none" /><path id="2663" transform="matrix(1 0 0 -1 0 792)" d="M214.408 427.009L217.397 427.009" stroke="#000000" stroke-width="0.398" fill="none" /><path id="2668" transform="matrix(1 0 0 -1 0 792)" d="M241.905 427.009L244.894 427.009" stroke="#000000" stroke-width="0.398" fill="none" /><path id="2672" transform="matrix(1 0 0 -1 0 792)" d="M263.425 427.009L266.414 427.009" stroke="#000000" stroke-width="0.398" fill="none" /><path id="2681" transform="matrix(1 0 0 -1 0 792)" d="M314.832 427.009L317.821 427.009" stroke="#000000" stroke-width="0.398" fill="none" /><path id="2692" transform="matrix(1 0 0 -1 0 792)" d="M430.237 422.727L430.237 436.294" stroke="#000000" stroke-width="0.398" fill="none" /><path id="2695" transform="matrix(1 0 0 -1 0 792)" d="M545.437 422.727L545.437 436.294" stroke="#000000" stroke-width="0.398" fill="none" /><path id="2696" transform="matrix(1 0 0 -1 0 792)" d="M101.083 409.16L101.083 422.727" stroke="#000000" stroke-width="0.398" fill="none" /><path id="2711" transform="matrix(1 0 0 -1 0 792)" d="M214.408 413.442L217.397 413.442" stroke="#000000" stroke-width="0.398" fill="none" /><path id="2716" transform="matrix(1 0 0 -1 0 792)" d="M241.905 413.442L244.894 413.442" stroke="#000000" stroke-width="0.398" fill="none" /><path id="2720" transform="matrix(1 0 0 -1 0 792)" d="M263.425 413.442L266.414 413.442" stroke="#000000" stroke-width="0.398" fill="none" /><path id="2729" transform="matrix(1 0 0 -1 0 792)" d="M314.832 413.442L317.821 413.442" stroke="#000000" stroke-width="0.398" fill="none" /><path id="2740" transform="matrix(1 0 0 -1 0 792)" d="M430.237 409.16L430.237 422.727" stroke="#000000" stroke-width="0.398" fill="none" /><path id="2743" transform="matrix(1 0 0 -1 0 792)" d="M545.437 409.16L545.437 422.727" stroke="#000000" stroke-width="0.398" fill="none" /><path id="2744" transform="matrix(1 0 0 -1 0 792)" d="M101.083 395.594L101.083 409.161" stroke="#000000" stroke-width="0.398" fill="none" /><path id="2757" transform="matrix(1 0 0 -1 0 792)" d="M202.453 399.875L205.442 399.875" stroke="#000000" stroke-width="0.398" fill="none" /><path id="2765" transform="matrix(1 0 0 -1 0 792)" d="M247.883 399.875L250.872 399.875" stroke="#000000" stroke-width="0.398" fill="none" /><path id="2768" transform="matrix(1 0 0 -1 0 792)" d="M430.237 395.594L430.237 409.161" stroke="#000000" stroke-width="0.398" fill="none" /><path id="2770" transform="matrix(1 0 0 -1 0 792)" d="M545.437 395.594L545.437 409.161" stroke="#000000" stroke-width="0.398" fill="none" /><path id="2771" transform="matrix(1 0 0 -1 0 792)" d="M101.083 382.027L101.083 395.594" stroke="#000000" stroke-width="0.398" fill="none" /><path id="2780" transform="matrix(1 0 0 -1 0 792)" d="M430.237 382.027L430.237 395.594" stroke="#000000" stroke-width="0.398" fill="none" /><path id="2782" transform="matrix(1 0 0 -1 0 792)" d="M545.437 382.027L545.437 395.594" stroke="#000000" stroke-width="0.398" fill="none" /><path id="2783" transform="matrix(1 0 0 -1 0 792)" d="M100.884 381.828L545.636 381.828" stroke="#000000" stroke-width="0.398" fill="none" /><path id="2784" transform="matrix(1 0 0 -1 0 792)" d="M100.884 381.828L545.636 381.828" stroke="#000000" stroke-width="0.398" fill="none" /><path id="2785" transform="matrix(1 0 0 -1 0 792)" d="M101.083 340.981L101.083 381.629" stroke="#000000" stroke-width="0.398" fill="none" /><path id="2924" transform="matrix(1 0 0 -1 0 792)" d="M545.437 340.981L545.437 381.629" stroke="#000000" stroke-width="0.398" fill="none" /><path id="2925" transform="matrix(1 0 0 -1 0 792)" d="M101.083 327.414L101.083 340.981" stroke="#000000" stroke-width="0.398" fill="none" /><path id="2940" transform="matrix(1 0 0 -1 0 792)" d="M214.408 331.696L217.397 331.696" stroke="#000000" stroke-width="0.398" fill="none" /><path id="2952" transform="matrix(1 0 0 -1 0 792)" d="M430.237 327.414L430.237 340.981" stroke="#000000" stroke-width="0.398" fill="none" /><path id="2954" transform="matrix(1 0 0 -1 0 792)" d="M545.437 327.414L545.437 340.981" stroke="#000000" stroke-width="0.398" fill="none" /><path id="2955" transform="matrix(1 0 0 -1 0 792)" d="M101.083 313.848L101.083 327.415" stroke="#000000" stroke-width="0.398" fill="none" /><path id="2968" transform="matrix(1 0 0 -1 0 792)" d="M202.453 318.129L205.442 318.129" stroke="#000000" stroke-width="0.398" fill="none" /><path id="2976" transform="matrix(1 0 0 -1 0 792)" d="M247.883 318.129L250.872 318.129" stroke="#000000" stroke-width="0.398" fill="none" /><path id="2979" transform="matrix(1 0 0 -1 0 792)" d="M430.237 313.848L430.237 327.415" stroke="#000000" stroke-width="0.398" fill="none" /><path id="2981" transform="matrix(1 0 0 -1 0 792)" d="M545.437 313.848L545.437 327.415" stroke="#000000" stroke-width="0.398" fill="none" /><path id="2982" transform="matrix(1 0 0 -1 0 792)" d="M101.083 300.281L101.083 313.848" stroke="#000000" stroke-width="0.398" fill="none" /><path id="2991" transform="matrix(1 0 0 -1 0 792)" d="M430.237 300.281L430.237 313.848" stroke="#000000" stroke-width="0.398" fill="none" /><path id="2993" transform="matrix(1 0 0 -1 0 792)" d="M545.437 300.281L545.437 313.848" stroke="#000000" stroke-width="0.398" fill="none" /><path id="2994" transform="matrix(1 0 0 -1 0 792)" d="M100.884 300.082L545.636 300.082" stroke="#000000" stroke-width="0.398" fill="none" /><path id="2995" transform="matrix(1 0 0 -1 0 792)" d="M100.884 300.082L545.636 300.082" stroke="#000000" stroke-width="0.398" fill="none" /><path id="2996" transform="matrix(1 0 0 -1 0 792)" d="M101.083 259.235L101.083 299.883" stroke="#000000" stroke-width="0.398" fill="none" /><path id="3108" transform="matrix(1 0 0 -1 0 792)" d="M430.237 259.235L430.237 299.883" stroke="#000000" stroke-width="0.398" fill="none" /><path id="3110" transform="matrix(1 0 0 -1 0 792)" d="M545.437 259.235L545.437 299.883" stroke="#000000" stroke-width="0.398" fill="none" /><path id="3111" transform="matrix(1 0 0 -1 0 792)" d="M100.884 259.036L545.636 259.036" stroke="#000000" stroke-width="0.398" fill="none" /><path id="3112" transform="matrix(1 0 0 -1 0 792)" d="M100.884 259.036L545.636 259.036" stroke="#000000" stroke-width="0.398" fill="none" /><path id="3113" transform="matrix(1 0 0 -1 0 792)" d="M101.083 218.189L101.083 258.837" stroke="#000000" stroke-width="0.398" fill="none" /><path id="3248" transform="matrix(1 0 0 -1 0 792)" d="M430.237 218.189L430.237 258.837" stroke="#000000" stroke-width="0.398" fill="none" /><path id="3251" transform="matrix(1 0 0 -1 0 792)" d="M545.437 218.189L545.437 258.837" stroke="#000000" stroke-width="0.398" fill="none" /><path id="3252" transform="matrix(1 0 0 -1 0 792)" d="M100.884 217.99L545.636 217.99" stroke="#000000" stroke-width="0.398" fill="none" /><path id="3253" transform="matrix(1 0 0 -1 0 792)" d="M100.884 217.99L545.636 217.99" stroke="#000000" stroke-width="0.398" fill="none" /><path id="3254" transform="matrix(1 0 0 -1 0 792)" d="M101.083 163.594L101.083 217.791" stroke="#000000" stroke-width="0.398" fill="none" /><path id="3411" transform="matrix(1 0 0 -1 0 792)" d="M430.237 163.594L430.237 217.791" stroke="#000000" stroke-width="0.398" fill="none" /><path id="3413" transform="matrix(1 0 0 -1 0 792)" d="M545.437 163.594L545.437 217.791" stroke="#000000" stroke-width="0.398" fill="none" /><path id="3414" transform="matrix(1 0 0 -1 0 792)" d="M100.884 163.395L545.636 163.395" stroke="#000000" stroke-width="0.398" fill="none" /><path id="3415" transform="matrix(1 0 0 -1 0 792)" d="M100.884 163.395L545.636 163.395" stroke="#000000" stroke-width="0.398" fill="none" /><path id="3416" transform="matrix(1 0 0 -1 0 792)" d="M101.083 136.097L101.083 163.195" stroke="#000000" stroke-width="0.398" fill="none" /><path id="3470" transform="matrix(1 0 0 -1 0 792)" d="M430.237 136.097L430.237 163.195" stroke="#000000" stroke-width="0.398" fill="none" /><path id="3472" transform="matrix(1 0 0 -1 0 792)" d="M545.437 136.097L545.437 163.195" stroke="#000000" stroke-width="0.398" fill="none" /><path id="3473" transform="matrix(1 0 0 -1 0 792)" d="M100.884 135.898L545.636 135.898" stroke="#000000" stroke-width="0.398" fill="none" /><path id="3474" transform="matrix(1 0 0 -1 0 792)" d="M100.884 135.898L545.636 135.898" stroke="#000000" stroke-width="0.398" fill="none" /><path id="3475" transform="matrix(1 0 0 -1 0 792)" d="M101.083 122.149L101.083 135.698" stroke="#000000" stroke-width="0.398" fill="none" /><path id="3528" transform="matrix(1 0 0 -1 0 792)" d="M545.437 122.149L545.437 135.698" stroke="#000000" stroke-width="0.398" fill="none" /><path id="3529" transform="matrix(1 0 0 -1 0 792)" d="M101.083 108.583L101.083 122.15" stroke="#000000" stroke-width="0.398" fill="none" /><path id="3544" transform="matrix(1 0 0 -1 0 792)" d="M214.408 112.864L217.397 112.864" stroke="#000000" stroke-width="0.398" fill="none" /><path id="3555" transform="matrix(1 0 0 -1 0 792)" d="M277.771 112.864L280.76 112.864" stroke="#000000" stroke-width="0.398" fill="none" /><path id="3560" transform="matrix(1 0 0 -1 0 792)" d="M305.268 112.864L308.257 112.864" stroke="#000000" stroke-width="0.398" fill="none" /><path id="3564" transform="matrix(1 0 0 -1 0 792)" d="M430.237 108.583L430.237 122.15" stroke="#000000" stroke-width="0.398" fill="none" /><path id="3566" transform="matrix(1 0 0 -1 0 792)" d="M545.437 108.583L545.437 122.15" stroke="#000000" stroke-width="0.398" fill="none" /><path id="3567" transform="matrix(1 0 0 -1 0 792)" d="M101.083 95.016L101.083 108.583" stroke="#000000" stroke-width="0.398" fill="none" /><path id="3582" transform="matrix(1 0 0 -1 0 792)" d="M214.408 99.297L217.397 99.297" stroke="#000000" stroke-width="0.398" fill="none" /><path id="3585" transform="matrix(1 0 0 -1 0 792)" d="M430.237 95.016L430.237 108.583" stroke="#000000" stroke-width="0.398" fill="none" /><path id="3587" transform="matrix(1 0 0 -1 0 792)" d="M545.437 95.016L545.437 108.583" stroke="#000000" stroke-width="0.398" fill="none" /><path id="3588" transform="matrix(1 0 0 -1 0 792)" d="M101.083 81.449L101.083 95.016" stroke="#000000" stroke-width="0.398" fill="none" /><path id="3603" transform="matrix(1 0 0 -1 0 792)" d="M214.408 85.731L217.397 85.731" stroke="#000000" stroke-width="0.398" fill="none" /><path id="3606" transform="matrix(1 0 0 -1 0 792)" d="M430.237 81.449L430.237 95.016" stroke="#000000" stroke-width="0.398" fill="none" /><path id="3608" transform="matrix(1 0 0 -1 0 792)" d="M545.437 81.449L545.437 95.016" stroke="#000000" stroke-width="0.398" fill="none" /><path id="3609" transform="matrix(1 0 0 -1 0 792)" d="M101.083 67.883L101.083 81.45" stroke="#000000" stroke-width="0.398" fill="none" /><path id="3623" transform="matrix(1 0 0 -1 0 792)" d="M208.431 72.164L211.42 72.164" stroke="#000000" stroke-width="0.398" fill="none" /><path id="3627" transform="matrix(1 0 0 -1 0 792)" d="M229.95 72.164L232.939 72.164" stroke="#000000" stroke-width="0.398" fill="none" /><path id="3642" transform="matrix(1 0 0 -1 0 792)" d="M317.223 72.164L320.212 72.164" stroke="#000000" stroke-width="0.398" fill="none" /><path id="3646" transform="matrix(1 0 0 -1 0 792)" d="M338.742 72.164L341.731 72.164" stroke="#000000" stroke-width="0.398" fill="none" /><path id="3653" transform="matrix(1 0 0 -1 0 792)" d="M430.237 67.883L430.237 81.45" stroke="#000000" stroke-width="0.398" fill="none" /><path id="3655" transform="matrix(1 0 0 -1 0 792)" d="M545.437 67.883L545.437 81.45" stroke="#000000" stroke-width="0.398" fill="none" /></g></g></svg>