<svg xmlns="http://www.w3.org/2000/svg" xmlns:xlink="http://www.w3.org/1999/xlink" id="body_75" preserveAspectRatio="xMinYMin meet" viewBox="0 0 1632 1056"><defs><clipPath id="1"><path id="" clip-rule="evenodd" transform="matrix(1 0 0 1 0 0)" d="M0 792L0 0L0 0L1224 0L1224 0L1224 792L1224 792L0 792z" /></clipPath></defs><g transform="matrix(1.333333 0 0 1.333333 0 0)"><g clip-path="url(#1)"><path id="24" transform="matrix(1 0 0 -1 0 792)" d="M701.933 721.28L1168.588 721.28" stroke="#000000" stroke-width="0.498" fill="none" /><path id="25" transform="matrix(1 0 0 -1 0 792)" d="M701.933 681.587L930.158 681.587L930.158 681.587L930.158 697.1407L930.158 697.1407L701.933 697.1407z" stroke="#FFFFFF" stroke-width="1" fill="#FFFFFF" fill-rule="nonzero" /><path id="40" transform="matrix(1 0 0 -1 0 792)" d="M701.933 634.588L1168.591 634.588L1168.591 634.588L1168.591 674.8315L1168.591 674.8315L701.933 674.8315z" stroke="#FFFFFF" stroke-width="1" fill="#FFFFFF" fill-rule="nonzero" /><path id="120" transform="matrix(1 0 0 -1 0 792)" d="M718.869 621.037L1168.585 621.037L1168.585 621.037L1168.585 634.1825L1168.585 634.1825L718.869 634.1825z" stroke="#FFFFFF" stroke-width="1" fill="#FFFFFF" fill-rule="nonzero" /><path id="147" transform="matrix(1 0 0 -1 0 792)" d="M701.933 593.939L1168.591 593.939L1168.591 593.939L1168.591 620.6335L1168.591 620.6335L701.933 620.6335z" stroke="#FFFFFF" stroke-width="1" fill="#FFFFFF" fill-rule="nonzero" /><path id="187" transform="matrix(1 0 0 -1 0 792)" d="M718.869 580.39L1168.586 580.39L1168.586 580.39L1168.586 593.5355L1168.586 593.5355L718.869 593.5355z" stroke="#FFFFFF" stroke-width="1" fill="#FFFFFF" fill-rule="nonzero" /><path id="220" transform="matrix(1 0 0 -1 0 792)" d="M701.933 566.841L859.166 566.841L859.166 566.841L859.166 579.9865L859.166 579.9865L701.933 579.9865z" stroke="#FFFFFF" stroke-width="1" fill="#FFFFFF" fill-rule="nonzero" /><path id="233" transform="matrix(1 0 0 -1 0 792)" d="M718.869 553.292L1168.586 553.292L1168.586 553.292L1168.586 566.4375L1168.586 566.4375L718.869 566.4375z" stroke="#FFFFFF" stroke-width="1" fill="#FFFFFF" fill-rule="nonzero" /><path id="266" transform="matrix(1 0 0 -1 0 792)" d="M701.933 512.644L1168.591 512.644L1168.591 512.644L1168.591 552.8875L1168.591 552.8875L701.933 552.8875z" stroke="#FFFFFF" stroke-width="1" fill="#FFFFFF" fill-rule="nonzero" /><path id="364" transform="matrix(1 0 0 -1 0 792)" d="M701.933 481.731L1027.772 481.731L1027.772 481.731L1027.772 497.2847L1027.772 497.2847L701.933 497.2847z" stroke="#FFFFFF" stroke-width="1" fill="#FFFFFF" fill-rule="nonzero" /><path id="386" transform="matrix(1 0 0 -1 0 792)" d="M701.933 339.886L1168.592 339.886L1168.592 339.886L1168.592 474.975L1168.592 474.975L701.933 474.975z" stroke="#FFFFFF" stroke-width="1" fill="#FFFFFF" fill-rule="nonzero" /><path id="732" transform="matrix(1 0 0 -1 0 792)" d="M89.933 721.28L556.588 721.28" stroke="#000000" stroke-width="0.498" fill="none" /></g></g></svg>