<svg xmlns="http://www.w3.org/2000/svg" xmlns:xlink="http://www.w3.org/1999/xlink" id="body_65" preserveAspectRatio="xMinYMin meet" viewBox="0 0 1632 1056"><defs><clipPath id="1"><path id="" clip-rule="evenodd" transform="matrix(1 0 0 1 0 0)" d="M0 792L0 0L0 0L1224 0L1224 0L1224 792L1224 792L0 792z" /></clipPath></defs><g transform="matrix(1.333333 0 0 1.333333 0 0)"><g clip-path="url(#1)"><path id="1" transform="matrix(1 0 0 -1 0 792)" d="M701.933 721.28L1168.588 721.28" stroke="#000000" stroke-width="0.498" fill="none" /><path id="2" transform="matrix(1 0 0 -1 0 792)" d="M765.204 657.757L1105.317 657.757" stroke="#000000" stroke-width="0.398" fill="none" /><path id="3" transform="matrix(1 0 0 -1 0 792)" d="M765.403 643.991L765.403 657.558" stroke="#000000" stroke-width="0.398" fill="none" /><path id="4" transform="matrix(1 0 0 -1 0 792)" d="M765.602 643.991L957.557 643.991L957.557 657.558L765.602 657.558z" stroke="none" fill="#CCCCEB" fill-rule="nonzero" /><path id="10" transform="matrix(1 0 0 -1 0 792)" d="M957.756 643.991L957.756 657.558" stroke="#000000" stroke-width="0.398" fill="none" /><path id="11" transform="matrix(1 0 0 -1 0 792)" d="M957.956 643.991L1016.58 643.991L1016.58 657.558L957.956 657.558z" stroke="none" fill="#CCCCEB" fill-rule="nonzero" /><path id="21" transform="matrix(1 0 0 -1 0 792)" d="M1016.778 643.991L1016.778 657.558" stroke="#000000" stroke-width="0.398" fill="none" /><path id="22" transform="matrix(1 0 0 -1 0 792)" d="M1016.978 643.991L1075.602 643.991L1075.602 657.558L1016.978 657.558z" stroke="none" fill="#CCCCEB" fill-rule="nonzero" /><path id="30" transform="matrix(1 0 0 -1 0 792)" d="M1075.801 643.991L1075.801 657.558" stroke="#000000" stroke-width="0.398" fill="none" /><path id="31" transform="matrix(1 0 0 -1 0 792)" d="M1076 643.991L1104.919 643.991L1104.919 657.558L1076 657.558z" stroke="none" fill="#CCCCEB" fill-rule="nonzero" /><path id="35" transform="matrix(1 0 0 -1 0 792)" d="M1105.118 643.991L1105.118 657.558" stroke="#000000" stroke-width="0.398" fill="none" /><path id="36" transform="matrix(1 0 0 -1 0 792)" d="M765.403 630.424L765.403 643.991" stroke="#000000" stroke-width="0.398" fill="none" /><path id="37" transform="matrix(1 0 0 -1 0 792)" d="M765.602 630.424L957.557 630.424L957.557 643.991L765.602 643.991z" stroke="none" fill="#CCCCEB" fill-rule="nonzero" /><path id="38" transform="matrix(1 0 0 -1 0 792)" d="M957.756 630.424L957.756 643.991" stroke="#000000" stroke-width="0.398" fill="none" /><path id="39" transform="matrix(1 0 0 -1 0 792)" d="M957.956 630.424L1016.58 630.424L1016.58 643.991L957.956 643.991z" stroke="none" fill="#CCCCEB" fill-rule="nonzero" /><path id="40" transform="matrix(1 0 0 -1 0 792)" d="M1016.778 630.424L1016.778 643.991" stroke="#000000" stroke-width="0.398" fill="none" /><path id="41" transform="matrix(1 0 0 -1 0 792)" d="M1016.978 630.424L1075.602 630.424L1075.602 643.991L1016.978 643.991z" stroke="none" fill="#CCCCEB" fill-rule="nonzero" /><path id="47" transform="matrix(1 0 0 -1 0 792)" d="M1075.801 630.424L1075.801 643.991" stroke="#000000" stroke-width="0.398" fill="none" /><path id="48" transform="matrix(1 0 0 -1 0 792)" d="M1076 630.424L1104.919 630.424L1104.919 643.991L1076 643.991z" stroke="none" fill="#CCCCEB" fill-rule="nonzero" /><path id="49" transform="matrix(1 0 0 -1 0 792)" d="M1105.118 630.424L1105.118 643.991" stroke="#000000" stroke-width="0.398" fill="none" /><path id="50" transform="matrix(1 0 0 -1 0 792)" d="M765.204 630.225L1105.317 630.225" stroke="#000000" stroke-width="0.398" fill="none" /><path id="51" transform="matrix(1 0 0 -1 0 792)" d="M765.204 627.834L1105.317 627.834" stroke="#000000" stroke-width="0.398" fill="none" /><path id="52" transform="matrix(1 0 0 -1 0 792)" d="M765.403 614.068L765.403 627.635" stroke="#000000" stroke-width="0.398" fill="none" /><path id="58" transform="matrix(1 0 0 -1 0 792)" d="M802.065 618.349L805.054 618.349" stroke="#000000" stroke-width="0.398" fill="none" /><path id="64" transform="matrix(1 0 0 -1 0 792)" d="M957.756 614.068L957.756 627.635" stroke="#000000" stroke-width="0.398" fill="none" /><path id="66" transform="matrix(1 0 0 -1 0 792)" d="M1016.778 614.068L1016.778 627.635" stroke="#000000" stroke-width="0.398" fill="none" /><path id="68" transform="matrix(1 0 0 -1 0 792)" d="M1075.801 614.068L1075.801 627.635" stroke="#000000" stroke-width="0.398" fill="none" /><path id="70" transform="matrix(1 0 0 -1 0 792)" d="M1105.118 614.068L1105.118 627.635" stroke="#000000" stroke-width="0.398" fill="none" /><path id="71" transform="matrix(1 0 0 -1 0 792)" d="M765.204 613.869L1105.317 613.869" stroke="#000000" stroke-width="0.398" fill="none" /><path id="72" transform="matrix(1 0 0 -1 0 792)" d="M765.403 600.103L765.403 613.67" stroke="#000000" stroke-width="0.398" fill="none" /><path id="77" transform="matrix(1 0 0 -1 0 792)" d="M796.088 604.384L799.077 604.384" stroke="#000000" stroke-width="0.398" fill="none" /><path id="89" transform="matrix(1 0 0 -1 0 792)" d="M865.428 604.384L868.417 604.384" stroke="#000000" stroke-width="0.398" fill="none" /><path id="95" transform="matrix(1 0 0 -1 0 792)" d="M898.902 604.384L901.891 604.384" stroke="#000000" stroke-width="0.398" fill="none" /><path id="101" transform="matrix(1 0 0 -1 0 792)" d="M957.756 600.103L957.756 613.67" stroke="#000000" stroke-width="0.398" fill="none" /><path id="103" transform="matrix(1 0 0 -1 0 792)" d="M1016.778 600.103L1016.778 613.67" stroke="#000000" stroke-width="0.398" fill="none" /><path id="105" transform="matrix(1 0 0 -1 0 792)" d="M1075.801 600.103L1075.801 613.67" stroke="#000000" stroke-width="0.398" fill="none" /><path id="107" transform="matrix(1 0 0 -1 0 792)" d="M1105.118 600.103L1105.118 613.67" stroke="#000000" stroke-width="0.398" fill="none" /><path id="108" transform="matrix(1 0 0 -1 0 792)" d="M765.204 599.903L1105.317 599.903" stroke="#000000" stroke-width="0.398" fill="none" /><path id="109" transform="matrix(1 0 0 -1 0 792)" d="M765.403 586.138L765.403 599.705" stroke="#000000" stroke-width="0.398" fill="none" /><path id="114" transform="matrix(1 0 0 -1 0 792)" d="M796.088 590.419L799.077 590.419" stroke="#000000" stroke-width="0.398" fill="none" /><path id="120" transform="matrix(1 0 0 -1 0 792)" d="M829.562 590.419L832.551 590.419" stroke="#000000" stroke-width="0.398" fill="none" /><path id="127" transform="matrix(1 0 0 -1 0 792)" d="M869.014 590.419L872.003 590.419" stroke="#000000" stroke-width="0.398" fill="none" /><path id="133" transform="matrix(1 0 0 -1 0 792)" d="M902.489 590.419L905.478 590.419" stroke="#000000" stroke-width="0.398" fill="none" /><path id="139" transform="matrix(1 0 0 -1 0 792)" d="M957.756 586.138L957.756 599.705" stroke="#000000" stroke-width="0.398" fill="none" /><path id="141" transform="matrix(1 0 0 -1 0 792)" d="M1016.778 586.138L1016.778 599.705" stroke="#000000" stroke-width="0.398" fill="none" /><path id="143" transform="matrix(1 0 0 -1 0 792)" d="M1075.801 586.138L1075.801 599.705" stroke="#000000" stroke-width="0.398" fill="none" /><path id="145" transform="matrix(1 0 0 -1 0 792)" d="M1105.118 586.138L1105.118 599.705" stroke="#000000" stroke-width="0.398" fill="none" /><path id="146" transform="matrix(1 0 0 -1 0 792)" d="M765.204 585.938L1105.317 585.938" stroke="#000000" stroke-width="0.398" fill="none" /><path id="147" transform="matrix(1 0 0 -1 0 792)" d="M765.403 572.172L765.403 585.739" stroke="#000000" stroke-width="0.398" fill="none" /><path id="153" transform="matrix(1 0 0 -1 0 792)" d="M802.065 576.454L805.054 576.454" stroke="#000000" stroke-width="0.398" fill="none" /><path id="159" transform="matrix(1 0 0 -1 0 792)" d="M835.54 576.454L838.529 576.454" stroke="#000000" stroke-width="0.398" fill="none" /><path id="166" transform="matrix(1 0 0 -1 0 792)" d="M957.756 572.172L957.756 585.739" stroke="#000000" stroke-width="0.398" fill="none" /><path id="168" transform="matrix(1 0 0 -1 0 792)" d="M1016.778 572.172L1016.778 585.739" stroke="#000000" stroke-width="0.398" fill="none" /><path id="170" transform="matrix(1 0 0 -1 0 792)" d="M1075.801 572.172L1075.801 585.739" stroke="#000000" stroke-width="0.398" fill="none" /><path id="172" transform="matrix(1 0 0 -1 0 792)" d="M1105.118 572.172L1105.118 585.739" stroke="#000000" stroke-width="0.398" fill="none" /><path id="173" transform="matrix(1 0 0 -1 0 792)" d="M765.204 571.973L1105.317 571.973" stroke="#000000" stroke-width="0.398" fill="none" /><path id="174" transform="matrix(1 0 0 -1 0 792)" d="M765.403 558.207L765.403 571.774" stroke="#000000" stroke-width="0.398" fill="none" /><path id="180" transform="matrix(1 0 0 -1 0 792)" d="M802.065 562.489L805.054 562.489" stroke="#000000" stroke-width="0.398" fill="none" /><path id="186" transform="matrix(1 0 0 -1 0 792)" d="M835.54 562.489L838.529 562.489" stroke="#000000" stroke-width="0.398" fill="none" /><path id="192" transform="matrix(1 0 0 -1 0 792)" d="M957.756 558.207L957.756 571.774" stroke="#000000" stroke-width="0.398" fill="none" /><path id="194" transform="matrix(1 0 0 -1 0 792)" d="M1016.778 558.207L1016.778 571.774" stroke="#000000" stroke-width="0.398" fill="none" /><path id="196" transform="matrix(1 0 0 -1 0 792)" d="M1075.801 558.207L1075.801 571.774" stroke="#000000" stroke-width="0.398" fill="none" /><path id="198" transform="matrix(1 0 0 -1 0 792)" d="M1105.118 558.207L1105.118 571.774" stroke="#000000" stroke-width="0.398" fill="none" /><path id="199" transform="matrix(1 0 0 -1 0 792)" d="M765.204 558.008L1105.317 558.008" stroke="#000000" stroke-width="0.398" fill="none" /><path id="200" transform="matrix(1 0 0 -1 0 792)" d="M765.403 544.242L765.403 557.809" stroke="#000000" stroke-width="0.398" fill="none" /><path id="206" transform="matrix(1 0 0 -1 0 792)" d="M802.065 548.524L805.054 548.524" stroke="#000000" stroke-width="0.398" fill="none" /><path id="212" transform="matrix(1 0 0 -1 0 792)" d="M835.54 548.524L838.529 548.524" stroke="#000000" stroke-width="0.398" fill="none" /><path id="216" transform="matrix(1 0 0 -1 0 792)" d="M857.059 548.524L860.048 548.524" stroke="#000000" stroke-width="0.398" fill="none" /><path id="221" transform="matrix(1 0 0 -1 0 792)" d="M957.756 544.242L957.756 557.809" stroke="#000000" stroke-width="0.398" fill="none" /><path id="223" transform="matrix(1 0 0 -1 0 792)" d="M1016.778 544.242L1016.778 557.809" stroke="#000000" stroke-width="0.398" fill="none" /><path id="225" transform="matrix(1 0 0 -1 0 792)" d="M1075.801 544.242L1075.801 557.809" stroke="#000000" stroke-width="0.398" fill="none" /><path id="227" transform="matrix(1 0 0 -1 0 792)" d="M1105.118 544.242L1105.118 557.809" stroke="#000000" stroke-width="0.398" fill="none" /><path id="228" transform="matrix(1 0 0 -1 0 792)" d="M765.204 544.043L1105.317 544.043" stroke="#000000" stroke-width="0.398" fill="none" /><path id="229" transform="matrix(1 0 0 -1 0 792)" d="M765.403 530.277L765.403 543.844" stroke="#000000" stroke-width="0.398" fill="none" /><path id="235" transform="matrix(1 0 0 -1 0 792)" d="M802.065 534.558L805.054 534.558" stroke="#000000" stroke-width="0.398" fill="none" /><path id="241" transform="matrix(1 0 0 -1 0 792)" d="M835.54 534.558L838.529 534.558" stroke="#000000" stroke-width="0.398" fill="none" /><path id="247" transform="matrix(1 0 0 -1 0 792)" d="M869.014 534.558L872.003 534.558" stroke="#000000" stroke-width="0.398" fill="none" /><path id="252" transform="matrix(1 0 0 -1 0 792)" d="M957.756 530.277L957.756 543.844" stroke="#000000" stroke-width="0.398" fill="none" /><path id="254" transform="matrix(1 0 0 -1 0 792)" d="M1016.778 530.277L1016.778 543.844" stroke="#000000" stroke-width="0.398" fill="none" /><path id="256" transform="matrix(1 0 0 -1 0 792)" d="M1075.801 530.277L1075.801 543.844" stroke="#000000" stroke-width="0.398" fill="none" /><path id="258" transform="matrix(1 0 0 -1 0 792)" d="M1105.118 530.277L1105.118 543.844" stroke="#000000" stroke-width="0.398" fill="none" /><path id="259" transform="matrix(1 0 0 -1 0 792)" d="M765.204 530.078L1105.317 530.078" stroke="#000000" stroke-width="0.398" fill="none" /><path id="260" transform="matrix(1 0 0 -1 0 792)" d="M765.403 516.312L765.403 529.879" stroke="#000000" stroke-width="0.398" fill="none" /><path id="266" transform="matrix(1 0 0 -1 0 792)" d="M802.065 520.593L805.054 520.593" stroke="#000000" stroke-width="0.398" fill="none" /><path id="272" transform="matrix(1 0 0 -1 0 792)" d="M835.54 520.593L838.529 520.593" stroke="#000000" stroke-width="0.398" fill="none" /><path id="277" transform="matrix(1 0 0 -1 0 792)" d="M863.037 520.593L866.026 520.593" stroke="#000000" stroke-width="0.398" fill="none" /><path id="282" transform="matrix(1 0 0 -1 0 792)" d="M957.756 516.312L957.756 529.879" stroke="#000000" stroke-width="0.398" fill="none" /><path id="284" transform="matrix(1 0 0 -1 0 792)" d="M1016.778 516.312L1016.778 529.879" stroke="#000000" stroke-width="0.398" fill="none" /><path id="286" transform="matrix(1 0 0 -1 0 792)" d="M1075.801 516.312L1075.801 529.879" stroke="#000000" stroke-width="0.398" fill="none" /><path id="288" transform="matrix(1 0 0 -1 0 792)" d="M1105.118 516.312L1105.118 529.879" stroke="#000000" stroke-width="0.398" fill="none" /><path id="289" transform="matrix(1 0 0 -1 0 792)" d="M765.204 516.113L1105.317 516.113" stroke="#000000" stroke-width="0.398" fill="none" /><path id="290" transform="matrix(1 0 0 -1 0 792)" d="M765.403 502.347L765.403 515.914" stroke="#000000" stroke-width="0.398" fill="none" /><path id="296" transform="matrix(1 0 0 -1 0 792)" d="M802.065 506.628L805.054 506.628" stroke="#000000" stroke-width="0.398" fill="none" /><path id="302" transform="matrix(1 0 0 -1 0 792)" d="M835.54 506.628L838.529 506.628" stroke="#000000" stroke-width="0.398" fill="none" /><path id="308" transform="matrix(1 0 0 -1 0 792)" d="M869.014 506.628L872.003 506.628" stroke="#000000" stroke-width="0.398" fill="none" /><path id="313" transform="matrix(1 0 0 -1 0 792)" d="M957.756 502.347L957.756 515.914" stroke="#000000" stroke-width="0.398" fill="none" /><path id="315" transform="matrix(1 0 0 -1 0 792)" d="M1016.778 502.347L1016.778 515.914" stroke="#000000" stroke-width="0.398" fill="none" /><path id="317" transform="matrix(1 0 0 -1 0 792)" d="M1075.801 502.347L1075.801 515.914" stroke="#000000" stroke-width="0.398" fill="none" /><path id="319" transform="matrix(1 0 0 -1 0 792)" d="M1105.118 502.347L1105.118 515.914" stroke="#000000" stroke-width="0.398" fill="none" /><path id="320" transform="matrix(1 0 0 -1 0 792)" d="M765.204 502.147L1105.317 502.147" stroke="#000000" stroke-width="0.398" fill="none" /><path id="321" transform="matrix(1 0 0 -1 0 792)" d="M765.403 488.382L765.403 501.949" stroke="#000000" stroke-width="0.398" fill="none" /><path id="327" transform="matrix(1 0 0 -1 0 792)" d="M802.065 492.663L805.054 492.663" stroke="#000000" stroke-width="0.398" fill="none" /><path id="333" transform="matrix(1 0 0 -1 0 792)" d="M835.54 492.663L838.529 492.663" stroke="#000000" stroke-width="0.398" fill="none" /><path id="343" transform="matrix(1 0 0 -1 0 792)" d="M892.925 492.663L895.914 492.663" stroke="#000000" stroke-width="0.398" fill="none" /><path id="348" transform="matrix(1 0 0 -1 0 792)" d="M957.756 488.382L957.756 501.949" stroke="#000000" stroke-width="0.398" fill="none" /><path id="350" transform="matrix(1 0 0 -1 0 792)" d="M1016.778 488.382L1016.778 501.949" stroke="#000000" stroke-width="0.398" fill="none" /><path id="352" transform="matrix(1 0 0 -1 0 792)" d="M1075.801 488.382L1075.801 501.949" stroke="#000000" stroke-width="0.398" fill="none" /><path id="354" transform="matrix(1 0 0 -1 0 792)" d="M1105.118 488.382L1105.118 501.949" stroke="#000000" stroke-width="0.398" fill="none" /><path id="355" transform="matrix(1 0 0 -1 0 792)" d="M765.204 488.182L1105.317 488.182" stroke="#000000" stroke-width="0.398" fill="none" /><path id="356" transform="matrix(1 0 0 -1 0 792)" d="M765.403 474.416L765.403 487.983" stroke="#000000" stroke-width="0.398" fill="none" /><path id="362" transform="matrix(1 0 0 -1 0 792)" d="M802.065 478.698L805.054 478.698" stroke="#000000" stroke-width="0.398" fill="none" /><path id="368" transform="matrix(1 0 0 -1 0 792)" d="M835.54 478.698L838.529 478.698" stroke="#000000" stroke-width="0.398" fill="none" /><path id="378" transform="matrix(1 0 0 -1 0 792)" d="M892.925 478.698L895.914 478.698" stroke="#000000" stroke-width="0.398" fill="none" /><path id="383" transform="matrix(1 0 0 -1 0 792)" d="M957.756 474.416L957.756 487.983" stroke="#000000" stroke-width="0.398" fill="none" /><path id="385" transform="matrix(1 0 0 -1 0 792)" d="M1016.778 474.416L1016.778 487.983" stroke="#000000" stroke-width="0.398" fill="none" /><path id="387" transform="matrix(1 0 0 -1 0 792)" d="M1075.801 474.416L1075.801 487.983" stroke="#000000" stroke-width="0.398" fill="none" /><path id="389" transform="matrix(1 0 0 -1 0 792)" d="M1105.118 474.416L1105.118 487.983" stroke="#000000" stroke-width="0.398" fill="none" /><path id="390" transform="matrix(1 0 0 -1 0 792)" d="M765.204 474.217L1105.317 474.217" stroke="#000000" stroke-width="0.398" fill="none" /><path id="391" transform="matrix(1 0 0 -1 0 792)" d="M765.403 460.451L765.403 474.018" stroke="#000000" stroke-width="0.398" fill="none" /><path id="397" transform="matrix(1 0 0 -1 0 792)" d="M802.065 464.733L805.054 464.733" stroke="#000000" stroke-width="0.398" fill="none" /><path id="403" transform="matrix(1 0 0 -1 0 792)" d="M835.54 464.733L838.529 464.733" stroke="#000000" stroke-width="0.398" fill="none" /><path id="409" transform="matrix(1 0 0 -1 0 792)" d="M957.756 460.451L957.756 474.018" stroke="#000000" stroke-width="0.398" fill="none" /><path id="411" transform="matrix(1 0 0 -1 0 792)" d="M1016.778 460.451L1016.778 474.018" stroke="#000000" stroke-width="0.398" fill="none" /><path id="413" transform="matrix(1 0 0 -1 0 792)" d="M1075.801 460.451L1075.801 474.018" stroke="#000000" stroke-width="0.398" fill="none" /><path id="415" transform="matrix(1 0 0 -1 0 792)" d="M1105.118 460.451L1105.118 474.018" stroke="#000000" stroke-width="0.398" fill="none" /><path id="416" transform="matrix(1 0 0 -1 0 792)" d="M765.204 460.252L1105.317 460.252" stroke="#000000" stroke-width="0.398" fill="none" /><path id="417" transform="matrix(1 0 0 -1 0 792)" d="M765.403 446.486L765.403 460.053" stroke="#000000" stroke-width="0.398" fill="none" /><path id="423" transform="matrix(1 0 0 -1 0 792)" d="M802.065 450.768L805.054 450.768" stroke="#000000" stroke-width="0.398" fill="none" /><path id="429" transform="matrix(1 0 0 -1 0 792)" d="M835.54 450.768L838.529 450.768" stroke="#000000" stroke-width="0.398" fill="none" /><path id="434" transform="matrix(1 0 0 -1 0 792)" d="M957.756 446.486L957.756 460.053" stroke="#000000" stroke-width="0.398" fill="none" /><path id="436" transform="matrix(1 0 0 -1 0 792)" d="M1016.778 446.486L1016.778 460.053" stroke="#000000" stroke-width="0.398" fill="none" /><path id="438" transform="matrix(1 0 0 -1 0 792)" d="M1075.801 446.486L1075.801 460.053" stroke="#000000" stroke-width="0.398" fill="none" /><path id="440" transform="matrix(1 0 0 -1 0 792)" d="M1105.118 446.486L1105.118 460.053" stroke="#000000" stroke-width="0.398" fill="none" /><path id="441" transform="matrix(1 0 0 -1 0 792)" d="M765.204 446.287L1105.317 446.287" stroke="#000000" stroke-width="0.398" fill="none" /><path id="465" transform="matrix(1 0 0 -1 0 792)" d="M765.204 325.118L1105.317 325.118" stroke="#000000" stroke-width="0.398" fill="none" /><path id="466" transform="matrix(1 0 0 -1 0 792)" d="M765.403 311.352L765.403 324.919" stroke="#000000" stroke-width="0.398" fill="none" /><path id="467" transform="matrix(1 0 0 -1 0 792)" d="M765.602 311.352L957.557 311.352L957.557 324.919L765.602 324.919z" stroke="none" fill="#CCCCEB" fill-rule="nonzero" /><path id="473" transform="matrix(1 0 0 -1 0 792)" d="M957.756 311.352L957.756 324.919" stroke="#000000" stroke-width="0.398" fill="none" /><path id="474" transform="matrix(1 0 0 -1 0 792)" d="M957.956 311.352L1016.58 311.352L1016.58 324.919L957.956 324.919z" stroke="none" fill="#CCCCEB" fill-rule="nonzero" /><path id="484" transform="matrix(1 0 0 -1 0 792)" d="M1016.778 311.352L1016.778 324.919" stroke="#000000" stroke-width="0.398" fill="none" /><path id="485" transform="matrix(1 0 0 -1 0 792)" d="M1016.978 311.352L1075.602 311.352L1075.602 324.919L1016.978 324.919z" stroke="none" fill="#CCCCEB" fill-rule="nonzero" /><path id="493" transform="matrix(1 0 0 -1 0 792)" d="M1075.801 311.352L1075.801 324.919" stroke="#000000" stroke-width="0.398" fill="none" /><path id="494" transform="matrix(1 0 0 -1 0 792)" d="M1076 311.352L1104.919 311.352L1104.919 324.919L1076 324.919z" stroke="none" fill="#CCCCEB" fill-rule="nonzero" /><path id="498" transform="matrix(1 0 0 -1 0 792)" d="M1105.118 311.352L1105.118 324.919" stroke="#000000" stroke-width="0.398" fill="none" /><path id="499" transform="matrix(1 0 0 -1 0 792)" d="M765.403 297.785L765.403 311.352" stroke="#000000" stroke-width="0.398" fill="none" /><path id="500" transform="matrix(1 0 0 -1 0 792)" d="M765.602 297.785L957.557 297.785L957.557 311.352L765.602 311.352z" stroke="none" fill="#CCCCEB" fill-rule="nonzero" /><path id="501" transform="matrix(1 0 0 -1 0 792)" d="M957.756 297.785L957.756 311.352" stroke="#000000" stroke-width="0.398" fill="none" /><path id="502" transform="matrix(1 0 0 -1 0 792)" d="M957.956 297.785L1016.58 297.785L1016.58 311.352L957.956 311.352z" stroke="none" fill="#CCCCEB" fill-rule="nonzero" /><path id="503" transform="matrix(1 0 0 -1 0 792)" d="M1016.778 297.785L1016.778 311.352" stroke="#000000" stroke-width="0.398" fill="none" /><path id="504" transform="matrix(1 0 0 -1 0 792)" d="M1016.978 297.785L1075.602 297.785L1075.602 311.352L1016.978 311.352z" stroke="none" fill="#CCCCEB" fill-rule="nonzero" /><path id="510" transform="matrix(1 0 0 -1 0 792)" d="M1075.801 297.785L1075.801 311.352" stroke="#000000" stroke-width="0.398" fill="none" /><path id="511" transform="matrix(1 0 0 -1 0 792)" d="M1076 297.785L1104.919 297.785L1104.919 311.352L1076 311.352z" stroke="none" fill="#CCCCEB" fill-rule="nonzero" /><path id="512" transform="matrix(1 0 0 -1 0 792)" d="M1105.118 297.785L1105.118 311.352" stroke="#000000" stroke-width="0.398" fill="none" /><path id="513" transform="matrix(1 0 0 -1 0 792)" d="M765.204 297.586L1105.317 297.586" stroke="#000000" stroke-width="0.398" fill="none" /><path id="514" transform="matrix(1 0 0 -1 0 792)" d="M765.204 295.195L1105.317 295.195" stroke="#000000" stroke-width="0.398" fill="none" /><path id="515" transform="matrix(1 0 0 -1 0 792)" d="M765.403 281.429L765.403 294.996" stroke="#000000" stroke-width="0.398" fill="none" /><path id="527" transform="matrix(1 0 0 -1 0 792)" d="M837.931 285.71L840.92 285.71" stroke="#000000" stroke-width="0.398" fill="none" /><path id="530" transform="matrix(1 0 0 -1 0 792)" d="M957.756 281.429L957.756 294.996" stroke="#000000" stroke-width="0.398" fill="none" /><path id="532" transform="matrix(1 0 0 -1 0 792)" d="M1016.778 281.429L1016.778 294.996" stroke="#000000" stroke-width="0.398" fill="none" /><path id="534" transform="matrix(1 0 0 -1 0 792)" d="M1075.801 281.429L1075.801 294.996" stroke="#000000" stroke-width="0.398" fill="none" /><path id="536" transform="matrix(1 0 0 -1 0 792)" d="M1105.118 281.429L1105.118 294.996" stroke="#000000" stroke-width="0.398" fill="none" /><path id="537" transform="matrix(1 0 0 -1 0 792)" d="M765.204 281.23L1105.317 281.23" stroke="#000000" stroke-width="0.398" fill="none" /><path id="538" transform="matrix(1 0 0 -1 0 792)" d="M765.403 267.464L765.403 281.031" stroke="#000000" stroke-width="0.398" fill="none" /><path id="550" transform="matrix(1 0 0 -1 0 792)" d="M837.931 271.745L840.92 271.745" stroke="#000000" stroke-width="0.398" fill="none" /><path id="553" transform="matrix(1 0 0 -1 0 792)" d="M957.756 267.464L957.756 281.031" stroke="#000000" stroke-width="0.398" fill="none" /><path id="555" transform="matrix(1 0 0 -1 0 792)" d="M1016.778 267.464L1016.778 281.031" stroke="#000000" stroke-width="0.398" fill="none" /><path id="557" transform="matrix(1 0 0 -1 0 792)" d="M1075.801 267.464L1075.801 281.031" stroke="#000000" stroke-width="0.398" fill="none" /><path id="559" transform="matrix(1 0 0 -1 0 792)" d="M1105.118 267.464L1105.118 281.031" stroke="#000000" stroke-width="0.398" fill="none" /><path id="560" transform="matrix(1 0 0 -1 0 792)" d="M765.204 267.264L1105.317 267.264" stroke="#000000" stroke-width="0.398" fill="none" /><path id="561" transform="matrix(1 0 0 -1 0 792)" d="M765.403 253.499L765.403 267.066" stroke="#000000" stroke-width="0.398" fill="none" /><path id="571" transform="matrix(1 0 0 -1 0 792)" d="M825.976 257.78L828.965 257.78" stroke="#000000" stroke-width="0.398" fill="none" /><path id="574" transform="matrix(1 0 0 -1 0 792)" d="M957.756 253.499L957.756 267.066" stroke="#000000" stroke-width="0.398" fill="none" /><path id="576" transform="matrix(1 0 0 -1 0 792)" d="M1016.778 253.499L1016.778 267.066" stroke="#000000" stroke-width="0.398" fill="none" /><path id="578" transform="matrix(1 0 0 -1 0 792)" d="M1075.801 253.499L1075.801 267.066" stroke="#000000" stroke-width="0.398" fill="none" /><path id="580" transform="matrix(1 0 0 -1 0 792)" d="M1105.118 253.499L1105.118 267.066" stroke="#000000" stroke-width="0.398" fill="none" /><path id="581" transform="matrix(1 0 0 -1 0 792)" d="M765.204 253.299L1105.317 253.299" stroke="#000000" stroke-width="0.398" fill="none" /><path id="582" transform="matrix(1 0 0 -1 0 792)" d="M765.403 239.533L765.403 253.1" stroke="#000000" stroke-width="0.398" fill="none" /><path id="594" transform="matrix(1 0 0 -1 0 792)" d="M957.756 239.533L957.756 253.1" stroke="#000000" stroke-width="0.398" fill="none" /><path id="596" transform="matrix(1 0 0 -1 0 792)" d="M1016.778 239.533L1016.778 253.1" stroke="#000000" stroke-width="0.398" fill="none" /><path id="598" transform="matrix(1 0 0 -1 0 792)" d="M1075.801 239.533L1075.801 253.1" stroke="#000000" stroke-width="0.398" fill="none" /><path id="600" transform="matrix(1 0 0 -1 0 792)" d="M1105.118 239.533L1105.118 253.1" stroke="#000000" stroke-width="0.398" fill="none" /><path id="601" transform="matrix(1 0 0 -1 0 792)" d="M765.204 239.334L1105.317 239.334" stroke="#000000" stroke-width="0.398" fill="none" /><path id="602" transform="matrix(1 0 0 -1 0 792)" d="M765.403 225.568L765.403 239.135" stroke="#000000" stroke-width="0.398" fill="none" /><path id="614" transform="matrix(1 0 0 -1 0 792)" d="M837.931 229.85L840.92 229.85" stroke="#000000" stroke-width="0.398" fill="none" /><path id="621" transform="matrix(1 0 0 -1 0 792)" d="M877.383 229.85L880.372 229.85" stroke="#000000" stroke-width="0.398" fill="none" /><path id="627" transform="matrix(1 0 0 -1 0 792)" d="M957.756 225.568L957.756 239.135" stroke="#000000" stroke-width="0.398" fill="none" /><path id="629" transform="matrix(1 0 0 -1 0 792)" d="M1016.778 225.568L1016.778 239.135" stroke="#000000" stroke-width="0.398" fill="none" /><path id="631" transform="matrix(1 0 0 -1 0 792)" d="M1075.801 225.568L1075.801 239.135" stroke="#000000" stroke-width="0.398" fill="none" /><path id="633" transform="matrix(1 0 0 -1 0 792)" d="M1105.118 225.568L1105.118 239.135" stroke="#000000" stroke-width="0.398" fill="none" /><path id="634" transform="matrix(1 0 0 -1 0 792)" d="M765.204 225.369L1105.317 225.369" stroke="#000000" stroke-width="0.398" fill="none" /><path id="635" transform="matrix(1 0 0 -1 0 792)" d="M765.403 211.603L765.403 225.17" stroke="#000000" stroke-width="0.398" fill="none" /><path id="647" transform="matrix(1 0 0 -1 0 792)" d="M837.931 215.885L840.92 215.885" stroke="#000000" stroke-width="0.398" fill="none" /><path id="654" transform="matrix(1 0 0 -1 0 792)" d="M877.383 215.885L880.372 215.885" stroke="#000000" stroke-width="0.398" fill="none" /><path id="659" transform="matrix(1 0 0 -1 0 792)" d="M957.756 211.603L957.756 225.17" stroke="#000000" stroke-width="0.398" fill="none" /><path id="661" transform="matrix(1 0 0 -1 0 792)" d="M1016.778 211.603L1016.778 225.17" stroke="#000000" stroke-width="0.398" fill="none" /><path id="663" transform="matrix(1 0 0 -1 0 792)" d="M1075.801 211.603L1075.801 225.17" stroke="#000000" stroke-width="0.398" fill="none" /><path id="665" transform="matrix(1 0 0 -1 0 792)" d="M1105.118 211.603L1105.118 225.17" stroke="#000000" stroke-width="0.398" fill="none" /><path id="666" transform="matrix(1 0 0 -1 0 792)" d="M765.204 211.404L1105.317 211.404" stroke="#000000" stroke-width="0.398" fill="none" /><path id="667" transform="matrix(1 0 0 -1 0 792)" d="M765.403 197.638L765.403 211.205" stroke="#000000" stroke-width="0.398" fill="none" /><path id="679" transform="matrix(1 0 0 -1 0 792)" d="M837.931 201.919L840.92 201.919" stroke="#000000" stroke-width="0.398" fill="none" /><path id="686" transform="matrix(1 0 0 -1 0 792)" d="M877.383 201.919L880.372 201.919" stroke="#000000" stroke-width="0.398" fill="none" /><path id="692" transform="matrix(1 0 0 -1 0 792)" d="M957.756 197.638L957.756 211.205" stroke="#000000" stroke-width="0.398" fill="none" /><path id="694" transform="matrix(1 0 0 -1 0 792)" d="M1016.778 197.638L1016.778 211.205" stroke="#000000" stroke-width="0.398" fill="none" /><path id="696" transform="matrix(1 0 0 -1 0 792)" d="M1075.801 197.638L1075.801 211.205" stroke="#000000" stroke-width="0.398" fill="none" /><path id="698" transform="matrix(1 0 0 -1 0 792)" d="M1105.118 197.638L1105.118 211.205" stroke="#000000" stroke-width="0.398" fill="none" /><path id="699" transform="matrix(1 0 0 -1 0 792)" d="M765.204 197.439L1105.317 197.439" stroke="#000000" stroke-width="0.398" fill="none" /><path id="700" transform="matrix(1 0 0 -1 0 792)" d="M765.403 183.673L765.403 197.24" stroke="#000000" stroke-width="0.398" fill="none" /><path id="712" transform="matrix(1 0 0 -1 0 792)" d="M837.931 187.954L840.92 187.954" stroke="#000000" stroke-width="0.398" fill="none" /><path id="719" transform="matrix(1 0 0 -1 0 792)" d="M877.383 187.954L880.372 187.954" stroke="#000000" stroke-width="0.398" fill="none" /><path id="724" transform="matrix(1 0 0 -1 0 792)" d="M957.756 183.673L957.756 197.24" stroke="#000000" stroke-width="0.398" fill="none" /><path id="726" transform="matrix(1 0 0 -1 0 792)" d="M1016.778 183.673L1016.778 197.24" stroke="#000000" stroke-width="0.398" fill="none" /><path id="728" transform="matrix(1 0 0 -1 0 792)" d="M1075.801 183.673L1075.801 197.24" stroke="#000000" stroke-width="0.398" fill="none" /><path id="730" transform="matrix(1 0 0 -1 0 792)" d="M1105.118 183.673L1105.118 197.24" stroke="#000000" stroke-width="0.398" fill="none" /><path id="731" transform="matrix(1 0 0 -1 0 792)" d="M765.204 183.474L1105.317 183.474" stroke="#000000" stroke-width="0.398" fill="none" /><path id="732" transform="matrix(1 0 0 -1 0 792)" d="M765.403 169.708L765.403 183.275" stroke="#000000" stroke-width="0.398" fill="none" /><path id="744" transform="matrix(1 0 0 -1 0 792)" d="M837.931 173.989L840.92 173.989" stroke="#000000" stroke-width="0.398" fill="none" /><path id="751" transform="matrix(1 0 0 -1 0 792)" d="M957.756 169.708L957.756 183.275" stroke="#000000" stroke-width="0.398" fill="none" /><path id="753" transform="matrix(1 0 0 -1 0 792)" d="M1016.778 169.708L1016.778 183.275" stroke="#000000" stroke-width="0.398" fill="none" /><path id="755" transform="matrix(1 0 0 -1 0 792)" d="M1075.801 169.708L1075.801 183.275" stroke="#000000" stroke-width="0.398" fill="none" /><path id="757" transform="matrix(1 0 0 -1 0 792)" d="M1105.118 169.708L1105.118 183.275" stroke="#000000" stroke-width="0.398" fill="none" /><path id="758" transform="matrix(1 0 0 -1 0 792)" d="M765.204 169.508L1105.317 169.508" stroke="#000000" stroke-width="0.398" fill="none" /><path id="759" transform="matrix(1 0 0 -1 0 792)" d="M765.403 155.743L765.403 169.31" stroke="#000000" stroke-width="0.398" fill="none" /><path id="771" transform="matrix(1 0 0 -1 0 792)" d="M837.931 160.024L840.92 160.024" stroke="#000000" stroke-width="0.398" fill="none" /><path id="777" transform="matrix(1 0 0 -1 0 792)" d="M957.756 155.743L957.756 169.31" stroke="#000000" stroke-width="0.398" fill="none" /><path id="779" transform="matrix(1 0 0 -1 0 792)" d="M1016.778 155.743L1016.778 169.31" stroke="#000000" stroke-width="0.398" fill="none" /><path id="781" transform="matrix(1 0 0 -1 0 792)" d="M1075.801 155.743L1075.801 169.31" stroke="#000000" stroke-width="0.398" fill="none" /><path id="783" transform="matrix(1 0 0 -1 0 792)" d="M1105.118 155.743L1105.118 169.31" stroke="#000000" stroke-width="0.398" fill="none" /><path id="784" transform="matrix(1 0 0 -1 0 792)" d="M765.204 155.543L1105.317 155.543" stroke="#000000" stroke-width="0.398" fill="none" /><path id="785" transform="matrix(1 0 0 -1 0 792)" d="M765.403 141.777L765.403 155.344" stroke="#000000" stroke-width="0.398" fill="none" /><path id="797" transform="matrix(1 0 0 -1 0 792)" d="M837.931 146.059L840.92 146.059" stroke="#000000" stroke-width="0.398" fill="none" /><path id="804" transform="matrix(1 0 0 -1 0 792)" d="M957.756 141.777L957.756 155.344" stroke="#000000" stroke-width="0.398" fill="none" /><path id="806" transform="matrix(1 0 0 -1 0 792)" d="M1016.778 141.777L1016.778 155.344" stroke="#000000" stroke-width="0.398" fill="none" /><path id="808" transform="matrix(1 0 0 -1 0 792)" d="M1075.801 141.777L1075.801 155.344" stroke="#000000" stroke-width="0.398" fill="none" /><path id="810" transform="matrix(1 0 0 -1 0 792)" d="M1105.118 141.777L1105.118 155.344" stroke="#000000" stroke-width="0.398" fill="none" /><path id="811" transform="matrix(1 0 0 -1 0 792)" d="M765.204 141.578L1105.317 141.578" stroke="#000000" stroke-width="0.398" fill="none" /><path id="835" transform="matrix(1 0 0 -1 0 792)" d="M701.933 722.529L1168.588 722.529L1168.588 722.529L1168.588 735.6745L1168.588 735.6745L701.933 735.6745z" stroke="#FFFFFF" stroke-width="1" fill="#FFFFFF" fill-rule="nonzero" /><path id="886" transform="matrix(1 0 0 -1 0 792)" d="M89.933 721.28L556.588 721.28" stroke="#000000" stroke-width="0.498" fill="none" /><path id="887" transform="matrix(1 0 0 -1 0 792)" d="M153.204 657.757L493.317 657.757" stroke="#000000" stroke-width="0.398" fill="none" /><path id="888" transform="matrix(1 0 0 -1 0 792)" d="M153.403 643.991L153.403 657.558" stroke="#000000" stroke-width="0.398" fill="none" /><path id="889" transform="matrix(1 0 0 -1 0 792)" d="M153.602 643.991L345.557 643.991L345.557 657.558L153.602 657.558z" stroke="none" fill="#CCCCEB" fill-rule="nonzero" /><path id="895" transform="matrix(1 0 0 -1 0 792)" d="M345.756 643.991L345.756 657.558" stroke="#000000" stroke-width="0.398" fill="none" /><path id="896" transform="matrix(1 0 0 -1 0 792)" d="M345.956 643.991L404.58 643.991L404.58 657.558L345.956 657.558z" stroke="none" fill="#CCCCEB" fill-rule="nonzero" /><path id="906" transform="matrix(1 0 0 -1 0 792)" d="M404.778 643.991L404.778 657.558" stroke="#000000" stroke-width="0.398" fill="none" /><path id="907" transform="matrix(1 0 0 -1 0 792)" d="M404.978 643.991L463.602 643.991L463.602 657.558L404.978 657.558z" stroke="none" fill="#CCCCEB" fill-rule="nonzero" /><path id="915" transform="matrix(1 0 0 -1 0 792)" d="M463.801 643.991L463.801 657.558" stroke="#000000" stroke-width="0.398" fill="none" /><path id="916" transform="matrix(1 0 0 -1 0 792)" d="M464 643.991L492.919 643.991L492.919 657.558L464 657.558z" stroke="none" fill="#CCCCEB" fill-rule="nonzero" /><path id="920" transform="matrix(1 0 0 -1 0 792)" d="M493.118 643.991L493.118 657.558" stroke="#000000" stroke-width="0.398" fill="none" /><path id="921" transform="matrix(1 0 0 -1 0 792)" d="M153.403 630.424L153.403 643.991" stroke="#000000" stroke-width="0.398" fill="none" /><path id="922" transform="matrix(1 0 0 -1 0 792)" d="M153.602 630.424L345.557 630.424L345.557 643.991L153.602 643.991z" stroke="none" fill="#CCCCEB" fill-rule="nonzero" /><path id="923" transform="matrix(1 0 0 -1 0 792)" d="M345.756 630.424L345.756 643.991" stroke="#000000" stroke-width="0.398" fill="none" /><path id="924" transform="matrix(1 0 0 -1 0 792)" d="M345.956 630.424L404.58 630.424L404.58 643.991L345.956 643.991z" stroke="none" fill="#CCCCEB" fill-rule="nonzero" /><path id="925" transform="matrix(1 0 0 -1 0 792)" d="M404.778 630.424L404.778 643.991" stroke="#000000" stroke-width="0.398" fill="none" /><path id="926" transform="matrix(1 0 0 -1 0 792)" d="M404.978 630.424L463.602 630.424L463.602 643.991L404.978 643.991z" stroke="none" fill="#CCCCEB" fill-rule="nonzero" /><path id="932" transform="matrix(1 0 0 -1 0 792)" d="M463.801 630.424L463.801 643.991" stroke="#000000" stroke-width="0.398" fill="none" /><path id="933" transform="matrix(1 0 0 -1 0 792)" d="M464 630.424L492.919 630.424L492.919 643.991L464 643.991z" stroke="none" fill="#CCCCEB" fill-rule="nonzero" /><path id="934" transform="matrix(1 0 0 -1 0 792)" d="M493.118 630.424L493.118 643.991" stroke="#000000" stroke-width="0.398" fill="none" /><path id="935" transform="matrix(1 0 0 -1 0 792)" d="M153.204 630.225L493.317 630.225" stroke="#000000" stroke-width="0.398" fill="none" /><path id="936" transform="matrix(1 0 0 -1 0 792)" d="M153.204 627.834L493.317 627.834" stroke="#000000" stroke-width="0.398" fill="none" /><path id="937" transform="matrix(1 0 0 -1 0 792)" d="M153.403 614.068L153.403 627.635" stroke="#000000" stroke-width="0.398" fill="none" /><path id="943" transform="matrix(1 0 0 -1 0 792)" d="M190.065 618.349L193.054 618.349" stroke="#000000" stroke-width="0.398" fill="none" /><path id="949" transform="matrix(1 0 0 -1 0 792)" d="M345.756 614.068L345.756 627.635" stroke="#000000" stroke-width="0.398" fill="none" /><path id="951" transform="matrix(1 0 0 -1 0 792)" d="M404.778 614.068L404.778 627.635" stroke="#000000" stroke-width="0.398" fill="none" /><path id="953" transform="matrix(1 0 0 -1 0 792)" d="M463.801 614.068L463.801 627.635" stroke="#000000" stroke-width="0.398" fill="none" /><path id="955" transform="matrix(1 0 0 -1 0 792)" d="M493.118 614.068L493.118 627.635" stroke="#000000" stroke-width="0.398" fill="none" /><path id="956" transform="matrix(1 0 0 -1 0 792)" d="M153.204 613.869L493.317 613.869" stroke="#000000" stroke-width="0.398" fill="none" /><path id="957" transform="matrix(1 0 0 -1 0 792)" d="M153.403 600.103L153.403 613.67" stroke="#000000" stroke-width="0.398" fill="none" /><path id="962" transform="matrix(1 0 0 -1 0 792)" d="M184.088 604.384L187.077 604.384" stroke="#000000" stroke-width="0.398" fill="none" /><path id="974" transform="matrix(1 0 0 -1 0 792)" d="M253.428 604.384L256.417 604.384" stroke="#000000" stroke-width="0.398" fill="none" /><path id="980" transform="matrix(1 0 0 -1 0 792)" d="M286.902 604.384L289.891 604.384" stroke="#000000" stroke-width="0.398" fill="none" /><path id="986" transform="matrix(1 0 0 -1 0 792)" d="M345.756 600.103L345.756 613.67" stroke="#000000" stroke-width="0.398" fill="none" /><path id="988" transform="matrix(1 0 0 -1 0 792)" d="M404.778 600.103L404.778 613.67" stroke="#000000" stroke-width="0.398" fill="none" /><path id="990" transform="matrix(1 0 0 -1 0 792)" d="M463.801 600.103L463.801 613.67" stroke="#000000" stroke-width="0.398" fill="none" /><path id="992" transform="matrix(1 0 0 -1 0 792)" d="M493.118 600.103L493.118 613.67" stroke="#000000" stroke-width="0.398" fill="none" /><path id="993" transform="matrix(1 0 0 -1 0 792)" d="M153.204 599.903L493.317 599.903" stroke="#000000" stroke-width="0.398" fill="none" /><path id="994" transform="matrix(1 0 0 -1 0 792)" d="M153.403 586.138L153.403 599.705" stroke="#000000" stroke-width="0.398" fill="none" /><path id="999" transform="matrix(1 0 0 -1 0 792)" d="M184.088 590.419L187.077 590.419" stroke="#000000" stroke-width="0.398" fill="none" /><path id="1005" transform="matrix(1 0 0 -1 0 792)" d="M217.562 590.419L220.551 590.419" stroke="#000000" stroke-width="0.398" fill="none" /><path id="1012" transform="matrix(1 0 0 -1 0 792)" d="M257.014 590.419L260.003 590.419" stroke="#000000" stroke-width="0.398" fill="none" /><path id="1018" transform="matrix(1 0 0 -1 0 792)" d="M290.489 590.419L293.478 590.419" stroke="#000000" stroke-width="0.398" fill="none" /><path id="1024" transform="matrix(1 0 0 -1 0 792)" d="M345.756 586.138L345.756 599.705" stroke="#000000" stroke-width="0.398" fill="none" /><path id="1026" transform="matrix(1 0 0 -1 0 792)" d="M404.778 586.138L404.778 599.705" stroke="#000000" stroke-width="0.398" fill="none" /><path id="1028" transform="matrix(1 0 0 -1 0 792)" d="M463.801 586.138L463.801 599.705" stroke="#000000" stroke-width="0.398" fill="none" /><path id="1030" transform="matrix(1 0 0 -1 0 792)" d="M493.118 586.138L493.118 599.705" stroke="#000000" stroke-width="0.398" fill="none" /><path id="1031" transform="matrix(1 0 0 -1 0 792)" d="M153.204 585.938L493.317 585.938" stroke="#000000" stroke-width="0.398" fill="none" /><path id="1032" transform="matrix(1 0 0 -1 0 792)" d="M153.403 572.172L153.403 585.739" stroke="#000000" stroke-width="0.398" fill="none" /><path id="1038" transform="matrix(1 0 0 -1 0 792)" d="M190.065 576.454L193.054 576.454" stroke="#000000" stroke-width="0.398" fill="none" /><path id="1044" transform="matrix(1 0 0 -1 0 792)" d="M223.54 576.454L226.529 576.454" stroke="#000000" stroke-width="0.398" fill="none" /><path id="1051" transform="matrix(1 0 0 -1 0 792)" d="M345.756 572.172L345.756 585.739" stroke="#000000" stroke-width="0.398" fill="none" /><path id="1053" transform="matrix(1 0 0 -1 0 792)" d="M404.778 572.172L404.778 585.739" stroke="#000000" stroke-width="0.398" fill="none" /><path id="1055" transform="matrix(1 0 0 -1 0 792)" d="M463.801 572.172L463.801 585.739" stroke="#000000" stroke-width="0.398" fill="none" /><path id="1057" transform="matrix(1 0 0 -1 0 792)" d="M493.118 572.172L493.118 585.739" stroke="#000000" stroke-width="0.398" fill="none" /><path id="1058" transform="matrix(1 0 0 -1 0 792)" d="M153.204 571.973L493.317 571.973" stroke="#000000" stroke-width="0.398" fill="none" /><path id="1059" transform="matrix(1 0 0 -1 0 792)" d="M153.403 558.207L153.403 571.774" stroke="#000000" stroke-width="0.398" fill="none" /><path id="1065" transform="matrix(1 0 0 -1 0 792)" d="M190.065 562.489L193.054 562.489" stroke="#000000" stroke-width="0.398" fill="none" /><path id="1071" transform="matrix(1 0 0 -1 0 792)" d="M223.54 562.489L226.529 562.489" stroke="#000000" stroke-width="0.398" fill="none" /><path id="1077" transform="matrix(1 0 0 -1 0 792)" d="M345.756 558.207L345.756 571.774" stroke="#000000" stroke-width="0.398" fill="none" /><path id="1079" transform="matrix(1 0 0 -1 0 792)" d="M404.778 558.207L404.778 571.774" stroke="#000000" stroke-width="0.398" fill="none" /><path id="1081" transform="matrix(1 0 0 -1 0 792)" d="M463.801 558.207L463.801 571.774" stroke="#000000" stroke-width="0.398" fill="none" /><path id="1083" transform="matrix(1 0 0 -1 0 792)" d="M493.118 558.207L493.118 571.774" stroke="#000000" stroke-width="0.398" fill="none" /><path id="1084" transform="matrix(1 0 0 -1 0 792)" d="M153.204 558.008L493.317 558.008" stroke="#000000" stroke-width="0.398" fill="none" /><path id="1085" transform="matrix(1 0 0 -1 0 792)" d="M153.403 544.242L153.403 557.809" stroke="#000000" stroke-width="0.398" fill="none" /><path id="1091" transform="matrix(1 0 0 -1 0 792)" d="M190.065 548.524L193.054 548.524" stroke="#000000" stroke-width="0.398" fill="none" /><path id="1097" transform="matrix(1 0 0 -1 0 792)" d="M223.54 548.524L226.529 548.524" stroke="#000000" stroke-width="0.398" fill="none" /><path id="1101" transform="matrix(1 0 0 -1 0 792)" d="M245.059 548.524L248.048 548.524" stroke="#000000" stroke-width="0.398" fill="none" /><path id="1106" transform="matrix(1 0 0 -1 0 792)" d="M345.756 544.242L345.756 557.809" stroke="#000000" stroke-width="0.398" fill="none" /><path id="1108" transform="matrix(1 0 0 -1 0 792)" d="M404.778 544.242L404.778 557.809" stroke="#000000" stroke-width="0.398" fill="none" /><path id="1110" transform="matrix(1 0 0 -1 0 792)" d="M463.801 544.242L463.801 557.809" stroke="#000000" stroke-width="0.398" fill="none" /><path id="1112" transform="matrix(1 0 0 -1 0 792)" d="M493.118 544.242L493.118 557.809" stroke="#000000" stroke-width="0.398" fill="none" /><path id="1113" transform="matrix(1 0 0 -1 0 792)" d="M153.204 544.043L493.317 544.043" stroke="#000000" stroke-width="0.398" fill="none" /><path id="1114" transform="matrix(1 0 0 -1 0 792)" d="M153.403 530.277L153.403 543.844" stroke="#000000" stroke-width="0.398" fill="none" /><path id="1120" transform="matrix(1 0 0 -1 0 792)" d="M190.065 534.558L193.054 534.558" stroke="#000000" stroke-width="0.398" fill="none" /><path id="1126" transform="matrix(1 0 0 -1 0 792)" d="M223.54 534.558L226.529 534.558" stroke="#000000" stroke-width="0.398" fill="none" /><path id="1132" transform="matrix(1 0 0 -1 0 792)" d="M257.014 534.558L260.003 534.558" stroke="#000000" stroke-width="0.398" fill="none" /><path id="1137" transform="matrix(1 0 0 -1 0 792)" d="M345.756 530.277L345.756 543.844" stroke="#000000" stroke-width="0.398" fill="none" /><path id="1139" transform="matrix(1 0 0 -1 0 792)" d="M404.778 530.277L404.778 543.844" stroke="#000000" stroke-width="0.398" fill="none" /><path id="1141" transform="matrix(1 0 0 -1 0 792)" d="M463.801 530.277L463.801 543.844" stroke="#000000" stroke-width="0.398" fill="none" /><path id="1143" transform="matrix(1 0 0 -1 0 792)" d="M493.118 530.277L493.118 543.844" stroke="#000000" stroke-width="0.398" fill="none" /><path id="1144" transform="matrix(1 0 0 -1 0 792)" d="M153.204 530.078L493.317 530.078" stroke="#000000" stroke-width="0.398" fill="none" /><path id="1145" transform="matrix(1 0 0 -1 0 792)" d="M153.403 516.312L153.403 529.879" stroke="#000000" stroke-width="0.398" fill="none" /><path id="1151" transform="matrix(1 0 0 -1 0 792)" d="M190.065 520.593L193.054 520.593" stroke="#000000" stroke-width="0.398" fill="none" /><path id="1157" transform="matrix(1 0 0 -1 0 792)" d="M223.54 520.593L226.529 520.593" stroke="#000000" stroke-width="0.398" fill="none" /><path id="1162" transform="matrix(1 0 0 -1 0 792)" d="M251.037 520.593L254.026 520.593" stroke="#000000" stroke-width="0.398" fill="none" /><path id="1167" transform="matrix(1 0 0 -1 0 792)" d="M345.756 516.312L345.756 529.879" stroke="#000000" stroke-width="0.398" fill="none" /><path id="1169" transform="matrix(1 0 0 -1 0 792)" d="M404.778 516.312L404.778 529.879" stroke="#000000" stroke-width="0.398" fill="none" /><path id="1171" transform="matrix(1 0 0 -1 0 792)" d="M463.801 516.312L463.801 529.879" stroke="#000000" stroke-width="0.398" fill="none" /><path id="1173" transform="matrix(1 0 0 -1 0 792)" d="M493.118 516.312L493.118 529.879" stroke="#000000" stroke-width="0.398" fill="none" /><path id="1174" transform="matrix(1 0 0 -1 0 792)" d="M153.204 516.113L493.317 516.113" stroke="#000000" stroke-width="0.398" fill="none" /><path id="1175" transform="matrix(1 0 0 -1 0 792)" d="M153.403 502.347L153.403 515.914" stroke="#000000" stroke-width="0.398" fill="none" /><path id="1181" transform="matrix(1 0 0 -1 0 792)" d="M190.065 506.628L193.054 506.628" stroke="#000000" stroke-width="0.398" fill="none" /><path id="1187" transform="matrix(1 0 0 -1 0 792)" d="M223.54 506.628L226.529 506.628" stroke="#000000" stroke-width="0.398" fill="none" /><path id="1193" transform="matrix(1 0 0 -1 0 792)" d="M257.014 506.628L260.003 506.628" stroke="#000000" stroke-width="0.398" fill="none" /><path id="1198" transform="matrix(1 0 0 -1 0 792)" d="M345.756 502.347L345.756 515.914" stroke="#000000" stroke-width="0.398" fill="none" /><path id="1200" transform="matrix(1 0 0 -1 0 792)" d="M404.778 502.347L404.778 515.914" stroke="#000000" stroke-width="0.398" fill="none" /><path id="1202" transform="matrix(1 0 0 -1 0 792)" d="M463.801 502.347L463.801 515.914" stroke="#000000" stroke-width="0.398" fill="none" /><path id="1204" transform="matrix(1 0 0 -1 0 792)" d="M493.118 502.347L493.118 515.914" stroke="#000000" stroke-width="0.398" fill="none" /><path id="1205" transform="matrix(1 0 0 -1 0 792)" d="M153.204 502.147L493.317 502.147" stroke="#000000" stroke-width="0.398" fill="none" /><path id="1206" transform="matrix(1 0 0 -1 0 792)" d="M153.403 488.382L153.403 501.949" stroke="#000000" stroke-width="0.398" fill="none" /><path id="1212" transform="matrix(1 0 0 -1 0 792)" d="M190.065 492.663L193.054 492.663" stroke="#000000" stroke-width="0.398" fill="none" /><path id="1218" transform="matrix(1 0 0 -1 0 792)" d="M223.54 492.663L226.529 492.663" stroke="#000000" stroke-width="0.398" fill="none" /><path id="1228" transform="matrix(1 0 0 -1 0 792)" d="M280.925 492.663L283.914 492.663" stroke="#000000" stroke-width="0.398" fill="none" /><path id="1233" transform="matrix(1 0 0 -1 0 792)" d="M345.756 488.382L345.756 501.949" stroke="#000000" stroke-width="0.398" fill="none" /><path id="1235" transform="matrix(1 0 0 -1 0 792)" d="M404.778 488.382L404.778 501.949" stroke="#000000" stroke-width="0.398" fill="none" /><path id="1237" transform="matrix(1 0 0 -1 0 792)" d="M463.801 488.382L463.801 501.949" stroke="#000000" stroke-width="0.398" fill="none" /><path id="1239" transform="matrix(1 0 0 -1 0 792)" d="M493.118 488.382L493.118 501.949" stroke="#000000" stroke-width="0.398" fill="none" /><path id="1240" transform="matrix(1 0 0 -1 0 792)" d="M153.204 488.182L493.317 488.182" stroke="#000000" stroke-width="0.398" fill="none" /><path id="1241" transform="matrix(1 0 0 -1 0 792)" d="M153.403 474.416L153.403 487.983" stroke="#000000" stroke-width="0.398" fill="none" /><path id="1247" transform="matrix(1 0 0 -1 0 792)" d="M190.065 478.698L193.054 478.698" stroke="#000000" stroke-width="0.398" fill="none" /><path id="1253" transform="matrix(1 0 0 -1 0 792)" d="M223.54 478.698L226.529 478.698" stroke="#000000" stroke-width="0.398" fill="none" /><path id="1263" transform="matrix(1 0 0 -1 0 792)" d="M280.925 478.698L283.914 478.698" stroke="#000000" stroke-width="0.398" fill="none" /><path id="1268" transform="matrix(1 0 0 -1 0 792)" d="M345.756 474.416L345.756 487.983" stroke="#000000" stroke-width="0.398" fill="none" /><path id="1270" transform="matrix(1 0 0 -1 0 792)" d="M404.778 474.416L404.778 487.983" stroke="#000000" stroke-width="0.398" fill="none" /><path id="1272" transform="matrix(1 0 0 -1 0 792)" d="M463.801 474.416L463.801 487.983" stroke="#000000" stroke-width="0.398" fill="none" /><path id="1274" transform="matrix(1 0 0 -1 0 792)" d="M493.118 474.416L493.118 487.983" stroke="#000000" stroke-width="0.398" fill="none" /><path id="1275" transform="matrix(1 0 0 -1 0 792)" d="M153.204 474.217L493.317 474.217" stroke="#000000" stroke-width="0.398" fill="none" /><path id="1276" transform="matrix(1 0 0 -1 0 792)" d="M153.403 460.451L153.403 474.018" stroke="#000000" stroke-width="0.398" fill="none" /><path id="1282" transform="matrix(1 0 0 -1 0 792)" d="M190.065 464.733L193.054 464.733" stroke="#000000" stroke-width="0.398" fill="none" /><path id="1288" transform="matrix(1 0 0 -1 0 792)" d="M223.54 464.733L226.529 464.733" stroke="#000000" stroke-width="0.398" fill="none" /><path id="1294" transform="matrix(1 0 0 -1 0 792)" d="M345.756 460.451L345.756 474.018" stroke="#000000" stroke-width="0.398" fill="none" /><path id="1296" transform="matrix(1 0 0 -1 0 792)" d="M404.778 460.451L404.778 474.018" stroke="#000000" stroke-width="0.398" fill="none" /><path id="1298" transform="matrix(1 0 0 -1 0 792)" d="M463.801 460.451L463.801 474.018" stroke="#000000" stroke-width="0.398" fill="none" /><path id="1300" transform="matrix(1 0 0 -1 0 792)" d="M493.118 460.451L493.118 474.018" stroke="#000000" stroke-width="0.398" fill="none" /><path id="1301" transform="matrix(1 0 0 -1 0 792)" d="M153.204 460.252L493.317 460.252" stroke="#000000" stroke-width="0.398" fill="none" /><path id="1302" transform="matrix(1 0 0 -1 0 792)" d="M153.403 446.486L153.403 460.053" stroke="#000000" stroke-width="0.398" fill="none" /><path id="1308" transform="matrix(1 0 0 -1 0 792)" d="M190.065 450.768L193.054 450.768" stroke="#000000" stroke-width="0.398" fill="none" /><path id="1314" transform="matrix(1 0 0 -1 0 792)" d="M223.54 450.768L226.529 450.768" stroke="#000000" stroke-width="0.398" fill="none" /><path id="1319" transform="matrix(1 0 0 -1 0 792)" d="M345.756 446.486L345.756 460.053" stroke="#000000" stroke-width="0.398" fill="none" /><path id="1321" transform="matrix(1 0 0 -1 0 792)" d="M404.778 446.486L404.778 460.053" stroke="#000000" stroke-width="0.398" fill="none" /><path id="1323" transform="matrix(1 0 0 -1 0 792)" d="M463.801 446.486L463.801 460.053" stroke="#000000" stroke-width="0.398" fill="none" /><path id="1325" transform="matrix(1 0 0 -1 0 792)" d="M493.118 446.486L493.118 460.053" stroke="#000000" stroke-width="0.398" fill="none" /><path id="1326" transform="matrix(1 0 0 -1 0 792)" d="M153.204 446.287L493.317 446.287" stroke="#000000" stroke-width="0.398" fill="none" /><path id="1350" transform="matrix(1 0 0 -1 0 792)" d="M153.204 325.118L493.317 325.118" stroke="#000000" stroke-width="0.398" fill="none" /><path id="1351" transform="matrix(1 0 0 -1 0 792)" d="M153.403 311.352L153.403 324.919" stroke="#000000" stroke-width="0.398" fill="none" /><path id="1352" transform="matrix(1 0 0 -1 0 792)" d="M153.602 311.352L345.557 311.352L345.557 324.919L153.602 324.919z" stroke="none" fill="#CCCCEB" fill-rule="nonzero" /><path id="1358" transform="matrix(1 0 0 -1 0 792)" d="M345.756 311.352L345.756 324.919" stroke="#000000" stroke-width="0.398" fill="none" /><path id="1359" transform="matrix(1 0 0 -1 0 792)" d="M345.956 311.352L404.58 311.352L404.58 324.919L345.956 324.919z" stroke="none" fill="#CCCCEB" fill-rule="nonzero" /><path id="1369" transform="matrix(1 0 0 -1 0 792)" d="M404.778 311.352L404.778 324.919" stroke="#000000" stroke-width="0.398" fill="none" /><path id="1370" transform="matrix(1 0 0 -1 0 792)" d="M404.978 311.352L463.602 311.352L463.602 324.919L404.978 324.919z" stroke="none" fill="#CCCCEB" fill-rule="nonzero" /><path id="1378" transform="matrix(1 0 0 -1 0 792)" d="M463.801 311.352L463.801 324.919" stroke="#000000" stroke-width="0.398" fill="none" /><path id="1379" transform="matrix(1 0 0 -1 0 792)" d="M464 311.352L492.919 311.352L492.919 324.919L464 324.919z" stroke="none" fill="#CCCCEB" fill-rule="nonzero" /><path id="1383" transform="matrix(1 0 0 -1 0 792)" d="M493.118 311.352L493.118 324.919" stroke="#000000" stroke-width="0.398" fill="none" /><path id="1384" transform="matrix(1 0 0 -1 0 792)" d="M153.403 297.785L153.403 311.352" stroke="#000000" stroke-width="0.398" fill="none" /><path id="1385" transform="matrix(1 0 0 -1 0 792)" d="M153.602 297.785L345.557 297.785L345.557 311.352L153.602 311.352z" stroke="none" fill="#CCCCEB" fill-rule="nonzero" /><path id="1386" transform="matrix(1 0 0 -1 0 792)" d="M345.756 297.785L345.756 311.352" stroke="#000000" stroke-width="0.398" fill="none" /><path id="1387" transform="matrix(1 0 0 -1 0 792)" d="M345.956 297.785L404.58 297.785L404.58 311.352L345.956 311.352z" stroke="none" fill="#CCCCEB" fill-rule="nonzero" /><path id="1388" transform="matrix(1 0 0 -1 0 792)" d="M404.778 297.785L404.778 311.352" stroke="#000000" stroke-width="0.398" fill="none" /><path id="1389" transform="matrix(1 0 0 -1 0 792)" d="M404.978 297.785L463.602 297.785L463.602 311.352L404.978 311.352z" stroke="none" fill="#CCCCEB" fill-rule="nonzero" /><path id="1395" transform="matrix(1 0 0 -1 0 792)" d="M463.801 297.785L463.801 311.352" stroke="#000000" stroke-width="0.398" fill="none" /><path id="1396" transform="matrix(1 0 0 -1 0 792)" d="M464 297.785L492.919 297.785L492.919 311.352L464 311.352z" stroke="none" fill="#CCCCEB" fill-rule="nonzero" /><path id="1397" transform="matrix(1 0 0 -1 0 792)" d="M493.118 297.785L493.118 311.352" stroke="#000000" stroke-width="0.398" fill="none" /><path id="1398" transform="matrix(1 0 0 -1 0 792)" d="M153.204 297.586L493.317 297.586" stroke="#000000" stroke-width="0.398" fill="none" /><path id="1399" transform="matrix(1 0 0 -1 0 792)" d="M153.204 295.195L493.317 295.195" stroke="#000000" stroke-width="0.398" fill="none" /><path id="1400" transform="matrix(1 0 0 -1 0 792)" d="M153.403 281.429L153.403 294.996" stroke="#000000" stroke-width="0.398" fill="none" /><path id="1412" transform="matrix(1 0 0 -1 0 792)" d="M225.931 285.71L228.92 285.71" stroke="#000000" stroke-width="0.398" fill="none" /><path id="1415" transform="matrix(1 0 0 -1 0 792)" d="M345.756 281.429L345.756 294.996" stroke="#000000" stroke-width="0.398" fill="none" /><path id="1417" transform="matrix(1 0 0 -1 0 792)" d="M404.778 281.429L404.778 294.996" stroke="#000000" stroke-width="0.398" fill="none" /><path id="1419" transform="matrix(1 0 0 -1 0 792)" d="M463.801 281.429L463.801 294.996" stroke="#000000" stroke-width="0.398" fill="none" /><path id="1421" transform="matrix(1 0 0 -1 0 792)" d="M493.118 281.429L493.118 294.996" stroke="#000000" stroke-width="0.398" fill="none" /><path id="1422" transform="matrix(1 0 0 -1 0 792)" d="M153.204 281.23L493.317 281.23" stroke="#000000" stroke-width="0.398" fill="none" /><path id="1423" transform="matrix(1 0 0 -1 0 792)" d="M153.403 267.464L153.403 281.031" stroke="#000000" stroke-width="0.398" fill="none" /><path id="1435" transform="matrix(1 0 0 -1 0 792)" d="M225.931 271.745L228.92 271.745" stroke="#000000" stroke-width="0.398" fill="none" /><path id="1438" transform="matrix(1 0 0 -1 0 792)" d="M345.756 267.464L345.756 281.031" stroke="#000000" stroke-width="0.398" fill="none" /><path id="1440" transform="matrix(1 0 0 -1 0 792)" d="M404.778 267.464L404.778 281.031" stroke="#000000" stroke-width="0.398" fill="none" /><path id="1442" transform="matrix(1 0 0 -1 0 792)" d="M463.801 267.464L463.801 281.031" stroke="#000000" stroke-width="0.398" fill="none" /><path id="1444" transform="matrix(1 0 0 -1 0 792)" d="M493.118 267.464L493.118 281.031" stroke="#000000" stroke-width="0.398" fill="none" /><path id="1445" transform="matrix(1 0 0 -1 0 792)" d="M153.204 267.264L493.317 267.264" stroke="#000000" stroke-width="0.398" fill="none" /><path id="1446" transform="matrix(1 0 0 -1 0 792)" d="M153.403 253.499L153.403 267.066" stroke="#000000" stroke-width="0.398" fill="none" /><path id="1456" transform="matrix(1 0 0 -1 0 792)" d="M213.976 257.78L216.965 257.78" stroke="#000000" stroke-width="0.398" fill="none" /><path id="1459" transform="matrix(1 0 0 -1 0 792)" d="M345.756 253.499L345.756 267.066" stroke="#000000" stroke-width="0.398" fill="none" /><path id="1461" transform="matrix(1 0 0 -1 0 792)" d="M404.778 253.499L404.778 267.066" stroke="#000000" stroke-width="0.398" fill="none" /><path id="1463" transform="matrix(1 0 0 -1 0 792)" d="M463.801 253.499L463.801 267.066" stroke="#000000" stroke-width="0.398" fill="none" /><path id="1465" transform="matrix(1 0 0 -1 0 792)" d="M493.118 253.499L493.118 267.066" stroke="#000000" stroke-width="0.398" fill="none" /><path id="1466" transform="matrix(1 0 0 -1 0 792)" d="M153.204 253.299L493.317 253.299" stroke="#000000" stroke-width="0.398" fill="none" /><path id="1467" transform="matrix(1 0 0 -1 0 792)" d="M153.403 239.533L153.403 253.1" stroke="#000000" stroke-width="0.398" fill="none" /><path id="1479" transform="matrix(1 0 0 -1 0 792)" d="M345.756 239.533L345.756 253.1" stroke="#000000" stroke-width="0.398" fill="none" /><path id="1481" transform="matrix(1 0 0 -1 0 792)" d="M404.778 239.533L404.778 253.1" stroke="#000000" stroke-width="0.398" fill="none" /><path id="1483" transform="matrix(1 0 0 -1 0 792)" d="M463.801 239.533L463.801 253.1" stroke="#000000" stroke-width="0.398" fill="none" /><path id="1485" transform="matrix(1 0 0 -1 0 792)" d="M493.118 239.533L493.118 253.1" stroke="#000000" stroke-width="0.398" fill="none" /><path id="1486" transform="matrix(1 0 0 -1 0 792)" d="M153.204 239.334L493.317 239.334" stroke="#000000" stroke-width="0.398" fill="none" /><path id="1487" transform="matrix(1 0 0 -1 0 792)" d="M153.403 225.568L153.403 239.135" stroke="#000000" stroke-width="0.398" fill="none" /><path id="1499" transform="matrix(1 0 0 -1 0 792)" d="M225.931 229.85L228.92 229.85" stroke="#000000" stroke-width="0.398" fill="none" /><path id="1506" transform="matrix(1 0 0 -1 0 792)" d="M265.383 229.85L268.372 229.85" stroke="#000000" stroke-width="0.398" fill="none" /><path id="1512" transform="matrix(1 0 0 -1 0 792)" d="M345.756 225.568L345.756 239.135" stroke="#000000" stroke-width="0.398" fill="none" /><path id="1514" transform="matrix(1 0 0 -1 0 792)" d="M404.778 225.568L404.778 239.135" stroke="#000000" stroke-width="0.398" fill="none" /><path id="1516" transform="matrix(1 0 0 -1 0 792)" d="M463.801 225.568L463.801 239.135" stroke="#000000" stroke-width="0.398" fill="none" /><path id="1518" transform="matrix(1 0 0 -1 0 792)" d="M493.118 225.568L493.118 239.135" stroke="#000000" stroke-width="0.398" fill="none" /><path id="1519" transform="matrix(1 0 0 -1 0 792)" d="M153.204 225.369L493.317 225.369" stroke="#000000" stroke-width="0.398" fill="none" /><path id="1520" transform="matrix(1 0 0 -1 0 792)" d="M153.403 211.603L153.403 225.17" stroke="#000000" stroke-width="0.398" fill="none" /><path id="1532" transform="matrix(1 0 0 -1 0 792)" d="M225.931 215.885L228.92 215.885" stroke="#000000" stroke-width="0.398" fill="none" /><path id="1539" transform="matrix(1 0 0 -1 0 792)" d="M265.383 215.885L268.372 215.885" stroke="#000000" stroke-width="0.398" fill="none" /><path id="1544" transform="matrix(1 0 0 -1 0 792)" d="M345.756 211.603L345.756 225.17" stroke="#000000" stroke-width="0.398" fill="none" /><path id="1546" transform="matrix(1 0 0 -1 0 792)" d="M404.778 211.603L404.778 225.17" stroke="#000000" stroke-width="0.398" fill="none" /><path id="1548" transform="matrix(1 0 0 -1 0 792)" d="M463.801 211.603L463.801 225.17" stroke="#000000" stroke-width="0.398" fill="none" /><path id="1550" transform="matrix(1 0 0 -1 0 792)" d="M493.118 211.603L493.118 225.17" stroke="#000000" stroke-width="0.398" fill="none" /><path id="1551" transform="matrix(1 0 0 -1 0 792)" d="M153.204 211.404L493.317 211.404" stroke="#000000" stroke-width="0.398" fill="none" /><path id="1552" transform="matrix(1 0 0 -1 0 792)" d="M153.403 197.638L153.403 211.205" stroke="#000000" stroke-width="0.398" fill="none" /><path id="1564" transform="matrix(1 0 0 -1 0 792)" d="M225.931 201.919L228.92 201.919" stroke="#000000" stroke-width="0.398" fill="none" /><path id="1571" transform="matrix(1 0 0 -1 0 792)" d="M265.383 201.919L268.372 201.919" stroke="#000000" stroke-width="0.398" fill="none" /><path id="1577" transform="matrix(1 0 0 -1 0 792)" d="M345.756 197.638L345.756 211.205" stroke="#000000" stroke-width="0.398" fill="none" /><path id="1579" transform="matrix(1 0 0 -1 0 792)" d="M404.778 197.638L404.778 211.205" stroke="#000000" stroke-width="0.398" fill="none" /><path id="1581" transform="matrix(1 0 0 -1 0 792)" d="M463.801 197.638L463.801 211.205" stroke="#000000" stroke-width="0.398" fill="none" /><path id="1583" transform="matrix(1 0 0 -1 0 792)" d="M493.118 197.638L493.118 211.205" stroke="#000000" stroke-width="0.398" fill="none" /><path id="1584" transform="matrix(1 0 0 -1 0 792)" d="M153.204 197.439L493.317 197.439" stroke="#000000" stroke-width="0.398" fill="none" /><path id="1585" transform="matrix(1 0 0 -1 0 792)" d="M153.403 183.673L153.403 197.24" stroke="#000000" stroke-width="0.398" fill="none" /><path id="1597" transform="matrix(1 0 0 -1 0 792)" d="M225.931 187.954L228.92 187.954" stroke="#000000" stroke-width="0.398" fill="none" /><path id="1604" transform="matrix(1 0 0 -1 0 792)" d="M265.383 187.954L268.372 187.954" stroke="#000000" stroke-width="0.398" fill="none" /><path id="1609" transform="matrix(1 0 0 -1 0 792)" d="M345.756 183.673L345.756 197.24" stroke="#000000" stroke-width="0.398" fill="none" /><path id="1611" transform="matrix(1 0 0 -1 0 792)" d="M404.778 183.673L404.778 197.24" stroke="#000000" stroke-width="0.398" fill="none" /><path id="1613" transform="matrix(1 0 0 -1 0 792)" d="M463.801 183.673L463.801 197.24" stroke="#000000" stroke-width="0.398" fill="none" /><path id="1615" transform="matrix(1 0 0 -1 0 792)" d="M493.118 183.673L493.118 197.24" stroke="#000000" stroke-width="0.398" fill="none" /><path id="1616" transform="matrix(1 0 0 -1 0 792)" d="M153.204 183.474L493.317 183.474" stroke="#000000" stroke-width="0.398" fill="none" /><path id="1617" transform="matrix(1 0 0 -1 0 792)" d="M153.403 169.708L153.403 183.275" stroke="#000000" stroke-width="0.398" fill="none" /><path id="1629" transform="matrix(1 0 0 -1 0 792)" d="M225.931 173.989L228.92 173.989" stroke="#000000" stroke-width="0.398" fill="none" /><path id="1636" transform="matrix(1 0 0 -1 0 792)" d="M345.756 169.708L345.756 183.275" stroke="#000000" stroke-width="0.398" fill="none" /><path id="1638" transform="matrix(1 0 0 -1 0 792)" d="M404.778 169.708L404.778 183.275" stroke="#000000" stroke-width="0.398" fill="none" /><path id="1640" transform="matrix(1 0 0 -1 0 792)" d="M463.801 169.708L463.801 183.275" stroke="#000000" stroke-width="0.398" fill="none" /><path id="1642" transform="matrix(1 0 0 -1 0 792)" d="M493.118 169.708L493.118 183.275" stroke="#000000" stroke-width="0.398" fill="none" /><path id="1643" transform="matrix(1 0 0 -1 0 792)" d="M153.204 169.508L493.317 169.508" stroke="#000000" stroke-width="0.398" fill="none" /><path id="1644" transform="matrix(1 0 0 -1 0 792)" d="M153.403 155.743L153.403 169.31" stroke="#000000" stroke-width="0.398" fill="none" /><path id="1656" transform="matrix(1 0 0 -1 0 792)" d="M225.931 160.024L228.92 160.024" stroke="#000000" stroke-width="0.398" fill="none" /><path id="1662" transform="matrix(1 0 0 -1 0 792)" d="M345.756 155.743L345.756 169.31" stroke="#000000" stroke-width="0.398" fill="none" /><path id="1664" transform="matrix(1 0 0 -1 0 792)" d="M404.778 155.743L404.778 169.31" stroke="#000000" stroke-width="0.398" fill="none" /><path id="1666" transform="matrix(1 0 0 -1 0 792)" d="M463.801 155.743L463.801 169.31" stroke="#000000" stroke-width="0.398" fill="none" /><path id="1668" transform="matrix(1 0 0 -1 0 792)" d="M493.118 155.743L493.118 169.31" stroke="#000000" stroke-width="0.398" fill="none" /><path id="1669" transform="matrix(1 0 0 -1 0 792)" d="M153.204 155.543L493.317 155.543" stroke="#000000" stroke-width="0.398" fill="none" /><path id="1670" transform="matrix(1 0 0 -1 0 792)" d="M153.403 141.777L153.403 155.344" stroke="#000000" stroke-width="0.398" fill="none" /><path id="1682" transform="matrix(1 0 0 -1 0 792)" d="M225.931 146.059L228.92 146.059" stroke="#000000" stroke-width="0.398" fill="none" /><path id="1689" transform="matrix(1 0 0 -1 0 792)" d="M345.756 141.777L345.756 155.344" stroke="#000000" stroke-width="0.398" fill="none" /><path id="1691" transform="matrix(1 0 0 -1 0 792)" d="M404.778 141.777L404.778 155.344" stroke="#000000" stroke-width="0.398" fill="none" /><path id="1693" transform="matrix(1 0 0 -1 0 792)" d="M463.801 141.777L463.801 155.344" stroke="#000000" stroke-width="0.398" fill="none" /><path id="1695" transform="matrix(1 0 0 -1 0 792)" d="M493.118 141.777L493.118 155.344" stroke="#000000" stroke-width="0.398" fill="none" /><path id="1696" transform="matrix(1 0 0 -1 0 792)" d="M153.204 141.578L493.317 141.578" stroke="#000000" stroke-width="0.398" fill="none" /></g></g></svg>