<svg xmlns="http://www.w3.org/2000/svg" xmlns:xlink="http://www.w3.org/1999/xlink" id="body_34" preserveAspectRatio="xMinYMin meet" viewBox="0 0 1632 1056"><defs><clipPath id="1"><path id="" clip-rule="evenodd" transform="matrix(1 0 0 1 0 0)" d="M0 792L0 0L0 0L1224 0L1224 0L1224 792L1224 792L0 792z" /></clipPath></defs><g transform="matrix(1.333333 0 0 1.333333 0 0)"><g clip-path="url(#1)"><path id="1" transform="matrix(1 0 0 -1 0 792)" d="M666.067 721.28L1132.722 721.28" stroke="#000000" stroke-width="0.498" fill="none" /><path id="80" transform="matrix(1 0 0 -1 0 792)" d="M1125.817 359.537L1129.09 359.537" stroke="#000000" stroke-width="0.398" fill="none" /><path id="81" transform="matrix(1 0 0 -1 0 792)" d="M690.351 345.987L693.624 345.987" stroke="#000000" stroke-width="0.398" fill="none" /><path id="82" transform="matrix(1 0 0 -1 0 792)" d="M1078.632 237.594L1081.905 237.594" stroke="#000000" stroke-width="0.398" fill="none" /><path id="83" transform="matrix(1 0 0 -1 0 792)" d="M695.816 224.045L699.089 224.045" stroke="#000000" stroke-width="0.398" fill="none" /><path id="97" transform="matrix(1 0 0 -1 0 792)" d="M888.4 132.582L891.389 132.582" stroke="#000000" stroke-width="0.398" fill="none" /><path id="98" transform="matrix(1 0 0 -1 0 792)" d="M939.509 132.582L942.498 132.582" stroke="#000000" stroke-width="0.398" fill="none" /><path id="99" transform="matrix(1 0 0 -1 0 792)" d="M1036.483 132.582L1039.472 132.582" stroke="#000000" stroke-width="0.398" fill="none" /><path id="100" transform="matrix(1 0 0 -1 0 792)" d="M1081.913 132.582L1084.902 132.582" stroke="#000000" stroke-width="0.398" fill="none" /><path id="101" transform="matrix(1 0 0 -1 0 792)" d="M706.929 104.318L1091.86 104.318" stroke="#000000" stroke-width="0.398" fill="none" /><path id="102" transform="matrix(1 0 0 -1 0 792)" d="M706.929 104.318L1091.86 104.318" stroke="#000000" stroke-width="0.398" fill="none" /><path id="103" transform="matrix(1 0 0 -1 0 792)" d="M707.129 90.552L707.129 104.119" stroke="#000000" stroke-width="0.398" fill="none" /><path id="104" transform="matrix(1 0 0 -1 0 792)" d="M707.328 90.552L1036.083 90.552L1036.083 104.119L707.328 104.119z" stroke="none" fill="#CCCCEB" fill-rule="nonzero" /><path id="114" transform="matrix(1 0 0 -1 0 792)" d="M1036.282 90.552L1036.282 104.119" stroke="#000000" stroke-width="0.398" fill="none" /><path id="115" transform="matrix(1 0 0 -1 0 792)" d="M1036.481 90.552L1091.461 90.552L1091.461 104.119L1036.481 104.119z" stroke="none" fill="#CCCCEB" fill-rule="nonzero" /><path id="122" transform="matrix(1 0 0 -1 0 792)" d="M1091.661 90.552L1091.661 104.119" stroke="#000000" stroke-width="0.398" fill="none" /><path id="123" transform="matrix(1 0 0 -1 0 792)" d="M706.929 90.352L1091.86 90.352" stroke="#000000" stroke-width="0.398" fill="none" /><path id="124" transform="matrix(1 0 0 -1 0 792)" d="M706.929 90.352L1091.86 90.352" stroke="#000000" stroke-width="0.398" fill="none" /><path id="125" transform="matrix(1 0 0 -1 0 792)" d="M706.929 89.954L1091.86 89.954" stroke="#000000" stroke-width="0.398" fill="none" /><path id="126" transform="matrix(1 0 0 -1 0 792)" d="M706.929 89.954L1091.86 89.954" stroke="#000000" stroke-width="0.398" fill="none" /><path id="127" transform="matrix(1 0 0 -1 0 792)" d="M707.129 76.188L707.129 89.755" stroke="#000000" stroke-width="0.398" fill="none" /><path id="154" transform="matrix(1 0 0 -1 0 792)" d="M846.605 80.469L849.594 80.469" stroke="#000000" stroke-width="0.398" fill="none" /><path id="160" transform="matrix(1 0 0 -1 0 792)" d="M1036.282 76.188L1036.282 89.755" stroke="#000000" stroke-width="0.398" fill="none" /><path id="162" transform="matrix(1 0 0 -1 0 792)" d="M1091.661 76.188L1091.661 89.755" stroke="#000000" stroke-width="0.398" fill="none" /><path id="163" transform="matrix(1 0 0 -1 0 792)" d="M706.929 75.989L1091.86 75.989" stroke="#000000" stroke-width="0.398" fill="none" /><path id="164" transform="matrix(1 0 0 -1 0 792)" d="M666.067 722.529L1132.724 722.529L1132.724 722.529L1132.724 735.6745L1132.724 735.6745L666.067 735.6745z" stroke="#FFFFFF" stroke-width="1" fill="#FFFFFF" fill-rule="nonzero" /><path id="180" transform="matrix(1 0 0 -1 0 792)" d="M666.067 616.456L1132.725 616.456L1132.725 616.456L1132.725 670.9041L1132.725 670.9041L666.067 670.9041z" stroke="#FFFFFF" stroke-width="1" fill="#FFFFFF" fill-rule="nonzero" /><path id="320" transform="matrix(1 0 0 -1 0 792)" d="M666.067 512.099L1132.726 512.099L1132.726 512.099L1132.726 579.4415L1132.726 579.4415L666.067 579.4415z" stroke="#FFFFFF" stroke-width="1" fill="#FFFFFF" fill-rule="nonzero" /><path id="464" transform="matrix(1 0 0 -1 0 792)" d="M683.004 498.549L1132.72 498.549L1132.72 498.549L1132.72 511.6945L1132.72 511.6945L683.004 511.6945z" stroke="#FFFFFF" stroke-width="1" fill="#FFFFFF" fill-rule="nonzero" /><path id="502" transform="matrix(1 0 0 -1 0 792)" d="M666.067 457.901L1132.726 457.901L1132.726 457.901L1132.726 498.1455L1132.726 498.1455L666.067 498.1455z" stroke="#FFFFFF" stroke-width="1" fill="#FFFFFF" fill-rule="nonzero" /><path id="596" transform="matrix(1 0 0 -1 0 792)" d="M666.067 407.086L993.296 407.086L993.296 407.086L993.296 420.2315L993.296 420.2315L666.067 420.2315z" stroke="#FFFFFF" stroke-width="1" fill="#FFFFFF" fill-rule="nonzero" /><path id="623" transform="matrix(1 0 0 -1 0 792)" d="M666.067 329.174L1132.726 329.174L1132.726 329.174L1132.726 369.4175L1132.726 369.4175L666.067 369.4175z" stroke="#FFFFFF" stroke-width="1" fill="#FFFFFF" fill-rule="nonzero" /><path id="751" transform="matrix(1 0 0 -1 0 792)" d="M683.004 315.293L1132.727 315.293L1132.727 315.293L1132.727 328.7703L1132.727 328.7703L683.004 328.7703z" stroke="#FFFFFF" stroke-width="1" fill="#FFFFFF" fill-rule="nonzero" /><path id="802" transform="matrix(1 0 0 -1 0 792)" d="M666.067 274.977L1132.725 274.977L1132.725 274.977L1132.725 315.2214L1132.725 315.2214L666.067 315.2214z" stroke="#FFFFFF" stroke-width="1" fill="#FFFFFF" fill-rule="nonzero" /><path id="912" transform="matrix(1 0 0 -1 0 792)" d="M683.004 261.096L1132.723 261.096L1132.723 261.096L1132.723 274.5732L1132.723 274.5732L683.004 274.5732z" stroke="#FFFFFF" stroke-width="1" fill="#FFFFFF" fill-rule="nonzero" /><path id="959" transform="matrix(1 0 0 -1 0 792)" d="M666.067 193.682L1132.725 193.682L1132.725 193.682L1132.725 261.0244L1132.725 261.0244L666.067 261.0244z" stroke="#FFFFFF" stroke-width="1" fill="#FFFFFF" fill-rule="nonzero" /><path id="1133" transform="matrix(1 0 0 -1 0 792)" d="M666.067 115.769L1132.723 115.769L1132.723 115.769L1132.723 156.0125L1132.723 156.0125L666.067 156.0125z" stroke="#FFFFFF" stroke-width="1" fill="#FFFFFF" fill-rule="nonzero" /><path id="1313" transform="matrix(1 0 0 -1 0 792)" d="M54.067 721.28L520.722 721.28" stroke="#000000" stroke-width="0.498" fill="none" /><path id="2582" transform="matrix(1 0 0 -1 0 792)" d="M513.817 359.537L517.09 359.537" stroke="#000000" stroke-width="0.398" fill="none" /><path id="2587" transform="matrix(1 0 0 -1 0 792)" d="M78.351 345.987L81.624 345.987" stroke="#000000" stroke-width="0.398" fill="none" /><path id="3264" transform="matrix(1 0 0 -1 0 792)" d="M466.632 237.594L469.905 237.594" stroke="#000000" stroke-width="0.398" fill="none" /><path id="3276" transform="matrix(1 0 0 -1 0 792)" d="M83.816 224.045L87.089 224.045" stroke="#000000" stroke-width="0.398" fill="none" /><path id="3644" transform="matrix(1 0 0 -1 0 792)" d="M276.4 132.582L279.389 132.582" stroke="#000000" stroke-width="0.398" fill="none" /><path id="3653" transform="matrix(1 0 0 -1 0 792)" d="M327.509 132.582L330.498 132.582" stroke="#000000" stroke-width="0.398" fill="none" /><path id="3669" transform="matrix(1 0 0 -1 0 792)" d="M424.483 132.582L427.472 132.582" stroke="#000000" stroke-width="0.398" fill="none" /><path id="3677" transform="matrix(1 0 0 -1 0 792)" d="M469.913 132.582L472.902 132.582" stroke="#000000" stroke-width="0.398" fill="none" /><path id="3706" transform="matrix(1 0 0 -1 0 792)" d="M94.929 104.318L479.86 104.318" stroke="#000000" stroke-width="0.398" fill="none" /><path id="3707" transform="matrix(1 0 0 -1 0 792)" d="M94.929 104.318L479.86 104.318" stroke="#000000" stroke-width="0.398" fill="none" /><path id="3708" transform="matrix(1 0 0 -1 0 792)" d="M95.129 90.552L95.129 104.119" stroke="#000000" stroke-width="0.398" fill="none" /><path id="3709" transform="matrix(1 0 0 -1 0 792)" d="M95.328 90.552L424.083 90.552L424.083 104.119L95.328 104.119z" stroke="none" fill="#CCCCEB" fill-rule="nonzero" /><path id="3719" transform="matrix(1 0 0 -1 0 792)" d="M424.282 90.552L424.282 104.119" stroke="#000000" stroke-width="0.398" fill="none" /><path id="3720" transform="matrix(1 0 0 -1 0 792)" d="M424.481 90.552L479.461 90.552L479.461 104.119L424.481 104.119z" stroke="none" fill="#CCCCEB" fill-rule="nonzero" /><path id="3727" transform="matrix(1 0 0 -1 0 792)" d="M479.661 90.552L479.661 104.119" stroke="#000000" stroke-width="0.398" fill="none" /><path id="3728" transform="matrix(1 0 0 -1 0 792)" d="M94.929 90.352L479.86 90.352" stroke="#000000" stroke-width="0.398" fill="none" /><path id="3729" transform="matrix(1 0 0 -1 0 792)" d="M94.929 90.352L479.86 90.352" stroke="#000000" stroke-width="0.398" fill="none" /><path id="3730" transform="matrix(1 0 0 -1 0 792)" d="M94.929 89.954L479.86 89.954" stroke="#000000" stroke-width="0.398" fill="none" /><path id="3731" transform="matrix(1 0 0 -1 0 792)" d="M94.929 89.954L479.86 89.954" stroke="#000000" stroke-width="0.398" fill="none" /><path id="3732" transform="matrix(1 0 0 -1 0 792)" d="M95.129 76.188L95.129 89.755" stroke="#000000" stroke-width="0.398" fill="none" /><path id="3759" transform="matrix(1 0 0 -1 0 792)" d="M234.605 80.469L237.594 80.469" stroke="#000000" stroke-width="0.398" fill="none" /><path id="3765" transform="matrix(1 0 0 -1 0 792)" d="M424.282 76.188L424.282 89.755" stroke="#000000" stroke-width="0.398" fill="none" /><path id="3767" transform="matrix(1 0 0 -1 0 792)" d="M479.661 76.188L479.661 89.755" stroke="#000000" stroke-width="0.398" fill="none" /><path id="3768" transform="matrix(1 0 0 -1 0 792)" d="M94.929 75.989L479.86 75.989" stroke="#000000" stroke-width="0.398" fill="none" /></g></g></svg>