<svg xmlns="http://www.w3.org/2000/svg" xmlns:xlink="http://www.w3.org/1999/xlink" id="body_55" preserveAspectRatio="xMinYMin meet" viewBox="0 0 1632 1056"><defs><clipPath id="1"><path id="" clip-rule="evenodd" transform="matrix(1 0 0 1 0 0)" d="M0 792L0 0L0 0L1224 0L1224 0L1224 792L1224 792L0 792z" /></clipPath></defs><g transform="matrix(1.333333 0 0 1.333333 0 0)"><g clip-path="url(#1)"><path id="1" transform="matrix(1 0 0 -1 0 792)" d="M701.933 721.28L1168.588 721.28" stroke="#000000" stroke-width="0.498" fill="none" /><path id="2" transform="matrix(1 0 0 -1 0 792)" d="M765.204 519.151L1105.317 519.151" stroke="#000000" stroke-width="0.398" fill="none" /><path id="3" transform="matrix(1 0 0 -1 0 792)" d="M765.403 505.385L765.403 518.952" stroke="#000000" stroke-width="0.398" fill="none" /><path id="4" transform="matrix(1 0 0 -1 0 792)" d="M765.602 505.385L957.557 505.385L957.557 518.952L765.602 518.952z" stroke="none" fill="#CCCCEB" fill-rule="nonzero" /><path id="10" transform="matrix(1 0 0 -1 0 792)" d="M957.756 505.385L957.756 518.952" stroke="#000000" stroke-width="0.398" fill="none" /><path id="11" transform="matrix(1 0 0 -1 0 792)" d="M957.956 505.385L1016.58 505.385L1016.58 518.952L957.956 518.952z" stroke="none" fill="#CCCCEB" fill-rule="nonzero" /><path id="21" transform="matrix(1 0 0 -1 0 792)" d="M1016.778 505.385L1016.778 518.952" stroke="#000000" stroke-width="0.398" fill="none" /><path id="22" transform="matrix(1 0 0 -1 0 792)" d="M1016.978 505.385L1075.602 505.385L1075.602 518.952L1016.978 518.952z" stroke="none" fill="#CCCCEB" fill-rule="nonzero" /><path id="30" transform="matrix(1 0 0 -1 0 792)" d="M1075.801 505.385L1075.801 518.952" stroke="#000000" stroke-width="0.398" fill="none" /><path id="31" transform="matrix(1 0 0 -1 0 792)" d="M1076 505.385L1104.919 505.385L1104.919 518.952L1076 518.952z" stroke="none" fill="#CCCCEB" fill-rule="nonzero" /><path id="35" transform="matrix(1 0 0 -1 0 792)" d="M1105.118 505.385L1105.118 518.952" stroke="#000000" stroke-width="0.398" fill="none" /><path id="36" transform="matrix(1 0 0 -1 0 792)" d="M765.403 491.818L765.403 505.385" stroke="#000000" stroke-width="0.398" fill="none" /><path id="37" transform="matrix(1 0 0 -1 0 792)" d="M765.602 491.818L957.557 491.818L957.557 505.385L765.602 505.385z" stroke="none" fill="#CCCCEB" fill-rule="nonzero" /><path id="38" transform="matrix(1 0 0 -1 0 792)" d="M957.756 491.818L957.756 505.385" stroke="#000000" stroke-width="0.398" fill="none" /><path id="39" transform="matrix(1 0 0 -1 0 792)" d="M957.956 491.818L1016.58 491.818L1016.58 505.385L957.956 505.385z" stroke="none" fill="#CCCCEB" fill-rule="nonzero" /><path id="40" transform="matrix(1 0 0 -1 0 792)" d="M1016.778 491.818L1016.778 505.385" stroke="#000000" stroke-width="0.398" fill="none" /><path id="41" transform="matrix(1 0 0 -1 0 792)" d="M1016.978 491.818L1075.602 491.818L1075.602 505.385L1016.978 505.385z" stroke="none" fill="#CCCCEB" fill-rule="nonzero" /><path id="47" transform="matrix(1 0 0 -1 0 792)" d="M1075.801 491.818L1075.801 505.385" stroke="#000000" stroke-width="0.398" fill="none" /><path id="48" transform="matrix(1 0 0 -1 0 792)" d="M1076 491.818L1104.919 491.818L1104.919 505.385L1076 505.385z" stroke="none" fill="#CCCCEB" fill-rule="nonzero" /><path id="49" transform="matrix(1 0 0 -1 0 792)" d="M1105.118 491.818L1105.118 505.385" stroke="#000000" stroke-width="0.398" fill="none" /><path id="50" transform="matrix(1 0 0 -1 0 792)" d="M765.204 491.619L1105.317 491.619" stroke="#000000" stroke-width="0.398" fill="none" /><path id="51" transform="matrix(1 0 0 -1 0 792)" d="M765.204 489.228L1105.317 489.228" stroke="#000000" stroke-width="0.398" fill="none" /><path id="52" transform="matrix(1 0 0 -1 0 792)" d="M765.403 475.462L765.403 489.029" stroke="#000000" stroke-width="0.398" fill="none" /><path id="60" transform="matrix(1 0 0 -1 0 792)" d="M814.02 479.743L817.009 479.743" stroke="#000000" stroke-width="0.398" fill="none" /><path id="66" transform="matrix(1 0 0 -1 0 792)" d="M957.756 475.462L957.756 489.029" stroke="#000000" stroke-width="0.398" fill="none" /><path id="68" transform="matrix(1 0 0 -1 0 792)" d="M1016.778 475.462L1016.778 489.029" stroke="#000000" stroke-width="0.398" fill="none" /><path id="70" transform="matrix(1 0 0 -1 0 792)" d="M1075.801 475.462L1075.801 489.029" stroke="#000000" stroke-width="0.398" fill="none" /><path id="72" transform="matrix(1 0 0 -1 0 792)" d="M1105.118 475.462L1105.118 489.029" stroke="#000000" stroke-width="0.398" fill="none" /><path id="73" transform="matrix(1 0 0 -1 0 792)" d="M765.204 475.263L1105.317 475.263" stroke="#000000" stroke-width="0.398" fill="none" /><path id="74" transform="matrix(1 0 0 -1 0 792)" d="M765.403 461.497L765.403 475.064" stroke="#000000" stroke-width="0.398" fill="none" /><path id="82" transform="matrix(1 0 0 -1 0 792)" d="M814.02 465.778L817.009 465.778" stroke="#000000" stroke-width="0.398" fill="none" /><path id="88" transform="matrix(1 0 0 -1 0 792)" d="M957.756 461.497L957.756 475.064" stroke="#000000" stroke-width="0.398" fill="none" /><path id="90" transform="matrix(1 0 0 -1 0 792)" d="M1016.778 461.497L1016.778 475.064" stroke="#000000" stroke-width="0.398" fill="none" /><path id="92" transform="matrix(1 0 0 -1 0 792)" d="M1075.801 461.497L1075.801 475.064" stroke="#000000" stroke-width="0.398" fill="none" /><path id="94" transform="matrix(1 0 0 -1 0 792)" d="M1105.118 461.497L1105.118 475.064" stroke="#000000" stroke-width="0.398" fill="none" /><path id="95" transform="matrix(1 0 0 -1 0 792)" d="M765.204 461.298L1105.317 461.298" stroke="#000000" stroke-width="0.398" fill="none" /><path id="96" transform="matrix(1 0 0 -1 0 792)" d="M765.403 447.532L765.403 461.099" stroke="#000000" stroke-width="0.398" fill="none" /><path id="104" transform="matrix(1 0 0 -1 0 792)" d="M814.02 451.813L817.009 451.813" stroke="#000000" stroke-width="0.398" fill="none" /><path id="112" transform="matrix(1 0 0 -1 0 792)" d="M859.45 451.813L862.439 451.813" stroke="#000000" stroke-width="0.398" fill="none" /><path id="119" transform="matrix(1 0 0 -1 0 792)" d="M957.756 447.532L957.756 461.099" stroke="#000000" stroke-width="0.398" fill="none" /><path id="121" transform="matrix(1 0 0 -1 0 792)" d="M1016.778 447.532L1016.778 461.099" stroke="#000000" stroke-width="0.398" fill="none" /><path id="123" transform="matrix(1 0 0 -1 0 792)" d="M1075.801 447.532L1075.801 461.099" stroke="#000000" stroke-width="0.398" fill="none" /><path id="125" transform="matrix(1 0 0 -1 0 792)" d="M1105.118 447.532L1105.118 461.099" stroke="#000000" stroke-width="0.398" fill="none" /><path id="126" transform="matrix(1 0 0 -1 0 792)" d="M765.204 447.332L1105.317 447.332" stroke="#000000" stroke-width="0.398" fill="none" /><path id="127" transform="matrix(1 0 0 -1 0 792)" d="M765.403 433.567L765.403 447.134" stroke="#000000" stroke-width="0.398" fill="none" /><path id="135" transform="matrix(1 0 0 -1 0 792)" d="M814.02 437.848L817.009 437.848" stroke="#000000" stroke-width="0.398" fill="none" /><path id="142" transform="matrix(1 0 0 -1 0 792)" d="M957.756 433.567L957.756 447.134" stroke="#000000" stroke-width="0.398" fill="none" /><path id="144" transform="matrix(1 0 0 -1 0 792)" d="M1016.778 433.567L1016.778 447.134" stroke="#000000" stroke-width="0.398" fill="none" /><path id="146" transform="matrix(1 0 0 -1 0 792)" d="M1075.801 433.567L1075.801 447.134" stroke="#000000" stroke-width="0.398" fill="none" /><path id="148" transform="matrix(1 0 0 -1 0 792)" d="M1105.118 433.567L1105.118 447.134" stroke="#000000" stroke-width="0.398" fill="none" /><path id="149" transform="matrix(1 0 0 -1 0 792)" d="M765.204 433.367L1105.317 433.367" stroke="#000000" stroke-width="0.398" fill="none" /><path id="150" transform="matrix(1 0 0 -1 0 792)" d="M765.403 419.601L765.403 433.168" stroke="#000000" stroke-width="0.398" fill="none" /><path id="180" transform="matrix(1 0 0 -1 0 792)" d="M957.756 419.601L957.756 433.168" stroke="#000000" stroke-width="0.398" fill="none" /><path id="182" transform="matrix(1 0 0 -1 0 792)" d="M1016.778 419.601L1016.778 433.168" stroke="#000000" stroke-width="0.398" fill="none" /><path id="184" transform="matrix(1 0 0 -1 0 792)" d="M1075.801 419.601L1075.801 433.168" stroke="#000000" stroke-width="0.398" fill="none" /><path id="186" transform="matrix(1 0 0 -1 0 792)" d="M1105.118 419.601L1105.118 433.168" stroke="#000000" stroke-width="0.398" fill="none" /><path id="187" transform="matrix(1 0 0 -1 0 792)" d="M765.204 419.402L1105.317 419.402" stroke="#000000" stroke-width="0.398" fill="none" /><path id="188" transform="matrix(1 0 0 -1 0 792)" d="M765.403 405.636L765.403 419.203" stroke="#000000" stroke-width="0.398" fill="none" /><path id="223" transform="matrix(1 0 0 -1 0 792)" d="M957.756 405.636L957.756 419.203" stroke="#000000" stroke-width="0.398" fill="none" /><path id="225" transform="matrix(1 0 0 -1 0 792)" d="M1016.778 405.636L1016.778 419.203" stroke="#000000" stroke-width="0.398" fill="none" /><path id="227" transform="matrix(1 0 0 -1 0 792)" d="M1075.801 405.636L1075.801 419.203" stroke="#000000" stroke-width="0.398" fill="none" /><path id="229" transform="matrix(1 0 0 -1 0 792)" d="M1105.118 405.636L1105.118 419.203" stroke="#000000" stroke-width="0.398" fill="none" /><path id="230" transform="matrix(1 0 0 -1 0 792)" d="M765.204 405.437L1105.317 405.437" stroke="#000000" stroke-width="0.398" fill="none" /><path id="231" transform="matrix(1 0 0 -1 0 792)" d="M765.403 378.139L765.403 405.237" stroke="#000000" stroke-width="0.398" fill="none" /><path id="232" transform="matrix(1 0 0 -1 0 792)" d="M957.756 378.139L957.756 405.237" stroke="#000000" stroke-width="0.398" fill="none" /><path id="233" transform="matrix(1 0 0 -1 0 792)" d="M1016.778 378.139L1016.778 405.237" stroke="#000000" stroke-width="0.398" fill="none" /><path id="234" transform="matrix(1 0 0 -1 0 792)" d="M1075.801 378.139L1075.801 405.237" stroke="#000000" stroke-width="0.398" fill="none" /><path id="235" transform="matrix(1 0 0 -1 0 792)" d="M1105.118 378.139L1105.118 405.237" stroke="#000000" stroke-width="0.398" fill="none" /><path id="236" transform="matrix(1 0 0 -1 0 792)" d="M765.204 377.94L1105.317 377.94" stroke="#000000" stroke-width="0.398" fill="none" /><path id="237" transform="matrix(1 0 0 -1 0 792)" d="M765.403 364.174L765.403 377.741" stroke="#000000" stroke-width="0.398" fill="none" /><path id="245" transform="matrix(1 0 0 -1 0 792)" d="M814.02 368.456L817.009 368.456" stroke="#000000" stroke-width="0.398" fill="none" /><path id="252" transform="matrix(1 0 0 -1 0 792)" d="M853.472 368.456L856.461 368.456" stroke="#000000" stroke-width="0.398" fill="none" /><path id="261" transform="matrix(1 0 0 -1 0 792)" d="M957.756 364.174L957.756 377.741" stroke="#000000" stroke-width="0.398" fill="none" /><path id="263" transform="matrix(1 0 0 -1 0 792)" d="M1016.778 364.174L1016.778 377.741" stroke="#000000" stroke-width="0.398" fill="none" /><path id="265" transform="matrix(1 0 0 -1 0 792)" d="M1075.801 364.174L1075.801 377.741" stroke="#000000" stroke-width="0.398" fill="none" /><path id="267" transform="matrix(1 0 0 -1 0 792)" d="M1105.118 364.174L1105.118 377.741" stroke="#000000" stroke-width="0.398" fill="none" /><path id="268" transform="matrix(1 0 0 -1 0 792)" d="M765.204 363.975L1105.317 363.975" stroke="#000000" stroke-width="0.398" fill="none" /><path id="269" transform="matrix(1 0 0 -1 0 792)" d="M765.403 350.209L765.403 363.776" stroke="#000000" stroke-width="0.398" fill="none" /><path id="277" transform="matrix(1 0 0 -1 0 792)" d="M814.02 354.491L817.009 354.491" stroke="#000000" stroke-width="0.398" fill="none" /><path id="284" transform="matrix(1 0 0 -1 0 792)" d="M853.472 354.491L856.461 354.491" stroke="#000000" stroke-width="0.398" fill="none" /><path id="293" transform="matrix(1 0 0 -1 0 792)" d="M957.756 350.209L957.756 363.776" stroke="#000000" stroke-width="0.398" fill="none" /><path id="295" transform="matrix(1 0 0 -1 0 792)" d="M1016.778 350.209L1016.778 363.776" stroke="#000000" stroke-width="0.398" fill="none" /><path id="297" transform="matrix(1 0 0 -1 0 792)" d="M1075.801 350.209L1075.801 363.776" stroke="#000000" stroke-width="0.398" fill="none" /><path id="299" transform="matrix(1 0 0 -1 0 792)" d="M1105.118 350.209L1105.118 363.776" stroke="#000000" stroke-width="0.398" fill="none" /><path id="300" transform="matrix(1 0 0 -1 0 792)" d="M765.204 350.01L1105.317 350.01" stroke="#000000" stroke-width="0.398" fill="none" /><path id="301" transform="matrix(1 0 0 -1 0 792)" d="M765.403 336.244L765.403 349.811" stroke="#000000" stroke-width="0.398" fill="none" /><path id="309" transform="matrix(1 0 0 -1 0 792)" d="M814.02 340.525L817.009 340.525" stroke="#000000" stroke-width="0.398" fill="none" /><path id="316" transform="matrix(1 0 0 -1 0 792)" d="M853.472 340.525L856.461 340.525" stroke="#000000" stroke-width="0.398" fill="none" /><path id="322" transform="matrix(1 0 0 -1 0 792)" d="M957.756 336.244L957.756 349.811" stroke="#000000" stroke-width="0.398" fill="none" /><path id="324" transform="matrix(1 0 0 -1 0 792)" d="M1016.778 336.244L1016.778 349.811" stroke="#000000" stroke-width="0.398" fill="none" /><path id="326" transform="matrix(1 0 0 -1 0 792)" d="M1075.801 336.244L1075.801 349.811" stroke="#000000" stroke-width="0.398" fill="none" /><path id="328" transform="matrix(1 0 0 -1 0 792)" d="M1105.118 336.244L1105.118 349.811" stroke="#000000" stroke-width="0.398" fill="none" /><path id="329" transform="matrix(1 0 0 -1 0 792)" d="M765.204 336.045L1105.317 336.045" stroke="#000000" stroke-width="0.398" fill="none" /><path id="330" transform="matrix(1 0 0 -1 0 792)" d="M765.403 322.279L765.403 335.846" stroke="#000000" stroke-width="0.398" fill="none" /><path id="338" transform="matrix(1 0 0 -1 0 792)" d="M814.02 326.56L817.009 326.56" stroke="#000000" stroke-width="0.398" fill="none" /><path id="345" transform="matrix(1 0 0 -1 0 792)" d="M853.472 326.56L856.461 326.56" stroke="#000000" stroke-width="0.398" fill="none" /><path id="351" transform="matrix(1 0 0 -1 0 792)" d="M957.756 322.279L957.756 335.846" stroke="#000000" stroke-width="0.398" fill="none" /><path id="353" transform="matrix(1 0 0 -1 0 792)" d="M1016.778 322.279L1016.778 335.846" stroke="#000000" stroke-width="0.398" fill="none" /><path id="355" transform="matrix(1 0 0 -1 0 792)" d="M1075.801 322.279L1075.801 335.846" stroke="#000000" stroke-width="0.398" fill="none" /><path id="357" transform="matrix(1 0 0 -1 0 792)" d="M1105.118 322.279L1105.118 335.846" stroke="#000000" stroke-width="0.398" fill="none" /><path id="358" transform="matrix(1 0 0 -1 0 792)" d="M765.204 322.08L1105.317 322.08" stroke="#000000" stroke-width="0.398" fill="none" /><path id="359" transform="matrix(1 0 0 -1 0 792)" d="M765.403 308.314L765.403 321.881" stroke="#000000" stroke-width="0.398" fill="none" /><path id="367" transform="matrix(1 0 0 -1 0 792)" d="M814.02 312.595L817.009 312.595" stroke="#000000" stroke-width="0.398" fill="none" /><path id="374" transform="matrix(1 0 0 -1 0 792)" d="M853.472 312.595L856.461 312.595" stroke="#000000" stroke-width="0.398" fill="none" /><path id="382" transform="matrix(1 0 0 -1 0 792)" d="M898.902 312.595L901.891 312.595" stroke="#000000" stroke-width="0.398" fill="none" /><path id="389" transform="matrix(1 0 0 -1 0 792)" d="M957.756 308.314L957.756 321.881" stroke="#000000" stroke-width="0.398" fill="none" /><path id="391" transform="matrix(1 0 0 -1 0 792)" d="M1016.778 308.314L1016.778 321.881" stroke="#000000" stroke-width="0.398" fill="none" /><path id="393" transform="matrix(1 0 0 -1 0 792)" d="M1075.801 308.314L1075.801 321.881" stroke="#000000" stroke-width="0.398" fill="none" /><path id="395" transform="matrix(1 0 0 -1 0 792)" d="M1105.118 308.314L1105.118 321.881" stroke="#000000" stroke-width="0.398" fill="none" /><path id="396" transform="matrix(1 0 0 -1 0 792)" d="M765.204 308.114L1105.317 308.114" stroke="#000000" stroke-width="0.398" fill="none" /><path id="397" transform="matrix(1 0 0 -1 0 792)" d="M765.403 294.348L765.403 307.915" stroke="#000000" stroke-width="0.398" fill="none" /><path id="405" transform="matrix(1 0 0 -1 0 792)" d="M814.02 298.63L817.009 298.63" stroke="#000000" stroke-width="0.398" fill="none" /><path id="412" transform="matrix(1 0 0 -1 0 792)" d="M853.472 298.63L856.461 298.63" stroke="#000000" stroke-width="0.398" fill="none" /><path id="421" transform="matrix(1 0 0 -1 0 792)" d="M904.88 298.63L907.869 298.63" stroke="#000000" stroke-width="0.398" fill="none" /><path id="427" transform="matrix(1 0 0 -1 0 792)" d="M957.756 294.348L957.756 307.915" stroke="#000000" stroke-width="0.398" fill="none" /><path id="429" transform="matrix(1 0 0 -1 0 792)" d="M1016.778 294.348L1016.778 307.915" stroke="#000000" stroke-width="0.398" fill="none" /><path id="431" transform="matrix(1 0 0 -1 0 792)" d="M1075.801 294.348L1075.801 307.915" stroke="#000000" stroke-width="0.398" fill="none" /><path id="433" transform="matrix(1 0 0 -1 0 792)" d="M1105.118 294.348L1105.118 307.915" stroke="#000000" stroke-width="0.398" fill="none" /><path id="434" transform="matrix(1 0 0 -1 0 792)" d="M765.204 294.149L1105.317 294.149" stroke="#000000" stroke-width="0.398" fill="none" /><path id="435" transform="matrix(1 0 0 -1 0 792)" d="M765.403 280.383L765.403 293.95" stroke="#000000" stroke-width="0.398" fill="none" /><path id="440" transform="matrix(1 0 0 -1 0 792)" d="M796.088 284.665L799.077 284.665" stroke="#000000" stroke-width="0.398" fill="none" /><path id="445" transform="matrix(1 0 0 -1 0 792)" d="M957.756 280.383L957.756 293.95" stroke="#000000" stroke-width="0.398" fill="none" /><path id="447" transform="matrix(1 0 0 -1 0 792)" d="M1016.778 280.383L1016.778 293.95" stroke="#000000" stroke-width="0.398" fill="none" /><path id="449" transform="matrix(1 0 0 -1 0 792)" d="M1075.801 280.383L1075.801 293.95" stroke="#000000" stroke-width="0.398" fill="none" /><path id="451" transform="matrix(1 0 0 -1 0 792)" d="M1105.118 280.383L1105.118 293.95" stroke="#000000" stroke-width="0.398" fill="none" /><path id="452" transform="matrix(1 0 0 -1 0 792)" d="M765.204 280.184L1105.317 280.184" stroke="#000000" stroke-width="0.398" fill="none" /><path id="453" transform="matrix(1 0 0 -1 0 792)" d="M701.933 722.529L1168.588 722.529L1168.588 722.529L1168.588 735.6745L1168.588 735.6745L701.933 735.6745z" stroke="#FFFFFF" stroke-width="1" fill="#FFFFFF" fill-rule="nonzero" /><path id="462" transform="matrix(1 0 0 -1 0 792)" d="M771.58 379.514L1093.187 379.514L1093.187 379.514L1093.187 404.9584L1093.187 404.9584L771.58 404.9584z" stroke="#FFFFFF" stroke-width="1" fill="#FFFFFF" fill-rule="nonzero" /><path id="476" transform="matrix(1 0 0 -1 0 792)" d="M833.12 257.473L1037.404 257.473L1037.404 257.473L1037.404 270.6185L1037.404 270.6185L833.12 270.6185z" stroke="#FFFFFF" stroke-width="1" fill="#FFFFFF" fill-rule="nonzero" /><path id="532" transform="matrix(1 0 0 -1 0 792)" d="M89.933 721.28L556.588 721.28" stroke="#000000" stroke-width="0.498" fill="none" /><path id="533" transform="matrix(1 0 0 -1 0 792)" d="M153.204 519.151L493.317 519.151" stroke="#000000" stroke-width="0.398" fill="none" /><path id="534" transform="matrix(1 0 0 -1 0 792)" d="M153.403 505.385L153.403 518.952" stroke="#000000" stroke-width="0.398" fill="none" /><path id="535" transform="matrix(1 0 0 -1 0 792)" d="M153.602 505.385L345.557 505.385L345.557 518.952L153.602 518.952z" stroke="none" fill="#CCCCEB" fill-rule="nonzero" /><path id="541" transform="matrix(1 0 0 -1 0 792)" d="M345.756 505.385L345.756 518.952" stroke="#000000" stroke-width="0.398" fill="none" /><path id="542" transform="matrix(1 0 0 -1 0 792)" d="M345.956 505.385L404.58 505.385L404.58 518.952L345.956 518.952z" stroke="none" fill="#CCCCEB" fill-rule="nonzero" /><path id="552" transform="matrix(1 0 0 -1 0 792)" d="M404.778 505.385L404.778 518.952" stroke="#000000" stroke-width="0.398" fill="none" /><path id="553" transform="matrix(1 0 0 -1 0 792)" d="M404.978 505.385L463.602 505.385L463.602 518.952L404.978 518.952z" stroke="none" fill="#CCCCEB" fill-rule="nonzero" /><path id="561" transform="matrix(1 0 0 -1 0 792)" d="M463.801 505.385L463.801 518.952" stroke="#000000" stroke-width="0.398" fill="none" /><path id="562" transform="matrix(1 0 0 -1 0 792)" d="M464 505.385L492.919 505.385L492.919 518.952L464 518.952z" stroke="none" fill="#CCCCEB" fill-rule="nonzero" /><path id="566" transform="matrix(1 0 0 -1 0 792)" d="M493.118 505.385L493.118 518.952" stroke="#000000" stroke-width="0.398" fill="none" /><path id="567" transform="matrix(1 0 0 -1 0 792)" d="M153.403 491.818L153.403 505.385" stroke="#000000" stroke-width="0.398" fill="none" /><path id="568" transform="matrix(1 0 0 -1 0 792)" d="M153.602 491.818L345.557 491.818L345.557 505.385L153.602 505.385z" stroke="none" fill="#CCCCEB" fill-rule="nonzero" /><path id="569" transform="matrix(1 0 0 -1 0 792)" d="M345.756 491.818L345.756 505.385" stroke="#000000" stroke-width="0.398" fill="none" /><path id="570" transform="matrix(1 0 0 -1 0 792)" d="M345.956 491.818L404.58 491.818L404.58 505.385L345.956 505.385z" stroke="none" fill="#CCCCEB" fill-rule="nonzero" /><path id="571" transform="matrix(1 0 0 -1 0 792)" d="M404.778 491.818L404.778 505.385" stroke="#000000" stroke-width="0.398" fill="none" /><path id="572" transform="matrix(1 0 0 -1 0 792)" d="M404.978 491.818L463.602 491.818L463.602 505.385L404.978 505.385z" stroke="none" fill="#CCCCEB" fill-rule="nonzero" /><path id="578" transform="matrix(1 0 0 -1 0 792)" d="M463.801 491.818L463.801 505.385" stroke="#000000" stroke-width="0.398" fill="none" /><path id="579" transform="matrix(1 0 0 -1 0 792)" d="M464 491.818L492.919 491.818L492.919 505.385L464 505.385z" stroke="none" fill="#CCCCEB" fill-rule="nonzero" /><path id="580" transform="matrix(1 0 0 -1 0 792)" d="M493.118 491.818L493.118 505.385" stroke="#000000" stroke-width="0.398" fill="none" /><path id="581" transform="matrix(1 0 0 -1 0 792)" d="M153.204 491.619L493.317 491.619" stroke="#000000" stroke-width="0.398" fill="none" /><path id="582" transform="matrix(1 0 0 -1 0 792)" d="M153.204 489.228L493.317 489.228" stroke="#000000" stroke-width="0.398" fill="none" /><path id="583" transform="matrix(1 0 0 -1 0 792)" d="M153.403 475.462L153.403 489.029" stroke="#000000" stroke-width="0.398" fill="none" /><path id="591" transform="matrix(1 0 0 -1 0 792)" d="M202.02 479.743L205.009 479.743" stroke="#000000" stroke-width="0.398" fill="none" /><path id="597" transform="matrix(1 0 0 -1 0 792)" d="M345.756 475.462L345.756 489.029" stroke="#000000" stroke-width="0.398" fill="none" /><path id="599" transform="matrix(1 0 0 -1 0 792)" d="M404.778 475.462L404.778 489.029" stroke="#000000" stroke-width="0.398" fill="none" /><path id="601" transform="matrix(1 0 0 -1 0 792)" d="M463.801 475.462L463.801 489.029" stroke="#000000" stroke-width="0.398" fill="none" /><path id="603" transform="matrix(1 0 0 -1 0 792)" d="M493.118 475.462L493.118 489.029" stroke="#000000" stroke-width="0.398" fill="none" /><path id="604" transform="matrix(1 0 0 -1 0 792)" d="M153.204 475.263L493.317 475.263" stroke="#000000" stroke-width="0.398" fill="none" /><path id="605" transform="matrix(1 0 0 -1 0 792)" d="M153.403 461.497L153.403 475.064" stroke="#000000" stroke-width="0.398" fill="none" /><path id="613" transform="matrix(1 0 0 -1 0 792)" d="M202.02 465.778L205.009 465.778" stroke="#000000" stroke-width="0.398" fill="none" /><path id="619" transform="matrix(1 0 0 -1 0 792)" d="M345.756 461.497L345.756 475.064" stroke="#000000" stroke-width="0.398" fill="none" /><path id="621" transform="matrix(1 0 0 -1 0 792)" d="M404.778 461.497L404.778 475.064" stroke="#000000" stroke-width="0.398" fill="none" /><path id="623" transform="matrix(1 0 0 -1 0 792)" d="M463.801 461.497L463.801 475.064" stroke="#000000" stroke-width="0.398" fill="none" /><path id="625" transform="matrix(1 0 0 -1 0 792)" d="M493.118 461.497L493.118 475.064" stroke="#000000" stroke-width="0.398" fill="none" /><path id="626" transform="matrix(1 0 0 -1 0 792)" d="M153.204 461.298L493.317 461.298" stroke="#000000" stroke-width="0.398" fill="none" /><path id="627" transform="matrix(1 0 0 -1 0 792)" d="M153.403 447.532L153.403 461.099" stroke="#000000" stroke-width="0.398" fill="none" /><path id="635" transform="matrix(1 0 0 -1 0 792)" d="M202.02 451.813L205.009 451.813" stroke="#000000" stroke-width="0.398" fill="none" /><path id="643" transform="matrix(1 0 0 -1 0 792)" d="M247.45 451.813L250.439 451.813" stroke="#000000" stroke-width="0.398" fill="none" /><path id="650" transform="matrix(1 0 0 -1 0 792)" d="M345.756 447.532L345.756 461.099" stroke="#000000" stroke-width="0.398" fill="none" /><path id="652" transform="matrix(1 0 0 -1 0 792)" d="M404.778 447.532L404.778 461.099" stroke="#000000" stroke-width="0.398" fill="none" /><path id="654" transform="matrix(1 0 0 -1 0 792)" d="M463.801 447.532L463.801 461.099" stroke="#000000" stroke-width="0.398" fill="none" /><path id="656" transform="matrix(1 0 0 -1 0 792)" d="M493.118 447.532L493.118 461.099" stroke="#000000" stroke-width="0.398" fill="none" /><path id="657" transform="matrix(1 0 0 -1 0 792)" d="M153.204 447.332L493.317 447.332" stroke="#000000" stroke-width="0.398" fill="none" /><path id="658" transform="matrix(1 0 0 -1 0 792)" d="M153.403 433.567L153.403 447.134" stroke="#000000" stroke-width="0.398" fill="none" /><path id="666" transform="matrix(1 0 0 -1 0 792)" d="M202.02 437.848L205.009 437.848" stroke="#000000" stroke-width="0.398" fill="none" /><path id="673" transform="matrix(1 0 0 -1 0 792)" d="M345.756 433.567L345.756 447.134" stroke="#000000" stroke-width="0.398" fill="none" /><path id="675" transform="matrix(1 0 0 -1 0 792)" d="M404.778 433.567L404.778 447.134" stroke="#000000" stroke-width="0.398" fill="none" /><path id="677" transform="matrix(1 0 0 -1 0 792)" d="M463.801 433.567L463.801 447.134" stroke="#000000" stroke-width="0.398" fill="none" /><path id="679" transform="matrix(1 0 0 -1 0 792)" d="M493.118 433.567L493.118 447.134" stroke="#000000" stroke-width="0.398" fill="none" /><path id="680" transform="matrix(1 0 0 -1 0 792)" d="M153.204 433.367L493.317 433.367" stroke="#000000" stroke-width="0.398" fill="none" /><path id="681" transform="matrix(1 0 0 -1 0 792)" d="M153.403 419.601L153.403 433.168" stroke="#000000" stroke-width="0.398" fill="none" /><path id="711" transform="matrix(1 0 0 -1 0 792)" d="M345.756 419.601L345.756 433.168" stroke="#000000" stroke-width="0.398" fill="none" /><path id="713" transform="matrix(1 0 0 -1 0 792)" d="M404.778 419.601L404.778 433.168" stroke="#000000" stroke-width="0.398" fill="none" /><path id="715" transform="matrix(1 0 0 -1 0 792)" d="M463.801 419.601L463.801 433.168" stroke="#000000" stroke-width="0.398" fill="none" /><path id="717" transform="matrix(1 0 0 -1 0 792)" d="M493.118 419.601L493.118 433.168" stroke="#000000" stroke-width="0.398" fill="none" /><path id="718" transform="matrix(1 0 0 -1 0 792)" d="M153.204 419.402L493.317 419.402" stroke="#000000" stroke-width="0.398" fill="none" /><path id="719" transform="matrix(1 0 0 -1 0 792)" d="M153.403 405.636L153.403 419.203" stroke="#000000" stroke-width="0.398" fill="none" /><path id="754" transform="matrix(1 0 0 -1 0 792)" d="M345.756 405.636L345.756 419.203" stroke="#000000" stroke-width="0.398" fill="none" /><path id="756" transform="matrix(1 0 0 -1 0 792)" d="M404.778 405.636L404.778 419.203" stroke="#000000" stroke-width="0.398" fill="none" /><path id="758" transform="matrix(1 0 0 -1 0 792)" d="M463.801 405.636L463.801 419.203" stroke="#000000" stroke-width="0.398" fill="none" /><path id="760" transform="matrix(1 0 0 -1 0 792)" d="M493.118 405.636L493.118 419.203" stroke="#000000" stroke-width="0.398" fill="none" /><path id="761" transform="matrix(1 0 0 -1 0 792)" d="M153.204 405.437L493.317 405.437" stroke="#000000" stroke-width="0.398" fill="none" /><path id="762" transform="matrix(1 0 0 -1 0 792)" d="M153.403 378.139L153.403 405.237" stroke="#000000" stroke-width="0.398" fill="none" /><path id="806" transform="matrix(1 0 0 -1 0 792)" d="M345.756 378.139L345.756 405.237" stroke="#000000" stroke-width="0.398" fill="none" /><path id="808" transform="matrix(1 0 0 -1 0 792)" d="M404.778 378.139L404.778 405.237" stroke="#000000" stroke-width="0.398" fill="none" /><path id="810" transform="matrix(1 0 0 -1 0 792)" d="M463.801 378.139L463.801 405.237" stroke="#000000" stroke-width="0.398" fill="none" /><path id="812" transform="matrix(1 0 0 -1 0 792)" d="M493.118 378.139L493.118 405.237" stroke="#000000" stroke-width="0.398" fill="none" /><path id="813" transform="matrix(1 0 0 -1 0 792)" d="M153.204 377.94L493.317 377.94" stroke="#000000" stroke-width="0.398" fill="none" /><path id="814" transform="matrix(1 0 0 -1 0 792)" d="M153.403 364.174L153.403 377.741" stroke="#000000" stroke-width="0.398" fill="none" /><path id="822" transform="matrix(1 0 0 -1 0 792)" d="M202.02 368.456L205.009 368.456" stroke="#000000" stroke-width="0.398" fill="none" /><path id="829" transform="matrix(1 0 0 -1 0 792)" d="M241.472 368.456L244.461 368.456" stroke="#000000" stroke-width="0.398" fill="none" /><path id="838" transform="matrix(1 0 0 -1 0 792)" d="M345.756 364.174L345.756 377.741" stroke="#000000" stroke-width="0.398" fill="none" /><path id="840" transform="matrix(1 0 0 -1 0 792)" d="M404.778 364.174L404.778 377.741" stroke="#000000" stroke-width="0.398" fill="none" /><path id="842" transform="matrix(1 0 0 -1 0 792)" d="M463.801 364.174L463.801 377.741" stroke="#000000" stroke-width="0.398" fill="none" /><path id="844" transform="matrix(1 0 0 -1 0 792)" d="M493.118 364.174L493.118 377.741" stroke="#000000" stroke-width="0.398" fill="none" /><path id="845" transform="matrix(1 0 0 -1 0 792)" d="M153.204 363.975L493.317 363.975" stroke="#000000" stroke-width="0.398" fill="none" /><path id="846" transform="matrix(1 0 0 -1 0 792)" d="M153.403 350.209L153.403 363.776" stroke="#000000" stroke-width="0.398" fill="none" /><path id="854" transform="matrix(1 0 0 -1 0 792)" d="M202.02 354.491L205.009 354.491" stroke="#000000" stroke-width="0.398" fill="none" /><path id="861" transform="matrix(1 0 0 -1 0 792)" d="M241.472 354.491L244.461 354.491" stroke="#000000" stroke-width="0.398" fill="none" /><path id="870" transform="matrix(1 0 0 -1 0 792)" d="M345.756 350.209L345.756 363.776" stroke="#000000" stroke-width="0.398" fill="none" /><path id="872" transform="matrix(1 0 0 -1 0 792)" d="M404.778 350.209L404.778 363.776" stroke="#000000" stroke-width="0.398" fill="none" /><path id="874" transform="matrix(1 0 0 -1 0 792)" d="M463.801 350.209L463.801 363.776" stroke="#000000" stroke-width="0.398" fill="none" /><path id="876" transform="matrix(1 0 0 -1 0 792)" d="M493.118 350.209L493.118 363.776" stroke="#000000" stroke-width="0.398" fill="none" /><path id="877" transform="matrix(1 0 0 -1 0 792)" d="M153.204 350.01L493.317 350.01" stroke="#000000" stroke-width="0.398" fill="none" /><path id="878" transform="matrix(1 0 0 -1 0 792)" d="M153.403 336.244L153.403 349.811" stroke="#000000" stroke-width="0.398" fill="none" /><path id="886" transform="matrix(1 0 0 -1 0 792)" d="M202.02 340.525L205.009 340.525" stroke="#000000" stroke-width="0.398" fill="none" /><path id="893" transform="matrix(1 0 0 -1 0 792)" d="M241.472 340.525L244.461 340.525" stroke="#000000" stroke-width="0.398" fill="none" /><path id="899" transform="matrix(1 0 0 -1 0 792)" d="M345.756 336.244L345.756 349.811" stroke="#000000" stroke-width="0.398" fill="none" /><path id="901" transform="matrix(1 0 0 -1 0 792)" d="M404.778 336.244L404.778 349.811" stroke="#000000" stroke-width="0.398" fill="none" /><path id="903" transform="matrix(1 0 0 -1 0 792)" d="M463.801 336.244L463.801 349.811" stroke="#000000" stroke-width="0.398" fill="none" /><path id="905" transform="matrix(1 0 0 -1 0 792)" d="M493.118 336.244L493.118 349.811" stroke="#000000" stroke-width="0.398" fill="none" /><path id="906" transform="matrix(1 0 0 -1 0 792)" d="M153.204 336.045L493.317 336.045" stroke="#000000" stroke-width="0.398" fill="none" /><path id="907" transform="matrix(1 0 0 -1 0 792)" d="M153.403 322.279L153.403 335.846" stroke="#000000" stroke-width="0.398" fill="none" /><path id="915" transform="matrix(1 0 0 -1 0 792)" d="M202.02 326.56L205.009 326.56" stroke="#000000" stroke-width="0.398" fill="none" /><path id="922" transform="matrix(1 0 0 -1 0 792)" d="M241.472 326.56L244.461 326.56" stroke="#000000" stroke-width="0.398" fill="none" /><path id="928" transform="matrix(1 0 0 -1 0 792)" d="M345.756 322.279L345.756 335.846" stroke="#000000" stroke-width="0.398" fill="none" /><path id="930" transform="matrix(1 0 0 -1 0 792)" d="M404.778 322.279L404.778 335.846" stroke="#000000" stroke-width="0.398" fill="none" /><path id="932" transform="matrix(1 0 0 -1 0 792)" d="M463.801 322.279L463.801 335.846" stroke="#000000" stroke-width="0.398" fill="none" /><path id="934" transform="matrix(1 0 0 -1 0 792)" d="M493.118 322.279L493.118 335.846" stroke="#000000" stroke-width="0.398" fill="none" /><path id="935" transform="matrix(1 0 0 -1 0 792)" d="M153.204 322.08L493.317 322.08" stroke="#000000" stroke-width="0.398" fill="none" /><path id="936" transform="matrix(1 0 0 -1 0 792)" d="M153.403 308.314L153.403 321.881" stroke="#000000" stroke-width="0.398" fill="none" /><path id="944" transform="matrix(1 0 0 -1 0 792)" d="M202.02 312.595L205.009 312.595" stroke="#000000" stroke-width="0.398" fill="none" /><path id="951" transform="matrix(1 0 0 -1 0 792)" d="M241.472 312.595L244.461 312.595" stroke="#000000" stroke-width="0.398" fill="none" /><path id="959" transform="matrix(1 0 0 -1 0 792)" d="M286.902 312.595L289.891 312.595" stroke="#000000" stroke-width="0.398" fill="none" /><path id="966" transform="matrix(1 0 0 -1 0 792)" d="M345.756 308.314L345.756 321.881" stroke="#000000" stroke-width="0.398" fill="none" /><path id="968" transform="matrix(1 0 0 -1 0 792)" d="M404.778 308.314L404.778 321.881" stroke="#000000" stroke-width="0.398" fill="none" /><path id="970" transform="matrix(1 0 0 -1 0 792)" d="M463.801 308.314L463.801 321.881" stroke="#000000" stroke-width="0.398" fill="none" /><path id="972" transform="matrix(1 0 0 -1 0 792)" d="M493.118 308.314L493.118 321.881" stroke="#000000" stroke-width="0.398" fill="none" /><path id="973" transform="matrix(1 0 0 -1 0 792)" d="M153.204 308.114L493.317 308.114" stroke="#000000" stroke-width="0.398" fill="none" /><path id="974" transform="matrix(1 0 0 -1 0 792)" d="M153.403 294.348L153.403 307.915" stroke="#000000" stroke-width="0.398" fill="none" /><path id="982" transform="matrix(1 0 0 -1 0 792)" d="M202.02 298.63L205.009 298.63" stroke="#000000" stroke-width="0.398" fill="none" /><path id="989" transform="matrix(1 0 0 -1 0 792)" d="M241.472 298.63L244.461 298.63" stroke="#000000" stroke-width="0.398" fill="none" /><path id="998" transform="matrix(1 0 0 -1 0 792)" d="M292.88 298.63L295.869 298.63" stroke="#000000" stroke-width="0.398" fill="none" /><path id="1004" transform="matrix(1 0 0 -1 0 792)" d="M345.756 294.348L345.756 307.915" stroke="#000000" stroke-width="0.398" fill="none" /><path id="1006" transform="matrix(1 0 0 -1 0 792)" d="M404.778 294.348L404.778 307.915" stroke="#000000" stroke-width="0.398" fill="none" /><path id="1008" transform="matrix(1 0 0 -1 0 792)" d="M463.801 294.348L463.801 307.915" stroke="#000000" stroke-width="0.398" fill="none" /><path id="1010" transform="matrix(1 0 0 -1 0 792)" d="M493.118 294.348L493.118 307.915" stroke="#000000" stroke-width="0.398" fill="none" /><path id="1011" transform="matrix(1 0 0 -1 0 792)" d="M153.204 294.149L493.317 294.149" stroke="#000000" stroke-width="0.398" fill="none" /><path id="1012" transform="matrix(1 0 0 -1 0 792)" d="M153.403 280.383L153.403 293.95" stroke="#000000" stroke-width="0.398" fill="none" /><path id="1017" transform="matrix(1 0 0 -1 0 792)" d="M184.088 284.665L187.077 284.665" stroke="#000000" stroke-width="0.398" fill="none" /><path id="1022" transform="matrix(1 0 0 -1 0 792)" d="M345.756 280.383L345.756 293.95" stroke="#000000" stroke-width="0.398" fill="none" /><path id="1024" transform="matrix(1 0 0 -1 0 792)" d="M404.778 280.383L404.778 293.95" stroke="#000000" stroke-width="0.398" fill="none" /><path id="1026" transform="matrix(1 0 0 -1 0 792)" d="M463.801 280.383L463.801 293.95" stroke="#000000" stroke-width="0.398" fill="none" /><path id="1028" transform="matrix(1 0 0 -1 0 792)" d="M493.118 280.383L493.118 293.95" stroke="#000000" stroke-width="0.398" fill="none" /><path id="1029" transform="matrix(1 0 0 -1 0 792)" d="M153.204 280.184L493.317 280.184" stroke="#000000" stroke-width="0.398" fill="none" /></g></g></svg>