<svg xmlns="http://www.w3.org/2000/svg" xmlns:xlink="http://www.w3.org/1999/xlink" id="body_17" preserveAspectRatio="xMinYMin meet" viewBox="0 0 1632 1056"><defs><clipPath id="1"><path id="" clip-rule="evenodd" transform="matrix(1 0 0 1 0 0)" d="M0 792L0 0L0 0L1224 0L1224 0L1224 792L1224 792L0 792z" /></clipPath></defs><g transform="matrix(1.333333 0 0 1.333333 0 0)"><g clip-path="url(#1)"><path id="18" transform="matrix(1 0 0 -1 0 792)" d="M701.933 721.28L1168.588 721.28" stroke="#000000" stroke-width="0.498" fill="none" /><path id="39" transform="matrix(1 0 0 -1 0 792)" d="M859.964 542.156L862.953 542.156" stroke="#000000" stroke-width="0.398" fill="none" /><path id="40" transform="matrix(1 0 0 -1 0 792)" d="M795.58 467.209L798.569 467.209" stroke="#000000" stroke-width="0.398" fill="none" /><path id="41" transform="matrix(1 0 0 -1 0 792)" d="M712.884 425.396L1157.636 425.396" stroke="#000000" stroke-width="0.398" fill="none" /><path id="42" transform="matrix(1 0 0 -1 0 792)" d="M712.884 425.396L1157.636 425.396" stroke="#000000" stroke-width="0.398" fill="none" /><path id="43" transform="matrix(1 0 0 -1 0 792)" d="M713.0829 411.63L713.0829 425.197" stroke="#000000" stroke-width="0.398" fill="none" /><path id="44" transform="matrix(1 0 0 -1 0 792)" d="M713.283 411.63L1042.038 411.63L1042.038 425.197L713.283 425.197z" stroke="none" fill="#CCCCEB" fill-rule="nonzero" /><path id="54" transform="matrix(1 0 0 -1 0 792)" d="M1042.237 411.63L1042.237 425.197" stroke="#000000" stroke-width="0.398" fill="none" /><path id="55" transform="matrix(1 0 0 -1 0 792)" d="M1042.436 411.63L1157.238 411.63L1157.238 425.197L1042.436 425.197z" stroke="none" fill="#CCCCEB" fill-rule="nonzero" /><path id="62" transform="matrix(1 0 0 -1 0 792)" d="M1157.437 411.63L1157.437 425.197" stroke="#000000" stroke-width="0.398" fill="none" /><path id="63" transform="matrix(1 0 0 -1 0 792)" d="M712.884 411.43L1157.636 411.43" stroke="#000000" stroke-width="0.398" fill="none" /><path id="64" transform="matrix(1 0 0 -1 0 792)" d="M712.884 411.43L1157.636 411.43" stroke="#000000" stroke-width="0.398" fill="none" /><path id="65" transform="matrix(1 0 0 -1 0 792)" d="M712.884 411.032L1157.636 411.032" stroke="#000000" stroke-width="0.398" fill="none" /><path id="66" transform="matrix(1 0 0 -1 0 792)" d="M712.884 411.032L1157.636 411.032" stroke="#000000" stroke-width="0.398" fill="none" /><path id="67" transform="matrix(1 0 0 -1 0 792)" d="M713.0829 397.266L713.0829 410.833" stroke="#000000" stroke-width="0.398" fill="none" /><path id="108" transform="matrix(1 0 0 -1 0 792)" d="M1042.237 397.266L1042.237 410.833" stroke="#000000" stroke-width="0.398" fill="none" /><path id="110" transform="matrix(1 0 0 -1 0 792)" d="M1157.437 397.266L1157.437 410.833" stroke="#000000" stroke-width="0.398" fill="none" /><path id="111" transform="matrix(1 0 0 -1 0 792)" d="M712.884 397.067L1157.636 397.067" stroke="#000000" stroke-width="0.398" fill="none" /><path id="112" transform="matrix(1 0 0 -1 0 792)" d="M712.884 397.067L1157.636 397.067" stroke="#000000" stroke-width="0.398" fill="none" /><path id="113" transform="matrix(1 0 0 -1 0 792)" d="M713.0829 369.769L713.0829 396.867" stroke="#000000" stroke-width="0.398" fill="none" /><path id="174" transform="matrix(1 0 0 -1 0 792)" d="M1042.237 369.769L1042.237 396.867" stroke="#000000" stroke-width="0.398" fill="none" /><path id="176" transform="matrix(1 0 0 -1 0 792)" d="M1157.437 369.769L1157.437 396.867" stroke="#000000" stroke-width="0.398" fill="none" /><path id="177" transform="matrix(1 0 0 -1 0 792)" d="M712.884 369.57L1157.636 369.57" stroke="#000000" stroke-width="0.398" fill="none" /><path id="178" transform="matrix(1 0 0 -1 0 792)" d="M712.884 369.57L1157.636 369.57" stroke="#000000" stroke-width="0.398" fill="none" /><path id="179" transform="matrix(1 0 0 -1 0 792)" d="M713.0829 355.804L713.0829 369.371" stroke="#000000" stroke-width="0.398" fill="none" /><path id="209" transform="matrix(1 0 0 -1 0 792)" d="M1042.237 355.804L1042.237 369.371" stroke="#000000" stroke-width="0.398" fill="none" /><path id="211" transform="matrix(1 0 0 -1 0 792)" d="M1157.437 355.804L1157.437 369.371" stroke="#000000" stroke-width="0.398" fill="none" /><path id="212" transform="matrix(1 0 0 -1 0 792)" d="M712.884 355.605L1157.636 355.605" stroke="#000000" stroke-width="0.398" fill="none" /><path id="213" transform="matrix(1 0 0 -1 0 792)" d="M712.884 355.605L1157.636 355.605" stroke="#000000" stroke-width="0.398" fill="none" /><path id="214" transform="matrix(1 0 0 -1 0 792)" d="M713.0829 341.839L713.0829 355.406" stroke="#000000" stroke-width="0.398" fill="none" /><path id="238" transform="matrix(1 0 0 -1 0 792)" d="M1042.237 341.839L1042.237 355.406" stroke="#000000" stroke-width="0.398" fill="none" /><path id="240" transform="matrix(1 0 0 -1 0 792)" d="M1157.437 341.839L1157.437 355.406" stroke="#000000" stroke-width="0.398" fill="none" /><path id="241" transform="matrix(1 0 0 -1 0 792)" d="M712.884 341.64L1157.636 341.64" stroke="#000000" stroke-width="0.398" fill="none" /><path id="242" transform="matrix(1 0 0 -1 0 792)" d="M712.884 341.64L1157.636 341.64" stroke="#000000" stroke-width="0.398" fill="none" /><path id="243" transform="matrix(1 0 0 -1 0 792)" d="M713.0829 327.874L713.0829 341.441" stroke="#000000" stroke-width="0.398" fill="none" /><path id="270" transform="matrix(1 0 0 -1 0 792)" d="M1042.237 327.874L1042.237 341.441" stroke="#000000" stroke-width="0.398" fill="none" /><path id="272" transform="matrix(1 0 0 -1 0 792)" d="M1157.437 327.874L1157.437 341.441" stroke="#000000" stroke-width="0.398" fill="none" /><path id="273" transform="matrix(1 0 0 -1 0 792)" d="M712.884 327.674L1157.636 327.674" stroke="#000000" stroke-width="0.398" fill="none" /><path id="274" transform="matrix(1 0 0 -1 0 792)" d="M712.884 327.674L1157.636 327.674" stroke="#000000" stroke-width="0.398" fill="none" /><path id="275" transform="matrix(1 0 0 -1 0 792)" d="M713.0829 313.909L713.0829 327.476" stroke="#000000" stroke-width="0.398" fill="none" /><path id="304" transform="matrix(1 0 0 -1 0 792)" d="M1042.237 313.909L1042.237 327.476" stroke="#000000" stroke-width="0.398" fill="none" /><path id="306" transform="matrix(1 0 0 -1 0 792)" d="M1157.437 313.909L1157.437 327.476" stroke="#000000" stroke-width="0.398" fill="none" /><path id="307" transform="matrix(1 0 0 -1 0 792)" d="M712.884 313.709L1157.636 313.709" stroke="#000000" stroke-width="0.398" fill="none" /><path id="308" transform="matrix(1 0 0 -1 0 792)" d="M712.884 313.709L1157.636 313.709" stroke="#000000" stroke-width="0.398" fill="none" /><path id="309" transform="matrix(1 0 0 -1 0 792)" d="M713.0829 299.943L713.0829 313.51" stroke="#000000" stroke-width="0.398" fill="none" /><path id="350" transform="matrix(1 0 0 -1 0 792)" d="M1042.237 299.943L1042.237 313.51" stroke="#000000" stroke-width="0.398" fill="none" /><path id="352" transform="matrix(1 0 0 -1 0 792)" d="M1157.437 299.943L1157.437 313.51" stroke="#000000" stroke-width="0.398" fill="none" /><path id="353" transform="matrix(1 0 0 -1 0 792)" d="M712.884 299.744L1157.636 299.744" stroke="#000000" stroke-width="0.398" fill="none" /><path id="354" transform="matrix(1 0 0 -1 0 792)" d="M712.884 299.744L1157.636 299.744" stroke="#000000" stroke-width="0.398" fill="none" /><path id="355" transform="matrix(1 0 0 -1 0 792)" d="M713.0829 285.978L713.0829 299.545" stroke="#000000" stroke-width="0.398" fill="none" /><path id="386" transform="matrix(1 0 0 -1 0 792)" d="M1042.237 285.978L1042.237 299.545" stroke="#000000" stroke-width="0.398" fill="none" /><path id="388" transform="matrix(1 0 0 -1 0 792)" d="M1157.437 285.978L1157.437 299.545" stroke="#000000" stroke-width="0.398" fill="none" /><path id="389" transform="matrix(1 0 0 -1 0 792)" d="M712.884 285.779L1157.636 285.779" stroke="#000000" stroke-width="0.398" fill="none" /><path id="390" transform="matrix(1 0 0 -1 0 792)" d="M712.884 285.779L1157.636 285.779" stroke="#000000" stroke-width="0.398" fill="none" /><path id="391" transform="matrix(1 0 0 -1 0 792)" d="M713.0829 244.932L713.0829 285.58" stroke="#000000" stroke-width="0.398" fill="none" /><path id="489" transform="matrix(1 0 0 -1 0 792)" d="M1042.237 244.932L1042.237 285.58" stroke="#000000" stroke-width="0.398" fill="none" /><path id="491" transform="matrix(1 0 0 -1 0 792)" d="M1157.437 244.932L1157.437 285.58" stroke="#000000" stroke-width="0.398" fill="none" /><path id="492" transform="matrix(1 0 0 -1 0 792)" d="M712.884 244.733L1157.636 244.733" stroke="#000000" stroke-width="0.398" fill="none" /><path id="493" transform="matrix(1 0 0 -1 0 792)" d="M712.884 244.733L1157.636 244.733" stroke="#000000" stroke-width="0.398" fill="none" /><path id="494" transform="matrix(1 0 0 -1 0 792)" d="M713.0829 203.886L713.0829 244.534" stroke="#000000" stroke-width="0.398" fill="none" /><path id="593" transform="matrix(1 0 0 -1 0 792)" d="M1042.237 203.886L1042.237 244.534" stroke="#000000" stroke-width="0.398" fill="none" /><path id="595" transform="matrix(1 0 0 -1 0 792)" d="M1157.437 203.886L1157.437 244.534" stroke="#000000" stroke-width="0.398" fill="none" /><path id="596" transform="matrix(1 0 0 -1 0 792)" d="M712.884 203.687L1157.636 203.687" stroke="#000000" stroke-width="0.398" fill="none" /><path id="597" transform="matrix(1 0 0 -1 0 792)" d="M712.884 203.687L1157.636 203.687" stroke="#000000" stroke-width="0.398" fill="none" /><path id="598" transform="matrix(1 0 0 -1 0 792)" d="M713.0829 189.921L713.0829 203.488" stroke="#000000" stroke-width="0.398" fill="none" /><path id="647" transform="matrix(1 0 0 -1 0 792)" d="M1042.237 189.921L1042.237 203.488" stroke="#000000" stroke-width="0.398" fill="none" /><path id="649" transform="matrix(1 0 0 -1 0 792)" d="M1157.437 189.921L1157.437 203.488" stroke="#000000" stroke-width="0.398" fill="none" /><path id="650" transform="matrix(1 0 0 -1 0 792)" d="M712.884 189.722L1157.636 189.722" stroke="#000000" stroke-width="0.398" fill="none" /><path id="651" transform="matrix(1 0 0 -1 0 792)" d="M712.884 189.722L1157.636 189.722" stroke="#000000" stroke-width="0.398" fill="none" /><path id="652" transform="matrix(1 0 0 -1 0 792)" d="M713.0829 175.973L713.0829 189.522" stroke="#000000" stroke-width="0.398" fill="none" /><path id="701" transform="matrix(1 0 0 -1 0 792)" d="M1157.437 175.973L1157.437 189.522" stroke="#000000" stroke-width="0.398" fill="none" /><path id="702" transform="matrix(1 0 0 -1 0 792)" d="M713.0829 162.407L713.0829 175.974" stroke="#000000" stroke-width="0.398" fill="none" /><path id="715" transform="matrix(1 0 0 -1 0 792)" d="M814.453 166.688L817.442 166.688" stroke="#000000" stroke-width="0.398" fill="none" /><path id="727" transform="matrix(1 0 0 -1 0 792)" d="M889.771 166.688L892.76 166.688" stroke="#000000" stroke-width="0.398" fill="none" /><path id="734" transform="matrix(1 0 0 -1 0 792)" d="M1042.237 162.407L1042.237 175.974" stroke="#000000" stroke-width="0.398" fill="none" /><path id="736" transform="matrix(1 0 0 -1 0 792)" d="M1157.437 162.407L1157.437 175.974" stroke="#000000" stroke-width="0.398" fill="none" /><path id="737" transform="matrix(1 0 0 -1 0 792)" d="M713.0829 148.84L713.0829 162.407" stroke="#000000" stroke-width="0.398" fill="none" /><path id="751" transform="matrix(1 0 0 -1 0 792)" d="M820.431 153.121L823.42 153.121" stroke="#000000" stroke-width="0.398" fill="none" /><path id="763" transform="matrix(1 0 0 -1 0 792)" d="M895.748 153.121L898.737 153.121" stroke="#000000" stroke-width="0.398" fill="none" /><path id="767" transform="matrix(1 0 0 -1 0 792)" d="M917.268 153.121L920.257 153.121" stroke="#000000" stroke-width="0.398" fill="none" /><path id="774" transform="matrix(1 0 0 -1 0 792)" d="M1042.237 148.84L1042.237 162.407" stroke="#000000" stroke-width="0.398" fill="none" /><path id="776" transform="matrix(1 0 0 -1 0 792)" d="M1157.437 148.84L1157.437 162.407" stroke="#000000" stroke-width="0.398" fill="none" /><path id="777" transform="matrix(1 0 0 -1 0 792)" d="M713.0829 135.273L713.0829 148.84" stroke="#000000" stroke-width="0.398" fill="none" /><path id="790" transform="matrix(1 0 0 -1 0 792)" d="M814.453 139.555L817.442 139.555" stroke="#000000" stroke-width="0.398" fill="none" /><path id="797" transform="matrix(1 0 0 -1 0 792)" d="M853.905 139.555L856.894 139.555" stroke="#000000" stroke-width="0.398" fill="none" /><path id="804" transform="matrix(1 0 0 -1 0 792)" d="M1042.237 135.273L1042.237 148.84" stroke="#000000" stroke-width="0.398" fill="none" /><path id="806" transform="matrix(1 0 0 -1 0 792)" d="M1157.437 135.273L1157.437 148.84" stroke="#000000" stroke-width="0.398" fill="none" /><path id="807" transform="matrix(1 0 0 -1 0 792)" d="M712.884 135.074L1157.636 135.074" stroke="#000000" stroke-width="0.398" fill="none" /><path id="808" transform="matrix(1 0 0 -1 0 792)" d="M712.884 135.074L1157.636 135.074" stroke="#000000" stroke-width="0.398" fill="none" /><path id="809" transform="matrix(1 0 0 -1 0 792)" d="M713.0829 107.776L713.0829 134.874" stroke="#000000" stroke-width="0.398" fill="none" /><path id="881" transform="matrix(1 0 0 -1 0 792)" d="M1042.237 107.776L1042.237 134.874" stroke="#000000" stroke-width="0.398" fill="none" /><path id="883" transform="matrix(1 0 0 -1 0 792)" d="M1157.437 107.776L1157.437 134.874" stroke="#000000" stroke-width="0.398" fill="none" /><path id="884" transform="matrix(1 0 0 -1 0 792)" d="M712.884 107.577L1157.636 107.577" stroke="#000000" stroke-width="0.398" fill="none" /><path id="885" transform="matrix(1 0 0 -1 0 792)" d="M712.884 107.577L1157.636 107.577" stroke="#000000" stroke-width="0.398" fill="none" /><path id="886" transform="matrix(1 0 0 -1 0 792)" d="M713.0829 80.28L713.0829 107.378" stroke="#000000" stroke-width="0.398" fill="none" /><path id="973" transform="matrix(1 0 0 -1 0 792)" d="M1042.237 80.28L1042.237 107.378" stroke="#000000" stroke-width="0.398" fill="none" /><path id="975" transform="matrix(1 0 0 -1 0 792)" d="M1157.437 80.28L1157.437 107.378" stroke="#000000" stroke-width="0.398" fill="none" /><path id="976" transform="matrix(1 0 0 -1 0 792)" d="M712.884 80.08L1157.636 80.08" stroke="#000000" stroke-width="0.398" fill="none" /><path id="977" transform="matrix(1 0 0 -1 0 792)" d="M701.933 634.588L1168.591 634.588L1168.591 634.588L1168.591 674.8315L1168.591 674.8315L701.933 674.8315z" stroke="#FFFFFF" stroke-width="1" fill="#FFFFFF" fill-rule="nonzero" /><path id="1059" transform="matrix(1 0 0 -1 0 792)" d="M718.869 613.506L1168.591 613.506L1168.591 613.506L1168.591 626.9832L1168.591 626.9832L718.869 626.9832z" stroke="#FFFFFF" stroke-width="1" fill="#FFFFFF" fill-rule="nonzero" /><path id="1103" transform="matrix(1 0 0 -1 0 792)" d="M701.933 600.288L921.28 600.288L921.28 600.288L921.28 613.4335L921.28 613.4335L701.933 613.4335z" stroke="#FFFFFF" stroke-width="1" fill="#FFFFFF" fill-rule="nonzero" /><path id="1122" transform="matrix(1 0 0 -1 0 792)" d="M718.869 579.538L1168.586 579.538L1168.586 579.538L1168.586 592.6835L1168.586 592.6835L718.869 592.6835z" stroke="#FFFFFF" stroke-width="1" fill="#FFFFFF" fill-rule="nonzero" /><path id="1152" transform="matrix(1 0 0 -1 0 792)" d="M701.933 525.342L1168.591 525.342L1168.591 525.342L1168.591 579.1354L1168.591 579.1354L701.933 579.1354z" stroke="#FFFFFF" stroke-width="1" fill="#FFFFFF" fill-rule="nonzero" /><path id="1266" transform="matrix(1 0 0 -1 0 792)" d="M718.869 504.261L1168.588 504.261L1168.588 504.261L1168.588 517.7383L1168.588 517.7383L718.869 517.7383z" stroke="#FFFFFF" stroke-width="1" fill="#FFFFFF" fill-rule="nonzero" /><path id="1310" transform="matrix(1 0 0 -1 0 792)" d="M701.9331 463.613L1168.591 463.613L1168.591 463.613L1168.591 504.1883L1168.591 504.1883L701.9331 504.1883z" stroke="#FFFFFF" stroke-width="1" fill="#FFFFFF" fill-rule="nonzero" /><path id="1415" transform="matrix(1 0 0 -1 0 792)" d="M718.869 450.396L1168.586 450.396L1168.586 450.396L1168.586 463.5415L1168.586 463.5415L718.869 463.5415z" stroke="#FFFFFF" stroke-width="1" fill="#FFFFFF" fill-rule="nonzero" /><path id="1446" transform="matrix(1 0 0 -1 0 792)" d="M701.933 436.515L1112.866 436.515L1112.866 436.515L1112.866 449.9923L1112.866 449.9923L701.933 449.9923z" stroke="#FFFFFF" stroke-width="1" fill="#FFFFFF" fill-rule="nonzero" /><path id="1524" transform="matrix(1 0 0 -1 0 792)" d="M89.933 721.28L556.588 721.28" stroke="#000000" stroke-width="0.498" fill="none" /><path id="2209" transform="matrix(1 0 0 -1 0 792)" d="M247.964 542.156L250.953 542.156" stroke="#000000" stroke-width="0.398" fill="none" /><path id="2612" transform="matrix(1 0 0 -1 0 792)" d="M183.58 467.209L186.569 467.209" stroke="#000000" stroke-width="0.398" fill="none" /><path id="2831" transform="matrix(1 0 0 -1 0 792)" d="M100.884 425.396L545.636 425.396" stroke="#000000" stroke-width="0.398" fill="none" /><path id="2832" transform="matrix(1 0 0 -1 0 792)" d="M100.884 425.396L545.636 425.396" stroke="#000000" stroke-width="0.398" fill="none" /><path id="2833" transform="matrix(1 0 0 -1 0 792)" d="M101.083 411.63L101.083 425.197" stroke="#000000" stroke-width="0.398" fill="none" /><path id="2834" transform="matrix(1 0 0 -1 0 792)" d="M101.283 411.63L430.038 411.63L430.038 425.197L101.283 425.197z" stroke="none" fill="#CCCCEB" fill-rule="nonzero" /><path id="2844" transform="matrix(1 0 0 -1 0 792)" d="M430.237 411.63L430.237 425.197" stroke="#000000" stroke-width="0.398" fill="none" /><path id="2845" transform="matrix(1 0 0 -1 0 792)" d="M430.436 411.63L545.238 411.63L545.238 425.197L430.436 425.197z" stroke="none" fill="#CCCCEB" fill-rule="nonzero" /><path id="2852" transform="matrix(1 0 0 -1 0 792)" d="M545.437 411.63L545.437 425.197" stroke="#000000" stroke-width="0.398" fill="none" /><path id="2853" transform="matrix(1 0 0 -1 0 792)" d="M100.884 411.43L545.636 411.43" stroke="#000000" stroke-width="0.398" fill="none" /><path id="2854" transform="matrix(1 0 0 -1 0 792)" d="M100.884 411.43L545.636 411.43" stroke="#000000" stroke-width="0.398" fill="none" /><path id="2855" transform="matrix(1 0 0 -1 0 792)" d="M100.884 411.032L545.636 411.032" stroke="#000000" stroke-width="0.398" fill="none" /><path id="2856" transform="matrix(1 0 0 -1 0 792)" d="M100.884 411.032L545.636 411.032" stroke="#000000" stroke-width="0.398" fill="none" /><path id="2857" transform="matrix(1 0 0 -1 0 792)" d="M101.083 397.266L101.083 410.833" stroke="#000000" stroke-width="0.398" fill="none" /><path id="2898" transform="matrix(1 0 0 -1 0 792)" d="M430.237 397.266L430.237 410.833" stroke="#000000" stroke-width="0.398" fill="none" /><path id="2900" transform="matrix(1 0 0 -1 0 792)" d="M545.437 397.266L545.437 410.833" stroke="#000000" stroke-width="0.398" fill="none" /><path id="2901" transform="matrix(1 0 0 -1 0 792)" d="M100.884 397.067L545.636 397.067" stroke="#000000" stroke-width="0.398" fill="none" /><path id="2902" transform="matrix(1 0 0 -1 0 792)" d="M100.884 397.067L545.636 397.067" stroke="#000000" stroke-width="0.398" fill="none" /><path id="2903" transform="matrix(1 0 0 -1 0 792)" d="M101.083 369.769L101.083 396.867" stroke="#000000" stroke-width="0.398" fill="none" /><path id="2964" transform="matrix(1 0 0 -1 0 792)" d="M430.237 369.769L430.237 396.867" stroke="#000000" stroke-width="0.398" fill="none" /><path id="2966" transform="matrix(1 0 0 -1 0 792)" d="M545.437 369.769L545.437 396.867" stroke="#000000" stroke-width="0.398" fill="none" /><path id="2967" transform="matrix(1 0 0 -1 0 792)" d="M100.884 369.57L545.636 369.57" stroke="#000000" stroke-width="0.398" fill="none" /><path id="2968" transform="matrix(1 0 0 -1 0 792)" d="M100.884 369.57L545.636 369.57" stroke="#000000" stroke-width="0.398" fill="none" /><path id="2969" transform="matrix(1 0 0 -1 0 792)" d="M101.083 355.804L101.083 369.371" stroke="#000000" stroke-width="0.398" fill="none" /><path id="2999" transform="matrix(1 0 0 -1 0 792)" d="M430.237 355.804L430.237 369.371" stroke="#000000" stroke-width="0.398" fill="none" /><path id="3001" transform="matrix(1 0 0 -1 0 792)" d="M545.437 355.804L545.437 369.371" stroke="#000000" stroke-width="0.398" fill="none" /><path id="3002" transform="matrix(1 0 0 -1 0 792)" d="M100.884 355.605L545.636 355.605" stroke="#000000" stroke-width="0.398" fill="none" /><path id="3003" transform="matrix(1 0 0 -1 0 792)" d="M100.884 355.605L545.636 355.605" stroke="#000000" stroke-width="0.398" fill="none" /><path id="3004" transform="matrix(1 0 0 -1 0 792)" d="M101.083 341.839L101.083 355.406" stroke="#000000" stroke-width="0.398" fill="none" /><path id="3028" transform="matrix(1 0 0 -1 0 792)" d="M430.237 341.839L430.237 355.406" stroke="#000000" stroke-width="0.398" fill="none" /><path id="3030" transform="matrix(1 0 0 -1 0 792)" d="M545.437 341.839L545.437 355.406" stroke="#000000" stroke-width="0.398" fill="none" /><path id="3031" transform="matrix(1 0 0 -1 0 792)" d="M100.884 341.64L545.636 341.64" stroke="#000000" stroke-width="0.398" fill="none" /><path id="3032" transform="matrix(1 0 0 -1 0 792)" d="M100.884 341.64L545.636 341.64" stroke="#000000" stroke-width="0.398" fill="none" /><path id="3033" transform="matrix(1 0 0 -1 0 792)" d="M101.083 327.874L101.083 341.441" stroke="#000000" stroke-width="0.398" fill="none" /><path id="3060" transform="matrix(1 0 0 -1 0 792)" d="M430.237 327.874L430.237 341.441" stroke="#000000" stroke-width="0.398" fill="none" /><path id="3062" transform="matrix(1 0 0 -1 0 792)" d="M545.437 327.874L545.437 341.441" stroke="#000000" stroke-width="0.398" fill="none" /><path id="3063" transform="matrix(1 0 0 -1 0 792)" d="M100.884 327.674L545.636 327.674" stroke="#000000" stroke-width="0.398" fill="none" /><path id="3064" transform="matrix(1 0 0 -1 0 792)" d="M100.884 327.674L545.636 327.674" stroke="#000000" stroke-width="0.398" fill="none" /><path id="3065" transform="matrix(1 0 0 -1 0 792)" d="M101.083 313.909L101.083 327.476" stroke="#000000" stroke-width="0.398" fill="none" /><path id="3094" transform="matrix(1 0 0 -1 0 792)" d="M430.237 313.909L430.237 327.476" stroke="#000000" stroke-width="0.398" fill="none" /><path id="3096" transform="matrix(1 0 0 -1 0 792)" d="M545.437 313.909L545.437 327.476" stroke="#000000" stroke-width="0.398" fill="none" /><path id="3097" transform="matrix(1 0 0 -1 0 792)" d="M100.884 313.709L545.636 313.709" stroke="#000000" stroke-width="0.398" fill="none" /><path id="3098" transform="matrix(1 0 0 -1 0 792)" d="M100.884 313.709L545.636 313.709" stroke="#000000" stroke-width="0.398" fill="none" /><path id="3099" transform="matrix(1 0 0 -1 0 792)" d="M101.083 299.943L101.083 313.51" stroke="#000000" stroke-width="0.398" fill="none" /><path id="3140" transform="matrix(1 0 0 -1 0 792)" d="M430.237 299.943L430.237 313.51" stroke="#000000" stroke-width="0.398" fill="none" /><path id="3142" transform="matrix(1 0 0 -1 0 792)" d="M545.437 299.943L545.437 313.51" stroke="#000000" stroke-width="0.398" fill="none" /><path id="3143" transform="matrix(1 0 0 -1 0 792)" d="M100.884 299.744L545.636 299.744" stroke="#000000" stroke-width="0.398" fill="none" /><path id="3144" transform="matrix(1 0 0 -1 0 792)" d="M100.884 299.744L545.636 299.744" stroke="#000000" stroke-width="0.398" fill="none" /><path id="3145" transform="matrix(1 0 0 -1 0 792)" d="M101.083 285.978L101.083 299.545" stroke="#000000" stroke-width="0.398" fill="none" /><path id="3176" transform="matrix(1 0 0 -1 0 792)" d="M430.237 285.978L430.237 299.545" stroke="#000000" stroke-width="0.398" fill="none" /><path id="3178" transform="matrix(1 0 0 -1 0 792)" d="M545.437 285.978L545.437 299.545" stroke="#000000" stroke-width="0.398" fill="none" /><path id="3179" transform="matrix(1 0 0 -1 0 792)" d="M100.884 285.779L545.636 285.779" stroke="#000000" stroke-width="0.398" fill="none" /><path id="3180" transform="matrix(1 0 0 -1 0 792)" d="M100.884 285.779L545.636 285.779" stroke="#000000" stroke-width="0.398" fill="none" /><path id="3181" transform="matrix(1 0 0 -1 0 792)" d="M101.083 244.932L101.083 285.58" stroke="#000000" stroke-width="0.398" fill="none" /><path id="3279" transform="matrix(1 0 0 -1 0 792)" d="M430.237 244.932L430.237 285.58" stroke="#000000" stroke-width="0.398" fill="none" /><path id="3281" transform="matrix(1 0 0 -1 0 792)" d="M545.437 244.932L545.437 285.58" stroke="#000000" stroke-width="0.398" fill="none" /><path id="3282" transform="matrix(1 0 0 -1 0 792)" d="M100.884 244.733L545.636 244.733" stroke="#000000" stroke-width="0.398" fill="none" /><path id="3283" transform="matrix(1 0 0 -1 0 792)" d="M100.884 244.733L545.636 244.733" stroke="#000000" stroke-width="0.398" fill="none" /><path id="3284" transform="matrix(1 0 0 -1 0 792)" d="M101.083 203.886L101.083 244.534" stroke="#000000" stroke-width="0.398" fill="none" /><path id="3383" transform="matrix(1 0 0 -1 0 792)" d="M430.237 203.886L430.237 244.534" stroke="#000000" stroke-width="0.398" fill="none" /><path id="3385" transform="matrix(1 0 0 -1 0 792)" d="M545.437 203.886L545.437 244.534" stroke="#000000" stroke-width="0.398" fill="none" /><path id="3386" transform="matrix(1 0 0 -1 0 792)" d="M100.884 203.687L545.636 203.687" stroke="#000000" stroke-width="0.398" fill="none" /><path id="3387" transform="matrix(1 0 0 -1 0 792)" d="M100.884 203.687L545.636 203.687" stroke="#000000" stroke-width="0.398" fill="none" /><path id="3388" transform="matrix(1 0 0 -1 0 792)" d="M101.083 189.921L101.083 203.488" stroke="#000000" stroke-width="0.398" fill="none" /><path id="3437" transform="matrix(1 0 0 -1 0 792)" d="M430.237 189.921L430.237 203.488" stroke="#000000" stroke-width="0.398" fill="none" /><path id="3439" transform="matrix(1 0 0 -1 0 792)" d="M545.437 189.921L545.437 203.488" stroke="#000000" stroke-width="0.398" fill="none" /><path id="3440" transform="matrix(1 0 0 -1 0 792)" d="M100.884 189.722L545.636 189.722" stroke="#000000" stroke-width="0.398" fill="none" /><path id="3441" transform="matrix(1 0 0 -1 0 792)" d="M100.884 189.722L545.636 189.722" stroke="#000000" stroke-width="0.398" fill="none" /><path id="3442" transform="matrix(1 0 0 -1 0 792)" d="M101.083 175.973L101.083 189.522" stroke="#000000" stroke-width="0.398" fill="none" /><path id="3491" transform="matrix(1 0 0 -1 0 792)" d="M545.437 175.973L545.437 189.522" stroke="#000000" stroke-width="0.398" fill="none" /><path id="3492" transform="matrix(1 0 0 -1 0 792)" d="M101.083 162.407L101.083 175.974" stroke="#000000" stroke-width="0.398" fill="none" /><path id="3505" transform="matrix(1 0 0 -1 0 792)" d="M202.453 166.688L205.442 166.688" stroke="#000000" stroke-width="0.398" fill="none" /><path id="3517" transform="matrix(1 0 0 -1 0 792)" d="M277.771 166.688L280.76 166.688" stroke="#000000" stroke-width="0.398" fill="none" /><path id="3524" transform="matrix(1 0 0 -1 0 792)" d="M430.237 162.407L430.237 175.974" stroke="#000000" stroke-width="0.398" fill="none" /><path id="3526" transform="matrix(1 0 0 -1 0 792)" d="M545.437 162.407L545.437 175.974" stroke="#000000" stroke-width="0.398" fill="none" /><path id="3527" transform="matrix(1 0 0 -1 0 792)" d="M101.083 148.84L101.083 162.407" stroke="#000000" stroke-width="0.398" fill="none" /><path id="3541" transform="matrix(1 0 0 -1 0 792)" d="M208.431 153.121L211.42 153.121" stroke="#000000" stroke-width="0.398" fill="none" /><path id="3553" transform="matrix(1 0 0 -1 0 792)" d="M283.748 153.121L286.737 153.121" stroke="#000000" stroke-width="0.398" fill="none" /><path id="3557" transform="matrix(1 0 0 -1 0 792)" d="M305.268 153.121L308.257 153.121" stroke="#000000" stroke-width="0.398" fill="none" /><path id="3564" transform="matrix(1 0 0 -1 0 792)" d="M430.237 148.84L430.237 162.407" stroke="#000000" stroke-width="0.398" fill="none" /><path id="3566" transform="matrix(1 0 0 -1 0 792)" d="M545.437 148.84L545.437 162.407" stroke="#000000" stroke-width="0.398" fill="none" /><path id="3567" transform="matrix(1 0 0 -1 0 792)" d="M101.083 135.273L101.083 148.84" stroke="#000000" stroke-width="0.398" fill="none" /><path id="3580" transform="matrix(1 0 0 -1 0 792)" d="M202.453 139.555L205.442 139.555" stroke="#000000" stroke-width="0.398" fill="none" /><path id="3587" transform="matrix(1 0 0 -1 0 792)" d="M241.905 139.555L244.894 139.555" stroke="#000000" stroke-width="0.398" fill="none" /><path id="3594" transform="matrix(1 0 0 -1 0 792)" d="M430.237 135.273L430.237 148.84" stroke="#000000" stroke-width="0.398" fill="none" /><path id="3596" transform="matrix(1 0 0 -1 0 792)" d="M545.437 135.273L545.437 148.84" stroke="#000000" stroke-width="0.398" fill="none" /><path id="3597" transform="matrix(1 0 0 -1 0 792)" d="M100.884 135.074L545.636 135.074" stroke="#000000" stroke-width="0.398" fill="none" /><path id="3598" transform="matrix(1 0 0 -1 0 792)" d="M100.884 135.074L545.636 135.074" stroke="#000000" stroke-width="0.398" fill="none" /><path id="3599" transform="matrix(1 0 0 -1 0 792)" d="M101.083 107.776L101.083 134.874" stroke="#000000" stroke-width="0.398" fill="none" /><path id="3671" transform="matrix(1 0 0 -1 0 792)" d="M430.237 107.776L430.237 134.874" stroke="#000000" stroke-width="0.398" fill="none" /><path id="3673" transform="matrix(1 0 0 -1 0 792)" d="M545.437 107.776L545.437 134.874" stroke="#000000" stroke-width="0.398" fill="none" /><path id="3674" transform="matrix(1 0 0 -1 0 792)" d="M100.884 107.577L545.636 107.577" stroke="#000000" stroke-width="0.398" fill="none" /><path id="3675" transform="matrix(1 0 0 -1 0 792)" d="M100.884 107.577L545.636 107.577" stroke="#000000" stroke-width="0.398" fill="none" /><path id="3676" transform="matrix(1 0 0 -1 0 792)" d="M101.083 80.28L101.083 107.378" stroke="#000000" stroke-width="0.398" fill="none" /><path id="3763" transform="matrix(1 0 0 -1 0 792)" d="M430.237 80.28L430.237 107.378" stroke="#000000" stroke-width="0.398" fill="none" /><path id="3765" transform="matrix(1 0 0 -1 0 792)" d="M545.437 80.28L545.437 107.378" stroke="#000000" stroke-width="0.398" fill="none" /><path id="3766" transform="matrix(1 0 0 -1 0 792)" d="M100.884 80.08L545.636 80.08" stroke="#000000" stroke-width="0.398" fill="none" /></g></g></svg>