<svg xmlns="http://www.w3.org/2000/svg" xmlns:xlink="http://www.w3.org/1999/xlink" id="body_19" preserveAspectRatio="xMinYMin meet" viewBox="0 0 1632 1056"><defs><clipPath id="1"><path id="" clip-rule="evenodd" transform="matrix(1 0 0 1 0 0)" d="M0 792L0 0L0 0L1224 0L1224 0L1224 792L1224 792L0 792z" /></clipPath></defs><g transform="matrix(1.333333 0 0 1.333333 0 0)"><g clip-path="url(#1)"><path id="50" transform="matrix(1 0 0 -1 0 792)" d="M701.933 339.045L1086.864 339.045" stroke="#000000" stroke-width="0.398" fill="none" /><path id="51" transform="matrix(1 0 0 -1 0 792)" d="M702.132 325.279L702.132 338.846" stroke="#000000" stroke-width="0.398" fill="none" /><path id="52" transform="matrix(1 0 0 -1 0 792)" d="M702.331 325.279L1031.086 325.279L1031.086 338.846L702.331 338.846z" stroke="none" fill="#CCCCEB" fill-rule="nonzero" /><path id="62" transform="matrix(1 0 0 -1 0 792)" d="M1031.285 325.279L1031.285 338.846" stroke="#000000" stroke-width="0.398" fill="none" /><path id="63" transform="matrix(1 0 0 -1 0 792)" d="M1031.484 325.279L1086.464 325.279L1086.464 338.846L1031.484 338.846z" stroke="none" fill="#CCCCEB" fill-rule="nonzero" /><path id="70" transform="matrix(1 0 0 -1 0 792)" d="M1086.664 325.279L1086.664 338.846" stroke="#000000" stroke-width="0.398" fill="none" /><path id="71" transform="matrix(1 0 0 -1 0 792)" d="M701.933 325.08L1086.864 325.08" stroke="#000000" stroke-width="0.398" fill="none" /><path id="72" transform="matrix(1 0 0 -1 0 792)" d="M701.933 322.689L1086.864 322.689" stroke="#000000" stroke-width="0.398" fill="none" /><path id="73" transform="matrix(1 0 0 -1 0 792)" d="M702.132 308.923L702.132 322.49" stroke="#000000" stroke-width="0.398" fill="none" /><path id="105" transform="matrix(1 0 0 -1 0 792)" d="M1031.285 308.923L1031.285 322.49" stroke="#000000" stroke-width="0.398" fill="none" /><path id="107" transform="matrix(1 0 0 -1 0 792)" d="M1086.664 308.923L1086.664 322.49" stroke="#000000" stroke-width="0.398" fill="none" /><path id="108" transform="matrix(1 0 0 -1 0 792)" d="M701.933 308.724L1086.864 308.724" stroke="#000000" stroke-width="0.398" fill="none" /><path id="118" transform="matrix(1 0 0 -1 0 792)" d="M978.71 185.199L981.699 185.199" stroke="#000000" stroke-width="0.398" fill="none" /><path id="119" transform="matrix(1 0 0 -1 0 792)" d="M701.933 167.215L1086.864 167.215" stroke="#000000" stroke-width="0.398" fill="none" /><path id="120" transform="matrix(1 0 0 -1 0 792)" d="M702.132 153.45L702.132 167.017" stroke="#000000" stroke-width="0.398" fill="none" /><path id="121" transform="matrix(1 0 0 -1 0 792)" d="M702.331 153.45L1031.086 153.45L1031.086 167.017L702.331 167.017z" stroke="none" fill="#CCCCEB" fill-rule="nonzero" /><path id="131" transform="matrix(1 0 0 -1 0 792)" d="M1031.285 153.45L1031.285 167.017" stroke="#000000" stroke-width="0.398" fill="none" /><path id="132" transform="matrix(1 0 0 -1 0 792)" d="M1031.484 153.45L1086.464 153.45L1086.464 167.017L1031.484 167.017z" stroke="none" fill="#CCCCEB" fill-rule="nonzero" /><path id="139" transform="matrix(1 0 0 -1 0 792)" d="M1086.664 153.45L1086.664 167.017" stroke="#000000" stroke-width="0.398" fill="none" /><path id="140" transform="matrix(1 0 0 -1 0 792)" d="M701.933 153.25L1086.864 153.25" stroke="#000000" stroke-width="0.398" fill="none" /><path id="141" transform="matrix(1 0 0 -1 0 792)" d="M701.933 150.859L1086.864 150.859" stroke="#000000" stroke-width="0.398" fill="none" /><path id="142" transform="matrix(1 0 0 -1 0 792)" d="M702.132 137.093L702.132 150.66" stroke="#000000" stroke-width="0.398" fill="none" /><path id="167" transform="matrix(1 0 0 -1 0 792)" d="M1031.285 137.093L1031.285 150.66" stroke="#000000" stroke-width="0.398" fill="none" /><path id="169" transform="matrix(1 0 0 -1 0 792)" d="M1086.664 137.093L1086.664 150.66" stroke="#000000" stroke-width="0.398" fill="none" /><path id="170" transform="matrix(1 0 0 -1 0 792)" d="M701.933 136.894L1086.864 136.894" stroke="#000000" stroke-width="0.398" fill="none" /><path id="171" transform="matrix(1 0 0 -1 0 792)" d="M702.132 123.128L702.132 136.695" stroke="#000000" stroke-width="0.398" fill="none" /><path id="215" transform="matrix(1 0 0 -1 0 792)" d="M1031.285 123.128L1031.285 136.695" stroke="#000000" stroke-width="0.398" fill="none" /><path id="217" transform="matrix(1 0 0 -1 0 792)" d="M1086.664 123.128L1086.664 136.695" stroke="#000000" stroke-width="0.398" fill="none" /><path id="218" transform="matrix(1 0 0 -1 0 792)" d="M701.933 122.929L1086.864 122.929" stroke="#000000" stroke-width="0.398" fill="none" /><path id="219" transform="matrix(1 0 0 -1 0 792)" d="M702.132 109.163L702.132 122.73" stroke="#000000" stroke-width="0.398" fill="none" /><path id="244" transform="matrix(1 0 0 -1 0 792)" d="M829.653 113.445L832.642 113.445" stroke="#000000" stroke-width="0.398" fill="none" /><path id="252" transform="matrix(1 0 0 -1 0 792)" d="M1031.285 109.163L1031.285 122.73" stroke="#000000" stroke-width="0.398" fill="none" /><path id="254" transform="matrix(1 0 0 -1 0 792)" d="M1086.664 109.163L1086.664 122.73" stroke="#000000" stroke-width="0.398" fill="none" /><path id="255" transform="matrix(1 0 0 -1 0 792)" d="M701.933 108.964L1086.864 108.964" stroke="#000000" stroke-width="0.398" fill="none" /><path id="256" transform="matrix(1 0 0 -1 0 792)" d="M702.132 95.198L702.132 108.765" stroke="#000000" stroke-width="0.398" fill="none" /><path id="281" transform="matrix(1 0 0 -1 0 792)" d="M829.653 99.479L832.642 99.479" stroke="#000000" stroke-width="0.398" fill="none" /><path id="289" transform="matrix(1 0 0 -1 0 792)" d="M1031.285 95.198L1031.285 108.765" stroke="#000000" stroke-width="0.398" fill="none" /><path id="291" transform="matrix(1 0 0 -1 0 792)" d="M1086.664 95.198L1086.664 108.765" stroke="#000000" stroke-width="0.398" fill="none" /><path id="292" transform="matrix(1 0 0 -1 0 792)" d="M701.933 94.999L1086.864 94.999" stroke="#000000" stroke-width="0.398" fill="none" /><path id="293" transform="matrix(1 0 0 -1 0 792)" d="M702.132 81.233L702.132 94.8" stroke="#000000" stroke-width="0.398" fill="none" /><path id="319" transform="matrix(1 0 0 -1 0 792)" d="M835.63 85.514L838.619 85.514" stroke="#000000" stroke-width="0.398" fill="none" /><path id="327" transform="matrix(1 0 0 -1 0 792)" d="M881.06 85.514L884.049 85.514" stroke="#000000" stroke-width="0.398" fill="none" /><path id="333" transform="matrix(1 0 0 -1 0 792)" d="M914.534 85.514L917.523 85.514" stroke="#000000" stroke-width="0.398" fill="none" /><path id="339" transform="matrix(1 0 0 -1 0 792)" d="M1031.285 81.233L1031.285 94.8" stroke="#000000" stroke-width="0.398" fill="none" /><path id="341" transform="matrix(1 0 0 -1 0 792)" d="M1086.664 81.233L1086.664 94.8" stroke="#000000" stroke-width="0.398" fill="none" /><path id="342" transform="matrix(1 0 0 -1 0 792)" d="M701.933 81.034L1086.864 81.034" stroke="#000000" stroke-width="0.398" fill="none" /><path id="345" transform="matrix(1 0 0 -1 0 792)" d="M701.933 467.296L876.02 467.296L876.02 467.296L876.02 480.4415L876.02 480.4415L701.933 480.4415z" stroke="#FFFFFF" stroke-width="1" fill="#FFFFFF" fill-rule="nonzero" /><path id="357" transform="matrix(1 0 0 -1 0 792)" d="M701.933 353.764L1168.591 353.764L1168.591 353.764L1168.591 407.5575L1168.591 407.5575L701.933 407.5575z" stroke="#FFFFFF" stroke-width="1" fill="#FFFFFF" fill-rule="nonzero" /><path id="466" transform="matrix(1 0 0 -1 0 792)" d="M729.206 255.045L1168.59 255.045L1168.59 255.045L1168.59 279.3337L1168.59 279.3337L729.206 279.3337z" stroke="#FFFFFF" stroke-width="1" fill="#FFFFFF" fill-rule="nonzero" /><path id="516" transform="matrix(1 0 0 -1 0 792)" d="M701.933 181.935L1145.371 181.935L1145.371 181.935L1145.371 195.0805L1145.371 195.0805L701.933 195.0805z" stroke="#FFFFFF" stroke-width="1" fill="#FFFFFF" fill-rule="nonzero" /><path id="943" transform="matrix(1 0 0 -1 0 792)" d="M89.933 339.045L474.864 339.045" stroke="#000000" stroke-width="0.398" fill="none" /><path id="944" transform="matrix(1 0 0 -1 0 792)" d="M90.132 325.279L90.132 338.846" stroke="#000000" stroke-width="0.398" fill="none" /><path id="945" transform="matrix(1 0 0 -1 0 792)" d="M90.331 325.279L419.086 325.279L419.086 338.846L90.331 338.846z" stroke="none" fill="#CCCCEB" fill-rule="nonzero" /><path id="955" transform="matrix(1 0 0 -1 0 792)" d="M419.285 325.279L419.285 338.846" stroke="#000000" stroke-width="0.398" fill="none" /><path id="956" transform="matrix(1 0 0 -1 0 792)" d="M419.484 325.279L474.464 325.279L474.464 338.846L419.484 338.846z" stroke="none" fill="#CCCCEB" fill-rule="nonzero" /><path id="963" transform="matrix(1 0 0 -1 0 792)" d="M474.664 325.279L474.664 338.846" stroke="#000000" stroke-width="0.398" fill="none" /><path id="964" transform="matrix(1 0 0 -1 0 792)" d="M89.933 325.08L474.864 325.08" stroke="#000000" stroke-width="0.398" fill="none" /><path id="965" transform="matrix(1 0 0 -1 0 792)" d="M89.933 322.689L474.864 322.689" stroke="#000000" stroke-width="0.398" fill="none" /><path id="966" transform="matrix(1 0 0 -1 0 792)" d="M90.132 308.923L90.132 322.49" stroke="#000000" stroke-width="0.398" fill="none" /><path id="998" transform="matrix(1 0 0 -1 0 792)" d="M419.285 308.923L419.285 322.49" stroke="#000000" stroke-width="0.398" fill="none" /><path id="1000" transform="matrix(1 0 0 -1 0 792)" d="M474.664 308.923L474.664 322.49" stroke="#000000" stroke-width="0.398" fill="none" /><path id="1001" transform="matrix(1 0 0 -1 0 792)" d="M89.933 308.724L474.864 308.724" stroke="#000000" stroke-width="0.398" fill="none" /><path id="1198" transform="matrix(1 0 0 -1 0 792)" d="M366.71 185.199L369.699 185.199" stroke="#000000" stroke-width="0.398" fill="none" /><path id="1230" transform="matrix(1 0 0 -1 0 792)" d="M89.933 167.215L474.864 167.215" stroke="#000000" stroke-width="0.398" fill="none" /><path id="1231" transform="matrix(1 0 0 -1 0 792)" d="M90.132 153.45L90.132 167.017" stroke="#000000" stroke-width="0.398" fill="none" /><path id="1232" transform="matrix(1 0 0 -1 0 792)" d="M90.331 153.45L419.086 153.45L419.086 167.017L90.331 167.017z" stroke="none" fill="#CCCCEB" fill-rule="nonzero" /><path id="1242" transform="matrix(1 0 0 -1 0 792)" d="M419.285 153.45L419.285 167.017" stroke="#000000" stroke-width="0.398" fill="none" /><path id="1243" transform="matrix(1 0 0 -1 0 792)" d="M419.484 153.45L474.464 153.45L474.464 167.017L419.484 167.017z" stroke="none" fill="#CCCCEB" fill-rule="nonzero" /><path id="1250" transform="matrix(1 0 0 -1 0 792)" d="M474.664 153.45L474.664 167.017" stroke="#000000" stroke-width="0.398" fill="none" /><path id="1251" transform="matrix(1 0 0 -1 0 792)" d="M89.933 153.25L474.864 153.25" stroke="#000000" stroke-width="0.398" fill="none" /><path id="1252" transform="matrix(1 0 0 -1 0 792)" d="M89.933 150.859L474.864 150.859" stroke="#000000" stroke-width="0.398" fill="none" /><path id="1253" transform="matrix(1 0 0 -1 0 792)" d="M90.132 137.093L90.132 150.66" stroke="#000000" stroke-width="0.398" fill="none" /><path id="1278" transform="matrix(1 0 0 -1 0 792)" d="M419.285 137.093L419.285 150.66" stroke="#000000" stroke-width="0.398" fill="none" /><path id="1280" transform="matrix(1 0 0 -1 0 792)" d="M474.664 137.093L474.664 150.66" stroke="#000000" stroke-width="0.398" fill="none" /><path id="1281" transform="matrix(1 0 0 -1 0 792)" d="M89.933 136.894L474.864 136.894" stroke="#000000" stroke-width="0.398" fill="none" /><path id="1282" transform="matrix(1 0 0 -1 0 792)" d="M90.132 123.128L90.132 136.695" stroke="#000000" stroke-width="0.398" fill="none" /><path id="1326" transform="matrix(1 0 0 -1 0 792)" d="M419.285 123.128L419.285 136.695" stroke="#000000" stroke-width="0.398" fill="none" /><path id="1328" transform="matrix(1 0 0 -1 0 792)" d="M474.664 123.128L474.664 136.695" stroke="#000000" stroke-width="0.398" fill="none" /><path id="1329" transform="matrix(1 0 0 -1 0 792)" d="M89.933 122.929L474.864 122.929" stroke="#000000" stroke-width="0.398" fill="none" /><path id="1330" transform="matrix(1 0 0 -1 0 792)" d="M90.132 109.163L90.132 122.73" stroke="#000000" stroke-width="0.398" fill="none" /><path id="1355" transform="matrix(1 0 0 -1 0 792)" d="M217.653 113.445L220.642 113.445" stroke="#000000" stroke-width="0.398" fill="none" /><path id="1363" transform="matrix(1 0 0 -1 0 792)" d="M419.285 109.163L419.285 122.73" stroke="#000000" stroke-width="0.398" fill="none" /><path id="1365" transform="matrix(1 0 0 -1 0 792)" d="M474.664 109.163L474.664 122.73" stroke="#000000" stroke-width="0.398" fill="none" /><path id="1366" transform="matrix(1 0 0 -1 0 792)" d="M89.933 108.964L474.864 108.964" stroke="#000000" stroke-width="0.398" fill="none" /><path id="1367" transform="matrix(1 0 0 -1 0 792)" d="M90.132 95.198L90.132 108.765" stroke="#000000" stroke-width="0.398" fill="none" /><path id="1392" transform="matrix(1 0 0 -1 0 792)" d="M217.653 99.479L220.642 99.479" stroke="#000000" stroke-width="0.398" fill="none" /><path id="1400" transform="matrix(1 0 0 -1 0 792)" d="M419.285 95.198L419.285 108.765" stroke="#000000" stroke-width="0.398" fill="none" /><path id="1402" transform="matrix(1 0 0 -1 0 792)" d="M474.664 95.198L474.664 108.765" stroke="#000000" stroke-width="0.398" fill="none" /><path id="1403" transform="matrix(1 0 0 -1 0 792)" d="M89.933 94.999L474.864 94.999" stroke="#000000" stroke-width="0.398" fill="none" /><path id="1404" transform="matrix(1 0 0 -1 0 792)" d="M90.132 81.233L90.132 94.8" stroke="#000000" stroke-width="0.398" fill="none" /><path id="1430" transform="matrix(1 0 0 -1 0 792)" d="M223.63 85.514L226.619 85.514" stroke="#000000" stroke-width="0.398" fill="none" /><path id="1438" transform="matrix(1 0 0 -1 0 792)" d="M269.06 85.514L272.049 85.514" stroke="#000000" stroke-width="0.398" fill="none" /><path id="1444" transform="matrix(1 0 0 -1 0 792)" d="M302.534 85.514L305.523 85.514" stroke="#000000" stroke-width="0.398" fill="none" /><path id="1450" transform="matrix(1 0 0 -1 0 792)" d="M419.285 81.233L419.285 94.8" stroke="#000000" stroke-width="0.398" fill="none" /><path id="1452" transform="matrix(1 0 0 -1 0 792)" d="M474.664 81.233L474.664 94.8" stroke="#000000" stroke-width="0.398" fill="none" /><path id="1453" transform="matrix(1 0 0 -1 0 792)" d="M89.933 81.034L474.864 81.034" stroke="#000000" stroke-width="0.398" fill="none" /></g></g></svg>