<svg xmlns="http://www.w3.org/2000/svg" xmlns:xlink="http://www.w3.org/1999/xlink" id="body_43" preserveAspectRatio="xMinYMin meet" viewBox="0 0 1632 1056"><defs><clipPath id="1"><path id="" clip-rule="evenodd" transform="matrix(1 0 0 1 0 0)" d="M0 792L0 0L0 0L1224 0L1224 0L1224 792L1224 792L0 792z" /></clipPath></defs><g transform="matrix(1.333333 0 0 1.333333 0 0)"><g clip-path="url(#1)"><path id="1" transform="matrix(1 0 0 -1 0 792)" d="M701.933 721.28L1168.588 721.28" stroke="#000000" stroke-width="0.498" fill="none" /><path id="2" transform="matrix(1 0 0 -1 0 792)" d="M828.557 626.555L831.546 626.555" stroke="#000000" stroke-width="0.398" fill="none" /><path id="3" transform="matrix(1 0 0 -1 0 792)" d="M850.076 626.555L853.065 626.555" stroke="#000000" stroke-width="0.398" fill="none" /><path id="4" transform="matrix(1 0 0 -1 0 792)" d="M795.557 613.006L798.546 613.006" stroke="#000000" stroke-width="0.398" fill="none" /><path id="5" transform="matrix(1 0 0 -1 0 792)" d="M858.919 613.006L861.908 613.006" stroke="#000000" stroke-width="0.398" fill="none" /><path id="6" transform="matrix(1 0 0 -1 0 792)" d="M904.349 613.006L907.338 613.006" stroke="#000000" stroke-width="0.398" fill="none" /><path id="7" transform="matrix(1 0 0 -1 0 792)" d="M831.723 577.816L834.712 577.816" stroke="#000000" stroke-width="0.398" fill="none" /><path id="8" transform="matrix(1 0 0 -1 0 792)" d="M853.242 577.816L856.231 577.816" stroke="#000000" stroke-width="0.398" fill="none" /><path id="9" transform="matrix(1 0 0 -1 0 792)" d="M1081.577 577.816L1084.566 577.816" stroke="#000000" stroke-width="0.398" fill="none" /><path id="10" transform="matrix(1 0 0 -1 0 792)" d="M1121.029 577.816L1124.018 577.816" stroke="#000000" stroke-width="0.398" fill="none" /><path id="11" transform="matrix(1 0 0 -1 0 792)" d="M771.646 564.267L774.635 564.267" stroke="#000000" stroke-width="0.398" fill="none" /><path id="12" transform="matrix(1 0 0 -1 0 792)" d="M811.098 564.267L814.087 564.267" stroke="#000000" stroke-width="0.398" fill="none" /><path id="13" transform="matrix(1 0 0 -1 0 792)" d="M891.378 564.267L894.367 564.267" stroke="#000000" stroke-width="0.398" fill="none" /><path id="14" transform="matrix(1 0 0 -1 0 792)" d="M930.83 564.267L933.819 564.267" stroke="#000000" stroke-width="0.398" fill="none" /><path id="15" transform="matrix(1 0 0 -1 0 792)" d="M1028.41 564.267L1031.399 564.267" stroke="#000000" stroke-width="0.398" fill="none" /><path id="16" transform="matrix(1 0 0 -1 0 792)" d="M1067.862 564.267L1070.851 564.267" stroke="#000000" stroke-width="0.398" fill="none" /><path id="17" transform="matrix(1 0 0 -1 0 792)" d="M807.939 550.717L810.928 550.717" stroke="#000000" stroke-width="0.398" fill="none" /><path id="18" transform="matrix(1 0 0 -1 0 792)" d="M871.301 550.717L874.29 550.717" stroke="#000000" stroke-width="0.398" fill="none" /><path id="19" transform="matrix(1 0 0 -1 0 792)" d="M916.731 550.717L919.72 550.717" stroke="#000000" stroke-width="0.398" fill="none" /><path id="48" transform="matrix(1 0 0 -1 0 792)" d="M1086.864 305.533L1089.853 305.533" stroke="#000000" stroke-width="0.398" fill="none" /><path id="49" transform="matrix(1 0 0 -1 0 792)" d="M914.217 256.794L917.206 256.794" stroke="#000000" stroke-width="0.398" fill="none" /><path id="50" transform="matrix(1 0 0 -1 0 792)" d="M926.172 221.604L929.161 221.604" stroke="#000000" stroke-width="0.398" fill="none" /><path id="84" transform="matrix(1 0 0 -1 0 792)" d="M829.839 171.619L832.828 171.619" stroke="#000000" stroke-width="0.398" fill="none" /><path id="85" transform="matrix(1 0 0 -1 0 792)" d="M893.201 171.619L896.19 171.619" stroke="#000000" stroke-width="0.398" fill="none" /><path id="86" transform="matrix(1 0 0 -1 0 792)" d="M932.653 171.619L935.642 171.619" stroke="#000000" stroke-width="0.398" fill="none" /><path id="87" transform="matrix(1 0 0 -1 0 792)" d="M780.092 117.422L783.081 117.422" stroke="#000000" stroke-width="0.398" fill="none" /><path id="88" transform="matrix(1 0 0 -1 0 792)" d="M843.454 117.422L846.443 117.422" stroke="#000000" stroke-width="0.398" fill="none" /><path id="89" transform="matrix(1 0 0 -1 0 792)" d="M882.906 117.422L885.895 117.422" stroke="#000000" stroke-width="0.398" fill="none" /><path id="90" transform="matrix(1 0 0 -1 0 792)" d="M1096.259 80.994L1099.248 80.994" stroke="#000000" stroke-width="0.398" fill="none" /><path id="91" transform="matrix(1 0 0 -1 0 792)" d="M1159.621 80.994L1162.61 80.994" stroke="#000000" stroke-width="0.398" fill="none" /><path id="92" transform="matrix(1 0 0 -1 0 792)" d="M765.669 67.444L768.658 67.444" stroke="#000000" stroke-width="0.398" fill="none" /><path id="93" transform="matrix(1 0 0 -1 0 792)" d="M987.383 67.444L990.372 67.444" stroke="#000000" stroke-width="0.398" fill="none" /><path id="94" transform="matrix(1 0 0 -1 0 792)" d="M1050.746 67.444L1053.735 67.444" stroke="#000000" stroke-width="0.398" fill="none" /><path id="95" transform="matrix(1 0 0 -1 0 792)" d="M1090.198 67.444L1093.187 67.444" stroke="#000000" stroke-width="0.398" fill="none" /><path id="96" transform="matrix(1 0 0 -1 0 792)" d="M701.933 722.529L1168.588 722.529L1168.588 722.529L1168.588 735.6745L1168.588 735.6745L701.933 735.6745z" stroke="#FFFFFF" stroke-width="1" fill="#FFFFFF" fill-rule="nonzero" /><path id="109" transform="matrix(1 0 0 -1 0 792)" d="M718.296 675.191L1168.592 675.191L1168.592 675.191L1168.592 695.7437L1168.592 695.7437L718.296 695.7437z" stroke="#FFFFFF" stroke-width="1" fill="#FFFFFF" fill-rule="nonzero" /><path id="136" transform="matrix(1 0 0 -1 0 792)" d="M729.206 668.395L919.163 668.395L919.163 668.395L919.163 682.5877L919.163 682.5877L729.206 682.5877z" stroke="#FFFFFF" stroke-width="1" fill="#FFFFFF" fill-rule="nonzero" /><path id="151" transform="matrix(1 0 0 -1 0 792)" d="M718.869 646.17L930.385 646.17L930.385 646.17L930.385 659.3155L930.385 659.3155L718.869 659.3155z" stroke="#FFFFFF" stroke-width="1" fill="#FFFFFF" fill-rule="nonzero" /><path id="163" transform="matrix(1 0 0 -1 0 792)" d="M718.296 615.883L1168.587 615.883L1168.587 615.883L1168.587 636.8285L1168.587 636.8285L718.296 636.8285z" stroke="#FFFFFF" stroke-width="1" fill="#FFFFFF" fill-rule="nonzero" /><path id="207" transform="matrix(1 0 0 -1 0 792)" d="M729.206 595.537L1168.585 595.537L1168.585 595.537L1168.585 623.2788L1168.585 623.2788L729.206 623.2788z" stroke="#FFFFFF" stroke-width="1" fill="#FFFFFF" fill-rule="nonzero" /><path id="244" transform="matrix(1 0 0 -1 0 792)" d="M718.296 567.144L1168.588 567.144L1168.588 567.144L1168.588 588.0894L1168.588 588.0894L718.296 588.0894z" stroke="#FFFFFF" stroke-width="1" fill="#FFFFFF" fill-rule="nonzero" /><path id="293" transform="matrix(1 0 0 -1 0 792)" d="M729.206 533.249L1168.592 533.249L1168.592 533.249L1168.592 574.147L1168.592 574.147L729.206 574.147z" stroke="#FFFFFF" stroke-width="1" fill="#FFFFFF" fill-rule="nonzero" /><path id="413" transform="matrix(1 0 0 -1 0 792)" d="M718.869 510.369L1168.584 510.369L1168.584 510.369L1168.584 524.5618L1168.584 524.5618L718.869 524.5618z" stroke="#FFFFFF" stroke-width="1" fill="#FFFFFF" fill-rule="nonzero" /><path id="444" transform="matrix(1 0 0 -1 0 792)" d="M701.933 483.926L1168.59 483.926L1168.59 483.926L1168.59 511.0132L1168.59 511.0132L701.933 511.0132z" stroke="#FFFFFF" stroke-width="1" fill="#FFFFFF" fill-rule="nonzero" /><path id="496" transform="matrix(1 0 0 -1 0 792)" d="M701.933 365.795L1168.591 365.795L1168.591 365.795L1168.591 446.6865L1168.591 446.6865L701.933 446.6865z" stroke="#FFFFFF" stroke-width="1" fill="#FFFFFF" fill-rule="nonzero" /><path id="668" transform="matrix(1 0 0 -1 0 792)" d="M718.869 352.246L1168.585 352.246L1168.585 352.246L1168.585 365.3915L1168.585 365.3915L718.869 365.3915z" stroke="#FFFFFF" stroke-width="1" fill="#FFFFFF" fill-rule="nonzero" /><path id="695" transform="matrix(1 0 0 -1 0 792)" d="M701.933 325.148L1168.591 325.148L1168.591 325.148L1168.591 351.8425L1168.591 351.8425L701.933 351.8425z" stroke="#FFFFFF" stroke-width="1" fill="#FFFFFF" fill-rule="nonzero" /><path id="724" transform="matrix(1 0 0 -1 0 792)" d="M718.296 294.861L1168.583 294.861L1168.583 294.861L1168.583 315.4139L1168.583 315.4139L718.296 315.4139z" stroke="#FFFFFF" stroke-width="1" fill="#FFFFFF" fill-rule="nonzero" /><path id="765" transform="matrix(1 0 0 -1 0 792)" d="M729.206 288.72L1018.919 288.72L1018.919 288.72L1018.919 301.8655L1018.919 301.8655L729.206 301.8655z" stroke="#FFFFFF" stroke-width="1" fill="#FFFFFF" fill-rule="nonzero" /><path id="784" transform="matrix(1 0 0 -1 0 792)" d="M718.296 259.671L1168.588 259.671L1168.588 259.671L1168.588 280.2237L1168.588 280.2237L718.296 280.2237z" stroke="#FFFFFF" stroke-width="1" fill="#FFFFFF" fill-rule="nonzero" /><path id="797" transform="matrix(1 0 0 -1 0 792)" d="M729.206 253.53L1159.01 253.53L1159.01 253.53L1159.01 266.6755L1159.01 266.6755L729.206 266.6755z" stroke="#FFFFFF" stroke-width="1" fill="#FFFFFF" fill-rule="nonzero" /><path id="838" transform="matrix(1 0 0 -1 0 792)" d="M718.296 224.481L1168.59 224.481L1168.59 224.481L1168.59 245.0337L1168.59 245.0337L718.296 245.0337z" stroke="#FFFFFF" stroke-width="1" fill="#FFFFFF" fill-rule="nonzero" /><path id="873" transform="matrix(1 0 0 -1 0 792)" d="M729.205 218.34L1145.321 218.34L1145.321 218.34L1145.321 231.4855L1145.321 231.4855L729.205 231.4855z" stroke="#FFFFFF" stroke-width="1" fill="#FFFFFF" fill-rule="nonzero" /><path id="909" transform="matrix(1 0 0 -1 0 792)" d="M701.933 141.256L1168.588 141.256L1168.588 141.256L1168.588 181.5005L1168.588 181.5005L701.933 181.5005z" stroke="#FFFFFF" stroke-width="1" fill="#FFFFFF" fill-rule="nonzero" /><path id="1027" transform="matrix(1 0 0 -1 0 792)" d="M718.869 127.707L1168.583 127.707L1168.583 127.707L1168.583 140.8525L1168.583 140.8525L718.869 140.8525z" stroke="#FFFFFF" stroke-width="1" fill="#FFFFFF" fill-rule="nonzero" /><path id="1054" transform="matrix(1 0 0 -1 0 792)" d="M701.933 100.609L1168.588 100.609L1168.588 100.609L1168.588 127.3035L1168.588 127.3035L701.933 127.3035z" stroke="#FFFFFF" stroke-width="1" fill="#FFFFFF" fill-rule="nonzero" /><path id="1113" transform="matrix(1 0 0 -1 0 792)" d="M718.296 70.3213L1168.588 70.3213L1168.588 70.3213L1168.588 90.87399L1168.588 90.87399L718.296 90.87399z" stroke="#FFFFFF" stroke-width="1" fill="#FFFFFF" fill-rule="nonzero" /><path id="1155" transform="matrix(1 0 0 -1 0 792)" d="M729.206 64.1796L1119.824 64.1796L1119.824 64.1796L1119.824 77.3251L1119.824 77.3251L729.206 77.3251z" stroke="#FFFFFF" stroke-width="1" fill="#FFFFFF" fill-rule="nonzero" /><path id="1261" transform="matrix(1 0 0 -1 0 792)" d="M89.933 721.28L556.588 721.28" stroke="#000000" stroke-width="0.498" fill="none" /><path id="1444" transform="matrix(1 0 0 -1 0 792)" d="M216.557 626.555L219.546 626.555" stroke="#000000" stroke-width="0.398" fill="none" /><path id="1448" transform="matrix(1 0 0 -1 0 792)" d="M238.076 626.555L241.065 626.555" stroke="#000000" stroke-width="0.398" fill="none" /><path id="1514" transform="matrix(1 0 0 -1 0 792)" d="M183.557 613.006L186.546 613.006" stroke="#000000" stroke-width="0.398" fill="none" /><path id="1525" transform="matrix(1 0 0 -1 0 792)" d="M246.919 613.006L249.908 613.006" stroke="#000000" stroke-width="0.398" fill="none" /><path id="1533" transform="matrix(1 0 0 -1 0 792)" d="M292.349 613.006L295.338 613.006" stroke="#000000" stroke-width="0.398" fill="none" /><path id="1613" transform="matrix(1 0 0 -1 0 792)" d="M219.723 577.816L222.712 577.816" stroke="#000000" stroke-width="0.398" fill="none" /><path id="1617" transform="matrix(1 0 0 -1 0 792)" d="M241.242 577.816L244.231 577.816" stroke="#000000" stroke-width="0.398" fill="none" /><path id="1655" transform="matrix(1 0 0 -1 0 792)" d="M469.577 577.816L472.566 577.816" stroke="#000000" stroke-width="0.398" fill="none" /><path id="1662" transform="matrix(1 0 0 -1 0 792)" d="M509.029 577.816L512.018 577.816" stroke="#000000" stroke-width="0.398" fill="none" /><path id="1678" transform="matrix(1 0 0 -1 0 792)" d="M159.646 564.267L162.635 564.267" stroke="#000000" stroke-width="0.398" fill="none" /><path id="1685" transform="matrix(1 0 0 -1 0 792)" d="M199.098 564.267L202.087 564.267" stroke="#000000" stroke-width="0.398" fill="none" /><path id="1699" transform="matrix(1 0 0 -1 0 792)" d="M279.378 564.267L282.367 564.267" stroke="#000000" stroke-width="0.398" fill="none" /><path id="1706" transform="matrix(1 0 0 -1 0 792)" d="M318.83 564.267L321.819 564.267" stroke="#000000" stroke-width="0.398" fill="none" /><path id="1723" transform="matrix(1 0 0 -1 0 792)" d="M416.41 564.267L419.399 564.267" stroke="#000000" stroke-width="0.398" fill="none" /><path id="1730" transform="matrix(1 0 0 -1 0 792)" d="M455.862 564.267L458.851 564.267" stroke="#000000" stroke-width="0.398" fill="none" /><path id="1762" transform="matrix(1 0 0 -1 0 792)" d="M195.939 550.717L198.928 550.717" stroke="#000000" stroke-width="0.398" fill="none" /><path id="1773" transform="matrix(1 0 0 -1 0 792)" d="M259.301 550.717L262.29 550.717" stroke="#000000" stroke-width="0.398" fill="none" /><path id="1781" transform="matrix(1 0 0 -1 0 792)" d="M304.731 550.717L307.72 550.717" stroke="#000000" stroke-width="0.398" fill="none" /><path id="2868" transform="matrix(1 0 0 -1 0 792)" d="M474.864 305.533L477.853 305.533" stroke="#000000" stroke-width="0.398" fill="none" /><path id="3062" transform="matrix(1 0 0 -1 0 792)" d="M302.217 256.794L305.206 256.794" stroke="#000000" stroke-width="0.398" fill="none" /><path id="3234" transform="matrix(1 0 0 -1 0 792)" d="M314.172 221.604L317.161 221.604" stroke="#000000" stroke-width="0.398" fill="none" /><path id="3334" transform="matrix(1 0 0 -1 0 792)" d="M217.839 171.619L220.828 171.619" stroke="#000000" stroke-width="0.398" fill="none" /><path id="3345" transform="matrix(1 0 0 -1 0 792)" d="M281.201 171.619L284.19 171.619" stroke="#000000" stroke-width="0.398" fill="none" /><path id="3352" transform="matrix(1 0 0 -1 0 792)" d="M320.653 171.619L323.642 171.619" stroke="#000000" stroke-width="0.398" fill="none" /><path id="3677" transform="matrix(1 0 0 -1 0 792)" d="M168.092 117.422L171.081 117.422" stroke="#000000" stroke-width="0.398" fill="none" /><path id="3688" transform="matrix(1 0 0 -1 0 792)" d="M231.454 117.422L234.443 117.422" stroke="#000000" stroke-width="0.398" fill="none" /><path id="3695" transform="matrix(1 0 0 -1 0 792)" d="M270.906 117.422L273.895 117.422" stroke="#000000" stroke-width="0.398" fill="none" /><path id="3851" transform="matrix(1 0 0 -1 0 792)" d="M484.259 80.994L487.248 80.994" stroke="#000000" stroke-width="0.398" fill="none" /><path id="3862" transform="matrix(1 0 0 -1 0 792)" d="M547.621 80.994L550.61 80.994" stroke="#000000" stroke-width="0.398" fill="none" /><path id="3870" transform="matrix(1 0 0 -1 0 792)" d="M153.669 67.444L156.658 67.444" stroke="#000000" stroke-width="0.398" fill="none" /><path id="3909" transform="matrix(1 0 0 -1 0 792)" d="M375.383 67.444L378.372 67.444" stroke="#000000" stroke-width="0.398" fill="none" /><path id="3920" transform="matrix(1 0 0 -1 0 792)" d="M438.746 67.444L441.735 67.444" stroke="#000000" stroke-width="0.398" fill="none" /><path id="3927" transform="matrix(1 0 0 -1 0 792)" d="M478.198 67.444L481.187 67.444" stroke="#000000" stroke-width="0.398" fill="none" /></g></g></svg>