<svg xmlns="http://www.w3.org/2000/svg" xmlns:xlink="http://www.w3.org/1999/xlink" id="body_45" preserveAspectRatio="xMinYMin meet" viewBox="0 0 1632 1056"><defs><clipPath id="1"><path id="" clip-rule="evenodd" transform="matrix(1 0 0 1 0 0)" d="M0 792L0 0L0 0L1224 0L1224 0L1224 792L1224 792L0 792z" /></clipPath></defs><g transform="matrix(1.333333 0 0 1.333333 0 0)"><g clip-path="url(#1)"><path id="1" transform="matrix(1 0 0 -1 0 792)" d="M701.933 721.28L1168.588 721.28" stroke="#000000" stroke-width="0.498" fill="none" /><path id="2" transform="matrix(1 0 0 -1 0 792)" d="M802.623 685.863L805.612 685.863" stroke="#000000" stroke-width="0.398" fill="none" /><path id="3" transform="matrix(1 0 0 -1 0 792)" d="M978.685 672.314L981.674 672.314" stroke="#000000" stroke-width="0.398" fill="none" /><path id="43" transform="matrix(1 0 0 -1 0 792)" d="M900.454 551.632L903.443 551.632" stroke="#000000" stroke-width="0.398" fill="none" /><path id="62" transform="matrix(1 0 0 -1 0 792)" d="M925.624 496.746L928.613 496.746" stroke="#000000" stroke-width="0.398" fill="none" /><path id="63" transform="matrix(1 0 0 -1 0 792)" d="M768.297 400.224L771.286 400.224" stroke="#000000" stroke-width="0.398" fill="none" /><path id="64" transform="matrix(1 0 0 -1 0 792)" d="M837.637 400.224L840.626 400.224" stroke="#000000" stroke-width="0.398" fill="none" /><path id="65" transform="matrix(1 0 0 -1 0 792)" d="M883.888 330.403L886.877 330.403" stroke="#000000" stroke-width="0.398" fill="none" /><path id="66" transform="matrix(1 0 0 -1 0 792)" d="M814.4 302.615L817.389 302.615" stroke="#000000" stroke-width="0.398" fill="none" /><path id="83" transform="matrix(1 0 0 -1 0 792)" d="M813.427 274.827L816.416 274.827" stroke="#000000" stroke-width="0.398" fill="none" /><path id="84" transform="matrix(1 0 0 -1 0 792)" d="M814.322 247.039L817.311 247.039" stroke="#000000" stroke-width="0.398" fill="none" /><path id="85" transform="matrix(1 0 0 -1 0 792)" d="M1179.748 233.489L1182.737 233.489" stroke="#000000" stroke-width="0.398" fill="none" /><path id="86" transform="matrix(1 0 0 -1 0 792)" d="M797.037 150.119L800.026 150.119" stroke="#000000" stroke-width="0.398" fill="none" /><path id="87" transform="matrix(1 0 0 -1 0 792)" d="M701.933 722.529L1168.588 722.529L1168.588 722.529L1168.588 735.6745L1168.588 735.6745L701.933 735.6745z" stroke="#FFFFFF" stroke-width="1" fill="#FFFFFF" fill-rule="nonzero" /><path id="100" transform="matrix(1 0 0 -1 0 792)" d="M701.933 668.395L1168.591 668.395L1168.591 668.395L1168.591 696.1367L1168.591 696.1367L701.933 696.1367z" stroke="#FFFFFF" stroke-width="1" fill="#FFFFFF" fill-rule="nonzero" /><path id="181" transform="matrix(1 0 0 -1 0 792)" d="M718.869 654.811L1168.588 654.811L1168.588 654.811L1168.588 667.9565L1168.588 667.9565L718.869 667.9565z" stroke="#FFFFFF" stroke-width="1" fill="#FFFFFF" fill-rule="nonzero" /><path id="208" transform="matrix(1 0 0 -1 0 792)" d="M701.933 614.162L1168.591 614.162L1168.591 614.162L1168.591 654.4065L1168.591 654.4065L701.933 654.4065z" stroke="#FFFFFF" stroke-width="1" fill="#FFFFFF" fill-rule="nonzero" /><path id="295" transform="matrix(1 0 0 -1 0 792)" d="M718.869 548.036L1168.589 548.036L1168.589 548.036L1168.589 561.5132L1168.589 561.5132L718.869 561.5132z" stroke="#FFFFFF" stroke-width="1" fill="#FFFFFF" fill-rule="nonzero" /><path id="353" transform="matrix(1 0 0 -1 0 792)" d="M718.869 520.579L1168.591 520.579L1168.591 520.579L1168.591 533.7245L1168.591 533.7245L718.869 533.7245z" stroke="#FFFFFF" stroke-width="1" fill="#FFFFFF" fill-rule="nonzero" /><path id="385" transform="matrix(1 0 0 -1 0 792)" d="M701.9329 493.481L1168.591 493.481L1168.591 493.481L1168.591 520.1765L1168.591 520.1765L701.9329 520.1765z" stroke="#FFFFFF" stroke-width="1" fill="#FFFFFF" fill-rule="nonzero" /><path id="446" transform="matrix(1 0 0 -1 0 792)" d="M701.933 459.235L1006.886 459.235L1006.886 459.235L1006.886 473.4278L1006.886 473.4278L701.933 473.4278z" stroke="#FFFFFF" stroke-width="1" fill="#FFFFFF" fill-rule="nonzero" /><path id="462" transform="matrix(1 0 0 -1 0 792)" d="M701.933 396.959L1168.591 396.959L1168.591 396.959L1168.591 450.7525L1168.591 450.7525L701.933 450.7525z" stroke="#FFFFFF" stroke-width="1" fill="#FFFFFF" fill-rule="nonzero" /><path id="622" transform="matrix(1 0 0 -1 0 792)" d="M701.933 361.958L1061.928 361.958L1061.928 361.958L1061.928 377.5117L1061.928 377.5117L701.933 377.5117z" stroke="#FFFFFF" stroke-width="1" fill="#FFFFFF" fill-rule="nonzero" /><path id="645" transform="matrix(1 0 0 -1 0 792)" d="M701.933 313.589L1168.591 313.589L1168.591 313.589L1168.591 353.8335L1168.591 353.8335L701.933 353.8335z" stroke="#FFFFFF" stroke-width="1" fill="#FFFFFF" fill-rule="nonzero" /><path id="740" transform="matrix(1 0 0 -1 0 792)" d="M718.869 299.35L1168.589 299.35L1168.589 299.35L1168.589 312.4964L1168.589 312.4964L718.869 312.4964z" stroke="#FFFFFF" stroke-width="1" fill="#FFFFFF" fill-rule="nonzero" /><path id="783" transform="matrix(1 0 0 -1 0 792)" d="M718.869 271.562L1168.585 271.562L1168.585 271.562L1168.585 284.7075L1168.585 284.7075L718.869 284.7075z" stroke="#FFFFFF" stroke-width="1" fill="#FFFFFF" fill-rule="nonzero" /><path id="826" transform="matrix(1 0 0 -1 0 792)" d="M701.933 258.013L1052.846 258.013L1052.846 258.013L1052.846 271.1585L1052.846 271.1585L701.933 271.1585z" stroke="#FFFFFF" stroke-width="1" fill="#FFFFFF" fill-rule="nonzero" /><path id="850" transform="matrix(1 0 0 -1 0 792)" d="M718.869 243.774L1168.587 243.774L1168.587 243.774L1168.587 256.9195L1168.587 256.9195L718.869 256.9195z" stroke="#FFFFFF" stroke-width="1" fill="#FFFFFF" fill-rule="nonzero" /><path id="898" transform="matrix(1 0 0 -1 0 792)" d="M701.933 203.127L1188.715 203.127L1188.715 203.127L1188.715 243.3705L1188.715 243.3705L701.933 243.3705z" stroke="#FFFFFF" stroke-width="1" fill="#FFFFFF" fill-rule="nonzero" /><path id="978" transform="matrix(1 0 0 -1 0 792)" d="M701.933 168.125L1022.392 168.125L1022.392 168.125L1022.392 183.6787L1022.392 183.6787L701.933 183.6787z" stroke="#FFFFFF" stroke-width="1" fill="#FFFFFF" fill-rule="nonzero" /><path id="999" transform="matrix(1 0 0 -1 0 792)" d="M701.933 119.756L1168.592 119.756L1168.592 119.756L1168.592 160.0005L1168.592 160.0005L701.933 160.0005z" stroke="#FFFFFF" stroke-width="1" fill="#FFFFFF" fill-rule="nonzero" /><path id="1079" transform="matrix(1 0 0 -1 0 792)" d="M718.869 104.953L1168.591 104.953L1168.591 104.953L1168.591 118.6616L1168.591 118.6616L718.869 118.6616z" stroke="#FFFFFF" stroke-width="1" fill="#FFFFFF" fill-rule="nonzero" /><path id="1110" transform="matrix(1 0 0 -1 0 792)" d="M701.933 91.9676L946.253 91.9676L946.253 91.9676L946.253 105.1131L946.253 105.1131L701.933 105.1131z" stroke="#FFFFFF" stroke-width="1" fill="#FFFFFF" fill-rule="nonzero" /><path id="1126" transform="matrix(1 0 0 -1 0 792)" d="M718.869 77.1655L1168.589 77.1655L1168.589 77.1655L1168.589 90.8741L1168.589 90.8741L718.869 90.8741z" stroke="#FFFFFF" stroke-width="1" fill="#FFFFFF" fill-rule="nonzero" /><path id="1154" transform="matrix(1 0 0 -1 0 792)" d="M701.933 64.1796L941.89 64.1796L941.89 64.1796L941.89 77.3251L941.89 77.3251L701.933 77.3251z" stroke="#FFFFFF" stroke-width="1" fill="#FFFFFF" fill-rule="nonzero" /><path id="1231" transform="matrix(1 0 0 -1 0 792)" d="M89.933 721.28L556.588 721.28" stroke="#000000" stroke-width="0.498" fill="none" /><path id="1250" transform="matrix(1 0 0 -1 0 792)" d="M190.623 685.863L193.612 685.863" stroke="#000000" stroke-width="0.398" fill="none" /><path id="1365" transform="matrix(1 0 0 -1 0 792)" d="M366.685 672.314L369.674 672.314" stroke="#000000" stroke-width="0.398" fill="none" /><path id="1798" transform="matrix(1 0 0 -1 0 792)" d="M288.454 551.632L291.443 551.632" stroke="#000000" stroke-width="0.398" fill="none" /><path id="2085" transform="matrix(1 0 0 -1 0 792)" d="M313.624 496.746L316.613 496.746" stroke="#000000" stroke-width="0.398" fill="none" /><path id="2433" transform="matrix(1 0 0 -1 0 792)" d="M156.297 400.224L159.286 400.224" stroke="#000000" stroke-width="0.398" fill="none" /><path id="2445" transform="matrix(1 0 0 -1 0 792)" d="M225.637 400.224L228.626 400.224" stroke="#000000" stroke-width="0.398" fill="none" /><path id="2685" transform="matrix(1 0 0 -1 0 792)" d="M271.888 330.403L274.877 330.403" stroke="#000000" stroke-width="0.398" fill="none" /><path id="2812" transform="matrix(1 0 0 -1 0 792)" d="M202.4 302.615L205.389 302.615" stroke="#000000" stroke-width="0.398" fill="none" /><path id="2912" transform="matrix(1 0 0 -1 0 792)" d="M201.427 274.827L204.416 274.827" stroke="#000000" stroke-width="0.398" fill="none" /><path id="3068" transform="matrix(1 0 0 -1 0 792)" d="M202.322 247.039L205.311 247.039" stroke="#000000" stroke-width="0.398" fill="none" /><path id="3230" transform="matrix(1 0 0 -1 0 792)" d="M567.748 233.489L570.737 233.489" stroke="#000000" stroke-width="0.398" fill="none" /><path id="3416" transform="matrix(1 0 0 -1 0 792)" d="M185.037 150.119L188.026 150.119" stroke="#000000" stroke-width="0.398" fill="none" /></g></g></svg>