<svg xmlns="http://www.w3.org/2000/svg" xmlns:xlink="http://www.w3.org/1999/xlink" id="body_13" preserveAspectRatio="xMinYMin meet" viewBox="0 0 1632 1056"><defs><clipPath id="1"><path id="" clip-rule="evenodd" transform="matrix(1 0 0 1 0 0)" d="M0 792L0 0L0 0L1224 0L1224 0L1224 792L1224 792L0 792z" /></clipPath></defs><g transform="matrix(1.333333 0 0 1.333333 0 0)"><g clip-path="url(#1)"><path id="17" transform="matrix(1 0 0 -1 0 792)" d="M701.933 721.28L1168.588 721.28" stroke="#000000" stroke-width="0.498" fill="none" /><path id="18" transform="matrix(1 0 0 -1 0 792)" d="M742.795 696.423L1127.726 696.423" stroke="#000000" stroke-width="0.398" fill="none" /><path id="19" transform="matrix(1 0 0 -1 0 792)" d="M742.795 696.423L1127.726 696.423" stroke="#000000" stroke-width="0.398" fill="none" /><path id="20" transform="matrix(1 0 0 -1 0 792)" d="M742.994 682.658L742.994 696.225" stroke="#000000" stroke-width="0.398" fill="none" /><path id="21" transform="matrix(1 0 0 -1 0 792)" d="M743.193 682.658L1071.948 682.658L1071.948 696.225L743.193 696.225z" stroke="none" fill="#CCCCEB" fill-rule="nonzero" /><path id="31" transform="matrix(1 0 0 -1 0 792)" d="M1072.147 682.658L1072.147 696.225" stroke="#000000" stroke-width="0.398" fill="none" /><path id="32" transform="matrix(1 0 0 -1 0 792)" d="M1072.347 682.658L1127.327 682.658L1127.327 696.225L1072.347 696.225z" stroke="none" fill="#CCCCEB" fill-rule="nonzero" /><path id="39" transform="matrix(1 0 0 -1 0 792)" d="M1127.526 682.658L1127.526 696.225" stroke="#000000" stroke-width="0.398" fill="none" /><path id="40" transform="matrix(1 0 0 -1 0 792)" d="M742.795 682.458L1127.726 682.458" stroke="#000000" stroke-width="0.398" fill="none" /><path id="41" transform="matrix(1 0 0 -1 0 792)" d="M742.795 682.458L1127.726 682.458" stroke="#000000" stroke-width="0.398" fill="none" /><path id="42" transform="matrix(1 0 0 -1 0 792)" d="M742.795 682.06L1127.726 682.06" stroke="#000000" stroke-width="0.398" fill="none" /><path id="43" transform="matrix(1 0 0 -1 0 792)" d="M742.795 682.06L1127.726 682.06" stroke="#000000" stroke-width="0.398" fill="none" /><path id="44" transform="matrix(1 0 0 -1 0 792)" d="M742.795 682.06L1127.726 682.06" stroke="#000000" stroke-width="0.398" fill="none" /><path id="45" transform="matrix(1 0 0 -1 0 792)" d="M742.994 654.762L742.994 681.86" stroke="#000000" stroke-width="0.398" fill="none" /><path id="99" transform="matrix(1 0 0 -1 0 792)" d="M1072.147 654.762L1072.147 681.86" stroke="#000000" stroke-width="0.398" fill="none" /><path id="101" transform="matrix(1 0 0 -1 0 792)" d="M1127.526 654.762L1127.526 681.86" stroke="#000000" stroke-width="0.398" fill="none" /><path id="102" transform="matrix(1 0 0 -1 0 792)" d="M742.795 654.563L1127.726 654.563" stroke="#000000" stroke-width="0.398" fill="none" /><path id="103" transform="matrix(1 0 0 -1 0 792)" d="M742.795 654.563L1127.726 654.563" stroke="#000000" stroke-width="0.398" fill="none" /><path id="104" transform="matrix(1 0 0 -1 0 792)" d="M742.994 640.797L742.994 654.364" stroke="#000000" stroke-width="0.398" fill="none" /><path id="135" transform="matrix(1 0 0 -1 0 792)" d="M1072.147 640.797L1072.147 654.364" stroke="#000000" stroke-width="0.398" fill="none" /><path id="137" transform="matrix(1 0 0 -1 0 792)" d="M1127.526 640.797L1127.526 654.364" stroke="#000000" stroke-width="0.398" fill="none" /><path id="138" transform="matrix(1 0 0 -1 0 792)" d="M742.795 640.598L1127.726 640.598" stroke="#000000" stroke-width="0.398" fill="none" /><path id="139" transform="matrix(1 0 0 -1 0 792)" d="M742.795 640.598L1127.726 640.598" stroke="#000000" stroke-width="0.398" fill="none" /><path id="140" transform="matrix(1 0 0 -1 0 792)" d="M742.994 626.832L742.994 640.399" stroke="#000000" stroke-width="0.398" fill="none" /><path id="161" transform="matrix(1 0 0 -1 0 792)" d="M1072.147 626.832L1072.147 640.399" stroke="#000000" stroke-width="0.398" fill="none" /><path id="163" transform="matrix(1 0 0 -1 0 792)" d="M1127.526 626.832L1127.526 640.399" stroke="#000000" stroke-width="0.398" fill="none" /><path id="164" transform="matrix(1 0 0 -1 0 792)" d="M742.795 626.633L1127.726 626.633" stroke="#000000" stroke-width="0.398" fill="none" /><path id="165" transform="matrix(1 0 0 -1 0 792)" d="M742.795 626.633L1127.726 626.633" stroke="#000000" stroke-width="0.398" fill="none" /><path id="166" transform="matrix(1 0 0 -1 0 792)" d="M742.994 612.867L742.994 626.434" stroke="#000000" stroke-width="0.398" fill="none" /><path id="186" transform="matrix(1 0 0 -1 0 792)" d="M1072.147 612.867L1072.147 626.434" stroke="#000000" stroke-width="0.398" fill="none" /><path id="188" transform="matrix(1 0 0 -1 0 792)" d="M1127.526 612.867L1127.526 626.434" stroke="#000000" stroke-width="0.398" fill="none" /><path id="189" transform="matrix(1 0 0 -1 0 792)" d="M742.795 612.667L1127.726 612.667" stroke="#000000" stroke-width="0.398" fill="none" /><path id="190" transform="matrix(1 0 0 -1 0 792)" d="M742.795 612.667L1127.726 612.667" stroke="#000000" stroke-width="0.398" fill="none" /><path id="191" transform="matrix(1 0 0 -1 0 792)" d="M742.994 598.902L742.994 612.469" stroke="#000000" stroke-width="0.398" fill="none" /><path id="218" transform="matrix(1 0 0 -1 0 792)" d="M882.47 603.183L885.459 603.183" stroke="#000000" stroke-width="0.398" fill="none" /><path id="226" transform="matrix(1 0 0 -1 0 792)" d="M1072.147 598.902L1072.147 612.469" stroke="#000000" stroke-width="0.398" fill="none" /><path id="228" transform="matrix(1 0 0 -1 0 792)" d="M1127.526 598.902L1127.526 612.469" stroke="#000000" stroke-width="0.398" fill="none" /><path id="229" transform="matrix(1 0 0 -1 0 792)" d="M742.795 598.702L1127.726 598.702" stroke="#000000" stroke-width="0.398" fill="none" /><path id="230" transform="matrix(1 0 0 -1 0 792)" d="M742.795 598.702L1127.726 598.702" stroke="#000000" stroke-width="0.398" fill="none" /><path id="231" transform="matrix(1 0 0 -1 0 792)" d="M742.994 584.936L742.994 598.503" stroke="#000000" stroke-width="0.398" fill="none" /><path id="261" transform="matrix(1 0 0 -1 0 792)" d="M1072.147 584.936L1072.147 598.503" stroke="#000000" stroke-width="0.398" fill="none" /><path id="263" transform="matrix(1 0 0 -1 0 792)" d="M1127.526 584.936L1127.526 598.503" stroke="#000000" stroke-width="0.398" fill="none" /><path id="264" transform="matrix(1 0 0 -1 0 792)" d="M742.795 584.737L1127.726 584.737" stroke="#000000" stroke-width="0.398" fill="none" /><path id="265" transform="matrix(1 0 0 -1 0 792)" d="M742.795 584.737L1127.726 584.737" stroke="#000000" stroke-width="0.398" fill="none" /><path id="266" transform="matrix(1 0 0 -1 0 792)" d="M742.994 570.971L742.994 584.538" stroke="#000000" stroke-width="0.398" fill="none" /><path id="313" transform="matrix(1 0 0 -1 0 792)" d="M1072.147 570.971L1072.147 584.538" stroke="#000000" stroke-width="0.398" fill="none" /><path id="315" transform="matrix(1 0 0 -1 0 792)" d="M1127.526 570.971L1127.526 584.538" stroke="#000000" stroke-width="0.398" fill="none" /><path id="316" transform="matrix(1 0 0 -1 0 792)" d="M742.795 570.772L1127.726 570.772" stroke="#000000" stroke-width="0.398" fill="none" /><path id="317" transform="matrix(1 0 0 -1 0 792)" d="M742.795 570.772L1127.726 570.772" stroke="#000000" stroke-width="0.398" fill="none" /><path id="318" transform="matrix(1 0 0 -1 0 792)" d="M742.994 557.006L742.994 570.573" stroke="#000000" stroke-width="0.398" fill="none" /><path id="368" transform="matrix(1 0 0 -1 0 792)" d="M1072.147 557.006L1072.147 570.573" stroke="#000000" stroke-width="0.398" fill="none" /><path id="370" transform="matrix(1 0 0 -1 0 792)" d="M1127.526 557.006L1127.526 570.573" stroke="#000000" stroke-width="0.398" fill="none" /><path id="371" transform="matrix(1 0 0 -1 0 792)" d="M742.795 556.807L1127.726 556.807" stroke="#000000" stroke-width="0.398" fill="none" /><path id="372" transform="matrix(1 0 0 -1 0 792)" d="M742.795 556.807L1127.726 556.807" stroke="#000000" stroke-width="0.398" fill="none" /><path id="373" transform="matrix(1 0 0 -1 0 792)" d="M742.994 543.041L742.994 556.608" stroke="#000000" stroke-width="0.398" fill="none" /><path id="400" transform="matrix(1 0 0 -1 0 792)" d="M882.47 547.322L885.459 547.322" stroke="#000000" stroke-width="0.398" fill="none" /><path id="404" transform="matrix(1 0 0 -1 0 792)" d="M903.989 547.322L906.978 547.322" stroke="#000000" stroke-width="0.398" fill="none" /><path id="412" transform="matrix(1 0 0 -1 0 792)" d="M1072.147 543.041L1072.147 556.608" stroke="#000000" stroke-width="0.398" fill="none" /><path id="414" transform="matrix(1 0 0 -1 0 792)" d="M1127.526 543.041L1127.526 556.608" stroke="#000000" stroke-width="0.398" fill="none" /><path id="415" transform="matrix(1 0 0 -1 0 792)" d="M742.795 542.842L1127.726 542.842" stroke="#000000" stroke-width="0.398" fill="none" /><path id="416" transform="matrix(1 0 0 -1 0 792)" d="M742.795 542.842L1127.726 542.842" stroke="#000000" stroke-width="0.398" fill="none" /><path id="417" transform="matrix(1 0 0 -1 0 792)" d="M729.206 259.087L1168.585 259.087L1168.585 259.087L1168.585 283.3766L1168.585 283.3766L729.206 283.3766z" stroke="#FFFFFF" stroke-width="1" fill="#FFFFFF" fill-rule="nonzero" /><path id="493" transform="matrix(1 0 0 -1 0 792)" d="M89.933 721.28L556.588 721.28" stroke="#000000" stroke-width="0.498" fill="none" /><path id="494" transform="matrix(1 0 0 -1 0 792)" d="M130.795 696.423L515.726 696.423" stroke="#000000" stroke-width="0.398" fill="none" /><path id="495" transform="matrix(1 0 0 -1 0 792)" d="M130.795 696.423L515.726 696.423" stroke="#000000" stroke-width="0.398" fill="none" /><path id="496" transform="matrix(1 0 0 -1 0 792)" d="M130.994 682.658L130.994 696.225" stroke="#000000" stroke-width="0.398" fill="none" /><path id="497" transform="matrix(1 0 0 -1 0 792)" d="M131.193 682.658L459.948 682.658L459.948 696.225L131.193 696.225z" stroke="none" fill="#CCCCEB" fill-rule="nonzero" /><path id="507" transform="matrix(1 0 0 -1 0 792)" d="M460.147 682.658L460.147 696.225" stroke="#000000" stroke-width="0.398" fill="none" /><path id="508" transform="matrix(1 0 0 -1 0 792)" d="M460.347 682.658L515.327 682.658L515.327 696.225L460.347 696.225z" stroke="none" fill="#CCCCEB" fill-rule="nonzero" /><path id="515" transform="matrix(1 0 0 -1 0 792)" d="M515.526 682.658L515.526 696.225" stroke="#000000" stroke-width="0.398" fill="none" /><path id="516" transform="matrix(1 0 0 -1 0 792)" d="M130.795 682.458L515.726 682.458" stroke="#000000" stroke-width="0.398" fill="none" /><path id="517" transform="matrix(1 0 0 -1 0 792)" d="M130.795 682.458L515.726 682.458" stroke="#000000" stroke-width="0.398" fill="none" /><path id="518" transform="matrix(1 0 0 -1 0 792)" d="M130.795 682.06L515.726 682.06" stroke="#000000" stroke-width="0.398" fill="none" /><path id="519" transform="matrix(1 0 0 -1 0 792)" d="M130.795 682.06L515.726 682.06" stroke="#000000" stroke-width="0.398" fill="none" /><path id="520" transform="matrix(1 0 0 -1 0 792)" d="M130.795 682.06L515.726 682.06" stroke="#000000" stroke-width="0.398" fill="none" /><path id="521" transform="matrix(1 0 0 -1 0 792)" d="M130.994 654.762L130.994 681.86" stroke="#000000" stroke-width="0.398" fill="none" /><path id="575" transform="matrix(1 0 0 -1 0 792)" d="M460.147 654.762L460.147 681.86" stroke="#000000" stroke-width="0.398" fill="none" /><path id="577" transform="matrix(1 0 0 -1 0 792)" d="M515.526 654.762L515.526 681.86" stroke="#000000" stroke-width="0.398" fill="none" /><path id="578" transform="matrix(1 0 0 -1 0 792)" d="M130.795 654.563L515.726 654.563" stroke="#000000" stroke-width="0.398" fill="none" /><path id="579" transform="matrix(1 0 0 -1 0 792)" d="M130.795 654.563L515.726 654.563" stroke="#000000" stroke-width="0.398" fill="none" /><path id="580" transform="matrix(1 0 0 -1 0 792)" d="M130.994 640.797L130.994 654.364" stroke="#000000" stroke-width="0.398" fill="none" /><path id="611" transform="matrix(1 0 0 -1 0 792)" d="M460.147 640.797L460.147 654.364" stroke="#000000" stroke-width="0.398" fill="none" /><path id="613" transform="matrix(1 0 0 -1 0 792)" d="M515.526 640.797L515.526 654.364" stroke="#000000" stroke-width="0.398" fill="none" /><path id="614" transform="matrix(1 0 0 -1 0 792)" d="M130.795 640.598L515.726 640.598" stroke="#000000" stroke-width="0.398" fill="none" /><path id="615" transform="matrix(1 0 0 -1 0 792)" d="M130.795 640.598L515.726 640.598" stroke="#000000" stroke-width="0.398" fill="none" /><path id="616" transform="matrix(1 0 0 -1 0 792)" d="M130.994 626.832L130.994 640.399" stroke="#000000" stroke-width="0.398" fill="none" /><path id="637" transform="matrix(1 0 0 -1 0 792)" d="M460.147 626.832L460.147 640.399" stroke="#000000" stroke-width="0.398" fill="none" /><path id="639" transform="matrix(1 0 0 -1 0 792)" d="M515.526 626.832L515.526 640.399" stroke="#000000" stroke-width="0.398" fill="none" /><path id="640" transform="matrix(1 0 0 -1 0 792)" d="M130.795 626.633L515.726 626.633" stroke="#000000" stroke-width="0.398" fill="none" /><path id="641" transform="matrix(1 0 0 -1 0 792)" d="M130.795 626.633L515.726 626.633" stroke="#000000" stroke-width="0.398" fill="none" /><path id="642" transform="matrix(1 0 0 -1 0 792)" d="M130.994 612.867L130.994 626.434" stroke="#000000" stroke-width="0.398" fill="none" /><path id="662" transform="matrix(1 0 0 -1 0 792)" d="M460.147 612.867L460.147 626.434" stroke="#000000" stroke-width="0.398" fill="none" /><path id="664" transform="matrix(1 0 0 -1 0 792)" d="M515.526 612.867L515.526 626.434" stroke="#000000" stroke-width="0.398" fill="none" /><path id="665" transform="matrix(1 0 0 -1 0 792)" d="M130.795 612.667L515.726 612.667" stroke="#000000" stroke-width="0.398" fill="none" /><path id="666" transform="matrix(1 0 0 -1 0 792)" d="M130.795 612.667L515.726 612.667" stroke="#000000" stroke-width="0.398" fill="none" /><path id="667" transform="matrix(1 0 0 -1 0 792)" d="M130.994 598.902L130.994 612.469" stroke="#000000" stroke-width="0.398" fill="none" /><path id="694" transform="matrix(1 0 0 -1 0 792)" d="M270.47 603.183L273.459 603.183" stroke="#000000" stroke-width="0.398" fill="none" /><path id="702" transform="matrix(1 0 0 -1 0 792)" d="M460.147 598.902L460.147 612.469" stroke="#000000" stroke-width="0.398" fill="none" /><path id="704" transform="matrix(1 0 0 -1 0 792)" d="M515.526 598.902L515.526 612.469" stroke="#000000" stroke-width="0.398" fill="none" /><path id="705" transform="matrix(1 0 0 -1 0 792)" d="M130.795 598.702L515.726 598.702" stroke="#000000" stroke-width="0.398" fill="none" /><path id="706" transform="matrix(1 0 0 -1 0 792)" d="M130.795 598.702L515.726 598.702" stroke="#000000" stroke-width="0.398" fill="none" /><path id="707" transform="matrix(1 0 0 -1 0 792)" d="M130.994 584.936L130.994 598.503" stroke="#000000" stroke-width="0.398" fill="none" /><path id="737" transform="matrix(1 0 0 -1 0 792)" d="M460.147 584.936L460.147 598.503" stroke="#000000" stroke-width="0.398" fill="none" /><path id="739" transform="matrix(1 0 0 -1 0 792)" d="M515.526 584.936L515.526 598.503" stroke="#000000" stroke-width="0.398" fill="none" /><path id="740" transform="matrix(1 0 0 -1 0 792)" d="M130.795 584.737L515.726 584.737" stroke="#000000" stroke-width="0.398" fill="none" /><path id="741" transform="matrix(1 0 0 -1 0 792)" d="M130.795 584.737L515.726 584.737" stroke="#000000" stroke-width="0.398" fill="none" /><path id="742" transform="matrix(1 0 0 -1 0 792)" d="M130.994 570.971L130.994 584.538" stroke="#000000" stroke-width="0.398" fill="none" /><path id="789" transform="matrix(1 0 0 -1 0 792)" d="M460.147 570.971L460.147 584.538" stroke="#000000" stroke-width="0.398" fill="none" /><path id="791" transform="matrix(1 0 0 -1 0 792)" d="M515.526 570.971L515.526 584.538" stroke="#000000" stroke-width="0.398" fill="none" /><path id="792" transform="matrix(1 0 0 -1 0 792)" d="M130.795 570.772L515.726 570.772" stroke="#000000" stroke-width="0.398" fill="none" /><path id="793" transform="matrix(1 0 0 -1 0 792)" d="M130.795 570.772L515.726 570.772" stroke="#000000" stroke-width="0.398" fill="none" /><path id="794" transform="matrix(1 0 0 -1 0 792)" d="M130.994 557.006L130.994 570.573" stroke="#000000" stroke-width="0.398" fill="none" /><path id="844" transform="matrix(1 0 0 -1 0 792)" d="M460.147 557.006L460.147 570.573" stroke="#000000" stroke-width="0.398" fill="none" /><path id="846" transform="matrix(1 0 0 -1 0 792)" d="M515.526 557.006L515.526 570.573" stroke="#000000" stroke-width="0.398" fill="none" /><path id="847" transform="matrix(1 0 0 -1 0 792)" d="M130.795 556.807L515.726 556.807" stroke="#000000" stroke-width="0.398" fill="none" /><path id="848" transform="matrix(1 0 0 -1 0 792)" d="M130.795 556.807L515.726 556.807" stroke="#000000" stroke-width="0.398" fill="none" /><path id="849" transform="matrix(1 0 0 -1 0 792)" d="M130.994 543.041L130.994 556.608" stroke="#000000" stroke-width="0.398" fill="none" /><path id="876" transform="matrix(1 0 0 -1 0 792)" d="M270.47 547.322L273.459 547.322" stroke="#000000" stroke-width="0.398" fill="none" /><path id="880" transform="matrix(1 0 0 -1 0 792)" d="M291.989 547.322L294.978 547.322" stroke="#000000" stroke-width="0.398" fill="none" /><path id="888" transform="matrix(1 0 0 -1 0 792)" d="M460.147 543.041L460.147 556.608" stroke="#000000" stroke-width="0.398" fill="none" /><path id="890" transform="matrix(1 0 0 -1 0 792)" d="M515.526 543.041L515.526 556.608" stroke="#000000" stroke-width="0.398" fill="none" /><path id="891" transform="matrix(1 0 0 -1 0 792)" d="M130.795 542.842L515.726 542.842" stroke="#000000" stroke-width="0.398" fill="none" /><path id="892" transform="matrix(1 0 0 -1 0 792)" d="M130.795 542.842L515.726 542.842" stroke="#000000" stroke-width="0.398" fill="none" /></g></g></svg>