<svg xmlns="http://www.w3.org/2000/svg" xmlns:xlink="http://www.w3.org/1999/xlink" id="body_58" preserveAspectRatio="xMinYMin meet" viewBox="0 0 1632 1056"><defs><clipPath id="1"><path id="" clip-rule="evenodd" transform="matrix(1 0 0 1 0 0)" d="M0 792L0 0L0 0L1224 0L1224 0L1224 792L1224 792L0 792z" /></clipPath></defs><g transform="matrix(1.333333 0 0 1.333333 0 0)"><g clip-path="url(#1)"><path id="1" transform="matrix(1 0 0 -1 0 792)" d="M666.067 721.28L1132.722 721.28" stroke="#000000" stroke-width="0.498" fill="none" /><path id="2" transform="matrix(1 0 0 -1 0 792)" d="M708.344 654.265L1090.446 654.265" stroke="#000000" stroke-width="0.398" fill="none" /><path id="3" transform="matrix(1 0 0 -1 0 792)" d="M708.543 640.499L708.543 654.066" stroke="#000000" stroke-width="0.398" fill="none" /><path id="4" transform="matrix(1 0 0 -1 0 792)" d="M708.7419 640.499L900.697 640.499L900.697 654.066L708.7419 654.066z" stroke="none" fill="#CCCCEB" fill-rule="nonzero" /><path id="10" transform="matrix(1 0 0 -1 0 792)" d="M900.897 640.499L900.897 654.066" stroke="#000000" stroke-width="0.398" fill="none" /><path id="11" transform="matrix(1 0 0 -1 0 792)" d="M901.096 640.499L959.72 640.499L959.72 654.066L901.096 654.066z" stroke="none" fill="#CCCCEB" fill-rule="nonzero" /><path id="21" transform="matrix(1 0 0 -1 0 792)" d="M959.919 640.499L959.919 654.066" stroke="#000000" stroke-width="0.398" fill="none" /><path id="22" transform="matrix(1 0 0 -1 0 792)" d="M960.118 640.499L1021.458 640.499L1021.458 654.066L960.118 654.066z" stroke="none" fill="#CCCCEB" fill-rule="nonzero" /><path id="30" transform="matrix(1 0 0 -1 0 792)" d="M1021.657 640.499L1021.657 654.066" stroke="#000000" stroke-width="0.398" fill="none" /><path id="31" transform="matrix(1 0 0 -1 0 792)" d="M1021.857 640.499L1090.048 640.499L1090.048 654.066L1021.857 654.066z" stroke="none" fill="#CCCCEB" fill-rule="nonzero" /><path id="35" transform="matrix(1 0 0 -1 0 792)" d="M1090.247 640.499L1090.247 654.066" stroke="#000000" stroke-width="0.398" fill="none" /><path id="36" transform="matrix(1 0 0 -1 0 792)" d="M708.543 626.933L708.543 640.5" stroke="#000000" stroke-width="0.398" fill="none" /><path id="37" transform="matrix(1 0 0 -1 0 792)" d="M708.7419 626.933L900.697 626.933L900.697 640.5L708.7419 640.5z" stroke="none" fill="#CCCCEB" fill-rule="nonzero" /><path id="38" transform="matrix(1 0 0 -1 0 792)" d="M900.897 626.933L900.897 640.5" stroke="#000000" stroke-width="0.398" fill="none" /><path id="39" transform="matrix(1 0 0 -1 0 792)" d="M901.096 626.933L959.72 626.933L959.72 640.5L901.096 640.5z" stroke="none" fill="#CCCCEB" fill-rule="nonzero" /><path id="40" transform="matrix(1 0 0 -1 0 792)" d="M959.919 626.933L959.919 640.5" stroke="#000000" stroke-width="0.398" fill="none" /><path id="41" transform="matrix(1 0 0 -1 0 792)" d="M960.118 626.933L1021.458 626.933L1021.458 640.5L960.118 640.5z" stroke="none" fill="#CCCCEB" fill-rule="nonzero" /><path id="47" transform="matrix(1 0 0 -1 0 792)" d="M1021.657 626.933L1021.657 640.5" stroke="#000000" stroke-width="0.398" fill="none" /><path id="48" transform="matrix(1 0 0 -1 0 792)" d="M1021.857 626.933L1090.048 626.933L1090.048 640.5L1021.857 640.5z" stroke="none" fill="#CCCCEB" fill-rule="nonzero" /><path id="49" transform="matrix(1 0 0 -1 0 792)" d="M1090.247 626.933L1090.247 640.5" stroke="#000000" stroke-width="0.398" fill="none" /><path id="50" transform="matrix(1 0 0 -1 0 792)" d="M708.344 626.734L1090.446 626.734" stroke="#000000" stroke-width="0.398" fill="none" /><path id="51" transform="matrix(1 0 0 -1 0 792)" d="M708.344 624.342L1090.446 624.342" stroke="#000000" stroke-width="0.398" fill="none" /><path id="52" transform="matrix(1 0 0 -1 0 792)" d="M708.543 610.577L708.543 624.144" stroke="#000000" stroke-width="0.398" fill="none" /><path id="58" transform="matrix(1 0 0 -1 0 792)" d="M745.205 614.858L748.194 614.858" stroke="#000000" stroke-width="0.398" fill="none" /><path id="65" transform="matrix(1 0 0 -1 0 792)" d="M900.897 610.577L900.897 624.144" stroke="#000000" stroke-width="0.398" fill="none" /><path id="67" transform="matrix(1 0 0 -1 0 792)" d="M959.919 610.577L959.919 624.144" stroke="#000000" stroke-width="0.398" fill="none" /><path id="69" transform="matrix(1 0 0 -1 0 792)" d="M1021.657 610.577L1021.657 624.144" stroke="#000000" stroke-width="0.398" fill="none" /><path id="71" transform="matrix(1 0 0 -1 0 792)" d="M1090.247 610.577L1090.247 624.144" stroke="#000000" stroke-width="0.398" fill="none" /><path id="72" transform="matrix(1 0 0 -1 0 792)" d="M708.344 610.377L1090.446 610.377" stroke="#000000" stroke-width="0.398" fill="none" /><path id="73" transform="matrix(1 0 0 -1 0 792)" d="M708.543 596.611L708.543 610.178" stroke="#000000" stroke-width="0.398" fill="none" /><path id="83" transform="matrix(1 0 0 -1 0 792)" d="M769.116 600.893L772.105 600.893" stroke="#000000" stroke-width="0.398" fill="none" /><path id="90" transform="matrix(1 0 0 -1 0 792)" d="M900.897 596.611L900.897 610.178" stroke="#000000" stroke-width="0.398" fill="none" /><path id="92" transform="matrix(1 0 0 -1 0 792)" d="M959.919 596.611L959.919 610.178" stroke="#000000" stroke-width="0.398" fill="none" /><path id="94" transform="matrix(1 0 0 -1 0 792)" d="M1021.657 596.611L1021.657 610.178" stroke="#000000" stroke-width="0.398" fill="none" /><path id="96" transform="matrix(1 0 0 -1 0 792)" d="M1090.247 596.611L1090.247 610.178" stroke="#000000" stroke-width="0.398" fill="none" /><path id="97" transform="matrix(1 0 0 -1 0 792)" d="M708.344 596.412L1090.446 596.412" stroke="#000000" stroke-width="0.398" fill="none" /><path id="98" transform="matrix(1 0 0 -1 0 792)" d="M708.543 582.646L708.543 596.213" stroke="#000000" stroke-width="0.398" fill="none" /><path id="109" transform="matrix(1 0 0 -1 0 792)" d="M775.093 586.928L778.082 586.928" stroke="#000000" stroke-width="0.398" fill="none" /><path id="116" transform="matrix(1 0 0 -1 0 792)" d="M900.897 582.646L900.897 596.213" stroke="#000000" stroke-width="0.398" fill="none" /><path id="118" transform="matrix(1 0 0 -1 0 792)" d="M959.919 582.646L959.919 596.213" stroke="#000000" stroke-width="0.398" fill="none" /><path id="120" transform="matrix(1 0 0 -1 0 792)" d="M1021.657 582.646L1021.657 596.213" stroke="#000000" stroke-width="0.398" fill="none" /><path id="122" transform="matrix(1 0 0 -1 0 792)" d="M1090.247 582.646L1090.247 596.213" stroke="#000000" stroke-width="0.398" fill="none" /><path id="123" transform="matrix(1 0 0 -1 0 792)" d="M708.344 582.447L1090.446 582.447" stroke="#000000" stroke-width="0.398" fill="none" /><path id="124" transform="matrix(1 0 0 -1 0 792)" d="M708.543 568.681L708.543 582.248" stroke="#000000" stroke-width="0.398" fill="none" /><path id="132" transform="matrix(1 0 0 -1 0 792)" d="M757.1609 572.963L760.15 572.963" stroke="#000000" stroke-width="0.398" fill="none" /><path id="139" transform="matrix(1 0 0 -1 0 792)" d="M900.897 568.681L900.897 582.248" stroke="#000000" stroke-width="0.398" fill="none" /><path id="141" transform="matrix(1 0 0 -1 0 792)" d="M959.919 568.681L959.919 582.248" stroke="#000000" stroke-width="0.398" fill="none" /><path id="143" transform="matrix(1 0 0 -1 0 792)" d="M1021.657 568.681L1021.657 582.248" stroke="#000000" stroke-width="0.398" fill="none" /><path id="145" transform="matrix(1 0 0 -1 0 792)" d="M1090.247 568.681L1090.247 582.248" stroke="#000000" stroke-width="0.398" fill="none" /><path id="146" transform="matrix(1 0 0 -1 0 792)" d="M708.344 568.482L1090.446 568.482" stroke="#000000" stroke-width="0.398" fill="none" /><path id="147" transform="matrix(1 0 0 -1 0 792)" d="M708.543 554.716L708.543 568.283" stroke="#000000" stroke-width="0.398" fill="none" /><path id="156" transform="matrix(1 0 0 -1 0 792)" d="M900.897 554.716L900.897 568.283" stroke="#000000" stroke-width="0.398" fill="none" /><path id="158" transform="matrix(1 0 0 -1 0 792)" d="M959.919 554.716L959.919 568.283" stroke="#000000" stroke-width="0.398" fill="none" /><path id="168" transform="matrix(1 0 0 -1 0 792)" d="M1021.657 554.716L1021.657 568.283" stroke="#000000" stroke-width="0.398" fill="none" /><path id="180" transform="matrix(1 0 0 -1 0 792)" d="M1090.247 554.716L1090.247 568.283" stroke="#000000" stroke-width="0.398" fill="none" /><path id="181" transform="matrix(1 0 0 -1 0 792)" d="M708.344 554.517L1090.446 554.517" stroke="#000000" stroke-width="0.398" fill="none" /><path id="182" transform="matrix(1 0 0 -1 0 792)" d="M708.543 540.751L708.543 554.318" stroke="#000000" stroke-width="0.398" fill="none" /><path id="188" transform="matrix(1 0 0 -1 0 792)" d="M745.205 545.032L748.194 545.032" stroke="#000000" stroke-width="0.398" fill="none" /><path id="194" transform="matrix(1 0 0 -1 0 792)" d="M900.897 540.751L900.897 554.318" stroke="#000000" stroke-width="0.398" fill="none" /><path id="196" transform="matrix(1 0 0 -1 0 792)" d="M959.919 540.751L959.919 554.318" stroke="#000000" stroke-width="0.398" fill="none" /><path id="200" transform="matrix(1 0 0 -1 0 792)" d="M1021.657 540.751L1021.657 554.318" stroke="#000000" stroke-width="0.398" fill="none" /><path id="210" transform="matrix(1 0 0 -1 0 792)" d="M1090.247 540.751L1090.247 554.318" stroke="#000000" stroke-width="0.398" fill="none" /><path id="211" transform="matrix(1 0 0 -1 0 792)" d="M708.344 540.552L1090.446 540.552" stroke="#000000" stroke-width="0.398" fill="none" /><path id="212" transform="matrix(1 0 0 -1 0 792)" d="M708.543 526.786L708.543 540.353" stroke="#000000" stroke-width="0.398" fill="none" /><path id="218" transform="matrix(1 0 0 -1 0 792)" d="M745.205 531.067L748.194 531.067" stroke="#000000" stroke-width="0.398" fill="none" /><path id="225" transform="matrix(1 0 0 -1 0 792)" d="M784.657 531.067L787.646 531.067" stroke="#000000" stroke-width="0.398" fill="none" /><path id="231" transform="matrix(1 0 0 -1 0 792)" d="M818.132 531.067L821.121 531.067" stroke="#000000" stroke-width="0.398" fill="none" /><path id="237" transform="matrix(1 0 0 -1 0 792)" d="M900.897 526.786L900.897 540.353" stroke="#000000" stroke-width="0.398" fill="none" /><path id="239" transform="matrix(1 0 0 -1 0 792)" d="M959.919 526.786L959.919 540.353" stroke="#000000" stroke-width="0.398" fill="none" /><path id="241" transform="matrix(1 0 0 -1 0 792)" d="M1021.657 526.786L1021.657 540.353" stroke="#000000" stroke-width="0.398" fill="none" /><path id="243" transform="matrix(1 0 0 -1 0 792)" d="M1090.247 526.786L1090.247 540.353" stroke="#000000" stroke-width="0.398" fill="none" /><path id="244" transform="matrix(1 0 0 -1 0 792)" d="M708.344 526.586L1090.446 526.586" stroke="#000000" stroke-width="0.398" fill="none" /><path id="245" transform="matrix(1 0 0 -1 0 792)" d="M708.543 512.821L708.543 526.388" stroke="#000000" stroke-width="0.398" fill="none" /><path id="255" transform="matrix(1 0 0 -1 0 792)" d="M769.116 517.102L772.105 517.102" stroke="#000000" stroke-width="0.398" fill="none" /><path id="261" transform="matrix(1 0 0 -1 0 792)" d="M802.59 517.102L805.579 517.102" stroke="#000000" stroke-width="0.398" fill="none" /><path id="267" transform="matrix(1 0 0 -1 0 792)" d="M900.897 512.821L900.897 526.388" stroke="#000000" stroke-width="0.398" fill="none" /><path id="269" transform="matrix(1 0 0 -1 0 792)" d="M959.919 512.821L959.919 526.388" stroke="#000000" stroke-width="0.398" fill="none" /><path id="271" transform="matrix(1 0 0 -1 0 792)" d="M1021.657 512.821L1021.657 526.388" stroke="#000000" stroke-width="0.398" fill="none" /><path id="273" transform="matrix(1 0 0 -1 0 792)" d="M1090.247 512.821L1090.247 526.388" stroke="#000000" stroke-width="0.398" fill="none" /><path id="274" transform="matrix(1 0 0 -1 0 792)" d="M708.344 512.621L1090.446 512.621" stroke="#000000" stroke-width="0.398" fill="none" /><path id="275" transform="matrix(1 0 0 -1 0 792)" d="M708.543 498.855L708.543 512.422" stroke="#000000" stroke-width="0.398" fill="none" /><path id="286" transform="matrix(1 0 0 -1 0 792)" d="M775.093 503.137L778.082 503.137" stroke="#000000" stroke-width="0.398" fill="none" /><path id="292" transform="matrix(1 0 0 -1 0 792)" d="M808.568 503.137L811.557 503.137" stroke="#000000" stroke-width="0.398" fill="none" /><path id="298" transform="matrix(1 0 0 -1 0 792)" d="M900.897 498.855L900.897 512.422" stroke="#000000" stroke-width="0.398" fill="none" /><path id="300" transform="matrix(1 0 0 -1 0 792)" d="M959.919 498.855L959.919 512.422" stroke="#000000" stroke-width="0.398" fill="none" /><path id="302" transform="matrix(1 0 0 -1 0 792)" d="M1021.657 498.855L1021.657 512.422" stroke="#000000" stroke-width="0.398" fill="none" /><path id="304" transform="matrix(1 0 0 -1 0 792)" d="M1090.247 498.855L1090.247 512.422" stroke="#000000" stroke-width="0.398" fill="none" /><path id="305" transform="matrix(1 0 0 -1 0 792)" d="M708.344 498.656L1090.446 498.656" stroke="#000000" stroke-width="0.398" fill="none" /><path id="306" transform="matrix(1 0 0 -1 0 792)" d="M708.543 484.89L708.543 498.457" stroke="#000000" stroke-width="0.398" fill="none" /><path id="314" transform="matrix(1 0 0 -1 0 792)" d="M757.1609 489.172L760.15 489.172" stroke="#000000" stroke-width="0.398" fill="none" /><path id="320" transform="matrix(1 0 0 -1 0 792)" d="M790.6349 489.172L793.624 489.172" stroke="#000000" stroke-width="0.398" fill="none" /><path id="326" transform="matrix(1 0 0 -1 0 792)" d="M900.897 484.89L900.897 498.457" stroke="#000000" stroke-width="0.398" fill="none" /><path id="328" transform="matrix(1 0 0 -1 0 792)" d="M959.919 484.89L959.919 498.457" stroke="#000000" stroke-width="0.398" fill="none" /><path id="330" transform="matrix(1 0 0 -1 0 792)" d="M1021.657 484.89L1021.657 498.457" stroke="#000000" stroke-width="0.398" fill="none" /><path id="332" transform="matrix(1 0 0 -1 0 792)" d="M1090.247 484.89L1090.247 498.457" stroke="#000000" stroke-width="0.398" fill="none" /><path id="333" transform="matrix(1 0 0 -1 0 792)" d="M708.344 484.691L1090.446 484.691" stroke="#000000" stroke-width="0.398" fill="none" /><path id="334" transform="matrix(1 0 0 -1 0 792)" d="M708.543 470.925L708.543 484.492" stroke="#000000" stroke-width="0.398" fill="none" /><path id="341" transform="matrix(1 0 0 -1 0 792)" d="M751.183 475.207L754.172 475.207" stroke="#000000" stroke-width="0.398" fill="none" /><path id="346" transform="matrix(1 0 0 -1 0 792)" d="M900.897 470.925L900.897 484.492" stroke="#000000" stroke-width="0.398" fill="none" /><path id="348" transform="matrix(1 0 0 -1 0 792)" d="M959.919 470.925L959.919 484.492" stroke="#000000" stroke-width="0.398" fill="none" /><path id="350" transform="matrix(1 0 0 -1 0 792)" d="M1021.657 470.925L1021.657 484.492" stroke="#000000" stroke-width="0.398" fill="none" /><path id="352" transform="matrix(1 0 0 -1 0 792)" d="M1090.247 470.925L1090.247 484.492" stroke="#000000" stroke-width="0.398" fill="none" /><path id="353" transform="matrix(1 0 0 -1 0 792)" d="M708.344 470.726L1090.446 470.726" stroke="#000000" stroke-width="0.398" fill="none" /><path id="354" transform="matrix(1 0 0 -1 0 792)" d="M708.543 456.96L708.543 470.527" stroke="#000000" stroke-width="0.398" fill="none" /><path id="364" transform="matrix(1 0 0 -1 0 792)" d="M900.897 456.96L900.897 470.527" stroke="#000000" stroke-width="0.398" fill="none" /><path id="366" transform="matrix(1 0 0 -1 0 792)" d="M959.919 456.96L959.919 470.527" stroke="#000000" stroke-width="0.398" fill="none" /><path id="368" transform="matrix(1 0 0 -1 0 792)" d="M1021.657 456.96L1021.657 470.527" stroke="#000000" stroke-width="0.398" fill="none" /><path id="370" transform="matrix(1 0 0 -1 0 792)" d="M1090.247 456.96L1090.247 470.527" stroke="#000000" stroke-width="0.398" fill="none" /><path id="371" transform="matrix(1 0 0 -1 0 792)" d="M708.344 456.761L1090.446 456.761" stroke="#000000" stroke-width="0.398" fill="none" /><path id="372" transform="matrix(1 0 0 -1 0 792)" d="M708.543 442.995L708.543 456.562" stroke="#000000" stroke-width="0.398" fill="none" /><path id="380" transform="matrix(1 0 0 -1 0 792)" d="M757.1609 447.276L760.15 447.276" stroke="#000000" stroke-width="0.398" fill="none" /><path id="387" transform="matrix(1 0 0 -1 0 792)" d="M900.897 442.995L900.897 456.562" stroke="#000000" stroke-width="0.398" fill="none" /><path id="389" transform="matrix(1 0 0 -1 0 792)" d="M959.919 442.995L959.919 456.562" stroke="#000000" stroke-width="0.398" fill="none" /><path id="391" transform="matrix(1 0 0 -1 0 792)" d="M1021.657 442.995L1021.657 456.562" stroke="#000000" stroke-width="0.398" fill="none" /><path id="393" transform="matrix(1 0 0 -1 0 792)" d="M1090.247 442.995L1090.247 456.562" stroke="#000000" stroke-width="0.398" fill="none" /><path id="394" transform="matrix(1 0 0 -1 0 792)" d="M708.344 442.796L1090.446 442.796" stroke="#000000" stroke-width="0.398" fill="none" /><path id="395" transform="matrix(1 0 0 -1 0 792)" d="M708.543 429.03L708.543 442.597" stroke="#000000" stroke-width="0.398" fill="none" /><path id="400" transform="matrix(1 0 0 -1 0 792)" d="M739.228 433.311L742.217 433.311" stroke="#000000" stroke-width="0.398" fill="none" /><path id="411" transform="matrix(1 0 0 -1 0 792)" d="M900.897 429.03L900.897 442.597" stroke="#000000" stroke-width="0.398" fill="none" /><path id="413" transform="matrix(1 0 0 -1 0 792)" d="M959.919 429.03L959.919 442.597" stroke="#000000" stroke-width="0.398" fill="none" /><path id="415" transform="matrix(1 0 0 -1 0 792)" d="M1021.657 429.03L1021.657 442.597" stroke="#000000" stroke-width="0.398" fill="none" /><path id="417" transform="matrix(1 0 0 -1 0 792)" d="M1090.247 429.03L1090.247 442.597" stroke="#000000" stroke-width="0.398" fill="none" /><path id="418" transform="matrix(1 0 0 -1 0 792)" d="M708.344 428.83L1090.446 428.83" stroke="#000000" stroke-width="0.398" fill="none" /><path id="419" transform="matrix(1 0 0 -1 0 792)" d="M708.543 415.064L708.543 428.631" stroke="#000000" stroke-width="0.398" fill="none" /><path id="424" transform="matrix(1 0 0 -1 0 792)" d="M739.228 419.346L742.217 419.346" stroke="#000000" stroke-width="0.398" fill="none" /><path id="435" transform="matrix(1 0 0 -1 0 792)" d="M900.897 415.064L900.897 428.631" stroke="#000000" stroke-width="0.398" fill="none" /><path id="437" transform="matrix(1 0 0 -1 0 792)" d="M959.919 415.064L959.919 428.631" stroke="#000000" stroke-width="0.398" fill="none" /><path id="439" transform="matrix(1 0 0 -1 0 792)" d="M1021.657 415.064L1021.657 428.631" stroke="#000000" stroke-width="0.398" fill="none" /><path id="441" transform="matrix(1 0 0 -1 0 792)" d="M1090.247 415.064L1090.247 428.631" stroke="#000000" stroke-width="0.398" fill="none" /><path id="442" transform="matrix(1 0 0 -1 0 792)" d="M708.344 414.865L1090.446 414.865" stroke="#000000" stroke-width="0.398" fill="none" /><path id="471" transform="matrix(1 0 0 -1 0 792)" d="M729.338 286.713L1069.451 286.713" stroke="#000000" stroke-width="0.398" fill="none" /><path id="472" transform="matrix(1 0 0 -1 0 792)" d="M729.537 272.948L729.537 286.515" stroke="#000000" stroke-width="0.398" fill="none" /><path id="473" transform="matrix(1 0 0 -1 0 792)" d="M729.737 272.948L921.692 272.948L921.692 286.515L729.737 286.515z" stroke="none" fill="#CCCCEB" fill-rule="nonzero" /><path id="479" transform="matrix(1 0 0 -1 0 792)" d="M921.891 272.948L921.891 286.515" stroke="#000000" stroke-width="0.398" fill="none" /><path id="480" transform="matrix(1 0 0 -1 0 792)" d="M922.09 272.948L980.714 272.948L980.714 286.515L922.09 286.515z" stroke="none" fill="#CCCCEB" fill-rule="nonzero" /><path id="490" transform="matrix(1 0 0 -1 0 792)" d="M980.913 272.948L980.913 286.515" stroke="#000000" stroke-width="0.398" fill="none" /><path id="491" transform="matrix(1 0 0 -1 0 792)" d="M981.112 272.948L1039.736 272.948L1039.736 286.515L981.112 286.515z" stroke="none" fill="#CCCCEB" fill-rule="nonzero" /><path id="499" transform="matrix(1 0 0 -1 0 792)" d="M1039.935 272.948L1039.935 286.515" stroke="#000000" stroke-width="0.398" fill="none" /><path id="500" transform="matrix(1 0 0 -1 0 792)" d="M1040.134 272.948L1069.053 272.948L1069.053 286.515L1040.134 286.515z" stroke="none" fill="#CCCCEB" fill-rule="nonzero" /><path id="504" transform="matrix(1 0 0 -1 0 792)" d="M1069.252 272.948L1069.252 286.515" stroke="#000000" stroke-width="0.398" fill="none" /><path id="505" transform="matrix(1 0 0 -1 0 792)" d="M729.537 259.381L729.537 272.948" stroke="#000000" stroke-width="0.398" fill="none" /><path id="506" transform="matrix(1 0 0 -1 0 792)" d="M729.737 259.381L921.692 259.381L921.692 272.948L729.737 272.948z" stroke="none" fill="#CCCCEB" fill-rule="nonzero" /><path id="507" transform="matrix(1 0 0 -1 0 792)" d="M921.891 259.381L921.891 272.948" stroke="#000000" stroke-width="0.398" fill="none" /><path id="508" transform="matrix(1 0 0 -1 0 792)" d="M922.09 259.381L980.714 259.381L980.714 272.948L922.09 272.948z" stroke="none" fill="#CCCCEB" fill-rule="nonzero" /><path id="509" transform="matrix(1 0 0 -1 0 792)" d="M980.913 259.381L980.913 272.948" stroke="#000000" stroke-width="0.398" fill="none" /><path id="510" transform="matrix(1 0 0 -1 0 792)" d="M981.112 259.381L1039.736 259.381L1039.736 272.948L981.112 272.948z" stroke="none" fill="#CCCCEB" fill-rule="nonzero" /><path id="516" transform="matrix(1 0 0 -1 0 792)" d="M1039.935 259.381L1039.935 272.948" stroke="#000000" stroke-width="0.398" fill="none" /><path id="517" transform="matrix(1 0 0 -1 0 792)" d="M1040.134 259.381L1069.053 259.381L1069.053 272.948L1040.134 272.948z" stroke="none" fill="#CCCCEB" fill-rule="nonzero" /><path id="518" transform="matrix(1 0 0 -1 0 792)" d="M1069.252 259.381L1069.252 272.948" stroke="#000000" stroke-width="0.398" fill="none" /><path id="519" transform="matrix(1 0 0 -1 0 792)" d="M729.338 259.182L1069.451 259.182" stroke="#000000" stroke-width="0.398" fill="none" /><path id="520" transform="matrix(1 0 0 -1 0 792)" d="M729.338 256.791L1069.451 256.791" stroke="#000000" stroke-width="0.398" fill="none" /><path id="521" transform="matrix(1 0 0 -1 0 792)" d="M729.537 243.025L729.537 256.592" stroke="#000000" stroke-width="0.398" fill="none" /><path id="525" transform="matrix(1 0 0 -1 0 792)" d="M754.245 247.306L757.234 247.306" stroke="#000000" stroke-width="0.398" fill="none" /><path id="531" transform="matrix(1 0 0 -1 0 792)" d="M921.891 243.025L921.891 256.592" stroke="#000000" stroke-width="0.398" fill="none" /><path id="533" transform="matrix(1 0 0 -1 0 792)" d="M980.913 243.025L980.913 256.592" stroke="#000000" stroke-width="0.398" fill="none" /><path id="535" transform="matrix(1 0 0 -1 0 792)" d="M1039.935 243.025L1039.935 256.592" stroke="#000000" stroke-width="0.398" fill="none" /><path id="537" transform="matrix(1 0 0 -1 0 792)" d="M1069.252 243.025L1069.252 256.592" stroke="#000000" stroke-width="0.398" fill="none" /><path id="538" transform="matrix(1 0 0 -1 0 792)" d="M729.338 242.825L1069.451 242.825" stroke="#000000" stroke-width="0.398" fill="none" /><path id="539" transform="matrix(1 0 0 -1 0 792)" d="M729.537 229.06L729.537 242.627" stroke="#000000" stroke-width="0.398" fill="none" /><path id="543" transform="matrix(1 0 0 -1 0 792)" d="M754.245 233.341L757.234 233.341" stroke="#000000" stroke-width="0.398" fill="none" /><path id="549" transform="matrix(1 0 0 -1 0 792)" d="M921.891 229.06L921.891 242.627" stroke="#000000" stroke-width="0.398" fill="none" /><path id="551" transform="matrix(1 0 0 -1 0 792)" d="M980.913 229.06L980.913 242.627" stroke="#000000" stroke-width="0.398" fill="none" /><path id="553" transform="matrix(1 0 0 -1 0 792)" d="M1039.935 229.06L1039.935 242.627" stroke="#000000" stroke-width="0.398" fill="none" /><path id="555" transform="matrix(1 0 0 -1 0 792)" d="M1069.252 229.06L1069.252 242.627" stroke="#000000" stroke-width="0.398" fill="none" /><path id="556" transform="matrix(1 0 0 -1 0 792)" d="M729.338 228.86L1069.451 228.86" stroke="#000000" stroke-width="0.398" fill="none" /><path id="557" transform="matrix(1 0 0 -1 0 792)" d="M729.537 215.094L729.537 228.661" stroke="#000000" stroke-width="0.398" fill="none" /><path id="561" transform="matrix(1 0 0 -1 0 792)" d="M754.245 219.376L757.234 219.376" stroke="#000000" stroke-width="0.398" fill="none" /><path id="569" transform="matrix(1 0 0 -1 0 792)" d="M921.891 215.094L921.891 228.661" stroke="#000000" stroke-width="0.398" fill="none" /><path id="571" transform="matrix(1 0 0 -1 0 792)" d="M980.913 215.094L980.913 228.661" stroke="#000000" stroke-width="0.398" fill="none" /><path id="573" transform="matrix(1 0 0 -1 0 792)" d="M1039.935 215.094L1039.935 228.661" stroke="#000000" stroke-width="0.398" fill="none" /><path id="575" transform="matrix(1 0 0 -1 0 792)" d="M1069.252 215.094L1069.252 228.661" stroke="#000000" stroke-width="0.398" fill="none" /><path id="576" transform="matrix(1 0 0 -1 0 792)" d="M729.338 214.895L1069.451 214.895" stroke="#000000" stroke-width="0.398" fill="none" /><path id="577" transform="matrix(1 0 0 -1 0 792)" d="M729.537 201.129L729.537 214.696" stroke="#000000" stroke-width="0.398" fill="none" /><path id="581" transform="matrix(1 0 0 -1 0 792)" d="M754.245 205.411L757.234 205.411" stroke="#000000" stroke-width="0.398" fill="none" /><path id="587" transform="matrix(1 0 0 -1 0 792)" d="M921.891 201.129L921.891 214.696" stroke="#000000" stroke-width="0.398" fill="none" /><path id="589" transform="matrix(1 0 0 -1 0 792)" d="M980.913 201.129L980.913 214.696" stroke="#000000" stroke-width="0.398" fill="none" /><path id="591" transform="matrix(1 0 0 -1 0 792)" d="M1039.935 201.129L1039.935 214.696" stroke="#000000" stroke-width="0.398" fill="none" /><path id="593" transform="matrix(1 0 0 -1 0 792)" d="M1069.252 201.129L1069.252 214.696" stroke="#000000" stroke-width="0.398" fill="none" /><path id="594" transform="matrix(1 0 0 -1 0 792)" d="M729.338 200.93L1069.451 200.93" stroke="#000000" stroke-width="0.398" fill="none" /><path id="595" transform="matrix(1 0 0 -1 0 792)" d="M729.537 187.164L729.537 200.731" stroke="#000000" stroke-width="0.398" fill="none" /><path id="599" transform="matrix(1 0 0 -1 0 792)" d="M754.245 191.446L757.234 191.446" stroke="#000000" stroke-width="0.398" fill="none" /><path id="603" transform="matrix(1 0 0 -1 0 792)" d="M921.891 187.164L921.891 200.731" stroke="#000000" stroke-width="0.398" fill="none" /><path id="605" transform="matrix(1 0 0 -1 0 792)" d="M980.913 187.164L980.913 200.731" stroke="#000000" stroke-width="0.398" fill="none" /><path id="607" transform="matrix(1 0 0 -1 0 792)" d="M1039.935 187.164L1039.935 200.731" stroke="#000000" stroke-width="0.398" fill="none" /><path id="609" transform="matrix(1 0 0 -1 0 792)" d="M1069.252 187.164L1069.252 200.731" stroke="#000000" stroke-width="0.398" fill="none" /><path id="610" transform="matrix(1 0 0 -1 0 792)" d="M729.338 186.965L1069.451 186.965" stroke="#000000" stroke-width="0.398" fill="none" /><path id="611" transform="matrix(1 0 0 -1 0 792)" d="M729.537 173.199L729.537 186.766" stroke="#000000" stroke-width="0.398" fill="none" /><path id="615" transform="matrix(1 0 0 -1 0 792)" d="M754.245 177.48L757.234 177.48" stroke="#000000" stroke-width="0.398" fill="none" /><path id="620" transform="matrix(1 0 0 -1 0 792)" d="M921.891 173.199L921.891 186.766" stroke="#000000" stroke-width="0.398" fill="none" /><path id="622" transform="matrix(1 0 0 -1 0 792)" d="M980.913 173.199L980.913 186.766" stroke="#000000" stroke-width="0.398" fill="none" /><path id="624" transform="matrix(1 0 0 -1 0 792)" d="M1039.935 173.199L1039.935 186.766" stroke="#000000" stroke-width="0.398" fill="none" /><path id="626" transform="matrix(1 0 0 -1 0 792)" d="M1069.252 173.199L1069.252 186.766" stroke="#000000" stroke-width="0.398" fill="none" /><path id="627" transform="matrix(1 0 0 -1 0 792)" d="M729.338 173L1069.451 173" stroke="#000000" stroke-width="0.398" fill="none" /><path id="628" transform="matrix(1 0 0 -1 0 792)" d="M729.537 159.234L729.537 172.801" stroke="#000000" stroke-width="0.398" fill="none" /><path id="632" transform="matrix(1 0 0 -1 0 792)" d="M921.891 159.234L921.891 172.801" stroke="#000000" stroke-width="0.398" fill="none" /><path id="634" transform="matrix(1 0 0 -1 0 792)" d="M980.913 159.234L980.913 172.801" stroke="#000000" stroke-width="0.398" fill="none" /><path id="636" transform="matrix(1 0 0 -1 0 792)" d="M1039.935 159.234L1039.935 172.801" stroke="#000000" stroke-width="0.398" fill="none" /><path id="638" transform="matrix(1 0 0 -1 0 792)" d="M1069.252 159.234L1069.252 172.801" stroke="#000000" stroke-width="0.398" fill="none" /><path id="639" transform="matrix(1 0 0 -1 0 792)" d="M729.338 159.035L1069.451 159.035" stroke="#000000" stroke-width="0.398" fill="none" /><path id="640" transform="matrix(1 0 0 -1 0 792)" d="M729.537 145.269L729.537 158.836" stroke="#000000" stroke-width="0.398" fill="none" /><path id="646" transform="matrix(1 0 0 -1 0 792)" d="M766.2 149.55L769.189 149.55" stroke="#000000" stroke-width="0.398" fill="none" /><path id="652" transform="matrix(1 0 0 -1 0 792)" d="M921.891 145.269L921.891 158.836" stroke="#000000" stroke-width="0.398" fill="none" /><path id="654" transform="matrix(1 0 0 -1 0 792)" d="M980.913 145.269L980.913 158.836" stroke="#000000" stroke-width="0.398" fill="none" /><path id="656" transform="matrix(1 0 0 -1 0 792)" d="M1039.935 145.269L1039.935 158.836" stroke="#000000" stroke-width="0.398" fill="none" /><path id="658" transform="matrix(1 0 0 -1 0 792)" d="M1069.252 145.269L1069.252 158.836" stroke="#000000" stroke-width="0.398" fill="none" /><path id="659" transform="matrix(1 0 0 -1 0 792)" d="M729.338 145.069L1069.451 145.069" stroke="#000000" stroke-width="0.398" fill="none" /><path id="678" transform="matrix(1 0 0 -1 0 792)" d="M666.067 722.529L1132.724 722.529L1132.724 722.529L1132.724 735.6745L1132.724 735.6745L666.067 735.6745z" stroke="#FFFFFF" stroke-width="1" fill="#FFFFFF" fill-rule="nonzero" /><path id="730" transform="matrix(1 0 0 -1 0 792)" d="M54.067 721.28L520.722 721.28" stroke="#000000" stroke-width="0.498" fill="none" /><path id="731" transform="matrix(1 0 0 -1 0 792)" d="M96.344 654.265L478.446 654.265" stroke="#000000" stroke-width="0.398" fill="none" /><path id="732" transform="matrix(1 0 0 -1 0 792)" d="M96.543 640.499L96.543 654.066" stroke="#000000" stroke-width="0.398" fill="none" /><path id="733" transform="matrix(1 0 0 -1 0 792)" d="M96.742 640.499L288.697 640.499L288.697 654.066L96.742 654.066z" stroke="none" fill="#CCCCEB" fill-rule="nonzero" /><path id="739" transform="matrix(1 0 0 -1 0 792)" d="M288.897 640.499L288.897 654.066" stroke="#000000" stroke-width="0.398" fill="none" /><path id="740" transform="matrix(1 0 0 -1 0 792)" d="M289.096 640.499L347.72 640.499L347.72 654.066L289.096 654.066z" stroke="none" fill="#CCCCEB" fill-rule="nonzero" /><path id="750" transform="matrix(1 0 0 -1 0 792)" d="M347.919 640.499L347.919 654.066" stroke="#000000" stroke-width="0.398" fill="none" /><path id="751" transform="matrix(1 0 0 -1 0 792)" d="M348.118 640.499L409.458 640.499L409.458 654.066L348.118 654.066z" stroke="none" fill="#CCCCEB" fill-rule="nonzero" /><path id="759" transform="matrix(1 0 0 -1 0 792)" d="M409.657 640.499L409.657 654.066" stroke="#000000" stroke-width="0.398" fill="none" /><path id="760" transform="matrix(1 0 0 -1 0 792)" d="M409.857 640.499L478.048 640.499L478.048 654.066L409.857 654.066z" stroke="none" fill="#CCCCEB" fill-rule="nonzero" /><path id="764" transform="matrix(1 0 0 -1 0 792)" d="M478.247 640.499L478.247 654.066" stroke="#000000" stroke-width="0.398" fill="none" /><path id="765" transform="matrix(1 0 0 -1 0 792)" d="M96.543 626.933L96.543 640.5" stroke="#000000" stroke-width="0.398" fill="none" /><path id="766" transform="matrix(1 0 0 -1 0 792)" d="M96.742 626.933L288.697 626.933L288.697 640.5L96.742 640.5z" stroke="none" fill="#CCCCEB" fill-rule="nonzero" /><path id="767" transform="matrix(1 0 0 -1 0 792)" d="M288.897 626.933L288.897 640.5" stroke="#000000" stroke-width="0.398" fill="none" /><path id="768" transform="matrix(1 0 0 -1 0 792)" d="M289.096 626.933L347.72 626.933L347.72 640.5L289.096 640.5z" stroke="none" fill="#CCCCEB" fill-rule="nonzero" /><path id="769" transform="matrix(1 0 0 -1 0 792)" d="M347.919 626.933L347.919 640.5" stroke="#000000" stroke-width="0.398" fill="none" /><path id="770" transform="matrix(1 0 0 -1 0 792)" d="M348.118 626.933L409.458 626.933L409.458 640.5L348.118 640.5z" stroke="none" fill="#CCCCEB" fill-rule="nonzero" /><path id="776" transform="matrix(1 0 0 -1 0 792)" d="M409.657 626.933L409.657 640.5" stroke="#000000" stroke-width="0.398" fill="none" /><path id="777" transform="matrix(1 0 0 -1 0 792)" d="M409.857 626.933L478.048 626.933L478.048 640.5L409.857 640.5z" stroke="none" fill="#CCCCEB" fill-rule="nonzero" /><path id="778" transform="matrix(1 0 0 -1 0 792)" d="M478.247 626.933L478.247 640.5" stroke="#000000" stroke-width="0.398" fill="none" /><path id="779" transform="matrix(1 0 0 -1 0 792)" d="M96.344 626.734L478.446 626.734" stroke="#000000" stroke-width="0.398" fill="none" /><path id="780" transform="matrix(1 0 0 -1 0 792)" d="M96.344 624.342L478.446 624.342" stroke="#000000" stroke-width="0.398" fill="none" /><path id="781" transform="matrix(1 0 0 -1 0 792)" d="M96.543 610.577L96.543 624.144" stroke="#000000" stroke-width="0.398" fill="none" /><path id="787" transform="matrix(1 0 0 -1 0 792)" d="M133.205 614.858L136.194 614.858" stroke="#000000" stroke-width="0.398" fill="none" /><path id="794" transform="matrix(1 0 0 -1 0 792)" d="M288.897 610.577L288.897 624.144" stroke="#000000" stroke-width="0.398" fill="none" /><path id="796" transform="matrix(1 0 0 -1 0 792)" d="M347.919 610.577L347.919 624.144" stroke="#000000" stroke-width="0.398" fill="none" /><path id="798" transform="matrix(1 0 0 -1 0 792)" d="M409.657 610.577L409.657 624.144" stroke="#000000" stroke-width="0.398" fill="none" /><path id="800" transform="matrix(1 0 0 -1 0 792)" d="M478.247 610.577L478.247 624.144" stroke="#000000" stroke-width="0.398" fill="none" /><path id="801" transform="matrix(1 0 0 -1 0 792)" d="M96.344 610.377L478.446 610.377" stroke="#000000" stroke-width="0.398" fill="none" /><path id="802" transform="matrix(1 0 0 -1 0 792)" d="M96.543 596.611L96.543 610.178" stroke="#000000" stroke-width="0.398" fill="none" /><path id="812" transform="matrix(1 0 0 -1 0 792)" d="M157.116 600.893L160.105 600.893" stroke="#000000" stroke-width="0.398" fill="none" /><path id="819" transform="matrix(1 0 0 -1 0 792)" d="M288.897 596.611L288.897 610.178" stroke="#000000" stroke-width="0.398" fill="none" /><path id="821" transform="matrix(1 0 0 -1 0 792)" d="M347.919 596.611L347.919 610.178" stroke="#000000" stroke-width="0.398" fill="none" /><path id="823" transform="matrix(1 0 0 -1 0 792)" d="M409.657 596.611L409.657 610.178" stroke="#000000" stroke-width="0.398" fill="none" /><path id="825" transform="matrix(1 0 0 -1 0 792)" d="M478.247 596.611L478.247 610.178" stroke="#000000" stroke-width="0.398" fill="none" /><path id="826" transform="matrix(1 0 0 -1 0 792)" d="M96.344 596.412L478.446 596.412" stroke="#000000" stroke-width="0.398" fill="none" /><path id="827" transform="matrix(1 0 0 -1 0 792)" d="M96.543 582.646L96.543 596.213" stroke="#000000" stroke-width="0.398" fill="none" /><path id="838" transform="matrix(1 0 0 -1 0 792)" d="M163.093 586.928L166.082 586.928" stroke="#000000" stroke-width="0.398" fill="none" /><path id="845" transform="matrix(1 0 0 -1 0 792)" d="M288.897 582.646L288.897 596.213" stroke="#000000" stroke-width="0.398" fill="none" /><path id="847" transform="matrix(1 0 0 -1 0 792)" d="M347.919 582.646L347.919 596.213" stroke="#000000" stroke-width="0.398" fill="none" /><path id="849" transform="matrix(1 0 0 -1 0 792)" d="M409.657 582.646L409.657 596.213" stroke="#000000" stroke-width="0.398" fill="none" /><path id="851" transform="matrix(1 0 0 -1 0 792)" d="M478.247 582.646L478.247 596.213" stroke="#000000" stroke-width="0.398" fill="none" /><path id="852" transform="matrix(1 0 0 -1 0 792)" d="M96.344 582.447L478.446 582.447" stroke="#000000" stroke-width="0.398" fill="none" /><path id="853" transform="matrix(1 0 0 -1 0 792)" d="M96.543 568.681L96.543 582.248" stroke="#000000" stroke-width="0.398" fill="none" /><path id="861" transform="matrix(1 0 0 -1 0 792)" d="M145.161 572.963L148.15 572.963" stroke="#000000" stroke-width="0.398" fill="none" /><path id="868" transform="matrix(1 0 0 -1 0 792)" d="M288.897 568.681L288.897 582.248" stroke="#000000" stroke-width="0.398" fill="none" /><path id="870" transform="matrix(1 0 0 -1 0 792)" d="M347.919 568.681L347.919 582.248" stroke="#000000" stroke-width="0.398" fill="none" /><path id="872" transform="matrix(1 0 0 -1 0 792)" d="M409.657 568.681L409.657 582.248" stroke="#000000" stroke-width="0.398" fill="none" /><path id="874" transform="matrix(1 0 0 -1 0 792)" d="M478.247 568.681L478.247 582.248" stroke="#000000" stroke-width="0.398" fill="none" /><path id="875" transform="matrix(1 0 0 -1 0 792)" d="M96.344 568.482L478.446 568.482" stroke="#000000" stroke-width="0.398" fill="none" /><path id="876" transform="matrix(1 0 0 -1 0 792)" d="M96.543 554.716L96.543 568.283" stroke="#000000" stroke-width="0.398" fill="none" /><path id="885" transform="matrix(1 0 0 -1 0 792)" d="M288.897 554.716L288.897 568.283" stroke="#000000" stroke-width="0.398" fill="none" /><path id="887" transform="matrix(1 0 0 -1 0 792)" d="M347.919 554.716L347.919 568.283" stroke="#000000" stroke-width="0.398" fill="none" /><path id="897" transform="matrix(1 0 0 -1 0 792)" d="M409.657 554.716L409.657 568.283" stroke="#000000" stroke-width="0.398" fill="none" /><path id="909" transform="matrix(1 0 0 -1 0 792)" d="M478.247 554.716L478.247 568.283" stroke="#000000" stroke-width="0.398" fill="none" /><path id="910" transform="matrix(1 0 0 -1 0 792)" d="M96.344 554.517L478.446 554.517" stroke="#000000" stroke-width="0.398" fill="none" /><path id="911" transform="matrix(1 0 0 -1 0 792)" d="M96.543 540.751L96.543 554.318" stroke="#000000" stroke-width="0.398" fill="none" /><path id="917" transform="matrix(1 0 0 -1 0 792)" d="M133.205 545.032L136.194 545.032" stroke="#000000" stroke-width="0.398" fill="none" /><path id="923" transform="matrix(1 0 0 -1 0 792)" d="M288.897 540.751L288.897 554.318" stroke="#000000" stroke-width="0.398" fill="none" /><path id="925" transform="matrix(1 0 0 -1 0 792)" d="M347.919 540.751L347.919 554.318" stroke="#000000" stroke-width="0.398" fill="none" /><path id="929" transform="matrix(1 0 0 -1 0 792)" d="M409.657 540.751L409.657 554.318" stroke="#000000" stroke-width="0.398" fill="none" /><path id="939" transform="matrix(1 0 0 -1 0 792)" d="M478.247 540.751L478.247 554.318" stroke="#000000" stroke-width="0.398" fill="none" /><path id="940" transform="matrix(1 0 0 -1 0 792)" d="M96.344 540.552L478.446 540.552" stroke="#000000" stroke-width="0.398" fill="none" /><path id="941" transform="matrix(1 0 0 -1 0 792)" d="M96.543 526.786L96.543 540.353" stroke="#000000" stroke-width="0.398" fill="none" /><path id="947" transform="matrix(1 0 0 -1 0 792)" d="M133.205 531.067L136.194 531.067" stroke="#000000" stroke-width="0.398" fill="none" /><path id="954" transform="matrix(1 0 0 -1 0 792)" d="M172.657 531.067L175.646 531.067" stroke="#000000" stroke-width="0.398" fill="none" /><path id="960" transform="matrix(1 0 0 -1 0 792)" d="M206.132 531.067L209.121 531.067" stroke="#000000" stroke-width="0.398" fill="none" /><path id="966" transform="matrix(1 0 0 -1 0 792)" d="M288.897 526.786L288.897 540.353" stroke="#000000" stroke-width="0.398" fill="none" /><path id="968" transform="matrix(1 0 0 -1 0 792)" d="M347.919 526.786L347.919 540.353" stroke="#000000" stroke-width="0.398" fill="none" /><path id="970" transform="matrix(1 0 0 -1 0 792)" d="M409.657 526.786L409.657 540.353" stroke="#000000" stroke-width="0.398" fill="none" /><path id="972" transform="matrix(1 0 0 -1 0 792)" d="M478.247 526.786L478.247 540.353" stroke="#000000" stroke-width="0.398" fill="none" /><path id="973" transform="matrix(1 0 0 -1 0 792)" d="M96.344 526.586L478.446 526.586" stroke="#000000" stroke-width="0.398" fill="none" /><path id="974" transform="matrix(1 0 0 -1 0 792)" d="M96.543 512.821L96.543 526.388" stroke="#000000" stroke-width="0.398" fill="none" /><path id="984" transform="matrix(1 0 0 -1 0 792)" d="M157.116 517.102L160.105 517.102" stroke="#000000" stroke-width="0.398" fill="none" /><path id="990" transform="matrix(1 0 0 -1 0 792)" d="M190.59 517.102L193.579 517.102" stroke="#000000" stroke-width="0.398" fill="none" /><path id="996" transform="matrix(1 0 0 -1 0 792)" d="M288.897 512.821L288.897 526.388" stroke="#000000" stroke-width="0.398" fill="none" /><path id="998" transform="matrix(1 0 0 -1 0 792)" d="M347.919 512.821L347.919 526.388" stroke="#000000" stroke-width="0.398" fill="none" /><path id="1000" transform="matrix(1 0 0 -1 0 792)" d="M409.657 512.821L409.657 526.388" stroke="#000000" stroke-width="0.398" fill="none" /><path id="1002" transform="matrix(1 0 0 -1 0 792)" d="M478.247 512.821L478.247 526.388" stroke="#000000" stroke-width="0.398" fill="none" /><path id="1003" transform="matrix(1 0 0 -1 0 792)" d="M96.344 512.621L478.446 512.621" stroke="#000000" stroke-width="0.398" fill="none" /><path id="1004" transform="matrix(1 0 0 -1 0 792)" d="M96.543 498.855L96.543 512.422" stroke="#000000" stroke-width="0.398" fill="none" /><path id="1015" transform="matrix(1 0 0 -1 0 792)" d="M163.093 503.137L166.082 503.137" stroke="#000000" stroke-width="0.398" fill="none" /><path id="1021" transform="matrix(1 0 0 -1 0 792)" d="M196.568 503.137L199.557 503.137" stroke="#000000" stroke-width="0.398" fill="none" /><path id="1027" transform="matrix(1 0 0 -1 0 792)" d="M288.897 498.855L288.897 512.422" stroke="#000000" stroke-width="0.398" fill="none" /><path id="1029" transform="matrix(1 0 0 -1 0 792)" d="M347.919 498.855L347.919 512.422" stroke="#000000" stroke-width="0.398" fill="none" /><path id="1031" transform="matrix(1 0 0 -1 0 792)" d="M409.657 498.855L409.657 512.422" stroke="#000000" stroke-width="0.398" fill="none" /><path id="1033" transform="matrix(1 0 0 -1 0 792)" d="M478.247 498.855L478.247 512.422" stroke="#000000" stroke-width="0.398" fill="none" /><path id="1034" transform="matrix(1 0 0 -1 0 792)" d="M96.344 498.656L478.446 498.656" stroke="#000000" stroke-width="0.398" fill="none" /><path id="1035" transform="matrix(1 0 0 -1 0 792)" d="M96.543 484.89L96.543 498.457" stroke="#000000" stroke-width="0.398" fill="none" /><path id="1043" transform="matrix(1 0 0 -1 0 792)" d="M145.161 489.172L148.15 489.172" stroke="#000000" stroke-width="0.398" fill="none" /><path id="1049" transform="matrix(1 0 0 -1 0 792)" d="M178.635 489.172L181.624 489.172" stroke="#000000" stroke-width="0.398" fill="none" /><path id="1055" transform="matrix(1 0 0 -1 0 792)" d="M288.897 484.89L288.897 498.457" stroke="#000000" stroke-width="0.398" fill="none" /><path id="1057" transform="matrix(1 0 0 -1 0 792)" d="M347.919 484.89L347.919 498.457" stroke="#000000" stroke-width="0.398" fill="none" /><path id="1059" transform="matrix(1 0 0 -1 0 792)" d="M409.657 484.89L409.657 498.457" stroke="#000000" stroke-width="0.398" fill="none" /><path id="1061" transform="matrix(1 0 0 -1 0 792)" d="M478.247 484.89L478.247 498.457" stroke="#000000" stroke-width="0.398" fill="none" /><path id="1062" transform="matrix(1 0 0 -1 0 792)" d="M96.344 484.691L478.446 484.691" stroke="#000000" stroke-width="0.398" fill="none" /><path id="1063" transform="matrix(1 0 0 -1 0 792)" d="M96.543 470.925L96.543 484.492" stroke="#000000" stroke-width="0.398" fill="none" /><path id="1070" transform="matrix(1 0 0 -1 0 792)" d="M139.183 475.207L142.172 475.207" stroke="#000000" stroke-width="0.398" fill="none" /><path id="1075" transform="matrix(1 0 0 -1 0 792)" d="M288.897 470.925L288.897 484.492" stroke="#000000" stroke-width="0.398" fill="none" /><path id="1077" transform="matrix(1 0 0 -1 0 792)" d="M347.919 470.925L347.919 484.492" stroke="#000000" stroke-width="0.398" fill="none" /><path id="1079" transform="matrix(1 0 0 -1 0 792)" d="M409.657 470.925L409.657 484.492" stroke="#000000" stroke-width="0.398" fill="none" /><path id="1081" transform="matrix(1 0 0 -1 0 792)" d="M478.247 470.925L478.247 484.492" stroke="#000000" stroke-width="0.398" fill="none" /><path id="1082" transform="matrix(1 0 0 -1 0 792)" d="M96.344 470.726L478.446 470.726" stroke="#000000" stroke-width="0.398" fill="none" /><path id="1083" transform="matrix(1 0 0 -1 0 792)" d="M96.543 456.96L96.543 470.527" stroke="#000000" stroke-width="0.398" fill="none" /><path id="1093" transform="matrix(1 0 0 -1 0 792)" d="M288.897 456.96L288.897 470.527" stroke="#000000" stroke-width="0.398" fill="none" /><path id="1095" transform="matrix(1 0 0 -1 0 792)" d="M347.919 456.96L347.919 470.527" stroke="#000000" stroke-width="0.398" fill="none" /><path id="1097" transform="matrix(1 0 0 -1 0 792)" d="M409.657 456.96L409.657 470.527" stroke="#000000" stroke-width="0.398" fill="none" /><path id="1099" transform="matrix(1 0 0 -1 0 792)" d="M478.247 456.96L478.247 470.527" stroke="#000000" stroke-width="0.398" fill="none" /><path id="1100" transform="matrix(1 0 0 -1 0 792)" d="M96.344 456.761L478.446 456.761" stroke="#000000" stroke-width="0.398" fill="none" /><path id="1101" transform="matrix(1 0 0 -1 0 792)" d="M96.543 442.995L96.543 456.562" stroke="#000000" stroke-width="0.398" fill="none" /><path id="1109" transform="matrix(1 0 0 -1 0 792)" d="M145.161 447.276L148.15 447.276" stroke="#000000" stroke-width="0.398" fill="none" /><path id="1116" transform="matrix(1 0 0 -1 0 792)" d="M288.897 442.995L288.897 456.562" stroke="#000000" stroke-width="0.398" fill="none" /><path id="1118" transform="matrix(1 0 0 -1 0 792)" d="M347.919 442.995L347.919 456.562" stroke="#000000" stroke-width="0.398" fill="none" /><path id="1120" transform="matrix(1 0 0 -1 0 792)" d="M409.657 442.995L409.657 456.562" stroke="#000000" stroke-width="0.398" fill="none" /><path id="1122" transform="matrix(1 0 0 -1 0 792)" d="M478.247 442.995L478.247 456.562" stroke="#000000" stroke-width="0.398" fill="none" /><path id="1123" transform="matrix(1 0 0 -1 0 792)" d="M96.344 442.796L478.446 442.796" stroke="#000000" stroke-width="0.398" fill="none" /><path id="1124" transform="matrix(1 0 0 -1 0 792)" d="M96.543 429.03L96.543 442.597" stroke="#000000" stroke-width="0.398" fill="none" /><path id="1129" transform="matrix(1 0 0 -1 0 792)" d="M127.228 433.311L130.217 433.311" stroke="#000000" stroke-width="0.398" fill="none" /><path id="1140" transform="matrix(1 0 0 -1 0 792)" d="M288.897 429.03L288.897 442.597" stroke="#000000" stroke-width="0.398" fill="none" /><path id="1142" transform="matrix(1 0 0 -1 0 792)" d="M347.919 429.03L347.919 442.597" stroke="#000000" stroke-width="0.398" fill="none" /><path id="1144" transform="matrix(1 0 0 -1 0 792)" d="M409.657 429.03L409.657 442.597" stroke="#000000" stroke-width="0.398" fill="none" /><path id="1146" transform="matrix(1 0 0 -1 0 792)" d="M478.247 429.03L478.247 442.597" stroke="#000000" stroke-width="0.398" fill="none" /><path id="1147" transform="matrix(1 0 0 -1 0 792)" d="M96.344 428.83L478.446 428.83" stroke="#000000" stroke-width="0.398" fill="none" /><path id="1148" transform="matrix(1 0 0 -1 0 792)" d="M96.543 415.064L96.543 428.631" stroke="#000000" stroke-width="0.398" fill="none" /><path id="1153" transform="matrix(1 0 0 -1 0 792)" d="M127.228 419.346L130.217 419.346" stroke="#000000" stroke-width="0.398" fill="none" /><path id="1164" transform="matrix(1 0 0 -1 0 792)" d="M288.897 415.064L288.897 428.631" stroke="#000000" stroke-width="0.398" fill="none" /><path id="1166" transform="matrix(1 0 0 -1 0 792)" d="M347.919 415.064L347.919 428.631" stroke="#000000" stroke-width="0.398" fill="none" /><path id="1168" transform="matrix(1 0 0 -1 0 792)" d="M409.657 415.064L409.657 428.631" stroke="#000000" stroke-width="0.398" fill="none" /><path id="1170" transform="matrix(1 0 0 -1 0 792)" d="M478.247 415.064L478.247 428.631" stroke="#000000" stroke-width="0.398" fill="none" /><path id="1171" transform="matrix(1 0 0 -1 0 792)" d="M96.344 414.865L478.446 414.865" stroke="#000000" stroke-width="0.398" fill="none" /><path id="1200" transform="matrix(1 0 0 -1 0 792)" d="M117.338 286.713L457.451 286.713" stroke="#000000" stroke-width="0.398" fill="none" /><path id="1201" transform="matrix(1 0 0 -1 0 792)" d="M117.537 272.948L117.537 286.515" stroke="#000000" stroke-width="0.398" fill="none" /><path id="1202" transform="matrix(1 0 0 -1 0 792)" d="M117.737 272.948L309.692 272.948L309.692 286.515L117.737 286.515z" stroke="none" fill="#CCCCEB" fill-rule="nonzero" /><path id="1208" transform="matrix(1 0 0 -1 0 792)" d="M309.891 272.948L309.891 286.515" stroke="#000000" stroke-width="0.398" fill="none" /><path id="1209" transform="matrix(1 0 0 -1 0 792)" d="M310.09 272.948L368.714 272.948L368.714 286.515L310.09 286.515z" stroke="none" fill="#CCCCEB" fill-rule="nonzero" /><path id="1219" transform="matrix(1 0 0 -1 0 792)" d="M368.913 272.948L368.913 286.515" stroke="#000000" stroke-width="0.398" fill="none" /><path id="1220" transform="matrix(1 0 0 -1 0 792)" d="M369.112 272.948L427.736 272.948L427.736 286.515L369.112 286.515z" stroke="none" fill="#CCCCEB" fill-rule="nonzero" /><path id="1228" transform="matrix(1 0 0 -1 0 792)" d="M427.935 272.948L427.935 286.515" stroke="#000000" stroke-width="0.398" fill="none" /><path id="1229" transform="matrix(1 0 0 -1 0 792)" d="M428.134 272.948L457.053 272.948L457.053 286.515L428.134 286.515z" stroke="none" fill="#CCCCEB" fill-rule="nonzero" /><path id="1233" transform="matrix(1 0 0 -1 0 792)" d="M457.252 272.948L457.252 286.515" stroke="#000000" stroke-width="0.398" fill="none" /><path id="1234" transform="matrix(1 0 0 -1 0 792)" d="M117.537 259.381L117.537 272.948" stroke="#000000" stroke-width="0.398" fill="none" /><path id="1235" transform="matrix(1 0 0 -1 0 792)" d="M117.737 259.381L309.692 259.381L309.692 272.948L117.737 272.948z" stroke="none" fill="#CCCCEB" fill-rule="nonzero" /><path id="1236" transform="matrix(1 0 0 -1 0 792)" d="M309.891 259.381L309.891 272.948" stroke="#000000" stroke-width="0.398" fill="none" /><path id="1237" transform="matrix(1 0 0 -1 0 792)" d="M310.09 259.381L368.714 259.381L368.714 272.948L310.09 272.948z" stroke="none" fill="#CCCCEB" fill-rule="nonzero" /><path id="1238" transform="matrix(1 0 0 -1 0 792)" d="M368.913 259.381L368.913 272.948" stroke="#000000" stroke-width="0.398" fill="none" /><path id="1239" transform="matrix(1 0 0 -1 0 792)" d="M369.112 259.381L427.736 259.381L427.736 272.948L369.112 272.948z" stroke="none" fill="#CCCCEB" fill-rule="nonzero" /><path id="1245" transform="matrix(1 0 0 -1 0 792)" d="M427.935 259.381L427.935 272.948" stroke="#000000" stroke-width="0.398" fill="none" /><path id="1246" transform="matrix(1 0 0 -1 0 792)" d="M428.134 259.381L457.053 259.381L457.053 272.948L428.134 272.948z" stroke="none" fill="#CCCCEB" fill-rule="nonzero" /><path id="1247" transform="matrix(1 0 0 -1 0 792)" d="M457.252 259.381L457.252 272.948" stroke="#000000" stroke-width="0.398" fill="none" /><path id="1248" transform="matrix(1 0 0 -1 0 792)" d="M117.338 259.182L457.451 259.182" stroke="#000000" stroke-width="0.398" fill="none" /><path id="1249" transform="matrix(1 0 0 -1 0 792)" d="M117.338 256.791L457.451 256.791" stroke="#000000" stroke-width="0.398" fill="none" /><path id="1250" transform="matrix(1 0 0 -1 0 792)" d="M117.537 243.025L117.537 256.592" stroke="#000000" stroke-width="0.398" fill="none" /><path id="1254" transform="matrix(1 0 0 -1 0 792)" d="M142.245 247.306L145.234 247.306" stroke="#000000" stroke-width="0.398" fill="none" /><path id="1260" transform="matrix(1 0 0 -1 0 792)" d="M309.891 243.025L309.891 256.592" stroke="#000000" stroke-width="0.398" fill="none" /><path id="1262" transform="matrix(1 0 0 -1 0 792)" d="M368.913 243.025L368.913 256.592" stroke="#000000" stroke-width="0.398" fill="none" /><path id="1264" transform="matrix(1 0 0 -1 0 792)" d="M427.935 243.025L427.935 256.592" stroke="#000000" stroke-width="0.398" fill="none" /><path id="1266" transform="matrix(1 0 0 -1 0 792)" d="M457.252 243.025L457.252 256.592" stroke="#000000" stroke-width="0.398" fill="none" /><path id="1267" transform="matrix(1 0 0 -1 0 792)" d="M117.338 242.825L457.451 242.825" stroke="#000000" stroke-width="0.398" fill="none" /><path id="1268" transform="matrix(1 0 0 -1 0 792)" d="M117.537 229.06L117.537 242.627" stroke="#000000" stroke-width="0.398" fill="none" /><path id="1272" transform="matrix(1 0 0 -1 0 792)" d="M142.245 233.341L145.234 233.341" stroke="#000000" stroke-width="0.398" fill="none" /><path id="1278" transform="matrix(1 0 0 -1 0 792)" d="M309.891 229.06L309.891 242.627" stroke="#000000" stroke-width="0.398" fill="none" /><path id="1280" transform="matrix(1 0 0 -1 0 792)" d="M368.913 229.06L368.913 242.627" stroke="#000000" stroke-width="0.398" fill="none" /><path id="1282" transform="matrix(1 0 0 -1 0 792)" d="M427.935 229.06L427.935 242.627" stroke="#000000" stroke-width="0.398" fill="none" /><path id="1284" transform="matrix(1 0 0 -1 0 792)" d="M457.252 229.06L457.252 242.627" stroke="#000000" stroke-width="0.398" fill="none" /><path id="1285" transform="matrix(1 0 0 -1 0 792)" d="M117.338 228.86L457.451 228.86" stroke="#000000" stroke-width="0.398" fill="none" /><path id="1286" transform="matrix(1 0 0 -1 0 792)" d="M117.537 215.094L117.537 228.661" stroke="#000000" stroke-width="0.398" fill="none" /><path id="1290" transform="matrix(1 0 0 -1 0 792)" d="M142.245 219.376L145.234 219.376" stroke="#000000" stroke-width="0.398" fill="none" /><path id="1298" transform="matrix(1 0 0 -1 0 792)" d="M309.891 215.094L309.891 228.661" stroke="#000000" stroke-width="0.398" fill="none" /><path id="1300" transform="matrix(1 0 0 -1 0 792)" d="M368.913 215.094L368.913 228.661" stroke="#000000" stroke-width="0.398" fill="none" /><path id="1302" transform="matrix(1 0 0 -1 0 792)" d="M427.935 215.094L427.935 228.661" stroke="#000000" stroke-width="0.398" fill="none" /><path id="1304" transform="matrix(1 0 0 -1 0 792)" d="M457.252 215.094L457.252 228.661" stroke="#000000" stroke-width="0.398" fill="none" /><path id="1305" transform="matrix(1 0 0 -1 0 792)" d="M117.338 214.895L457.451 214.895" stroke="#000000" stroke-width="0.398" fill="none" /><path id="1306" transform="matrix(1 0 0 -1 0 792)" d="M117.537 201.129L117.537 214.696" stroke="#000000" stroke-width="0.398" fill="none" /><path id="1310" transform="matrix(1 0 0 -1 0 792)" d="M142.245 205.411L145.234 205.411" stroke="#000000" stroke-width="0.398" fill="none" /><path id="1316" transform="matrix(1 0 0 -1 0 792)" d="M309.891 201.129L309.891 214.696" stroke="#000000" stroke-width="0.398" fill="none" /><path id="1318" transform="matrix(1 0 0 -1 0 792)" d="M368.913 201.129L368.913 214.696" stroke="#000000" stroke-width="0.398" fill="none" /><path id="1320" transform="matrix(1 0 0 -1 0 792)" d="M427.935 201.129L427.935 214.696" stroke="#000000" stroke-width="0.398" fill="none" /><path id="1322" transform="matrix(1 0 0 -1 0 792)" d="M457.252 201.129L457.252 214.696" stroke="#000000" stroke-width="0.398" fill="none" /><path id="1323" transform="matrix(1 0 0 -1 0 792)" d="M117.338 200.93L457.451 200.93" stroke="#000000" stroke-width="0.398" fill="none" /><path id="1324" transform="matrix(1 0 0 -1 0 792)" d="M117.537 187.164L117.537 200.731" stroke="#000000" stroke-width="0.398" fill="none" /><path id="1328" transform="matrix(1 0 0 -1 0 792)" d="M142.245 191.446L145.234 191.446" stroke="#000000" stroke-width="0.398" fill="none" /><path id="1332" transform="matrix(1 0 0 -1 0 792)" d="M309.891 187.164L309.891 200.731" stroke="#000000" stroke-width="0.398" fill="none" /><path id="1334" transform="matrix(1 0 0 -1 0 792)" d="M368.913 187.164L368.913 200.731" stroke="#000000" stroke-width="0.398" fill="none" /><path id="1336" transform="matrix(1 0 0 -1 0 792)" d="M427.935 187.164L427.935 200.731" stroke="#000000" stroke-width="0.398" fill="none" /><path id="1338" transform="matrix(1 0 0 -1 0 792)" d="M457.252 187.164L457.252 200.731" stroke="#000000" stroke-width="0.398" fill="none" /><path id="1339" transform="matrix(1 0 0 -1 0 792)" d="M117.338 186.965L457.451 186.965" stroke="#000000" stroke-width="0.398" fill="none" /><path id="1340" transform="matrix(1 0 0 -1 0 792)" d="M117.537 173.199L117.537 186.766" stroke="#000000" stroke-width="0.398" fill="none" /><path id="1344" transform="matrix(1 0 0 -1 0 792)" d="M142.245 177.48L145.234 177.48" stroke="#000000" stroke-width="0.398" fill="none" /><path id="1349" transform="matrix(1 0 0 -1 0 792)" d="M309.891 173.199L309.891 186.766" stroke="#000000" stroke-width="0.398" fill="none" /><path id="1351" transform="matrix(1 0 0 -1 0 792)" d="M368.913 173.199L368.913 186.766" stroke="#000000" stroke-width="0.398" fill="none" /><path id="1353" transform="matrix(1 0 0 -1 0 792)" d="M427.935 173.199L427.935 186.766" stroke="#000000" stroke-width="0.398" fill="none" /><path id="1355" transform="matrix(1 0 0 -1 0 792)" d="M457.252 173.199L457.252 186.766" stroke="#000000" stroke-width="0.398" fill="none" /><path id="1356" transform="matrix(1 0 0 -1 0 792)" d="M117.338 173L457.451 173" stroke="#000000" stroke-width="0.398" fill="none" /><path id="1357" transform="matrix(1 0 0 -1 0 792)" d="M117.537 159.234L117.537 172.801" stroke="#000000" stroke-width="0.398" fill="none" /><path id="1361" transform="matrix(1 0 0 -1 0 792)" d="M309.891 159.234L309.891 172.801" stroke="#000000" stroke-width="0.398" fill="none" /><path id="1363" transform="matrix(1 0 0 -1 0 792)" d="M368.913 159.234L368.913 172.801" stroke="#000000" stroke-width="0.398" fill="none" /><path id="1365" transform="matrix(1 0 0 -1 0 792)" d="M427.935 159.234L427.935 172.801" stroke="#000000" stroke-width="0.398" fill="none" /><path id="1367" transform="matrix(1 0 0 -1 0 792)" d="M457.252 159.234L457.252 172.801" stroke="#000000" stroke-width="0.398" fill="none" /><path id="1368" transform="matrix(1 0 0 -1 0 792)" d="M117.338 159.035L457.451 159.035" stroke="#000000" stroke-width="0.398" fill="none" /><path id="1369" transform="matrix(1 0 0 -1 0 792)" d="M117.537 145.269L117.537 158.836" stroke="#000000" stroke-width="0.398" fill="none" /><path id="1375" transform="matrix(1 0 0 -1 0 792)" d="M154.2 149.55L157.189 149.55" stroke="#000000" stroke-width="0.398" fill="none" /><path id="1381" transform="matrix(1 0 0 -1 0 792)" d="M309.891 145.269L309.891 158.836" stroke="#000000" stroke-width="0.398" fill="none" /><path id="1383" transform="matrix(1 0 0 -1 0 792)" d="M368.913 145.269L368.913 158.836" stroke="#000000" stroke-width="0.398" fill="none" /><path id="1385" transform="matrix(1 0 0 -1 0 792)" d="M427.935 145.269L427.935 158.836" stroke="#000000" stroke-width="0.398" fill="none" /><path id="1387" transform="matrix(1 0 0 -1 0 792)" d="M457.252 145.269L457.252 158.836" stroke="#000000" stroke-width="0.398" fill="none" /><path id="1388" transform="matrix(1 0 0 -1 0 792)" d="M117.338 145.069L457.451 145.069" stroke="#000000" stroke-width="0.398" fill="none" /></g></g></svg>