<svg xmlns="http://www.w3.org/2000/svg" xmlns:xlink="http://www.w3.org/1999/xlink" id="body_42" preserveAspectRatio="xMinYMin meet" viewBox="0 0 1632 1056"><defs><clipPath id="1"><path id="" clip-rule="evenodd" transform="matrix(1 0 0 1 0 0)" d="M0 792L0 0L0 0L1224 0L1224 0L1224 792L1224 792L0 792z" /></clipPath></defs><g transform="matrix(1.333333 0 0 1.333333 0 0)"><g clip-path="url(#1)"><path id="1" transform="matrix(1 0 0 -1 0 792)" d="M666.067 721.28L1132.722 721.28" stroke="#000000" stroke-width="0.498" fill="none" /><path id="2" transform="matrix(1 0 0 -1 0 792)" d="M862.774 658.765L865.763 658.765" stroke="#000000" stroke-width="0.398" fill="none" /><path id="3" transform="matrix(1 0 0 -1 0 792)" d="M890.271 658.765L893.26 658.765" stroke="#000000" stroke-width="0.398" fill="none" /><path id="4" transform="matrix(1 0 0 -1 0 792)" d="M911.79 658.765L914.779 658.765" stroke="#000000" stroke-width="0.398" fill="none" /><path id="5" transform="matrix(1 0 0 -1 0 792)" d="M963.198 658.765L966.187 658.765" stroke="#000000" stroke-width="0.398" fill="none" /><path id="6" transform="matrix(1 0 0 -1 0 792)" d="M1020.605 658.765L1023.594 658.765" stroke="#000000" stroke-width="0.398" fill="none" /><path id="7" transform="matrix(1 0 0 -1 0 792)" d="M1048.102 658.765L1051.091 658.765" stroke="#000000" stroke-width="0.398" fill="none" /><path id="8" transform="matrix(1 0 0 -1 0 792)" d="M1069.621 658.765L1072.61 658.765" stroke="#000000" stroke-width="0.398" fill="none" /><path id="9" transform="matrix(1 0 0 -1 0 792)" d="M1121.029 658.765L1124.018 658.765" stroke="#000000" stroke-width="0.398" fill="none" /><path id="10" transform="matrix(1 0 0 -1 0 792)" d="M708.508 645.215L711.497 645.215" stroke="#000000" stroke-width="0.398" fill="none" /><path id="11" transform="matrix(1 0 0 -1 0 792)" d="M736.0049 645.215L738.994 645.215" stroke="#000000" stroke-width="0.398" fill="none" /><path id="12" transform="matrix(1 0 0 -1 0 792)" d="M757.524 645.215L760.513 645.215" stroke="#000000" stroke-width="0.398" fill="none" /><path id="13" transform="matrix(1 0 0 -1 0 792)" d="M808.931 645.215L811.92 645.215" stroke="#000000" stroke-width="0.398" fill="none" /><path id="14" transform="matrix(1 0 0 -1 0 792)" d="M865.92 645.215L868.909 645.215" stroke="#000000" stroke-width="0.398" fill="none" /><path id="15" transform="matrix(1 0 0 -1 0 792)" d="M893.417 645.215L896.406 645.215" stroke="#000000" stroke-width="0.398" fill="none" /><path id="16" transform="matrix(1 0 0 -1 0 792)" d="M914.936 645.215L917.925 645.215" stroke="#000000" stroke-width="0.398" fill="none" /><path id="17" transform="matrix(1 0 0 -1 0 792)" d="M966.344 645.215L969.333 645.215" stroke="#000000" stroke-width="0.398" fill="none" /><path id="18" transform="matrix(1 0 0 -1 0 792)" d="M1023.332 645.215L1026.321 645.215" stroke="#000000" stroke-width="0.398" fill="none" /><path id="19" transform="matrix(1 0 0 -1 0 792)" d="M1050.829 645.215L1053.818 645.215" stroke="#000000" stroke-width="0.398" fill="none" /><path id="20" transform="matrix(1 0 0 -1 0 792)" d="M1072.349 645.215L1075.338 645.215" stroke="#000000" stroke-width="0.398" fill="none" /><path id="21" transform="matrix(1 0 0 -1 0 792)" d="M1123.756 645.215L1126.745 645.215" stroke="#000000" stroke-width="0.398" fill="none" /><path id="22" transform="matrix(1 0 0 -1 0 792)" d="M731.7549 631.666L734.744 631.666" stroke="#000000" stroke-width="0.398" fill="none" /><path id="23" transform="matrix(1 0 0 -1 0 792)" d="M759.252 631.666L762.241 631.666" stroke="#000000" stroke-width="0.398" fill="none" /><path id="24" transform="matrix(1 0 0 -1 0 792)" d="M780.771 631.666L783.76 631.666" stroke="#000000" stroke-width="0.398" fill="none" /><path id="25" transform="matrix(1 0 0 -1 0 792)" d="M832.178 631.666L835.167 631.666" stroke="#000000" stroke-width="0.398" fill="none" /><path id="26" transform="matrix(1 0 0 -1 0 792)" d="M939.33 631.666L942.319 631.666" stroke="#000000" stroke-width="0.398" fill="none" /><path id="27" transform="matrix(1 0 0 -1 0 792)" d="M758.798 603.788L761.787 603.788" stroke="#000000" stroke-width="0.398" fill="none" /><path id="28" transform="matrix(1 0 0 -1 0 792)" d="M1065.906 589.459L1068.895 589.459" stroke="#000000" stroke-width="0.398" fill="none" /><path id="29" transform="matrix(1 0 0 -1 0 792)" d="M1128.091 589.459L1131.08 589.459" stroke="#000000" stroke-width="0.398" fill="none" /><path id="30" transform="matrix(1 0 0 -1 0 792)" d="M690.575 575.91L693.564 575.91" stroke="#000000" stroke-width="0.398" fill="none" /><path id="31" transform="matrix(1 0 0 -1 0 792)" d="M712.095 575.91L715.084 575.91" stroke="#000000" stroke-width="0.398" fill="none" /><path id="32" transform="matrix(1 0 0 -1 0 792)" d="M763.502 575.91L766.491 575.91" stroke="#000000" stroke-width="0.398" fill="none" /><path id="33" transform="matrix(1 0 0 -1 0 792)" d="M819.709 575.91L822.698 575.91" stroke="#000000" stroke-width="0.398" fill="none" /><path id="34" transform="matrix(1 0 0 -1 0 792)" d="M847.206 575.91L850.195 575.91" stroke="#000000" stroke-width="0.398" fill="none" /><path id="35" transform="matrix(1 0 0 -1 0 792)" d="M868.725 575.91L871.714 575.91" stroke="#000000" stroke-width="0.398" fill="none" /><path id="36" transform="matrix(1 0 0 -1 0 792)" d="M920.132 575.91L923.121 575.91" stroke="#000000" stroke-width="0.398" fill="none" /><path id="37" transform="matrix(1 0 0 -1 0 792)" d="M976.34 575.91L979.329 575.91" stroke="#000000" stroke-width="0.398" fill="none" /><path id="38" transform="matrix(1 0 0 -1 0 792)" d="M1003.837 575.91L1006.826 575.91" stroke="#000000" stroke-width="0.398" fill="none" /><path id="39" transform="matrix(1 0 0 -1 0 792)" d="M1025.356 575.91L1028.345 575.91" stroke="#000000" stroke-width="0.398" fill="none" /><path id="40" transform="matrix(1 0 0 -1 0 792)" d="M1076.763 575.91L1079.752 575.91" stroke="#000000" stroke-width="0.398" fill="none" /><path id="41" transform="matrix(1 0 0 -1 0 792)" d="M1132.97 575.91L1135.959 575.91" stroke="#000000" stroke-width="0.398" fill="none" /><path id="42" transform="matrix(1 0 0 -1 0 792)" d="M690.575 562.361L693.564 562.361" stroke="#000000" stroke-width="0.398" fill="none" /><path id="43" transform="matrix(1 0 0 -1 0 792)" d="M712.095 562.361L715.084 562.361" stroke="#000000" stroke-width="0.398" fill="none" /><path id="44" transform="matrix(1 0 0 -1 0 792)" d="M763.502 562.361L766.491 562.361" stroke="#000000" stroke-width="0.398" fill="none" /><path id="45" transform="matrix(1 0 0 -1 0 792)" d="M820.364 562.361L823.353 562.361" stroke="#000000" stroke-width="0.398" fill="none" /><path id="46" transform="matrix(1 0 0 -1 0 792)" d="M847.86 562.361L850.849 562.361" stroke="#000000" stroke-width="0.398" fill="none" /><path id="47" transform="matrix(1 0 0 -1 0 792)" d="M869.38 562.361L872.369 562.361" stroke="#000000" stroke-width="0.398" fill="none" /><path id="48" transform="matrix(1 0 0 -1 0 792)" d="M920.787 562.361L923.776 562.361" stroke="#000000" stroke-width="0.398" fill="none" /><path id="49" transform="matrix(1 0 0 -1 0 792)" d="M989.463 562.361L992.452 562.361" stroke="#000000" stroke-width="0.398" fill="none" /><path id="50" transform="matrix(1 0 0 -1 0 792)" d="M1016.96 562.361L1019.949 562.361" stroke="#000000" stroke-width="0.398" fill="none" /><path id="51" transform="matrix(1 0 0 -1 0 792)" d="M1038.479 562.361L1041.468 562.361" stroke="#000000" stroke-width="0.398" fill="none" /><path id="52" transform="matrix(1 0 0 -1 0 792)" d="M1089.887 562.361L1092.876 562.361" stroke="#000000" stroke-width="0.398" fill="none" /><path id="53" transform="matrix(1 0 0 -1 0 792)" d="M770.915 520.934L773.904 520.934" stroke="#000000" stroke-width="0.398" fill="none" /><path id="54" transform="matrix(1 0 0 -1 0 792)" d="M834.277 520.934L837.266 520.934" stroke="#000000" stroke-width="0.398" fill="none" /><path id="55" transform="matrix(1 0 0 -1 0 792)" d="M873.729 520.934L876.718 520.934" stroke="#000000" stroke-width="0.398" fill="none" /><path id="56" transform="matrix(1 0 0 -1 0 792)" d="M808.35 507.384L811.339 507.384" stroke="#000000" stroke-width="0.398" fill="none" /><path id="57" transform="matrix(1 0 0 -1 0 792)" d="M871.712 507.384L874.701 507.384" stroke="#000000" stroke-width="0.398" fill="none" /><path id="58" transform="matrix(1 0 0 -1 0 792)" d="M911.164 507.384L914.153 507.384" stroke="#000000" stroke-width="0.398" fill="none" /><path id="59" transform="matrix(1 0 0 -1 0 792)" d="M732.418 493.835L735.407 493.835" stroke="#000000" stroke-width="0.398" fill="none" /><path id="60" transform="matrix(1 0 0 -1 0 792)" d="M795.781 493.835L798.77 493.835" stroke="#000000" stroke-width="0.398" fill="none" /><path id="61" transform="matrix(1 0 0 -1 0 792)" d="M841.21 493.835L844.199 493.835" stroke="#000000" stroke-width="0.398" fill="none" /><path id="62" transform="matrix(1 0 0 -1 0 792)" d="M898.634 480.286L901.623 480.286" stroke="#000000" stroke-width="0.398" fill="none" /><path id="63" transform="matrix(1 0 0 -1 0 792)" d="M961.997 480.286L964.986 480.286" stroke="#000000" stroke-width="0.398" fill="none" /><path id="64" transform="matrix(1 0 0 -1 0 792)" d="M1007.426 480.286L1010.415 480.286" stroke="#000000" stroke-width="0.398" fill="none" /><path id="65" transform="matrix(1 0 0 -1 0 792)" d="M1034.923 480.286L1037.912 480.286" stroke="#000000" stroke-width="0.398" fill="none" /><path id="66" transform="matrix(1 0 0 -1 0 792)" d="M1056.443 480.286L1059.432 480.286" stroke="#000000" stroke-width="0.398" fill="none" /><path id="67" transform="matrix(1 0 0 -1 0 792)" d="M666.067 722.529L1132.724 722.529L1132.724 722.529L1132.724 735.6745L1132.724 735.6745L666.067 735.6745z" stroke="#FFFFFF" stroke-width="1" fill="#FFFFFF" fill-rule="nonzero" /><path id="80" transform="matrix(1 0 0 -1 0 792)" d="M683.004 682.599L1132.721 682.599L1132.721 682.599L1132.721 695.7445L1132.721 695.7445L683.004 695.7445z" stroke="#FFFFFF" stroke-width="1" fill="#FFFFFF" fill-rule="nonzero" /><path id="121" transform="matrix(1 0 0 -1 0 792)" d="M666.067 628.401L1132.723 628.401L1132.723 628.401L1132.723 682.1945L1132.723 682.1945L666.067 682.1945z" stroke="#FFFFFF" stroke-width="1" fill="#FFFFFF" fill-rule="nonzero" /><path id="318" transform="matrix(1 0 0 -1 0 792)" d="M683.004 614.073L1132.727 614.073L1132.727 614.073L1132.727 627.2185L1132.727 627.2185L683.004 627.2185z" stroke="#FFFFFF" stroke-width="1" fill="#FFFFFF" fill-rule="nonzero" /><path id="356" transform="matrix(1 0 0 -1 0 792)" d="M666.067 600.524L849.537 600.524L849.537 600.524L849.537 613.6695L849.537 613.6695L666.067 613.6695z" stroke="#FFFFFF" stroke-width="1" fill="#FFFFFF" fill-rule="nonzero" /><path id="367" transform="matrix(1 0 0 -1 0 792)" d="M683.004 585.863L1137.058 585.863L1137.058 585.863L1137.058 599.3401L1137.058 599.3401L683.004 599.3401z" stroke="#FFFFFF" stroke-width="1" fill="#FFFFFF" fill-rule="nonzero" /><path id="435" transform="matrix(1 0 0 -1 0 792)" d="M666.067 559.097L1141.937 559.097L1141.937 559.097L1141.937 585.7915L1141.937 585.7915L666.067 585.7915z" stroke="#FFFFFF" stroke-width="1" fill="#FFFFFF" fill-rule="nonzero" /><path id="513" transform="matrix(1 0 0 -1 0 792)" d="M683.004 544.436L1132.719 544.436L1132.719 544.436L1132.719 557.9131L1132.719 557.9131L683.004 557.9131z" stroke="#FFFFFF" stroke-width="1" fill="#FFFFFF" fill-rule="nonzero" /><path id="558" transform="matrix(1 0 0 -1 0 792)" d="M666.067 409.276L1132.727 409.276L1132.727 409.276L1132.727 544.365L1132.727 544.365L666.067 544.365z" stroke="#FFFFFF" stroke-width="1" fill="#FFFFFF" fill-rule="nonzero" /><path id="926" transform="matrix(1 0 0 -1 0 792)" d="M683.004 394.615L1132.722 394.615L1132.722 394.615L1132.722 408.0923L1132.722 408.0923L683.004 408.0923z" stroke="#FFFFFF" stroke-width="1" fill="#FFFFFF" fill-rule="nonzero" /><path id="967" transform="matrix(1 0 0 -1 0 792)" d="M666.067 367.848L1132.724 367.848L1132.724 367.848L1132.724 394.5425L1132.724 394.5425L666.067 394.5425z" stroke="#FFFFFF" stroke-width="1" fill="#FFFFFF" fill-rule="nonzero" /><path id="1019" transform="matrix(1 0 0 -1 0 792)" d="M683.004 353.519L1132.721 353.519L1132.721 353.519L1132.721 366.6645L1132.721 366.6645L683.004 366.6645z" stroke="#FFFFFF" stroke-width="1" fill="#FFFFFF" fill-rule="nonzero" /><path id="1054" transform="matrix(1 0 0 -1 0 792)" d="M666.067 285.773L1132.725 285.773L1132.725 285.773L1132.725 353.1145L1132.725 353.1145L666.067 353.1145z" stroke="#FFFFFF" stroke-width="1" fill="#FFFFFF" fill-rule="nonzero" /><path id="1205" transform="matrix(1 0 0 -1 0 792)" d="M666.067 236.29L1132.726 236.29L1132.726 236.29L1132.726 265.7917L1132.726 265.7917L666.067 265.7917z" stroke="#FFFFFF" stroke-width="1" fill="#FFFFFF" fill-rule="nonzero" /><path id="1233" transform="matrix(1 0 0 -1 0 792)" d="M666.067 147.094L1132.726 147.094L1132.726 147.094L1132.726 227.9854L1132.726 227.9854L666.067 227.9854z" stroke="#FFFFFF" stroke-width="1" fill="#FFFFFF" fill-rule="nonzero" /><path id="1401" transform="matrix(1 0 0 -1 0 792)" d="M683.004 132.766L1126.513 132.766L1126.513 132.766L1126.513 145.9115L1126.513 145.9115L683.004 145.9115z" stroke="#FFFFFF" stroke-width="1" fill="#FFFFFF" fill-rule="nonzero" /><path id="1432" transform="matrix(1 0 0 -1 0 792)" d="M682.431 95.9562L1132.722 95.9562L1132.722 95.9562L1132.722 116.9016L1132.722 116.9016L682.431 116.9016z" stroke="#FFFFFF" stroke-width="1" fill="#FFFFFF" fill-rule="nonzero" /><path id="1462" transform="matrix(1 0 0 -1 0 792)" d="M682.431 56.7722L964.188 56.7722L964.188 56.7722L964.188 77.71761L964.188 77.71761L682.431 77.71761z" stroke="#FFFFFF" stroke-width="1" fill="#FFFFFF" fill-rule="nonzero" /><path id="1541" transform="matrix(1 0 0 -1 0 792)" d="M54.067 721.28L520.722 721.28" stroke="#000000" stroke-width="0.498" fill="none" /><path id="1755" transform="matrix(1 0 0 -1 0 792)" d="M250.774 658.765L253.763 658.765" stroke="#000000" stroke-width="0.398" fill="none" /><path id="1760" transform="matrix(1 0 0 -1 0 792)" d="M278.271 658.765L281.26 658.765" stroke="#000000" stroke-width="0.398" fill="none" /><path id="1764" transform="matrix(1 0 0 -1 0 792)" d="M299.79 658.765L302.779 658.765" stroke="#000000" stroke-width="0.398" fill="none" /><path id="1773" transform="matrix(1 0 0 -1 0 792)" d="M351.198 658.765L354.187 658.765" stroke="#000000" stroke-width="0.398" fill="none" /><path id="1783" transform="matrix(1 0 0 -1 0 792)" d="M408.605 658.765L411.594 658.765" stroke="#000000" stroke-width="0.398" fill="none" /><path id="1788" transform="matrix(1 0 0 -1 0 792)" d="M436.102 658.765L439.091 658.765" stroke="#000000" stroke-width="0.398" fill="none" /><path id="1792" transform="matrix(1 0 0 -1 0 792)" d="M457.621 658.765L460.61 658.765" stroke="#000000" stroke-width="0.398" fill="none" /><path id="1801" transform="matrix(1 0 0 -1 0 792)" d="M509.029 658.765L512.018 658.765" stroke="#000000" stroke-width="0.398" fill="none" /><path id="1811" transform="matrix(1 0 0 -1 0 792)" d="M96.508 645.215L99.497 645.215" stroke="#000000" stroke-width="0.398" fill="none" /><path id="1816" transform="matrix(1 0 0 -1 0 792)" d="M124.005 645.215L126.994 645.215" stroke="#000000" stroke-width="0.398" fill="none" /><path id="1820" transform="matrix(1 0 0 -1 0 792)" d="M145.524 645.215L148.513 645.215" stroke="#000000" stroke-width="0.398" fill="none" /><path id="1829" transform="matrix(1 0 0 -1 0 792)" d="M196.931 645.215L199.92 645.215" stroke="#000000" stroke-width="0.398" fill="none" /><path id="1839" transform="matrix(1 0 0 -1 0 792)" d="M253.92 645.215L256.909 645.215" stroke="#000000" stroke-width="0.398" fill="none" /><path id="1844" transform="matrix(1 0 0 -1 0 792)" d="M281.417 645.215L284.406 645.215" stroke="#000000" stroke-width="0.398" fill="none" /><path id="1848" transform="matrix(1 0 0 -1 0 792)" d="M302.936 645.215L305.925 645.215" stroke="#000000" stroke-width="0.398" fill="none" /><path id="1857" transform="matrix(1 0 0 -1 0 792)" d="M354.344 645.215L357.333 645.215" stroke="#000000" stroke-width="0.398" fill="none" /><path id="1867" transform="matrix(1 0 0 -1 0 792)" d="M411.332 645.215L414.321 645.215" stroke="#000000" stroke-width="0.398" fill="none" /><path id="1872" transform="matrix(1 0 0 -1 0 792)" d="M438.829 645.215L441.818 645.215" stroke="#000000" stroke-width="0.398" fill="none" /><path id="1876" transform="matrix(1 0 0 -1 0 792)" d="M460.349 645.215L463.338 645.215" stroke="#000000" stroke-width="0.398" fill="none" /><path id="1885" transform="matrix(1 0 0 -1 0 792)" d="M511.756 645.215L514.745 645.215" stroke="#000000" stroke-width="0.398" fill="none" /><path id="1898" transform="matrix(1 0 0 -1 0 792)" d="M119.755 631.666L122.744 631.666" stroke="#000000" stroke-width="0.398" fill="none" /><path id="1903" transform="matrix(1 0 0 -1 0 792)" d="M147.252 631.666L150.241 631.666" stroke="#000000" stroke-width="0.398" fill="none" /><path id="1907" transform="matrix(1 0 0 -1 0 792)" d="M168.771 631.666L171.76 631.666" stroke="#000000" stroke-width="0.398" fill="none" /><path id="1916" transform="matrix(1 0 0 -1 0 792)" d="M220.178 631.666L223.167 631.666" stroke="#000000" stroke-width="0.398" fill="none" /><path id="1936" transform="matrix(1 0 0 -1 0 792)" d="M327.33 631.666L330.319 631.666" stroke="#000000" stroke-width="0.398" fill="none" /><path id="2058" transform="matrix(1 0 0 -1 0 792)" d="M146.798 603.788L149.787 603.788" stroke="#000000" stroke-width="0.398" fill="none" /><path id="2151" transform="matrix(1 0 0 -1 0 792)" d="M453.906 589.459L456.895 589.459" stroke="#000000" stroke-width="0.398" fill="none" /><path id="2162" transform="matrix(1 0 0 -1 0 792)" d="M516.091 589.459L519.08 589.459" stroke="#000000" stroke-width="0.398" fill="none" /><path id="2168" transform="matrix(1 0 0 -1 0 792)" d="M78.575 575.91L81.564 575.91" stroke="#000000" stroke-width="0.398" fill="none" /><path id="2172" transform="matrix(1 0 0 -1 0 792)" d="M100.095 575.91L103.084 575.91" stroke="#000000" stroke-width="0.398" fill="none" /><path id="2181" transform="matrix(1 0 0 -1 0 792)" d="M151.502 575.91L154.491 575.91" stroke="#000000" stroke-width="0.398" fill="none" /><path id="2191" transform="matrix(1 0 0 -1 0 792)" d="M207.709 575.91L210.698 575.91" stroke="#000000" stroke-width="0.398" fill="none" /><path id="2196" transform="matrix(1 0 0 -1 0 792)" d="M235.206 575.91L238.195 575.91" stroke="#000000" stroke-width="0.398" fill="none" /><path id="2200" transform="matrix(1 0 0 -1 0 792)" d="M256.725 575.91L259.714 575.91" stroke="#000000" stroke-width="0.398" fill="none" /><path id="2209" transform="matrix(1 0 0 -1 0 792)" d="M308.132 575.91L311.121 575.91" stroke="#000000" stroke-width="0.398" fill="none" /><path id="2219" transform="matrix(1 0 0 -1 0 792)" d="M364.34 575.91L367.329 575.91" stroke="#000000" stroke-width="0.398" fill="none" /><path id="2224" transform="matrix(1 0 0 -1 0 792)" d="M391.837 575.91L394.826 575.91" stroke="#000000" stroke-width="0.398" fill="none" /><path id="2228" transform="matrix(1 0 0 -1 0 792)" d="M413.356 575.91L416.345 575.91" stroke="#000000" stroke-width="0.398" fill="none" /><path id="2237" transform="matrix(1 0 0 -1 0 792)" d="M464.763 575.91L467.752 575.91" stroke="#000000" stroke-width="0.398" fill="none" /><path id="2247" transform="matrix(1 0 0 -1 0 792)" d="M520.97 575.91L523.959 575.91" stroke="#000000" stroke-width="0.398" fill="none" /><path id="2253" transform="matrix(1 0 0 -1 0 792)" d="M78.575 562.361L81.564 562.361" stroke="#000000" stroke-width="0.398" fill="none" /><path id="2257" transform="matrix(1 0 0 -1 0 792)" d="M100.095 562.361L103.084 562.361" stroke="#000000" stroke-width="0.398" fill="none" /><path id="2266" transform="matrix(1 0 0 -1 0 792)" d="M151.502 562.361L154.491 562.361" stroke="#000000" stroke-width="0.398" fill="none" /><path id="2276" transform="matrix(1 0 0 -1 0 792)" d="M208.364 562.361L211.353 562.361" stroke="#000000" stroke-width="0.398" fill="none" /><path id="2281" transform="matrix(1 0 0 -1 0 792)" d="M235.86 562.361L238.849 562.361" stroke="#000000" stroke-width="0.398" fill="none" /><path id="2285" transform="matrix(1 0 0 -1 0 792)" d="M257.38 562.361L260.369 562.361" stroke="#000000" stroke-width="0.398" fill="none" /><path id="2294" transform="matrix(1 0 0 -1 0 792)" d="M308.787 562.361L311.776 562.361" stroke="#000000" stroke-width="0.398" fill="none" /><path id="2306" transform="matrix(1 0 0 -1 0 792)" d="M377.463 562.361L380.452 562.361" stroke="#000000" stroke-width="0.398" fill="none" /><path id="2311" transform="matrix(1 0 0 -1 0 792)" d="M404.96 562.361L407.949 562.361" stroke="#000000" stroke-width="0.398" fill="none" /><path id="2315" transform="matrix(1 0 0 -1 0 792)" d="M426.479 562.361L429.468 562.361" stroke="#000000" stroke-width="0.398" fill="none" /><path id="2324" transform="matrix(1 0 0 -1 0 792)" d="M477.887 562.361L480.876 562.361" stroke="#000000" stroke-width="0.398" fill="none" /><path id="2520" transform="matrix(1 0 0 -1 0 792)" d="M158.915 520.934L161.904 520.934" stroke="#000000" stroke-width="0.398" fill="none" /><path id="2531" transform="matrix(1 0 0 -1 0 792)" d="M222.277 520.934L225.266 520.934" stroke="#000000" stroke-width="0.398" fill="none" /><path id="2538" transform="matrix(1 0 0 -1 0 792)" d="M261.729 520.934L264.718 520.934" stroke="#000000" stroke-width="0.398" fill="none" /><path id="2610" transform="matrix(1 0 0 -1 0 792)" d="M196.35 507.384L199.339 507.384" stroke="#000000" stroke-width="0.398" fill="none" /><path id="2621" transform="matrix(1 0 0 -1 0 792)" d="M259.712 507.384L262.701 507.384" stroke="#000000" stroke-width="0.398" fill="none" /><path id="2628" transform="matrix(1 0 0 -1 0 792)" d="M299.164 507.384L302.153 507.384" stroke="#000000" stroke-width="0.398" fill="none" /><path id="2682" transform="matrix(1 0 0 -1 0 792)" d="M120.418 493.835L123.407 493.835" stroke="#000000" stroke-width="0.398" fill="none" /><path id="2693" transform="matrix(1 0 0 -1 0 792)" d="M183.781 493.835L186.77 493.835" stroke="#000000" stroke-width="0.398" fill="none" /><path id="2701" transform="matrix(1 0 0 -1 0 792)" d="M229.21 493.835L232.199 493.835" stroke="#000000" stroke-width="0.398" fill="none" /><path id="2798" transform="matrix(1 0 0 -1 0 792)" d="M286.634 480.286L289.623 480.286" stroke="#000000" stroke-width="0.398" fill="none" /><path id="2809" transform="matrix(1 0 0 -1 0 792)" d="M349.997 480.286L352.986 480.286" stroke="#000000" stroke-width="0.398" fill="none" /><path id="2817" transform="matrix(1 0 0 -1 0 792)" d="M395.426 480.286L398.415 480.286" stroke="#000000" stroke-width="0.398" fill="none" /><path id="2822" transform="matrix(1 0 0 -1 0 792)" d="M422.923 480.286L425.912 480.286" stroke="#000000" stroke-width="0.398" fill="none" /><path id="2826" transform="matrix(1 0 0 -1 0 792)" d="M444.443 480.286L447.432 480.286" stroke="#000000" stroke-width="0.398" fill="none" /></g></g></svg>