<svg xmlns="http://www.w3.org/2000/svg" xmlns:xlink="http://www.w3.org/1999/xlink" id="body_21" preserveAspectRatio="xMinYMin meet" viewBox="0 0 1632 1056"><defs><clipPath id="1"><path id="" clip-rule="evenodd" transform="matrix(1 0 0 1 0 0)" d="M0 792L0 0L0 0L1224 0L1224 0L1224 792L1224 792L0 792z" /></clipPath></defs><g transform="matrix(1.333333 0 0 1.333333 0 0)"><g clip-path="url(#1)"><path id="16" transform="matrix(1 0 0 -1 0 792)" d="M701.933 721.28L1168.588 721.28" stroke="#000000" stroke-width="0.498" fill="none" /><path id="17" transform="matrix(1 0 0 -1 0 792)" d="M701.933 696.423L1146.685 696.423" stroke="#000000" stroke-width="0.398" fill="none" /><path id="18" transform="matrix(1 0 0 -1 0 792)" d="M702.132 682.658L702.132 696.225" stroke="#000000" stroke-width="0.398" fill="none" /><path id="19" transform="matrix(1 0 0 -1 0 792)" d="M702.331 682.658L1031.086 682.658L1031.086 696.225L702.331 696.225z" stroke="none" fill="#CCCCEB" fill-rule="nonzero" /><path id="29" transform="matrix(1 0 0 -1 0 792)" d="M1031.285 682.658L1031.285 696.225" stroke="#000000" stroke-width="0.398" fill="none" /><path id="30" transform="matrix(1 0 0 -1 0 792)" d="M1031.484 682.658L1146.286 682.658L1146.286 696.225L1031.484 696.225z" stroke="none" fill="#CCCCEB" fill-rule="nonzero" /><path id="37" transform="matrix(1 0 0 -1 0 792)" d="M1146.486 682.658L1146.486 696.225" stroke="#000000" stroke-width="0.398" fill="none" /><path id="38" transform="matrix(1 0 0 -1 0 792)" d="M701.933 682.458L1146.685 682.458" stroke="#000000" stroke-width="0.398" fill="none" /><path id="39" transform="matrix(1 0 0 -1 0 792)" d="M701.933 680.067L1146.685 680.067" stroke="#000000" stroke-width="0.398" fill="none" /><path id="40" transform="matrix(1 0 0 -1 0 792)" d="M702.132 666.301L702.132 679.868" stroke="#000000" stroke-width="0.398" fill="none" /><path id="63" transform="matrix(1 0 0 -1 0 792)" d="M1031.285 666.301L1031.285 679.868" stroke="#000000" stroke-width="0.398" fill="none" /><path id="64" transform="matrix(1 0 0 -1 0 792)" d="M1146.486 666.301L1146.486 679.868" stroke="#000000" stroke-width="0.398" fill="none" /><path id="65" transform="matrix(1 0 0 -1 0 792)" d="M701.933 666.102L1146.685 666.102" stroke="#000000" stroke-width="0.398" fill="none" /><path id="66" transform="matrix(1 0 0 -1 0 792)" d="M702.132 652.336L702.132 665.903" stroke="#000000" stroke-width="0.398" fill="none" /><path id="90" transform="matrix(1 0 0 -1 0 792)" d="M823.675 656.618L826.664 656.618" stroke="#000000" stroke-width="0.398" fill="none" /><path id="96" transform="matrix(1 0 0 -1 0 792)" d="M1031.285 652.336L1031.285 665.903" stroke="#000000" stroke-width="0.398" fill="none" /><path id="97" transform="matrix(1 0 0 -1 0 792)" d="M1146.486 652.336L1146.486 665.903" stroke="#000000" stroke-width="0.398" fill="none" /><path id="98" transform="matrix(1 0 0 -1 0 792)" d="M701.933 652.137L1146.685 652.137" stroke="#000000" stroke-width="0.398" fill="none" /><path id="99" transform="matrix(1 0 0 -1 0 792)" d="M702.132 638.371L702.132 651.938" stroke="#000000" stroke-width="0.398" fill="none" /><path id="134" transform="matrix(1 0 0 -1 0 792)" d="M1031.285 638.371L1031.285 651.938" stroke="#000000" stroke-width="0.398" fill="none" /><path id="136" transform="matrix(1 0 0 -1 0 792)" d="M1146.486 638.371L1146.486 651.938" stroke="#000000" stroke-width="0.398" fill="none" /><path id="137" transform="matrix(1 0 0 -1 0 792)" d="M701.933 638.172L1146.685 638.172" stroke="#000000" stroke-width="0.398" fill="none" /><path id="138" transform="matrix(1 0 0 -1 0 792)" d="M702.132 624.406L702.132 637.973" stroke="#000000" stroke-width="0.398" fill="none" /><path id="165" transform="matrix(1 0 0 -1 0 792)" d="M841.608 628.687L844.597 628.687" stroke="#000000" stroke-width="0.398" fill="none" /><path id="173" transform="matrix(1 0 0 -1 0 792)" d="M1031.285 624.406L1031.285 637.973" stroke="#000000" stroke-width="0.398" fill="none" /><path id="175" transform="matrix(1 0 0 -1 0 792)" d="M1146.486 624.406L1146.486 637.973" stroke="#000000" stroke-width="0.398" fill="none" /><path id="176" transform="matrix(1 0 0 -1 0 792)" d="M701.933 624.207L1146.685 624.207" stroke="#000000" stroke-width="0.398" fill="none" /><path id="177" transform="matrix(1 0 0 -1 0 792)" d="M702.132 610.441L702.132 624.008" stroke="#000000" stroke-width="0.398" fill="none" /><path id="213" transform="matrix(1 0 0 -1 0 792)" d="M1031.285 610.441L1031.285 624.008" stroke="#000000" stroke-width="0.398" fill="none" /><path id="215" transform="matrix(1 0 0 -1 0 792)" d="M1146.486 610.441L1146.486 624.008" stroke="#000000" stroke-width="0.398" fill="none" /><path id="216" transform="matrix(1 0 0 -1 0 792)" d="M701.933 610.242L1146.685 610.242" stroke="#000000" stroke-width="0.398" fill="none" /><path id="217" transform="matrix(1 0 0 -1 0 792)" d="M702.132 596.476L702.132 610.043" stroke="#000000" stroke-width="0.398" fill="none" /><path id="251" transform="matrix(1 0 0 -1 0 792)" d="M1031.285 596.476L1031.285 610.043" stroke="#000000" stroke-width="0.398" fill="none" /><path id="253" transform="matrix(1 0 0 -1 0 792)" d="M1146.486 596.476L1146.486 610.043" stroke="#000000" stroke-width="0.398" fill="none" /><path id="254" transform="matrix(1 0 0 -1 0 792)" d="M701.933 596.276L1146.685 596.276" stroke="#000000" stroke-width="0.398" fill="none" /><path id="255" transform="matrix(1 0 0 -1 0 792)" d="M702.132 582.51L702.132 596.077" stroke="#000000" stroke-width="0.398" fill="none" /><path id="282" transform="matrix(1 0 0 -1 0 792)" d="M841.608 586.792L844.597 586.792" stroke="#000000" stroke-width="0.398" fill="none" /><path id="291" transform="matrix(1 0 0 -1 0 792)" d="M1031.285 582.51L1031.285 596.077" stroke="#000000" stroke-width="0.398" fill="none" /><path id="293" transform="matrix(1 0 0 -1 0 792)" d="M1146.486 582.51L1146.486 596.077" stroke="#000000" stroke-width="0.398" fill="none" /><path id="294" transform="matrix(1 0 0 -1 0 792)" d="M701.933 582.311L1146.685 582.311" stroke="#000000" stroke-width="0.398" fill="none" /><path id="295" transform="matrix(1 0 0 -1 0 792)" d="M702.132 568.545L702.132 582.112" stroke="#000000" stroke-width="0.398" fill="none" /><path id="337" transform="matrix(1 0 0 -1 0 792)" d="M1031.285 568.545L1031.285 582.112" stroke="#000000" stroke-width="0.398" fill="none" /><path id="338" transform="matrix(1 0 0 -1 0 792)" d="M1146.486 568.545L1146.486 582.112" stroke="#000000" stroke-width="0.398" fill="none" /><path id="339" transform="matrix(1 0 0 -1 0 792)" d="M701.933 568.346L1146.685 568.346" stroke="#000000" stroke-width="0.398" fill="none" /><path id="340" transform="matrix(1 0 0 -1 0 792)" d="M702.132 554.598L702.132 568.147" stroke="#000000" stroke-width="0.398" fill="none" /><path id="368" transform="matrix(1 0 0 -1 0 792)" d="M1146.486 554.598L1146.486 568.147" stroke="#000000" stroke-width="0.398" fill="none" /><path id="369" transform="matrix(1 0 0 -1 0 792)" d="M702.132 541.031L702.132 554.598" stroke="#000000" stroke-width="0.398" fill="none" /><path id="381" transform="matrix(1 0 0 -1 0 792)" d="M797.524 545.312L800.513 545.312" stroke="#000000" stroke-width="0.398" fill="none" /><path id="388" transform="matrix(1 0 0 -1 0 792)" d="M836.976 545.312L839.965 545.312" stroke="#000000" stroke-width="0.398" fill="none" /><path id="393" transform="matrix(1 0 0 -1 0 792)" d="M1031.285 541.031L1031.285 554.598" stroke="#000000" stroke-width="0.398" fill="none" /><path id="394" transform="matrix(1 0 0 -1 0 792)" d="M1146.486 541.031L1146.486 554.598" stroke="#000000" stroke-width="0.398" fill="none" /><path id="395" transform="matrix(1 0 0 -1 0 792)" d="M702.132 527.464L702.132 541.031" stroke="#000000" stroke-width="0.398" fill="none" /><path id="407" transform="matrix(1 0 0 -1 0 792)" d="M797.524 531.746L800.513 531.746" stroke="#000000" stroke-width="0.398" fill="none" /><path id="414" transform="matrix(1 0 0 -1 0 792)" d="M836.976 531.746L839.965 531.746" stroke="#000000" stroke-width="0.398" fill="none" /><path id="427" transform="matrix(1 0 0 -1 0 792)" d="M918.271 531.746L921.26 531.746" stroke="#000000" stroke-width="0.398" fill="none" /><path id="434" transform="matrix(1 0 0 -1 0 792)" d="M957.724 531.746L960.713 531.746" stroke="#000000" stroke-width="0.398" fill="none" /><path id="440" transform="matrix(1 0 0 -1 0 792)" d="M1031.285 527.464L1031.285 541.031" stroke="#000000" stroke-width="0.398" fill="none" /><path id="442" transform="matrix(1 0 0 -1 0 792)" d="M1146.486 527.464L1146.486 541.031" stroke="#000000" stroke-width="0.398" fill="none" /><path id="443" transform="matrix(1 0 0 -1 0 792)" d="M701.933 527.265L1146.685 527.265" stroke="#000000" stroke-width="0.398" fill="none" /><path id="444" transform="matrix(1 0 0 -1 0 792)" d="M1085.387 400.74L1088.376 400.74" stroke="#000000" stroke-width="0.398" fill="none" /><path id="493" transform="matrix(1 0 0 -1 0 792)" d="M712.884 236.201L1157.636 236.201" stroke="#000000" stroke-width="0.398" fill="none" /><path id="494" transform="matrix(1 0 0 -1 0 792)" d="M712.884 236.201L1157.636 236.201" stroke="#000000" stroke-width="0.398" fill="none" /><path id="495" transform="matrix(1 0 0 -1 0 792)" d="M713.0829 222.435L713.0829 236.002" stroke="#000000" stroke-width="0.398" fill="none" /><path id="496" transform="matrix(1 0 0 -1 0 792)" d="M713.283 222.435L1042.038 222.435L1042.038 236.002L713.283 236.002z" stroke="none" fill="#CCCCEB" fill-rule="nonzero" /><path id="506" transform="matrix(1 0 0 -1 0 792)" d="M1042.237 222.435L1042.237 236.002" stroke="#000000" stroke-width="0.398" fill="none" /><path id="507" transform="matrix(1 0 0 -1 0 792)" d="M1042.436 222.435L1157.238 222.435L1157.238 236.002L1042.436 236.002z" stroke="none" fill="#CCCCEB" fill-rule="nonzero" /><path id="514" transform="matrix(1 0 0 -1 0 792)" d="M1157.437 222.435L1157.437 236.002" stroke="#000000" stroke-width="0.398" fill="none" /><path id="515" transform="matrix(1 0 0 -1 0 792)" d="M712.884 222.236L1157.636 222.236" stroke="#000000" stroke-width="0.398" fill="none" /><path id="516" transform="matrix(1 0 0 -1 0 792)" d="M712.884 222.236L1157.636 222.236" stroke="#000000" stroke-width="0.398" fill="none" /><path id="517" transform="matrix(1 0 0 -1 0 792)" d="M712.884 221.837L1157.636 221.837" stroke="#000000" stroke-width="0.398" fill="none" /><path id="518" transform="matrix(1 0 0 -1 0 792)" d="M712.884 221.837L1157.636 221.837" stroke="#000000" stroke-width="0.398" fill="none" /><path id="519" transform="matrix(1 0 0 -1 0 792)" d="M713.0829 208.089L713.0829 221.638" stroke="#000000" stroke-width="0.398" fill="none" /><path id="553" transform="matrix(1 0 0 -1 0 792)" d="M1157.437 208.089L1157.437 221.638" stroke="#000000" stroke-width="0.398" fill="none" /><path id="554" transform="matrix(1 0 0 -1 0 792)" d="M713.0829 194.522L713.0829 208.089" stroke="#000000" stroke-width="0.398" fill="none" /><path id="565" transform="matrix(1 0 0 -1 0 792)" d="M802.498 198.804L805.487 198.804" stroke="#000000" stroke-width="0.398" fill="none" /><path id="582" transform="matrix(1 0 0 -1 0 792)" d="M901.726 198.804L904.715 198.804" stroke="#000000" stroke-width="0.398" fill="none" /><path id="592" transform="matrix(1 0 0 -1 0 792)" d="M1042.237 194.522L1042.237 208.089" stroke="#000000" stroke-width="0.398" fill="none" /><path id="593" transform="matrix(1 0 0 -1 0 792)" d="M1157.437 194.522L1157.437 208.089" stroke="#000000" stroke-width="0.398" fill="none" /><path id="594" transform="matrix(1 0 0 -1 0 792)" d="M713.0829 180.956L713.0829 194.523" stroke="#000000" stroke-width="0.398" fill="none" /><path id="617" transform="matrix(1 0 0 -1 0 792)" d="M1042.237 180.956L1042.237 194.523" stroke="#000000" stroke-width="0.398" fill="none" /><path id="619" transform="matrix(1 0 0 -1 0 792)" d="M1157.437 180.956L1157.437 194.523" stroke="#000000" stroke-width="0.398" fill="none" /><path id="620" transform="matrix(1 0 0 -1 0 792)" d="M713.0829 167.389L713.0829 180.956" stroke="#000000" stroke-width="0.398" fill="none" /><path id="654" transform="matrix(1 0 0 -1 0 792)" d="M1042.237 167.389L1042.237 180.956" stroke="#000000" stroke-width="0.398" fill="none" /><path id="656" transform="matrix(1 0 0 -1 0 792)" d="M1157.437 167.389L1157.437 180.956" stroke="#000000" stroke-width="0.398" fill="none" /><path id="657" transform="matrix(1 0 0 -1 0 792)" d="M712.884 167.19L1157.636 167.19" stroke="#000000" stroke-width="0.398" fill="none" /><path id="658" transform="matrix(1 0 0 -1 0 792)" d="M712.884 167.19L1157.636 167.19" stroke="#000000" stroke-width="0.398" fill="none" /><path id="659" transform="matrix(1 0 0 -1 0 792)" d="M713.0829 153.424L713.0829 166.991" stroke="#000000" stroke-width="0.398" fill="none" /><path id="699" transform="matrix(1 0 0 -1 0 792)" d="M1042.237 153.424L1042.237 166.991" stroke="#000000" stroke-width="0.398" fill="none" /><path id="701" transform="matrix(1 0 0 -1 0 792)" d="M1157.437 153.424L1157.437 166.991" stroke="#000000" stroke-width="0.398" fill="none" /><path id="702" transform="matrix(1 0 0 -1 0 792)" d="M712.884 153.225L1157.636 153.225" stroke="#000000" stroke-width="0.398" fill="none" /><path id="703" transform="matrix(1 0 0 -1 0 792)" d="M712.884 153.225L1157.636 153.225" stroke="#000000" stroke-width="0.398" fill="none" /><path id="704" transform="matrix(1 0 0 -1 0 792)" d="M713.0829 139.459L713.0829 153.026" stroke="#000000" stroke-width="0.398" fill="none" /><path id="751" transform="matrix(1 0 0 -1 0 792)" d="M1042.237 139.459L1042.237 153.026" stroke="#000000" stroke-width="0.398" fill="none" /><path id="753" transform="matrix(1 0 0 -1 0 792)" d="M1157.437 139.459L1157.437 153.026" stroke="#000000" stroke-width="0.398" fill="none" /><path id="754" transform="matrix(1 0 0 -1 0 792)" d="M712.884 139.259L1157.636 139.259" stroke="#000000" stroke-width="0.398" fill="none" /><path id="755" transform="matrix(1 0 0 -1 0 792)" d="M712.884 139.259L1157.636 139.259" stroke="#000000" stroke-width="0.398" fill="none" /><path id="756" transform="matrix(1 0 0 -1 0 792)" d="M713.0829 125.493L713.0829 139.06" stroke="#000000" stroke-width="0.398" fill="none" /><path id="798" transform="matrix(1 0 0 -1 0 792)" d="M1042.237 125.493L1042.237 139.06" stroke="#000000" stroke-width="0.398" fill="none" /><path id="800" transform="matrix(1 0 0 -1 0 792)" d="M1157.437 125.493L1157.437 139.06" stroke="#000000" stroke-width="0.398" fill="none" /><path id="801" transform="matrix(1 0 0 -1 0 792)" d="M712.884 125.294L1157.636 125.294" stroke="#000000" stroke-width="0.398" fill="none" /><path id="802" transform="matrix(1 0 0 -1 0 792)" d="M712.884 125.294L1157.636 125.294" stroke="#000000" stroke-width="0.398" fill="none" /><path id="803" transform="matrix(1 0 0 -1 0 792)" d="M713.0829 111.546L713.0829 125.095" stroke="#000000" stroke-width="0.398" fill="none" /><path id="804" transform="matrix(1 0 0 -1 0 792)" d="M1157.437 111.546L1157.437 125.095" stroke="#000000" stroke-width="0.398" fill="none" /><path id="805" transform="matrix(1 0 0 -1 0 792)" d="M712.884 111.347L1157.636 111.347" stroke="#000000" stroke-width="0.398" fill="none" /><path id="806" transform="matrix(1 0 0 -1 0 792)" d="M712.884 111.347L1157.636 111.347" stroke="#000000" stroke-width="0.398" fill="none" /><path id="807" transform="matrix(1 0 0 -1 0 792)" d="M713.0829 97.581L713.0829 111.148" stroke="#000000" stroke-width="0.398" fill="none" /><path id="832" transform="matrix(1 0 0 -1 0 792)" d="M840.604 101.862L843.593 101.862" stroke="#000000" stroke-width="0.398" fill="none" /><path id="839" transform="matrix(1 0 0 -1 0 792)" d="M1042.237 97.581L1042.237 111.148" stroke="#000000" stroke-width="0.398" fill="none" /><path id="841" transform="matrix(1 0 0 -1 0 792)" d="M1157.437 97.581L1157.437 111.148" stroke="#000000" stroke-width="0.398" fill="none" /><path id="842" transform="matrix(1 0 0 -1 0 792)" d="M712.884 97.381L1157.636 97.381" stroke="#000000" stroke-width="0.398" fill="none" /><path id="843" transform="matrix(1 0 0 -1 0 792)" d="M712.884 97.381L1157.636 97.381" stroke="#000000" stroke-width="0.398" fill="none" /><path id="844" transform="matrix(1 0 0 -1 0 792)" d="M713.0829 70.084L713.0829 97.182" stroke="#000000" stroke-width="0.398" fill="none" /><path id="937" transform="matrix(1 0 0 -1 0 792)" d="M1042.237 70.084L1042.237 97.182" stroke="#000000" stroke-width="0.398" fill="none" /><path id="939" transform="matrix(1 0 0 -1 0 792)" d="M1157.437 70.084L1157.437 97.182" stroke="#000000" stroke-width="0.398" fill="none" /><path id="940" transform="matrix(1 0 0 -1 0 792)" d="M712.884 69.885L1157.636 69.885" stroke="#000000" stroke-width="0.398" fill="none" /><path id="941" transform="matrix(1 0 0 -1 0 792)" d="M729.206 385.746L1168.588 385.746L1168.588 385.746L1168.588 505.677L1168.588 505.677L729.206 505.677z" stroke="#FFFFFF" stroke-width="1" fill="#FFFFFF" fill-rule="nonzero" /><path id="1256" transform="matrix(1 0 0 -1 0 792)" d="M701.933 334.705L1010.355 334.705L1010.355 334.705L1010.355 347.8505L1010.355 347.8505L701.933 347.8505z" stroke="#FFFFFF" stroke-width="1" fill="#FFFFFF" fill-rule="nonzero" /><path id="1278" transform="matrix(1 0 0 -1 0 792)" d="M701.933 247.32L1168.592 247.32L1168.592 247.32L1168.592 287.8953L1168.592 287.8953L701.933 287.8953z" stroke="#FFFFFF" stroke-width="1" fill="#FFFFFF" fill-rule="nonzero" /><path id="1440" transform="matrix(1 0 0 -1 0 792)" d="M89.933 721.28L556.588 721.28" stroke="#000000" stroke-width="0.498" fill="none" /><path id="1441" transform="matrix(1 0 0 -1 0 792)" d="M89.933 696.423L534.685 696.423" stroke="#000000" stroke-width="0.398" fill="none" /><path id="1442" transform="matrix(1 0 0 -1 0 792)" d="M90.132 682.658L90.132 696.225" stroke="#000000" stroke-width="0.398" fill="none" /><path id="1443" transform="matrix(1 0 0 -1 0 792)" d="M90.331 682.658L419.086 682.658L419.086 696.225L90.331 696.225z" stroke="none" fill="#CCCCEB" fill-rule="nonzero" /><path id="1453" transform="matrix(1 0 0 -1 0 792)" d="M419.285 682.658L419.285 696.225" stroke="#000000" stroke-width="0.398" fill="none" /><path id="1454" transform="matrix(1 0 0 -1 0 792)" d="M419.484 682.658L534.286 682.658L534.286 696.225L419.484 696.225z" stroke="none" fill="#CCCCEB" fill-rule="nonzero" /><path id="1461" transform="matrix(1 0 0 -1 0 792)" d="M534.486 682.658L534.486 696.225" stroke="#000000" stroke-width="0.398" fill="none" /><path id="1462" transform="matrix(1 0 0 -1 0 792)" d="M89.933 682.458L534.685 682.458" stroke="#000000" stroke-width="0.398" fill="none" /><path id="1463" transform="matrix(1 0 0 -1 0 792)" d="M89.933 680.067L534.685 680.067" stroke="#000000" stroke-width="0.398" fill="none" /><path id="1464" transform="matrix(1 0 0 -1 0 792)" d="M90.132 666.301L90.132 679.868" stroke="#000000" stroke-width="0.398" fill="none" /><path id="1487" transform="matrix(1 0 0 -1 0 792)" d="M419.285 666.301L419.285 679.868" stroke="#000000" stroke-width="0.398" fill="none" /><path id="1489" transform="matrix(1 0 0 -1 0 792)" d="M534.486 666.301L534.486 679.868" stroke="#000000" stroke-width="0.398" fill="none" /><path id="1490" transform="matrix(1 0 0 -1 0 792)" d="M89.933 666.102L534.685 666.102" stroke="#000000" stroke-width="0.398" fill="none" /><path id="1491" transform="matrix(1 0 0 -1 0 792)" d="M90.132 652.336L90.132 665.903" stroke="#000000" stroke-width="0.398" fill="none" /><path id="1515" transform="matrix(1 0 0 -1 0 792)" d="M211.675 656.618L214.664 656.618" stroke="#000000" stroke-width="0.398" fill="none" /><path id="1521" transform="matrix(1 0 0 -1 0 792)" d="M419.285 652.336L419.285 665.903" stroke="#000000" stroke-width="0.398" fill="none" /><path id="1523" transform="matrix(1 0 0 -1 0 792)" d="M534.486 652.336L534.486 665.903" stroke="#000000" stroke-width="0.398" fill="none" /><path id="1524" transform="matrix(1 0 0 -1 0 792)" d="M89.933 652.137L534.685 652.137" stroke="#000000" stroke-width="0.398" fill="none" /><path id="1525" transform="matrix(1 0 0 -1 0 792)" d="M90.132 638.371L90.132 651.938" stroke="#000000" stroke-width="0.398" fill="none" /><path id="1560" transform="matrix(1 0 0 -1 0 792)" d="M419.285 638.371L419.285 651.938" stroke="#000000" stroke-width="0.398" fill="none" /><path id="1562" transform="matrix(1 0 0 -1 0 792)" d="M534.486 638.371L534.486 651.938" stroke="#000000" stroke-width="0.398" fill="none" /><path id="1563" transform="matrix(1 0 0 -1 0 792)" d="M89.933 638.172L534.685 638.172" stroke="#000000" stroke-width="0.398" fill="none" /><path id="1564" transform="matrix(1 0 0 -1 0 792)" d="M90.132 624.406L90.132 637.973" stroke="#000000" stroke-width="0.398" fill="none" /><path id="1591" transform="matrix(1 0 0 -1 0 792)" d="M229.608 628.687L232.597 628.687" stroke="#000000" stroke-width="0.398" fill="none" /><path id="1599" transform="matrix(1 0 0 -1 0 792)" d="M419.285 624.406L419.285 637.973" stroke="#000000" stroke-width="0.398" fill="none" /><path id="1601" transform="matrix(1 0 0 -1 0 792)" d="M534.486 624.406L534.486 637.973" stroke="#000000" stroke-width="0.398" fill="none" /><path id="1602" transform="matrix(1 0 0 -1 0 792)" d="M89.933 624.207L534.685 624.207" stroke="#000000" stroke-width="0.398" fill="none" /><path id="1603" transform="matrix(1 0 0 -1 0 792)" d="M90.132 610.441L90.132 624.008" stroke="#000000" stroke-width="0.398" fill="none" /><path id="1639" transform="matrix(1 0 0 -1 0 792)" d="M419.285 610.441L419.285 624.008" stroke="#000000" stroke-width="0.398" fill="none" /><path id="1641" transform="matrix(1 0 0 -1 0 792)" d="M534.486 610.441L534.486 624.008" stroke="#000000" stroke-width="0.398" fill="none" /><path id="1642" transform="matrix(1 0 0 -1 0 792)" d="M89.933 610.242L534.685 610.242" stroke="#000000" stroke-width="0.398" fill="none" /><path id="1643" transform="matrix(1 0 0 -1 0 792)" d="M90.132 596.476L90.132 610.043" stroke="#000000" stroke-width="0.398" fill="none" /><path id="1677" transform="matrix(1 0 0 -1 0 792)" d="M419.285 596.476L419.285 610.043" stroke="#000000" stroke-width="0.398" fill="none" /><path id="1679" transform="matrix(1 0 0 -1 0 792)" d="M534.486 596.476L534.486 610.043" stroke="#000000" stroke-width="0.398" fill="none" /><path id="1680" transform="matrix(1 0 0 -1 0 792)" d="M89.933 596.276L534.685 596.276" stroke="#000000" stroke-width="0.398" fill="none" /><path id="1681" transform="matrix(1 0 0 -1 0 792)" d="M90.132 582.51L90.132 596.077" stroke="#000000" stroke-width="0.398" fill="none" /><path id="1708" transform="matrix(1 0 0 -1 0 792)" d="M229.608 586.792L232.597 586.792" stroke="#000000" stroke-width="0.398" fill="none" /><path id="1717" transform="matrix(1 0 0 -1 0 792)" d="M419.285 582.51L419.285 596.077" stroke="#000000" stroke-width="0.398" fill="none" /><path id="1719" transform="matrix(1 0 0 -1 0 792)" d="M534.486 582.51L534.486 596.077" stroke="#000000" stroke-width="0.398" fill="none" /><path id="1720" transform="matrix(1 0 0 -1 0 792)" d="M89.933 582.311L534.685 582.311" stroke="#000000" stroke-width="0.398" fill="none" /><path id="1721" transform="matrix(1 0 0 -1 0 792)" d="M90.132 568.545L90.132 582.112" stroke="#000000" stroke-width="0.398" fill="none" /><path id="1763" transform="matrix(1 0 0 -1 0 792)" d="M419.285 568.545L419.285 582.112" stroke="#000000" stroke-width="0.398" fill="none" /><path id="1765" transform="matrix(1 0 0 -1 0 792)" d="M534.486 568.545L534.486 582.112" stroke="#000000" stroke-width="0.398" fill="none" /><path id="1766" transform="matrix(1 0 0 -1 0 792)" d="M89.933 568.346L534.685 568.346" stroke="#000000" stroke-width="0.398" fill="none" /><path id="1767" transform="matrix(1 0 0 -1 0 792)" d="M90.132 554.598L90.132 568.147" stroke="#000000" stroke-width="0.398" fill="none" /><path id="1795" transform="matrix(1 0 0 -1 0 792)" d="M534.486 554.598L534.486 568.147" stroke="#000000" stroke-width="0.398" fill="none" /><path id="1796" transform="matrix(1 0 0 -1 0 792)" d="M90.132 541.031L90.132 554.598" stroke="#000000" stroke-width="0.398" fill="none" /><path id="1808" transform="matrix(1 0 0 -1 0 792)" d="M185.524 545.312L188.513 545.312" stroke="#000000" stroke-width="0.398" fill="none" /><path id="1815" transform="matrix(1 0 0 -1 0 792)" d="M224.976 545.312L227.965 545.312" stroke="#000000" stroke-width="0.398" fill="none" /><path id="1820" transform="matrix(1 0 0 -1 0 792)" d="M419.285 541.031L419.285 554.598" stroke="#000000" stroke-width="0.398" fill="none" /><path id="1822" transform="matrix(1 0 0 -1 0 792)" d="M534.486 541.031L534.486 554.598" stroke="#000000" stroke-width="0.398" fill="none" /><path id="1823" transform="matrix(1 0 0 -1 0 792)" d="M90.132 527.464L90.132 541.031" stroke="#000000" stroke-width="0.398" fill="none" /><path id="1835" transform="matrix(1 0 0 -1 0 792)" d="M185.524 531.746L188.513 531.746" stroke="#000000" stroke-width="0.398" fill="none" /><path id="1842" transform="matrix(1 0 0 -1 0 792)" d="M224.976 531.746L227.965 531.746" stroke="#000000" stroke-width="0.398" fill="none" /><path id="1855" transform="matrix(1 0 0 -1 0 792)" d="M306.271 531.746L309.26 531.746" stroke="#000000" stroke-width="0.398" fill="none" /><path id="1862" transform="matrix(1 0 0 -1 0 792)" d="M345.724 531.746L348.713 531.746" stroke="#000000" stroke-width="0.398" fill="none" /><path id="1868" transform="matrix(1 0 0 -1 0 792)" d="M419.285 527.464L419.285 541.031" stroke="#000000" stroke-width="0.398" fill="none" /><path id="1870" transform="matrix(1 0 0 -1 0 792)" d="M534.486 527.464L534.486 541.031" stroke="#000000" stroke-width="0.398" fill="none" /><path id="1871" transform="matrix(1 0 0 -1 0 792)" d="M89.933 527.265L534.685 527.265" stroke="#000000" stroke-width="0.398" fill="none" /><path id="2645" transform="matrix(1 0 0 -1 0 792)" d="M473.387 400.74L476.376 400.74" stroke="#000000" stroke-width="0.398" fill="none" /><path id="3111" transform="matrix(1 0 0 -1 0 792)" d="M100.884 236.201L545.636 236.201" stroke="#000000" stroke-width="0.398" fill="none" /><path id="3112" transform="matrix(1 0 0 -1 0 792)" d="M100.884 236.201L545.636 236.201" stroke="#000000" stroke-width="0.398" fill="none" /><path id="3113" transform="matrix(1 0 0 -1 0 792)" d="M101.083 222.435L101.083 236.002" stroke="#000000" stroke-width="0.398" fill="none" /><path id="3114" transform="matrix(1 0 0 -1 0 792)" d="M101.283 222.435L430.038 222.435L430.038 236.002L101.283 236.002z" stroke="none" fill="#CCCCEB" fill-rule="nonzero" /><path id="3124" transform="matrix(1 0 0 -1 0 792)" d="M430.237 222.435L430.237 236.002" stroke="#000000" stroke-width="0.398" fill="none" /><path id="3125" transform="matrix(1 0 0 -1 0 792)" d="M430.436 222.435L545.238 222.435L545.238 236.002L430.436 236.002z" stroke="none" fill="#CCCCEB" fill-rule="nonzero" /><path id="3132" transform="matrix(1 0 0 -1 0 792)" d="M545.437 222.435L545.437 236.002" stroke="#000000" stroke-width="0.398" fill="none" /><path id="3133" transform="matrix(1 0 0 -1 0 792)" d="M100.884 222.236L545.636 222.236" stroke="#000000" stroke-width="0.398" fill="none" /><path id="3134" transform="matrix(1 0 0 -1 0 792)" d="M100.884 222.236L545.636 222.236" stroke="#000000" stroke-width="0.398" fill="none" /><path id="3135" transform="matrix(1 0 0 -1 0 792)" d="M100.884 221.837L545.636 221.837" stroke="#000000" stroke-width="0.398" fill="none" /><path id="3136" transform="matrix(1 0 0 -1 0 792)" d="M100.884 221.837L545.636 221.837" stroke="#000000" stroke-width="0.398" fill="none" /><path id="3137" transform="matrix(1 0 0 -1 0 792)" d="M101.083 208.089L101.083 221.638" stroke="#000000" stroke-width="0.398" fill="none" /><path id="3171" transform="matrix(1 0 0 -1 0 792)" d="M545.437 208.089L545.437 221.638" stroke="#000000" stroke-width="0.398" fill="none" /><path id="3172" transform="matrix(1 0 0 -1 0 792)" d="M101.083 194.522L101.083 208.089" stroke="#000000" stroke-width="0.398" fill="none" /><path id="3183" transform="matrix(1 0 0 -1 0 792)" d="M190.498 198.804L193.487 198.804" stroke="#000000" stroke-width="0.398" fill="none" /><path id="3200" transform="matrix(1 0 0 -1 0 792)" d="M289.726 198.804L292.715 198.804" stroke="#000000" stroke-width="0.398" fill="none" /><path id="3210" transform="matrix(1 0 0 -1 0 792)" d="M430.237 194.522L430.237 208.089" stroke="#000000" stroke-width="0.398" fill="none" /><path id="3212" transform="matrix(1 0 0 -1 0 792)" d="M545.437 194.522L545.437 208.089" stroke="#000000" stroke-width="0.398" fill="none" /><path id="3213" transform="matrix(1 0 0 -1 0 792)" d="M101.083 180.956L101.083 194.523" stroke="#000000" stroke-width="0.398" fill="none" /><path id="3236" transform="matrix(1 0 0 -1 0 792)" d="M430.237 180.956L430.237 194.523" stroke="#000000" stroke-width="0.398" fill="none" /><path id="3238" transform="matrix(1 0 0 -1 0 792)" d="M545.437 180.956L545.437 194.523" stroke="#000000" stroke-width="0.398" fill="none" /><path id="3239" transform="matrix(1 0 0 -1 0 792)" d="M101.083 167.389L101.083 180.956" stroke="#000000" stroke-width="0.398" fill="none" /><path id="3273" transform="matrix(1 0 0 -1 0 792)" d="M430.237 167.389L430.237 180.956" stroke="#000000" stroke-width="0.398" fill="none" /><path id="3275" transform="matrix(1 0 0 -1 0 792)" d="M545.437 167.389L545.437 180.956" stroke="#000000" stroke-width="0.398" fill="none" /><path id="3276" transform="matrix(1 0 0 -1 0 792)" d="M100.884 167.19L545.636 167.19" stroke="#000000" stroke-width="0.398" fill="none" /><path id="3277" transform="matrix(1 0 0 -1 0 792)" d="M100.884 167.19L545.636 167.19" stroke="#000000" stroke-width="0.398" fill="none" /><path id="3278" transform="matrix(1 0 0 -1 0 792)" d="M101.083 153.424L101.083 166.991" stroke="#000000" stroke-width="0.398" fill="none" /><path id="3318" transform="matrix(1 0 0 -1 0 792)" d="M430.237 153.424L430.237 166.991" stroke="#000000" stroke-width="0.398" fill="none" /><path id="3320" transform="matrix(1 0 0 -1 0 792)" d="M545.437 153.424L545.437 166.991" stroke="#000000" stroke-width="0.398" fill="none" /><path id="3321" transform="matrix(1 0 0 -1 0 792)" d="M100.884 153.225L545.636 153.225" stroke="#000000" stroke-width="0.398" fill="none" /><path id="3322" transform="matrix(1 0 0 -1 0 792)" d="M100.884 153.225L545.636 153.225" stroke="#000000" stroke-width="0.398" fill="none" /><path id="3323" transform="matrix(1 0 0 -1 0 792)" d="M101.083 139.459L101.083 153.026" stroke="#000000" stroke-width="0.398" fill="none" /><path id="3370" transform="matrix(1 0 0 -1 0 792)" d="M430.237 139.459L430.237 153.026" stroke="#000000" stroke-width="0.398" fill="none" /><path id="3372" transform="matrix(1 0 0 -1 0 792)" d="M545.437 139.459L545.437 153.026" stroke="#000000" stroke-width="0.398" fill="none" /><path id="3373" transform="matrix(1 0 0 -1 0 792)" d="M100.884 139.259L545.636 139.259" stroke="#000000" stroke-width="0.398" fill="none" /><path id="3374" transform="matrix(1 0 0 -1 0 792)" d="M100.884 139.259L545.636 139.259" stroke="#000000" stroke-width="0.398" fill="none" /><path id="3375" transform="matrix(1 0 0 -1 0 792)" d="M101.083 125.493L101.083 139.06" stroke="#000000" stroke-width="0.398" fill="none" /><path id="3417" transform="matrix(1 0 0 -1 0 792)" d="M430.237 125.493L430.237 139.06" stroke="#000000" stroke-width="0.398" fill="none" /><path id="3419" transform="matrix(1 0 0 -1 0 792)" d="M545.437 125.493L545.437 139.06" stroke="#000000" stroke-width="0.398" fill="none" /><path id="3420" transform="matrix(1 0 0 -1 0 792)" d="M100.884 125.294L545.636 125.294" stroke="#000000" stroke-width="0.398" fill="none" /><path id="3421" transform="matrix(1 0 0 -1 0 792)" d="M100.884 125.294L545.636 125.294" stroke="#000000" stroke-width="0.398" fill="none" /><path id="3422" transform="matrix(1 0 0 -1 0 792)" d="M101.083 111.546L101.083 125.095" stroke="#000000" stroke-width="0.398" fill="none" /><path id="3423" transform="matrix(1 0 0 -1 0 792)" d="M545.437 111.546L545.437 125.095" stroke="#000000" stroke-width="0.398" fill="none" /><path id="3424" transform="matrix(1 0 0 -1 0 792)" d="M100.884 111.347L545.636 111.347" stroke="#000000" stroke-width="0.398" fill="none" /><path id="3425" transform="matrix(1 0 0 -1 0 792)" d="M100.884 111.347L545.636 111.347" stroke="#000000" stroke-width="0.398" fill="none" /><path id="3426" transform="matrix(1 0 0 -1 0 792)" d="M101.083 97.581L101.083 111.148" stroke="#000000" stroke-width="0.398" fill="none" /><path id="3451" transform="matrix(1 0 0 -1 0 792)" d="M228.604 101.862L231.593 101.862" stroke="#000000" stroke-width="0.398" fill="none" /><path id="3458" transform="matrix(1 0 0 -1 0 792)" d="M430.237 97.581L430.237 111.148" stroke="#000000" stroke-width="0.398" fill="none" /><path id="3460" transform="matrix(1 0 0 -1 0 792)" d="M545.437 97.581L545.437 111.148" stroke="#000000" stroke-width="0.398" fill="none" /><path id="3461" transform="matrix(1 0 0 -1 0 792)" d="M100.884 97.381L545.636 97.381" stroke="#000000" stroke-width="0.398" fill="none" /><path id="3462" transform="matrix(1 0 0 -1 0 792)" d="M100.884 97.381L545.636 97.381" stroke="#000000" stroke-width="0.398" fill="none" /><path id="3463" transform="matrix(1 0 0 -1 0 792)" d="M101.083 70.084L101.083 97.182" stroke="#000000" stroke-width="0.398" fill="none" /><path id="3556" transform="matrix(1 0 0 -1 0 792)" d="M430.237 70.084L430.237 97.182" stroke="#000000" stroke-width="0.398" fill="none" /><path id="3558" transform="matrix(1 0 0 -1 0 792)" d="M545.437 70.084L545.437 97.182" stroke="#000000" stroke-width="0.398" fill="none" /><path id="3559" transform="matrix(1 0 0 -1 0 792)" d="M100.884 69.885L545.636 69.885" stroke="#000000" stroke-width="0.398" fill="none" /></g></g></svg>