<svg xmlns="http://www.w3.org/2000/svg" xmlns:xlink="http://www.w3.org/1999/xlink" id="body_74" preserveAspectRatio="xMinYMin meet" viewBox="0 0 1632 1056"><defs><clipPath id="1"><path id="" clip-rule="evenodd" transform="matrix(1 0 0 1 0 0)" d="M0 792L0 0L0 0L1224 0L1224 0L1224 792L1224 792L0 792z" /></clipPath></defs><g transform="matrix(1.333333 0 0 1.333333 0 0)"><g clip-path="url(#1)"><path id="24" transform="matrix(1 0 0 -1 0 792)" d="M666.067 721.28L1132.722 721.28" stroke="#000000" stroke-width="0.498" fill="none" /><path id="125" transform="matrix(1 0 0 -1 0 792)" d="M679.704 682.599L908.086 682.599L908.086 682.599L908.086 695.7445L908.086 695.7445L679.704 695.7445z" stroke="#FFFFFF" stroke-width="1" fill="#FFFFFF" fill-rule="nonzero" /><path id="145" transform="matrix(1 0 0 -1 0 792)" d="M679.704 654.773L908.086 654.773L908.086 654.773L908.086 667.9185L908.086 667.9185L679.704 667.9185z" stroke="#FFFFFF" stroke-width="1" fill="#FFFFFF" fill-rule="nonzero" /><path id="165" transform="matrix(1 0 0 -1 0 792)" d="M679.704 599.122L974.446 599.122L974.446 599.122L974.446 612.2675L974.446 612.2675L679.704 612.2675z" stroke="#FFFFFF" stroke-width="1" fill="#FFFFFF" fill-rule="nonzero" /><path id="189" transform="matrix(1 0 0 -1 0 792)" d="M683.004 566.325L1132.722 566.325L1132.722 566.325L1132.722 580.5177L1132.722 580.5177L683.004 580.5177z" stroke="#FFFFFF" stroke-width="1" fill="#FFFFFF" fill-rule="nonzero" /><path id="228" transform="matrix(1 0 0 -1 0 792)" d="M666.067 553.431L845.38 553.431L845.38 553.431L845.38 566.5765L845.38 566.5765L666.067 566.5765z" stroke="#FFFFFF" stroke-width="1" fill="#FFFFFF" fill-rule="nonzero" /><path id="244" transform="matrix(1 0 0 -1 0 792)" d="M683.004 538.554L1132.721 538.554L1132.721 538.554L1132.721 551.6995L1132.721 551.6995L683.004 551.6995z" stroke="#FFFFFF" stroke-width="1" fill="#FFFFFF" fill-rule="nonzero" /><path id="278" transform="matrix(1 0 0 -1 0 792)" d="M666.067 511.456L1132.725 511.456L1132.725 511.456L1132.725 538.1505L1132.725 538.1505L666.067 538.1505z" stroke="#FFFFFF" stroke-width="1" fill="#FFFFFF" fill-rule="nonzero" /><path id="323" transform="matrix(1 0 0 -1 0 792)" d="M679.704 479.314L872.828 479.314L872.828 479.314L872.828 492.4595L872.828 492.4595L679.704 492.4595z" stroke="#FFFFFF" stroke-width="1" fill="#FFFFFF" fill-rule="nonzero" /><path id="341" transform="matrix(1 0 0 -1 0 792)" d="M679.704 451.488L872.828 451.488L872.828 451.488L872.828 464.6335L872.828 464.6335L679.704 464.6335z" stroke="#FFFFFF" stroke-width="1" fill="#FFFFFF" fill-rule="nonzero" /><path id="359" transform="matrix(1 0 0 -1 0 792)" d="M679.704 395.837L939.188 395.837L939.188 395.837L939.188 408.9825L939.188 408.9825L679.704 408.9825z" stroke="#FFFFFF" stroke-width="1" fill="#FFFFFF" fill-rule="nonzero" /><path id="382" transform="matrix(1 0 0 -1 0 792)" d="M683.004 363.695L1132.72 363.695L1132.72 363.695L1132.72 376.8405L1132.72 376.8405L683.004 376.8405z" stroke="#FFFFFF" stroke-width="1" fill="#FFFFFF" fill-rule="nonzero" /><path id="424" transform="matrix(1 0 0 -1 0 792)" d="M666.067 323.048L1132.726 323.048L1132.726 323.048L1132.726 363.2915L1132.726 363.2915L666.067 363.2915z" stroke="#FFFFFF" stroke-width="1" fill="#FFFFFF" fill-rule="nonzero" /><path id="526" transform="matrix(1 0 0 -1 0 792)" d="M666.067 278.237L1025.669 278.237L1025.669 278.237L1025.669 296.9014L1025.669 296.9014L666.067 296.9014z" stroke="#FFFFFF" stroke-width="1" fill="#FFFFFF" fill-rule="nonzero" /><path id="549" transform="matrix(1 0 0 -1 0 792)" d="M666.067 239.039L1132.725 239.039L1132.725 239.039L1132.725 265.7334L1132.725 265.7334L666.067 265.7334z" stroke="#FFFFFF" stroke-width="1" fill="#FFFFFF" fill-rule="nonzero" /><path id="598" transform="matrix(1 0 0 -1 0 792)" d="M683.004 91.2786L1132.721 91.2786L1132.721 91.2786L1132.721 104.4241L1132.721 104.4241L683.004 104.4241z" stroke="#FFFFFF" stroke-width="1" fill="#FFFFFF" fill-rule="nonzero" /><path id="622" transform="matrix(1 0 0 -1 0 792)" d="M666.067 64.1796L1132.725 64.1796L1132.725 64.1796L1132.725 90.87401L1132.725 90.87401L666.067 90.87401z" stroke="#FFFFFF" stroke-width="1" fill="#FFFFFF" fill-rule="nonzero" /><path id="711" transform="matrix(1 0 0 -1 0 792)" d="M54.067 721.28L520.722 721.28" stroke="#000000" stroke-width="0.498" fill="none" /></g></g></svg>