<svg xmlns="http://www.w3.org/2000/svg" xmlns:xlink="http://www.w3.org/1999/xlink" id="body_77" preserveAspectRatio="xMinYMin meet" viewBox="0 0 1632 1056"><defs><clipPath id="1"><path id="" clip-rule="evenodd" transform="matrix(1 0 0 1 0 0)" d="M0 792L0 0L0 0L1224 0L1224 0L1224 792L1224 792L0 792z" /></clipPath></defs><g transform="matrix(1.333333 0 0 1.333333 0 0)"><g clip-path="url(#1)"><path id="19" transform="matrix(1 0 0 -1 0 792)" d="M701.933 721.28L1168.588 721.28" stroke="#000000" stroke-width="0.498" fill="none" /><path id="667" transform="matrix(1 0 0 -1 0 792)" d="M701.933 555.276L812.115 555.276L812.115 555.276L812.115 568.4215L812.115 568.4215L701.933 568.4215z" stroke="#FFFFFF" stroke-width="1" fill="#FFFFFF" fill-rule="nonzero" /><path id="690" transform="matrix(1 0 0 -1 0 792)" d="M701.933 537.087L887.355 537.087L887.355 537.087L887.355 550.2325L887.355 550.2325L701.933 550.2325z" stroke="#FFFFFF" stroke-width="1" fill="#FFFFFF" fill-rule="nonzero" /><path id="725" transform="matrix(1 0 0 -1 0 792)" d="M701.933 246.067L805.635 246.067L805.635 246.067L805.635 259.2125L805.635 259.2125L701.933 259.2125z" stroke="#FFFFFF" stroke-width="1" fill="#FFFFFF" fill-rule="nonzero" /><path id="745" transform="matrix(1 0 0 -1 0 792)" d="M701.933 227.879L896.606 227.879L896.606 227.879L896.606 241.0245L896.606 241.0245L701.933 241.0245z" stroke="#FFFFFF" stroke-width="1" fill="#FFFFFF" fill-rule="nonzero" /><path id="810" transform="matrix(1 0 0 -1 0 792)" d="M89.933 721.28L556.588 721.28" stroke="#000000" stroke-width="0.498" fill="none" /></g></g></svg>