<svg xmlns="http://www.w3.org/2000/svg" xmlns:xlink="http://www.w3.org/1999/xlink" id="body_64" preserveAspectRatio="xMinYMin meet" viewBox="0 0 1632 1056"><defs><clipPath id="1"><path id="" clip-rule="evenodd" transform="matrix(1 0 0 1 0 0)" d="M0 792L0 0L0 0L1224 0L1224 0L1224 792L1224 792L0 792z" /></clipPath></defs><g transform="matrix(1.333333 0 0 1.333333 0 0)"><g clip-path="url(#1)"><path id="1" transform="matrix(1 0 0 -1 0 792)" d="M666.067 721.28L1132.722 721.28" stroke="#000000" stroke-width="0.498" fill="none" /><path id="2" transform="matrix(1 0 0 -1 0 792)" d="M709.702 624.106L1089.088 624.106" stroke="#000000" stroke-width="0.398" fill="none" /><path id="3" transform="matrix(1 0 0 -1 0 792)" d="M709.901 610.34L709.901 623.907" stroke="#000000" stroke-width="0.398" fill="none" /><path id="4" transform="matrix(1 0 0 -1 0 792)" d="M710.1 610.34L902.055 610.34L902.055 623.907L710.1 623.907z" stroke="none" fill="#CCCCEB" fill-rule="nonzero" /><path id="10" transform="matrix(1 0 0 -1 0 792)" d="M902.255 610.34L902.255 623.907" stroke="#000000" stroke-width="0.398" fill="none" /><path id="11" transform="matrix(1 0 0 -1 0 792)" d="M902.454 610.34L961.078 610.34L961.078 623.907L902.454 623.907z" stroke="none" fill="#CCCCEB" fill-rule="nonzero" /><path id="21" transform="matrix(1 0 0 -1 0 792)" d="M961.277 610.34L961.277 623.907" stroke="#000000" stroke-width="0.398" fill="none" /><path id="22" transform="matrix(1 0 0 -1 0 792)" d="M961.476 610.34L1020.1 610.34L1020.1 623.907L961.476 623.907z" stroke="none" fill="#CCCCEB" fill-rule="nonzero" /><path id="30" transform="matrix(1 0 0 -1 0 792)" d="M1020.299 610.34L1020.299 623.907" stroke="#000000" stroke-width="0.398" fill="none" /><path id="31" transform="matrix(1 0 0 -1 0 792)" d="M1020.498 610.34L1088.689 610.34L1088.689 623.907L1020.498 623.907z" stroke="none" fill="#CCCCEB" fill-rule="nonzero" /><path id="35" transform="matrix(1 0 0 -1 0 792)" d="M1088.888 610.34L1088.888 623.907" stroke="#000000" stroke-width="0.398" fill="none" /><path id="36" transform="matrix(1 0 0 -1 0 792)" d="M709.901 596.773L709.901 610.34" stroke="#000000" stroke-width="0.398" fill="none" /><path id="37" transform="matrix(1 0 0 -1 0 792)" d="M710.1 596.773L902.055 596.773L902.055 610.34L710.1 610.34z" stroke="none" fill="#CCCCEB" fill-rule="nonzero" /><path id="38" transform="matrix(1 0 0 -1 0 792)" d="M902.255 596.773L902.255 610.34" stroke="#000000" stroke-width="0.398" fill="none" /><path id="39" transform="matrix(1 0 0 -1 0 792)" d="M902.454 596.773L961.078 596.773L961.078 610.34L902.454 610.34z" stroke="none" fill="#CCCCEB" fill-rule="nonzero" /><path id="40" transform="matrix(1 0 0 -1 0 792)" d="M961.277 596.773L961.277 610.34" stroke="#000000" stroke-width="0.398" fill="none" /><path id="41" transform="matrix(1 0 0 -1 0 792)" d="M961.476 596.773L1020.1 596.773L1020.1 610.34L961.476 610.34z" stroke="none" fill="#CCCCEB" fill-rule="nonzero" /><path id="47" transform="matrix(1 0 0 -1 0 792)" d="M1020.299 596.773L1020.299 610.34" stroke="#000000" stroke-width="0.398" fill="none" /><path id="48" transform="matrix(1 0 0 -1 0 792)" d="M1020.498 596.773L1088.689 596.773L1088.689 610.34L1020.498 610.34z" stroke="none" fill="#CCCCEB" fill-rule="nonzero" /><path id="49" transform="matrix(1 0 0 -1 0 792)" d="M1088.888 596.773L1088.888 610.34" stroke="#000000" stroke-width="0.398" fill="none" /><path id="50" transform="matrix(1 0 0 -1 0 792)" d="M709.702 596.574L1089.088 596.574" stroke="#000000" stroke-width="0.398" fill="none" /><path id="51" transform="matrix(1 0 0 -1 0 792)" d="M709.702 594.183L1089.088 594.183" stroke="#000000" stroke-width="0.398" fill="none" /><path id="52" transform="matrix(1 0 0 -1 0 792)" d="M709.901 580.417L709.901 593.984" stroke="#000000" stroke-width="0.398" fill="none" /><path id="59" transform="matrix(1 0 0 -1 0 792)" d="M752.541 584.699L755.53 584.699" stroke="#000000" stroke-width="0.398" fill="none" /><path id="64" transform="matrix(1 0 0 -1 0 792)" d="M780.038 584.699L783.027 584.699" stroke="#000000" stroke-width="0.398" fill="none" /><path id="70" transform="matrix(1 0 0 -1 0 792)" d="M902.255 580.417L902.255 593.984" stroke="#000000" stroke-width="0.398" fill="none" /><path id="72" transform="matrix(1 0 0 -1 0 792)" d="M961.277 580.417L961.277 593.984" stroke="#000000" stroke-width="0.398" fill="none" /><path id="74" transform="matrix(1 0 0 -1 0 792)" d="M1020.299 580.417L1020.299 593.984" stroke="#000000" stroke-width="0.398" fill="none" /><path id="76" transform="matrix(1 0 0 -1 0 792)" d="M1088.888 580.417L1088.888 593.984" stroke="#000000" stroke-width="0.398" fill="none" /><path id="77" transform="matrix(1 0 0 -1 0 792)" d="M709.702 580.218L1089.088 580.218" stroke="#000000" stroke-width="0.398" fill="none" /><path id="78" transform="matrix(1 0 0 -1 0 792)" d="M709.901 566.452L709.901 580.019" stroke="#000000" stroke-width="0.398" fill="none" /><path id="85" transform="matrix(1 0 0 -1 0 792)" d="M752.541 570.734L755.53 570.734" stroke="#000000" stroke-width="0.398" fill="none" /><path id="89" transform="matrix(1 0 0 -1 0 792)" d="M774.061 570.734L777.05 570.734" stroke="#000000" stroke-width="0.398" fill="none" /><path id="95" transform="matrix(1 0 0 -1 0 792)" d="M902.255 566.452L902.255 580.019" stroke="#000000" stroke-width="0.398" fill="none" /><path id="97" transform="matrix(1 0 0 -1 0 792)" d="M961.277 566.452L961.277 580.019" stroke="#000000" stroke-width="0.398" fill="none" /><path id="99" transform="matrix(1 0 0 -1 0 792)" d="M1020.299 566.452L1020.299 580.019" stroke="#000000" stroke-width="0.398" fill="none" /><path id="101" transform="matrix(1 0 0 -1 0 792)" d="M1088.888 566.452L1088.888 580.019" stroke="#000000" stroke-width="0.398" fill="none" /><path id="102" transform="matrix(1 0 0 -1 0 792)" d="M709.702 566.253L1089.088 566.253" stroke="#000000" stroke-width="0.398" fill="none" /><path id="103" transform="matrix(1 0 0 -1 0 792)" d="M709.901 552.487L709.901 566.054" stroke="#000000" stroke-width="0.398" fill="none" /><path id="110" transform="matrix(1 0 0 -1 0 792)" d="M752.541 556.768L755.53 556.768" stroke="#000000" stroke-width="0.398" fill="none" /><path id="116" transform="matrix(1 0 0 -1 0 792)" d="M786.016 556.768L789.005 556.768" stroke="#000000" stroke-width="0.398" fill="none" /><path id="123" transform="matrix(1 0 0 -1 0 792)" d="M902.255 552.487L902.255 566.054" stroke="#000000" stroke-width="0.398" fill="none" /><path id="125" transform="matrix(1 0 0 -1 0 792)" d="M961.277 552.487L961.277 566.054" stroke="#000000" stroke-width="0.398" fill="none" /><path id="127" transform="matrix(1 0 0 -1 0 792)" d="M1020.299 552.487L1020.299 566.054" stroke="#000000" stroke-width="0.398" fill="none" /><path id="129" transform="matrix(1 0 0 -1 0 792)" d="M1088.888 552.487L1088.888 566.054" stroke="#000000" stroke-width="0.398" fill="none" /><path id="130" transform="matrix(1 0 0 -1 0 792)" d="M709.702 552.288L1089.088 552.288" stroke="#000000" stroke-width="0.398" fill="none" /><path id="131" transform="matrix(1 0 0 -1 0 792)" d="M709.901 538.522L709.901 552.089" stroke="#000000" stroke-width="0.398" fill="none" /><path id="138" transform="matrix(1 0 0 -1 0 792)" d="M752.541 542.803L755.53 542.803" stroke="#000000" stroke-width="0.398" fill="none" /><path id="143" transform="matrix(1 0 0 -1 0 792)" d="M780.038 542.803L783.027 542.803" stroke="#000000" stroke-width="0.398" fill="none" /><path id="150" transform="matrix(1 0 0 -1 0 792)" d="M902.255 538.522L902.255 552.089" stroke="#000000" stroke-width="0.398" fill="none" /><path id="152" transform="matrix(1 0 0 -1 0 792)" d="M961.277 538.522L961.277 552.089" stroke="#000000" stroke-width="0.398" fill="none" /><path id="154" transform="matrix(1 0 0 -1 0 792)" d="M1020.299 538.522L1020.299 552.089" stroke="#000000" stroke-width="0.398" fill="none" /><path id="156" transform="matrix(1 0 0 -1 0 792)" d="M1088.888 538.522L1088.888 552.089" stroke="#000000" stroke-width="0.398" fill="none" /><path id="157" transform="matrix(1 0 0 -1 0 792)" d="M709.702 538.323L1089.088 538.323" stroke="#000000" stroke-width="0.398" fill="none" /><path id="158" transform="matrix(1 0 0 -1 0 792)" d="M709.901 524.557L709.901 538.124" stroke="#000000" stroke-width="0.398" fill="none" /><path id="165" transform="matrix(1 0 0 -1 0 792)" d="M752.541 528.838L755.53 528.838" stroke="#000000" stroke-width="0.398" fill="none" /><path id="169" transform="matrix(1 0 0 -1 0 792)" d="M774.061 528.838L777.05 528.838" stroke="#000000" stroke-width="0.398" fill="none" /><path id="176" transform="matrix(1 0 0 -1 0 792)" d="M902.255 524.557L902.255 538.124" stroke="#000000" stroke-width="0.398" fill="none" /><path id="178" transform="matrix(1 0 0 -1 0 792)" d="M961.277 524.557L961.277 538.124" stroke="#000000" stroke-width="0.398" fill="none" /><path id="180" transform="matrix(1 0 0 -1 0 792)" d="M1020.299 524.557L1020.299 538.124" stroke="#000000" stroke-width="0.398" fill="none" /><path id="182" transform="matrix(1 0 0 -1 0 792)" d="M1088.888 524.557L1088.888 538.124" stroke="#000000" stroke-width="0.398" fill="none" /><path id="183" transform="matrix(1 0 0 -1 0 792)" d="M709.702 524.357L1089.088 524.357" stroke="#000000" stroke-width="0.398" fill="none" /><path id="184" transform="matrix(1 0 0 -1 0 792)" d="M709.901 510.592L709.901 524.159" stroke="#000000" stroke-width="0.398" fill="none" /><path id="191" transform="matrix(1 0 0 -1 0 792)" d="M752.541 514.873L755.53 514.873" stroke="#000000" stroke-width="0.398" fill="none" /><path id="196" transform="matrix(1 0 0 -1 0 792)" d="M780.038 514.873L783.027 514.873" stroke="#000000" stroke-width="0.398" fill="none" /><path id="201" transform="matrix(1 0 0 -1 0 792)" d="M902.255 510.592L902.255 524.159" stroke="#000000" stroke-width="0.398" fill="none" /><path id="203" transform="matrix(1 0 0 -1 0 792)" d="M961.277 510.592L961.277 524.159" stroke="#000000" stroke-width="0.398" fill="none" /><path id="205" transform="matrix(1 0 0 -1 0 792)" d="M1020.299 510.592L1020.299 524.159" stroke="#000000" stroke-width="0.398" fill="none" /><path id="207" transform="matrix(1 0 0 -1 0 792)" d="M1088.888 510.592L1088.888 524.159" stroke="#000000" stroke-width="0.398" fill="none" /><path id="208" transform="matrix(1 0 0 -1 0 792)" d="M709.702 510.392L1089.088 510.392" stroke="#000000" stroke-width="0.398" fill="none" /><path id="209" transform="matrix(1 0 0 -1 0 792)" d="M709.901 496.626L709.901 510.193" stroke="#000000" stroke-width="0.398" fill="none" /><path id="216" transform="matrix(1 0 0 -1 0 792)" d="M752.541 500.908L755.53 500.908" stroke="#000000" stroke-width="0.398" fill="none" /><path id="221" transform="matrix(1 0 0 -1 0 792)" d="M780.038 500.908L783.027 500.908" stroke="#000000" stroke-width="0.398" fill="none" /><path id="228" transform="matrix(1 0 0 -1 0 792)" d="M902.255 496.626L902.255 510.193" stroke="#000000" stroke-width="0.398" fill="none" /><path id="230" transform="matrix(1 0 0 -1 0 792)" d="M961.277 496.626L961.277 510.193" stroke="#000000" stroke-width="0.398" fill="none" /><path id="232" transform="matrix(1 0 0 -1 0 792)" d="M1020.299 496.626L1020.299 510.193" stroke="#000000" stroke-width="0.398" fill="none" /><path id="234" transform="matrix(1 0 0 -1 0 792)" d="M1088.888 496.626L1088.888 510.193" stroke="#000000" stroke-width="0.398" fill="none" /><path id="235" transform="matrix(1 0 0 -1 0 792)" d="M709.702 496.427L1089.088 496.427" stroke="#000000" stroke-width="0.398" fill="none" /><path id="236" transform="matrix(1 0 0 -1 0 792)" d="M709.901 482.661L709.901 496.228" stroke="#000000" stroke-width="0.398" fill="none" /><path id="243" transform="matrix(1 0 0 -1 0 792)" d="M752.541 486.943L755.53 486.943" stroke="#000000" stroke-width="0.398" fill="none" /><path id="253" transform="matrix(1 0 0 -1 0 792)" d="M902.255 482.661L902.255 496.228" stroke="#000000" stroke-width="0.398" fill="none" /><path id="255" transform="matrix(1 0 0 -1 0 792)" d="M961.277 482.661L961.277 496.228" stroke="#000000" stroke-width="0.398" fill="none" /><path id="257" transform="matrix(1 0 0 -1 0 792)" d="M1020.299 482.661L1020.299 496.228" stroke="#000000" stroke-width="0.398" fill="none" /><path id="269" transform="matrix(1 0 0 -1 0 792)" d="M1088.888 482.661L1088.888 496.228" stroke="#000000" stroke-width="0.398" fill="none" /><path id="270" transform="matrix(1 0 0 -1 0 792)" d="M709.702 482.462L1089.088 482.462" stroke="#000000" stroke-width="0.398" fill="none" /><path id="271" transform="matrix(1 0 0 -1 0 792)" d="M709.901 468.696L709.901 482.263" stroke="#000000" stroke-width="0.398" fill="none" /><path id="276" transform="matrix(1 0 0 -1 0 792)" d="M740.586 472.978L743.575 472.978" stroke="#000000" stroke-width="0.398" fill="none" /><path id="281" transform="matrix(1 0 0 -1 0 792)" d="M768.0829 472.978L771.072 472.978" stroke="#000000" stroke-width="0.398" fill="none" /><path id="287" transform="matrix(1 0 0 -1 0 792)" d="M902.255 468.696L902.255 482.263" stroke="#000000" stroke-width="0.398" fill="none" /><path id="289" transform="matrix(1 0 0 -1 0 792)" d="M961.277 468.696L961.277 482.263" stroke="#000000" stroke-width="0.398" fill="none" /><path id="291" transform="matrix(1 0 0 -1 0 792)" d="M1020.299 468.696L1020.299 482.263" stroke="#000000" stroke-width="0.398" fill="none" /><path id="293" transform="matrix(1 0 0 -1 0 792)" d="M1088.888 468.696L1088.888 482.263" stroke="#000000" stroke-width="0.398" fill="none" /><path id="294" transform="matrix(1 0 0 -1 0 792)" d="M709.702 468.497L1089.088 468.497" stroke="#000000" stroke-width="0.398" fill="none" /><path id="295" transform="matrix(1 0 0 -1 0 792)" d="M709.901 454.731L709.901 468.298" stroke="#000000" stroke-width="0.398" fill="none" /><path id="300" transform="matrix(1 0 0 -1 0 792)" d="M740.586 459.012L743.575 459.012" stroke="#000000" stroke-width="0.398" fill="none" /><path id="304" transform="matrix(1 0 0 -1 0 792)" d="M762.105 459.012L765.094 459.012" stroke="#000000" stroke-width="0.398" fill="none" /><path id="310" transform="matrix(1 0 0 -1 0 792)" d="M902.255 454.731L902.255 468.298" stroke="#000000" stroke-width="0.398" fill="none" /><path id="312" transform="matrix(1 0 0 -1 0 792)" d="M961.277 454.731L961.277 468.298" stroke="#000000" stroke-width="0.398" fill="none" /><path id="314" transform="matrix(1 0 0 -1 0 792)" d="M1020.299 454.731L1020.299 468.298" stroke="#000000" stroke-width="0.398" fill="none" /><path id="316" transform="matrix(1 0 0 -1 0 792)" d="M1088.888 454.731L1088.888 468.298" stroke="#000000" stroke-width="0.398" fill="none" /><path id="317" transform="matrix(1 0 0 -1 0 792)" d="M709.702 454.532L1089.088 454.532" stroke="#000000" stroke-width="0.398" fill="none" /><path id="318" transform="matrix(1 0 0 -1 0 792)" d="M709.901 440.766L709.901 454.333" stroke="#000000" stroke-width="0.398" fill="none" /><path id="323" transform="matrix(1 0 0 -1 0 792)" d="M740.586 445.047L743.575 445.047" stroke="#000000" stroke-width="0.398" fill="none" /><path id="329" transform="matrix(1 0 0 -1 0 792)" d="M774.061 445.047L777.05 445.047" stroke="#000000" stroke-width="0.398" fill="none" /><path id="336" transform="matrix(1 0 0 -1 0 792)" d="M902.255 440.766L902.255 454.333" stroke="#000000" stroke-width="0.398" fill="none" /><path id="338" transform="matrix(1 0 0 -1 0 792)" d="M961.277 440.766L961.277 454.333" stroke="#000000" stroke-width="0.398" fill="none" /><path id="340" transform="matrix(1 0 0 -1 0 792)" d="M1020.299 440.766L1020.299 454.333" stroke="#000000" stroke-width="0.398" fill="none" /><path id="342" transform="matrix(1 0 0 -1 0 792)" d="M1088.888 440.766L1088.888 454.333" stroke="#000000" stroke-width="0.398" fill="none" /><path id="343" transform="matrix(1 0 0 -1 0 792)" d="M709.702 440.567L1089.088 440.567" stroke="#000000" stroke-width="0.398" fill="none" /><path id="344" transform="matrix(1 0 0 -1 0 792)" d="M709.901 426.801L709.901 440.368" stroke="#000000" stroke-width="0.398" fill="none" /><path id="349" transform="matrix(1 0 0 -1 0 792)" d="M740.586 431.082L743.575 431.082" stroke="#000000" stroke-width="0.398" fill="none" /><path id="354" transform="matrix(1 0 0 -1 0 792)" d="M768.0829 431.082L771.072 431.082" stroke="#000000" stroke-width="0.398" fill="none" /><path id="361" transform="matrix(1 0 0 -1 0 792)" d="M902.255 426.801L902.255 440.368" stroke="#000000" stroke-width="0.398" fill="none" /><path id="363" transform="matrix(1 0 0 -1 0 792)" d="M961.277 426.801L961.277 440.368" stroke="#000000" stroke-width="0.398" fill="none" /><path id="365" transform="matrix(1 0 0 -1 0 792)" d="M1020.299 426.801L1020.299 440.368" stroke="#000000" stroke-width="0.398" fill="none" /><path id="367" transform="matrix(1 0 0 -1 0 792)" d="M1088.888 426.801L1088.888 440.368" stroke="#000000" stroke-width="0.398" fill="none" /><path id="368" transform="matrix(1 0 0 -1 0 792)" d="M709.702 426.601L1089.088 426.601" stroke="#000000" stroke-width="0.398" fill="none" /><path id="369" transform="matrix(1 0 0 -1 0 792)" d="M709.901 412.835L709.901 426.402" stroke="#000000" stroke-width="0.398" fill="none" /><path id="374" transform="matrix(1 0 0 -1 0 792)" d="M740.586 417.117L743.575 417.117" stroke="#000000" stroke-width="0.398" fill="none" /><path id="378" transform="matrix(1 0 0 -1 0 792)" d="M762.105 417.117L765.094 417.117" stroke="#000000" stroke-width="0.398" fill="none" /><path id="385" transform="matrix(1 0 0 -1 0 792)" d="M902.255 412.835L902.255 426.402" stroke="#000000" stroke-width="0.398" fill="none" /><path id="387" transform="matrix(1 0 0 -1 0 792)" d="M961.277 412.835L961.277 426.402" stroke="#000000" stroke-width="0.398" fill="none" /><path id="389" transform="matrix(1 0 0 -1 0 792)" d="M1020.299 412.835L1020.299 426.402" stroke="#000000" stroke-width="0.398" fill="none" /><path id="391" transform="matrix(1 0 0 -1 0 792)" d="M1088.888 412.835L1088.888 426.402" stroke="#000000" stroke-width="0.398" fill="none" /><path id="392" transform="matrix(1 0 0 -1 0 792)" d="M709.702 412.636L1089.088 412.636" stroke="#000000" stroke-width="0.398" fill="none" /><path id="393" transform="matrix(1 0 0 -1 0 792)" d="M709.901 398.87L709.901 412.437" stroke="#000000" stroke-width="0.398" fill="none" /><path id="398" transform="matrix(1 0 0 -1 0 792)" d="M740.586 403.152L743.575 403.152" stroke="#000000" stroke-width="0.398" fill="none" /><path id="403" transform="matrix(1 0 0 -1 0 792)" d="M768.0829 403.152L771.072 403.152" stroke="#000000" stroke-width="0.398" fill="none" /><path id="408" transform="matrix(1 0 0 -1 0 792)" d="M902.255 398.87L902.255 412.437" stroke="#000000" stroke-width="0.398" fill="none" /><path id="410" transform="matrix(1 0 0 -1 0 792)" d="M961.277 398.87L961.277 412.437" stroke="#000000" stroke-width="0.398" fill="none" /><path id="412" transform="matrix(1 0 0 -1 0 792)" d="M1020.299 398.87L1020.299 412.437" stroke="#000000" stroke-width="0.398" fill="none" /><path id="414" transform="matrix(1 0 0 -1 0 792)" d="M1088.888 398.87L1088.888 412.437" stroke="#000000" stroke-width="0.398" fill="none" /><path id="415" transform="matrix(1 0 0 -1 0 792)" d="M709.702 398.671L1089.088 398.671" stroke="#000000" stroke-width="0.398" fill="none" /><path id="416" transform="matrix(1 0 0 -1 0 792)" d="M709.901 384.905L709.901 398.472" stroke="#000000" stroke-width="0.398" fill="none" /><path id="421" transform="matrix(1 0 0 -1 0 792)" d="M740.586 389.187L743.575 389.187" stroke="#000000" stroke-width="0.398" fill="none" /><path id="426" transform="matrix(1 0 0 -1 0 792)" d="M768.0829 389.187L771.072 389.187" stroke="#000000" stroke-width="0.398" fill="none" /><path id="433" transform="matrix(1 0 0 -1 0 792)" d="M902.255 384.905L902.255 398.472" stroke="#000000" stroke-width="0.398" fill="none" /><path id="435" transform="matrix(1 0 0 -1 0 792)" d="M961.277 384.905L961.277 398.472" stroke="#000000" stroke-width="0.398" fill="none" /><path id="437" transform="matrix(1 0 0 -1 0 792)" d="M1020.299 384.905L1020.299 398.472" stroke="#000000" stroke-width="0.398" fill="none" /><path id="439" transform="matrix(1 0 0 -1 0 792)" d="M1088.888 384.905L1088.888 398.472" stroke="#000000" stroke-width="0.398" fill="none" /><path id="440" transform="matrix(1 0 0 -1 0 792)" d="M709.702 384.706L1089.088 384.706" stroke="#000000" stroke-width="0.398" fill="none" /><path id="441" transform="matrix(1 0 0 -1 0 792)" d="M709.901 370.94L709.901 384.507" stroke="#000000" stroke-width="0.398" fill="none" /><path id="446" transform="matrix(1 0 0 -1 0 792)" d="M740.586 375.222L743.575 375.222" stroke="#000000" stroke-width="0.398" fill="none" /><path id="456" transform="matrix(1 0 0 -1 0 792)" d="M902.255 370.94L902.255 384.507" stroke="#000000" stroke-width="0.398" fill="none" /><path id="458" transform="matrix(1 0 0 -1 0 792)" d="M961.277 370.94L961.277 384.507" stroke="#000000" stroke-width="0.398" fill="none" /><path id="460" transform="matrix(1 0 0 -1 0 792)" d="M1020.299 370.94L1020.299 384.507" stroke="#000000" stroke-width="0.398" fill="none" /><path id="472" transform="matrix(1 0 0 -1 0 792)" d="M1088.888 370.94L1088.888 384.507" stroke="#000000" stroke-width="0.398" fill="none" /><path id="473" transform="matrix(1 0 0 -1 0 792)" d="M709.702 370.741L1089.088 370.741" stroke="#000000" stroke-width="0.398" fill="none" /><path id="474" transform="matrix(1 0 0 -1 0 792)" d="M709.901 356.975L709.901 370.542" stroke="#000000" stroke-width="0.398" fill="none" /><path id="478" transform="matrix(1 0 0 -1 0 792)" d="M734.608 361.256L737.597 361.256" stroke="#000000" stroke-width="0.398" fill="none" /><path id="484" transform="matrix(1 0 0 -1 0 792)" d="M902.255 356.975L902.255 370.542" stroke="#000000" stroke-width="0.398" fill="none" /><path id="486" transform="matrix(1 0 0 -1 0 792)" d="M961.277 356.975L961.277 370.542" stroke="#000000" stroke-width="0.398" fill="none" /><path id="488" transform="matrix(1 0 0 -1 0 792)" d="M1020.299 356.975L1020.299 370.542" stroke="#000000" stroke-width="0.398" fill="none" /><path id="490" transform="matrix(1 0 0 -1 0 792)" d="M1088.888 356.975L1088.888 370.542" stroke="#000000" stroke-width="0.398" fill="none" /><path id="491" transform="matrix(1 0 0 -1 0 792)" d="M709.702 356.776L1089.088 356.776" stroke="#000000" stroke-width="0.398" fill="none" /><path id="492" transform="matrix(1 0 0 -1 0 792)" d="M709.901 343.01L709.901 356.577" stroke="#000000" stroke-width="0.398" fill="none" /><path id="496" transform="matrix(1 0 0 -1 0 792)" d="M734.608 347.291L737.597 347.291" stroke="#000000" stroke-width="0.398" fill="none" /><path id="504" transform="matrix(1 0 0 -1 0 792)" d="M902.255 343.01L902.255 356.577" stroke="#000000" stroke-width="0.398" fill="none" /><path id="506" transform="matrix(1 0 0 -1 0 792)" d="M961.277 343.01L961.277 356.577" stroke="#000000" stroke-width="0.398" fill="none" /><path id="508" transform="matrix(1 0 0 -1 0 792)" d="M1020.299 343.01L1020.299 356.577" stroke="#000000" stroke-width="0.398" fill="none" /><path id="510" transform="matrix(1 0 0 -1 0 792)" d="M1088.888 343.01L1088.888 356.577" stroke="#000000" stroke-width="0.398" fill="none" /><path id="511" transform="matrix(1 0 0 -1 0 792)" d="M709.702 342.811L1089.088 342.811" stroke="#000000" stroke-width="0.398" fill="none" /><path id="512" transform="matrix(1 0 0 -1 0 792)" d="M709.901 329.045L709.901 342.612" stroke="#000000" stroke-width="0.398" fill="none" /><path id="518" transform="matrix(1 0 0 -1 0 792)" d="M746.564 333.326L749.553 333.326" stroke="#000000" stroke-width="0.398" fill="none" /><path id="524" transform="matrix(1 0 0 -1 0 792)" d="M902.255 329.045L902.255 342.612" stroke="#000000" stroke-width="0.398" fill="none" /><path id="526" transform="matrix(1 0 0 -1 0 792)" d="M961.277 329.045L961.277 342.612" stroke="#000000" stroke-width="0.398" fill="none" /><path id="528" transform="matrix(1 0 0 -1 0 792)" d="M1020.299 329.045L1020.299 342.612" stroke="#000000" stroke-width="0.398" fill="none" /><path id="530" transform="matrix(1 0 0 -1 0 792)" d="M1088.888 329.045L1088.888 342.612" stroke="#000000" stroke-width="0.398" fill="none" /><path id="531" transform="matrix(1 0 0 -1 0 792)" d="M709.702 328.845L1089.088 328.845" stroke="#000000" stroke-width="0.398" fill="none" /><path id="532" transform="matrix(1 0 0 -1 0 792)" d="M709.901 315.079L709.901 328.646" stroke="#000000" stroke-width="0.398" fill="none" /><path id="538" transform="matrix(1 0 0 -1 0 792)" d="M746.564 319.361L749.553 319.361" stroke="#000000" stroke-width="0.398" fill="none" /><path id="545" transform="matrix(1 0 0 -1 0 792)" d="M902.255 315.079L902.255 328.646" stroke="#000000" stroke-width="0.398" fill="none" /><path id="547" transform="matrix(1 0 0 -1 0 792)" d="M961.277 315.079L961.277 328.646" stroke="#000000" stroke-width="0.398" fill="none" /><path id="549" transform="matrix(1 0 0 -1 0 792)" d="M1020.299 315.079L1020.299 328.646" stroke="#000000" stroke-width="0.398" fill="none" /><path id="551" transform="matrix(1 0 0 -1 0 792)" d="M1088.888 315.079L1088.888 328.646" stroke="#000000" stroke-width="0.398" fill="none" /><path id="552" transform="matrix(1 0 0 -1 0 792)" d="M709.702 314.88L1089.088 314.88" stroke="#000000" stroke-width="0.398" fill="none" /><path id="553" transform="matrix(1 0 0 -1 0 792)" d="M709.901 301.114L709.901 314.681" stroke="#000000" stroke-width="0.398" fill="none" /><path id="557" transform="matrix(1 0 0 -1 0 792)" d="M734.608 305.396L737.597 305.396" stroke="#000000" stroke-width="0.398" fill="none" /><path id="563" transform="matrix(1 0 0 -1 0 792)" d="M902.255 301.114L902.255 314.681" stroke="#000000" stroke-width="0.398" fill="none" /><path id="565" transform="matrix(1 0 0 -1 0 792)" d="M961.277 301.114L961.277 314.681" stroke="#000000" stroke-width="0.398" fill="none" /><path id="567" transform="matrix(1 0 0 -1 0 792)" d="M1020.299 301.114L1020.299 314.681" stroke="#000000" stroke-width="0.398" fill="none" /><path id="569" transform="matrix(1 0 0 -1 0 792)" d="M1088.888 301.114L1088.888 314.681" stroke="#000000" stroke-width="0.398" fill="none" /><path id="570" transform="matrix(1 0 0 -1 0 792)" d="M709.702 300.915L1089.088 300.915" stroke="#000000" stroke-width="0.398" fill="none" /><path id="571" transform="matrix(1 0 0 -1 0 792)" d="M709.901 287.149L709.901 300.716" stroke="#000000" stroke-width="0.398" fill="none" /><path id="577" transform="matrix(1 0 0 -1 0 792)" d="M746.564 291.431L749.553 291.431" stroke="#000000" stroke-width="0.398" fill="none" /><path id="583" transform="matrix(1 0 0 -1 0 792)" d="M902.255 287.149L902.255 300.716" stroke="#000000" stroke-width="0.398" fill="none" /><path id="585" transform="matrix(1 0 0 -1 0 792)" d="M961.277 287.149L961.277 300.716" stroke="#000000" stroke-width="0.398" fill="none" /><path id="587" transform="matrix(1 0 0 -1 0 792)" d="M1020.299 287.149L1020.299 300.716" stroke="#000000" stroke-width="0.398" fill="none" /><path id="589" transform="matrix(1 0 0 -1 0 792)" d="M1088.888 287.149L1088.888 300.716" stroke="#000000" stroke-width="0.398" fill="none" /><path id="590" transform="matrix(1 0 0 -1 0 792)" d="M709.702 286.95L1089.088 286.95" stroke="#000000" stroke-width="0.398" fill="none" /><path id="591" transform="matrix(1 0 0 -1 0 792)" d="M709.901 273.184L709.901 286.751" stroke="#000000" stroke-width="0.398" fill="none" /><path id="596" transform="matrix(1 0 0 -1 0 792)" d="M740.586 277.466L743.575 277.466" stroke="#000000" stroke-width="0.398" fill="none" /><path id="602" transform="matrix(1 0 0 -1 0 792)" d="M902.255 273.184L902.255 286.751" stroke="#000000" stroke-width="0.398" fill="none" /><path id="604" transform="matrix(1 0 0 -1 0 792)" d="M961.277 273.184L961.277 286.751" stroke="#000000" stroke-width="0.398" fill="none" /><path id="606" transform="matrix(1 0 0 -1 0 792)" d="M1020.299 273.184L1020.299 286.751" stroke="#000000" stroke-width="0.398" fill="none" /><path id="608" transform="matrix(1 0 0 -1 0 792)" d="M1088.888 273.184L1088.888 286.751" stroke="#000000" stroke-width="0.398" fill="none" /><path id="609" transform="matrix(1 0 0 -1 0 792)" d="M709.702 272.985L1089.088 272.985" stroke="#000000" stroke-width="0.398" fill="none" /><path id="610" transform="matrix(1 0 0 -1 0 792)" d="M709.901 259.219L709.901 272.786" stroke="#000000" stroke-width="0.398" fill="none" /><path id="616" transform="matrix(1 0 0 -1 0 792)" d="M746.564 263.5L749.553 263.5" stroke="#000000" stroke-width="0.398" fill="none" /><path id="622" transform="matrix(1 0 0 -1 0 792)" d="M902.255 259.219L902.255 272.786" stroke="#000000" stroke-width="0.398" fill="none" /><path id="624" transform="matrix(1 0 0 -1 0 792)" d="M961.277 259.219L961.277 272.786" stroke="#000000" stroke-width="0.398" fill="none" /><path id="626" transform="matrix(1 0 0 -1 0 792)" d="M1020.299 259.219L1020.299 272.786" stroke="#000000" stroke-width="0.398" fill="none" /><path id="628" transform="matrix(1 0 0 -1 0 792)" d="M1088.888 259.219L1088.888 272.786" stroke="#000000" stroke-width="0.398" fill="none" /><path id="629" transform="matrix(1 0 0 -1 0 792)" d="M709.702 259.02L1089.088 259.02" stroke="#000000" stroke-width="0.398" fill="none" /><path id="630" transform="matrix(1 0 0 -1 0 792)" d="M709.901 245.254L709.901 258.821" stroke="#000000" stroke-width="0.398" fill="none" /><path id="636" transform="matrix(1 0 0 -1 0 792)" d="M746.564 249.535L749.553 249.535" stroke="#000000" stroke-width="0.398" fill="none" /><path id="642" transform="matrix(1 0 0 -1 0 792)" d="M902.255 245.254L902.255 258.821" stroke="#000000" stroke-width="0.398" fill="none" /><path id="644" transform="matrix(1 0 0 -1 0 792)" d="M961.277 245.254L961.277 258.821" stroke="#000000" stroke-width="0.398" fill="none" /><path id="646" transform="matrix(1 0 0 -1 0 792)" d="M1020.299 245.254L1020.299 258.821" stroke="#000000" stroke-width="0.398" fill="none" /><path id="648" transform="matrix(1 0 0 -1 0 792)" d="M1088.888 245.254L1088.888 258.821" stroke="#000000" stroke-width="0.398" fill="none" /><path id="649" transform="matrix(1 0 0 -1 0 792)" d="M709.702 245.054L1089.088 245.054" stroke="#000000" stroke-width="0.398" fill="none" /><path id="650" transform="matrix(1 0 0 -1 0 792)" d="M709.901 231.289L709.901 244.856" stroke="#000000" stroke-width="0.398" fill="none" /><path id="654" transform="matrix(1 0 0 -1 0 792)" d="M734.608 235.57L737.597 235.57" stroke="#000000" stroke-width="0.398" fill="none" /><path id="659" transform="matrix(1 0 0 -1 0 792)" d="M902.255 231.289L902.255 244.856" stroke="#000000" stroke-width="0.398" fill="none" /><path id="661" transform="matrix(1 0 0 -1 0 792)" d="M961.277 231.289L961.277 244.856" stroke="#000000" stroke-width="0.398" fill="none" /><path id="663" transform="matrix(1 0 0 -1 0 792)" d="M1020.299 231.289L1020.299 244.856" stroke="#000000" stroke-width="0.398" fill="none" /><path id="665" transform="matrix(1 0 0 -1 0 792)" d="M1088.888 231.289L1088.888 244.856" stroke="#000000" stroke-width="0.398" fill="none" /><path id="666" transform="matrix(1 0 0 -1 0 792)" d="M709.702 231.089L1089.088 231.089" stroke="#000000" stroke-width="0.398" fill="none" /><path id="667" transform="matrix(1 0 0 -1 0 792)" d="M709.901 217.323L709.901 230.89" stroke="#000000" stroke-width="0.398" fill="none" /><path id="673" transform="matrix(1 0 0 -1 0 792)" d="M746.564 221.605L749.553 221.605" stroke="#000000" stroke-width="0.398" fill="none" /><path id="678" transform="matrix(1 0 0 -1 0 792)" d="M902.255 217.323L902.255 230.89" stroke="#000000" stroke-width="0.398" fill="none" /><path id="680" transform="matrix(1 0 0 -1 0 792)" d="M961.277 217.323L961.277 230.89" stroke="#000000" stroke-width="0.398" fill="none" /><path id="682" transform="matrix(1 0 0 -1 0 792)" d="M1020.299 217.323L1020.299 230.89" stroke="#000000" stroke-width="0.398" fill="none" /><path id="684" transform="matrix(1 0 0 -1 0 792)" d="M1088.888 217.323L1088.888 230.89" stroke="#000000" stroke-width="0.398" fill="none" /><path id="685" transform="matrix(1 0 0 -1 0 792)" d="M709.702 217.124L1089.088 217.124" stroke="#000000" stroke-width="0.398" fill="none" /><path id="686" transform="matrix(1 0 0 -1 0 792)" d="M709.901 203.358L709.901 216.925" stroke="#000000" stroke-width="0.398" fill="none" /><path id="691" transform="matrix(1 0 0 -1 0 792)" d="M740.586 207.64L743.575 207.64" stroke="#000000" stroke-width="0.398" fill="none" /><path id="696" transform="matrix(1 0 0 -1 0 792)" d="M902.255 203.358L902.255 216.925" stroke="#000000" stroke-width="0.398" fill="none" /><path id="698" transform="matrix(1 0 0 -1 0 792)" d="M961.277 203.358L961.277 216.925" stroke="#000000" stroke-width="0.398" fill="none" /><path id="700" transform="matrix(1 0 0 -1 0 792)" d="M1020.299 203.358L1020.299 216.925" stroke="#000000" stroke-width="0.398" fill="none" /><path id="702" transform="matrix(1 0 0 -1 0 792)" d="M1088.888 203.358L1088.888 216.925" stroke="#000000" stroke-width="0.398" fill="none" /><path id="703" transform="matrix(1 0 0 -1 0 792)" d="M709.702 203.159L1089.088 203.159" stroke="#000000" stroke-width="0.398" fill="none" /><path id="704" transform="matrix(1 0 0 -1 0 792)" d="M709.901 189.393L709.901 202.96" stroke="#000000" stroke-width="0.398" fill="none" /><path id="710" transform="matrix(1 0 0 -1 0 792)" d="M746.564 193.675L749.553 193.675" stroke="#000000" stroke-width="0.398" fill="none" /><path id="715" transform="matrix(1 0 0 -1 0 792)" d="M902.255 189.393L902.255 202.96" stroke="#000000" stroke-width="0.398" fill="none" /><path id="717" transform="matrix(1 0 0 -1 0 792)" d="M961.277 189.393L961.277 202.96" stroke="#000000" stroke-width="0.398" fill="none" /><path id="719" transform="matrix(1 0 0 -1 0 792)" d="M1020.299 189.393L1020.299 202.96" stroke="#000000" stroke-width="0.398" fill="none" /><path id="721" transform="matrix(1 0 0 -1 0 792)" d="M1088.888 189.393L1088.888 202.96" stroke="#000000" stroke-width="0.398" fill="none" /><path id="722" transform="matrix(1 0 0 -1 0 792)" d="M709.702 189.194L1089.088 189.194" stroke="#000000" stroke-width="0.398" fill="none" /><path id="723" transform="matrix(1 0 0 -1 0 792)" d="M709.901 175.428L709.901 188.995" stroke="#000000" stroke-width="0.398" fill="none" /><path id="729" transform="matrix(1 0 0 -1 0 792)" d="M746.564 179.709L749.553 179.709" stroke="#000000" stroke-width="0.398" fill="none" /><path id="734" transform="matrix(1 0 0 -1 0 792)" d="M902.255 175.428L902.255 188.995" stroke="#000000" stroke-width="0.398" fill="none" /><path id="736" transform="matrix(1 0 0 -1 0 792)" d="M961.277 175.428L961.277 188.995" stroke="#000000" stroke-width="0.398" fill="none" /><path id="738" transform="matrix(1 0 0 -1 0 792)" d="M1020.299 175.428L1020.299 188.995" stroke="#000000" stroke-width="0.398" fill="none" /><path id="740" transform="matrix(1 0 0 -1 0 792)" d="M1088.888 175.428L1088.888 188.995" stroke="#000000" stroke-width="0.398" fill="none" /><path id="741" transform="matrix(1 0 0 -1 0 792)" d="M709.702 175.229L1089.088 175.229" stroke="#000000" stroke-width="0.398" fill="none" /><path id="758" transform="matrix(1 0 0 -1 0 792)" d="M666.067 722.529L1132.724 722.529L1132.724 722.529L1132.724 735.6745L1132.724 735.6745L666.067 735.6745z" stroke="#FFFFFF" stroke-width="1" fill="#FFFFFF" fill-rule="nonzero" /><path id="810" transform="matrix(1 0 0 -1 0 792)" d="M54.067 721.28L520.722 721.28" stroke="#000000" stroke-width="0.498" fill="none" /><path id="811" transform="matrix(1 0 0 -1 0 792)" d="M97.702 624.106L477.088 624.106" stroke="#000000" stroke-width="0.398" fill="none" /><path id="812" transform="matrix(1 0 0 -1 0 792)" d="M97.901 610.34L97.901 623.907" stroke="#000000" stroke-width="0.398" fill="none" /><path id="813" transform="matrix(1 0 0 -1 0 792)" d="M98.1 610.34L290.055 610.34L290.055 623.907L98.1 623.907z" stroke="none" fill="#CCCCEB" fill-rule="nonzero" /><path id="819" transform="matrix(1 0 0 -1 0 792)" d="M290.255 610.34L290.255 623.907" stroke="#000000" stroke-width="0.398" fill="none" /><path id="820" transform="matrix(1 0 0 -1 0 792)" d="M290.454 610.34L349.078 610.34L349.078 623.907L290.454 623.907z" stroke="none" fill="#CCCCEB" fill-rule="nonzero" /><path id="830" transform="matrix(1 0 0 -1 0 792)" d="M349.277 610.34L349.277 623.907" stroke="#000000" stroke-width="0.398" fill="none" /><path id="831" transform="matrix(1 0 0 -1 0 792)" d="M349.476 610.34L408.1 610.34L408.1 623.907L349.476 623.907z" stroke="none" fill="#CCCCEB" fill-rule="nonzero" /><path id="839" transform="matrix(1 0 0 -1 0 792)" d="M408.299 610.34L408.299 623.907" stroke="#000000" stroke-width="0.398" fill="none" /><path id="840" transform="matrix(1 0 0 -1 0 792)" d="M408.498 610.34L476.689 610.34L476.689 623.907L408.498 623.907z" stroke="none" fill="#CCCCEB" fill-rule="nonzero" /><path id="844" transform="matrix(1 0 0 -1 0 792)" d="M476.888 610.34L476.888 623.907" stroke="#000000" stroke-width="0.398" fill="none" /><path id="845" transform="matrix(1 0 0 -1 0 792)" d="M97.901 596.773L97.901 610.34" stroke="#000000" stroke-width="0.398" fill="none" /><path id="846" transform="matrix(1 0 0 -1 0 792)" d="M98.1 596.773L290.055 596.773L290.055 610.34L98.1 610.34z" stroke="none" fill="#CCCCEB" fill-rule="nonzero" /><path id="847" transform="matrix(1 0 0 -1 0 792)" d="M290.255 596.773L290.255 610.34" stroke="#000000" stroke-width="0.398" fill="none" /><path id="848" transform="matrix(1 0 0 -1 0 792)" d="M290.454 596.773L349.078 596.773L349.078 610.34L290.454 610.34z" stroke="none" fill="#CCCCEB" fill-rule="nonzero" /><path id="849" transform="matrix(1 0 0 -1 0 792)" d="M349.277 596.773L349.277 610.34" stroke="#000000" stroke-width="0.398" fill="none" /><path id="850" transform="matrix(1 0 0 -1 0 792)" d="M349.476 596.773L408.1 596.773L408.1 610.34L349.476 610.34z" stroke="none" fill="#CCCCEB" fill-rule="nonzero" /><path id="856" transform="matrix(1 0 0 -1 0 792)" d="M408.299 596.773L408.299 610.34" stroke="#000000" stroke-width="0.398" fill="none" /><path id="857" transform="matrix(1 0 0 -1 0 792)" d="M408.498 596.773L476.689 596.773L476.689 610.34L408.498 610.34z" stroke="none" fill="#CCCCEB" fill-rule="nonzero" /><path id="858" transform="matrix(1 0 0 -1 0 792)" d="M476.888 596.773L476.888 610.34" stroke="#000000" stroke-width="0.398" fill="none" /><path id="859" transform="matrix(1 0 0 -1 0 792)" d="M97.702 596.574L477.088 596.574" stroke="#000000" stroke-width="0.398" fill="none" /><path id="860" transform="matrix(1 0 0 -1 0 792)" d="M97.702 594.183L477.088 594.183" stroke="#000000" stroke-width="0.398" fill="none" /><path id="861" transform="matrix(1 0 0 -1 0 792)" d="M97.901 580.417L97.901 593.984" stroke="#000000" stroke-width="0.398" fill="none" /><path id="868" transform="matrix(1 0 0 -1 0 792)" d="M140.541 584.699L143.53 584.699" stroke="#000000" stroke-width="0.398" fill="none" /><path id="873" transform="matrix(1 0 0 -1 0 792)" d="M168.038 584.699L171.027 584.699" stroke="#000000" stroke-width="0.398" fill="none" /><path id="879" transform="matrix(1 0 0 -1 0 792)" d="M290.255 580.417L290.255 593.984" stroke="#000000" stroke-width="0.398" fill="none" /><path id="881" transform="matrix(1 0 0 -1 0 792)" d="M349.277 580.417L349.277 593.984" stroke="#000000" stroke-width="0.398" fill="none" /><path id="883" transform="matrix(1 0 0 -1 0 792)" d="M408.299 580.417L408.299 593.984" stroke="#000000" stroke-width="0.398" fill="none" /><path id="885" transform="matrix(1 0 0 -1 0 792)" d="M476.888 580.417L476.888 593.984" stroke="#000000" stroke-width="0.398" fill="none" /><path id="886" transform="matrix(1 0 0 -1 0 792)" d="M97.702 580.218L477.088 580.218" stroke="#000000" stroke-width="0.398" fill="none" /><path id="887" transform="matrix(1 0 0 -1 0 792)" d="M97.901 566.452L97.901 580.019" stroke="#000000" stroke-width="0.398" fill="none" /><path id="894" transform="matrix(1 0 0 -1 0 792)" d="M140.541 570.734L143.53 570.734" stroke="#000000" stroke-width="0.398" fill="none" /><path id="898" transform="matrix(1 0 0 -1 0 792)" d="M162.061 570.734L165.05 570.734" stroke="#000000" stroke-width="0.398" fill="none" /><path id="904" transform="matrix(1 0 0 -1 0 792)" d="M290.255 566.452L290.255 580.019" stroke="#000000" stroke-width="0.398" fill="none" /><path id="906" transform="matrix(1 0 0 -1 0 792)" d="M349.277 566.452L349.277 580.019" stroke="#000000" stroke-width="0.398" fill="none" /><path id="908" transform="matrix(1 0 0 -1 0 792)" d="M408.299 566.452L408.299 580.019" stroke="#000000" stroke-width="0.398" fill="none" /><path id="910" transform="matrix(1 0 0 -1 0 792)" d="M476.888 566.452L476.888 580.019" stroke="#000000" stroke-width="0.398" fill="none" /><path id="911" transform="matrix(1 0 0 -1 0 792)" d="M97.702 566.253L477.088 566.253" stroke="#000000" stroke-width="0.398" fill="none" /><path id="912" transform="matrix(1 0 0 -1 0 792)" d="M97.901 552.487L97.901 566.054" stroke="#000000" stroke-width="0.398" fill="none" /><path id="919" transform="matrix(1 0 0 -1 0 792)" d="M140.541 556.768L143.53 556.768" stroke="#000000" stroke-width="0.398" fill="none" /><path id="925" transform="matrix(1 0 0 -1 0 792)" d="M174.016 556.768L177.005 556.768" stroke="#000000" stroke-width="0.398" fill="none" /><path id="932" transform="matrix(1 0 0 -1 0 792)" d="M290.255 552.487L290.255 566.054" stroke="#000000" stroke-width="0.398" fill="none" /><path id="934" transform="matrix(1 0 0 -1 0 792)" d="M349.277 552.487L349.277 566.054" stroke="#000000" stroke-width="0.398" fill="none" /><path id="936" transform="matrix(1 0 0 -1 0 792)" d="M408.299 552.487L408.299 566.054" stroke="#000000" stroke-width="0.398" fill="none" /><path id="938" transform="matrix(1 0 0 -1 0 792)" d="M476.888 552.487L476.888 566.054" stroke="#000000" stroke-width="0.398" fill="none" /><path id="939" transform="matrix(1 0 0 -1 0 792)" d="M97.702 552.288L477.088 552.288" stroke="#000000" stroke-width="0.398" fill="none" /><path id="940" transform="matrix(1 0 0 -1 0 792)" d="M97.901 538.522L97.901 552.089" stroke="#000000" stroke-width="0.398" fill="none" /><path id="947" transform="matrix(1 0 0 -1 0 792)" d="M140.541 542.803L143.53 542.803" stroke="#000000" stroke-width="0.398" fill="none" /><path id="952" transform="matrix(1 0 0 -1 0 792)" d="M168.038 542.803L171.027 542.803" stroke="#000000" stroke-width="0.398" fill="none" /><path id="959" transform="matrix(1 0 0 -1 0 792)" d="M290.255 538.522L290.255 552.089" stroke="#000000" stroke-width="0.398" fill="none" /><path id="961" transform="matrix(1 0 0 -1 0 792)" d="M349.277 538.522L349.277 552.089" stroke="#000000" stroke-width="0.398" fill="none" /><path id="963" transform="matrix(1 0 0 -1 0 792)" d="M408.299 538.522L408.299 552.089" stroke="#000000" stroke-width="0.398" fill="none" /><path id="965" transform="matrix(1 0 0 -1 0 792)" d="M476.888 538.522L476.888 552.089" stroke="#000000" stroke-width="0.398" fill="none" /><path id="966" transform="matrix(1 0 0 -1 0 792)" d="M97.702 538.323L477.088 538.323" stroke="#000000" stroke-width="0.398" fill="none" /><path id="967" transform="matrix(1 0 0 -1 0 792)" d="M97.901 524.557L97.901 538.124" stroke="#000000" stroke-width="0.398" fill="none" /><path id="974" transform="matrix(1 0 0 -1 0 792)" d="M140.541 528.838L143.53 528.838" stroke="#000000" stroke-width="0.398" fill="none" /><path id="978" transform="matrix(1 0 0 -1 0 792)" d="M162.061 528.838L165.05 528.838" stroke="#000000" stroke-width="0.398" fill="none" /><path id="985" transform="matrix(1 0 0 -1 0 792)" d="M290.255 524.557L290.255 538.124" stroke="#000000" stroke-width="0.398" fill="none" /><path id="987" transform="matrix(1 0 0 -1 0 792)" d="M349.277 524.557L349.277 538.124" stroke="#000000" stroke-width="0.398" fill="none" /><path id="989" transform="matrix(1 0 0 -1 0 792)" d="M408.299 524.557L408.299 538.124" stroke="#000000" stroke-width="0.398" fill="none" /><path id="991" transform="matrix(1 0 0 -1 0 792)" d="M476.888 524.557L476.888 538.124" stroke="#000000" stroke-width="0.398" fill="none" /><path id="992" transform="matrix(1 0 0 -1 0 792)" d="M97.702 524.357L477.088 524.357" stroke="#000000" stroke-width="0.398" fill="none" /><path id="993" transform="matrix(1 0 0 -1 0 792)" d="M97.901 510.592L97.901 524.159" stroke="#000000" stroke-width="0.398" fill="none" /><path id="1000" transform="matrix(1 0 0 -1 0 792)" d="M140.541 514.873L143.53 514.873" stroke="#000000" stroke-width="0.398" fill="none" /><path id="1005" transform="matrix(1 0 0 -1 0 792)" d="M168.038 514.873L171.027 514.873" stroke="#000000" stroke-width="0.398" fill="none" /><path id="1010" transform="matrix(1 0 0 -1 0 792)" d="M290.255 510.592L290.255 524.159" stroke="#000000" stroke-width="0.398" fill="none" /><path id="1012" transform="matrix(1 0 0 -1 0 792)" d="M349.277 510.592L349.277 524.159" stroke="#000000" stroke-width="0.398" fill="none" /><path id="1014" transform="matrix(1 0 0 -1 0 792)" d="M408.299 510.592L408.299 524.159" stroke="#000000" stroke-width="0.398" fill="none" /><path id="1016" transform="matrix(1 0 0 -1 0 792)" d="M476.888 510.592L476.888 524.159" stroke="#000000" stroke-width="0.398" fill="none" /><path id="1017" transform="matrix(1 0 0 -1 0 792)" d="M97.702 510.392L477.088 510.392" stroke="#000000" stroke-width="0.398" fill="none" /><path id="1018" transform="matrix(1 0 0 -1 0 792)" d="M97.901 496.626L97.901 510.193" stroke="#000000" stroke-width="0.398" fill="none" /><path id="1025" transform="matrix(1 0 0 -1 0 792)" d="M140.541 500.908L143.53 500.908" stroke="#000000" stroke-width="0.398" fill="none" /><path id="1030" transform="matrix(1 0 0 -1 0 792)" d="M168.038 500.908L171.027 500.908" stroke="#000000" stroke-width="0.398" fill="none" /><path id="1037" transform="matrix(1 0 0 -1 0 792)" d="M290.255 496.626L290.255 510.193" stroke="#000000" stroke-width="0.398" fill="none" /><path id="1039" transform="matrix(1 0 0 -1 0 792)" d="M349.277 496.626L349.277 510.193" stroke="#000000" stroke-width="0.398" fill="none" /><path id="1041" transform="matrix(1 0 0 -1 0 792)" d="M408.299 496.626L408.299 510.193" stroke="#000000" stroke-width="0.398" fill="none" /><path id="1043" transform="matrix(1 0 0 -1 0 792)" d="M476.888 496.626L476.888 510.193" stroke="#000000" stroke-width="0.398" fill="none" /><path id="1044" transform="matrix(1 0 0 -1 0 792)" d="M97.702 496.427L477.088 496.427" stroke="#000000" stroke-width="0.398" fill="none" /><path id="1045" transform="matrix(1 0 0 -1 0 792)" d="M97.901 482.661L97.901 496.228" stroke="#000000" stroke-width="0.398" fill="none" /><path id="1052" transform="matrix(1 0 0 -1 0 792)" d="M140.541 486.943L143.53 486.943" stroke="#000000" stroke-width="0.398" fill="none" /><path id="1062" transform="matrix(1 0 0 -1 0 792)" d="M290.255 482.661L290.255 496.228" stroke="#000000" stroke-width="0.398" fill="none" /><path id="1064" transform="matrix(1 0 0 -1 0 792)" d="M349.277 482.661L349.277 496.228" stroke="#000000" stroke-width="0.398" fill="none" /><path id="1066" transform="matrix(1 0 0 -1 0 792)" d="M408.299 482.661L408.299 496.228" stroke="#000000" stroke-width="0.398" fill="none" /><path id="1078" transform="matrix(1 0 0 -1 0 792)" d="M476.888 482.661L476.888 496.228" stroke="#000000" stroke-width="0.398" fill="none" /><path id="1079" transform="matrix(1 0 0 -1 0 792)" d="M97.702 482.462L477.088 482.462" stroke="#000000" stroke-width="0.398" fill="none" /><path id="1080" transform="matrix(1 0 0 -1 0 792)" d="M97.901 468.696L97.901 482.263" stroke="#000000" stroke-width="0.398" fill="none" /><path id="1085" transform="matrix(1 0 0 -1 0 792)" d="M128.586 472.978L131.575 472.978" stroke="#000000" stroke-width="0.398" fill="none" /><path id="1090" transform="matrix(1 0 0 -1 0 792)" d="M156.083 472.978L159.072 472.978" stroke="#000000" stroke-width="0.398" fill="none" /><path id="1096" transform="matrix(1 0 0 -1 0 792)" d="M290.255 468.696L290.255 482.263" stroke="#000000" stroke-width="0.398" fill="none" /><path id="1098" transform="matrix(1 0 0 -1 0 792)" d="M349.277 468.696L349.277 482.263" stroke="#000000" stroke-width="0.398" fill="none" /><path id="1100" transform="matrix(1 0 0 -1 0 792)" d="M408.299 468.696L408.299 482.263" stroke="#000000" stroke-width="0.398" fill="none" /><path id="1102" transform="matrix(1 0 0 -1 0 792)" d="M476.888 468.696L476.888 482.263" stroke="#000000" stroke-width="0.398" fill="none" /><path id="1103" transform="matrix(1 0 0 -1 0 792)" d="M97.702 468.497L477.088 468.497" stroke="#000000" stroke-width="0.398" fill="none" /><path id="1104" transform="matrix(1 0 0 -1 0 792)" d="M97.901 454.731L97.901 468.298" stroke="#000000" stroke-width="0.398" fill="none" /><path id="1109" transform="matrix(1 0 0 -1 0 792)" d="M128.586 459.012L131.575 459.012" stroke="#000000" stroke-width="0.398" fill="none" /><path id="1113" transform="matrix(1 0 0 -1 0 792)" d="M150.105 459.012L153.094 459.012" stroke="#000000" stroke-width="0.398" fill="none" /><path id="1119" transform="matrix(1 0 0 -1 0 792)" d="M290.255 454.731L290.255 468.298" stroke="#000000" stroke-width="0.398" fill="none" /><path id="1121" transform="matrix(1 0 0 -1 0 792)" d="M349.277 454.731L349.277 468.298" stroke="#000000" stroke-width="0.398" fill="none" /><path id="1123" transform="matrix(1 0 0 -1 0 792)" d="M408.299 454.731L408.299 468.298" stroke="#000000" stroke-width="0.398" fill="none" /><path id="1125" transform="matrix(1 0 0 -1 0 792)" d="M476.888 454.731L476.888 468.298" stroke="#000000" stroke-width="0.398" fill="none" /><path id="1126" transform="matrix(1 0 0 -1 0 792)" d="M97.702 454.532L477.088 454.532" stroke="#000000" stroke-width="0.398" fill="none" /><path id="1127" transform="matrix(1 0 0 -1 0 792)" d="M97.901 440.766L97.901 454.333" stroke="#000000" stroke-width="0.398" fill="none" /><path id="1132" transform="matrix(1 0 0 -1 0 792)" d="M128.586 445.047L131.575 445.047" stroke="#000000" stroke-width="0.398" fill="none" /><path id="1138" transform="matrix(1 0 0 -1 0 792)" d="M162.061 445.047L165.05 445.047" stroke="#000000" stroke-width="0.398" fill="none" /><path id="1145" transform="matrix(1 0 0 -1 0 792)" d="M290.255 440.766L290.255 454.333" stroke="#000000" stroke-width="0.398" fill="none" /><path id="1147" transform="matrix(1 0 0 -1 0 792)" d="M349.277 440.766L349.277 454.333" stroke="#000000" stroke-width="0.398" fill="none" /><path id="1149" transform="matrix(1 0 0 -1 0 792)" d="M408.299 440.766L408.299 454.333" stroke="#000000" stroke-width="0.398" fill="none" /><path id="1151" transform="matrix(1 0 0 -1 0 792)" d="M476.888 440.766L476.888 454.333" stroke="#000000" stroke-width="0.398" fill="none" /><path id="1152" transform="matrix(1 0 0 -1 0 792)" d="M97.702 440.567L477.088 440.567" stroke="#000000" stroke-width="0.398" fill="none" /><path id="1153" transform="matrix(1 0 0 -1 0 792)" d="M97.901 426.801L97.901 440.368" stroke="#000000" stroke-width="0.398" fill="none" /><path id="1158" transform="matrix(1 0 0 -1 0 792)" d="M128.586 431.082L131.575 431.082" stroke="#000000" stroke-width="0.398" fill="none" /><path id="1163" transform="matrix(1 0 0 -1 0 792)" d="M156.083 431.082L159.072 431.082" stroke="#000000" stroke-width="0.398" fill="none" /><path id="1170" transform="matrix(1 0 0 -1 0 792)" d="M290.255 426.801L290.255 440.368" stroke="#000000" stroke-width="0.398" fill="none" /><path id="1172" transform="matrix(1 0 0 -1 0 792)" d="M349.277 426.801L349.277 440.368" stroke="#000000" stroke-width="0.398" fill="none" /><path id="1174" transform="matrix(1 0 0 -1 0 792)" d="M408.299 426.801L408.299 440.368" stroke="#000000" stroke-width="0.398" fill="none" /><path id="1176" transform="matrix(1 0 0 -1 0 792)" d="M476.888 426.801L476.888 440.368" stroke="#000000" stroke-width="0.398" fill="none" /><path id="1177" transform="matrix(1 0 0 -1 0 792)" d="M97.702 426.601L477.088 426.601" stroke="#000000" stroke-width="0.398" fill="none" /><path id="1178" transform="matrix(1 0 0 -1 0 792)" d="M97.901 412.835L97.901 426.402" stroke="#000000" stroke-width="0.398" fill="none" /><path id="1183" transform="matrix(1 0 0 -1 0 792)" d="M128.586 417.117L131.575 417.117" stroke="#000000" stroke-width="0.398" fill="none" /><path id="1187" transform="matrix(1 0 0 -1 0 792)" d="M150.105 417.117L153.094 417.117" stroke="#000000" stroke-width="0.398" fill="none" /><path id="1194" transform="matrix(1 0 0 -1 0 792)" d="M290.255 412.835L290.255 426.402" stroke="#000000" stroke-width="0.398" fill="none" /><path id="1196" transform="matrix(1 0 0 -1 0 792)" d="M349.277 412.835L349.277 426.402" stroke="#000000" stroke-width="0.398" fill="none" /><path id="1198" transform="matrix(1 0 0 -1 0 792)" d="M408.299 412.835L408.299 426.402" stroke="#000000" stroke-width="0.398" fill="none" /><path id="1200" transform="matrix(1 0 0 -1 0 792)" d="M476.888 412.835L476.888 426.402" stroke="#000000" stroke-width="0.398" fill="none" /><path id="1201" transform="matrix(1 0 0 -1 0 792)" d="M97.702 412.636L477.088 412.636" stroke="#000000" stroke-width="0.398" fill="none" /><path id="1202" transform="matrix(1 0 0 -1 0 792)" d="M97.901 398.87L97.901 412.437" stroke="#000000" stroke-width="0.398" fill="none" /><path id="1207" transform="matrix(1 0 0 -1 0 792)" d="M128.586 403.152L131.575 403.152" stroke="#000000" stroke-width="0.398" fill="none" /><path id="1212" transform="matrix(1 0 0 -1 0 792)" d="M156.083 403.152L159.072 403.152" stroke="#000000" stroke-width="0.398" fill="none" /><path id="1217" transform="matrix(1 0 0 -1 0 792)" d="M290.255 398.87L290.255 412.437" stroke="#000000" stroke-width="0.398" fill="none" /><path id="1219" transform="matrix(1 0 0 -1 0 792)" d="M349.277 398.87L349.277 412.437" stroke="#000000" stroke-width="0.398" fill="none" /><path id="1221" transform="matrix(1 0 0 -1 0 792)" d="M408.299 398.87L408.299 412.437" stroke="#000000" stroke-width="0.398" fill="none" /><path id="1223" transform="matrix(1 0 0 -1 0 792)" d="M476.888 398.87L476.888 412.437" stroke="#000000" stroke-width="0.398" fill="none" /><path id="1224" transform="matrix(1 0 0 -1 0 792)" d="M97.702 398.671L477.088 398.671" stroke="#000000" stroke-width="0.398" fill="none" /><path id="1225" transform="matrix(1 0 0 -1 0 792)" d="M97.901 384.905L97.901 398.472" stroke="#000000" stroke-width="0.398" fill="none" /><path id="1230" transform="matrix(1 0 0 -1 0 792)" d="M128.586 389.187L131.575 389.187" stroke="#000000" stroke-width="0.398" fill="none" /><path id="1235" transform="matrix(1 0 0 -1 0 792)" d="M156.083 389.187L159.072 389.187" stroke="#000000" stroke-width="0.398" fill="none" /><path id="1242" transform="matrix(1 0 0 -1 0 792)" d="M290.255 384.905L290.255 398.472" stroke="#000000" stroke-width="0.398" fill="none" /><path id="1244" transform="matrix(1 0 0 -1 0 792)" d="M349.277 384.905L349.277 398.472" stroke="#000000" stroke-width="0.398" fill="none" /><path id="1246" transform="matrix(1 0 0 -1 0 792)" d="M408.299 384.905L408.299 398.472" stroke="#000000" stroke-width="0.398" fill="none" /><path id="1248" transform="matrix(1 0 0 -1 0 792)" d="M476.888 384.905L476.888 398.472" stroke="#000000" stroke-width="0.398" fill="none" /><path id="1249" transform="matrix(1 0 0 -1 0 792)" d="M97.702 384.706L477.088 384.706" stroke="#000000" stroke-width="0.398" fill="none" /><path id="1250" transform="matrix(1 0 0 -1 0 792)" d="M97.901 370.94L97.901 384.507" stroke="#000000" stroke-width="0.398" fill="none" /><path id="1255" transform="matrix(1 0 0 -1 0 792)" d="M128.586 375.222L131.575 375.222" stroke="#000000" stroke-width="0.398" fill="none" /><path id="1265" transform="matrix(1 0 0 -1 0 792)" d="M290.255 370.94L290.255 384.507" stroke="#000000" stroke-width="0.398" fill="none" /><path id="1267" transform="matrix(1 0 0 -1 0 792)" d="M349.277 370.94L349.277 384.507" stroke="#000000" stroke-width="0.398" fill="none" /><path id="1269" transform="matrix(1 0 0 -1 0 792)" d="M408.299 370.94L408.299 384.507" stroke="#000000" stroke-width="0.398" fill="none" /><path id="1281" transform="matrix(1 0 0 -1 0 792)" d="M476.888 370.94L476.888 384.507" stroke="#000000" stroke-width="0.398" fill="none" /><path id="1282" transform="matrix(1 0 0 -1 0 792)" d="M97.702 370.741L477.088 370.741" stroke="#000000" stroke-width="0.398" fill="none" /><path id="1283" transform="matrix(1 0 0 -1 0 792)" d="M97.901 356.975L97.901 370.542" stroke="#000000" stroke-width="0.398" fill="none" /><path id="1287" transform="matrix(1 0 0 -1 0 792)" d="M122.608 361.256L125.597 361.256" stroke="#000000" stroke-width="0.398" fill="none" /><path id="1293" transform="matrix(1 0 0 -1 0 792)" d="M290.255 356.975L290.255 370.542" stroke="#000000" stroke-width="0.398" fill="none" /><path id="1295" transform="matrix(1 0 0 -1 0 792)" d="M349.277 356.975L349.277 370.542" stroke="#000000" stroke-width="0.398" fill="none" /><path id="1297" transform="matrix(1 0 0 -1 0 792)" d="M408.299 356.975L408.299 370.542" stroke="#000000" stroke-width="0.398" fill="none" /><path id="1299" transform="matrix(1 0 0 -1 0 792)" d="M476.888 356.975L476.888 370.542" stroke="#000000" stroke-width="0.398" fill="none" /><path id="1300" transform="matrix(1 0 0 -1 0 792)" d="M97.702 356.776L477.088 356.776" stroke="#000000" stroke-width="0.398" fill="none" /><path id="1301" transform="matrix(1 0 0 -1 0 792)" d="M97.901 343.01L97.901 356.577" stroke="#000000" stroke-width="0.398" fill="none" /><path id="1305" transform="matrix(1 0 0 -1 0 792)" d="M122.608 347.291L125.597 347.291" stroke="#000000" stroke-width="0.398" fill="none" /><path id="1313" transform="matrix(1 0 0 -1 0 792)" d="M290.255 343.01L290.255 356.577" stroke="#000000" stroke-width="0.398" fill="none" /><path id="1315" transform="matrix(1 0 0 -1 0 792)" d="M349.277 343.01L349.277 356.577" stroke="#000000" stroke-width="0.398" fill="none" /><path id="1317" transform="matrix(1 0 0 -1 0 792)" d="M408.299 343.01L408.299 356.577" stroke="#000000" stroke-width="0.398" fill="none" /><path id="1319" transform="matrix(1 0 0 -1 0 792)" d="M476.888 343.01L476.888 356.577" stroke="#000000" stroke-width="0.398" fill="none" /><path id="1320" transform="matrix(1 0 0 -1 0 792)" d="M97.702 342.811L477.088 342.811" stroke="#000000" stroke-width="0.398" fill="none" /><path id="1321" transform="matrix(1 0 0 -1 0 792)" d="M97.901 329.045L97.901 342.612" stroke="#000000" stroke-width="0.398" fill="none" /><path id="1327" transform="matrix(1 0 0 -1 0 792)" d="M134.564 333.326L137.553 333.326" stroke="#000000" stroke-width="0.398" fill="none" /><path id="1333" transform="matrix(1 0 0 -1 0 792)" d="M290.255 329.045L290.255 342.612" stroke="#000000" stroke-width="0.398" fill="none" /><path id="1335" transform="matrix(1 0 0 -1 0 792)" d="M349.277 329.045L349.277 342.612" stroke="#000000" stroke-width="0.398" fill="none" /><path id="1337" transform="matrix(1 0 0 -1 0 792)" d="M408.299 329.045L408.299 342.612" stroke="#000000" stroke-width="0.398" fill="none" /><path id="1339" transform="matrix(1 0 0 -1 0 792)" d="M476.888 329.045L476.888 342.612" stroke="#000000" stroke-width="0.398" fill="none" /><path id="1340" transform="matrix(1 0 0 -1 0 792)" d="M97.702 328.845L477.088 328.845" stroke="#000000" stroke-width="0.398" fill="none" /><path id="1341" transform="matrix(1 0 0 -1 0 792)" d="M97.901 315.079L97.901 328.646" stroke="#000000" stroke-width="0.398" fill="none" /><path id="1347" transform="matrix(1 0 0 -1 0 792)" d="M134.564 319.361L137.553 319.361" stroke="#000000" stroke-width="0.398" fill="none" /><path id="1354" transform="matrix(1 0 0 -1 0 792)" d="M290.255 315.079L290.255 328.646" stroke="#000000" stroke-width="0.398" fill="none" /><path id="1356" transform="matrix(1 0 0 -1 0 792)" d="M349.277 315.079L349.277 328.646" stroke="#000000" stroke-width="0.398" fill="none" /><path id="1358" transform="matrix(1 0 0 -1 0 792)" d="M408.299 315.079L408.299 328.646" stroke="#000000" stroke-width="0.398" fill="none" /><path id="1360" transform="matrix(1 0 0 -1 0 792)" d="M476.888 315.079L476.888 328.646" stroke="#000000" stroke-width="0.398" fill="none" /><path id="1361" transform="matrix(1 0 0 -1 0 792)" d="M97.702 314.88L477.088 314.88" stroke="#000000" stroke-width="0.398" fill="none" /><path id="1362" transform="matrix(1 0 0 -1 0 792)" d="M97.901 301.114L97.901 314.681" stroke="#000000" stroke-width="0.398" fill="none" /><path id="1366" transform="matrix(1 0 0 -1 0 792)" d="M122.608 305.396L125.597 305.396" stroke="#000000" stroke-width="0.398" fill="none" /><path id="1372" transform="matrix(1 0 0 -1 0 792)" d="M290.255 301.114L290.255 314.681" stroke="#000000" stroke-width="0.398" fill="none" /><path id="1374" transform="matrix(1 0 0 -1 0 792)" d="M349.277 301.114L349.277 314.681" stroke="#000000" stroke-width="0.398" fill="none" /><path id="1376" transform="matrix(1 0 0 -1 0 792)" d="M408.299 301.114L408.299 314.681" stroke="#000000" stroke-width="0.398" fill="none" /><path id="1378" transform="matrix(1 0 0 -1 0 792)" d="M476.888 301.114L476.888 314.681" stroke="#000000" stroke-width="0.398" fill="none" /><path id="1379" transform="matrix(1 0 0 -1 0 792)" d="M97.702 300.915L477.088 300.915" stroke="#000000" stroke-width="0.398" fill="none" /><path id="1380" transform="matrix(1 0 0 -1 0 792)" d="M97.901 287.149L97.901 300.716" stroke="#000000" stroke-width="0.398" fill="none" /><path id="1386" transform="matrix(1 0 0 -1 0 792)" d="M134.564 291.431L137.553 291.431" stroke="#000000" stroke-width="0.398" fill="none" /><path id="1392" transform="matrix(1 0 0 -1 0 792)" d="M290.255 287.149L290.255 300.716" stroke="#000000" stroke-width="0.398" fill="none" /><path id="1394" transform="matrix(1 0 0 -1 0 792)" d="M349.277 287.149L349.277 300.716" stroke="#000000" stroke-width="0.398" fill="none" /><path id="1396" transform="matrix(1 0 0 -1 0 792)" d="M408.299 287.149L408.299 300.716" stroke="#000000" stroke-width="0.398" fill="none" /><path id="1398" transform="matrix(1 0 0 -1 0 792)" d="M476.888 287.149L476.888 300.716" stroke="#000000" stroke-width="0.398" fill="none" /><path id="1399" transform="matrix(1 0 0 -1 0 792)" d="M97.702 286.95L477.088 286.95" stroke="#000000" stroke-width="0.398" fill="none" /><path id="1400" transform="matrix(1 0 0 -1 0 792)" d="M97.901 273.184L97.901 286.751" stroke="#000000" stroke-width="0.398" fill="none" /><path id="1405" transform="matrix(1 0 0 -1 0 792)" d="M128.586 277.466L131.575 277.466" stroke="#000000" stroke-width="0.398" fill="none" /><path id="1411" transform="matrix(1 0 0 -1 0 792)" d="M290.255 273.184L290.255 286.751" stroke="#000000" stroke-width="0.398" fill="none" /><path id="1413" transform="matrix(1 0 0 -1 0 792)" d="M349.277 273.184L349.277 286.751" stroke="#000000" stroke-width="0.398" fill="none" /><path id="1415" transform="matrix(1 0 0 -1 0 792)" d="M408.299 273.184L408.299 286.751" stroke="#000000" stroke-width="0.398" fill="none" /><path id="1417" transform="matrix(1 0 0 -1 0 792)" d="M476.888 273.184L476.888 286.751" stroke="#000000" stroke-width="0.398" fill="none" /><path id="1418" transform="matrix(1 0 0 -1 0 792)" d="M97.702 272.985L477.088 272.985" stroke="#000000" stroke-width="0.398" fill="none" /><path id="1419" transform="matrix(1 0 0 -1 0 792)" d="M97.901 259.219L97.901 272.786" stroke="#000000" stroke-width="0.398" fill="none" /><path id="1425" transform="matrix(1 0 0 -1 0 792)" d="M134.564 263.5L137.553 263.5" stroke="#000000" stroke-width="0.398" fill="none" /><path id="1431" transform="matrix(1 0 0 -1 0 792)" d="M290.255 259.219L290.255 272.786" stroke="#000000" stroke-width="0.398" fill="none" /><path id="1433" transform="matrix(1 0 0 -1 0 792)" d="M349.277 259.219L349.277 272.786" stroke="#000000" stroke-width="0.398" fill="none" /><path id="1435" transform="matrix(1 0 0 -1 0 792)" d="M408.299 259.219L408.299 272.786" stroke="#000000" stroke-width="0.398" fill="none" /><path id="1437" transform="matrix(1 0 0 -1 0 792)" d="M476.888 259.219L476.888 272.786" stroke="#000000" stroke-width="0.398" fill="none" /><path id="1438" transform="matrix(1 0 0 -1 0 792)" d="M97.702 259.02L477.088 259.02" stroke="#000000" stroke-width="0.398" fill="none" /><path id="1439" transform="matrix(1 0 0 -1 0 792)" d="M97.901 245.254L97.901 258.821" stroke="#000000" stroke-width="0.398" fill="none" /><path id="1445" transform="matrix(1 0 0 -1 0 792)" d="M134.564 249.535L137.553 249.535" stroke="#000000" stroke-width="0.398" fill="none" /><path id="1451" transform="matrix(1 0 0 -1 0 792)" d="M290.255 245.254L290.255 258.821" stroke="#000000" stroke-width="0.398" fill="none" /><path id="1453" transform="matrix(1 0 0 -1 0 792)" d="M349.277 245.254L349.277 258.821" stroke="#000000" stroke-width="0.398" fill="none" /><path id="1455" transform="matrix(1 0 0 -1 0 792)" d="M408.299 245.254L408.299 258.821" stroke="#000000" stroke-width="0.398" fill="none" /><path id="1457" transform="matrix(1 0 0 -1 0 792)" d="M476.888 245.254L476.888 258.821" stroke="#000000" stroke-width="0.398" fill="none" /><path id="1458" transform="matrix(1 0 0 -1 0 792)" d="M97.702 245.054L477.088 245.054" stroke="#000000" stroke-width="0.398" fill="none" /><path id="1459" transform="matrix(1 0 0 -1 0 792)" d="M97.901 231.289L97.901 244.856" stroke="#000000" stroke-width="0.398" fill="none" /><path id="1463" transform="matrix(1 0 0 -1 0 792)" d="M122.608 235.57L125.597 235.57" stroke="#000000" stroke-width="0.398" fill="none" /><path id="1468" transform="matrix(1 0 0 -1 0 792)" d="M290.255 231.289L290.255 244.856" stroke="#000000" stroke-width="0.398" fill="none" /><path id="1470" transform="matrix(1 0 0 -1 0 792)" d="M349.277 231.289L349.277 244.856" stroke="#000000" stroke-width="0.398" fill="none" /><path id="1472" transform="matrix(1 0 0 -1 0 792)" d="M408.299 231.289L408.299 244.856" stroke="#000000" stroke-width="0.398" fill="none" /><path id="1474" transform="matrix(1 0 0 -1 0 792)" d="M476.888 231.289L476.888 244.856" stroke="#000000" stroke-width="0.398" fill="none" /><path id="1475" transform="matrix(1 0 0 -1 0 792)" d="M97.702 231.089L477.088 231.089" stroke="#000000" stroke-width="0.398" fill="none" /><path id="1476" transform="matrix(1 0 0 -1 0 792)" d="M97.901 217.323L97.901 230.89" stroke="#000000" stroke-width="0.398" fill="none" /><path id="1482" transform="matrix(1 0 0 -1 0 792)" d="M134.564 221.605L137.553 221.605" stroke="#000000" stroke-width="0.398" fill="none" /><path id="1487" transform="matrix(1 0 0 -1 0 792)" d="M290.255 217.323L290.255 230.89" stroke="#000000" stroke-width="0.398" fill="none" /><path id="1489" transform="matrix(1 0 0 -1 0 792)" d="M349.277 217.323L349.277 230.89" stroke="#000000" stroke-width="0.398" fill="none" /><path id="1491" transform="matrix(1 0 0 -1 0 792)" d="M408.299 217.323L408.299 230.89" stroke="#000000" stroke-width="0.398" fill="none" /><path id="1493" transform="matrix(1 0 0 -1 0 792)" d="M476.888 217.323L476.888 230.89" stroke="#000000" stroke-width="0.398" fill="none" /><path id="1494" transform="matrix(1 0 0 -1 0 792)" d="M97.702 217.124L477.088 217.124" stroke="#000000" stroke-width="0.398" fill="none" /><path id="1495" transform="matrix(1 0 0 -1 0 792)" d="M97.901 203.358L97.901 216.925" stroke="#000000" stroke-width="0.398" fill="none" /><path id="1500" transform="matrix(1 0 0 -1 0 792)" d="M128.586 207.64L131.575 207.64" stroke="#000000" stroke-width="0.398" fill="none" /><path id="1505" transform="matrix(1 0 0 -1 0 792)" d="M290.255 203.358L290.255 216.925" stroke="#000000" stroke-width="0.398" fill="none" /><path id="1507" transform="matrix(1 0 0 -1 0 792)" d="M349.277 203.358L349.277 216.925" stroke="#000000" stroke-width="0.398" fill="none" /><path id="1509" transform="matrix(1 0 0 -1 0 792)" d="M408.299 203.358L408.299 216.925" stroke="#000000" stroke-width="0.398" fill="none" /><path id="1511" transform="matrix(1 0 0 -1 0 792)" d="M476.888 203.358L476.888 216.925" stroke="#000000" stroke-width="0.398" fill="none" /><path id="1512" transform="matrix(1 0 0 -1 0 792)" d="M97.702 203.159L477.088 203.159" stroke="#000000" stroke-width="0.398" fill="none" /><path id="1513" transform="matrix(1 0 0 -1 0 792)" d="M97.901 189.393L97.901 202.96" stroke="#000000" stroke-width="0.398" fill="none" /><path id="1519" transform="matrix(1 0 0 -1 0 792)" d="M134.564 193.675L137.553 193.675" stroke="#000000" stroke-width="0.398" fill="none" /><path id="1524" transform="matrix(1 0 0 -1 0 792)" d="M290.255 189.393L290.255 202.96" stroke="#000000" stroke-width="0.398" fill="none" /><path id="1526" transform="matrix(1 0 0 -1 0 792)" d="M349.277 189.393L349.277 202.96" stroke="#000000" stroke-width="0.398" fill="none" /><path id="1528" transform="matrix(1 0 0 -1 0 792)" d="M408.299 189.393L408.299 202.96" stroke="#000000" stroke-width="0.398" fill="none" /><path id="1530" transform="matrix(1 0 0 -1 0 792)" d="M476.888 189.393L476.888 202.96" stroke="#000000" stroke-width="0.398" fill="none" /><path id="1531" transform="matrix(1 0 0 -1 0 792)" d="M97.702 189.194L477.088 189.194" stroke="#000000" stroke-width="0.398" fill="none" /><path id="1532" transform="matrix(1 0 0 -1 0 792)" d="M97.901 175.428L97.901 188.995" stroke="#000000" stroke-width="0.398" fill="none" /><path id="1538" transform="matrix(1 0 0 -1 0 792)" d="M134.564 179.709L137.553 179.709" stroke="#000000" stroke-width="0.398" fill="none" /><path id="1543" transform="matrix(1 0 0 -1 0 792)" d="M290.255 175.428L290.255 188.995" stroke="#000000" stroke-width="0.398" fill="none" /><path id="1545" transform="matrix(1 0 0 -1 0 792)" d="M349.277 175.428L349.277 188.995" stroke="#000000" stroke-width="0.398" fill="none" /><path id="1547" transform="matrix(1 0 0 -1 0 792)" d="M408.299 175.428L408.299 188.995" stroke="#000000" stroke-width="0.398" fill="none" /><path id="1549" transform="matrix(1 0 0 -1 0 792)" d="M476.888 175.428L476.888 188.995" stroke="#000000" stroke-width="0.398" fill="none" /><path id="1550" transform="matrix(1 0 0 -1 0 792)" d="M97.702 175.229L477.088 175.229" stroke="#000000" stroke-width="0.398" fill="none" /></g></g></svg>