<svg xmlns="http://www.w3.org/2000/svg" xmlns:xlink="http://www.w3.org/1999/xlink" id="body_67" preserveAspectRatio="xMinYMin meet" viewBox="0 0 1632 1056"><defs><clipPath id="1"><path id="" clip-rule="evenodd" transform="matrix(1 0 0 1 0 0)" d="M0 792L0 0L0 0L1224 0L1224 0L1224 792L1224 792L0 792z" /></clipPath></defs><g transform="matrix(1.333333 0 0 1.333333 0 0)"><g clip-path="url(#1)"><path id="1" transform="matrix(1 0 0 -1 0 792)" d="M701.933 721.28L1168.588 721.28" stroke="#000000" stroke-width="0.498" fill="none" /><path id="2" transform="matrix(1 0 0 -1 0 792)" d="M765.204 694.576L1105.317 694.576" stroke="#000000" stroke-width="0.398" fill="none" /><path id="3" transform="matrix(1 0 0 -1 0 792)" d="M765.403 680.81L765.403 694.377" stroke="#000000" stroke-width="0.398" fill="none" /><path id="4" transform="matrix(1 0 0 -1 0 792)" d="M765.602 680.81L957.557 680.81L957.557 694.377L765.602 694.377z" stroke="none" fill="#CCCCEB" fill-rule="nonzero" /><path id="10" transform="matrix(1 0 0 -1 0 792)" d="M957.756 680.81L957.756 694.377" stroke="#000000" stroke-width="0.398" fill="none" /><path id="11" transform="matrix(1 0 0 -1 0 792)" d="M957.956 680.81L1016.58 680.81L1016.58 694.377L957.956 694.377z" stroke="none" fill="#CCCCEB" fill-rule="nonzero" /><path id="21" transform="matrix(1 0 0 -1 0 792)" d="M1016.778 680.81L1016.778 694.377" stroke="#000000" stroke-width="0.398" fill="none" /><path id="22" transform="matrix(1 0 0 -1 0 792)" d="M1016.978 680.81L1075.602 680.81L1075.602 694.377L1016.978 694.377z" stroke="none" fill="#CCCCEB" fill-rule="nonzero" /><path id="30" transform="matrix(1 0 0 -1 0 792)" d="M1075.801 680.81L1075.801 694.377" stroke="#000000" stroke-width="0.398" fill="none" /><path id="31" transform="matrix(1 0 0 -1 0 792)" d="M1076 680.81L1104.919 680.81L1104.919 694.377L1076 694.377z" stroke="none" fill="#CCCCEB" fill-rule="nonzero" /><path id="35" transform="matrix(1 0 0 -1 0 792)" d="M1105.118 680.81L1105.118 694.377" stroke="#000000" stroke-width="0.398" fill="none" /><path id="36" transform="matrix(1 0 0 -1 0 792)" d="M765.403 667.244L765.403 680.811" stroke="#000000" stroke-width="0.398" fill="none" /><path id="37" transform="matrix(1 0 0 -1 0 792)" d="M765.602 667.244L957.557 667.244L957.557 680.811L765.602 680.811z" stroke="none" fill="#CCCCEB" fill-rule="nonzero" /><path id="38" transform="matrix(1 0 0 -1 0 792)" d="M957.756 667.244L957.756 680.811" stroke="#000000" stroke-width="0.398" fill="none" /><path id="39" transform="matrix(1 0 0 -1 0 792)" d="M957.956 667.244L1016.58 667.244L1016.58 680.811L957.956 680.811z" stroke="none" fill="#CCCCEB" fill-rule="nonzero" /><path id="40" transform="matrix(1 0 0 -1 0 792)" d="M1016.778 667.244L1016.778 680.811" stroke="#000000" stroke-width="0.398" fill="none" /><path id="41" transform="matrix(1 0 0 -1 0 792)" d="M1016.978 667.244L1075.602 667.244L1075.602 680.811L1016.978 680.811z" stroke="none" fill="#CCCCEB" fill-rule="nonzero" /><path id="47" transform="matrix(1 0 0 -1 0 792)" d="M1075.801 667.244L1075.801 680.811" stroke="#000000" stroke-width="0.398" fill="none" /><path id="48" transform="matrix(1 0 0 -1 0 792)" d="M1076 667.244L1104.919 667.244L1104.919 680.811L1076 680.811z" stroke="none" fill="#CCCCEB" fill-rule="nonzero" /><path id="49" transform="matrix(1 0 0 -1 0 792)" d="M1105.118 667.244L1105.118 680.811" stroke="#000000" stroke-width="0.398" fill="none" /><path id="50" transform="matrix(1 0 0 -1 0 792)" d="M765.204 667.044L1105.317 667.044" stroke="#000000" stroke-width="0.398" fill="none" /><path id="51" transform="matrix(1 0 0 -1 0 792)" d="M765.204 664.653L1105.317 664.653" stroke="#000000" stroke-width="0.398" fill="none" /><path id="52" transform="matrix(1 0 0 -1 0 792)" d="M765.403 650.887L765.403 664.454" stroke="#000000" stroke-width="0.398" fill="none" /><path id="59" transform="matrix(1 0 0 -1 0 792)" d="M957.756 650.887L957.756 664.454" stroke="#000000" stroke-width="0.398" fill="none" /><path id="61" transform="matrix(1 0 0 -1 0 792)" d="M1016.778 650.887L1016.778 664.454" stroke="#000000" stroke-width="0.398" fill="none" /><path id="63" transform="matrix(1 0 0 -1 0 792)" d="M1075.801 650.887L1075.801 664.454" stroke="#000000" stroke-width="0.398" fill="none" /><path id="65" transform="matrix(1 0 0 -1 0 792)" d="M1105.118 650.887L1105.118 664.454" stroke="#000000" stroke-width="0.398" fill="none" /><path id="66" transform="matrix(1 0 0 -1 0 792)" d="M765.204 650.688L1105.317 650.688" stroke="#000000" stroke-width="0.398" fill="none" /><path id="67" transform="matrix(1 0 0 -1 0 792)" d="M765.403 636.922L765.403 650.489" stroke="#000000" stroke-width="0.398" fill="none" /><path id="74" transform="matrix(1 0 0 -1 0 792)" d="M808.043 641.204L811.032 641.204" stroke="#000000" stroke-width="0.398" fill="none" /><path id="81" transform="matrix(1 0 0 -1 0 792)" d="M957.756 636.922L957.756 650.489" stroke="#000000" stroke-width="0.398" fill="none" /><path id="83" transform="matrix(1 0 0 -1 0 792)" d="M1016.778 636.922L1016.778 650.489" stroke="#000000" stroke-width="0.398" fill="none" /><path id="85" transform="matrix(1 0 0 -1 0 792)" d="M1075.801 636.922L1075.801 650.489" stroke="#000000" stroke-width="0.398" fill="none" /><path id="87" transform="matrix(1 0 0 -1 0 792)" d="M1105.118 636.922L1105.118 650.489" stroke="#000000" stroke-width="0.398" fill="none" /><path id="88" transform="matrix(1 0 0 -1 0 792)" d="M765.204 636.723L1105.317 636.723" stroke="#000000" stroke-width="0.398" fill="none" /><path id="89" transform="matrix(1 0 0 -1 0 792)" d="M765.403 622.957L765.403 636.524" stroke="#000000" stroke-width="0.398" fill="none" /><path id="96" transform="matrix(1 0 0 -1 0 792)" d="M808.043 627.239L811.032 627.239" stroke="#000000" stroke-width="0.398" fill="none" /><path id="101" transform="matrix(1 0 0 -1 0 792)" d="M957.756 622.957L957.756 636.524" stroke="#000000" stroke-width="0.398" fill="none" /><path id="103" transform="matrix(1 0 0 -1 0 792)" d="M1016.778 622.957L1016.778 636.524" stroke="#000000" stroke-width="0.398" fill="none" /><path id="105" transform="matrix(1 0 0 -1 0 792)" d="M1075.801 622.957L1075.801 636.524" stroke="#000000" stroke-width="0.398" fill="none" /><path id="107" transform="matrix(1 0 0 -1 0 792)" d="M1105.118 622.957L1105.118 636.524" stroke="#000000" stroke-width="0.398" fill="none" /><path id="108" transform="matrix(1 0 0 -1 0 792)" d="M765.204 622.758L1105.317 622.758" stroke="#000000" stroke-width="0.398" fill="none" /><path id="109" transform="matrix(1 0 0 -1 0 792)" d="M765.403 608.992L765.403 622.559" stroke="#000000" stroke-width="0.398" fill="none" /><path id="114" transform="matrix(1 0 0 -1 0 792)" d="M796.088 613.274L799.077 613.274" stroke="#000000" stroke-width="0.398" fill="none" /><path id="116" transform="matrix(1 0 0 -1 0 792)" d="M957.756 608.992L957.756 622.559" stroke="#000000" stroke-width="0.398" fill="none" /><path id="118" transform="matrix(1 0 0 -1 0 792)" d="M1016.778 608.992L1016.778 622.559" stroke="#000000" stroke-width="0.398" fill="none" /><path id="120" transform="matrix(1 0 0 -1 0 792)" d="M1075.801 608.992L1075.801 622.559" stroke="#000000" stroke-width="0.398" fill="none" /><path id="122" transform="matrix(1 0 0 -1 0 792)" d="M1105.118 608.992L1105.118 622.559" stroke="#000000" stroke-width="0.398" fill="none" /><path id="123" transform="matrix(1 0 0 -1 0 792)" d="M765.204 608.793L1105.317 608.793" stroke="#000000" stroke-width="0.398" fill="none" /><path id="124" transform="matrix(1 0 0 -1 0 792)" d="M765.403 595.027L765.403 608.594" stroke="#000000" stroke-width="0.398" fill="none" /><path id="129" transform="matrix(1 0 0 -1 0 792)" d="M796.088 599.308L799.077 599.308" stroke="#000000" stroke-width="0.398" fill="none" /><path id="131" transform="matrix(1 0 0 -1 0 792)" d="M957.756 595.027L957.756 608.594" stroke="#000000" stroke-width="0.398" fill="none" /><path id="133" transform="matrix(1 0 0 -1 0 792)" d="M1016.778 595.027L1016.778 608.594" stroke="#000000" stroke-width="0.398" fill="none" /><path id="135" transform="matrix(1 0 0 -1 0 792)" d="M1075.801 595.027L1075.801 608.594" stroke="#000000" stroke-width="0.398" fill="none" /><path id="137" transform="matrix(1 0 0 -1 0 792)" d="M1105.118 595.027L1105.118 608.594" stroke="#000000" stroke-width="0.398" fill="none" /><path id="138" transform="matrix(1 0 0 -1 0 792)" d="M765.204 594.828L1105.317 594.828" stroke="#000000" stroke-width="0.398" fill="none" /><path id="139" transform="matrix(1 0 0 -1 0 792)" d="M765.403 581.062L765.403 594.629" stroke="#000000" stroke-width="0.398" fill="none" /><path id="145" transform="matrix(1 0 0 -1 0 792)" d="M802.065 585.343L805.054 585.343" stroke="#000000" stroke-width="0.398" fill="none" /><path id="149" transform="matrix(1 0 0 -1 0 792)" d="M823.585 585.343L826.574 585.343" stroke="#000000" stroke-width="0.398" fill="none" /><path id="151" transform="matrix(1 0 0 -1 0 792)" d="M833.149 585.343L836.138 585.343" stroke="#000000" stroke-width="0.398" fill="none" /><path id="154" transform="matrix(1 0 0 -1 0 792)" d="M848.69 585.343L851.679 585.343" stroke="#000000" stroke-width="0.398" fill="none" /><path id="156" transform="matrix(1 0 0 -1 0 792)" d="M957.756 581.062L957.756 594.629" stroke="#000000" stroke-width="0.398" fill="none" /><path id="158" transform="matrix(1 0 0 -1 0 792)" d="M1016.778 581.062L1016.778 594.629" stroke="#000000" stroke-width="0.398" fill="none" /><path id="160" transform="matrix(1 0 0 -1 0 792)" d="M1075.801 581.062L1075.801 594.629" stroke="#000000" stroke-width="0.398" fill="none" /><path id="162" transform="matrix(1 0 0 -1 0 792)" d="M1105.118 581.062L1105.118 594.629" stroke="#000000" stroke-width="0.398" fill="none" /><path id="163" transform="matrix(1 0 0 -1 0 792)" d="M765.204 580.863L1105.317 580.863" stroke="#000000" stroke-width="0.398" fill="none" /><path id="164" transform="matrix(1 0 0 -1 0 792)" d="M765.403 567.097L765.403 580.664" stroke="#000000" stroke-width="0.398" fill="none" /><path id="170" transform="matrix(1 0 0 -1 0 792)" d="M802.065 571.378L805.054 571.378" stroke="#000000" stroke-width="0.398" fill="none" /><path id="174" transform="matrix(1 0 0 -1 0 792)" d="M823.585 571.378L826.574 571.378" stroke="#000000" stroke-width="0.398" fill="none" /><path id="176" transform="matrix(1 0 0 -1 0 792)" d="M833.149 571.378L836.138 571.378" stroke="#000000" stroke-width="0.398" fill="none" /><path id="179" transform="matrix(1 0 0 -1 0 792)" d="M848.69 571.378L851.679 571.378" stroke="#000000" stroke-width="0.398" fill="none" /><path id="181" transform="matrix(1 0 0 -1 0 792)" d="M957.756 567.097L957.756 580.664" stroke="#000000" stroke-width="0.398" fill="none" /><path id="183" transform="matrix(1 0 0 -1 0 792)" d="M1016.778 567.097L1016.778 580.664" stroke="#000000" stroke-width="0.398" fill="none" /><path id="185" transform="matrix(1 0 0 -1 0 792)" d="M1075.801 567.097L1075.801 580.664" stroke="#000000" stroke-width="0.398" fill="none" /><path id="187" transform="matrix(1 0 0 -1 0 792)" d="M1105.118 567.097L1105.118 580.664" stroke="#000000" stroke-width="0.398" fill="none" /><path id="188" transform="matrix(1 0 0 -1 0 792)" d="M765.204 566.897L1105.317 566.897" stroke="#000000" stroke-width="0.398" fill="none" /><path id="189" transform="matrix(1 0 0 -1 0 792)" d="M765.403 553.131L765.403 566.698" stroke="#000000" stroke-width="0.398" fill="none" /><path id="195" transform="matrix(1 0 0 -1 0 792)" d="M802.065 557.413L805.054 557.413" stroke="#000000" stroke-width="0.398" fill="none" /><path id="199" transform="matrix(1 0 0 -1 0 792)" d="M823.585 557.413L826.574 557.413" stroke="#000000" stroke-width="0.398" fill="none" /><path id="201" transform="matrix(1 0 0 -1 0 792)" d="M833.149 557.413L836.138 557.413" stroke="#000000" stroke-width="0.398" fill="none" /><path id="204" transform="matrix(1 0 0 -1 0 792)" d="M848.69 557.413L851.679 557.413" stroke="#000000" stroke-width="0.398" fill="none" /><path id="211" transform="matrix(1 0 0 -1 0 792)" d="M957.756 553.131L957.756 566.698" stroke="#000000" stroke-width="0.398" fill="none" /><path id="213" transform="matrix(1 0 0 -1 0 792)" d="M1016.778 553.131L1016.778 566.698" stroke="#000000" stroke-width="0.398" fill="none" /><path id="215" transform="matrix(1 0 0 -1 0 792)" d="M1075.801 553.131L1075.801 566.698" stroke="#000000" stroke-width="0.398" fill="none" /><path id="217" transform="matrix(1 0 0 -1 0 792)" d="M1105.118 553.131L1105.118 566.698" stroke="#000000" stroke-width="0.398" fill="none" /><path id="218" transform="matrix(1 0 0 -1 0 792)" d="M765.204 552.932L1105.317 552.932" stroke="#000000" stroke-width="0.398" fill="none" /><path id="219" transform="matrix(1 0 0 -1 0 792)" d="M765.403 539.166L765.403 552.733" stroke="#000000" stroke-width="0.398" fill="none" /><path id="225" transform="matrix(1 0 0 -1 0 792)" d="M802.065 543.448L805.054 543.448" stroke="#000000" stroke-width="0.398" fill="none" /><path id="229" transform="matrix(1 0 0 -1 0 792)" d="M823.585 543.448L826.574 543.448" stroke="#000000" stroke-width="0.398" fill="none" /><path id="231" transform="matrix(1 0 0 -1 0 792)" d="M833.149 543.448L836.138 543.448" stroke="#000000" stroke-width="0.398" fill="none" /><path id="234" transform="matrix(1 0 0 -1 0 792)" d="M848.69 543.448L851.679 543.448" stroke="#000000" stroke-width="0.398" fill="none" /><path id="236" transform="matrix(1 0 0 -1 0 792)" d="M957.756 539.166L957.756 552.733" stroke="#000000" stroke-width="0.398" fill="none" /><path id="238" transform="matrix(1 0 0 -1 0 792)" d="M1016.778 539.166L1016.778 552.733" stroke="#000000" stroke-width="0.398" fill="none" /><path id="240" transform="matrix(1 0 0 -1 0 792)" d="M1075.801 539.166L1075.801 552.733" stroke="#000000" stroke-width="0.398" fill="none" /><path id="242" transform="matrix(1 0 0 -1 0 792)" d="M1105.118 539.166L1105.118 552.733" stroke="#000000" stroke-width="0.398" fill="none" /><path id="243" transform="matrix(1 0 0 -1 0 792)" d="M765.204 538.967L1105.317 538.967" stroke="#000000" stroke-width="0.398" fill="none" /><path id="244" transform="matrix(1 0 0 -1 0 792)" d="M765.403 525.201L765.403 538.768" stroke="#000000" stroke-width="0.398" fill="none" /><path id="250" transform="matrix(1 0 0 -1 0 792)" d="M802.065 529.483L805.054 529.483" stroke="#000000" stroke-width="0.398" fill="none" /><path id="254" transform="matrix(1 0 0 -1 0 792)" d="M823.585 529.483L826.574 529.483" stroke="#000000" stroke-width="0.398" fill="none" /><path id="256" transform="matrix(1 0 0 -1 0 792)" d="M833.149 529.483L836.138 529.483" stroke="#000000" stroke-width="0.398" fill="none" /><path id="259" transform="matrix(1 0 0 -1 0 792)" d="M848.69 529.483L851.679 529.483" stroke="#000000" stroke-width="0.398" fill="none" /><path id="261" transform="matrix(1 0 0 -1 0 792)" d="M957.756 525.201L957.756 538.768" stroke="#000000" stroke-width="0.398" fill="none" /><path id="263" transform="matrix(1 0 0 -1 0 792)" d="M1016.778 525.201L1016.778 538.768" stroke="#000000" stroke-width="0.398" fill="none" /><path id="265" transform="matrix(1 0 0 -1 0 792)" d="M1075.801 525.201L1075.801 538.768" stroke="#000000" stroke-width="0.398" fill="none" /><path id="267" transform="matrix(1 0 0 -1 0 792)" d="M1105.118 525.201L1105.118 538.768" stroke="#000000" stroke-width="0.398" fill="none" /><path id="268" transform="matrix(1 0 0 -1 0 792)" d="M765.204 525.002L1105.317 525.002" stroke="#000000" stroke-width="0.398" fill="none" /><path id="269" transform="matrix(1 0 0 -1 0 792)" d="M765.403 511.236L765.403 524.803" stroke="#000000" stroke-width="0.398" fill="none" /><path id="275" transform="matrix(1 0 0 -1 0 792)" d="M802.065 515.518L805.054 515.518" stroke="#000000" stroke-width="0.398" fill="none" /><path id="279" transform="matrix(1 0 0 -1 0 792)" d="M823.585 515.518L826.574 515.518" stroke="#000000" stroke-width="0.398" fill="none" /><path id="281" transform="matrix(1 0 0 -1 0 792)" d="M833.149 515.518L836.138 515.518" stroke="#000000" stroke-width="0.398" fill="none" /><path id="284" transform="matrix(1 0 0 -1 0 792)" d="M848.69 515.518L851.679 515.518" stroke="#000000" stroke-width="0.398" fill="none" /><path id="286" transform="matrix(1 0 0 -1 0 792)" d="M957.756 511.236L957.756 524.803" stroke="#000000" stroke-width="0.398" fill="none" /><path id="288" transform="matrix(1 0 0 -1 0 792)" d="M1016.778 511.236L1016.778 524.803" stroke="#000000" stroke-width="0.398" fill="none" /><path id="290" transform="matrix(1 0 0 -1 0 792)" d="M1075.801 511.236L1075.801 524.803" stroke="#000000" stroke-width="0.398" fill="none" /><path id="292" transform="matrix(1 0 0 -1 0 792)" d="M1105.118 511.236L1105.118 524.803" stroke="#000000" stroke-width="0.398" fill="none" /><path id="293" transform="matrix(1 0 0 -1 0 792)" d="M765.204 511.037L1105.317 511.037" stroke="#000000" stroke-width="0.398" fill="none" /><path id="294" transform="matrix(1 0 0 -1 0 792)" d="M765.403 497.271L765.403 510.838" stroke="#000000" stroke-width="0.398" fill="none" /><path id="300" transform="matrix(1 0 0 -1 0 792)" d="M802.065 501.552L805.054 501.552" stroke="#000000" stroke-width="0.398" fill="none" /><path id="304" transform="matrix(1 0 0 -1 0 792)" d="M823.585 501.552L826.574 501.552" stroke="#000000" stroke-width="0.398" fill="none" /><path id="306" transform="matrix(1 0 0 -1 0 792)" d="M833.149 501.552L836.138 501.552" stroke="#000000" stroke-width="0.398" fill="none" /><path id="309" transform="matrix(1 0 0 -1 0 792)" d="M848.69 501.552L851.679 501.552" stroke="#000000" stroke-width="0.398" fill="none" /><path id="311" transform="matrix(1 0 0 -1 0 792)" d="M957.756 497.271L957.756 510.838" stroke="#000000" stroke-width="0.398" fill="none" /><path id="313" transform="matrix(1 0 0 -1 0 792)" d="M1016.778 497.271L1016.778 510.838" stroke="#000000" stroke-width="0.398" fill="none" /><path id="315" transform="matrix(1 0 0 -1 0 792)" d="M1075.801 497.271L1075.801 510.838" stroke="#000000" stroke-width="0.398" fill="none" /><path id="317" transform="matrix(1 0 0 -1 0 792)" d="M1105.118 497.271L1105.118 510.838" stroke="#000000" stroke-width="0.398" fill="none" /><path id="318" transform="matrix(1 0 0 -1 0 792)" d="M765.204 497.072L1105.317 497.072" stroke="#000000" stroke-width="0.398" fill="none" /><path id="319" transform="matrix(1 0 0 -1 0 792)" d="M765.403 483.306L765.403 496.873" stroke="#000000" stroke-width="0.398" fill="none" /><path id="325" transform="matrix(1 0 0 -1 0 792)" d="M802.065 487.587L805.054 487.587" stroke="#000000" stroke-width="0.398" fill="none" /><path id="329" transform="matrix(1 0 0 -1 0 792)" d="M823.585 487.587L826.574 487.587" stroke="#000000" stroke-width="0.398" fill="none" /><path id="331" transform="matrix(1 0 0 -1 0 792)" d="M831.594 487.587L834.583 487.587" stroke="#000000" stroke-width="0.398" fill="none" /><path id="334" transform="matrix(1 0 0 -1 0 792)" d="M847.136 487.587L850.125 487.587" stroke="#000000" stroke-width="0.398" fill="none" /><path id="336" transform="matrix(1 0 0 -1 0 792)" d="M855.146 487.587L858.135 487.587" stroke="#000000" stroke-width="0.398" fill="none" /><path id="341" transform="matrix(1 0 0 -1 0 792)" d="M957.756 483.306L957.756 496.873" stroke="#000000" stroke-width="0.398" fill="none" /><path id="343" transform="matrix(1 0 0 -1 0 792)" d="M1016.778 483.306L1016.778 496.873" stroke="#000000" stroke-width="0.398" fill="none" /><path id="345" transform="matrix(1 0 0 -1 0 792)" d="M1075.801 483.306L1075.801 496.873" stroke="#000000" stroke-width="0.398" fill="none" /><path id="347" transform="matrix(1 0 0 -1 0 792)" d="M1105.118 483.306L1105.118 496.873" stroke="#000000" stroke-width="0.398" fill="none" /><path id="348" transform="matrix(1 0 0 -1 0 792)" d="M765.204 483.106L1105.317 483.106" stroke="#000000" stroke-width="0.398" fill="none" /><path id="349" transform="matrix(1 0 0 -1 0 792)" d="M765.403 469.341L765.403 482.908" stroke="#000000" stroke-width="0.398" fill="none" /><path id="354" transform="matrix(1 0 0 -1 0 792)" d="M796.088 473.622L799.077 473.622" stroke="#000000" stroke-width="0.398" fill="none" /><path id="361" transform="matrix(1 0 0 -1 0 792)" d="M957.756 469.341L957.756 482.908" stroke="#000000" stroke-width="0.398" fill="none" /><path id="363" transform="matrix(1 0 0 -1 0 792)" d="M1016.778 469.341L1016.778 482.908" stroke="#000000" stroke-width="0.398" fill="none" /><path id="365" transform="matrix(1 0 0 -1 0 792)" d="M1075.801 469.341L1075.801 482.908" stroke="#000000" stroke-width="0.398" fill="none" /><path id="367" transform="matrix(1 0 0 -1 0 792)" d="M1105.118 469.341L1105.118 482.908" stroke="#000000" stroke-width="0.398" fill="none" /><path id="368" transform="matrix(1 0 0 -1 0 792)" d="M765.204 469.141L1105.317 469.141" stroke="#000000" stroke-width="0.398" fill="none" /><path id="392" transform="matrix(1 0 0 -1 0 792)" d="M765.204 421.611L1105.317 421.611" stroke="#000000" stroke-width="0.398" fill="none" /><path id="393" transform="matrix(1 0 0 -1 0 792)" d="M765.403 407.845L765.403 421.412" stroke="#000000" stroke-width="0.398" fill="none" /><path id="394" transform="matrix(1 0 0 -1 0 792)" d="M765.602 407.845L957.557 407.845L957.557 421.412L765.602 421.412z" stroke="none" fill="#CCCCEB" fill-rule="nonzero" /><path id="400" transform="matrix(1 0 0 -1 0 792)" d="M957.756 407.845L957.756 421.412" stroke="#000000" stroke-width="0.398" fill="none" /><path id="401" transform="matrix(1 0 0 -1 0 792)" d="M957.956 407.845L1016.58 407.845L1016.58 421.412L957.956 421.412z" stroke="none" fill="#CCCCEB" fill-rule="nonzero" /><path id="411" transform="matrix(1 0 0 -1 0 792)" d="M1016.778 407.845L1016.778 421.412" stroke="#000000" stroke-width="0.398" fill="none" /><path id="412" transform="matrix(1 0 0 -1 0 792)" d="M1016.978 407.845L1075.602 407.845L1075.602 421.412L1016.978 421.412z" stroke="none" fill="#CCCCEB" fill-rule="nonzero" /><path id="420" transform="matrix(1 0 0 -1 0 792)" d="M1075.801 407.845L1075.801 421.412" stroke="#000000" stroke-width="0.398" fill="none" /><path id="421" transform="matrix(1 0 0 -1 0 792)" d="M1076 407.845L1104.919 407.845L1104.919 421.412L1076 421.412z" stroke="none" fill="#CCCCEB" fill-rule="nonzero" /><path id="425" transform="matrix(1 0 0 -1 0 792)" d="M1105.118 407.845L1105.118 421.412" stroke="#000000" stroke-width="0.398" fill="none" /><path id="426" transform="matrix(1 0 0 -1 0 792)" d="M765.403 394.279L765.403 407.846" stroke="#000000" stroke-width="0.398" fill="none" /><path id="427" transform="matrix(1 0 0 -1 0 792)" d="M765.602 394.279L957.557 394.279L957.557 407.846L765.602 407.846z" stroke="none" fill="#CCCCEB" fill-rule="nonzero" /><path id="428" transform="matrix(1 0 0 -1 0 792)" d="M957.756 394.279L957.756 407.846" stroke="#000000" stroke-width="0.398" fill="none" /><path id="429" transform="matrix(1 0 0 -1 0 792)" d="M957.956 394.279L1016.58 394.279L1016.58 407.846L957.956 407.846z" stroke="none" fill="#CCCCEB" fill-rule="nonzero" /><path id="430" transform="matrix(1 0 0 -1 0 792)" d="M1016.778 394.279L1016.778 407.846" stroke="#000000" stroke-width="0.398" fill="none" /><path id="431" transform="matrix(1 0 0 -1 0 792)" d="M1016.978 394.279L1075.602 394.279L1075.602 407.846L1016.978 407.846z" stroke="none" fill="#CCCCEB" fill-rule="nonzero" /><path id="437" transform="matrix(1 0 0 -1 0 792)" d="M1075.801 394.279L1075.801 407.846" stroke="#000000" stroke-width="0.398" fill="none" /><path id="438" transform="matrix(1 0 0 -1 0 792)" d="M1076 394.279L1104.919 394.279L1104.919 407.846L1076 407.846z" stroke="none" fill="#CCCCEB" fill-rule="nonzero" /><path id="439" transform="matrix(1 0 0 -1 0 792)" d="M1105.118 394.279L1105.118 407.846" stroke="#000000" stroke-width="0.398" fill="none" /><path id="440" transform="matrix(1 0 0 -1 0 792)" d="M765.204 394.08L1105.317 394.08" stroke="#000000" stroke-width="0.398" fill="none" /><path id="441" transform="matrix(1 0 0 -1 0 792)" d="M765.204 391.689L1105.317 391.689" stroke="#000000" stroke-width="0.398" fill="none" /><path id="442" transform="matrix(1 0 0 -1 0 792)" d="M765.403 377.923L765.403 391.49" stroke="#000000" stroke-width="0.398" fill="none" /><path id="448" transform="matrix(1 0 0 -1 0 792)" d="M957.756 377.923L957.756 391.49" stroke="#000000" stroke-width="0.398" fill="none" /><path id="450" transform="matrix(1 0 0 -1 0 792)" d="M1016.778 377.923L1016.778 391.49" stroke="#000000" stroke-width="0.398" fill="none" /><path id="452" transform="matrix(1 0 0 -1 0 792)" d="M1075.801 377.923L1075.801 391.49" stroke="#000000" stroke-width="0.398" fill="none" /><path id="454" transform="matrix(1 0 0 -1 0 792)" d="M1105.118 377.923L1105.118 391.49" stroke="#000000" stroke-width="0.398" fill="none" /><path id="455" transform="matrix(1 0 0 -1 0 792)" d="M765.204 377.723L1105.317 377.723" stroke="#000000" stroke-width="0.398" fill="none" /><path id="456" transform="matrix(1 0 0 -1 0 792)" d="M765.403 363.957L765.403 377.524" stroke="#000000" stroke-width="0.398" fill="none" /><path id="462" transform="matrix(1 0 0 -1 0 792)" d="M957.756 363.957L957.756 377.524" stroke="#000000" stroke-width="0.398" fill="none" /><path id="464" transform="matrix(1 0 0 -1 0 792)" d="M1016.778 363.957L1016.778 377.524" stroke="#000000" stroke-width="0.398" fill="none" /><path id="466" transform="matrix(1 0 0 -1 0 792)" d="M1075.801 363.957L1075.801 377.524" stroke="#000000" stroke-width="0.398" fill="none" /><path id="468" transform="matrix(1 0 0 -1 0 792)" d="M1105.118 363.957L1105.118 377.524" stroke="#000000" stroke-width="0.398" fill="none" /><path id="469" transform="matrix(1 0 0 -1 0 792)" d="M765.204 363.758L1105.317 363.758" stroke="#000000" stroke-width="0.398" fill="none" /><path id="470" transform="matrix(1 0 0 -1 0 792)" d="M765.403 349.992L765.403 363.559" stroke="#000000" stroke-width="0.398" fill="none" /><path id="477" transform="matrix(1 0 0 -1 0 792)" d="M957.756 349.992L957.756 363.559" stroke="#000000" stroke-width="0.398" fill="none" /><path id="479" transform="matrix(1 0 0 -1 0 792)" d="M1016.778 349.992L1016.778 363.559" stroke="#000000" stroke-width="0.398" fill="none" /><path id="481" transform="matrix(1 0 0 -1 0 792)" d="M1075.801 349.992L1075.801 363.559" stroke="#000000" stroke-width="0.398" fill="none" /><path id="483" transform="matrix(1 0 0 -1 0 792)" d="M1105.118 349.992L1105.118 363.559" stroke="#000000" stroke-width="0.398" fill="none" /><path id="484" transform="matrix(1 0 0 -1 0 792)" d="M765.204 349.793L1105.317 349.793" stroke="#000000" stroke-width="0.398" fill="none" /><path id="485" transform="matrix(1 0 0 -1 0 792)" d="M765.403 336.027L765.403 349.594" stroke="#000000" stroke-width="0.398" fill="none" /><path id="490" transform="matrix(1 0 0 -1 0 792)" d="M796.088 340.309L799.077 340.309" stroke="#000000" stroke-width="0.398" fill="none" /><path id="492" transform="matrix(1 0 0 -1 0 792)" d="M957.756 336.027L957.756 349.594" stroke="#000000" stroke-width="0.398" fill="none" /><path id="494" transform="matrix(1 0 0 -1 0 792)" d="M1016.778 336.027L1016.778 349.594" stroke="#000000" stroke-width="0.398" fill="none" /><path id="496" transform="matrix(1 0 0 -1 0 792)" d="M1075.801 336.027L1075.801 349.594" stroke="#000000" stroke-width="0.398" fill="none" /><path id="498" transform="matrix(1 0 0 -1 0 792)" d="M1105.118 336.027L1105.118 349.594" stroke="#000000" stroke-width="0.398" fill="none" /><path id="499" transform="matrix(1 0 0 -1 0 792)" d="M765.204 335.828L1105.317 335.828" stroke="#000000" stroke-width="0.398" fill="none" /><path id="500" transform="matrix(1 0 0 -1 0 792)" d="M765.403 322.062L765.403 335.629" stroke="#000000" stroke-width="0.398" fill="none" /><path id="505" transform="matrix(1 0 0 -1 0 792)" d="M796.088 326.344L799.077 326.344" stroke="#000000" stroke-width="0.398" fill="none" /><path id="507" transform="matrix(1 0 0 -1 0 792)" d="M957.756 322.062L957.756 335.629" stroke="#000000" stroke-width="0.398" fill="none" /><path id="509" transform="matrix(1 0 0 -1 0 792)" d="M1016.778 322.062L1016.778 335.629" stroke="#000000" stroke-width="0.398" fill="none" /><path id="511" transform="matrix(1 0 0 -1 0 792)" d="M1075.801 322.062L1075.801 335.629" stroke="#000000" stroke-width="0.398" fill="none" /><path id="513" transform="matrix(1 0 0 -1 0 792)" d="M1105.118 322.062L1105.118 335.629" stroke="#000000" stroke-width="0.398" fill="none" /><path id="514" transform="matrix(1 0 0 -1 0 792)" d="M765.204 321.863L1105.317 321.863" stroke="#000000" stroke-width="0.398" fill="none" /><path id="515" transform="matrix(1 0 0 -1 0 792)" d="M765.403 308.097L765.403 321.664" stroke="#000000" stroke-width="0.398" fill="none" /><path id="520" transform="matrix(1 0 0 -1 0 792)" d="M796.088 312.378L799.077 312.378" stroke="#000000" stroke-width="0.398" fill="none" /><path id="525" transform="matrix(1 0 0 -1 0 792)" d="M823.585 312.378L826.574 312.378" stroke="#000000" stroke-width="0.398" fill="none" /><path id="532" transform="matrix(1 0 0 -1 0 792)" d="M957.756 308.097L957.756 321.664" stroke="#000000" stroke-width="0.398" fill="none" /><path id="534" transform="matrix(1 0 0 -1 0 792)" d="M1016.778 308.097L1016.778 321.664" stroke="#000000" stroke-width="0.398" fill="none" /><path id="536" transform="matrix(1 0 0 -1 0 792)" d="M1075.801 308.097L1075.801 321.664" stroke="#000000" stroke-width="0.398" fill="none" /><path id="538" transform="matrix(1 0 0 -1 0 792)" d="M1105.118 308.097L1105.118 321.664" stroke="#000000" stroke-width="0.398" fill="none" /><path id="539" transform="matrix(1 0 0 -1 0 792)" d="M765.204 307.898L1105.317 307.898" stroke="#000000" stroke-width="0.398" fill="none" /><path id="540" transform="matrix(1 0 0 -1 0 792)" d="M765.403 294.132L765.403 307.699" stroke="#000000" stroke-width="0.398" fill="none" /><path id="545" transform="matrix(1 0 0 -1 0 792)" d="M796.088 298.413L799.077 298.413" stroke="#000000" stroke-width="0.398" fill="none" /><path id="550" transform="matrix(1 0 0 -1 0 792)" d="M823.585 298.413L826.574 298.413" stroke="#000000" stroke-width="0.398" fill="none" /><path id="557" transform="matrix(1 0 0 -1 0 792)" d="M957.756 294.132L957.756 307.699" stroke="#000000" stroke-width="0.398" fill="none" /><path id="559" transform="matrix(1 0 0 -1 0 792)" d="M1016.778 294.132L1016.778 307.699" stroke="#000000" stroke-width="0.398" fill="none" /><path id="561" transform="matrix(1 0 0 -1 0 792)" d="M1075.801 294.132L1075.801 307.699" stroke="#000000" stroke-width="0.398" fill="none" /><path id="563" transform="matrix(1 0 0 -1 0 792)" d="M1105.118 294.132L1105.118 307.699" stroke="#000000" stroke-width="0.398" fill="none" /><path id="564" transform="matrix(1 0 0 -1 0 792)" d="M765.204 293.932L1105.317 293.932" stroke="#000000" stroke-width="0.398" fill="none" /><path id="565" transform="matrix(1 0 0 -1 0 792)" d="M765.403 280.167L765.403 293.734" stroke="#000000" stroke-width="0.398" fill="none" /><path id="570" transform="matrix(1 0 0 -1 0 792)" d="M796.088 284.448L799.077 284.448" stroke="#000000" stroke-width="0.398" fill="none" /><path id="575" transform="matrix(1 0 0 -1 0 792)" d="M823.585 284.448L826.574 284.448" stroke="#000000" stroke-width="0.398" fill="none" /><path id="584" transform="matrix(1 0 0 -1 0 792)" d="M957.756 280.167L957.756 293.734" stroke="#000000" stroke-width="0.398" fill="none" /><path id="586" transform="matrix(1 0 0 -1 0 792)" d="M1016.778 280.167L1016.778 293.734" stroke="#000000" stroke-width="0.398" fill="none" /><path id="588" transform="matrix(1 0 0 -1 0 792)" d="M1075.801 280.167L1075.801 293.734" stroke="#000000" stroke-width="0.398" fill="none" /><path id="590" transform="matrix(1 0 0 -1 0 792)" d="M1105.118 280.167L1105.118 293.734" stroke="#000000" stroke-width="0.398" fill="none" /><path id="591" transform="matrix(1 0 0 -1 0 792)" d="M765.204 279.967L1105.317 279.967" stroke="#000000" stroke-width="0.398" fill="none" /><path id="592" transform="matrix(1 0 0 -1 0 792)" d="M765.403 266.201L765.403 279.768" stroke="#000000" stroke-width="0.398" fill="none" /><path id="597" transform="matrix(1 0 0 -1 0 792)" d="M796.088 270.483L799.077 270.483" stroke="#000000" stroke-width="0.398" fill="none" /><path id="602" transform="matrix(1 0 0 -1 0 792)" d="M823.585 270.483L826.574 270.483" stroke="#000000" stroke-width="0.398" fill="none" /><path id="611" transform="matrix(1 0 0 -1 0 792)" d="M957.756 266.201L957.756 279.768" stroke="#000000" stroke-width="0.398" fill="none" /><path id="613" transform="matrix(1 0 0 -1 0 792)" d="M1016.778 266.201L1016.778 279.768" stroke="#000000" stroke-width="0.398" fill="none" /><path id="615" transform="matrix(1 0 0 -1 0 792)" d="M1075.801 266.201L1075.801 279.768" stroke="#000000" stroke-width="0.398" fill="none" /><path id="617" transform="matrix(1 0 0 -1 0 792)" d="M1105.118 266.201L1105.118 279.768" stroke="#000000" stroke-width="0.398" fill="none" /><path id="618" transform="matrix(1 0 0 -1 0 792)" d="M765.204 266.002L1105.317 266.002" stroke="#000000" stroke-width="0.398" fill="none" /><path id="619" transform="matrix(1 0 0 -1 0 792)" d="M765.403 252.236L765.403 265.803" stroke="#000000" stroke-width="0.398" fill="none" /><path id="624" transform="matrix(1 0 0 -1 0 792)" d="M796.088 256.518L799.077 256.518" stroke="#000000" stroke-width="0.398" fill="none" /><path id="631" transform="matrix(1 0 0 -1 0 792)" d="M957.756 252.236L957.756 265.803" stroke="#000000" stroke-width="0.398" fill="none" /><path id="633" transform="matrix(1 0 0 -1 0 792)" d="M1016.778 252.236L1016.778 265.803" stroke="#000000" stroke-width="0.398" fill="none" /><path id="635" transform="matrix(1 0 0 -1 0 792)" d="M1075.801 252.236L1075.801 265.803" stroke="#000000" stroke-width="0.398" fill="none" /><path id="637" transform="matrix(1 0 0 -1 0 792)" d="M1105.118 252.236L1105.118 265.803" stroke="#000000" stroke-width="0.398" fill="none" /><path id="638" transform="matrix(1 0 0 -1 0 792)" d="M765.204 252.037L1105.317 252.037" stroke="#000000" stroke-width="0.398" fill="none" /><path id="659" transform="matrix(1 0 0 -1 0 792)" d="M744.3459 204.507L1126.175 204.507" stroke="#000000" stroke-width="0.398" fill="none" /><path id="660" transform="matrix(1 0 0 -1 0 792)" d="M744.545 190.741L744.545 204.308" stroke="#000000" stroke-width="0.398" fill="none" /><path id="661" transform="matrix(1 0 0 -1 0 792)" d="M744.744 190.741L936.699 190.741L936.699 204.308L744.744 204.308z" stroke="none" fill="#CCCCEB" fill-rule="nonzero" /><path id="667" transform="matrix(1 0 0 -1 0 792)" d="M936.898 190.741L936.898 204.308" stroke="#000000" stroke-width="0.398" fill="none" /><path id="668" transform="matrix(1 0 0 -1 0 792)" d="M937.098 190.741L995.722 190.741L995.722 204.308L937.098 204.308z" stroke="none" fill="#CCCCEB" fill-rule="nonzero" /><path id="678" transform="matrix(1 0 0 -1 0 792)" d="M995.921 190.741L995.921 204.308" stroke="#000000" stroke-width="0.398" fill="none" /><path id="679" transform="matrix(1 0 0 -1 0 792)" d="M996.12 190.741L1054.744 190.741L1054.744 204.308L996.12 204.308z" stroke="none" fill="#CCCCEB" fill-rule="nonzero" /><path id="687" transform="matrix(1 0 0 -1 0 792)" d="M1054.943 190.741L1054.943 204.308" stroke="#000000" stroke-width="0.398" fill="none" /><path id="688" transform="matrix(1 0 0 -1 0 792)" d="M1055.142 190.741L1125.776 190.741L1125.776 204.308L1055.142 204.308z" stroke="none" fill="#CCCCEB" fill-rule="nonzero" /><path id="692" transform="matrix(1 0 0 -1 0 792)" d="M1125.976 190.741L1125.976 204.308" stroke="#000000" stroke-width="0.398" fill="none" /><path id="693" transform="matrix(1 0 0 -1 0 792)" d="M744.545 177.175L744.545 190.742" stroke="#000000" stroke-width="0.398" fill="none" /><path id="694" transform="matrix(1 0 0 -1 0 792)" d="M744.744 177.175L936.699 177.175L936.699 190.742L744.744 190.742z" stroke="none" fill="#CCCCEB" fill-rule="nonzero" /><path id="695" transform="matrix(1 0 0 -1 0 792)" d="M936.898 177.175L936.898 190.742" stroke="#000000" stroke-width="0.398" fill="none" /><path id="696" transform="matrix(1 0 0 -1 0 792)" d="M937.098 177.175L995.722 177.175L995.722 190.742L937.098 190.742z" stroke="none" fill="#CCCCEB" fill-rule="nonzero" /><path id="697" transform="matrix(1 0 0 -1 0 792)" d="M995.921 177.175L995.921 190.742" stroke="#000000" stroke-width="0.398" fill="none" /><path id="698" transform="matrix(1 0 0 -1 0 792)" d="M996.12 177.175L1054.744 177.175L1054.744 190.742L996.12 190.742z" stroke="none" fill="#CCCCEB" fill-rule="nonzero" /><path id="704" transform="matrix(1 0 0 -1 0 792)" d="M1054.943 177.175L1054.943 190.742" stroke="#000000" stroke-width="0.398" fill="none" /><path id="705" transform="matrix(1 0 0 -1 0 792)" d="M1055.142 177.175L1125.776 177.175L1125.776 190.742L1055.142 190.742z" stroke="none" fill="#CCCCEB" fill-rule="nonzero" /><path id="706" transform="matrix(1 0 0 -1 0 792)" d="M1125.976 177.175L1125.976 190.742" stroke="#000000" stroke-width="0.398" fill="none" /><path id="707" transform="matrix(1 0 0 -1 0 792)" d="M744.3459 176.975L1126.175 176.975" stroke="#000000" stroke-width="0.398" fill="none" /><path id="708" transform="matrix(1 0 0 -1 0 792)" d="M744.3459 174.584L1126.175 174.584" stroke="#000000" stroke-width="0.398" fill="none" /><path id="709" transform="matrix(1 0 0 -1 0 792)" d="M744.545 160.818L744.545 174.385" stroke="#000000" stroke-width="0.398" fill="none" /><path id="716" transform="matrix(1 0 0 -1 0 792)" d="M787.185 165.1L790.174 165.1" stroke="#000000" stroke-width="0.398" fill="none" /><path id="721" transform="matrix(1 0 0 -1 0 792)" d="M936.898 160.818L936.898 174.385" stroke="#000000" stroke-width="0.398" fill="none" /><path id="723" transform="matrix(1 0 0 -1 0 792)" d="M995.921 160.818L995.921 174.385" stroke="#000000" stroke-width="0.398" fill="none" /><path id="725" transform="matrix(1 0 0 -1 0 792)" d="M1054.943 160.818L1054.943 174.385" stroke="#000000" stroke-width="0.398" fill="none" /><path id="737" transform="matrix(1 0 0 -1 0 792)" d="M1125.976 160.818L1125.976 174.385" stroke="#000000" stroke-width="0.398" fill="none" /><path id="738" transform="matrix(1 0 0 -1 0 792)" d="M744.3459 160.619L1126.175 160.619" stroke="#000000" stroke-width="0.398" fill="none" /><path id="739" transform="matrix(1 0 0 -1 0 792)" d="M744.545 146.853L744.545 160.42" stroke="#000000" stroke-width="0.398" fill="none" /><path id="746" transform="matrix(1 0 0 -1 0 792)" d="M787.185 151.135L790.174 151.135" stroke="#000000" stroke-width="0.398" fill="none" /><path id="753" transform="matrix(1 0 0 -1 0 792)" d="M936.898 146.853L936.898 160.42" stroke="#000000" stroke-width="0.398" fill="none" /><path id="755" transform="matrix(1 0 0 -1 0 792)" d="M995.921 146.853L995.921 160.42" stroke="#000000" stroke-width="0.398" fill="none" /><path id="761" transform="matrix(1 0 0 -1 0 792)" d="M1054.943 146.853L1054.943 160.42" stroke="#000000" stroke-width="0.398" fill="none" /><path id="773" transform="matrix(1 0 0 -1 0 792)" d="M1125.976 146.853L1125.976 160.42" stroke="#000000" stroke-width="0.398" fill="none" /><path id="774" transform="matrix(1 0 0 -1 0 792)" d="M744.3459 146.654L1126.175 146.654" stroke="#000000" stroke-width="0.398" fill="none" /><path id="775" transform="matrix(1 0 0 -1 0 792)" d="M744.545 132.888L744.545 146.455" stroke="#000000" stroke-width="0.398" fill="none" /><path id="783" transform="matrix(1 0 0 -1 0 792)" d="M793.162 137.17L796.151 137.17" stroke="#000000" stroke-width="0.398" fill="none" /><path id="790" transform="matrix(1 0 0 -1 0 792)" d="M936.898 132.888L936.898 146.455" stroke="#000000" stroke-width="0.398" fill="none" /><path id="792" transform="matrix(1 0 0 -1 0 792)" d="M995.921 132.888L995.921 146.455" stroke="#000000" stroke-width="0.398" fill="none" /><path id="798" transform="matrix(1 0 0 -1 0 792)" d="M1054.943 132.888L1054.943 146.455" stroke="#000000" stroke-width="0.398" fill="none" /><path id="810" transform="matrix(1 0 0 -1 0 792)" d="M1125.976 132.888L1125.976 146.455" stroke="#000000" stroke-width="0.398" fill="none" /><path id="811" transform="matrix(1 0 0 -1 0 792)" d="M744.3459 132.689L1126.175 132.689" stroke="#000000" stroke-width="0.398" fill="none" /><path id="812" transform="matrix(1 0 0 -1 0 792)" d="M744.545 118.923L744.545 132.49" stroke="#000000" stroke-width="0.398" fill="none" /><path id="817" transform="matrix(1 0 0 -1 0 792)" d="M775.23 123.204L778.219 123.204" stroke="#000000" stroke-width="0.398" fill="none" /><path id="821" transform="matrix(1 0 0 -1 0 792)" d="M796.749 123.204L799.738 123.204" stroke="#000000" stroke-width="0.398" fill="none" /><path id="828" transform="matrix(1 0 0 -1 0 792)" d="M936.898 118.923L936.898 132.49" stroke="#000000" stroke-width="0.398" fill="none" /><path id="830" transform="matrix(1 0 0 -1 0 792)" d="M995.921 118.923L995.921 132.49" stroke="#000000" stroke-width="0.398" fill="none" /><path id="832" transform="matrix(1 0 0 -1 0 792)" d="M1054.943 118.923L1054.943 132.49" stroke="#000000" stroke-width="0.398" fill="none" /><path id="844" transform="matrix(1 0 0 -1 0 792)" d="M1125.976 118.923L1125.976 132.49" stroke="#000000" stroke-width="0.398" fill="none" /><path id="845" transform="matrix(1 0 0 -1 0 792)" d="M744.3459 118.724L1126.175 118.724" stroke="#000000" stroke-width="0.398" fill="none" /><path id="846" transform="matrix(1 0 0 -1 0 792)" d="M744.545 104.958L744.545 118.525" stroke="#000000" stroke-width="0.398" fill="none" /><path id="853" transform="matrix(1 0 0 -1 0 792)" d="M787.185 109.239L790.174 109.239" stroke="#000000" stroke-width="0.398" fill="none" /><path id="860" transform="matrix(1 0 0 -1 0 792)" d="M826.637 109.239L829.626 109.239" stroke="#000000" stroke-width="0.398" fill="none" /><path id="867" transform="matrix(1 0 0 -1 0 792)" d="M936.898 104.958L936.898 118.525" stroke="#000000" stroke-width="0.398" fill="none" /><path id="869" transform="matrix(1 0 0 -1 0 792)" d="M995.921 104.958L995.921 118.525" stroke="#000000" stroke-width="0.398" fill="none" /><path id="871" transform="matrix(1 0 0 -1 0 792)" d="M1054.943 104.958L1054.943 118.525" stroke="#000000" stroke-width="0.398" fill="none" /><path id="883" transform="matrix(1 0 0 -1 0 792)" d="M1125.976 104.958L1125.976 118.525" stroke="#000000" stroke-width="0.398" fill="none" /><path id="884" transform="matrix(1 0 0 -1 0 792)" d="M744.3459 104.759L1126.175 104.759" stroke="#000000" stroke-width="0.398" fill="none" /><path id="912" transform="matrix(1 0 0 -1 0 792)" d="M701.933 722.529L1168.588 722.529L1168.588 722.529L1168.588 735.6745L1168.588 735.6745L701.933 735.6745z" stroke="#FFFFFF" stroke-width="1" fill="#FFFFFF" fill-rule="nonzero" /><path id="963" transform="matrix(1 0 0 -1 0 792)" d="M89.933 721.28L556.588 721.28" stroke="#000000" stroke-width="0.498" fill="none" /><path id="964" transform="matrix(1 0 0 -1 0 792)" d="M153.204 694.576L493.317 694.576" stroke="#000000" stroke-width="0.398" fill="none" /><path id="965" transform="matrix(1 0 0 -1 0 792)" d="M153.403 680.81L153.403 694.377" stroke="#000000" stroke-width="0.398" fill="none" /><path id="966" transform="matrix(1 0 0 -1 0 792)" d="M153.602 680.81L345.557 680.81L345.557 694.377L153.602 694.377z" stroke="none" fill="#CCCCEB" fill-rule="nonzero" /><path id="972" transform="matrix(1 0 0 -1 0 792)" d="M345.756 680.81L345.756 694.377" stroke="#000000" stroke-width="0.398" fill="none" /><path id="973" transform="matrix(1 0 0 -1 0 792)" d="M345.956 680.81L404.58 680.81L404.58 694.377L345.956 694.377z" stroke="none" fill="#CCCCEB" fill-rule="nonzero" /><path id="983" transform="matrix(1 0 0 -1 0 792)" d="M404.778 680.81L404.778 694.377" stroke="#000000" stroke-width="0.398" fill="none" /><path id="984" transform="matrix(1 0 0 -1 0 792)" d="M404.978 680.81L463.602 680.81L463.602 694.377L404.978 694.377z" stroke="none" fill="#CCCCEB" fill-rule="nonzero" /><path id="992" transform="matrix(1 0 0 -1 0 792)" d="M463.801 680.81L463.801 694.377" stroke="#000000" stroke-width="0.398" fill="none" /><path id="993" transform="matrix(1 0 0 -1 0 792)" d="M464 680.81L492.919 680.81L492.919 694.377L464 694.377z" stroke="none" fill="#CCCCEB" fill-rule="nonzero" /><path id="997" transform="matrix(1 0 0 -1 0 792)" d="M493.118 680.81L493.118 694.377" stroke="#000000" stroke-width="0.398" fill="none" /><path id="998" transform="matrix(1 0 0 -1 0 792)" d="M153.403 667.244L153.403 680.811" stroke="#000000" stroke-width="0.398" fill="none" /><path id="999" transform="matrix(1 0 0 -1 0 792)" d="M153.602 667.244L345.557 667.244L345.557 680.811L153.602 680.811z" stroke="none" fill="#CCCCEB" fill-rule="nonzero" /><path id="1000" transform="matrix(1 0 0 -1 0 792)" d="M345.756 667.244L345.756 680.811" stroke="#000000" stroke-width="0.398" fill="none" /><path id="1001" transform="matrix(1 0 0 -1 0 792)" d="M345.956 667.244L404.58 667.244L404.58 680.811L345.956 680.811z" stroke="none" fill="#CCCCEB" fill-rule="nonzero" /><path id="1002" transform="matrix(1 0 0 -1 0 792)" d="M404.778 667.244L404.778 680.811" stroke="#000000" stroke-width="0.398" fill="none" /><path id="1003" transform="matrix(1 0 0 -1 0 792)" d="M404.978 667.244L463.602 667.244L463.602 680.811L404.978 680.811z" stroke="none" fill="#CCCCEB" fill-rule="nonzero" /><path id="1009" transform="matrix(1 0 0 -1 0 792)" d="M463.801 667.244L463.801 680.811" stroke="#000000" stroke-width="0.398" fill="none" /><path id="1010" transform="matrix(1 0 0 -1 0 792)" d="M464 667.244L492.919 667.244L492.919 680.811L464 680.811z" stroke="none" fill="#CCCCEB" fill-rule="nonzero" /><path id="1011" transform="matrix(1 0 0 -1 0 792)" d="M493.118 667.244L493.118 680.811" stroke="#000000" stroke-width="0.398" fill="none" /><path id="1012" transform="matrix(1 0 0 -1 0 792)" d="M153.204 667.044L493.317 667.044" stroke="#000000" stroke-width="0.398" fill="none" /><path id="1013" transform="matrix(1 0 0 -1 0 792)" d="M153.204 664.653L493.317 664.653" stroke="#000000" stroke-width="0.398" fill="none" /><path id="1014" transform="matrix(1 0 0 -1 0 792)" d="M153.403 650.887L153.403 664.454" stroke="#000000" stroke-width="0.398" fill="none" /><path id="1021" transform="matrix(1 0 0 -1 0 792)" d="M345.756 650.887L345.756 664.454" stroke="#000000" stroke-width="0.398" fill="none" /><path id="1023" transform="matrix(1 0 0 -1 0 792)" d="M404.778 650.887L404.778 664.454" stroke="#000000" stroke-width="0.398" fill="none" /><path id="1025" transform="matrix(1 0 0 -1 0 792)" d="M463.801 650.887L463.801 664.454" stroke="#000000" stroke-width="0.398" fill="none" /><path id="1027" transform="matrix(1 0 0 -1 0 792)" d="M493.118 650.887L493.118 664.454" stroke="#000000" stroke-width="0.398" fill="none" /><path id="1028" transform="matrix(1 0 0 -1 0 792)" d="M153.204 650.688L493.317 650.688" stroke="#000000" stroke-width="0.398" fill="none" /><path id="1029" transform="matrix(1 0 0 -1 0 792)" d="M153.403 636.922L153.403 650.489" stroke="#000000" stroke-width="0.398" fill="none" /><path id="1036" transform="matrix(1 0 0 -1 0 792)" d="M196.043 641.204L199.032 641.204" stroke="#000000" stroke-width="0.398" fill="none" /><path id="1043" transform="matrix(1 0 0 -1 0 792)" d="M345.756 636.922L345.756 650.489" stroke="#000000" stroke-width="0.398" fill="none" /><path id="1045" transform="matrix(1 0 0 -1 0 792)" d="M404.778 636.922L404.778 650.489" stroke="#000000" stroke-width="0.398" fill="none" /><path id="1047" transform="matrix(1 0 0 -1 0 792)" d="M463.801 636.922L463.801 650.489" stroke="#000000" stroke-width="0.398" fill="none" /><path id="1049" transform="matrix(1 0 0 -1 0 792)" d="M493.118 636.922L493.118 650.489" stroke="#000000" stroke-width="0.398" fill="none" /><path id="1050" transform="matrix(1 0 0 -1 0 792)" d="M153.204 636.723L493.317 636.723" stroke="#000000" stroke-width="0.398" fill="none" /><path id="1051" transform="matrix(1 0 0 -1 0 792)" d="M153.403 622.957L153.403 636.524" stroke="#000000" stroke-width="0.398" fill="none" /><path id="1058" transform="matrix(1 0 0 -1 0 792)" d="M196.043 627.239L199.032 627.239" stroke="#000000" stroke-width="0.398" fill="none" /><path id="1063" transform="matrix(1 0 0 -1 0 792)" d="M345.756 622.957L345.756 636.524" stroke="#000000" stroke-width="0.398" fill="none" /><path id="1065" transform="matrix(1 0 0 -1 0 792)" d="M404.778 622.957L404.778 636.524" stroke="#000000" stroke-width="0.398" fill="none" /><path id="1067" transform="matrix(1 0 0 -1 0 792)" d="M463.801 622.957L463.801 636.524" stroke="#000000" stroke-width="0.398" fill="none" /><path id="1069" transform="matrix(1 0 0 -1 0 792)" d="M493.118 622.957L493.118 636.524" stroke="#000000" stroke-width="0.398" fill="none" /><path id="1070" transform="matrix(1 0 0 -1 0 792)" d="M153.204 622.758L493.317 622.758" stroke="#000000" stroke-width="0.398" fill="none" /><path id="1071" transform="matrix(1 0 0 -1 0 792)" d="M153.403 608.992L153.403 622.559" stroke="#000000" stroke-width="0.398" fill="none" /><path id="1076" transform="matrix(1 0 0 -1 0 792)" d="M184.088 613.274L187.077 613.274" stroke="#000000" stroke-width="0.398" fill="none" /><path id="1078" transform="matrix(1 0 0 -1 0 792)" d="M345.756 608.992L345.756 622.559" stroke="#000000" stroke-width="0.398" fill="none" /><path id="1080" transform="matrix(1 0 0 -1 0 792)" d="M404.778 608.992L404.778 622.559" stroke="#000000" stroke-width="0.398" fill="none" /><path id="1082" transform="matrix(1 0 0 -1 0 792)" d="M463.801 608.992L463.801 622.559" stroke="#000000" stroke-width="0.398" fill="none" /><path id="1084" transform="matrix(1 0 0 -1 0 792)" d="M493.118 608.992L493.118 622.559" stroke="#000000" stroke-width="0.398" fill="none" /><path id="1085" transform="matrix(1 0 0 -1 0 792)" d="M153.204 608.793L493.317 608.793" stroke="#000000" stroke-width="0.398" fill="none" /><path id="1086" transform="matrix(1 0 0 -1 0 792)" d="M153.403 595.027L153.403 608.594" stroke="#000000" stroke-width="0.398" fill="none" /><path id="1091" transform="matrix(1 0 0 -1 0 792)" d="M184.088 599.308L187.077 599.308" stroke="#000000" stroke-width="0.398" fill="none" /><path id="1093" transform="matrix(1 0 0 -1 0 792)" d="M345.756 595.027L345.756 608.594" stroke="#000000" stroke-width="0.398" fill="none" /><path id="1095" transform="matrix(1 0 0 -1 0 792)" d="M404.778 595.027L404.778 608.594" stroke="#000000" stroke-width="0.398" fill="none" /><path id="1097" transform="matrix(1 0 0 -1 0 792)" d="M463.801 595.027L463.801 608.594" stroke="#000000" stroke-width="0.398" fill="none" /><path id="1099" transform="matrix(1 0 0 -1 0 792)" d="M493.118 595.027L493.118 608.594" stroke="#000000" stroke-width="0.398" fill="none" /><path id="1100" transform="matrix(1 0 0 -1 0 792)" d="M153.204 594.828L493.317 594.828" stroke="#000000" stroke-width="0.398" fill="none" /><path id="1101" transform="matrix(1 0 0 -1 0 792)" d="M153.403 581.062L153.403 594.629" stroke="#000000" stroke-width="0.398" fill="none" /><path id="1107" transform="matrix(1 0 0 -1 0 792)" d="M190.065 585.343L193.054 585.343" stroke="#000000" stroke-width="0.398" fill="none" /><path id="1111" transform="matrix(1 0 0 -1 0 792)" d="M211.585 585.343L214.574 585.343" stroke="#000000" stroke-width="0.398" fill="none" /><path id="1113" transform="matrix(1 0 0 -1 0 792)" d="M221.149 585.343L224.138 585.343" stroke="#000000" stroke-width="0.398" fill="none" /><path id="1116" transform="matrix(1 0 0 -1 0 792)" d="M236.69 585.343L239.679 585.343" stroke="#000000" stroke-width="0.398" fill="none" /><path id="1118" transform="matrix(1 0 0 -1 0 792)" d="M345.756 581.062L345.756 594.629" stroke="#000000" stroke-width="0.398" fill="none" /><path id="1120" transform="matrix(1 0 0 -1 0 792)" d="M404.778 581.062L404.778 594.629" stroke="#000000" stroke-width="0.398" fill="none" /><path id="1122" transform="matrix(1 0 0 -1 0 792)" d="M463.801 581.062L463.801 594.629" stroke="#000000" stroke-width="0.398" fill="none" /><path id="1124" transform="matrix(1 0 0 -1 0 792)" d="M493.118 581.062L493.118 594.629" stroke="#000000" stroke-width="0.398" fill="none" /><path id="1125" transform="matrix(1 0 0 -1 0 792)" d="M153.204 580.863L493.317 580.863" stroke="#000000" stroke-width="0.398" fill="none" /><path id="1126" transform="matrix(1 0 0 -1 0 792)" d="M153.403 567.097L153.403 580.664" stroke="#000000" stroke-width="0.398" fill="none" /><path id="1132" transform="matrix(1 0 0 -1 0 792)" d="M190.065 571.378L193.054 571.378" stroke="#000000" stroke-width="0.398" fill="none" /><path id="1136" transform="matrix(1 0 0 -1 0 792)" d="M211.585 571.378L214.574 571.378" stroke="#000000" stroke-width="0.398" fill="none" /><path id="1138" transform="matrix(1 0 0 -1 0 792)" d="M221.149 571.378L224.138 571.378" stroke="#000000" stroke-width="0.398" fill="none" /><path id="1141" transform="matrix(1 0 0 -1 0 792)" d="M236.69 571.378L239.679 571.378" stroke="#000000" stroke-width="0.398" fill="none" /><path id="1143" transform="matrix(1 0 0 -1 0 792)" d="M345.756 567.097L345.756 580.664" stroke="#000000" stroke-width="0.398" fill="none" /><path id="1145" transform="matrix(1 0 0 -1 0 792)" d="M404.778 567.097L404.778 580.664" stroke="#000000" stroke-width="0.398" fill="none" /><path id="1147" transform="matrix(1 0 0 -1 0 792)" d="M463.801 567.097L463.801 580.664" stroke="#000000" stroke-width="0.398" fill="none" /><path id="1149" transform="matrix(1 0 0 -1 0 792)" d="M493.118 567.097L493.118 580.664" stroke="#000000" stroke-width="0.398" fill="none" /><path id="1150" transform="matrix(1 0 0 -1 0 792)" d="M153.204 566.897L493.317 566.897" stroke="#000000" stroke-width="0.398" fill="none" /><path id="1151" transform="matrix(1 0 0 -1 0 792)" d="M153.403 553.131L153.403 566.698" stroke="#000000" stroke-width="0.398" fill="none" /><path id="1157" transform="matrix(1 0 0 -1 0 792)" d="M190.065 557.413L193.054 557.413" stroke="#000000" stroke-width="0.398" fill="none" /><path id="1161" transform="matrix(1 0 0 -1 0 792)" d="M211.585 557.413L214.574 557.413" stroke="#000000" stroke-width="0.398" fill="none" /><path id="1163" transform="matrix(1 0 0 -1 0 792)" d="M221.149 557.413L224.138 557.413" stroke="#000000" stroke-width="0.398" fill="none" /><path id="1166" transform="matrix(1 0 0 -1 0 792)" d="M236.69 557.413L239.679 557.413" stroke="#000000" stroke-width="0.398" fill="none" /><path id="1173" transform="matrix(1 0 0 -1 0 792)" d="M345.756 553.131L345.756 566.698" stroke="#000000" stroke-width="0.398" fill="none" /><path id="1175" transform="matrix(1 0 0 -1 0 792)" d="M404.778 553.131L404.778 566.698" stroke="#000000" stroke-width="0.398" fill="none" /><path id="1177" transform="matrix(1 0 0 -1 0 792)" d="M463.801 553.131L463.801 566.698" stroke="#000000" stroke-width="0.398" fill="none" /><path id="1179" transform="matrix(1 0 0 -1 0 792)" d="M493.118 553.131L493.118 566.698" stroke="#000000" stroke-width="0.398" fill="none" /><path id="1180" transform="matrix(1 0 0 -1 0 792)" d="M153.204 552.932L493.317 552.932" stroke="#000000" stroke-width="0.398" fill="none" /><path id="1181" transform="matrix(1 0 0 -1 0 792)" d="M153.403 539.166L153.403 552.733" stroke="#000000" stroke-width="0.398" fill="none" /><path id="1187" transform="matrix(1 0 0 -1 0 792)" d="M190.065 543.448L193.054 543.448" stroke="#000000" stroke-width="0.398" fill="none" /><path id="1191" transform="matrix(1 0 0 -1 0 792)" d="M211.585 543.448L214.574 543.448" stroke="#000000" stroke-width="0.398" fill="none" /><path id="1193" transform="matrix(1 0 0 -1 0 792)" d="M221.149 543.448L224.138 543.448" stroke="#000000" stroke-width="0.398" fill="none" /><path id="1196" transform="matrix(1 0 0 -1 0 792)" d="M236.69 543.448L239.679 543.448" stroke="#000000" stroke-width="0.398" fill="none" /><path id="1198" transform="matrix(1 0 0 -1 0 792)" d="M345.756 539.166L345.756 552.733" stroke="#000000" stroke-width="0.398" fill="none" /><path id="1200" transform="matrix(1 0 0 -1 0 792)" d="M404.778 539.166L404.778 552.733" stroke="#000000" stroke-width="0.398" fill="none" /><path id="1202" transform="matrix(1 0 0 -1 0 792)" d="M463.801 539.166L463.801 552.733" stroke="#000000" stroke-width="0.398" fill="none" /><path id="1204" transform="matrix(1 0 0 -1 0 792)" d="M493.118 539.166L493.118 552.733" stroke="#000000" stroke-width="0.398" fill="none" /><path id="1205" transform="matrix(1 0 0 -1 0 792)" d="M153.204 538.967L493.317 538.967" stroke="#000000" stroke-width="0.398" fill="none" /><path id="1206" transform="matrix(1 0 0 -1 0 792)" d="M153.403 525.201L153.403 538.768" stroke="#000000" stroke-width="0.398" fill="none" /><path id="1212" transform="matrix(1 0 0 -1 0 792)" d="M190.065 529.483L193.054 529.483" stroke="#000000" stroke-width="0.398" fill="none" /><path id="1216" transform="matrix(1 0 0 -1 0 792)" d="M211.585 529.483L214.574 529.483" stroke="#000000" stroke-width="0.398" fill="none" /><path id="1218" transform="matrix(1 0 0 -1 0 792)" d="M221.149 529.483L224.138 529.483" stroke="#000000" stroke-width="0.398" fill="none" /><path id="1221" transform="matrix(1 0 0 -1 0 792)" d="M236.69 529.483L239.679 529.483" stroke="#000000" stroke-width="0.398" fill="none" /><path id="1223" transform="matrix(1 0 0 -1 0 792)" d="M345.756 525.201L345.756 538.768" stroke="#000000" stroke-width="0.398" fill="none" /><path id="1225" transform="matrix(1 0 0 -1 0 792)" d="M404.778 525.201L404.778 538.768" stroke="#000000" stroke-width="0.398" fill="none" /><path id="1227" transform="matrix(1 0 0 -1 0 792)" d="M463.801 525.201L463.801 538.768" stroke="#000000" stroke-width="0.398" fill="none" /><path id="1229" transform="matrix(1 0 0 -1 0 792)" d="M493.118 525.201L493.118 538.768" stroke="#000000" stroke-width="0.398" fill="none" /><path id="1230" transform="matrix(1 0 0 -1 0 792)" d="M153.204 525.002L493.317 525.002" stroke="#000000" stroke-width="0.398" fill="none" /><path id="1231" transform="matrix(1 0 0 -1 0 792)" d="M153.403 511.236L153.403 524.803" stroke="#000000" stroke-width="0.398" fill="none" /><path id="1237" transform="matrix(1 0 0 -1 0 792)" d="M190.065 515.518L193.054 515.518" stroke="#000000" stroke-width="0.398" fill="none" /><path id="1241" transform="matrix(1 0 0 -1 0 792)" d="M211.585 515.518L214.574 515.518" stroke="#000000" stroke-width="0.398" fill="none" /><path id="1243" transform="matrix(1 0 0 -1 0 792)" d="M221.149 515.518L224.138 515.518" stroke="#000000" stroke-width="0.398" fill="none" /><path id="1246" transform="matrix(1 0 0 -1 0 792)" d="M236.69 515.518L239.679 515.518" stroke="#000000" stroke-width="0.398" fill="none" /><path id="1248" transform="matrix(1 0 0 -1 0 792)" d="M345.756 511.236L345.756 524.803" stroke="#000000" stroke-width="0.398" fill="none" /><path id="1250" transform="matrix(1 0 0 -1 0 792)" d="M404.778 511.236L404.778 524.803" stroke="#000000" stroke-width="0.398" fill="none" /><path id="1252" transform="matrix(1 0 0 -1 0 792)" d="M463.801 511.236L463.801 524.803" stroke="#000000" stroke-width="0.398" fill="none" /><path id="1254" transform="matrix(1 0 0 -1 0 792)" d="M493.118 511.236L493.118 524.803" stroke="#000000" stroke-width="0.398" fill="none" /><path id="1255" transform="matrix(1 0 0 -1 0 792)" d="M153.204 511.037L493.317 511.037" stroke="#000000" stroke-width="0.398" fill="none" /><path id="1256" transform="matrix(1 0 0 -1 0 792)" d="M153.403 497.271L153.403 510.838" stroke="#000000" stroke-width="0.398" fill="none" /><path id="1262" transform="matrix(1 0 0 -1 0 792)" d="M190.065 501.552L193.054 501.552" stroke="#000000" stroke-width="0.398" fill="none" /><path id="1266" transform="matrix(1 0 0 -1 0 792)" d="M211.585 501.552L214.574 501.552" stroke="#000000" stroke-width="0.398" fill="none" /><path id="1268" transform="matrix(1 0 0 -1 0 792)" d="M221.149 501.552L224.138 501.552" stroke="#000000" stroke-width="0.398" fill="none" /><path id="1271" transform="matrix(1 0 0 -1 0 792)" d="M236.69 501.552L239.679 501.552" stroke="#000000" stroke-width="0.398" fill="none" /><path id="1273" transform="matrix(1 0 0 -1 0 792)" d="M345.756 497.271L345.756 510.838" stroke="#000000" stroke-width="0.398" fill="none" /><path id="1275" transform="matrix(1 0 0 -1 0 792)" d="M404.778 497.271L404.778 510.838" stroke="#000000" stroke-width="0.398" fill="none" /><path id="1277" transform="matrix(1 0 0 -1 0 792)" d="M463.801 497.271L463.801 510.838" stroke="#000000" stroke-width="0.398" fill="none" /><path id="1279" transform="matrix(1 0 0 -1 0 792)" d="M493.118 497.271L493.118 510.838" stroke="#000000" stroke-width="0.398" fill="none" /><path id="1280" transform="matrix(1 0 0 -1 0 792)" d="M153.204 497.072L493.317 497.072" stroke="#000000" stroke-width="0.398" fill="none" /><path id="1281" transform="matrix(1 0 0 -1 0 792)" d="M153.403 483.306L153.403 496.873" stroke="#000000" stroke-width="0.398" fill="none" /><path id="1287" transform="matrix(1 0 0 -1 0 792)" d="M190.065 487.587L193.054 487.587" stroke="#000000" stroke-width="0.398" fill="none" /><path id="1291" transform="matrix(1 0 0 -1 0 792)" d="M211.585 487.587L214.574 487.587" stroke="#000000" stroke-width="0.398" fill="none" /><path id="1293" transform="matrix(1 0 0 -1 0 792)" d="M219.594 487.587L222.583 487.587" stroke="#000000" stroke-width="0.398" fill="none" /><path id="1296" transform="matrix(1 0 0 -1 0 792)" d="M235.136 487.587L238.125 487.587" stroke="#000000" stroke-width="0.398" fill="none" /><path id="1298" transform="matrix(1 0 0 -1 0 792)" d="M243.146 487.587L246.135 487.587" stroke="#000000" stroke-width="0.398" fill="none" /><path id="1303" transform="matrix(1 0 0 -1 0 792)" d="M345.756 483.306L345.756 496.873" stroke="#000000" stroke-width="0.398" fill="none" /><path id="1305" transform="matrix(1 0 0 -1 0 792)" d="M404.778 483.306L404.778 496.873" stroke="#000000" stroke-width="0.398" fill="none" /><path id="1307" transform="matrix(1 0 0 -1 0 792)" d="M463.801 483.306L463.801 496.873" stroke="#000000" stroke-width="0.398" fill="none" /><path id="1309" transform="matrix(1 0 0 -1 0 792)" d="M493.118 483.306L493.118 496.873" stroke="#000000" stroke-width="0.398" fill="none" /><path id="1310" transform="matrix(1 0 0 -1 0 792)" d="M153.204 483.106L493.317 483.106" stroke="#000000" stroke-width="0.398" fill="none" /><path id="1311" transform="matrix(1 0 0 -1 0 792)" d="M153.403 469.341L153.403 482.908" stroke="#000000" stroke-width="0.398" fill="none" /><path id="1316" transform="matrix(1 0 0 -1 0 792)" d="M184.088 473.622L187.077 473.622" stroke="#000000" stroke-width="0.398" fill="none" /><path id="1323" transform="matrix(1 0 0 -1 0 792)" d="M345.756 469.341L345.756 482.908" stroke="#000000" stroke-width="0.398" fill="none" /><path id="1325" transform="matrix(1 0 0 -1 0 792)" d="M404.778 469.341L404.778 482.908" stroke="#000000" stroke-width="0.398" fill="none" /><path id="1327" transform="matrix(1 0 0 -1 0 792)" d="M463.801 469.341L463.801 482.908" stroke="#000000" stroke-width="0.398" fill="none" /><path id="1329" transform="matrix(1 0 0 -1 0 792)" d="M493.118 469.341L493.118 482.908" stroke="#000000" stroke-width="0.398" fill="none" /><path id="1330" transform="matrix(1 0 0 -1 0 792)" d="M153.204 469.141L493.317 469.141" stroke="#000000" stroke-width="0.398" fill="none" /><path id="1354" transform="matrix(1 0 0 -1 0 792)" d="M153.204 421.611L493.317 421.611" stroke="#000000" stroke-width="0.398" fill="none" /><path id="1355" transform="matrix(1 0 0 -1 0 792)" d="M153.403 407.845L153.403 421.412" stroke="#000000" stroke-width="0.398" fill="none" /><path id="1356" transform="matrix(1 0 0 -1 0 792)" d="M153.602 407.845L345.557 407.845L345.557 421.412L153.602 421.412z" stroke="none" fill="#CCCCEB" fill-rule="nonzero" /><path id="1362" transform="matrix(1 0 0 -1 0 792)" d="M345.756 407.845L345.756 421.412" stroke="#000000" stroke-width="0.398" fill="none" /><path id="1363" transform="matrix(1 0 0 -1 0 792)" d="M345.956 407.845L404.58 407.845L404.58 421.412L345.956 421.412z" stroke="none" fill="#CCCCEB" fill-rule="nonzero" /><path id="1373" transform="matrix(1 0 0 -1 0 792)" d="M404.778 407.845L404.778 421.412" stroke="#000000" stroke-width="0.398" fill="none" /><path id="1374" transform="matrix(1 0 0 -1 0 792)" d="M404.978 407.845L463.602 407.845L463.602 421.412L404.978 421.412z" stroke="none" fill="#CCCCEB" fill-rule="nonzero" /><path id="1382" transform="matrix(1 0 0 -1 0 792)" d="M463.801 407.845L463.801 421.412" stroke="#000000" stroke-width="0.398" fill="none" /><path id="1383" transform="matrix(1 0 0 -1 0 792)" d="M464 407.845L492.919 407.845L492.919 421.412L464 421.412z" stroke="none" fill="#CCCCEB" fill-rule="nonzero" /><path id="1387" transform="matrix(1 0 0 -1 0 792)" d="M493.118 407.845L493.118 421.412" stroke="#000000" stroke-width="0.398" fill="none" /><path id="1388" transform="matrix(1 0 0 -1 0 792)" d="M153.403 394.279L153.403 407.846" stroke="#000000" stroke-width="0.398" fill="none" /><path id="1389" transform="matrix(1 0 0 -1 0 792)" d="M153.602 394.279L345.557 394.279L345.557 407.846L153.602 407.846z" stroke="none" fill="#CCCCEB" fill-rule="nonzero" /><path id="1390" transform="matrix(1 0 0 -1 0 792)" d="M345.756 394.279L345.756 407.846" stroke="#000000" stroke-width="0.398" fill="none" /><path id="1391" transform="matrix(1 0 0 -1 0 792)" d="M345.956 394.279L404.58 394.279L404.58 407.846L345.956 407.846z" stroke="none" fill="#CCCCEB" fill-rule="nonzero" /><path id="1392" transform="matrix(1 0 0 -1 0 792)" d="M404.778 394.279L404.778 407.846" stroke="#000000" stroke-width="0.398" fill="none" /><path id="1393" transform="matrix(1 0 0 -1 0 792)" d="M404.978 394.279L463.602 394.279L463.602 407.846L404.978 407.846z" stroke="none" fill="#CCCCEB" fill-rule="nonzero" /><path id="1399" transform="matrix(1 0 0 -1 0 792)" d="M463.801 394.279L463.801 407.846" stroke="#000000" stroke-width="0.398" fill="none" /><path id="1400" transform="matrix(1 0 0 -1 0 792)" d="M464 394.279L492.919 394.279L492.919 407.846L464 407.846z" stroke="none" fill="#CCCCEB" fill-rule="nonzero" /><path id="1401" transform="matrix(1 0 0 -1 0 792)" d="M493.118 394.279L493.118 407.846" stroke="#000000" stroke-width="0.398" fill="none" /><path id="1402" transform="matrix(1 0 0 -1 0 792)" d="M153.204 394.08L493.317 394.08" stroke="#000000" stroke-width="0.398" fill="none" /><path id="1403" transform="matrix(1 0 0 -1 0 792)" d="M153.204 391.689L493.317 391.689" stroke="#000000" stroke-width="0.398" fill="none" /><path id="1404" transform="matrix(1 0 0 -1 0 792)" d="M153.403 377.923L153.403 391.49" stroke="#000000" stroke-width="0.398" fill="none" /><path id="1410" transform="matrix(1 0 0 -1 0 792)" d="M345.756 377.923L345.756 391.49" stroke="#000000" stroke-width="0.398" fill="none" /><path id="1412" transform="matrix(1 0 0 -1 0 792)" d="M404.778 377.923L404.778 391.49" stroke="#000000" stroke-width="0.398" fill="none" /><path id="1414" transform="matrix(1 0 0 -1 0 792)" d="M463.801 377.923L463.801 391.49" stroke="#000000" stroke-width="0.398" fill="none" /><path id="1416" transform="matrix(1 0 0 -1 0 792)" d="M493.118 377.923L493.118 391.49" stroke="#000000" stroke-width="0.398" fill="none" /><path id="1417" transform="matrix(1 0 0 -1 0 792)" d="M153.204 377.723L493.317 377.723" stroke="#000000" stroke-width="0.398" fill="none" /><path id="1418" transform="matrix(1 0 0 -1 0 792)" d="M153.403 363.957L153.403 377.524" stroke="#000000" stroke-width="0.398" fill="none" /><path id="1424" transform="matrix(1 0 0 -1 0 792)" d="M345.756 363.957L345.756 377.524" stroke="#000000" stroke-width="0.398" fill="none" /><path id="1426" transform="matrix(1 0 0 -1 0 792)" d="M404.778 363.957L404.778 377.524" stroke="#000000" stroke-width="0.398" fill="none" /><path id="1428" transform="matrix(1 0 0 -1 0 792)" d="M463.801 363.957L463.801 377.524" stroke="#000000" stroke-width="0.398" fill="none" /><path id="1430" transform="matrix(1 0 0 -1 0 792)" d="M493.118 363.957L493.118 377.524" stroke="#000000" stroke-width="0.398" fill="none" /><path id="1431" transform="matrix(1 0 0 -1 0 792)" d="M153.204 363.758L493.317 363.758" stroke="#000000" stroke-width="0.398" fill="none" /><path id="1432" transform="matrix(1 0 0 -1 0 792)" d="M153.403 349.992L153.403 363.559" stroke="#000000" stroke-width="0.398" fill="none" /><path id="1439" transform="matrix(1 0 0 -1 0 792)" d="M345.756 349.992L345.756 363.559" stroke="#000000" stroke-width="0.398" fill="none" /><path id="1441" transform="matrix(1 0 0 -1 0 792)" d="M404.778 349.992L404.778 363.559" stroke="#000000" stroke-width="0.398" fill="none" /><path id="1443" transform="matrix(1 0 0 -1 0 792)" d="M463.801 349.992L463.801 363.559" stroke="#000000" stroke-width="0.398" fill="none" /><path id="1445" transform="matrix(1 0 0 -1 0 792)" d="M493.118 349.992L493.118 363.559" stroke="#000000" stroke-width="0.398" fill="none" /><path id="1446" transform="matrix(1 0 0 -1 0 792)" d="M153.204 349.793L493.317 349.793" stroke="#000000" stroke-width="0.398" fill="none" /><path id="1447" transform="matrix(1 0 0 -1 0 792)" d="M153.403 336.027L153.403 349.594" stroke="#000000" stroke-width="0.398" fill="none" /><path id="1452" transform="matrix(1 0 0 -1 0 792)" d="M184.088 340.309L187.077 340.309" stroke="#000000" stroke-width="0.398" fill="none" /><path id="1454" transform="matrix(1 0 0 -1 0 792)" d="M345.756 336.027L345.756 349.594" stroke="#000000" stroke-width="0.398" fill="none" /><path id="1456" transform="matrix(1 0 0 -1 0 792)" d="M404.778 336.027L404.778 349.594" stroke="#000000" stroke-width="0.398" fill="none" /><path id="1458" transform="matrix(1 0 0 -1 0 792)" d="M463.801 336.027L463.801 349.594" stroke="#000000" stroke-width="0.398" fill="none" /><path id="1460" transform="matrix(1 0 0 -1 0 792)" d="M493.118 336.027L493.118 349.594" stroke="#000000" stroke-width="0.398" fill="none" /><path id="1461" transform="matrix(1 0 0 -1 0 792)" d="M153.204 335.828L493.317 335.828" stroke="#000000" stroke-width="0.398" fill="none" /><path id="1462" transform="matrix(1 0 0 -1 0 792)" d="M153.403 322.062L153.403 335.629" stroke="#000000" stroke-width="0.398" fill="none" /><path id="1467" transform="matrix(1 0 0 -1 0 792)" d="M184.088 326.344L187.077 326.344" stroke="#000000" stroke-width="0.398" fill="none" /><path id="1469" transform="matrix(1 0 0 -1 0 792)" d="M345.756 322.062L345.756 335.629" stroke="#000000" stroke-width="0.398" fill="none" /><path id="1471" transform="matrix(1 0 0 -1 0 792)" d="M404.778 322.062L404.778 335.629" stroke="#000000" stroke-width="0.398" fill="none" /><path id="1473" transform="matrix(1 0 0 -1 0 792)" d="M463.801 322.062L463.801 335.629" stroke="#000000" stroke-width="0.398" fill="none" /><path id="1475" transform="matrix(1 0 0 -1 0 792)" d="M493.118 322.062L493.118 335.629" stroke="#000000" stroke-width="0.398" fill="none" /><path id="1476" transform="matrix(1 0 0 -1 0 792)" d="M153.204 321.863L493.317 321.863" stroke="#000000" stroke-width="0.398" fill="none" /><path id="1477" transform="matrix(1 0 0 -1 0 792)" d="M153.403 308.097L153.403 321.664" stroke="#000000" stroke-width="0.398" fill="none" /><path id="1482" transform="matrix(1 0 0 -1 0 792)" d="M184.088 312.378L187.077 312.378" stroke="#000000" stroke-width="0.398" fill="none" /><path id="1487" transform="matrix(1 0 0 -1 0 792)" d="M211.585 312.378L214.574 312.378" stroke="#000000" stroke-width="0.398" fill="none" /><path id="1494" transform="matrix(1 0 0 -1 0 792)" d="M345.756 308.097L345.756 321.664" stroke="#000000" stroke-width="0.398" fill="none" /><path id="1496" transform="matrix(1 0 0 -1 0 792)" d="M404.778 308.097L404.778 321.664" stroke="#000000" stroke-width="0.398" fill="none" /><path id="1498" transform="matrix(1 0 0 -1 0 792)" d="M463.801 308.097L463.801 321.664" stroke="#000000" stroke-width="0.398" fill="none" /><path id="1500" transform="matrix(1 0 0 -1 0 792)" d="M493.118 308.097L493.118 321.664" stroke="#000000" stroke-width="0.398" fill="none" /><path id="1501" transform="matrix(1 0 0 -1 0 792)" d="M153.204 307.898L493.317 307.898" stroke="#000000" stroke-width="0.398" fill="none" /><path id="1502" transform="matrix(1 0 0 -1 0 792)" d="M153.403 294.132L153.403 307.699" stroke="#000000" stroke-width="0.398" fill="none" /><path id="1507" transform="matrix(1 0 0 -1 0 792)" d="M184.088 298.413L187.077 298.413" stroke="#000000" stroke-width="0.398" fill="none" /><path id="1512" transform="matrix(1 0 0 -1 0 792)" d="M211.585 298.413L214.574 298.413" stroke="#000000" stroke-width="0.398" fill="none" /><path id="1519" transform="matrix(1 0 0 -1 0 792)" d="M345.756 294.132L345.756 307.699" stroke="#000000" stroke-width="0.398" fill="none" /><path id="1521" transform="matrix(1 0 0 -1 0 792)" d="M404.778 294.132L404.778 307.699" stroke="#000000" stroke-width="0.398" fill="none" /><path id="1523" transform="matrix(1 0 0 -1 0 792)" d="M463.801 294.132L463.801 307.699" stroke="#000000" stroke-width="0.398" fill="none" /><path id="1525" transform="matrix(1 0 0 -1 0 792)" d="M493.118 294.132L493.118 307.699" stroke="#000000" stroke-width="0.398" fill="none" /><path id="1526" transform="matrix(1 0 0 -1 0 792)" d="M153.204 293.932L493.317 293.932" stroke="#000000" stroke-width="0.398" fill="none" /><path id="1527" transform="matrix(1 0 0 -1 0 792)" d="M153.403 280.167L153.403 293.734" stroke="#000000" stroke-width="0.398" fill="none" /><path id="1532" transform="matrix(1 0 0 -1 0 792)" d="M184.088 284.448L187.077 284.448" stroke="#000000" stroke-width="0.398" fill="none" /><path id="1537" transform="matrix(1 0 0 -1 0 792)" d="M211.585 284.448L214.574 284.448" stroke="#000000" stroke-width="0.398" fill="none" /><path id="1546" transform="matrix(1 0 0 -1 0 792)" d="M345.756 280.167L345.756 293.734" stroke="#000000" stroke-width="0.398" fill="none" /><path id="1548" transform="matrix(1 0 0 -1 0 792)" d="M404.778 280.167L404.778 293.734" stroke="#000000" stroke-width="0.398" fill="none" /><path id="1550" transform="matrix(1 0 0 -1 0 792)" d="M463.801 280.167L463.801 293.734" stroke="#000000" stroke-width="0.398" fill="none" /><path id="1552" transform="matrix(1 0 0 -1 0 792)" d="M493.118 280.167L493.118 293.734" stroke="#000000" stroke-width="0.398" fill="none" /><path id="1553" transform="matrix(1 0 0 -1 0 792)" d="M153.204 279.967L493.317 279.967" stroke="#000000" stroke-width="0.398" fill="none" /><path id="1554" transform="matrix(1 0 0 -1 0 792)" d="M153.403 266.201L153.403 279.768" stroke="#000000" stroke-width="0.398" fill="none" /><path id="1559" transform="matrix(1 0 0 -1 0 792)" d="M184.088 270.483L187.077 270.483" stroke="#000000" stroke-width="0.398" fill="none" /><path id="1564" transform="matrix(1 0 0 -1 0 792)" d="M211.585 270.483L214.574 270.483" stroke="#000000" stroke-width="0.398" fill="none" /><path id="1573" transform="matrix(1 0 0 -1 0 792)" d="M345.756 266.201L345.756 279.768" stroke="#000000" stroke-width="0.398" fill="none" /><path id="1575" transform="matrix(1 0 0 -1 0 792)" d="M404.778 266.201L404.778 279.768" stroke="#000000" stroke-width="0.398" fill="none" /><path id="1577" transform="matrix(1 0 0 -1 0 792)" d="M463.801 266.201L463.801 279.768" stroke="#000000" stroke-width="0.398" fill="none" /><path id="1579" transform="matrix(1 0 0 -1 0 792)" d="M493.118 266.201L493.118 279.768" stroke="#000000" stroke-width="0.398" fill="none" /><path id="1580" transform="matrix(1 0 0 -1 0 792)" d="M153.204 266.002L493.317 266.002" stroke="#000000" stroke-width="0.398" fill="none" /><path id="1581" transform="matrix(1 0 0 -1 0 792)" d="M153.403 252.236L153.403 265.803" stroke="#000000" stroke-width="0.398" fill="none" /><path id="1586" transform="matrix(1 0 0 -1 0 792)" d="M184.088 256.518L187.077 256.518" stroke="#000000" stroke-width="0.398" fill="none" /><path id="1593" transform="matrix(1 0 0 -1 0 792)" d="M345.756 252.236L345.756 265.803" stroke="#000000" stroke-width="0.398" fill="none" /><path id="1595" transform="matrix(1 0 0 -1 0 792)" d="M404.778 252.236L404.778 265.803" stroke="#000000" stroke-width="0.398" fill="none" /><path id="1597" transform="matrix(1 0 0 -1 0 792)" d="M463.801 252.236L463.801 265.803" stroke="#000000" stroke-width="0.398" fill="none" /><path id="1599" transform="matrix(1 0 0 -1 0 792)" d="M493.118 252.236L493.118 265.803" stroke="#000000" stroke-width="0.398" fill="none" /><path id="1600" transform="matrix(1 0 0 -1 0 792)" d="M153.204 252.037L493.317 252.037" stroke="#000000" stroke-width="0.398" fill="none" /><path id="1621" transform="matrix(1 0 0 -1 0 792)" d="M132.346 204.507L514.175 204.507" stroke="#000000" stroke-width="0.398" fill="none" /><path id="1622" transform="matrix(1 0 0 -1 0 792)" d="M132.545 190.741L132.545 204.308" stroke="#000000" stroke-width="0.398" fill="none" /><path id="1623" transform="matrix(1 0 0 -1 0 792)" d="M132.744 190.741L324.699 190.741L324.699 204.308L132.744 204.308z" stroke="none" fill="#CCCCEB" fill-rule="nonzero" /><path id="1629" transform="matrix(1 0 0 -1 0 792)" d="M324.898 190.741L324.898 204.308" stroke="#000000" stroke-width="0.398" fill="none" /><path id="1630" transform="matrix(1 0 0 -1 0 792)" d="M325.098 190.741L383.722 190.741L383.722 204.308L325.098 204.308z" stroke="none" fill="#CCCCEB" fill-rule="nonzero" /><path id="1640" transform="matrix(1 0 0 -1 0 792)" d="M383.921 190.741L383.921 204.308" stroke="#000000" stroke-width="0.398" fill="none" /><path id="1641" transform="matrix(1 0 0 -1 0 792)" d="M384.12 190.741L442.744 190.741L442.744 204.308L384.12 204.308z" stroke="none" fill="#CCCCEB" fill-rule="nonzero" /><path id="1649" transform="matrix(1 0 0 -1 0 792)" d="M442.943 190.741L442.943 204.308" stroke="#000000" stroke-width="0.398" fill="none" /><path id="1650" transform="matrix(1 0 0 -1 0 792)" d="M443.142 190.741L513.776 190.741L513.776 204.308L443.142 204.308z" stroke="none" fill="#CCCCEB" fill-rule="nonzero" /><path id="1654" transform="matrix(1 0 0 -1 0 792)" d="M513.976 190.741L513.976 204.308" stroke="#000000" stroke-width="0.398" fill="none" /><path id="1655" transform="matrix(1 0 0 -1 0 792)" d="M132.545 177.175L132.545 190.742" stroke="#000000" stroke-width="0.398" fill="none" /><path id="1656" transform="matrix(1 0 0 -1 0 792)" d="M132.744 177.175L324.699 177.175L324.699 190.742L132.744 190.742z" stroke="none" fill="#CCCCEB" fill-rule="nonzero" /><path id="1657" transform="matrix(1 0 0 -1 0 792)" d="M324.898 177.175L324.898 190.742" stroke="#000000" stroke-width="0.398" fill="none" /><path id="1658" transform="matrix(1 0 0 -1 0 792)" d="M325.098 177.175L383.722 177.175L383.722 190.742L325.098 190.742z" stroke="none" fill="#CCCCEB" fill-rule="nonzero" /><path id="1659" transform="matrix(1 0 0 -1 0 792)" d="M383.921 177.175L383.921 190.742" stroke="#000000" stroke-width="0.398" fill="none" /><path id="1660" transform="matrix(1 0 0 -1 0 792)" d="M384.12 177.175L442.744 177.175L442.744 190.742L384.12 190.742z" stroke="none" fill="#CCCCEB" fill-rule="nonzero" /><path id="1666" transform="matrix(1 0 0 -1 0 792)" d="M442.943 177.175L442.943 190.742" stroke="#000000" stroke-width="0.398" fill="none" /><path id="1667" transform="matrix(1 0 0 -1 0 792)" d="M443.142 177.175L513.776 177.175L513.776 190.742L443.142 190.742z" stroke="none" fill="#CCCCEB" fill-rule="nonzero" /><path id="1668" transform="matrix(1 0 0 -1 0 792)" d="M513.976 177.175L513.976 190.742" stroke="#000000" stroke-width="0.398" fill="none" /><path id="1669" transform="matrix(1 0 0 -1 0 792)" d="M132.346 176.975L514.175 176.975" stroke="#000000" stroke-width="0.398" fill="none" /><path id="1670" transform="matrix(1 0 0 -1 0 792)" d="M132.346 174.584L514.175 174.584" stroke="#000000" stroke-width="0.398" fill="none" /><path id="1671" transform="matrix(1 0 0 -1 0 792)" d="M132.545 160.818L132.545 174.385" stroke="#000000" stroke-width="0.398" fill="none" /><path id="1678" transform="matrix(1 0 0 -1 0 792)" d="M175.185 165.1L178.174 165.1" stroke="#000000" stroke-width="0.398" fill="none" /><path id="1683" transform="matrix(1 0 0 -1 0 792)" d="M324.898 160.818L324.898 174.385" stroke="#000000" stroke-width="0.398" fill="none" /><path id="1685" transform="matrix(1 0 0 -1 0 792)" d="M383.921 160.818L383.921 174.385" stroke="#000000" stroke-width="0.398" fill="none" /><path id="1687" transform="matrix(1 0 0 -1 0 792)" d="M442.943 160.818L442.943 174.385" stroke="#000000" stroke-width="0.398" fill="none" /><path id="1699" transform="matrix(1 0 0 -1 0 792)" d="M513.976 160.818L513.976 174.385" stroke="#000000" stroke-width="0.398" fill="none" /><path id="1700" transform="matrix(1 0 0 -1 0 792)" d="M132.346 160.619L514.175 160.619" stroke="#000000" stroke-width="0.398" fill="none" /><path id="1701" transform="matrix(1 0 0 -1 0 792)" d="M132.545 146.853L132.545 160.42" stroke="#000000" stroke-width="0.398" fill="none" /><path id="1708" transform="matrix(1 0 0 -1 0 792)" d="M175.185 151.135L178.174 151.135" stroke="#000000" stroke-width="0.398" fill="none" /><path id="1715" transform="matrix(1 0 0 -1 0 792)" d="M324.898 146.853L324.898 160.42" stroke="#000000" stroke-width="0.398" fill="none" /><path id="1717" transform="matrix(1 0 0 -1 0 792)" d="M383.921 146.853L383.921 160.42" stroke="#000000" stroke-width="0.398" fill="none" /><path id="1723" transform="matrix(1 0 0 -1 0 792)" d="M442.943 146.853L442.943 160.42" stroke="#000000" stroke-width="0.398" fill="none" /><path id="1735" transform="matrix(1 0 0 -1 0 792)" d="M513.976 146.853L513.976 160.42" stroke="#000000" stroke-width="0.398" fill="none" /><path id="1736" transform="matrix(1 0 0 -1 0 792)" d="M132.346 146.654L514.175 146.654" stroke="#000000" stroke-width="0.398" fill="none" /><path id="1737" transform="matrix(1 0 0 -1 0 792)" d="M132.545 132.888L132.545 146.455" stroke="#000000" stroke-width="0.398" fill="none" /><path id="1745" transform="matrix(1 0 0 -1 0 792)" d="M181.162 137.17L184.151 137.17" stroke="#000000" stroke-width="0.398" fill="none" /><path id="1752" transform="matrix(1 0 0 -1 0 792)" d="M324.898 132.888L324.898 146.455" stroke="#000000" stroke-width="0.398" fill="none" /><path id="1754" transform="matrix(1 0 0 -1 0 792)" d="M383.921 132.888L383.921 146.455" stroke="#000000" stroke-width="0.398" fill="none" /><path id="1760" transform="matrix(1 0 0 -1 0 792)" d="M442.943 132.888L442.943 146.455" stroke="#000000" stroke-width="0.398" fill="none" /><path id="1772" transform="matrix(1 0 0 -1 0 792)" d="M513.976 132.888L513.976 146.455" stroke="#000000" stroke-width="0.398" fill="none" /><path id="1773" transform="matrix(1 0 0 -1 0 792)" d="M132.346 132.689L514.175 132.689" stroke="#000000" stroke-width="0.398" fill="none" /><path id="1774" transform="matrix(1 0 0 -1 0 792)" d="M132.545 118.923L132.545 132.49" stroke="#000000" stroke-width="0.398" fill="none" /><path id="1779" transform="matrix(1 0 0 -1 0 792)" d="M163.23 123.204L166.219 123.204" stroke="#000000" stroke-width="0.398" fill="none" /><path id="1783" transform="matrix(1 0 0 -1 0 792)" d="M184.749 123.204L187.738 123.204" stroke="#000000" stroke-width="0.398" fill="none" /><path id="1790" transform="matrix(1 0 0 -1 0 792)" d="M324.898 118.923L324.898 132.49" stroke="#000000" stroke-width="0.398" fill="none" /><path id="1792" transform="matrix(1 0 0 -1 0 792)" d="M383.921 118.923L383.921 132.49" stroke="#000000" stroke-width="0.398" fill="none" /><path id="1794" transform="matrix(1 0 0 -1 0 792)" d="M442.943 118.923L442.943 132.49" stroke="#000000" stroke-width="0.398" fill="none" /><path id="1806" transform="matrix(1 0 0 -1 0 792)" d="M513.976 118.923L513.976 132.49" stroke="#000000" stroke-width="0.398" fill="none" /><path id="1807" transform="matrix(1 0 0 -1 0 792)" d="M132.346 118.724L514.175 118.724" stroke="#000000" stroke-width="0.398" fill="none" /><path id="1808" transform="matrix(1 0 0 -1 0 792)" d="M132.545 104.958L132.545 118.525" stroke="#000000" stroke-width="0.398" fill="none" /><path id="1815" transform="matrix(1 0 0 -1 0 792)" d="M175.185 109.239L178.174 109.239" stroke="#000000" stroke-width="0.398" fill="none" /><path id="1822" transform="matrix(1 0 0 -1 0 792)" d="M214.637 109.239L217.626 109.239" stroke="#000000" stroke-width="0.398" fill="none" /><path id="1829" transform="matrix(1 0 0 -1 0 792)" d="M324.898 104.958L324.898 118.525" stroke="#000000" stroke-width="0.398" fill="none" /><path id="1831" transform="matrix(1 0 0 -1 0 792)" d="M383.921 104.958L383.921 118.525" stroke="#000000" stroke-width="0.398" fill="none" /><path id="1833" transform="matrix(1 0 0 -1 0 792)" d="M442.943 104.958L442.943 118.525" stroke="#000000" stroke-width="0.398" fill="none" /><path id="1845" transform="matrix(1 0 0 -1 0 792)" d="M513.976 104.958L513.976 118.525" stroke="#000000" stroke-width="0.398" fill="none" /><path id="1846" transform="matrix(1 0 0 -1 0 792)" d="M132.346 104.759L514.175 104.759" stroke="#000000" stroke-width="0.398" fill="none" /></g></g></svg>