<svg xmlns="http://www.w3.org/2000/svg" xmlns:xlink="http://www.w3.org/1999/xlink" id="body_70" preserveAspectRatio="xMinYMin meet" viewBox="0 0 1632 1056"><defs><clipPath id="1"><path id="" clip-rule="evenodd" transform="matrix(1 0 0 1 0 0)" d="M0 792L0 0L0 0L1224 0L1224 0L1224 792L1224 792L0 792z" /></clipPath></defs><g transform="matrix(1.333333 0 0 1.333333 0 0)"><g clip-path="url(#1)"><path id="1" transform="matrix(1 0 0 -1 0 792)" d="M666.067 721.28L1132.722 721.28" stroke="#000000" stroke-width="0.498" fill="none" /><path id="2" transform="matrix(1 0 0 -1 0 792)" d="M709.702 654.049L1089.088 654.049" stroke="#000000" stroke-width="0.398" fill="none" /><path id="3" transform="matrix(1 0 0 -1 0 792)" d="M709.901 640.283L709.901 653.85" stroke="#000000" stroke-width="0.398" fill="none" /><path id="4" transform="matrix(1 0 0 -1 0 792)" d="M710.1 640.283L902.055 640.283L902.055 653.85L710.1 653.85z" stroke="none" fill="#CCCCEB" fill-rule="nonzero" /><path id="10" transform="matrix(1 0 0 -1 0 792)" d="M902.255 640.283L902.255 653.85" stroke="#000000" stroke-width="0.398" fill="none" /><path id="11" transform="matrix(1 0 0 -1 0 792)" d="M902.454 640.283L961.078 640.283L961.078 653.85L902.454 653.85z" stroke="none" fill="#CCCCEB" fill-rule="nonzero" /><path id="21" transform="matrix(1 0 0 -1 0 792)" d="M961.277 640.283L961.277 653.85" stroke="#000000" stroke-width="0.398" fill="none" /><path id="22" transform="matrix(1 0 0 -1 0 792)" d="M961.476 640.283L1020.1 640.283L1020.1 653.85L961.476 653.85z" stroke="none" fill="#CCCCEB" fill-rule="nonzero" /><path id="30" transform="matrix(1 0 0 -1 0 792)" d="M1020.299 640.283L1020.299 653.85" stroke="#000000" stroke-width="0.398" fill="none" /><path id="31" transform="matrix(1 0 0 -1 0 792)" d="M1020.498 640.283L1088.689 640.283L1088.689 653.85L1020.498 653.85z" stroke="none" fill="#CCCCEB" fill-rule="nonzero" /><path id="35" transform="matrix(1 0 0 -1 0 792)" d="M1088.888 640.283L1088.888 653.85" stroke="#000000" stroke-width="0.398" fill="none" /><path id="36" transform="matrix(1 0 0 -1 0 792)" d="M709.901 626.716L709.901 640.283" stroke="#000000" stroke-width="0.398" fill="none" /><path id="37" transform="matrix(1 0 0 -1 0 792)" d="M710.1 626.716L902.055 626.716L902.055 640.283L710.1 640.283z" stroke="none" fill="#CCCCEB" fill-rule="nonzero" /><path id="38" transform="matrix(1 0 0 -1 0 792)" d="M902.255 626.716L902.255 640.283" stroke="#000000" stroke-width="0.398" fill="none" /><path id="39" transform="matrix(1 0 0 -1 0 792)" d="M902.454 626.716L961.078 626.716L961.078 640.283L902.454 640.283z" stroke="none" fill="#CCCCEB" fill-rule="nonzero" /><path id="40" transform="matrix(1 0 0 -1 0 792)" d="M961.277 626.716L961.277 640.283" stroke="#000000" stroke-width="0.398" fill="none" /><path id="41" transform="matrix(1 0 0 -1 0 792)" d="M961.476 626.716L1020.1 626.716L1020.1 640.283L961.476 640.283z" stroke="none" fill="#CCCCEB" fill-rule="nonzero" /><path id="47" transform="matrix(1 0 0 -1 0 792)" d="M1020.299 626.716L1020.299 640.283" stroke="#000000" stroke-width="0.398" fill="none" /><path id="48" transform="matrix(1 0 0 -1 0 792)" d="M1020.498 626.716L1088.689 626.716L1088.689 640.283L1020.498 640.283z" stroke="none" fill="#CCCCEB" fill-rule="nonzero" /><path id="49" transform="matrix(1 0 0 -1 0 792)" d="M1088.888 626.716L1088.888 640.283" stroke="#000000" stroke-width="0.398" fill="none" /><path id="50" transform="matrix(1 0 0 -1 0 792)" d="M709.702 626.517L1089.088 626.517" stroke="#000000" stroke-width="0.398" fill="none" /><path id="51" transform="matrix(1 0 0 -1 0 792)" d="M709.702 624.126L1089.088 624.126" stroke="#000000" stroke-width="0.398" fill="none" /><path id="52" transform="matrix(1 0 0 -1 0 792)" d="M709.901 610.36L709.901 623.927" stroke="#000000" stroke-width="0.398" fill="none" /><path id="56" transform="matrix(1 0 0 -1 0 792)" d="M734.608 614.641L737.597 614.641" stroke="#000000" stroke-width="0.398" fill="none" /><path id="64" transform="matrix(1 0 0 -1 0 792)" d="M780.038 614.641L783.027 614.641" stroke="#000000" stroke-width="0.398" fill="none" /><path id="70" transform="matrix(1 0 0 -1 0 792)" d="M902.255 610.36L902.255 623.927" stroke="#000000" stroke-width="0.398" fill="none" /><path id="72" transform="matrix(1 0 0 -1 0 792)" d="M961.277 610.36L961.277 623.927" stroke="#000000" stroke-width="0.398" fill="none" /><path id="74" transform="matrix(1 0 0 -1 0 792)" d="M1020.299 610.36L1020.299 623.927" stroke="#000000" stroke-width="0.398" fill="none" /><path id="76" transform="matrix(1 0 0 -1 0 792)" d="M1088.888 610.36L1088.888 623.927" stroke="#000000" stroke-width="0.398" fill="none" /><path id="77" transform="matrix(1 0 0 -1 0 792)" d="M709.702 610.161L1089.088 610.161" stroke="#000000" stroke-width="0.398" fill="none" /><path id="78" transform="matrix(1 0 0 -1 0 792)" d="M709.901 596.395L709.901 609.962" stroke="#000000" stroke-width="0.398" fill="none" /><path id="82" transform="matrix(1 0 0 -1 0 792)" d="M734.608 600.676L737.597 600.676" stroke="#000000" stroke-width="0.398" fill="none" /><path id="89" transform="matrix(1 0 0 -1 0 792)" d="M774.061 600.676L777.05 600.676" stroke="#000000" stroke-width="0.398" fill="none" /><path id="97" transform="matrix(1 0 0 -1 0 792)" d="M902.255 596.395L902.255 609.962" stroke="#000000" stroke-width="0.398" fill="none" /><path id="99" transform="matrix(1 0 0 -1 0 792)" d="M961.277 596.395L961.277 609.962" stroke="#000000" stroke-width="0.398" fill="none" /><path id="101" transform="matrix(1 0 0 -1 0 792)" d="M1020.299 596.395L1020.299 609.962" stroke="#000000" stroke-width="0.398" fill="none" /><path id="113" transform="matrix(1 0 0 -1 0 792)" d="M1088.888 596.395L1088.888 609.962" stroke="#000000" stroke-width="0.398" fill="none" /><path id="114" transform="matrix(1 0 0 -1 0 792)" d="M709.702 596.195L1089.088 596.195" stroke="#000000" stroke-width="0.398" fill="none" /><path id="115" transform="matrix(1 0 0 -1 0 792)" d="M709.901 582.43L709.901 595.997" stroke="#000000" stroke-width="0.398" fill="none" /><path id="119" transform="matrix(1 0 0 -1 0 792)" d="M734.608 586.711L737.597 586.711" stroke="#000000" stroke-width="0.398" fill="none" /><path id="126" transform="matrix(1 0 0 -1 0 792)" d="M774.061 586.711L777.05 586.711" stroke="#000000" stroke-width="0.398" fill="none" /><path id="134" transform="matrix(1 0 0 -1 0 792)" d="M819.49 586.711L822.479 586.711" stroke="#000000" stroke-width="0.398" fill="none" /><path id="142" transform="matrix(1 0 0 -1 0 792)" d="M902.255 582.43L902.255 595.997" stroke="#000000" stroke-width="0.398" fill="none" /><path id="144" transform="matrix(1 0 0 -1 0 792)" d="M961.277 582.43L961.277 595.997" stroke="#000000" stroke-width="0.398" fill="none" /><path id="148" transform="matrix(1 0 0 -1 0 792)" d="M1020.299 582.43L1020.299 595.997" stroke="#000000" stroke-width="0.398" fill="none" /><path id="160" transform="matrix(1 0 0 -1 0 792)" d="M1088.888 582.43L1088.888 595.997" stroke="#000000" stroke-width="0.398" fill="none" /><path id="161" transform="matrix(1 0 0 -1 0 792)" d="M709.702 582.23L1089.088 582.23" stroke="#000000" stroke-width="0.398" fill="none" /><path id="162" transform="matrix(1 0 0 -1 0 792)" d="M709.901 568.464L709.901 582.031" stroke="#000000" stroke-width="0.398" fill="none" /><path id="166" transform="matrix(1 0 0 -1 0 792)" d="M734.608 572.746L737.597 572.746" stroke="#000000" stroke-width="0.398" fill="none" /><path id="174" transform="matrix(1 0 0 -1 0 792)" d="M780.038 572.746L783.027 572.746" stroke="#000000" stroke-width="0.398" fill="none" /><path id="182" transform="matrix(1 0 0 -1 0 792)" d="M902.255 568.464L902.255 582.031" stroke="#000000" stroke-width="0.398" fill="none" /><path id="184" transform="matrix(1 0 0 -1 0 792)" d="M961.277 568.464L961.277 582.031" stroke="#000000" stroke-width="0.398" fill="none" /><path id="186" transform="matrix(1 0 0 -1 0 792)" d="M1020.299 568.464L1020.299 582.031" stroke="#000000" stroke-width="0.398" fill="none" /><path id="198" transform="matrix(1 0 0 -1 0 792)" d="M1088.888 568.464L1088.888 582.031" stroke="#000000" stroke-width="0.398" fill="none" /><path id="199" transform="matrix(1 0 0 -1 0 792)" d="M709.702 568.265L1089.088 568.265" stroke="#000000" stroke-width="0.398" fill="none" /><path id="200" transform="matrix(1 0 0 -1 0 792)" d="M709.901 540.968L709.901 568.066" stroke="#000000" stroke-width="0.398" fill="none" /><path id="204" transform="matrix(1 0 0 -1 0 792)" d="M734.608 558.781L737.597 558.781" stroke="#000000" stroke-width="0.398" fill="none" /><path id="213" transform="matrix(1 0 0 -1 0 792)" d="M786.016 558.781L789.005 558.781" stroke="#000000" stroke-width="0.398" fill="none" /><path id="221" transform="matrix(1 0 0 -1 0 792)" d="M831.445 558.781L834.434 558.781" stroke="#000000" stroke-width="0.398" fill="none" /><path id="227" transform="matrix(1 0 0 -1 0 792)" d="M864.92 558.781L867.909 558.781" stroke="#000000" stroke-width="0.398" fill="none" /><path id="234" transform="matrix(1 0 0 -1 0 792)" d="M902.255 540.968L902.255 568.066" stroke="#000000" stroke-width="0.398" fill="none" /><path id="236" transform="matrix(1 0 0 -1 0 792)" d="M961.277 540.968L961.277 568.066" stroke="#000000" stroke-width="0.398" fill="none" /><path id="238" transform="matrix(1 0 0 -1 0 792)" d="M1020.299 540.968L1020.299 568.066" stroke="#000000" stroke-width="0.398" fill="none" /><path id="250" transform="matrix(1 0 0 -1 0 792)" d="M1088.888 540.968L1088.888 568.066" stroke="#000000" stroke-width="0.398" fill="none" /><path id="251" transform="matrix(1 0 0 -1 0 792)" d="M709.702 540.768L1089.088 540.768" stroke="#000000" stroke-width="0.398" fill="none" /><path id="252" transform="matrix(1 0 0 -1 0 792)" d="M709.901 527.002L709.901 540.569" stroke="#000000" stroke-width="0.398" fill="none" /><path id="256" transform="matrix(1 0 0 -1 0 792)" d="M734.608 531.284L737.597 531.284" stroke="#000000" stroke-width="0.398" fill="none" /><path id="263" transform="matrix(1 0 0 -1 0 792)" d="M774.061 531.284L777.05 531.284" stroke="#000000" stroke-width="0.398" fill="none" /><path id="271" transform="matrix(1 0 0 -1 0 792)" d="M819.49 531.284L822.479 531.284" stroke="#000000" stroke-width="0.398" fill="none" /><path id="277" transform="matrix(1 0 0 -1 0 792)" d="M852.965 531.284L855.954 531.284" stroke="#000000" stroke-width="0.398" fill="none" /><path id="283" transform="matrix(1 0 0 -1 0 792)" d="M902.255 527.002L902.255 540.569" stroke="#000000" stroke-width="0.398" fill="none" /><path id="285" transform="matrix(1 0 0 -1 0 792)" d="M961.277 527.002L961.277 540.569" stroke="#000000" stroke-width="0.398" fill="none" /><path id="287" transform="matrix(1 0 0 -1 0 792)" d="M1020.299 527.002L1020.299 540.569" stroke="#000000" stroke-width="0.398" fill="none" /><path id="299" transform="matrix(1 0 0 -1 0 792)" d="M1088.888 527.002L1088.888 540.569" stroke="#000000" stroke-width="0.398" fill="none" /><path id="300" transform="matrix(1 0 0 -1 0 792)" d="M709.702 526.803L1089.088 526.803" stroke="#000000" stroke-width="0.398" fill="none" /><path id="301" transform="matrix(1 0 0 -1 0 792)" d="M709.901 513.037L709.901 526.604" stroke="#000000" stroke-width="0.398" fill="none" /><path id="305" transform="matrix(1 0 0 -1 0 792)" d="M734.608 517.319L737.597 517.319" stroke="#000000" stroke-width="0.398" fill="none" /><path id="313" transform="matrix(1 0 0 -1 0 792)" d="M780.038 517.319L783.027 517.319" stroke="#000000" stroke-width="0.398" fill="none" /><path id="319" transform="matrix(1 0 0 -1 0 792)" d="M813.513 517.319L816.502 517.319" stroke="#000000" stroke-width="0.398" fill="none" /><path id="325" transform="matrix(1 0 0 -1 0 792)" d="M902.255 513.037L902.255 526.604" stroke="#000000" stroke-width="0.398" fill="none" /><path id="327" transform="matrix(1 0 0 -1 0 792)" d="M961.277 513.037L961.277 526.604" stroke="#000000" stroke-width="0.398" fill="none" /><path id="329" transform="matrix(1 0 0 -1 0 792)" d="M1020.299 513.037L1020.299 526.604" stroke="#000000" stroke-width="0.398" fill="none" /><path id="341" transform="matrix(1 0 0 -1 0 792)" d="M1088.888 513.037L1088.888 526.604" stroke="#000000" stroke-width="0.398" fill="none" /><path id="342" transform="matrix(1 0 0 -1 0 792)" d="M709.702 512.838L1089.088 512.838" stroke="#000000" stroke-width="0.398" fill="none" /><path id="343" transform="matrix(1 0 0 -1 0 792)" d="M709.901 499.072L709.901 512.639" stroke="#000000" stroke-width="0.398" fill="none" /><path id="347" transform="matrix(1 0 0 -1 0 792)" d="M734.608 503.354L737.597 503.354" stroke="#000000" stroke-width="0.398" fill="none" /><path id="355" transform="matrix(1 0 0 -1 0 792)" d="M780.038 503.354L783.027 503.354" stroke="#000000" stroke-width="0.398" fill="none" /><path id="362" transform="matrix(1 0 0 -1 0 792)" d="M902.255 499.072L902.255 512.639" stroke="#000000" stroke-width="0.398" fill="none" /><path id="364" transform="matrix(1 0 0 -1 0 792)" d="M961.277 499.072L961.277 512.639" stroke="#000000" stroke-width="0.398" fill="none" /><path id="366" transform="matrix(1 0 0 -1 0 792)" d="M1020.299 499.072L1020.299 512.639" stroke="#000000" stroke-width="0.398" fill="none" /><path id="368" transform="matrix(1 0 0 -1 0 792)" d="M1088.888 499.072L1088.888 512.639" stroke="#000000" stroke-width="0.398" fill="none" /><path id="369" transform="matrix(1 0 0 -1 0 792)" d="M709.702 498.873L1089.088 498.873" stroke="#000000" stroke-width="0.398" fill="none" /><path id="370" transform="matrix(1 0 0 -1 0 792)" d="M709.901 485.107L709.901 498.674" stroke="#000000" stroke-width="0.398" fill="none" /><path id="374" transform="matrix(1 0 0 -1 0 792)" d="M734.608 489.388L737.597 489.388" stroke="#000000" stroke-width="0.398" fill="none" /><path id="383" transform="matrix(1 0 0 -1 0 792)" d="M786.016 489.388L789.005 489.388" stroke="#000000" stroke-width="0.398" fill="none" /><path id="391" transform="matrix(1 0 0 -1 0 792)" d="M831.445 489.388L834.434 489.388" stroke="#000000" stroke-width="0.398" fill="none" /><path id="399" transform="matrix(1 0 0 -1 0 792)" d="M902.255 485.107L902.255 498.674" stroke="#000000" stroke-width="0.398" fill="none" /><path id="401" transform="matrix(1 0 0 -1 0 792)" d="M961.277 485.107L961.277 498.674" stroke="#000000" stroke-width="0.398" fill="none" /><path id="404" transform="matrix(1 0 0 -1 0 792)" d="M1020.299 485.107L1020.299 498.674" stroke="#000000" stroke-width="0.398" fill="none" /><path id="416" transform="matrix(1 0 0 -1 0 792)" d="M1088.888 485.107L1088.888 498.674" stroke="#000000" stroke-width="0.398" fill="none" /><path id="417" transform="matrix(1 0 0 -1 0 792)" d="M709.702 484.908L1089.088 484.908" stroke="#000000" stroke-width="0.398" fill="none" /><path id="418" transform="matrix(1 0 0 -1 0 792)" d="M709.901 471.142L709.901 484.709" stroke="#000000" stroke-width="0.398" fill="none" /><path id="422" transform="matrix(1 0 0 -1 0 792)" d="M734.608 475.423L737.597 475.423" stroke="#000000" stroke-width="0.398" fill="none" /><path id="427" transform="matrix(1 0 0 -1 0 792)" d="M762.105 475.423L765.094 475.423" stroke="#000000" stroke-width="0.398" fill="none" /><path id="435" transform="matrix(1 0 0 -1 0 792)" d="M902.255 471.142L902.255 484.709" stroke="#000000" stroke-width="0.398" fill="none" /><path id="437" transform="matrix(1 0 0 -1 0 792)" d="M961.277 471.142L961.277 484.709" stroke="#000000" stroke-width="0.398" fill="none" /><path id="439" transform="matrix(1 0 0 -1 0 792)" d="M1020.299 471.142L1020.299 484.709" stroke="#000000" stroke-width="0.398" fill="none" /><path id="441" transform="matrix(1 0 0 -1 0 792)" d="M1088.888 471.142L1088.888 484.709" stroke="#000000" stroke-width="0.398" fill="none" /><path id="442" transform="matrix(1 0 0 -1 0 792)" d="M709.702 470.943L1089.088 470.943" stroke="#000000" stroke-width="0.398" fill="none" /><path id="443" transform="matrix(1 0 0 -1 0 792)" d="M709.901 457.177L709.901 470.744" stroke="#000000" stroke-width="0.398" fill="none" /><path id="447" transform="matrix(1 0 0 -1 0 792)" d="M734.608 461.458L737.597 461.458" stroke="#000000" stroke-width="0.398" fill="none" /><path id="460" transform="matrix(1 0 0 -1 0 792)" d="M809.926 461.458L812.915 461.458" stroke="#000000" stroke-width="0.398" fill="none" /><path id="465" transform="matrix(1 0 0 -1 0 792)" d="M902.255 457.177L902.255 470.744" stroke="#000000" stroke-width="0.398" fill="none" /><path id="466" transform="matrix(1 0 0 -1 0 792)" d="M961.277 457.177L961.277 470.744" stroke="#000000" stroke-width="0.398" fill="none" /><path id="468" transform="matrix(1 0 0 -1 0 792)" d="M1020.299 457.177L1020.299 470.744" stroke="#000000" stroke-width="0.398" fill="none" /><path id="480" transform="matrix(1 0 0 -1 0 792)" d="M1088.888 457.177L1088.888 470.744" stroke="#000000" stroke-width="0.398" fill="none" /><path id="481" transform="matrix(1 0 0 -1 0 792)" d="M709.702 456.977L1089.088 456.977" stroke="#000000" stroke-width="0.398" fill="none" /><path id="482" transform="matrix(1 0 0 -1 0 792)" d="M709.702 328.392L1089.088 328.392" stroke="#000000" stroke-width="0.398" fill="none" /><path id="483" transform="matrix(1 0 0 -1 0 792)" d="M709.901 314.626L709.901 328.193" stroke="#000000" stroke-width="0.398" fill="none" /><path id="484" transform="matrix(1 0 0 -1 0 792)" d="M710.1 314.626L902.055 314.626L902.055 328.193L710.1 328.193z" stroke="none" fill="#CCCCEB" fill-rule="nonzero" /><path id="490" transform="matrix(1 0 0 -1 0 792)" d="M902.255 314.626L902.255 328.193" stroke="#000000" stroke-width="0.398" fill="none" /><path id="491" transform="matrix(1 0 0 -1 0 792)" d="M902.454 314.626L961.078 314.626L961.078 328.193L902.454 328.193z" stroke="none" fill="#CCCCEB" fill-rule="nonzero" /><path id="501" transform="matrix(1 0 0 -1 0 792)" d="M961.277 314.626L961.277 328.193" stroke="#000000" stroke-width="0.398" fill="none" /><path id="502" transform="matrix(1 0 0 -1 0 792)" d="M961.476 314.626L1020.1 314.626L1020.1 328.193L961.476 328.193z" stroke="none" fill="#CCCCEB" fill-rule="nonzero" /><path id="510" transform="matrix(1 0 0 -1 0 792)" d="M1020.299 314.626L1020.299 328.193" stroke="#000000" stroke-width="0.398" fill="none" /><path id="511" transform="matrix(1 0 0 -1 0 792)" d="M1020.498 314.626L1088.689 314.626L1088.689 328.193L1020.498 328.193z" stroke="none" fill="#CCCCEB" fill-rule="nonzero" /><path id="515" transform="matrix(1 0 0 -1 0 792)" d="M1088.888 314.626L1088.888 328.193" stroke="#000000" stroke-width="0.398" fill="none" /><path id="516" transform="matrix(1 0 0 -1 0 792)" d="M709.901 301.06L709.901 314.627" stroke="#000000" stroke-width="0.398" fill="none" /><path id="517" transform="matrix(1 0 0 -1 0 792)" d="M710.1 301.06L902.055 301.06L902.055 314.627L710.1 314.627z" stroke="none" fill="#CCCCEB" fill-rule="nonzero" /><path id="518" transform="matrix(1 0 0 -1 0 792)" d="M902.255 301.06L902.255 314.627" stroke="#000000" stroke-width="0.398" fill="none" /><path id="519" transform="matrix(1 0 0 -1 0 792)" d="M902.454 301.06L961.078 301.06L961.078 314.627L902.454 314.627z" stroke="none" fill="#CCCCEB" fill-rule="nonzero" /><path id="520" transform="matrix(1 0 0 -1 0 792)" d="M961.277 301.06L961.277 314.627" stroke="#000000" stroke-width="0.398" fill="none" /><path id="521" transform="matrix(1 0 0 -1 0 792)" d="M961.476 301.06L1020.1 301.06L1020.1 314.627L961.476 314.627z" stroke="none" fill="#CCCCEB" fill-rule="nonzero" /><path id="527" transform="matrix(1 0 0 -1 0 792)" d="M1020.299 301.06L1020.299 314.627" stroke="#000000" stroke-width="0.398" fill="none" /><path id="528" transform="matrix(1 0 0 -1 0 792)" d="M1020.498 301.06L1088.689 301.06L1088.689 314.627L1020.498 314.627z" stroke="none" fill="#CCCCEB" fill-rule="nonzero" /><path id="529" transform="matrix(1 0 0 -1 0 792)" d="M1088.888 301.06L1088.888 314.627" stroke="#000000" stroke-width="0.398" fill="none" /><path id="530" transform="matrix(1 0 0 -1 0 792)" d="M709.702 300.86L1089.088 300.86" stroke="#000000" stroke-width="0.398" fill="none" /><path id="531" transform="matrix(1 0 0 -1 0 792)" d="M709.702 298.469L1089.088 298.469" stroke="#000000" stroke-width="0.398" fill="none" /><path id="532" transform="matrix(1 0 0 -1 0 792)" d="M709.901 284.703L709.901 298.27" stroke="#000000" stroke-width="0.398" fill="none" /><path id="536" transform="matrix(1 0 0 -1 0 792)" d="M734.608 288.985L737.597 288.985" stroke="#000000" stroke-width="0.398" fill="none" /><path id="541" transform="matrix(1 0 0 -1 0 792)" d="M902.255 284.703L902.255 298.27" stroke="#000000" stroke-width="0.398" fill="none" /><path id="543" transform="matrix(1 0 0 -1 0 792)" d="M961.277 284.703L961.277 298.27" stroke="#000000" stroke-width="0.398" fill="none" /><path id="545" transform="matrix(1 0 0 -1 0 792)" d="M1020.299 284.703L1020.299 298.27" stroke="#000000" stroke-width="0.398" fill="none" /><path id="557" transform="matrix(1 0 0 -1 0 792)" d="M1088.888 284.703L1088.888 298.27" stroke="#000000" stroke-width="0.398" fill="none" /><path id="558" transform="matrix(1 0 0 -1 0 792)" d="M709.702 284.504L1089.088 284.504" stroke="#000000" stroke-width="0.398" fill="none" /><path id="559" transform="matrix(1 0 0 -1 0 792)" d="M709.901 270.738L709.901 284.305" stroke="#000000" stroke-width="0.398" fill="none" /><path id="565" transform="matrix(1 0 0 -1 0 792)" d="M746.564 275.02L749.553 275.02" stroke="#000000" stroke-width="0.398" fill="none" /><path id="570" transform="matrix(1 0 0 -1 0 792)" d="M902.255 270.738L902.255 284.305" stroke="#000000" stroke-width="0.398" fill="none" /><path id="572" transform="matrix(1 0 0 -1 0 792)" d="M961.277 270.738L961.277 284.305" stroke="#000000" stroke-width="0.398" fill="none" /><path id="574" transform="matrix(1 0 0 -1 0 792)" d="M1020.299 270.738L1020.299 284.305" stroke="#000000" stroke-width="0.398" fill="none" /><path id="586" transform="matrix(1 0 0 -1 0 792)" d="M1088.888 270.738L1088.888 284.305" stroke="#000000" stroke-width="0.398" fill="none" /><path id="587" transform="matrix(1 0 0 -1 0 792)" d="M709.702 270.539L1089.088 270.539" stroke="#000000" stroke-width="0.398" fill="none" /><path id="588" transform="matrix(1 0 0 -1 0 792)" d="M709.901 256.773L709.901 270.34" stroke="#000000" stroke-width="0.398" fill="none" /><path id="593" transform="matrix(1 0 0 -1 0 792)" d="M740.586 261.055L743.575 261.055" stroke="#000000" stroke-width="0.398" fill="none" /><path id="598" transform="matrix(1 0 0 -1 0 792)" d="M902.255 256.773L902.255 270.34" stroke="#000000" stroke-width="0.398" fill="none" /><path id="600" transform="matrix(1 0 0 -1 0 792)" d="M961.277 256.773L961.277 270.34" stroke="#000000" stroke-width="0.398" fill="none" /><path id="602" transform="matrix(1 0 0 -1 0 792)" d="M1020.299 256.773L1020.299 270.34" stroke="#000000" stroke-width="0.398" fill="none" /><path id="614" transform="matrix(1 0 0 -1 0 792)" d="M1088.888 256.773L1088.888 270.34" stroke="#000000" stroke-width="0.398" fill="none" /><path id="615" transform="matrix(1 0 0 -1 0 792)" d="M709.702 256.574L1089.088 256.574" stroke="#000000" stroke-width="0.398" fill="none" /><path id="616" transform="matrix(1 0 0 -1 0 792)" d="M709.901 242.808L709.901 256.375" stroke="#000000" stroke-width="0.398" fill="none" /><path id="622" transform="matrix(1 0 0 -1 0 792)" d="M746.564 247.09L749.553 247.09" stroke="#000000" stroke-width="0.398" fill="none" /><path id="627" transform="matrix(1 0 0 -1 0 792)" d="M902.255 242.808L902.255 256.375" stroke="#000000" stroke-width="0.398" fill="none" /><path id="629" transform="matrix(1 0 0 -1 0 792)" d="M961.277 242.808L961.277 256.375" stroke="#000000" stroke-width="0.398" fill="none" /><path id="631" transform="matrix(1 0 0 -1 0 792)" d="M1020.299 242.808L1020.299 256.375" stroke="#000000" stroke-width="0.398" fill="none" /><path id="643" transform="matrix(1 0 0 -1 0 792)" d="M1088.888 242.808L1088.888 256.375" stroke="#000000" stroke-width="0.398" fill="none" /><path id="644" transform="matrix(1 0 0 -1 0 792)" d="M709.702 242.609L1089.088 242.609" stroke="#000000" stroke-width="0.398" fill="none" /><path id="645" transform="matrix(1 0 0 -1 0 792)" d="M709.901 228.843L709.901 242.41" stroke="#000000" stroke-width="0.398" fill="none" /><path id="651" transform="matrix(1 0 0 -1 0 792)" d="M746.564 233.124L749.553 233.124" stroke="#000000" stroke-width="0.398" fill="none" /><path id="656" transform="matrix(1 0 0 -1 0 792)" d="M902.255 228.843L902.255 242.41" stroke="#000000" stroke-width="0.398" fill="none" /><path id="658" transform="matrix(1 0 0 -1 0 792)" d="M961.277 228.843L961.277 242.41" stroke="#000000" stroke-width="0.398" fill="none" /><path id="660" transform="matrix(1 0 0 -1 0 792)" d="M1020.299 228.843L1020.299 242.41" stroke="#000000" stroke-width="0.398" fill="none" /><path id="662" transform="matrix(1 0 0 -1 0 792)" d="M1088.888 228.843L1088.888 242.41" stroke="#000000" stroke-width="0.398" fill="none" /><path id="663" transform="matrix(1 0 0 -1 0 792)" d="M709.702 228.644L1089.088 228.644" stroke="#000000" stroke-width="0.398" fill="none" /><path id="664" transform="matrix(1 0 0 -1 0 792)" d="M709.901 214.878L709.901 228.445" stroke="#000000" stroke-width="0.398" fill="none" /><path id="670" transform="matrix(1 0 0 -1 0 792)" d="M746.564 219.159L749.553 219.159" stroke="#000000" stroke-width="0.398" fill="none" /><path id="675" transform="matrix(1 0 0 -1 0 792)" d="M902.255 214.878L902.255 228.445" stroke="#000000" stroke-width="0.398" fill="none" /><path id="677" transform="matrix(1 0 0 -1 0 792)" d="M961.277 214.878L961.277 228.445" stroke="#000000" stroke-width="0.398" fill="none" /><path id="680" transform="matrix(1 0 0 -1 0 792)" d="M1020.299 214.878L1020.299 228.445" stroke="#000000" stroke-width="0.398" fill="none" /><path id="692" transform="matrix(1 0 0 -1 0 792)" d="M1088.888 214.878L1088.888 228.445" stroke="#000000" stroke-width="0.398" fill="none" /><path id="693" transform="matrix(1 0 0 -1 0 792)" d="M709.702 214.678L1089.088 214.678" stroke="#000000" stroke-width="0.398" fill="none" /><path id="694" transform="matrix(1 0 0 -1 0 792)" d="M709.901 200.913L709.901 214.48" stroke="#000000" stroke-width="0.398" fill="none" /><path id="702" transform="matrix(1 0 0 -1 0 792)" d="M758.519 205.194L761.508 205.194" stroke="#000000" stroke-width="0.398" fill="none" /><path id="707" transform="matrix(1 0 0 -1 0 792)" d="M902.255 200.913L902.255 214.48" stroke="#000000" stroke-width="0.398" fill="none" /><path id="709" transform="matrix(1 0 0 -1 0 792)" d="M961.277 200.913L961.277 214.48" stroke="#000000" stroke-width="0.398" fill="none" /><path id="711" transform="matrix(1 0 0 -1 0 792)" d="M1020.299 200.913L1020.299 214.48" stroke="#000000" stroke-width="0.398" fill="none" /><path id="723" transform="matrix(1 0 0 -1 0 792)" d="M1088.888 200.913L1088.888 214.48" stroke="#000000" stroke-width="0.398" fill="none" /><path id="724" transform="matrix(1 0 0 -1 0 792)" d="M709.702 200.713L1089.088 200.713" stroke="#000000" stroke-width="0.398" fill="none" /><path id="725" transform="matrix(1 0 0 -1 0 792)" d="M709.901 186.947L709.901 200.514" stroke="#000000" stroke-width="0.398" fill="none" /><path id="731" transform="matrix(1 0 0 -1 0 792)" d="M746.564 191.229L749.553 191.229" stroke="#000000" stroke-width="0.398" fill="none" /><path id="736" transform="matrix(1 0 0 -1 0 792)" d="M902.255 186.947L902.255 200.514" stroke="#000000" stroke-width="0.398" fill="none" /><path id="738" transform="matrix(1 0 0 -1 0 792)" d="M961.277 186.947L961.277 200.514" stroke="#000000" stroke-width="0.398" fill="none" /><path id="740" transform="matrix(1 0 0 -1 0 792)" d="M1020.299 186.947L1020.299 200.514" stroke="#000000" stroke-width="0.398" fill="none" /><path id="742" transform="matrix(1 0 0 -1 0 792)" d="M1088.888 186.947L1088.888 200.514" stroke="#000000" stroke-width="0.398" fill="none" /><path id="743" transform="matrix(1 0 0 -1 0 792)" d="M709.702 186.748L1089.088 186.748" stroke="#000000" stroke-width="0.398" fill="none" /><path id="744" transform="matrix(1 0 0 -1 0 792)" d="M709.901 172.982L709.901 186.549" stroke="#000000" stroke-width="0.398" fill="none" /><path id="759" transform="matrix(1 0 0 -1 0 792)" d="M800.362 177.264L803.351 177.264" stroke="#000000" stroke-width="0.398" fill="none" /><path id="765" transform="matrix(1 0 0 -1 0 792)" d="M833.836 177.264L836.825 177.264" stroke="#000000" stroke-width="0.398" fill="none" /><path id="770" transform="matrix(1 0 0 -1 0 792)" d="M861.3329 177.264L864.322 177.264" stroke="#000000" stroke-width="0.398" fill="none" /><path id="775" transform="matrix(1 0 0 -1 0 792)" d="M902.255 172.982L902.255 186.549" stroke="#000000" stroke-width="0.398" fill="none" /><path id="776" transform="matrix(1 0 0 -1 0 792)" d="M961.277 172.982L961.277 186.549" stroke="#000000" stroke-width="0.398" fill="none" /><path id="778" transform="matrix(1 0 0 -1 0 792)" d="M1020.299 172.982L1020.299 186.549" stroke="#000000" stroke-width="0.398" fill="none" /><path id="790" transform="matrix(1 0 0 -1 0 792)" d="M1088.888 172.982L1088.888 186.549" stroke="#000000" stroke-width="0.398" fill="none" /><path id="791" transform="matrix(1 0 0 -1 0 792)" d="M709.702 172.783L1089.088 172.783" stroke="#000000" stroke-width="0.398" fill="none" /><path id="792" transform="matrix(1 0 0 -1 0 792)" d="M709.901 145.485L709.901 172.583" stroke="#000000" stroke-width="0.398" fill="none" /><path id="793" transform="matrix(1 0 0 -1 0 792)" d="M800.362 163.299L803.351 163.299" stroke="#000000" stroke-width="0.398" fill="none" /><path id="794" transform="matrix(1 0 0 -1 0 792)" d="M833.836 163.299L836.825 163.299" stroke="#000000" stroke-width="0.398" fill="none" /><path id="795" transform="matrix(1 0 0 -1 0 792)" d="M861.3329 163.299L864.322 163.299" stroke="#000000" stroke-width="0.398" fill="none" /><path id="796" transform="matrix(1 0 0 -1 0 792)" d="M902.255 145.485L902.255 172.583" stroke="#000000" stroke-width="0.398" fill="none" /><path id="797" transform="matrix(1 0 0 -1 0 792)" d="M961.277 145.485L961.277 172.583" stroke="#000000" stroke-width="0.398" fill="none" /><path id="798" transform="matrix(1 0 0 -1 0 792)" d="M1020.299 145.485L1020.299 172.583" stroke="#000000" stroke-width="0.398" fill="none" /><path id="799" transform="matrix(1 0 0 -1 0 792)" d="M1088.888 145.485L1088.888 172.583" stroke="#000000" stroke-width="0.398" fill="none" /><path id="800" transform="matrix(1 0 0 -1 0 792)" d="M709.702 145.286L1089.088 145.286" stroke="#000000" stroke-width="0.398" fill="none" /><path id="801" transform="matrix(1 0 0 -1 0 792)" d="M666.067 722.529L1132.724 722.529L1132.724 722.529L1132.724 735.6745L1132.724 735.6745L666.067 735.6745z" stroke="#FFFFFF" stroke-width="1" fill="#FFFFFF" fill-rule="nonzero" /><path id="811" transform="matrix(1 0 0 -1 0 792)" d="M782.102 434.266L1016.691 434.266L1016.691 434.266L1016.691 447.4115L1016.691 447.4115L782.102 447.4115z" stroke="#FFFFFF" stroke-width="1" fill="#FFFFFF" fill-rule="nonzero" /><path id="827" transform="matrix(1 0 0 -1 0 792)" d="M716.078 138.122L1082.712 138.122L1082.712 138.122L1082.712 171.1791L1082.712 171.1791L716.078 171.1791z" stroke="#FFFFFF" stroke-width="1" fill="#FFFFFF" fill-rule="nonzero" /><path id="848" transform="matrix(1 0 0 -1 0 792)" d="M784.447 122.575L1014.345 122.575L1014.345 122.575L1014.345 135.7205L1014.345 135.7205L784.447 135.7205z" stroke="#FFFFFF" stroke-width="1" fill="#FFFFFF" fill-rule="nonzero" /><path id="907" transform="matrix(1 0 0 -1 0 792)" d="M54.067 721.28L520.722 721.28" stroke="#000000" stroke-width="0.498" fill="none" /><path id="908" transform="matrix(1 0 0 -1 0 792)" d="M97.702 654.049L477.088 654.049" stroke="#000000" stroke-width="0.398" fill="none" /><path id="909" transform="matrix(1 0 0 -1 0 792)" d="M97.901 640.283L97.901 653.85" stroke="#000000" stroke-width="0.398" fill="none" /><path id="910" transform="matrix(1 0 0 -1 0 792)" d="M98.1 640.283L290.055 640.283L290.055 653.85L98.1 653.85z" stroke="none" fill="#CCCCEB" fill-rule="nonzero" /><path id="916" transform="matrix(1 0 0 -1 0 792)" d="M290.255 640.283L290.255 653.85" stroke="#000000" stroke-width="0.398" fill="none" /><path id="917" transform="matrix(1 0 0 -1 0 792)" d="M290.454 640.283L349.078 640.283L349.078 653.85L290.454 653.85z" stroke="none" fill="#CCCCEB" fill-rule="nonzero" /><path id="927" transform="matrix(1 0 0 -1 0 792)" d="M349.277 640.283L349.277 653.85" stroke="#000000" stroke-width="0.398" fill="none" /><path id="928" transform="matrix(1 0 0 -1 0 792)" d="M349.476 640.283L408.1 640.283L408.1 653.85L349.476 653.85z" stroke="none" fill="#CCCCEB" fill-rule="nonzero" /><path id="936" transform="matrix(1 0 0 -1 0 792)" d="M408.299 640.283L408.299 653.85" stroke="#000000" stroke-width="0.398" fill="none" /><path id="937" transform="matrix(1 0 0 -1 0 792)" d="M408.498 640.283L476.689 640.283L476.689 653.85L408.498 653.85z" stroke="none" fill="#CCCCEB" fill-rule="nonzero" /><path id="941" transform="matrix(1 0 0 -1 0 792)" d="M476.888 640.283L476.888 653.85" stroke="#000000" stroke-width="0.398" fill="none" /><path id="942" transform="matrix(1 0 0 -1 0 792)" d="M97.901 626.716L97.901 640.283" stroke="#000000" stroke-width="0.398" fill="none" /><path id="943" transform="matrix(1 0 0 -1 0 792)" d="M98.1 626.716L290.055 626.716L290.055 640.283L98.1 640.283z" stroke="none" fill="#CCCCEB" fill-rule="nonzero" /><path id="944" transform="matrix(1 0 0 -1 0 792)" d="M290.255 626.716L290.255 640.283" stroke="#000000" stroke-width="0.398" fill="none" /><path id="945" transform="matrix(1 0 0 -1 0 792)" d="M290.454 626.716L349.078 626.716L349.078 640.283L290.454 640.283z" stroke="none" fill="#CCCCEB" fill-rule="nonzero" /><path id="946" transform="matrix(1 0 0 -1 0 792)" d="M349.277 626.716L349.277 640.283" stroke="#000000" stroke-width="0.398" fill="none" /><path id="947" transform="matrix(1 0 0 -1 0 792)" d="M349.476 626.716L408.1 626.716L408.1 640.283L349.476 640.283z" stroke="none" fill="#CCCCEB" fill-rule="nonzero" /><path id="953" transform="matrix(1 0 0 -1 0 792)" d="M408.299 626.716L408.299 640.283" stroke="#000000" stroke-width="0.398" fill="none" /><path id="954" transform="matrix(1 0 0 -1 0 792)" d="M408.498 626.716L476.689 626.716L476.689 640.283L408.498 640.283z" stroke="none" fill="#CCCCEB" fill-rule="nonzero" /><path id="955" transform="matrix(1 0 0 -1 0 792)" d="M476.888 626.716L476.888 640.283" stroke="#000000" stroke-width="0.398" fill="none" /><path id="956" transform="matrix(1 0 0 -1 0 792)" d="M97.702 626.517L477.088 626.517" stroke="#000000" stroke-width="0.398" fill="none" /><path id="957" transform="matrix(1 0 0 -1 0 792)" d="M97.702 624.126L477.088 624.126" stroke="#000000" stroke-width="0.398" fill="none" /><path id="958" transform="matrix(1 0 0 -1 0 792)" d="M97.901 610.36L97.901 623.927" stroke="#000000" stroke-width="0.398" fill="none" /><path id="962" transform="matrix(1 0 0 -1 0 792)" d="M122.608 614.641L125.597 614.641" stroke="#000000" stroke-width="0.398" fill="none" /><path id="970" transform="matrix(1 0 0 -1 0 792)" d="M168.038 614.641L171.027 614.641" stroke="#000000" stroke-width="0.398" fill="none" /><path id="976" transform="matrix(1 0 0 -1 0 792)" d="M290.255 610.36L290.255 623.927" stroke="#000000" stroke-width="0.398" fill="none" /><path id="978" transform="matrix(1 0 0 -1 0 792)" d="M349.277 610.36L349.277 623.927" stroke="#000000" stroke-width="0.398" fill="none" /><path id="980" transform="matrix(1 0 0 -1 0 792)" d="M408.299 610.36L408.299 623.927" stroke="#000000" stroke-width="0.398" fill="none" /><path id="982" transform="matrix(1 0 0 -1 0 792)" d="M476.888 610.36L476.888 623.927" stroke="#000000" stroke-width="0.398" fill="none" /><path id="983" transform="matrix(1 0 0 -1 0 792)" d="M97.702 610.161L477.088 610.161" stroke="#000000" stroke-width="0.398" fill="none" /><path id="984" transform="matrix(1 0 0 -1 0 792)" d="M97.901 596.395L97.901 609.962" stroke="#000000" stroke-width="0.398" fill="none" /><path id="988" transform="matrix(1 0 0 -1 0 792)" d="M122.608 600.676L125.597 600.676" stroke="#000000" stroke-width="0.398" fill="none" /><path id="995" transform="matrix(1 0 0 -1 0 792)" d="M162.061 600.676L165.05 600.676" stroke="#000000" stroke-width="0.398" fill="none" /><path id="1003" transform="matrix(1 0 0 -1 0 792)" d="M290.255 596.395L290.255 609.962" stroke="#000000" stroke-width="0.398" fill="none" /><path id="1005" transform="matrix(1 0 0 -1 0 792)" d="M349.277 596.395L349.277 609.962" stroke="#000000" stroke-width="0.398" fill="none" /><path id="1007" transform="matrix(1 0 0 -1 0 792)" d="M408.299 596.395L408.299 609.962" stroke="#000000" stroke-width="0.398" fill="none" /><path id="1019" transform="matrix(1 0 0 -1 0 792)" d="M476.888 596.395L476.888 609.962" stroke="#000000" stroke-width="0.398" fill="none" /><path id="1020" transform="matrix(1 0 0 -1 0 792)" d="M97.702 596.195L477.088 596.195" stroke="#000000" stroke-width="0.398" fill="none" /><path id="1021" transform="matrix(1 0 0 -1 0 792)" d="M97.901 582.43L97.901 595.997" stroke="#000000" stroke-width="0.398" fill="none" /><path id="1025" transform="matrix(1 0 0 -1 0 792)" d="M122.608 586.711L125.597 586.711" stroke="#000000" stroke-width="0.398" fill="none" /><path id="1032" transform="matrix(1 0 0 -1 0 792)" d="M162.061 586.711L165.05 586.711" stroke="#000000" stroke-width="0.398" fill="none" /><path id="1040" transform="matrix(1 0 0 -1 0 792)" d="M207.49 586.711L210.479 586.711" stroke="#000000" stroke-width="0.398" fill="none" /><path id="1048" transform="matrix(1 0 0 -1 0 792)" d="M290.255 582.43L290.255 595.997" stroke="#000000" stroke-width="0.398" fill="none" /><path id="1050" transform="matrix(1 0 0 -1 0 792)" d="M349.277 582.43L349.277 595.997" stroke="#000000" stroke-width="0.398" fill="none" /><path id="1054" transform="matrix(1 0 0 -1 0 792)" d="M408.299 582.43L408.299 595.997" stroke="#000000" stroke-width="0.398" fill="none" /><path id="1066" transform="matrix(1 0 0 -1 0 792)" d="M476.888 582.43L476.888 595.997" stroke="#000000" stroke-width="0.398" fill="none" /><path id="1067" transform="matrix(1 0 0 -1 0 792)" d="M97.702 582.23L477.088 582.23" stroke="#000000" stroke-width="0.398" fill="none" /><path id="1068" transform="matrix(1 0 0 -1 0 792)" d="M97.901 568.464L97.901 582.031" stroke="#000000" stroke-width="0.398" fill="none" /><path id="1072" transform="matrix(1 0 0 -1 0 792)" d="M122.608 572.746L125.597 572.746" stroke="#000000" stroke-width="0.398" fill="none" /><path id="1080" transform="matrix(1 0 0 -1 0 792)" d="M168.038 572.746L171.027 572.746" stroke="#000000" stroke-width="0.398" fill="none" /><path id="1088" transform="matrix(1 0 0 -1 0 792)" d="M290.255 568.464L290.255 582.031" stroke="#000000" stroke-width="0.398" fill="none" /><path id="1090" transform="matrix(1 0 0 -1 0 792)" d="M349.277 568.464L349.277 582.031" stroke="#000000" stroke-width="0.398" fill="none" /><path id="1092" transform="matrix(1 0 0 -1 0 792)" d="M408.299 568.464L408.299 582.031" stroke="#000000" stroke-width="0.398" fill="none" /><path id="1104" transform="matrix(1 0 0 -1 0 792)" d="M476.888 568.464L476.888 582.031" stroke="#000000" stroke-width="0.398" fill="none" /><path id="1105" transform="matrix(1 0 0 -1 0 792)" d="M97.702 568.265L477.088 568.265" stroke="#000000" stroke-width="0.398" fill="none" /><path id="1106" transform="matrix(1 0 0 -1 0 792)" d="M97.901 540.968L97.901 568.066" stroke="#000000" stroke-width="0.398" fill="none" /><path id="1110" transform="matrix(1 0 0 -1 0 792)" d="M122.608 558.781L125.597 558.781" stroke="#000000" stroke-width="0.398" fill="none" /><path id="1119" transform="matrix(1 0 0 -1 0 792)" d="M174.016 558.781L177.005 558.781" stroke="#000000" stroke-width="0.398" fill="none" /><path id="1127" transform="matrix(1 0 0 -1 0 792)" d="M219.445 558.781L222.434 558.781" stroke="#000000" stroke-width="0.398" fill="none" /><path id="1133" transform="matrix(1 0 0 -1 0 792)" d="M252.92 558.781L255.909 558.781" stroke="#000000" stroke-width="0.398" fill="none" /><path id="1140" transform="matrix(1 0 0 -1 0 792)" d="M290.255 540.968L290.255 568.066" stroke="#000000" stroke-width="0.398" fill="none" /><path id="1142" transform="matrix(1 0 0 -1 0 792)" d="M349.277 540.968L349.277 568.066" stroke="#000000" stroke-width="0.398" fill="none" /><path id="1144" transform="matrix(1 0 0 -1 0 792)" d="M408.299 540.968L408.299 568.066" stroke="#000000" stroke-width="0.398" fill="none" /><path id="1156" transform="matrix(1 0 0 -1 0 792)" d="M476.888 540.968L476.888 568.066" stroke="#000000" stroke-width="0.398" fill="none" /><path id="1157" transform="matrix(1 0 0 -1 0 792)" d="M97.702 540.768L477.088 540.768" stroke="#000000" stroke-width="0.398" fill="none" /><path id="1158" transform="matrix(1 0 0 -1 0 792)" d="M97.901 527.002L97.901 540.569" stroke="#000000" stroke-width="0.398" fill="none" /><path id="1162" transform="matrix(1 0 0 -1 0 792)" d="M122.608 531.284L125.597 531.284" stroke="#000000" stroke-width="0.398" fill="none" /><path id="1169" transform="matrix(1 0 0 -1 0 792)" d="M162.061 531.284L165.05 531.284" stroke="#000000" stroke-width="0.398" fill="none" /><path id="1177" transform="matrix(1 0 0 -1 0 792)" d="M207.49 531.284L210.479 531.284" stroke="#000000" stroke-width="0.398" fill="none" /><path id="1183" transform="matrix(1 0 0 -1 0 792)" d="M240.965 531.284L243.954 531.284" stroke="#000000" stroke-width="0.398" fill="none" /><path id="1189" transform="matrix(1 0 0 -1 0 792)" d="M290.255 527.002L290.255 540.569" stroke="#000000" stroke-width="0.398" fill="none" /><path id="1191" transform="matrix(1 0 0 -1 0 792)" d="M349.277 527.002L349.277 540.569" stroke="#000000" stroke-width="0.398" fill="none" /><path id="1193" transform="matrix(1 0 0 -1 0 792)" d="M408.299 527.002L408.299 540.569" stroke="#000000" stroke-width="0.398" fill="none" /><path id="1205" transform="matrix(1 0 0 -1 0 792)" d="M476.888 527.002L476.888 540.569" stroke="#000000" stroke-width="0.398" fill="none" /><path id="1206" transform="matrix(1 0 0 -1 0 792)" d="M97.702 526.803L477.088 526.803" stroke="#000000" stroke-width="0.398" fill="none" /><path id="1207" transform="matrix(1 0 0 -1 0 792)" d="M97.901 513.037L97.901 526.604" stroke="#000000" stroke-width="0.398" fill="none" /><path id="1211" transform="matrix(1 0 0 -1 0 792)" d="M122.608 517.319L125.597 517.319" stroke="#000000" stroke-width="0.398" fill="none" /><path id="1219" transform="matrix(1 0 0 -1 0 792)" d="M168.038 517.319L171.027 517.319" stroke="#000000" stroke-width="0.398" fill="none" /><path id="1225" transform="matrix(1 0 0 -1 0 792)" d="M201.513 517.319L204.502 517.319" stroke="#000000" stroke-width="0.398" fill="none" /><path id="1231" transform="matrix(1 0 0 -1 0 792)" d="M290.255 513.037L290.255 526.604" stroke="#000000" stroke-width="0.398" fill="none" /><path id="1233" transform="matrix(1 0 0 -1 0 792)" d="M349.277 513.037L349.277 526.604" stroke="#000000" stroke-width="0.398" fill="none" /><path id="1235" transform="matrix(1 0 0 -1 0 792)" d="M408.299 513.037L408.299 526.604" stroke="#000000" stroke-width="0.398" fill="none" /><path id="1247" transform="matrix(1 0 0 -1 0 792)" d="M476.888 513.037L476.888 526.604" stroke="#000000" stroke-width="0.398" fill="none" /><path id="1248" transform="matrix(1 0 0 -1 0 792)" d="M97.702 512.838L477.088 512.838" stroke="#000000" stroke-width="0.398" fill="none" /><path id="1249" transform="matrix(1 0 0 -1 0 792)" d="M97.901 499.072L97.901 512.639" stroke="#000000" stroke-width="0.398" fill="none" /><path id="1253" transform="matrix(1 0 0 -1 0 792)" d="M122.608 503.354L125.597 503.354" stroke="#000000" stroke-width="0.398" fill="none" /><path id="1261" transform="matrix(1 0 0 -1 0 792)" d="M168.038 503.354L171.027 503.354" stroke="#000000" stroke-width="0.398" fill="none" /><path id="1268" transform="matrix(1 0 0 -1 0 792)" d="M290.255 499.072L290.255 512.639" stroke="#000000" stroke-width="0.398" fill="none" /><path id="1270" transform="matrix(1 0 0 -1 0 792)" d="M349.277 499.072L349.277 512.639" stroke="#000000" stroke-width="0.398" fill="none" /><path id="1272" transform="matrix(1 0 0 -1 0 792)" d="M408.299 499.072L408.299 512.639" stroke="#000000" stroke-width="0.398" fill="none" /><path id="1274" transform="matrix(1 0 0 -1 0 792)" d="M476.888 499.072L476.888 512.639" stroke="#000000" stroke-width="0.398" fill="none" /><path id="1275" transform="matrix(1 0 0 -1 0 792)" d="M97.702 498.873L477.088 498.873" stroke="#000000" stroke-width="0.398" fill="none" /><path id="1276" transform="matrix(1 0 0 -1 0 792)" d="M97.901 485.107L97.901 498.674" stroke="#000000" stroke-width="0.398" fill="none" /><path id="1280" transform="matrix(1 0 0 -1 0 792)" d="M122.608 489.388L125.597 489.388" stroke="#000000" stroke-width="0.398" fill="none" /><path id="1289" transform="matrix(1 0 0 -1 0 792)" d="M174.016 489.388L177.005 489.388" stroke="#000000" stroke-width="0.398" fill="none" /><path id="1297" transform="matrix(1 0 0 -1 0 792)" d="M219.445 489.388L222.434 489.388" stroke="#000000" stroke-width="0.398" fill="none" /><path id="1305" transform="matrix(1 0 0 -1 0 792)" d="M290.255 485.107L290.255 498.674" stroke="#000000" stroke-width="0.398" fill="none" /><path id="1307" transform="matrix(1 0 0 -1 0 792)" d="M349.277 485.107L349.277 498.674" stroke="#000000" stroke-width="0.398" fill="none" /><path id="1310" transform="matrix(1 0 0 -1 0 792)" d="M408.299 485.107L408.299 498.674" stroke="#000000" stroke-width="0.398" fill="none" /><path id="1322" transform="matrix(1 0 0 -1 0 792)" d="M476.888 485.107L476.888 498.674" stroke="#000000" stroke-width="0.398" fill="none" /><path id="1323" transform="matrix(1 0 0 -1 0 792)" d="M97.702 484.908L477.088 484.908" stroke="#000000" stroke-width="0.398" fill="none" /><path id="1324" transform="matrix(1 0 0 -1 0 792)" d="M97.901 471.142L97.901 484.709" stroke="#000000" stroke-width="0.398" fill="none" /><path id="1328" transform="matrix(1 0 0 -1 0 792)" d="M122.608 475.423L125.597 475.423" stroke="#000000" stroke-width="0.398" fill="none" /><path id="1333" transform="matrix(1 0 0 -1 0 792)" d="M150.105 475.423L153.094 475.423" stroke="#000000" stroke-width="0.398" fill="none" /><path id="1341" transform="matrix(1 0 0 -1 0 792)" d="M290.255 471.142L290.255 484.709" stroke="#000000" stroke-width="0.398" fill="none" /><path id="1343" transform="matrix(1 0 0 -1 0 792)" d="M349.277 471.142L349.277 484.709" stroke="#000000" stroke-width="0.398" fill="none" /><path id="1345" transform="matrix(1 0 0 -1 0 792)" d="M408.299 471.142L408.299 484.709" stroke="#000000" stroke-width="0.398" fill="none" /><path id="1347" transform="matrix(1 0 0 -1 0 792)" d="M476.888 471.142L476.888 484.709" stroke="#000000" stroke-width="0.398" fill="none" /><path id="1348" transform="matrix(1 0 0 -1 0 792)" d="M97.702 470.943L477.088 470.943" stroke="#000000" stroke-width="0.398" fill="none" /><path id="1349" transform="matrix(1 0 0 -1 0 792)" d="M97.901 457.177L97.901 470.744" stroke="#000000" stroke-width="0.398" fill="none" /><path id="1353" transform="matrix(1 0 0 -1 0 792)" d="M122.608 461.458L125.597 461.458" stroke="#000000" stroke-width="0.398" fill="none" /><path id="1366" transform="matrix(1 0 0 -1 0 792)" d="M197.926 461.458L200.915 461.458" stroke="#000000" stroke-width="0.398" fill="none" /><path id="1371" transform="matrix(1 0 0 -1 0 792)" d="M290.255 457.177L290.255 470.744" stroke="#000000" stroke-width="0.398" fill="none" /><path id="1373" transform="matrix(1 0 0 -1 0 792)" d="M349.277 457.177L349.277 470.744" stroke="#000000" stroke-width="0.398" fill="none" /><path id="1375" transform="matrix(1 0 0 -1 0 792)" d="M408.299 457.177L408.299 470.744" stroke="#000000" stroke-width="0.398" fill="none" /><path id="1387" transform="matrix(1 0 0 -1 0 792)" d="M476.888 457.177L476.888 470.744" stroke="#000000" stroke-width="0.398" fill="none" /><path id="1388" transform="matrix(1 0 0 -1 0 792)" d="M97.702 456.977L477.088 456.977" stroke="#000000" stroke-width="0.398" fill="none" /><path id="1435" transform="matrix(1 0 0 -1 0 792)" d="M97.702 328.392L477.088 328.392" stroke="#000000" stroke-width="0.398" fill="none" /><path id="1436" transform="matrix(1 0 0 -1 0 792)" d="M97.901 314.626L97.901 328.193" stroke="#000000" stroke-width="0.398" fill="none" /><path id="1437" transform="matrix(1 0 0 -1 0 792)" d="M98.1 314.626L290.055 314.626L290.055 328.193L98.1 328.193z" stroke="none" fill="#CCCCEB" fill-rule="nonzero" /><path id="1443" transform="matrix(1 0 0 -1 0 792)" d="M290.255 314.626L290.255 328.193" stroke="#000000" stroke-width="0.398" fill="none" /><path id="1444" transform="matrix(1 0 0 -1 0 792)" d="M290.454 314.626L349.078 314.626L349.078 328.193L290.454 328.193z" stroke="none" fill="#CCCCEB" fill-rule="nonzero" /><path id="1454" transform="matrix(1 0 0 -1 0 792)" d="M349.277 314.626L349.277 328.193" stroke="#000000" stroke-width="0.398" fill="none" /><path id="1455" transform="matrix(1 0 0 -1 0 792)" d="M349.476 314.626L408.1 314.626L408.1 328.193L349.476 328.193z" stroke="none" fill="#CCCCEB" fill-rule="nonzero" /><path id="1463" transform="matrix(1 0 0 -1 0 792)" d="M408.299 314.626L408.299 328.193" stroke="#000000" stroke-width="0.398" fill="none" /><path id="1464" transform="matrix(1 0 0 -1 0 792)" d="M408.498 314.626L476.689 314.626L476.689 328.193L408.498 328.193z" stroke="none" fill="#CCCCEB" fill-rule="nonzero" /><path id="1468" transform="matrix(1 0 0 -1 0 792)" d="M476.888 314.626L476.888 328.193" stroke="#000000" stroke-width="0.398" fill="none" /><path id="1469" transform="matrix(1 0 0 -1 0 792)" d="M97.901 301.06L97.901 314.627" stroke="#000000" stroke-width="0.398" fill="none" /><path id="1470" transform="matrix(1 0 0 -1 0 792)" d="M98.1 301.06L290.055 301.06L290.055 314.627L98.1 314.627z" stroke="none" fill="#CCCCEB" fill-rule="nonzero" /><path id="1471" transform="matrix(1 0 0 -1 0 792)" d="M290.255 301.06L290.255 314.627" stroke="#000000" stroke-width="0.398" fill="none" /><path id="1472" transform="matrix(1 0 0 -1 0 792)" d="M290.454 301.06L349.078 301.06L349.078 314.627L290.454 314.627z" stroke="none" fill="#CCCCEB" fill-rule="nonzero" /><path id="1473" transform="matrix(1 0 0 -1 0 792)" d="M349.277 301.06L349.277 314.627" stroke="#000000" stroke-width="0.398" fill="none" /><path id="1474" transform="matrix(1 0 0 -1 0 792)" d="M349.476 301.06L408.1 301.06L408.1 314.627L349.476 314.627z" stroke="none" fill="#CCCCEB" fill-rule="nonzero" /><path id="1480" transform="matrix(1 0 0 -1 0 792)" d="M408.299 301.06L408.299 314.627" stroke="#000000" stroke-width="0.398" fill="none" /><path id="1481" transform="matrix(1 0 0 -1 0 792)" d="M408.498 301.06L476.689 301.06L476.689 314.627L408.498 314.627z" stroke="none" fill="#CCCCEB" fill-rule="nonzero" /><path id="1482" transform="matrix(1 0 0 -1 0 792)" d="M476.888 301.06L476.888 314.627" stroke="#000000" stroke-width="0.398" fill="none" /><path id="1483" transform="matrix(1 0 0 -1 0 792)" d="M97.702 300.86L477.088 300.86" stroke="#000000" stroke-width="0.398" fill="none" /><path id="1484" transform="matrix(1 0 0 -1 0 792)" d="M97.702 298.469L477.088 298.469" stroke="#000000" stroke-width="0.398" fill="none" /><path id="1485" transform="matrix(1 0 0 -1 0 792)" d="M97.901 284.703L97.901 298.27" stroke="#000000" stroke-width="0.398" fill="none" /><path id="1489" transform="matrix(1 0 0 -1 0 792)" d="M122.608 288.985L125.597 288.985" stroke="#000000" stroke-width="0.398" fill="none" /><path id="1494" transform="matrix(1 0 0 -1 0 792)" d="M290.255 284.703L290.255 298.27" stroke="#000000" stroke-width="0.398" fill="none" /><path id="1496" transform="matrix(1 0 0 -1 0 792)" d="M349.277 284.703L349.277 298.27" stroke="#000000" stroke-width="0.398" fill="none" /><path id="1498" transform="matrix(1 0 0 -1 0 792)" d="M408.299 284.703L408.299 298.27" stroke="#000000" stroke-width="0.398" fill="none" /><path id="1510" transform="matrix(1 0 0 -1 0 792)" d="M476.888 284.703L476.888 298.27" stroke="#000000" stroke-width="0.398" fill="none" /><path id="1511" transform="matrix(1 0 0 -1 0 792)" d="M97.702 284.504L477.088 284.504" stroke="#000000" stroke-width="0.398" fill="none" /><path id="1512" transform="matrix(1 0 0 -1 0 792)" d="M97.901 270.738L97.901 284.305" stroke="#000000" stroke-width="0.398" fill="none" /><path id="1518" transform="matrix(1 0 0 -1 0 792)" d="M134.564 275.02L137.553 275.02" stroke="#000000" stroke-width="0.398" fill="none" /><path id="1523" transform="matrix(1 0 0 -1 0 792)" d="M290.255 270.738L290.255 284.305" stroke="#000000" stroke-width="0.398" fill="none" /><path id="1525" transform="matrix(1 0 0 -1 0 792)" d="M349.277 270.738L349.277 284.305" stroke="#000000" stroke-width="0.398" fill="none" /><path id="1527" transform="matrix(1 0 0 -1 0 792)" d="M408.299 270.738L408.299 284.305" stroke="#000000" stroke-width="0.398" fill="none" /><path id="1539" transform="matrix(1 0 0 -1 0 792)" d="M476.888 270.738L476.888 284.305" stroke="#000000" stroke-width="0.398" fill="none" /><path id="1540" transform="matrix(1 0 0 -1 0 792)" d="M97.702 270.539L477.088 270.539" stroke="#000000" stroke-width="0.398" fill="none" /><path id="1541" transform="matrix(1 0 0 -1 0 792)" d="M97.901 256.773L97.901 270.34" stroke="#000000" stroke-width="0.398" fill="none" /><path id="1546" transform="matrix(1 0 0 -1 0 792)" d="M128.586 261.055L131.575 261.055" stroke="#000000" stroke-width="0.398" fill="none" /><path id="1551" transform="matrix(1 0 0 -1 0 792)" d="M290.255 256.773L290.255 270.34" stroke="#000000" stroke-width="0.398" fill="none" /><path id="1553" transform="matrix(1 0 0 -1 0 792)" d="M349.277 256.773L349.277 270.34" stroke="#000000" stroke-width="0.398" fill="none" /><path id="1555" transform="matrix(1 0 0 -1 0 792)" d="M408.299 256.773L408.299 270.34" stroke="#000000" stroke-width="0.398" fill="none" /><path id="1567" transform="matrix(1 0 0 -1 0 792)" d="M476.888 256.773L476.888 270.34" stroke="#000000" stroke-width="0.398" fill="none" /><path id="1568" transform="matrix(1 0 0 -1 0 792)" d="M97.702 256.574L477.088 256.574" stroke="#000000" stroke-width="0.398" fill="none" /><path id="1569" transform="matrix(1 0 0 -1 0 792)" d="M97.901 242.808L97.901 256.375" stroke="#000000" stroke-width="0.398" fill="none" /><path id="1575" transform="matrix(1 0 0 -1 0 792)" d="M134.564 247.09L137.553 247.09" stroke="#000000" stroke-width="0.398" fill="none" /><path id="1580" transform="matrix(1 0 0 -1 0 792)" d="M290.255 242.808L290.255 256.375" stroke="#000000" stroke-width="0.398" fill="none" /><path id="1582" transform="matrix(1 0 0 -1 0 792)" d="M349.277 242.808L349.277 256.375" stroke="#000000" stroke-width="0.398" fill="none" /><path id="1584" transform="matrix(1 0 0 -1 0 792)" d="M408.299 242.808L408.299 256.375" stroke="#000000" stroke-width="0.398" fill="none" /><path id="1596" transform="matrix(1 0 0 -1 0 792)" d="M476.888 242.808L476.888 256.375" stroke="#000000" stroke-width="0.398" fill="none" /><path id="1597" transform="matrix(1 0 0 -1 0 792)" d="M97.702 242.609L477.088 242.609" stroke="#000000" stroke-width="0.398" fill="none" /><path id="1598" transform="matrix(1 0 0 -1 0 792)" d="M97.901 228.843L97.901 242.41" stroke="#000000" stroke-width="0.398" fill="none" /><path id="1604" transform="matrix(1 0 0 -1 0 792)" d="M134.564 233.124L137.553 233.124" stroke="#000000" stroke-width="0.398" fill="none" /><path id="1609" transform="matrix(1 0 0 -1 0 792)" d="M290.255 228.843L290.255 242.41" stroke="#000000" stroke-width="0.398" fill="none" /><path id="1611" transform="matrix(1 0 0 -1 0 792)" d="M349.277 228.843L349.277 242.41" stroke="#000000" stroke-width="0.398" fill="none" /><path id="1613" transform="matrix(1 0 0 -1 0 792)" d="M408.299 228.843L408.299 242.41" stroke="#000000" stroke-width="0.398" fill="none" /><path id="1615" transform="matrix(1 0 0 -1 0 792)" d="M476.888 228.843L476.888 242.41" stroke="#000000" stroke-width="0.398" fill="none" /><path id="1616" transform="matrix(1 0 0 -1 0 792)" d="M97.702 228.644L477.088 228.644" stroke="#000000" stroke-width="0.398" fill="none" /><path id="1617" transform="matrix(1 0 0 -1 0 792)" d="M97.901 214.878L97.901 228.445" stroke="#000000" stroke-width="0.398" fill="none" /><path id="1623" transform="matrix(1 0 0 -1 0 792)" d="M134.564 219.159L137.553 219.159" stroke="#000000" stroke-width="0.398" fill="none" /><path id="1628" transform="matrix(1 0 0 -1 0 792)" d="M290.255 214.878L290.255 228.445" stroke="#000000" stroke-width="0.398" fill="none" /><path id="1630" transform="matrix(1 0 0 -1 0 792)" d="M349.277 214.878L349.277 228.445" stroke="#000000" stroke-width="0.398" fill="none" /><path id="1633" transform="matrix(1 0 0 -1 0 792)" d="M408.299 214.878L408.299 228.445" stroke="#000000" stroke-width="0.398" fill="none" /><path id="1645" transform="matrix(1 0 0 -1 0 792)" d="M476.888 214.878L476.888 228.445" stroke="#000000" stroke-width="0.398" fill="none" /><path id="1646" transform="matrix(1 0 0 -1 0 792)" d="M97.702 214.678L477.088 214.678" stroke="#000000" stroke-width="0.398" fill="none" /><path id="1647" transform="matrix(1 0 0 -1 0 792)" d="M97.901 200.913L97.901 214.48" stroke="#000000" stroke-width="0.398" fill="none" /><path id="1655" transform="matrix(1 0 0 -1 0 792)" d="M146.519 205.194L149.508 205.194" stroke="#000000" stroke-width="0.398" fill="none" /><path id="1660" transform="matrix(1 0 0 -1 0 792)" d="M290.255 200.913L290.255 214.48" stroke="#000000" stroke-width="0.398" fill="none" /><path id="1662" transform="matrix(1 0 0 -1 0 792)" d="M349.277 200.913L349.277 214.48" stroke="#000000" stroke-width="0.398" fill="none" /><path id="1664" transform="matrix(1 0 0 -1 0 792)" d="M408.299 200.913L408.299 214.48" stroke="#000000" stroke-width="0.398" fill="none" /><path id="1676" transform="matrix(1 0 0 -1 0 792)" d="M476.888 200.913L476.888 214.48" stroke="#000000" stroke-width="0.398" fill="none" /><path id="1677" transform="matrix(1 0 0 -1 0 792)" d="M97.702 200.713L477.088 200.713" stroke="#000000" stroke-width="0.398" fill="none" /><path id="1678" transform="matrix(1 0 0 -1 0 792)" d="M97.901 186.947L97.901 200.514" stroke="#000000" stroke-width="0.398" fill="none" /><path id="1684" transform="matrix(1 0 0 -1 0 792)" d="M134.564 191.229L137.553 191.229" stroke="#000000" stroke-width="0.398" fill="none" /><path id="1689" transform="matrix(1 0 0 -1 0 792)" d="M290.255 186.947L290.255 200.514" stroke="#000000" stroke-width="0.398" fill="none" /><path id="1691" transform="matrix(1 0 0 -1 0 792)" d="M349.277 186.947L349.277 200.514" stroke="#000000" stroke-width="0.398" fill="none" /><path id="1693" transform="matrix(1 0 0 -1 0 792)" d="M408.299 186.947L408.299 200.514" stroke="#000000" stroke-width="0.398" fill="none" /><path id="1695" transform="matrix(1 0 0 -1 0 792)" d="M476.888 186.947L476.888 200.514" stroke="#000000" stroke-width="0.398" fill="none" /><path id="1696" transform="matrix(1 0 0 -1 0 792)" d="M97.702 186.748L477.088 186.748" stroke="#000000" stroke-width="0.398" fill="none" /><path id="1697" transform="matrix(1 0 0 -1 0 792)" d="M97.901 172.982L97.901 186.549" stroke="#000000" stroke-width="0.398" fill="none" /><path id="1712" transform="matrix(1 0 0 -1 0 792)" d="M188.362 177.264L191.351 177.264" stroke="#000000" stroke-width="0.398" fill="none" /><path id="1718" transform="matrix(1 0 0 -1 0 792)" d="M221.836 177.264L224.825 177.264" stroke="#000000" stroke-width="0.398" fill="none" /><path id="1723" transform="matrix(1 0 0 -1 0 792)" d="M249.333 177.264L252.322 177.264" stroke="#000000" stroke-width="0.398" fill="none" /><path id="1728" transform="matrix(1 0 0 -1 0 792)" d="M290.255 172.982L290.255 186.549" stroke="#000000" stroke-width="0.398" fill="none" /><path id="1730" transform="matrix(1 0 0 -1 0 792)" d="M349.277 172.982L349.277 186.549" stroke="#000000" stroke-width="0.398" fill="none" /><path id="1732" transform="matrix(1 0 0 -1 0 792)" d="M408.299 172.982L408.299 186.549" stroke="#000000" stroke-width="0.398" fill="none" /><path id="1744" transform="matrix(1 0 0 -1 0 792)" d="M476.888 172.982L476.888 186.549" stroke="#000000" stroke-width="0.398" fill="none" /><path id="1745" transform="matrix(1 0 0 -1 0 792)" d="M97.702 172.783L477.088 172.783" stroke="#000000" stroke-width="0.398" fill="none" /><path id="1746" transform="matrix(1 0 0 -1 0 792)" d="M97.901 145.485L97.901 172.583" stroke="#000000" stroke-width="0.398" fill="none" /><path id="1761" transform="matrix(1 0 0 -1 0 792)" d="M188.362 163.299L191.351 163.299" stroke="#000000" stroke-width="0.398" fill="none" /><path id="1767" transform="matrix(1 0 0 -1 0 792)" d="M221.836 163.299L224.825 163.299" stroke="#000000" stroke-width="0.398" fill="none" /><path id="1772" transform="matrix(1 0 0 -1 0 792)" d="M249.333 163.299L252.322 163.299" stroke="#000000" stroke-width="0.398" fill="none" /><path id="1780" transform="matrix(1 0 0 -1 0 792)" d="M290.255 145.485L290.255 172.583" stroke="#000000" stroke-width="0.398" fill="none" /><path id="1782" transform="matrix(1 0 0 -1 0 792)" d="M349.277 145.485L349.277 172.583" stroke="#000000" stroke-width="0.398" fill="none" /><path id="1784" transform="matrix(1 0 0 -1 0 792)" d="M408.299 145.485L408.299 172.583" stroke="#000000" stroke-width="0.398" fill="none" /><path id="1796" transform="matrix(1 0 0 -1 0 792)" d="M476.888 145.485L476.888 172.583" stroke="#000000" stroke-width="0.398" fill="none" /><path id="1797" transform="matrix(1 0 0 -1 0 792)" d="M97.702 145.286L477.088 145.286" stroke="#000000" stroke-width="0.398" fill="none" /></g></g></svg>