<svg xmlns="http://www.w3.org/2000/svg" xmlns:xlink="http://www.w3.org/1999/xlink" id="body_68" preserveAspectRatio="xMinYMin meet" viewBox="0 0 1632 1056"><defs><clipPath id="1"><path id="" clip-rule="evenodd" transform="matrix(1 0 0 1 0 0)" d="M0 792L0 0L0 0L1224 0L1224 0L1224 792L1224 792L0 792z" /></clipPath></defs><g transform="matrix(1.333333 0 0 1.333333 0 0)"><g clip-path="url(#1)"><path id="1" transform="matrix(1 0 0 -1 0 792)" d="M666.067 721.28L1132.722 721.28" stroke="#000000" stroke-width="0.498" fill="none" /><path id="2" transform="matrix(1 0 0 -1 0 792)" d="M704.345 675.956L1094.444 675.956" stroke="#000000" stroke-width="0.398" fill="none" /><path id="3" transform="matrix(1 0 0 -1 0 792)" d="M704.545 662.19L704.545 675.757" stroke="#000000" stroke-width="0.398" fill="none" /><path id="4" transform="matrix(1 0 0 -1 0 792)" d="M704.744 662.19L896.699 662.19L896.699 675.757L704.744 675.757z" stroke="none" fill="#CCCCEB" fill-rule="nonzero" /><path id="10" transform="matrix(1 0 0 -1 0 792)" d="M896.898 662.19L896.898 675.757" stroke="#000000" stroke-width="0.398" fill="none" /><path id="11" transform="matrix(1 0 0 -1 0 792)" d="M897.098 662.19L955.722 662.19L955.722 675.757L897.098 675.757z" stroke="none" fill="#CCCCEB" fill-rule="nonzero" /><path id="21" transform="matrix(1 0 0 -1 0 792)" d="M955.92 662.19L955.92 675.757" stroke="#000000" stroke-width="0.398" fill="none" /><path id="22" transform="matrix(1 0 0 -1 0 792)" d="M956.12 662.19L1014.744 662.19L1014.744 675.757L956.12 675.757z" stroke="none" fill="#CCCCEB" fill-rule="nonzero" /><path id="30" transform="matrix(1 0 0 -1 0 792)" d="M1014.943 662.19L1014.943 675.757" stroke="#000000" stroke-width="0.398" fill="none" /><path id="31" transform="matrix(1 0 0 -1 0 792)" d="M1015.142 662.19L1094.046 662.19L1094.046 675.757L1015.142 675.757z" stroke="none" fill="#CCCCEB" fill-rule="nonzero" /><path id="35" transform="matrix(1 0 0 -1 0 792)" d="M1094.245 662.19L1094.245 675.757" stroke="#000000" stroke-width="0.398" fill="none" /><path id="36" transform="matrix(1 0 0 -1 0 792)" d="M704.545 648.623L704.545 662.19" stroke="#000000" stroke-width="0.398" fill="none" /><path id="37" transform="matrix(1 0 0 -1 0 792)" d="M704.744 648.623L896.699 648.623L896.699 662.19L704.744 662.19z" stroke="none" fill="#CCCCEB" fill-rule="nonzero" /><path id="38" transform="matrix(1 0 0 -1 0 792)" d="M896.898 648.623L896.898 662.19" stroke="#000000" stroke-width="0.398" fill="none" /><path id="39" transform="matrix(1 0 0 -1 0 792)" d="M897.098 648.623L955.722 648.623L955.722 662.19L897.098 662.19z" stroke="none" fill="#CCCCEB" fill-rule="nonzero" /><path id="40" transform="matrix(1 0 0 -1 0 792)" d="M955.92 648.623L955.92 662.19" stroke="#000000" stroke-width="0.398" fill="none" /><path id="41" transform="matrix(1 0 0 -1 0 792)" d="M956.12 648.623L1014.744 648.623L1014.744 662.19L956.12 662.19z" stroke="none" fill="#CCCCEB" fill-rule="nonzero" /><path id="47" transform="matrix(1 0 0 -1 0 792)" d="M1014.943 648.623L1014.943 662.19" stroke="#000000" stroke-width="0.398" fill="none" /><path id="48" transform="matrix(1 0 0 -1 0 792)" d="M1015.142 648.623L1094.046 648.623L1094.046 662.19L1015.142 662.19z" stroke="none" fill="#CCCCEB" fill-rule="nonzero" /><path id="49" transform="matrix(1 0 0 -1 0 792)" d="M1094.245 648.623L1094.245 662.19" stroke="#000000" stroke-width="0.398" fill="none" /><path id="50" transform="matrix(1 0 0 -1 0 792)" d="M704.345 648.424L1094.444 648.424" stroke="#000000" stroke-width="0.398" fill="none" /><path id="51" transform="matrix(1 0 0 -1 0 792)" d="M704.345 646.033L1094.444 646.033" stroke="#000000" stroke-width="0.398" fill="none" /><path id="52" transform="matrix(1 0 0 -1 0 792)" d="M704.545 632.267L704.545 645.834" stroke="#000000" stroke-width="0.398" fill="none" /><path id="60" transform="matrix(1 0 0 -1 0 792)" d="M753.162 636.549L756.151 636.549" stroke="#000000" stroke-width="0.398" fill="none" /><path id="68" transform="matrix(1 0 0 -1 0 792)" d="M896.898 632.267L896.898 645.834" stroke="#000000" stroke-width="0.398" fill="none" /><path id="70" transform="matrix(1 0 0 -1 0 792)" d="M955.92 632.267L955.92 645.834" stroke="#000000" stroke-width="0.398" fill="none" /><path id="72" transform="matrix(1 0 0 -1 0 792)" d="M1014.943 632.267L1014.943 645.834" stroke="#000000" stroke-width="0.398" fill="none" /><path id="84" transform="matrix(1 0 0 -1 0 792)" d="M1094.245 632.267L1094.245 645.834" stroke="#000000" stroke-width="0.398" fill="none" /><path id="85" transform="matrix(1 0 0 -1 0 792)" d="M704.345 632.068L1094.444 632.068" stroke="#000000" stroke-width="0.398" fill="none" /><path id="86" transform="matrix(1 0 0 -1 0 792)" d="M704.545 618.302L704.545 631.869" stroke="#000000" stroke-width="0.398" fill="none" /><path id="93" transform="matrix(1 0 0 -1 0 792)" d="M747.185 622.584L750.174 622.584" stroke="#000000" stroke-width="0.398" fill="none" /><path id="100" transform="matrix(1 0 0 -1 0 792)" d="M896.898 618.302L896.898 631.869" stroke="#000000" stroke-width="0.398" fill="none" /><path id="102" transform="matrix(1 0 0 -1 0 792)" d="M955.92 618.302L955.92 631.869" stroke="#000000" stroke-width="0.398" fill="none" /><path id="108" transform="matrix(1 0 0 -1 0 792)" d="M1014.943 618.302L1014.943 631.869" stroke="#000000" stroke-width="0.398" fill="none" /><path id="121" transform="matrix(1 0 0 -1 0 792)" d="M1094.245 618.302L1094.245 631.869" stroke="#000000" stroke-width="0.398" fill="none" /><path id="122" transform="matrix(1 0 0 -1 0 792)" d="M704.345 618.103L1094.444 618.103" stroke="#000000" stroke-width="0.398" fill="none" /><path id="123" transform="matrix(1 0 0 -1 0 792)" d="M704.545 604.337L704.545 617.904" stroke="#000000" stroke-width="0.398" fill="none" /><path id="128" transform="matrix(1 0 0 -1 0 792)" d="M735.23 608.619L738.219 608.619" stroke="#000000" stroke-width="0.398" fill="none" /><path id="135" transform="matrix(1 0 0 -1 0 792)" d="M896.898 604.337L896.898 617.904" stroke="#000000" stroke-width="0.398" fill="none" /><path id="137" transform="matrix(1 0 0 -1 0 792)" d="M955.92 604.337L955.92 617.904" stroke="#000000" stroke-width="0.398" fill="none" /><path id="143" transform="matrix(1 0 0 -1 0 792)" d="M1014.943 604.337L1014.943 617.904" stroke="#000000" stroke-width="0.398" fill="none" /><path id="155" transform="matrix(1 0 0 -1 0 792)" d="M1094.245 604.337L1094.245 617.904" stroke="#000000" stroke-width="0.398" fill="none" /><path id="156" transform="matrix(1 0 0 -1 0 792)" d="M704.345 604.138L1094.444 604.138" stroke="#000000" stroke-width="0.398" fill="none" /><path id="157" transform="matrix(1 0 0 -1 0 792)" d="M704.545 590.372L704.545 603.939" stroke="#000000" stroke-width="0.398" fill="none" /><path id="166" transform="matrix(1 0 0 -1 0 792)" d="M759.14 594.653L762.129 594.653" stroke="#000000" stroke-width="0.398" fill="none" /><path id="173" transform="matrix(1 0 0 -1 0 792)" d="M896.898 590.372L896.898 603.939" stroke="#000000" stroke-width="0.398" fill="none" /><path id="175" transform="matrix(1 0 0 -1 0 792)" d="M955.92 590.372L955.92 603.939" stroke="#000000" stroke-width="0.398" fill="none" /><path id="181" transform="matrix(1 0 0 -1 0 792)" d="M1014.943 590.372L1014.943 603.939" stroke="#000000" stroke-width="0.398" fill="none" /><path id="194" transform="matrix(1 0 0 -1 0 792)" d="M1094.245 590.372L1094.245 603.939" stroke="#000000" stroke-width="0.398" fill="none" /><path id="195" transform="matrix(1 0 0 -1 0 792)" d="M704.345 590.173L1094.444 590.173" stroke="#000000" stroke-width="0.398" fill="none" /><path id="196" transform="matrix(1 0 0 -1 0 792)" d="M704.545 576.407L704.545 589.974" stroke="#000000" stroke-width="0.398" fill="none" /><path id="205" transform="matrix(1 0 0 -1 0 792)" d="M759.14 580.688L762.129 580.688" stroke="#000000" stroke-width="0.398" fill="none" /><path id="213" transform="matrix(1 0 0 -1 0 792)" d="M896.898 576.407L896.898 589.974" stroke="#000000" stroke-width="0.398" fill="none" /><path id="215" transform="matrix(1 0 0 -1 0 792)" d="M955.92 576.407L955.92 589.974" stroke="#000000" stroke-width="0.398" fill="none" /><path id="217" transform="matrix(1 0 0 -1 0 792)" d="M1014.943 576.407L1014.943 589.974" stroke="#000000" stroke-width="0.398" fill="none" /><path id="230" transform="matrix(1 0 0 -1 0 792)" d="M1094.245 576.407L1094.245 589.974" stroke="#000000" stroke-width="0.398" fill="none" /><path id="231" transform="matrix(1 0 0 -1 0 792)" d="M704.345 576.207L1094.444 576.207" stroke="#000000" stroke-width="0.398" fill="none" /><path id="232" transform="matrix(1 0 0 -1 0 792)" d="M704.545 562.442L704.545 576.009" stroke="#000000" stroke-width="0.398" fill="none" /><path id="237" transform="matrix(1 0 0 -1 0 792)" d="M735.23 566.723L738.219 566.723" stroke="#000000" stroke-width="0.398" fill="none" /><path id="241" transform="matrix(1 0 0 -1 0 792)" d="M756.749 566.723L759.738 566.723" stroke="#000000" stroke-width="0.398" fill="none" /><path id="248" transform="matrix(1 0 0 -1 0 792)" d="M896.898 562.442L896.898 576.009" stroke="#000000" stroke-width="0.398" fill="none" /><path id="250" transform="matrix(1 0 0 -1 0 792)" d="M955.92 562.442L955.92 576.009" stroke="#000000" stroke-width="0.398" fill="none" /><path id="252" transform="matrix(1 0 0 -1 0 792)" d="M1014.943 562.442L1014.943 576.009" stroke="#000000" stroke-width="0.398" fill="none" /><path id="265" transform="matrix(1 0 0 -1 0 792)" d="M1094.245 562.442L1094.245 576.009" stroke="#000000" stroke-width="0.398" fill="none" /><path id="266" transform="matrix(1 0 0 -1 0 792)" d="M704.345 562.242L1094.444 562.242" stroke="#000000" stroke-width="0.398" fill="none" /><path id="267" transform="matrix(1 0 0 -1 0 792)" d="M704.545 548.476L704.545 562.043" stroke="#000000" stroke-width="0.398" fill="none" /><path id="274" transform="matrix(1 0 0 -1 0 792)" d="M747.185 552.758L750.174 552.758" stroke="#000000" stroke-width="0.398" fill="none" /><path id="283" transform="matrix(1 0 0 -1 0 792)" d="M896.898 548.476L896.898 562.043" stroke="#000000" stroke-width="0.398" fill="none" /><path id="285" transform="matrix(1 0 0 -1 0 792)" d="M955.92 548.476L955.92 562.043" stroke="#000000" stroke-width="0.398" fill="none" /><path id="287" transform="matrix(1 0 0 -1 0 792)" d="M1014.943 548.476L1014.943 562.043" stroke="#000000" stroke-width="0.398" fill="none" /><path id="299" transform="matrix(1 0 0 -1 0 792)" d="M1094.245 548.476L1094.245 562.043" stroke="#000000" stroke-width="0.398" fill="none" /><path id="300" transform="matrix(1 0 0 -1 0 792)" d="M704.345 548.277L1094.444 548.277" stroke="#000000" stroke-width="0.398" fill="none" /><path id="301" transform="matrix(1 0 0 -1 0 792)" d="M704.545 534.511L704.545 548.078" stroke="#000000" stroke-width="0.398" fill="none" /><path id="308" transform="matrix(1 0 0 -1 0 792)" d="M747.185 538.793L750.174 538.793" stroke="#000000" stroke-width="0.398" fill="none" /><path id="316" transform="matrix(1 0 0 -1 0 792)" d="M792.614 538.793L795.603 538.793" stroke="#000000" stroke-width="0.398" fill="none" /><path id="320" transform="matrix(1 0 0 -1 0 792)" d="M814.134 538.793L817.123 538.793" stroke="#000000" stroke-width="0.398" fill="none" /><path id="327" transform="matrix(1 0 0 -1 0 792)" d="M896.898 534.511L896.898 548.078" stroke="#000000" stroke-width="0.398" fill="none" /><path id="329" transform="matrix(1 0 0 -1 0 792)" d="M955.92 534.511L955.92 548.078" stroke="#000000" stroke-width="0.398" fill="none" /><path id="331" transform="matrix(1 0 0 -1 0 792)" d="M1014.943 534.511L1014.943 548.078" stroke="#000000" stroke-width="0.398" fill="none" /><path id="344" transform="matrix(1 0 0 -1 0 792)" d="M1094.245 534.511L1094.245 548.078" stroke="#000000" stroke-width="0.398" fill="none" /><path id="345" transform="matrix(1 0 0 -1 0 792)" d="M704.345 534.312L1094.444 534.312" stroke="#000000" stroke-width="0.398" fill="none" /><path id="346" transform="matrix(1 0 0 -1 0 792)" d="M704.545 520.546L704.545 534.113" stroke="#000000" stroke-width="0.398" fill="none" /><path id="353" transform="matrix(1 0 0 -1 0 792)" d="M747.185 524.828L750.174 524.828" stroke="#000000" stroke-width="0.398" fill="none" /><path id="364" transform="matrix(1 0 0 -1 0 792)" d="M896.898 520.546L896.898 534.113" stroke="#000000" stroke-width="0.398" fill="none" /><path id="366" transform="matrix(1 0 0 -1 0 792)" d="M955.92 520.546L955.92 534.113" stroke="#000000" stroke-width="0.398" fill="none" /><path id="368" transform="matrix(1 0 0 -1 0 792)" d="M1014.943 520.546L1014.943 534.113" stroke="#000000" stroke-width="0.398" fill="none" /><path id="381" transform="matrix(1 0 0 -1 0 792)" d="M1094.245 520.546L1094.245 534.113" stroke="#000000" stroke-width="0.398" fill="none" /><path id="382" transform="matrix(1 0 0 -1 0 792)" d="M704.345 520.347L1094.444 520.347" stroke="#000000" stroke-width="0.398" fill="none" /><path id="383" transform="matrix(1 0 0 -1 0 792)" d="M704.545 506.581L704.545 520.148" stroke="#000000" stroke-width="0.398" fill="none" /><path id="390" transform="matrix(1 0 0 -1 0 792)" d="M747.185 510.862L750.174 510.862" stroke="#000000" stroke-width="0.398" fill="none" /><path id="401" transform="matrix(1 0 0 -1 0 792)" d="M810.547 510.862L813.536 510.862" stroke="#000000" stroke-width="0.398" fill="none" /><path id="405" transform="matrix(1 0 0 -1 0 792)" d="M832.066 510.862L835.055 510.862" stroke="#000000" stroke-width="0.398" fill="none" /><path id="412" transform="matrix(1 0 0 -1 0 792)" d="M896.898 506.581L896.898 520.148" stroke="#000000" stroke-width="0.398" fill="none" /><path id="413" transform="matrix(1 0 0 -1 0 792)" d="M955.92 506.581L955.92 520.148" stroke="#000000" stroke-width="0.398" fill="none" /><path id="415" transform="matrix(1 0 0 -1 0 792)" d="M1014.943 506.581L1014.943 520.148" stroke="#000000" stroke-width="0.398" fill="none" /><path id="428" transform="matrix(1 0 0 -1 0 792)" d="M1094.245 506.581L1094.245 520.148" stroke="#000000" stroke-width="0.398" fill="none" /><path id="429" transform="matrix(1 0 0 -1 0 792)" d="M704.345 506.382L1094.444 506.382" stroke="#000000" stroke-width="0.398" fill="none" /><path id="430" transform="matrix(1 0 0 -1 0 792)" d="M690.311 421.611L1108.478 421.611" stroke="#000000" stroke-width="0.398" fill="none" /><path id="431" transform="matrix(1 0 0 -1 0 792)" d="M690.511 407.845L690.511 421.412" stroke="#000000" stroke-width="0.398" fill="none" /><path id="432" transform="matrix(1 0 0 -1 0 792)" d="M690.71 407.845L882.665 407.845L882.665 421.412L690.71 421.412z" stroke="none" fill="#CCCCEB" fill-rule="nonzero" /><path id="438" transform="matrix(1 0 0 -1 0 792)" d="M882.864 407.845L882.864 421.412" stroke="#000000" stroke-width="0.398" fill="none" /><path id="439" transform="matrix(1 0 0 -1 0 792)" d="M883.063 407.845L941.687 407.845L941.687 421.412L883.063 421.412z" stroke="none" fill="#CCCCEB" fill-rule="nonzero" /><path id="449" transform="matrix(1 0 0 -1 0 792)" d="M941.886 407.845L941.886 421.412" stroke="#000000" stroke-width="0.398" fill="none" /><path id="450" transform="matrix(1 0 0 -1 0 792)" d="M942.085 407.845L1000.709 407.845L1000.709 421.412L942.085 421.412z" stroke="none" fill="#CCCCEB" fill-rule="nonzero" /><path id="458" transform="matrix(1 0 0 -1 0 792)" d="M1000.908 407.845L1000.908 421.412" stroke="#000000" stroke-width="0.398" fill="none" /><path id="459" transform="matrix(1 0 0 -1 0 792)" d="M1001.108 407.845L1108.08 407.845L1108.08 421.412L1001.108 421.412z" stroke="none" fill="#CCCCEB" fill-rule="nonzero" /><path id="463" transform="matrix(1 0 0 -1 0 792)" d="M1108.279 407.845L1108.279 421.412" stroke="#000000" stroke-width="0.398" fill="none" /><path id="464" transform="matrix(1 0 0 -1 0 792)" d="M690.511 394.279L690.511 407.846" stroke="#000000" stroke-width="0.398" fill="none" /><path id="465" transform="matrix(1 0 0 -1 0 792)" d="M690.71 394.279L882.665 394.279L882.665 407.846L690.71 407.846z" stroke="none" fill="#CCCCEB" fill-rule="nonzero" /><path id="466" transform="matrix(1 0 0 -1 0 792)" d="M882.864 394.279L882.864 407.846" stroke="#000000" stroke-width="0.398" fill="none" /><path id="467" transform="matrix(1 0 0 -1 0 792)" d="M883.063 394.279L941.687 394.279L941.687 407.846L883.063 407.846z" stroke="none" fill="#CCCCEB" fill-rule="nonzero" /><path id="468" transform="matrix(1 0 0 -1 0 792)" d="M941.886 394.279L941.886 407.846" stroke="#000000" stroke-width="0.398" fill="none" /><path id="469" transform="matrix(1 0 0 -1 0 792)" d="M942.085 394.279L1000.709 394.279L1000.709 407.846L942.085 407.846z" stroke="none" fill="#CCCCEB" fill-rule="nonzero" /><path id="475" transform="matrix(1 0 0 -1 0 792)" d="M1000.908 394.279L1000.908 407.846" stroke="#000000" stroke-width="0.398" fill="none" /><path id="476" transform="matrix(1 0 0 -1 0 792)" d="M1001.108 394.279L1108.08 394.279L1108.08 407.846L1001.108 407.846z" stroke="none" fill="#CCCCEB" fill-rule="nonzero" /><path id="477" transform="matrix(1 0 0 -1 0 792)" d="M1108.279 394.279L1108.279 407.846" stroke="#000000" stroke-width="0.398" fill="none" /><path id="478" transform="matrix(1 0 0 -1 0 792)" d="M690.311 394.08L1108.478 394.08" stroke="#000000" stroke-width="0.398" fill="none" /><path id="479" transform="matrix(1 0 0 -1 0 792)" d="M690.311 391.689L1108.478 391.689" stroke="#000000" stroke-width="0.398" fill="none" /><path id="480" transform="matrix(1 0 0 -1 0 792)" d="M690.511 377.923L690.511 391.49" stroke="#000000" stroke-width="0.398" fill="none" /><path id="487" transform="matrix(1 0 0 -1 0 792)" d="M733.151 382.204L736.14 382.204" stroke="#000000" stroke-width="0.398" fill="none" /><path id="495" transform="matrix(1 0 0 -1 0 792)" d="M778.58 382.204L781.569 382.204" stroke="#000000" stroke-width="0.398" fill="none" /><path id="499" transform="matrix(1 0 0 -1 0 792)" d="M800.1 382.204L803.089 382.204" stroke="#000000" stroke-width="0.398" fill="none" /><path id="504" transform="matrix(1 0 0 -1 0 792)" d="M882.864 377.923L882.864 391.49" stroke="#000000" stroke-width="0.398" fill="none" /><path id="506" transform="matrix(1 0 0 -1 0 792)" d="M941.886 377.923L941.886 391.49" stroke="#000000" stroke-width="0.398" fill="none" /><path id="508" transform="matrix(1 0 0 -1 0 792)" d="M1000.908 377.923L1000.908 391.49" stroke="#000000" stroke-width="0.398" fill="none" /><path id="510" transform="matrix(1 0 0 -1 0 792)" d="M1108.279 377.923L1108.279 391.49" stroke="#000000" stroke-width="0.398" fill="none" /><path id="511" transform="matrix(1 0 0 -1 0 792)" d="M690.311 377.723L1108.478 377.723" stroke="#000000" stroke-width="0.398" fill="none" /><path id="512" transform="matrix(1 0 0 -1 0 792)" d="M690.511 363.957L690.511 377.524" stroke="#000000" stroke-width="0.398" fill="none" /><path id="520" transform="matrix(1 0 0 -1 0 792)" d="M739.128 368.239L742.117 368.239" stroke="#000000" stroke-width="0.398" fill="none" /><path id="527" transform="matrix(1 0 0 -1 0 792)" d="M778.58 368.239L781.569 368.239" stroke="#000000" stroke-width="0.398" fill="none" /><path id="534" transform="matrix(1 0 0 -1 0 792)" d="M882.864 363.957L882.864 377.524" stroke="#000000" stroke-width="0.398" fill="none" /><path id="536" transform="matrix(1 0 0 -1 0 792)" d="M941.886 363.957L941.886 377.524" stroke="#000000" stroke-width="0.398" fill="none" /><path id="544" transform="matrix(1 0 0 -1 0 792)" d="M1000.908 363.957L1000.908 377.524" stroke="#000000" stroke-width="0.398" fill="none" /><path id="564" transform="matrix(1 0 0 -1 0 792)" d="M1108.279 363.957L1108.279 377.524" stroke="#000000" stroke-width="0.398" fill="none" /><path id="565" transform="matrix(1 0 0 -1 0 792)" d="M690.311 363.758L1108.478 363.758" stroke="#000000" stroke-width="0.398" fill="none" /><path id="566" transform="matrix(1 0 0 -1 0 792)" d="M690.511 349.992L690.511 363.559" stroke="#000000" stroke-width="0.398" fill="none" /><path id="573" transform="matrix(1 0 0 -1 0 792)" d="M733.151 354.274L736.14 354.274" stroke="#000000" stroke-width="0.398" fill="none" /><path id="581" transform="matrix(1 0 0 -1 0 792)" d="M778.58 354.274L781.569 354.274" stroke="#000000" stroke-width="0.398" fill="none" /><path id="587" transform="matrix(1 0 0 -1 0 792)" d="M812.055 354.274L815.044 354.274" stroke="#000000" stroke-width="0.398" fill="none" /><path id="592" transform="matrix(1 0 0 -1 0 792)" d="M882.864 349.992L882.864 363.559" stroke="#000000" stroke-width="0.398" fill="none" /><path id="594" transform="matrix(1 0 0 -1 0 792)" d="M941.886 349.992L941.886 363.559" stroke="#000000" stroke-width="0.398" fill="none" /><path id="596" transform="matrix(1 0 0 -1 0 792)" d="M1000.908 349.992L1000.908 363.559" stroke="#000000" stroke-width="0.398" fill="none" /><path id="598" transform="matrix(1 0 0 -1 0 792)" d="M1108.279 349.992L1108.279 363.559" stroke="#000000" stroke-width="0.398" fill="none" /><path id="599" transform="matrix(1 0 0 -1 0 792)" d="M690.311 349.793L1108.478 349.793" stroke="#000000" stroke-width="0.398" fill="none" /><path id="627" transform="matrix(1 0 0 -1 0 792)" d="M704.605 265.023L1094.184 265.023" stroke="#000000" stroke-width="0.398" fill="none" /><path id="628" transform="matrix(1 0 0 -1 0 792)" d="M704.805 251.257L704.805 264.824" stroke="#000000" stroke-width="0.398" fill="none" /><path id="629" transform="matrix(1 0 0 -1 0 792)" d="M705.004 251.257L896.959 251.257L896.959 264.824L705.004 264.824z" stroke="none" fill="#CCCCEB" fill-rule="nonzero" /><path id="635" transform="matrix(1 0 0 -1 0 792)" d="M897.158 251.257L897.158 264.824" stroke="#000000" stroke-width="0.398" fill="none" /><path id="636" transform="matrix(1 0 0 -1 0 792)" d="M897.357 251.257L955.981 251.257L955.981 264.824L897.357 264.824z" stroke="none" fill="#CCCCEB" fill-rule="nonzero" /><path id="646" transform="matrix(1 0 0 -1 0 792)" d="M956.18 251.257L956.18 264.824" stroke="#000000" stroke-width="0.398" fill="none" /><path id="647" transform="matrix(1 0 0 -1 0 792)" d="M956.379 251.257L1025.196 251.257L1025.196 264.824L956.379 264.824z" stroke="none" fill="#CCCCEB" fill-rule="nonzero" /><path id="655" transform="matrix(1 0 0 -1 0 792)" d="M1025.396 251.257L1025.396 264.824" stroke="#000000" stroke-width="0.398" fill="none" /><path id="656" transform="matrix(1 0 0 -1 0 792)" d="M1025.595 251.257L1093.786 251.257L1093.786 264.824L1025.595 264.824z" stroke="none" fill="#CCCCEB" fill-rule="nonzero" /><path id="660" transform="matrix(1 0 0 -1 0 792)" d="M1093.985 251.257L1093.985 264.824" stroke="#000000" stroke-width="0.398" fill="none" /><path id="661" transform="matrix(1 0 0 -1 0 792)" d="M704.805 237.69L704.805 251.257" stroke="#000000" stroke-width="0.398" fill="none" /><path id="662" transform="matrix(1 0 0 -1 0 792)" d="M705.004 237.69L896.959 237.69L896.959 251.257L705.004 251.257z" stroke="none" fill="#CCCCEB" fill-rule="nonzero" /><path id="663" transform="matrix(1 0 0 -1 0 792)" d="M897.158 237.69L897.158 251.257" stroke="#000000" stroke-width="0.398" fill="none" /><path id="664" transform="matrix(1 0 0 -1 0 792)" d="M897.357 237.69L955.981 237.69L955.981 251.257L897.357 251.257z" stroke="none" fill="#CCCCEB" fill-rule="nonzero" /><path id="665" transform="matrix(1 0 0 -1 0 792)" d="M956.18 237.69L956.18 251.257" stroke="#000000" stroke-width="0.398" fill="none" /><path id="666" transform="matrix(1 0 0 -1 0 792)" d="M956.379 237.69L1025.196 237.69L1025.196 251.257L956.379 251.257z" stroke="none" fill="#CCCCEB" fill-rule="nonzero" /><path id="672" transform="matrix(1 0 0 -1 0 792)" d="M1025.396 237.69L1025.396 251.257" stroke="#000000" stroke-width="0.398" fill="none" /><path id="673" transform="matrix(1 0 0 -1 0 792)" d="M1025.595 237.69L1093.786 237.69L1093.786 251.257L1025.595 251.257z" stroke="none" fill="#CCCCEB" fill-rule="nonzero" /><path id="674" transform="matrix(1 0 0 -1 0 792)" d="M1093.985 237.69L1093.985 251.257" stroke="#000000" stroke-width="0.398" fill="none" /><path id="675" transform="matrix(1 0 0 -1 0 792)" d="M704.605 237.491L1094.184 237.491" stroke="#000000" stroke-width="0.398" fill="none" /><path id="676" transform="matrix(1 0 0 -1 0 792)" d="M704.605 235.1L1094.184 235.1" stroke="#000000" stroke-width="0.398" fill="none" /><path id="677" transform="matrix(1 0 0 -1 0 792)" d="M704.805 221.334L704.805 234.901" stroke="#000000" stroke-width="0.398" fill="none" /><path id="689" transform="matrix(1 0 0 -1 0 792)" d="M777.3329 225.616L780.322 225.616" stroke="#000000" stroke-width="0.398" fill="none" /><path id="700" transform="matrix(1 0 0 -1 0 792)" d="M840.695 225.616L843.684 225.616" stroke="#000000" stroke-width="0.398" fill="none" /><path id="705" transform="matrix(1 0 0 -1 0 792)" d="M897.158 221.334L897.158 234.901" stroke="#000000" stroke-width="0.398" fill="none" /><path id="707" transform="matrix(1 0 0 -1 0 792)" d="M956.18 221.334L956.18 234.901" stroke="#000000" stroke-width="0.398" fill="none" /><path id="709" transform="matrix(1 0 0 -1 0 792)" d="M1025.396 221.334L1025.396 234.901" stroke="#000000" stroke-width="0.398" fill="none" /><path id="711" transform="matrix(1 0 0 -1 0 792)" d="M1093.985 221.334L1093.985 234.901" stroke="#000000" stroke-width="0.398" fill="none" /><path id="712" transform="matrix(1 0 0 -1 0 792)" d="M704.605 221.135L1094.184 221.135" stroke="#000000" stroke-width="0.398" fill="none" /><path id="713" transform="matrix(1 0 0 -1 0 792)" d="M704.805 207.369L704.805 220.936" stroke="#000000" stroke-width="0.398" fill="none" /><path id="719" transform="matrix(1 0 0 -1 0 792)" d="M741.467 211.65L744.456 211.65" stroke="#000000" stroke-width="0.398" fill="none" /><path id="726" transform="matrix(1 0 0 -1 0 792)" d="M780.919 211.65L783.908 211.65" stroke="#000000" stroke-width="0.398" fill="none" /><path id="731" transform="matrix(1 0 0 -1 0 792)" d="M897.158 207.369L897.158 220.936" stroke="#000000" stroke-width="0.398" fill="none" /><path id="733" transform="matrix(1 0 0 -1 0 792)" d="M956.18 207.369L956.18 220.936" stroke="#000000" stroke-width="0.398" fill="none" /><path id="735" transform="matrix(1 0 0 -1 0 792)" d="M1025.396 207.369L1025.396 220.936" stroke="#000000" stroke-width="0.398" fill="none" /><path id="737" transform="matrix(1 0 0 -1 0 792)" d="M1093.985 207.369L1093.985 220.936" stroke="#000000" stroke-width="0.398" fill="none" /><path id="738" transform="matrix(1 0 0 -1 0 792)" d="M704.605 207.17L1094.184 207.17" stroke="#000000" stroke-width="0.398" fill="none" /><path id="739" transform="matrix(1 0 0 -1 0 792)" d="M704.805 193.404L704.805 206.971" stroke="#000000" stroke-width="0.398" fill="none" /><path id="744" transform="matrix(1 0 0 -1 0 792)" d="M735.489 197.685L738.478 197.685" stroke="#000000" stroke-width="0.398" fill="none" /><path id="751" transform="matrix(1 0 0 -1 0 792)" d="M774.942 197.685L777.931 197.685" stroke="#000000" stroke-width="0.398" fill="none" /><path id="756" transform="matrix(1 0 0 -1 0 792)" d="M897.158 193.404L897.158 206.971" stroke="#000000" stroke-width="0.398" fill="none" /><path id="758" transform="matrix(1 0 0 -1 0 792)" d="M956.18 193.404L956.18 206.971" stroke="#000000" stroke-width="0.398" fill="none" /><path id="760" transform="matrix(1 0 0 -1 0 792)" d="M1025.396 193.404L1025.396 206.971" stroke="#000000" stroke-width="0.398" fill="none" /><path id="762" transform="matrix(1 0 0 -1 0 792)" d="M1093.985 193.404L1093.985 206.971" stroke="#000000" stroke-width="0.398" fill="none" /><path id="763" transform="matrix(1 0 0 -1 0 792)" d="M704.605 193.204L1094.184 193.204" stroke="#000000" stroke-width="0.398" fill="none" /><path id="764" transform="matrix(1 0 0 -1 0 792)" d="M704.805 179.439L704.805 193.006" stroke="#000000" stroke-width="0.398" fill="none" /><path id="772" transform="matrix(1 0 0 -1 0 792)" d="M753.422 183.72L756.411 183.72" stroke="#000000" stroke-width="0.398" fill="none" /><path id="779" transform="matrix(1 0 0 -1 0 792)" d="M792.874 183.72L795.863 183.72" stroke="#000000" stroke-width="0.398" fill="none" /><path id="784" transform="matrix(1 0 0 -1 0 792)" d="M897.158 179.439L897.158 193.006" stroke="#000000" stroke-width="0.398" fill="none" /><path id="786" transform="matrix(1 0 0 -1 0 792)" d="M956.18 179.439L956.18 193.006" stroke="#000000" stroke-width="0.398" fill="none" /><path id="788" transform="matrix(1 0 0 -1 0 792)" d="M1025.396 179.439L1025.396 193.006" stroke="#000000" stroke-width="0.398" fill="none" /><path id="790" transform="matrix(1 0 0 -1 0 792)" d="M1093.985 179.439L1093.985 193.006" stroke="#000000" stroke-width="0.398" fill="none" /><path id="791" transform="matrix(1 0 0 -1 0 792)" d="M704.605 179.239L1094.184 179.239" stroke="#000000" stroke-width="0.398" fill="none" /><path id="792" transform="matrix(1 0 0 -1 0 792)" d="M704.805 165.473L704.805 179.04" stroke="#000000" stroke-width="0.398" fill="none" /><path id="796" transform="matrix(1 0 0 -1 0 792)" d="M729.512 169.755L732.501 169.755" stroke="#000000" stroke-width="0.398" fill="none" /><path id="801" transform="matrix(1 0 0 -1 0 792)" d="M897.158 165.473L897.158 179.04" stroke="#000000" stroke-width="0.398" fill="none" /><path id="803" transform="matrix(1 0 0 -1 0 792)" d="M956.18 165.473L956.18 179.04" stroke="#000000" stroke-width="0.398" fill="none" /><path id="805" transform="matrix(1 0 0 -1 0 792)" d="M1025.396 165.473L1025.396 179.04" stroke="#000000" stroke-width="0.398" fill="none" /><path id="807" transform="matrix(1 0 0 -1 0 792)" d="M1093.985 165.473L1093.985 179.04" stroke="#000000" stroke-width="0.398" fill="none" /><path id="808" transform="matrix(1 0 0 -1 0 792)" d="M704.605 165.274L1094.184 165.274" stroke="#000000" stroke-width="0.398" fill="none" /><path id="809" transform="matrix(1 0 0 -1 0 792)" d="M704.805 151.508L704.805 165.075" stroke="#000000" stroke-width="0.398" fill="none" /><path id="818" transform="matrix(1 0 0 -1 0 792)" d="M759.4 155.79L762.389 155.79" stroke="#000000" stroke-width="0.398" fill="none" /><path id="825" transform="matrix(1 0 0 -1 0 792)" d="M798.852 155.79L801.841 155.79" stroke="#000000" stroke-width="0.398" fill="none" /><path id="830" transform="matrix(1 0 0 -1 0 792)" d="M897.158 151.508L897.158 165.075" stroke="#000000" stroke-width="0.398" fill="none" /><path id="832" transform="matrix(1 0 0 -1 0 792)" d="M956.18 151.508L956.18 165.075" stroke="#000000" stroke-width="0.398" fill="none" /><path id="837" transform="matrix(1 0 0 -1 0 792)" d="M989.592 155.772L992.581 155.772" stroke="#000000" stroke-width="0.398" fill="none" /><path id="842" transform="matrix(1 0 0 -1 0 792)" d="M1025.396 151.508L1025.396 165.075" stroke="#000000" stroke-width="0.398" fill="none" /><path id="854" transform="matrix(1 0 0 -1 0 792)" d="M1093.985 151.508L1093.985 165.075" stroke="#000000" stroke-width="0.398" fill="none" /><path id="855" transform="matrix(1 0 0 -1 0 792)" d="M704.605 151.309L1094.184 151.309" stroke="#000000" stroke-width="0.398" fill="none" /><path id="856" transform="matrix(1 0 0 -1 0 792)" d="M704.805 137.543L704.805 151.11" stroke="#000000" stroke-width="0.398" fill="none" /><path id="864" transform="matrix(1 0 0 -1 0 792)" d="M753.422 141.825L756.411 141.825" stroke="#000000" stroke-width="0.398" fill="none" /><path id="876" transform="matrix(1 0 0 -1 0 792)" d="M822.762 141.825L825.751 141.825" stroke="#000000" stroke-width="0.398" fill="none" /><path id="881" transform="matrix(1 0 0 -1 0 792)" d="M897.158 137.543L897.158 151.11" stroke="#000000" stroke-width="0.398" fill="none" /><path id="883" transform="matrix(1 0 0 -1 0 792)" d="M956.18 137.543L956.18 151.11" stroke="#000000" stroke-width="0.398" fill="none" /><path id="885" transform="matrix(1 0 0 -1 0 792)" d="M1025.396 137.543L1025.396 151.11" stroke="#000000" stroke-width="0.398" fill="none" /><path id="887" transform="matrix(1 0 0 -1 0 792)" d="M1093.985 137.543L1093.985 151.11" stroke="#000000" stroke-width="0.398" fill="none" /><path id="888" transform="matrix(1 0 0 -1 0 792)" d="M704.605 137.344L1094.184 137.344" stroke="#000000" stroke-width="0.398" fill="none" /><path id="889" transform="matrix(1 0 0 -1 0 792)" d="M704.805 123.578L704.805 137.145" stroke="#000000" stroke-width="0.398" fill="none" /><path id="898" transform="matrix(1 0 0 -1 0 792)" d="M759.4 127.859L762.389 127.859" stroke="#000000" stroke-width="0.398" fill="none" /><path id="905" transform="matrix(1 0 0 -1 0 792)" d="M798.852 127.859L801.841 127.859" stroke="#000000" stroke-width="0.398" fill="none" /><path id="916" transform="matrix(1 0 0 -1 0 792)" d="M862.214 127.859L865.203 127.859" stroke="#000000" stroke-width="0.398" fill="none" /><path id="921" transform="matrix(1 0 0 -1 0 792)" d="M897.158 123.578L897.158 137.145" stroke="#000000" stroke-width="0.398" fill="none" /><path id="923" transform="matrix(1 0 0 -1 0 792)" d="M956.18 123.578L956.18 137.145" stroke="#000000" stroke-width="0.398" fill="none" /><path id="925" transform="matrix(1 0 0 -1 0 792)" d="M1025.396 123.578L1025.396 137.145" stroke="#000000" stroke-width="0.398" fill="none" /><path id="927" transform="matrix(1 0 0 -1 0 792)" d="M1093.985 123.578L1093.985 137.145" stroke="#000000" stroke-width="0.398" fill="none" /><path id="928" transform="matrix(1 0 0 -1 0 792)" d="M704.605 123.379L1094.184 123.379" stroke="#000000" stroke-width="0.398" fill="none" /><path id="944" transform="matrix(1 0 0 -1 0 792)" d="M666.067 722.529L1132.724 722.529L1132.724 722.529L1132.724 735.6745L1132.724 735.6745L666.067 735.6745z" stroke="#FFFFFF" stroke-width="1" fill="#FFFFFF" fill-rule="nonzero" /><path id="954" transform="matrix(1 0 0 -1 0 792)" d="M826.332 483.67L972.459 483.67L972.459 483.67L972.459 496.8155L972.459 496.8155L826.332 496.8155z" stroke="#FFFFFF" stroke-width="1" fill="#FFFFFF" fill-rule="nonzero" /><path id="1009" transform="matrix(1 0 0 -1 0 792)" d="M54.067 721.28L520.722 721.28" stroke="#000000" stroke-width="0.498" fill="none" /><path id="1010" transform="matrix(1 0 0 -1 0 792)" d="M92.345 675.956L482.444 675.956" stroke="#000000" stroke-width="0.398" fill="none" /><path id="1011" transform="matrix(1 0 0 -1 0 792)" d="M92.545 662.19L92.545 675.757" stroke="#000000" stroke-width="0.398" fill="none" /><path id="1012" transform="matrix(1 0 0 -1 0 792)" d="M92.744 662.19L284.699 662.19L284.699 675.757L92.744 675.757z" stroke="none" fill="#CCCCEB" fill-rule="nonzero" /><path id="1018" transform="matrix(1 0 0 -1 0 792)" d="M284.898 662.19L284.898 675.757" stroke="#000000" stroke-width="0.398" fill="none" /><path id="1019" transform="matrix(1 0 0 -1 0 792)" d="M285.098 662.19L343.722 662.19L343.722 675.757L285.098 675.757z" stroke="none" fill="#CCCCEB" fill-rule="nonzero" /><path id="1029" transform="matrix(1 0 0 -1 0 792)" d="M343.92 662.19L343.92 675.757" stroke="#000000" stroke-width="0.398" fill="none" /><path id="1030" transform="matrix(1 0 0 -1 0 792)" d="M344.12 662.19L402.744 662.19L402.744 675.757L344.12 675.757z" stroke="none" fill="#CCCCEB" fill-rule="nonzero" /><path id="1038" transform="matrix(1 0 0 -1 0 792)" d="M402.943 662.19L402.943 675.757" stroke="#000000" stroke-width="0.398" fill="none" /><path id="1039" transform="matrix(1 0 0 -1 0 792)" d="M403.142 662.19L482.046 662.19L482.046 675.757L403.142 675.757z" stroke="none" fill="#CCCCEB" fill-rule="nonzero" /><path id="1043" transform="matrix(1 0 0 -1 0 792)" d="M482.245 662.19L482.245 675.757" stroke="#000000" stroke-width="0.398" fill="none" /><path id="1044" transform="matrix(1 0 0 -1 0 792)" d="M92.545 648.623L92.545 662.19" stroke="#000000" stroke-width="0.398" fill="none" /><path id="1045" transform="matrix(1 0 0 -1 0 792)" d="M92.744 648.623L284.699 648.623L284.699 662.19L92.744 662.19z" stroke="none" fill="#CCCCEB" fill-rule="nonzero" /><path id="1046" transform="matrix(1 0 0 -1 0 792)" d="M284.898 648.623L284.898 662.19" stroke="#000000" stroke-width="0.398" fill="none" /><path id="1047" transform="matrix(1 0 0 -1 0 792)" d="M285.098 648.623L343.722 648.623L343.722 662.19L285.098 662.19z" stroke="none" fill="#CCCCEB" fill-rule="nonzero" /><path id="1048" transform="matrix(1 0 0 -1 0 792)" d="M343.92 648.623L343.92 662.19" stroke="#000000" stroke-width="0.398" fill="none" /><path id="1049" transform="matrix(1 0 0 -1 0 792)" d="M344.12 648.623L402.744 648.623L402.744 662.19L344.12 662.19z" stroke="none" fill="#CCCCEB" fill-rule="nonzero" /><path id="1055" transform="matrix(1 0 0 -1 0 792)" d="M402.943 648.623L402.943 662.19" stroke="#000000" stroke-width="0.398" fill="none" /><path id="1056" transform="matrix(1 0 0 -1 0 792)" d="M403.142 648.623L482.046 648.623L482.046 662.19L403.142 662.19z" stroke="none" fill="#CCCCEB" fill-rule="nonzero" /><path id="1057" transform="matrix(1 0 0 -1 0 792)" d="M482.245 648.623L482.245 662.19" stroke="#000000" stroke-width="0.398" fill="none" /><path id="1058" transform="matrix(1 0 0 -1 0 792)" d="M92.345 648.424L482.444 648.424" stroke="#000000" stroke-width="0.398" fill="none" /><path id="1059" transform="matrix(1 0 0 -1 0 792)" d="M92.345 646.033L482.444 646.033" stroke="#000000" stroke-width="0.398" fill="none" /><path id="1060" transform="matrix(1 0 0 -1 0 792)" d="M92.545 632.267L92.545 645.834" stroke="#000000" stroke-width="0.398" fill="none" /><path id="1068" transform="matrix(1 0 0 -1 0 792)" d="M141.162 636.549L144.151 636.549" stroke="#000000" stroke-width="0.398" fill="none" /><path id="1076" transform="matrix(1 0 0 -1 0 792)" d="M284.898 632.267L284.898 645.834" stroke="#000000" stroke-width="0.398" fill="none" /><path id="1078" transform="matrix(1 0 0 -1 0 792)" d="M343.92 632.267L343.92 645.834" stroke="#000000" stroke-width="0.398" fill="none" /><path id="1080" transform="matrix(1 0 0 -1 0 792)" d="M402.943 632.267L402.943 645.834" stroke="#000000" stroke-width="0.398" fill="none" /><path id="1092" transform="matrix(1 0 0 -1 0 792)" d="M482.245 632.267L482.245 645.834" stroke="#000000" stroke-width="0.398" fill="none" /><path id="1093" transform="matrix(1 0 0 -1 0 792)" d="M92.345 632.068L482.444 632.068" stroke="#000000" stroke-width="0.398" fill="none" /><path id="1094" transform="matrix(1 0 0 -1 0 792)" d="M92.545 618.302L92.545 631.869" stroke="#000000" stroke-width="0.398" fill="none" /><path id="1101" transform="matrix(1 0 0 -1 0 792)" d="M135.185 622.584L138.174 622.584" stroke="#000000" stroke-width="0.398" fill="none" /><path id="1108" transform="matrix(1 0 0 -1 0 792)" d="M284.898 618.302L284.898 631.869" stroke="#000000" stroke-width="0.398" fill="none" /><path id="1110" transform="matrix(1 0 0 -1 0 792)" d="M343.92 618.302L343.92 631.869" stroke="#000000" stroke-width="0.398" fill="none" /><path id="1116" transform="matrix(1 0 0 -1 0 792)" d="M402.943 618.302L402.943 631.869" stroke="#000000" stroke-width="0.398" fill="none" /><path id="1129" transform="matrix(1 0 0 -1 0 792)" d="M482.245 618.302L482.245 631.869" stroke="#000000" stroke-width="0.398" fill="none" /><path id="1130" transform="matrix(1 0 0 -1 0 792)" d="M92.345 618.103L482.444 618.103" stroke="#000000" stroke-width="0.398" fill="none" /><path id="1131" transform="matrix(1 0 0 -1 0 792)" d="M92.545 604.337L92.545 617.904" stroke="#000000" stroke-width="0.398" fill="none" /><path id="1136" transform="matrix(1 0 0 -1 0 792)" d="M123.23 608.619L126.219 608.619" stroke="#000000" stroke-width="0.398" fill="none" /><path id="1143" transform="matrix(1 0 0 -1 0 792)" d="M284.898 604.337L284.898 617.904" stroke="#000000" stroke-width="0.398" fill="none" /><path id="1145" transform="matrix(1 0 0 -1 0 792)" d="M343.92 604.337L343.92 617.904" stroke="#000000" stroke-width="0.398" fill="none" /><path id="1151" transform="matrix(1 0 0 -1 0 792)" d="M402.943 604.337L402.943 617.904" stroke="#000000" stroke-width="0.398" fill="none" /><path id="1163" transform="matrix(1 0 0 -1 0 792)" d="M482.245 604.337L482.245 617.904" stroke="#000000" stroke-width="0.398" fill="none" /><path id="1164" transform="matrix(1 0 0 -1 0 792)" d="M92.345 604.138L482.444 604.138" stroke="#000000" stroke-width="0.398" fill="none" /><path id="1165" transform="matrix(1 0 0 -1 0 792)" d="M92.545 590.372L92.545 603.939" stroke="#000000" stroke-width="0.398" fill="none" /><path id="1174" transform="matrix(1 0 0 -1 0 792)" d="M147.14 594.653L150.129 594.653" stroke="#000000" stroke-width="0.398" fill="none" /><path id="1181" transform="matrix(1 0 0 -1 0 792)" d="M284.898 590.372L284.898 603.939" stroke="#000000" stroke-width="0.398" fill="none" /><path id="1183" transform="matrix(1 0 0 -1 0 792)" d="M343.92 590.372L343.92 603.939" stroke="#000000" stroke-width="0.398" fill="none" /><path id="1189" transform="matrix(1 0 0 -1 0 792)" d="M402.943 590.372L402.943 603.939" stroke="#000000" stroke-width="0.398" fill="none" /><path id="1202" transform="matrix(1 0 0 -1 0 792)" d="M482.245 590.372L482.245 603.939" stroke="#000000" stroke-width="0.398" fill="none" /><path id="1203" transform="matrix(1 0 0 -1 0 792)" d="M92.345 590.173L482.444 590.173" stroke="#000000" stroke-width="0.398" fill="none" /><path id="1204" transform="matrix(1 0 0 -1 0 792)" d="M92.545 576.407L92.545 589.974" stroke="#000000" stroke-width="0.398" fill="none" /><path id="1213" transform="matrix(1 0 0 -1 0 792)" d="M147.14 580.688L150.129 580.688" stroke="#000000" stroke-width="0.398" fill="none" /><path id="1221" transform="matrix(1 0 0 -1 0 792)" d="M284.898 576.407L284.898 589.974" stroke="#000000" stroke-width="0.398" fill="none" /><path id="1223" transform="matrix(1 0 0 -1 0 792)" d="M343.92 576.407L343.92 589.974" stroke="#000000" stroke-width="0.398" fill="none" /><path id="1225" transform="matrix(1 0 0 -1 0 792)" d="M402.943 576.407L402.943 589.974" stroke="#000000" stroke-width="0.398" fill="none" /><path id="1238" transform="matrix(1 0 0 -1 0 792)" d="M482.245 576.407L482.245 589.974" stroke="#000000" stroke-width="0.398" fill="none" /><path id="1239" transform="matrix(1 0 0 -1 0 792)" d="M92.345 576.207L482.444 576.207" stroke="#000000" stroke-width="0.398" fill="none" /><path id="1240" transform="matrix(1 0 0 -1 0 792)" d="M92.545 562.442L92.545 576.009" stroke="#000000" stroke-width="0.398" fill="none" /><path id="1245" transform="matrix(1 0 0 -1 0 792)" d="M123.23 566.723L126.219 566.723" stroke="#000000" stroke-width="0.398" fill="none" /><path id="1249" transform="matrix(1 0 0 -1 0 792)" d="M144.749 566.723L147.738 566.723" stroke="#000000" stroke-width="0.398" fill="none" /><path id="1256" transform="matrix(1 0 0 -1 0 792)" d="M284.898 562.442L284.898 576.009" stroke="#000000" stroke-width="0.398" fill="none" /><path id="1258" transform="matrix(1 0 0 -1 0 792)" d="M343.92 562.442L343.92 576.009" stroke="#000000" stroke-width="0.398" fill="none" /><path id="1260" transform="matrix(1 0 0 -1 0 792)" d="M402.943 562.442L402.943 576.009" stroke="#000000" stroke-width="0.398" fill="none" /><path id="1273" transform="matrix(1 0 0 -1 0 792)" d="M482.245 562.442L482.245 576.009" stroke="#000000" stroke-width="0.398" fill="none" /><path id="1274" transform="matrix(1 0 0 -1 0 792)" d="M92.345 562.242L482.444 562.242" stroke="#000000" stroke-width="0.398" fill="none" /><path id="1275" transform="matrix(1 0 0 -1 0 792)" d="M92.545 548.476L92.545 562.043" stroke="#000000" stroke-width="0.398" fill="none" /><path id="1282" transform="matrix(1 0 0 -1 0 792)" d="M135.185 552.758L138.174 552.758" stroke="#000000" stroke-width="0.398" fill="none" /><path id="1291" transform="matrix(1 0 0 -1 0 792)" d="M284.898 548.476L284.898 562.043" stroke="#000000" stroke-width="0.398" fill="none" /><path id="1293" transform="matrix(1 0 0 -1 0 792)" d="M343.92 548.476L343.92 562.043" stroke="#000000" stroke-width="0.398" fill="none" /><path id="1295" transform="matrix(1 0 0 -1 0 792)" d="M402.943 548.476L402.943 562.043" stroke="#000000" stroke-width="0.398" fill="none" /><path id="1307" transform="matrix(1 0 0 -1 0 792)" d="M482.245 548.476L482.245 562.043" stroke="#000000" stroke-width="0.398" fill="none" /><path id="1308" transform="matrix(1 0 0 -1 0 792)" d="M92.345 548.277L482.444 548.277" stroke="#000000" stroke-width="0.398" fill="none" /><path id="1309" transform="matrix(1 0 0 -1 0 792)" d="M92.545 534.511L92.545 548.078" stroke="#000000" stroke-width="0.398" fill="none" /><path id="1316" transform="matrix(1 0 0 -1 0 792)" d="M135.185 538.793L138.174 538.793" stroke="#000000" stroke-width="0.398" fill="none" /><path id="1324" transform="matrix(1 0 0 -1 0 792)" d="M180.614 538.793L183.603 538.793" stroke="#000000" stroke-width="0.398" fill="none" /><path id="1328" transform="matrix(1 0 0 -1 0 792)" d="M202.134 538.793L205.123 538.793" stroke="#000000" stroke-width="0.398" fill="none" /><path id="1335" transform="matrix(1 0 0 -1 0 792)" d="M284.898 534.511L284.898 548.078" stroke="#000000" stroke-width="0.398" fill="none" /><path id="1337" transform="matrix(1 0 0 -1 0 792)" d="M343.92 534.511L343.92 548.078" stroke="#000000" stroke-width="0.398" fill="none" /><path id="1339" transform="matrix(1 0 0 -1 0 792)" d="M402.943 534.511L402.943 548.078" stroke="#000000" stroke-width="0.398" fill="none" /><path id="1352" transform="matrix(1 0 0 -1 0 792)" d="M482.245 534.511L482.245 548.078" stroke="#000000" stroke-width="0.398" fill="none" /><path id="1353" transform="matrix(1 0 0 -1 0 792)" d="M92.345 534.312L482.444 534.312" stroke="#000000" stroke-width="0.398" fill="none" /><path id="1354" transform="matrix(1 0 0 -1 0 792)" d="M92.545 520.546L92.545 534.113" stroke="#000000" stroke-width="0.398" fill="none" /><path id="1361" transform="matrix(1 0 0 -1 0 792)" d="M135.185 524.828L138.174 524.828" stroke="#000000" stroke-width="0.398" fill="none" /><path id="1372" transform="matrix(1 0 0 -1 0 792)" d="M284.898 520.546L284.898 534.113" stroke="#000000" stroke-width="0.398" fill="none" /><path id="1374" transform="matrix(1 0 0 -1 0 792)" d="M343.92 520.546L343.92 534.113" stroke="#000000" stroke-width="0.398" fill="none" /><path id="1376" transform="matrix(1 0 0 -1 0 792)" d="M402.943 520.546L402.943 534.113" stroke="#000000" stroke-width="0.398" fill="none" /><path id="1389" transform="matrix(1 0 0 -1 0 792)" d="M482.245 520.546L482.245 534.113" stroke="#000000" stroke-width="0.398" fill="none" /><path id="1390" transform="matrix(1 0 0 -1 0 792)" d="M92.345 520.347L482.444 520.347" stroke="#000000" stroke-width="0.398" fill="none" /><path id="1391" transform="matrix(1 0 0 -1 0 792)" d="M92.545 506.581L92.545 520.148" stroke="#000000" stroke-width="0.398" fill="none" /><path id="1398" transform="matrix(1 0 0 -1 0 792)" d="M135.185 510.862L138.174 510.862" stroke="#000000" stroke-width="0.398" fill="none" /><path id="1409" transform="matrix(1 0 0 -1 0 792)" d="M198.547 510.862L201.536 510.862" stroke="#000000" stroke-width="0.398" fill="none" /><path id="1413" transform="matrix(1 0 0 -1 0 792)" d="M220.066 510.862L223.055 510.862" stroke="#000000" stroke-width="0.398" fill="none" /><path id="1420" transform="matrix(1 0 0 -1 0 792)" d="M284.898 506.581L284.898 520.148" stroke="#000000" stroke-width="0.398" fill="none" /><path id="1422" transform="matrix(1 0 0 -1 0 792)" d="M343.92 506.581L343.92 520.148" stroke="#000000" stroke-width="0.398" fill="none" /><path id="1424" transform="matrix(1 0 0 -1 0 792)" d="M402.943 506.581L402.943 520.148" stroke="#000000" stroke-width="0.398" fill="none" /><path id="1437" transform="matrix(1 0 0 -1 0 792)" d="M482.245 506.581L482.245 520.148" stroke="#000000" stroke-width="0.398" fill="none" /><path id="1438" transform="matrix(1 0 0 -1 0 792)" d="M92.345 506.382L482.444 506.382" stroke="#000000" stroke-width="0.398" fill="none" /><path id="1467" transform="matrix(1 0 0 -1 0 792)" d="M78.311 421.611L496.478 421.611" stroke="#000000" stroke-width="0.398" fill="none" /><path id="1468" transform="matrix(1 0 0 -1 0 792)" d="M78.511 407.845L78.511 421.412" stroke="#000000" stroke-width="0.398" fill="none" /><path id="1469" transform="matrix(1 0 0 -1 0 792)" d="M78.71 407.845L270.665 407.845L270.665 421.412L78.71 421.412z" stroke="none" fill="#CCCCEB" fill-rule="nonzero" /><path id="1475" transform="matrix(1 0 0 -1 0 792)" d="M270.864 407.845L270.864 421.412" stroke="#000000" stroke-width="0.398" fill="none" /><path id="1476" transform="matrix(1 0 0 -1 0 792)" d="M271.063 407.845L329.687 407.845L329.687 421.412L271.063 421.412z" stroke="none" fill="#CCCCEB" fill-rule="nonzero" /><path id="1486" transform="matrix(1 0 0 -1 0 792)" d="M329.886 407.845L329.886 421.412" stroke="#000000" stroke-width="0.398" fill="none" /><path id="1487" transform="matrix(1 0 0 -1 0 792)" d="M330.085 407.845L388.709 407.845L388.709 421.412L330.085 421.412z" stroke="none" fill="#CCCCEB" fill-rule="nonzero" /><path id="1495" transform="matrix(1 0 0 -1 0 792)" d="M388.908 407.845L388.908 421.412" stroke="#000000" stroke-width="0.398" fill="none" /><path id="1496" transform="matrix(1 0 0 -1 0 792)" d="M389.108 407.845L496.08 407.845L496.08 421.412L389.108 421.412z" stroke="none" fill="#CCCCEB" fill-rule="nonzero" /><path id="1500" transform="matrix(1 0 0 -1 0 792)" d="M496.279 407.845L496.279 421.412" stroke="#000000" stroke-width="0.398" fill="none" /><path id="1501" transform="matrix(1 0 0 -1 0 792)" d="M78.511 394.279L78.511 407.846" stroke="#000000" stroke-width="0.398" fill="none" /><path id="1502" transform="matrix(1 0 0 -1 0 792)" d="M78.71 394.279L270.665 394.279L270.665 407.846L78.71 407.846z" stroke="none" fill="#CCCCEB" fill-rule="nonzero" /><path id="1503" transform="matrix(1 0 0 -1 0 792)" d="M270.864 394.279L270.864 407.846" stroke="#000000" stroke-width="0.398" fill="none" /><path id="1504" transform="matrix(1 0 0 -1 0 792)" d="M271.063 394.279L329.687 394.279L329.687 407.846L271.063 407.846z" stroke="none" fill="#CCCCEB" fill-rule="nonzero" /><path id="1505" transform="matrix(1 0 0 -1 0 792)" d="M329.886 394.279L329.886 407.846" stroke="#000000" stroke-width="0.398" fill="none" /><path id="1506" transform="matrix(1 0 0 -1 0 792)" d="M330.085 394.279L388.709 394.279L388.709 407.846L330.085 407.846z" stroke="none" fill="#CCCCEB" fill-rule="nonzero" /><path id="1512" transform="matrix(1 0 0 -1 0 792)" d="M388.908 394.279L388.908 407.846" stroke="#000000" stroke-width="0.398" fill="none" /><path id="1513" transform="matrix(1 0 0 -1 0 792)" d="M389.108 394.279L496.08 394.279L496.08 407.846L389.108 407.846z" stroke="none" fill="#CCCCEB" fill-rule="nonzero" /><path id="1514" transform="matrix(1 0 0 -1 0 792)" d="M496.279 394.279L496.279 407.846" stroke="#000000" stroke-width="0.398" fill="none" /><path id="1515" transform="matrix(1 0 0 -1 0 792)" d="M78.311 394.08L496.478 394.08" stroke="#000000" stroke-width="0.398" fill="none" /><path id="1516" transform="matrix(1 0 0 -1 0 792)" d="M78.311 391.689L496.478 391.689" stroke="#000000" stroke-width="0.398" fill="none" /><path id="1517" transform="matrix(1 0 0 -1 0 792)" d="M78.511 377.923L78.511 391.49" stroke="#000000" stroke-width="0.398" fill="none" /><path id="1524" transform="matrix(1 0 0 -1 0 792)" d="M121.151 382.204L124.14 382.204" stroke="#000000" stroke-width="0.398" fill="none" /><path id="1532" transform="matrix(1 0 0 -1 0 792)" d="M166.58 382.204L169.569 382.204" stroke="#000000" stroke-width="0.398" fill="none" /><path id="1536" transform="matrix(1 0 0 -1 0 792)" d="M188.1 382.204L191.089 382.204" stroke="#000000" stroke-width="0.398" fill="none" /><path id="1541" transform="matrix(1 0 0 -1 0 792)" d="M270.864 377.923L270.864 391.49" stroke="#000000" stroke-width="0.398" fill="none" /><path id="1543" transform="matrix(1 0 0 -1 0 792)" d="M329.886 377.923L329.886 391.49" stroke="#000000" stroke-width="0.398" fill="none" /><path id="1545" transform="matrix(1 0 0 -1 0 792)" d="M388.908 377.923L388.908 391.49" stroke="#000000" stroke-width="0.398" fill="none" /><path id="1547" transform="matrix(1 0 0 -1 0 792)" d="M496.279 377.923L496.279 391.49" stroke="#000000" stroke-width="0.398" fill="none" /><path id="1548" transform="matrix(1 0 0 -1 0 792)" d="M78.311 377.723L496.478 377.723" stroke="#000000" stroke-width="0.398" fill="none" /><path id="1549" transform="matrix(1 0 0 -1 0 792)" d="M78.511 363.957L78.511 377.524" stroke="#000000" stroke-width="0.398" fill="none" /><path id="1557" transform="matrix(1 0 0 -1 0 792)" d="M127.128 368.239L130.117 368.239" stroke="#000000" stroke-width="0.398" fill="none" /><path id="1564" transform="matrix(1 0 0 -1 0 792)" d="M166.58 368.239L169.569 368.239" stroke="#000000" stroke-width="0.398" fill="none" /><path id="1571" transform="matrix(1 0 0 -1 0 792)" d="M270.864 363.957L270.864 377.524" stroke="#000000" stroke-width="0.398" fill="none" /><path id="1573" transform="matrix(1 0 0 -1 0 792)" d="M329.886 363.957L329.886 377.524" stroke="#000000" stroke-width="0.398" fill="none" /><path id="1581" transform="matrix(1 0 0 -1 0 792)" d="M388.908 363.957L388.908 377.524" stroke="#000000" stroke-width="0.398" fill="none" /><path id="1601" transform="matrix(1 0 0 -1 0 792)" d="M496.279 363.957L496.279 377.524" stroke="#000000" stroke-width="0.398" fill="none" /><path id="1602" transform="matrix(1 0 0 -1 0 792)" d="M78.311 363.758L496.478 363.758" stroke="#000000" stroke-width="0.398" fill="none" /><path id="1603" transform="matrix(1 0 0 -1 0 792)" d="M78.511 349.992L78.511 363.559" stroke="#000000" stroke-width="0.398" fill="none" /><path id="1610" transform="matrix(1 0 0 -1 0 792)" d="M121.151 354.274L124.14 354.274" stroke="#000000" stroke-width="0.398" fill="none" /><path id="1618" transform="matrix(1 0 0 -1 0 792)" d="M166.58 354.274L169.569 354.274" stroke="#000000" stroke-width="0.398" fill="none" /><path id="1624" transform="matrix(1 0 0 -1 0 792)" d="M200.055 354.274L203.044 354.274" stroke="#000000" stroke-width="0.398" fill="none" /><path id="1629" transform="matrix(1 0 0 -1 0 792)" d="M270.864 349.992L270.864 363.559" stroke="#000000" stroke-width="0.398" fill="none" /><path id="1631" transform="matrix(1 0 0 -1 0 792)" d="M329.886 349.992L329.886 363.559" stroke="#000000" stroke-width="0.398" fill="none" /><path id="1633" transform="matrix(1 0 0 -1 0 792)" d="M388.908 349.992L388.908 363.559" stroke="#000000" stroke-width="0.398" fill="none" /><path id="1635" transform="matrix(1 0 0 -1 0 792)" d="M496.279 349.992L496.279 363.559" stroke="#000000" stroke-width="0.398" fill="none" /><path id="1636" transform="matrix(1 0 0 -1 0 792)" d="M78.311 349.793L496.478 349.793" stroke="#000000" stroke-width="0.398" fill="none" /><path id="1664" transform="matrix(1 0 0 -1 0 792)" d="M92.605 265.023L482.184 265.023" stroke="#000000" stroke-width="0.398" fill="none" /><path id="1665" transform="matrix(1 0 0 -1 0 792)" d="M92.805 251.257L92.805 264.824" stroke="#000000" stroke-width="0.398" fill="none" /><path id="1666" transform="matrix(1 0 0 -1 0 792)" d="M93.004 251.257L284.959 251.257L284.959 264.824L93.004 264.824z" stroke="none" fill="#CCCCEB" fill-rule="nonzero" /><path id="1672" transform="matrix(1 0 0 -1 0 792)" d="M285.158 251.257L285.158 264.824" stroke="#000000" stroke-width="0.398" fill="none" /><path id="1673" transform="matrix(1 0 0 -1 0 792)" d="M285.357 251.257L343.981 251.257L343.981 264.824L285.357 264.824z" stroke="none" fill="#CCCCEB" fill-rule="nonzero" /><path id="1683" transform="matrix(1 0 0 -1 0 792)" d="M344.18 251.257L344.18 264.824" stroke="#000000" stroke-width="0.398" fill="none" /><path id="1684" transform="matrix(1 0 0 -1 0 792)" d="M344.379 251.257L413.196 251.257L413.196 264.824L344.379 264.824z" stroke="none" fill="#CCCCEB" fill-rule="nonzero" /><path id="1692" transform="matrix(1 0 0 -1 0 792)" d="M413.396 251.257L413.396 264.824" stroke="#000000" stroke-width="0.398" fill="none" /><path id="1693" transform="matrix(1 0 0 -1 0 792)" d="M413.595 251.257L481.786 251.257L481.786 264.824L413.595 264.824z" stroke="none" fill="#CCCCEB" fill-rule="nonzero" /><path id="1697" transform="matrix(1 0 0 -1 0 792)" d="M481.985 251.257L481.985 264.824" stroke="#000000" stroke-width="0.398" fill="none" /><path id="1698" transform="matrix(1 0 0 -1 0 792)" d="M92.805 237.69L92.805 251.257" stroke="#000000" stroke-width="0.398" fill="none" /><path id="1699" transform="matrix(1 0 0 -1 0 792)" d="M93.004 237.69L284.959 237.69L284.959 251.257L93.004 251.257z" stroke="none" fill="#CCCCEB" fill-rule="nonzero" /><path id="1700" transform="matrix(1 0 0 -1 0 792)" d="M285.158 237.69L285.158 251.257" stroke="#000000" stroke-width="0.398" fill="none" /><path id="1701" transform="matrix(1 0 0 -1 0 792)" d="M285.357 237.69L343.981 237.69L343.981 251.257L285.357 251.257z" stroke="none" fill="#CCCCEB" fill-rule="nonzero" /><path id="1702" transform="matrix(1 0 0 -1 0 792)" d="M344.18 237.69L344.18 251.257" stroke="#000000" stroke-width="0.398" fill="none" /><path id="1703" transform="matrix(1 0 0 -1 0 792)" d="M344.379 237.69L413.196 237.69L413.196 251.257L344.379 251.257z" stroke="none" fill="#CCCCEB" fill-rule="nonzero" /><path id="1709" transform="matrix(1 0 0 -1 0 792)" d="M413.396 237.69L413.396 251.257" stroke="#000000" stroke-width="0.398" fill="none" /><path id="1710" transform="matrix(1 0 0 -1 0 792)" d="M413.595 237.69L481.786 237.69L481.786 251.257L413.595 251.257z" stroke="none" fill="#CCCCEB" fill-rule="nonzero" /><path id="1711" transform="matrix(1 0 0 -1 0 792)" d="M481.985 237.69L481.985 251.257" stroke="#000000" stroke-width="0.398" fill="none" /><path id="1712" transform="matrix(1 0 0 -1 0 792)" d="M92.605 237.491L482.184 237.491" stroke="#000000" stroke-width="0.398" fill="none" /><path id="1713" transform="matrix(1 0 0 -1 0 792)" d="M92.605 235.1L482.184 235.1" stroke="#000000" stroke-width="0.398" fill="none" /><path id="1714" transform="matrix(1 0 0 -1 0 792)" d="M92.805 221.334L92.805 234.901" stroke="#000000" stroke-width="0.398" fill="none" /><path id="1726" transform="matrix(1 0 0 -1 0 792)" d="M165.333 225.616L168.322 225.616" stroke="#000000" stroke-width="0.398" fill="none" /><path id="1737" transform="matrix(1 0 0 -1 0 792)" d="M228.695 225.616L231.684 225.616" stroke="#000000" stroke-width="0.398" fill="none" /><path id="1742" transform="matrix(1 0 0 -1 0 792)" d="M285.158 221.334L285.158 234.901" stroke="#000000" stroke-width="0.398" fill="none" /><path id="1744" transform="matrix(1 0 0 -1 0 792)" d="M344.18 221.334L344.18 234.901" stroke="#000000" stroke-width="0.398" fill="none" /><path id="1746" transform="matrix(1 0 0 -1 0 792)" d="M413.396 221.334L413.396 234.901" stroke="#000000" stroke-width="0.398" fill="none" /><path id="1748" transform="matrix(1 0 0 -1 0 792)" d="M481.985 221.334L481.985 234.901" stroke="#000000" stroke-width="0.398" fill="none" /><path id="1749" transform="matrix(1 0 0 -1 0 792)" d="M92.605 221.135L482.184 221.135" stroke="#000000" stroke-width="0.398" fill="none" /><path id="1750" transform="matrix(1 0 0 -1 0 792)" d="M92.805 207.369L92.805 220.936" stroke="#000000" stroke-width="0.398" fill="none" /><path id="1756" transform="matrix(1 0 0 -1 0 792)" d="M129.467 211.65L132.456 211.65" stroke="#000000" stroke-width="0.398" fill="none" /><path id="1763" transform="matrix(1 0 0 -1 0 792)" d="M168.919 211.65L171.908 211.65" stroke="#000000" stroke-width="0.398" fill="none" /><path id="1768" transform="matrix(1 0 0 -1 0 792)" d="M285.158 207.369L285.158 220.936" stroke="#000000" stroke-width="0.398" fill="none" /><path id="1770" transform="matrix(1 0 0 -1 0 792)" d="M344.18 207.369L344.18 220.936" stroke="#000000" stroke-width="0.398" fill="none" /><path id="1772" transform="matrix(1 0 0 -1 0 792)" d="M413.396 207.369L413.396 220.936" stroke="#000000" stroke-width="0.398" fill="none" /><path id="1774" transform="matrix(1 0 0 -1 0 792)" d="M481.985 207.369L481.985 220.936" stroke="#000000" stroke-width="0.398" fill="none" /><path id="1775" transform="matrix(1 0 0 -1 0 792)" d="M92.605 207.17L482.184 207.17" stroke="#000000" stroke-width="0.398" fill="none" /><path id="1776" transform="matrix(1 0 0 -1 0 792)" d="M92.805 193.404L92.805 206.971" stroke="#000000" stroke-width="0.398" fill="none" /><path id="1781" transform="matrix(1 0 0 -1 0 792)" d="M123.489 197.685L126.478 197.685" stroke="#000000" stroke-width="0.398" fill="none" /><path id="1788" transform="matrix(1 0 0 -1 0 792)" d="M162.942 197.685L165.931 197.685" stroke="#000000" stroke-width="0.398" fill="none" /><path id="1793" transform="matrix(1 0 0 -1 0 792)" d="M285.158 193.404L285.158 206.971" stroke="#000000" stroke-width="0.398" fill="none" /><path id="1795" transform="matrix(1 0 0 -1 0 792)" d="M344.18 193.404L344.18 206.971" stroke="#000000" stroke-width="0.398" fill="none" /><path id="1797" transform="matrix(1 0 0 -1 0 792)" d="M413.396 193.404L413.396 206.971" stroke="#000000" stroke-width="0.398" fill="none" /><path id="1799" transform="matrix(1 0 0 -1 0 792)" d="M481.985 193.404L481.985 206.971" stroke="#000000" stroke-width="0.398" fill="none" /><path id="1800" transform="matrix(1 0 0 -1 0 792)" d="M92.605 193.204L482.184 193.204" stroke="#000000" stroke-width="0.398" fill="none" /><path id="1801" transform="matrix(1 0 0 -1 0 792)" d="M92.805 179.439L92.805 193.006" stroke="#000000" stroke-width="0.398" fill="none" /><path id="1809" transform="matrix(1 0 0 -1 0 792)" d="M141.422 183.72L144.411 183.72" stroke="#000000" stroke-width="0.398" fill="none" /><path id="1816" transform="matrix(1 0 0 -1 0 792)" d="M180.874 183.72L183.863 183.72" stroke="#000000" stroke-width="0.398" fill="none" /><path id="1821" transform="matrix(1 0 0 -1 0 792)" d="M285.158 179.439L285.158 193.006" stroke="#000000" stroke-width="0.398" fill="none" /><path id="1823" transform="matrix(1 0 0 -1 0 792)" d="M344.18 179.439L344.18 193.006" stroke="#000000" stroke-width="0.398" fill="none" /><path id="1825" transform="matrix(1 0 0 -1 0 792)" d="M413.396 179.439L413.396 193.006" stroke="#000000" stroke-width="0.398" fill="none" /><path id="1827" transform="matrix(1 0 0 -1 0 792)" d="M481.985 179.439L481.985 193.006" stroke="#000000" stroke-width="0.398" fill="none" /><path id="1828" transform="matrix(1 0 0 -1 0 792)" d="M92.605 179.239L482.184 179.239" stroke="#000000" stroke-width="0.398" fill="none" /><path id="1829" transform="matrix(1 0 0 -1 0 792)" d="M92.805 165.473L92.805 179.04" stroke="#000000" stroke-width="0.398" fill="none" /><path id="1833" transform="matrix(1 0 0 -1 0 792)" d="M117.512 169.755L120.501 169.755" stroke="#000000" stroke-width="0.398" fill="none" /><path id="1838" transform="matrix(1 0 0 -1 0 792)" d="M285.158 165.473L285.158 179.04" stroke="#000000" stroke-width="0.398" fill="none" /><path id="1840" transform="matrix(1 0 0 -1 0 792)" d="M344.18 165.473L344.18 179.04" stroke="#000000" stroke-width="0.398" fill="none" /><path id="1842" transform="matrix(1 0 0 -1 0 792)" d="M413.396 165.473L413.396 179.04" stroke="#000000" stroke-width="0.398" fill="none" /><path id="1844" transform="matrix(1 0 0 -1 0 792)" d="M481.985 165.473L481.985 179.04" stroke="#000000" stroke-width="0.398" fill="none" /><path id="1845" transform="matrix(1 0 0 -1 0 792)" d="M92.605 165.274L482.184 165.274" stroke="#000000" stroke-width="0.398" fill="none" /><path id="1846" transform="matrix(1 0 0 -1 0 792)" d="M92.805 151.508L92.805 165.075" stroke="#000000" stroke-width="0.398" fill="none" /><path id="1855" transform="matrix(1 0 0 -1 0 792)" d="M147.4 155.79L150.389 155.79" stroke="#000000" stroke-width="0.398" fill="none" /><path id="1862" transform="matrix(1 0 0 -1 0 792)" d="M186.852 155.79L189.841 155.79" stroke="#000000" stroke-width="0.398" fill="none" /><path id="1867" transform="matrix(1 0 0 -1 0 792)" d="M285.158 151.508L285.158 165.075" stroke="#000000" stroke-width="0.398" fill="none" /><path id="1869" transform="matrix(1 0 0 -1 0 792)" d="M344.18 151.508L344.18 165.075" stroke="#000000" stroke-width="0.398" fill="none" /><path id="1874" transform="matrix(1 0 0 -1 0 792)" d="M377.592 155.772L380.581 155.772" stroke="#000000" stroke-width="0.398" fill="none" /><path id="1879" transform="matrix(1 0 0 -1 0 792)" d="M413.396 151.508L413.396 165.075" stroke="#000000" stroke-width="0.398" fill="none" /><path id="1891" transform="matrix(1 0 0 -1 0 792)" d="M481.985 151.508L481.985 165.075" stroke="#000000" stroke-width="0.398" fill="none" /><path id="1892" transform="matrix(1 0 0 -1 0 792)" d="M92.605 151.309L482.184 151.309" stroke="#000000" stroke-width="0.398" fill="none" /><path id="1893" transform="matrix(1 0 0 -1 0 792)" d="M92.805 137.543L92.805 151.11" stroke="#000000" stroke-width="0.398" fill="none" /><path id="1901" transform="matrix(1 0 0 -1 0 792)" d="M141.422 141.825L144.411 141.825" stroke="#000000" stroke-width="0.398" fill="none" /><path id="1913" transform="matrix(1 0 0 -1 0 792)" d="M210.762 141.825L213.751 141.825" stroke="#000000" stroke-width="0.398" fill="none" /><path id="1918" transform="matrix(1 0 0 -1 0 792)" d="M285.158 137.543L285.158 151.11" stroke="#000000" stroke-width="0.398" fill="none" /><path id="1920" transform="matrix(1 0 0 -1 0 792)" d="M344.18 137.543L344.18 151.11" stroke="#000000" stroke-width="0.398" fill="none" /><path id="1922" transform="matrix(1 0 0 -1 0 792)" d="M413.396 137.543L413.396 151.11" stroke="#000000" stroke-width="0.398" fill="none" /><path id="1924" transform="matrix(1 0 0 -1 0 792)" d="M481.985 137.543L481.985 151.11" stroke="#000000" stroke-width="0.398" fill="none" /><path id="1925" transform="matrix(1 0 0 -1 0 792)" d="M92.605 137.344L482.184 137.344" stroke="#000000" stroke-width="0.398" fill="none" /><path id="1926" transform="matrix(1 0 0 -1 0 792)" d="M92.805 123.578L92.805 137.145" stroke="#000000" stroke-width="0.398" fill="none" /><path id="1935" transform="matrix(1 0 0 -1 0 792)" d="M147.4 127.859L150.389 127.859" stroke="#000000" stroke-width="0.398" fill="none" /><path id="1942" transform="matrix(1 0 0 -1 0 792)" d="M186.852 127.859L189.841 127.859" stroke="#000000" stroke-width="0.398" fill="none" /><path id="1953" transform="matrix(1 0 0 -1 0 792)" d="M250.214 127.859L253.203 127.859" stroke="#000000" stroke-width="0.398" fill="none" /><path id="1958" transform="matrix(1 0 0 -1 0 792)" d="M285.158 123.578L285.158 137.145" stroke="#000000" stroke-width="0.398" fill="none" /><path id="1960" transform="matrix(1 0 0 -1 0 792)" d="M344.18 123.578L344.18 137.145" stroke="#000000" stroke-width="0.398" fill="none" /><path id="1962" transform="matrix(1 0 0 -1 0 792)" d="M413.396 123.578L413.396 137.145" stroke="#000000" stroke-width="0.398" fill="none" /><path id="1964" transform="matrix(1 0 0 -1 0 792)" d="M481.985 123.578L481.985 137.145" stroke="#000000" stroke-width="0.398" fill="none" /><path id="1965" transform="matrix(1 0 0 -1 0 792)" d="M92.605 123.379L482.184 123.379" stroke="#000000" stroke-width="0.398" fill="none" /></g></g></svg>