<svg xmlns="http://www.w3.org/2000/svg" xmlns:xlink="http://www.w3.org/1999/xlink" id="body_5" preserveAspectRatio="xMinYMin meet" viewBox="0 0 1632 1056"><defs><clipPath id="1"><path id="" clip-rule="evenodd" transform="matrix(1 0 0 1 0 0)" d="M0 792L0 0L0 0L1224 0L1224 0L1224 792L1224 792L0 792z" /></clipPath></defs><g transform="matrix(1.333333 0 0 1.333333 0 0)"><g clip-path="url(#1)"><path id="31" transform="matrix(1 0 0 -1 0 792)" d="M701.933 77.92L888.592 77.92" stroke="#000000" stroke-width="0.398" fill="none" /><path id="33" transform="matrix(1 0 0 -1 0 792)" d="M701.933 382.722L1168.591 382.722L1168.591 382.722L1168.591 518.203L1168.591 518.203L701.933 518.203z" stroke="#FFFFFF" stroke-width="1" fill="#FFFFFF" fill-rule="nonzero" /><path id="322" transform="matrix(1 0 0 -1 0 792)" d="M718.869 369.173L1168.593 369.173L1168.593 369.173L1168.593 382.3185L1168.593 382.3185L718.869 382.3185z" stroke="#FFFFFF" stroke-width="1" fill="#FFFFFF" fill-rule="nonzero" /><path id="360" transform="matrix(1 0 0 -1 0 792)" d="M701.933 328.525L1168.593 328.525L1168.593 328.525L1168.593 368.7695L1168.593 368.7695L701.933 368.7695z" stroke="#FFFFFF" stroke-width="1" fill="#FFFFFF" fill-rule="nonzero" /><path id="445" transform="matrix(1 0 0 -1 0 792)" d="M718.869 314.976L1168.586 314.976L1168.586 314.976L1168.586 328.1215L1168.586 328.1215L718.869 328.1215z" stroke="#FFFFFF" stroke-width="1" fill="#FFFFFF" fill-rule="nonzero" /><path id="477" transform="matrix(1 0 0 -1 0 792)" d="M701.933 301.427L1147.644 301.427L1147.644 301.427L1147.644 315.8158L1147.644 315.8158L701.933 315.8158z" stroke="#FFFFFF" stroke-width="1" fill="#FFFFFF" fill-rule="nonzero" /><path id="509" transform="matrix(1 0 0 -1 0 792)" d="M701.933 200.826L1168.591 200.826L1168.591 200.826L1168.591 254.6184L1168.591 254.6184L701.933 254.6184z" stroke="#FFFFFF" stroke-width="1" fill="#FFFFFF" fill-rule="nonzero" /><path id="615" transform="matrix(1 0 0 -1 0 792)" d="M718.869 187.276L1168.586 187.276L1168.586 187.276L1168.586 200.4215L1168.586 200.4215L718.869 200.4215z" stroke="#FFFFFF" stroke-width="1" fill="#FFFFFF" fill-rule="nonzero" /><path id="647" transform="matrix(1 0 0 -1 0 792)" d="M701.933 133.079L1168.592 133.079L1168.592 133.079L1168.592 186.8725L1168.592 186.8725L701.933 186.8725z" stroke="#FFFFFF" stroke-width="1" fill="#FFFFFF" fill-rule="nonzero" /><path id="736" transform="matrix(1 0 0 -1 0 792)" d="M729.206 100.429L1168.587 100.429L1168.587 100.429L1168.587 124.7177L1168.587 124.7177L729.206 124.7177z" stroke="#FFFFFF" stroke-width="1" fill="#FFFFFF" fill-rule="nonzero" /><path id="779" transform="matrix(1 0 0 -1 0 792)" d="M714.585 64.7255L955.179 64.7255L955.179 64.7255L955.179 76.5774L955.179 76.5774L714.585 76.5774z" stroke="#FFFFFF" stroke-width="1" fill="#FFFFFF" fill-rule="nonzero" /><path id="2967" transform="matrix(1 0 0 -1 0 792)" d="M89.933 77.92L276.592 77.92" stroke="#000000" stroke-width="0.398" fill="none" /></g></g></svg>