<svg xmlns="http://www.w3.org/2000/svg" xmlns:xlink="http://www.w3.org/1999/xlink" id="body_50" preserveAspectRatio="xMinYMin meet" viewBox="0 0 1632 1056"><defs><clipPath id="1"><path id="" clip-rule="evenodd" transform="matrix(1 0 0 1 0 0)" d="M0 792L0 0L0 0L1224 0L1224 0L1224 792L1224 792L0 792z" /></clipPath></defs><g transform="matrix(1.333333 0 0 1.333333 0 0)"><g clip-path="url(#1)"><path id="19" transform="matrix(1 0 0 -1 0 792)" d="M666.067 721.28L1132.722 721.28" stroke="#000000" stroke-width="0.498" fill="none" /><path id="28" transform="matrix(1 0 0 -1 0 792)" d="M677.019 632.758L1121.771 632.758" stroke="#000000" stroke-width="0.398" fill="none" /><path id="29" transform="matrix(1 0 0 -1 0 792)" d="M677.019 632.758L1121.771 632.758" stroke="#000000" stroke-width="0.398" fill="none" /><path id="30" transform="matrix(1 0 0 -1 0 792)" d="M677.218 618.992L677.218 632.559" stroke="#000000" stroke-width="0.398" fill="none" /><path id="31" transform="matrix(1 0 0 -1 0 792)" d="M677.417 618.992L1006.172 618.992L1006.172 632.559L677.417 632.559z" stroke="none" fill="#CCCCEB" fill-rule="nonzero" /><path id="41" transform="matrix(1 0 0 -1 0 792)" d="M1006.371 618.992L1006.371 632.559" stroke="#000000" stroke-width="0.398" fill="none" /><path id="42" transform="matrix(1 0 0 -1 0 792)" d="M1006.57 618.992L1121.372 618.992L1121.372 632.559L1006.57 632.559z" stroke="none" fill="#CCCCEB" fill-rule="nonzero" /><path id="49" transform="matrix(1 0 0 -1 0 792)" d="M1121.572 618.992L1121.572 632.559" stroke="#000000" stroke-width="0.398" fill="none" /><path id="50" transform="matrix(1 0 0 -1 0 792)" d="M677.019 618.793L1121.771 618.793" stroke="#000000" stroke-width="0.398" fill="none" /><path id="51" transform="matrix(1 0 0 -1 0 792)" d="M677.019 618.793L1121.771 618.793" stroke="#000000" stroke-width="0.398" fill="none" /><path id="52" transform="matrix(1 0 0 -1 0 792)" d="M677.019 618.395L1121.771 618.395" stroke="#000000" stroke-width="0.398" fill="none" /><path id="53" transform="matrix(1 0 0 -1 0 792)" d="M677.019 618.395L1121.771 618.395" stroke="#000000" stroke-width="0.398" fill="none" /><path id="54" transform="matrix(1 0 0 -1 0 792)" d="M677.218 604.646L677.218 618.195" stroke="#000000" stroke-width="0.398" fill="none" /><path id="84" transform="matrix(1 0 0 -1 0 792)" d="M1121.572 604.646L1121.572 618.195" stroke="#000000" stroke-width="0.398" fill="none" /><path id="85" transform="matrix(1 0 0 -1 0 792)" d="M677.218 591.08L677.218 604.647" stroke="#000000" stroke-width="0.398" fill="none" /><path id="104" transform="matrix(1 0 0 -1 0 792)" d="M814.453 595.361L817.442 595.361" stroke="#000000" stroke-width="0.398" fill="none" /><path id="115" transform="matrix(1 0 0 -1 0 792)" d="M877.816 595.361L880.805 595.361" stroke="#000000" stroke-width="0.398" fill="none" /><path id="120" transform="matrix(1 0 0 -1 0 792)" d="M1006.371 591.08L1006.371 604.647" stroke="#000000" stroke-width="0.398" fill="none" /><path id="122" transform="matrix(1 0 0 -1 0 792)" d="M1121.572 591.08L1121.572 604.647" stroke="#000000" stroke-width="0.398" fill="none" /><path id="123" transform="matrix(1 0 0 -1 0 792)" d="M677.218 577.513L677.218 591.08" stroke="#000000" stroke-width="0.398" fill="none" /><path id="136" transform="matrix(1 0 0 -1 0 792)" d="M778.588 581.794L781.577 581.794" stroke="#000000" stroke-width="0.398" fill="none" /><path id="143" transform="matrix(1 0 0 -1 0 792)" d="M818.04 581.794L821.029 581.794" stroke="#000000" stroke-width="0.398" fill="none" /><path id="148" transform="matrix(1 0 0 -1 0 792)" d="M1006.371 577.513L1006.371 591.08" stroke="#000000" stroke-width="0.398" fill="none" /><path id="150" transform="matrix(1 0 0 -1 0 792)" d="M1121.572 577.513L1121.572 591.08" stroke="#000000" stroke-width="0.398" fill="none" /><path id="151" transform="matrix(1 0 0 -1 0 792)" d="M677.218 563.946L677.218 577.513" stroke="#000000" stroke-width="0.398" fill="none" /><path id="163" transform="matrix(1 0 0 -1 0 792)" d="M772.61 568.228L775.599 568.228" stroke="#000000" stroke-width="0.398" fill="none" /><path id="170" transform="matrix(1 0 0 -1 0 792)" d="M812.062 568.228L815.051 568.228" stroke="#000000" stroke-width="0.398" fill="none" /><path id="175" transform="matrix(1 0 0 -1 0 792)" d="M1006.371 563.946L1006.371 577.513" stroke="#000000" stroke-width="0.398" fill="none" /><path id="177" transform="matrix(1 0 0 -1 0 792)" d="M1121.572 563.946L1121.572 577.513" stroke="#000000" stroke-width="0.398" fill="none" /><path id="178" transform="matrix(1 0 0 -1 0 792)" d="M677.218 550.38L677.218 563.947" stroke="#000000" stroke-width="0.398" fill="none" /><path id="189" transform="matrix(1 0 0 -1 0 792)" d="M766.633 554.661L769.622 554.661" stroke="#000000" stroke-width="0.398" fill="none" /><path id="194" transform="matrix(1 0 0 -1 0 792)" d="M1006.371 550.38L1006.371 563.947" stroke="#000000" stroke-width="0.398" fill="none" /><path id="196" transform="matrix(1 0 0 -1 0 792)" d="M1121.572 550.38L1121.572 563.947" stroke="#000000" stroke-width="0.398" fill="none" /><path id="197" transform="matrix(1 0 0 -1 0 792)" d="M677.218 536.813L677.218 550.38" stroke="#000000" stroke-width="0.398" fill="none" /><path id="212" transform="matrix(1 0 0 -1 0 792)" d="M790.543 541.095L793.532 541.095" stroke="#000000" stroke-width="0.398" fill="none" /><path id="224" transform="matrix(1 0 0 -1 0 792)" d="M859.883 541.095L862.872 541.095" stroke="#000000" stroke-width="0.398" fill="none" /><path id="229" transform="matrix(1 0 0 -1 0 792)" d="M1006.371 536.813L1006.371 550.38" stroke="#000000" stroke-width="0.398" fill="none" /><path id="231" transform="matrix(1 0 0 -1 0 792)" d="M1121.572 536.813L1121.572 550.38" stroke="#000000" stroke-width="0.398" fill="none" /><path id="232" transform="matrix(1 0 0 -1 0 792)" d="M677.218 523.246L677.218 536.813" stroke="#000000" stroke-width="0.398" fill="none" /><path id="247" transform="matrix(1 0 0 -1 0 792)" d="M790.543 527.528L793.532 527.528" stroke="#000000" stroke-width="0.398" fill="none" /><path id="254" transform="matrix(1 0 0 -1 0 792)" d="M829.995 527.528L832.984 527.528" stroke="#000000" stroke-width="0.398" fill="none" /><path id="259" transform="matrix(1 0 0 -1 0 792)" d="M1006.371 523.246L1006.371 536.813" stroke="#000000" stroke-width="0.398" fill="none" /><path id="261" transform="matrix(1 0 0 -1 0 792)" d="M1121.572 523.246L1121.572 536.813" stroke="#000000" stroke-width="0.398" fill="none" /><path id="262" transform="matrix(1 0 0 -1 0 792)" d="M677.218 509.68L677.218 523.247" stroke="#000000" stroke-width="0.398" fill="none" /><path id="278" transform="matrix(1 0 0 -1 0 792)" d="M796.521 513.961L799.51 513.961" stroke="#000000" stroke-width="0.398" fill="none" /><path id="285" transform="matrix(1 0 0 -1 0 792)" d="M835.973 513.961L838.962 513.961" stroke="#000000" stroke-width="0.398" fill="none" /><path id="290" transform="matrix(1 0 0 -1 0 792)" d="M1006.371 509.68L1006.371 523.247" stroke="#000000" stroke-width="0.398" fill="none" /><path id="292" transform="matrix(1 0 0 -1 0 792)" d="M1121.572 509.68L1121.572 523.247" stroke="#000000" stroke-width="0.398" fill="none" /><path id="293" transform="matrix(1 0 0 -1 0 792)" d="M677.218 496.113L677.218 509.68" stroke="#000000" stroke-width="0.398" fill="none" /><path id="309" transform="matrix(1 0 0 -1 0 792)" d="M796.521 500.395L799.51 500.395" stroke="#000000" stroke-width="0.398" fill="none" /><path id="316" transform="matrix(1 0 0 -1 0 792)" d="M835.973 500.395L838.962 500.395" stroke="#000000" stroke-width="0.398" fill="none" /><path id="327" transform="matrix(1 0 0 -1 0 792)" d="M899.335 500.395L902.324 500.395" stroke="#000000" stroke-width="0.398" fill="none" /><path id="332" transform="matrix(1 0 0 -1 0 792)" d="M1006.371 496.113L1006.371 509.68" stroke="#000000" stroke-width="0.398" fill="none" /><path id="334" transform="matrix(1 0 0 -1 0 792)" d="M1121.572 496.113L1121.572 509.68" stroke="#000000" stroke-width="0.398" fill="none" /><path id="335" transform="matrix(1 0 0 -1 0 792)" d="M677.019 495.914L1121.771 495.914" stroke="#000000" stroke-width="0.398" fill="none" /><path id="336" transform="matrix(1 0 0 -1 0 792)" d="M677.019 495.914L1121.771 495.914" stroke="#000000" stroke-width="0.398" fill="none" /><path id="337" transform="matrix(1 0 0 -1 0 792)" d="M883.737 448.093L886.726 448.093" stroke="#000000" stroke-width="0.398" fill="none" /><path id="338" transform="matrix(1 0 0 -1 0 792)" d="M947.099 448.093L950.088 448.093" stroke="#000000" stroke-width="0.398" fill="none" /><path id="339" transform="matrix(1 0 0 -1 0 792)" d="M666.067 644.208L1132.726 644.208L1132.726 644.208L1132.726 670.9035L1132.726 670.9035L666.067 670.9035z" stroke="#FFFFFF" stroke-width="1" fill="#FFFFFF" fill-rule="nonzero" /><path id="381" transform="matrix(1 0 0 -1 0 792)" d="M693.34 433.1L1132.721 433.1L1132.721 433.1L1132.721 481.2987L1132.721 481.2987L693.34 481.2987z" stroke="#FFFFFF" stroke-width="1" fill="#FFFFFF" fill-rule="nonzero" /><path id="529" transform="matrix(1 0 0 -1 0 792)" d="M54.067 721.28L520.722 721.28" stroke="#000000" stroke-width="0.498" fill="none" /><path id="683" transform="matrix(1 0 0 -1 0 792)" d="M65.019 632.758L509.771 632.758" stroke="#000000" stroke-width="0.398" fill="none" /><path id="684" transform="matrix(1 0 0 -1 0 792)" d="M65.019 632.758L509.771 632.758" stroke="#000000" stroke-width="0.398" fill="none" /><path id="685" transform="matrix(1 0 0 -1 0 792)" d="M65.218 618.992L65.218 632.559" stroke="#000000" stroke-width="0.398" fill="none" /><path id="686" transform="matrix(1 0 0 -1 0 792)" d="M65.417 618.992L394.172 618.992L394.172 632.559L65.417 632.559z" stroke="none" fill="#CCCCEB" fill-rule="nonzero" /><path id="696" transform="matrix(1 0 0 -1 0 792)" d="M394.371 618.992L394.371 632.559" stroke="#000000" stroke-width="0.398" fill="none" /><path id="697" transform="matrix(1 0 0 -1 0 792)" d="M394.57 618.992L509.372 618.992L509.372 632.559L394.57 632.559z" stroke="none" fill="#CCCCEB" fill-rule="nonzero" /><path id="704" transform="matrix(1 0 0 -1 0 792)" d="M509.572 618.992L509.572 632.559" stroke="#000000" stroke-width="0.398" fill="none" /><path id="705" transform="matrix(1 0 0 -1 0 792)" d="M65.019 618.793L509.771 618.793" stroke="#000000" stroke-width="0.398" fill="none" /><path id="706" transform="matrix(1 0 0 -1 0 792)" d="M65.019 618.793L509.771 618.793" stroke="#000000" stroke-width="0.398" fill="none" /><path id="707" transform="matrix(1 0 0 -1 0 792)" d="M65.019 618.395L509.771 618.395" stroke="#000000" stroke-width="0.398" fill="none" /><path id="708" transform="matrix(1 0 0 -1 0 792)" d="M65.019 618.395L509.771 618.395" stroke="#000000" stroke-width="0.398" fill="none" /><path id="709" transform="matrix(1 0 0 -1 0 792)" d="M65.218 604.646L65.218 618.195" stroke="#000000" stroke-width="0.398" fill="none" /><path id="739" transform="matrix(1 0 0 -1 0 792)" d="M509.572 604.646L509.572 618.195" stroke="#000000" stroke-width="0.398" fill="none" /><path id="740" transform="matrix(1 0 0 -1 0 792)" d="M65.218 591.08L65.218 604.647" stroke="#000000" stroke-width="0.398" fill="none" /><path id="759" transform="matrix(1 0 0 -1 0 792)" d="M202.453 595.361L205.442 595.361" stroke="#000000" stroke-width="0.398" fill="none" /><path id="770" transform="matrix(1 0 0 -1 0 792)" d="M265.816 595.361L268.805 595.361" stroke="#000000" stroke-width="0.398" fill="none" /><path id="775" transform="matrix(1 0 0 -1 0 792)" d="M394.371 591.08L394.371 604.647" stroke="#000000" stroke-width="0.398" fill="none" /><path id="777" transform="matrix(1 0 0 -1 0 792)" d="M509.572 591.08L509.572 604.647" stroke="#000000" stroke-width="0.398" fill="none" /><path id="778" transform="matrix(1 0 0 -1 0 792)" d="M65.218 577.513L65.218 591.08" stroke="#000000" stroke-width="0.398" fill="none" /><path id="791" transform="matrix(1 0 0 -1 0 792)" d="M166.588 581.794L169.577 581.794" stroke="#000000" stroke-width="0.398" fill="none" /><path id="798" transform="matrix(1 0 0 -1 0 792)" d="M206.04 581.794L209.029 581.794" stroke="#000000" stroke-width="0.398" fill="none" /><path id="803" transform="matrix(1 0 0 -1 0 792)" d="M394.371 577.513L394.371 591.08" stroke="#000000" stroke-width="0.398" fill="none" /><path id="805" transform="matrix(1 0 0 -1 0 792)" d="M509.572 577.513L509.572 591.08" stroke="#000000" stroke-width="0.398" fill="none" /><path id="806" transform="matrix(1 0 0 -1 0 792)" d="M65.218 563.946L65.218 577.513" stroke="#000000" stroke-width="0.398" fill="none" /><path id="818" transform="matrix(1 0 0 -1 0 792)" d="M160.61 568.228L163.599 568.228" stroke="#000000" stroke-width="0.398" fill="none" /><path id="825" transform="matrix(1 0 0 -1 0 792)" d="M200.062 568.228L203.051 568.228" stroke="#000000" stroke-width="0.398" fill="none" /><path id="830" transform="matrix(1 0 0 -1 0 792)" d="M394.371 563.946L394.371 577.513" stroke="#000000" stroke-width="0.398" fill="none" /><path id="832" transform="matrix(1 0 0 -1 0 792)" d="M509.572 563.946L509.572 577.513" stroke="#000000" stroke-width="0.398" fill="none" /><path id="833" transform="matrix(1 0 0 -1 0 792)" d="M65.218 550.38L65.218 563.947" stroke="#000000" stroke-width="0.398" fill="none" /><path id="844" transform="matrix(1 0 0 -1 0 792)" d="M154.633 554.661L157.622 554.661" stroke="#000000" stroke-width="0.398" fill="none" /><path id="849" transform="matrix(1 0 0 -1 0 792)" d="M394.371 550.38L394.371 563.947" stroke="#000000" stroke-width="0.398" fill="none" /><path id="851" transform="matrix(1 0 0 -1 0 792)" d="M509.572 550.38L509.572 563.947" stroke="#000000" stroke-width="0.398" fill="none" /><path id="852" transform="matrix(1 0 0 -1 0 792)" d="M65.218 536.813L65.218 550.38" stroke="#000000" stroke-width="0.398" fill="none" /><path id="867" transform="matrix(1 0 0 -1 0 792)" d="M178.543 541.095L181.532 541.095" stroke="#000000" stroke-width="0.398" fill="none" /><path id="879" transform="matrix(1 0 0 -1 0 792)" d="M247.883 541.095L250.872 541.095" stroke="#000000" stroke-width="0.398" fill="none" /><path id="884" transform="matrix(1 0 0 -1 0 792)" d="M394.371 536.813L394.371 550.38" stroke="#000000" stroke-width="0.398" fill="none" /><path id="886" transform="matrix(1 0 0 -1 0 792)" d="M509.572 536.813L509.572 550.38" stroke="#000000" stroke-width="0.398" fill="none" /><path id="887" transform="matrix(1 0 0 -1 0 792)" d="M65.218 523.246L65.218 536.813" stroke="#000000" stroke-width="0.398" fill="none" /><path id="902" transform="matrix(1 0 0 -1 0 792)" d="M178.543 527.528L181.532 527.528" stroke="#000000" stroke-width="0.398" fill="none" /><path id="909" transform="matrix(1 0 0 -1 0 792)" d="M217.995 527.528L220.984 527.528" stroke="#000000" stroke-width="0.398" fill="none" /><path id="914" transform="matrix(1 0 0 -1 0 792)" d="M394.371 523.246L394.371 536.813" stroke="#000000" stroke-width="0.398" fill="none" /><path id="916" transform="matrix(1 0 0 -1 0 792)" d="M509.572 523.246L509.572 536.813" stroke="#000000" stroke-width="0.398" fill="none" /><path id="917" transform="matrix(1 0 0 -1 0 792)" d="M65.218 509.68L65.218 523.247" stroke="#000000" stroke-width="0.398" fill="none" /><path id="933" transform="matrix(1 0 0 -1 0 792)" d="M184.521 513.961L187.51 513.961" stroke="#000000" stroke-width="0.398" fill="none" /><path id="940" transform="matrix(1 0 0 -1 0 792)" d="M223.973 513.961L226.962 513.961" stroke="#000000" stroke-width="0.398" fill="none" /><path id="945" transform="matrix(1 0 0 -1 0 792)" d="M394.371 509.68L394.371 523.247" stroke="#000000" stroke-width="0.398" fill="none" /><path id="947" transform="matrix(1 0 0 -1 0 792)" d="M509.572 509.68L509.572 523.247" stroke="#000000" stroke-width="0.398" fill="none" /><path id="948" transform="matrix(1 0 0 -1 0 792)" d="M65.218 496.113L65.218 509.68" stroke="#000000" stroke-width="0.398" fill="none" /><path id="964" transform="matrix(1 0 0 -1 0 792)" d="M184.521 500.395L187.51 500.395" stroke="#000000" stroke-width="0.398" fill="none" /><path id="971" transform="matrix(1 0 0 -1 0 792)" d="M223.973 500.395L226.962 500.395" stroke="#000000" stroke-width="0.398" fill="none" /><path id="982" transform="matrix(1 0 0 -1 0 792)" d="M287.335 500.395L290.324 500.395" stroke="#000000" stroke-width="0.398" fill="none" /><path id="987" transform="matrix(1 0 0 -1 0 792)" d="M394.371 496.113L394.371 509.68" stroke="#000000" stroke-width="0.398" fill="none" /><path id="989" transform="matrix(1 0 0 -1 0 792)" d="M509.572 496.113L509.572 509.68" stroke="#000000" stroke-width="0.398" fill="none" /><path id="990" transform="matrix(1 0 0 -1 0 792)" d="M65.019 495.914L509.771 495.914" stroke="#000000" stroke-width="0.398" fill="none" /><path id="991" transform="matrix(1 0 0 -1 0 792)" d="M65.019 495.914L509.771 495.914" stroke="#000000" stroke-width="0.398" fill="none" /><path id="1196" transform="matrix(1 0 0 -1 0 792)" d="M271.737 448.093L274.726 448.093" stroke="#000000" stroke-width="0.398" fill="none" /><path id="1207" transform="matrix(1 0 0 -1 0 792)" d="M335.099 448.093L338.088 448.093" stroke="#000000" stroke-width="0.398" fill="none" /></g></g></svg>