<svg xmlns="http://www.w3.org/2000/svg" xmlns:xlink="http://www.w3.org/1999/xlink" id="body_10" preserveAspectRatio="xMinYMin meet" viewBox="0 0 1632 1056"><defs><clipPath id="1"><path id="" clip-rule="evenodd" transform="matrix(1 0 0 1 0 0)" d="M0 792L0 0L0 0L1224 0L1224 0L1224 792L1224 792L0 792z" /></clipPath></defs><g transform="matrix(1.333333 0 0 1.333333 0 0)"><g clip-path="url(#1)"><path id="17" transform="matrix(1 0 0 -1 0 792)" d="M666.067 721.28L1132.722 721.28" stroke="#000000" stroke-width="0.498" fill="none" /><path id="18" transform="matrix(1 0 0 -1 0 792)" d="M677.019 696.423L1121.771 696.423" stroke="#000000" stroke-width="0.398" fill="none" /><path id="19" transform="matrix(1 0 0 -1 0 792)" d="M677.019 696.423L1121.771 696.423" stroke="#000000" stroke-width="0.398" fill="none" /><path id="20" transform="matrix(1 0 0 -1 0 792)" d="M677.218 682.658L677.218 696.225" stroke="#000000" stroke-width="0.398" fill="none" /><path id="21" transform="matrix(1 0 0 -1 0 792)" d="M677.417 682.658L1006.172 682.658L1006.172 696.225L677.417 696.225z" stroke="none" fill="#CCCCEB" fill-rule="nonzero" /><path id="31" transform="matrix(1 0 0 -1 0 792)" d="M1006.371 682.658L1006.371 696.225" stroke="#000000" stroke-width="0.398" fill="none" /><path id="32" transform="matrix(1 0 0 -1 0 792)" d="M1006.57 682.658L1121.372 682.658L1121.372 696.225L1006.57 696.225z" stroke="none" fill="#CCCCEB" fill-rule="nonzero" /><path id="39" transform="matrix(1 0 0 -1 0 792)" d="M1121.572 682.658L1121.572 696.225" stroke="#000000" stroke-width="0.398" fill="none" /><path id="40" transform="matrix(1 0 0 -1 0 792)" d="M677.019 682.458L1121.771 682.458" stroke="#000000" stroke-width="0.398" fill="none" /><path id="41" transform="matrix(1 0 0 -1 0 792)" d="M677.019 682.458L1121.771 682.458" stroke="#000000" stroke-width="0.398" fill="none" /><path id="42" transform="matrix(1 0 0 -1 0 792)" d="M677.019 682.06L1121.771 682.06" stroke="#000000" stroke-width="0.398" fill="none" /><path id="43" transform="matrix(1 0 0 -1 0 792)" d="M677.019 682.06L1121.771 682.06" stroke="#000000" stroke-width="0.398" fill="none" /><path id="44" transform="matrix(1 0 0 -1 0 792)" d="M677.019 682.06L1121.771 682.06" stroke="#000000" stroke-width="0.398" fill="none" /><path id="45" transform="matrix(1 0 0 -1 0 792)" d="M677.218 654.762L677.218 681.86" stroke="#000000" stroke-width="0.398" fill="none" /><path id="99" transform="matrix(1 0 0 -1 0 792)" d="M1006.371 654.762L1006.371 681.86" stroke="#000000" stroke-width="0.398" fill="none" /><path id="101" transform="matrix(1 0 0 -1 0 792)" d="M1121.572 654.762L1121.572 681.86" stroke="#000000" stroke-width="0.398" fill="none" /><path id="102" transform="matrix(1 0 0 -1 0 792)" d="M677.019 654.563L1121.771 654.563" stroke="#000000" stroke-width="0.398" fill="none" /><path id="103" transform="matrix(1 0 0 -1 0 792)" d="M677.019 654.563L1121.771 654.563" stroke="#000000" stroke-width="0.398" fill="none" /><path id="104" transform="matrix(1 0 0 -1 0 792)" d="M677.218 627.265L677.218 654.363" stroke="#000000" stroke-width="0.398" fill="none" /><path id="165" transform="matrix(1 0 0 -1 0 792)" d="M1006.371 627.265L1006.371 654.363" stroke="#000000" stroke-width="0.398" fill="none" /><path id="167" transform="matrix(1 0 0 -1 0 792)" d="M1121.572 627.265L1121.572 654.363" stroke="#000000" stroke-width="0.398" fill="none" /><path id="168" transform="matrix(1 0 0 -1 0 792)" d="M677.019 627.066L1121.771 627.066" stroke="#000000" stroke-width="0.398" fill="none" /><path id="169" transform="matrix(1 0 0 -1 0 792)" d="M677.019 627.066L1121.771 627.066" stroke="#000000" stroke-width="0.398" fill="none" /><path id="170" transform="matrix(1 0 0 -1 0 792)" d="M677.218 599.768L677.218 626.866" stroke="#000000" stroke-width="0.398" fill="none" /><path id="234" transform="matrix(1 0 0 -1 0 792)" d="M1006.371 599.768L1006.371 626.866" stroke="#000000" stroke-width="0.398" fill="none" /><path id="236" transform="matrix(1 0 0 -1 0 792)" d="M1121.572 599.768L1121.572 626.866" stroke="#000000" stroke-width="0.398" fill="none" /><path id="237" transform="matrix(1 0 0 -1 0 792)" d="M677.019 599.569L1121.771 599.569" stroke="#000000" stroke-width="0.398" fill="none" /><path id="238" transform="matrix(1 0 0 -1 0 792)" d="M677.019 599.569L1121.771 599.569" stroke="#000000" stroke-width="0.398" fill="none" /><path id="239" transform="matrix(1 0 0 -1 0 792)" d="M677.218 572.271L677.218 599.369" stroke="#000000" stroke-width="0.398" fill="none" /><path id="304" transform="matrix(1 0 0 -1 0 792)" d="M1006.371 572.271L1006.371 599.369" stroke="#000000" stroke-width="0.398" fill="none" /><path id="306" transform="matrix(1 0 0 -1 0 792)" d="M1121.572 572.271L1121.572 599.369" stroke="#000000" stroke-width="0.398" fill="none" /><path id="307" transform="matrix(1 0 0 -1 0 792)" d="M677.019 572.072L1121.771 572.072" stroke="#000000" stroke-width="0.398" fill="none" /><path id="308" transform="matrix(1 0 0 -1 0 792)" d="M677.019 572.072L1121.771 572.072" stroke="#000000" stroke-width="0.398" fill="none" /><path id="309" transform="matrix(1 0 0 -1 0 792)" d="M677.218 558.306L677.218 571.873" stroke="#000000" stroke-width="0.398" fill="none" /><path id="360" transform="matrix(1 0 0 -1 0 792)" d="M1006.371 558.306L1006.371 571.873" stroke="#000000" stroke-width="0.398" fill="none" /><path id="362" transform="matrix(1 0 0 -1 0 792)" d="M1121.572 558.306L1121.572 571.873" stroke="#000000" stroke-width="0.398" fill="none" /><path id="363" transform="matrix(1 0 0 -1 0 792)" d="M677.019 558.107L1121.771 558.107" stroke="#000000" stroke-width="0.398" fill="none" /><path id="364" transform="matrix(1 0 0 -1 0 792)" d="M677.019 558.107L1121.771 558.107" stroke="#000000" stroke-width="0.398" fill="none" /><path id="365" transform="matrix(1 0 0 -1 0 792)" d="M677.218 544.341L677.218 557.908" stroke="#000000" stroke-width="0.398" fill="none" /><path id="412" transform="matrix(1 0 0 -1 0 792)" d="M1006.371 544.341L1006.371 557.908" stroke="#000000" stroke-width="0.398" fill="none" /><path id="414" transform="matrix(1 0 0 -1 0 792)" d="M1121.572 544.341L1121.572 557.908" stroke="#000000" stroke-width="0.398" fill="none" /><path id="415" transform="matrix(1 0 0 -1 0 792)" d="M677.019 544.142L1121.771 544.142" stroke="#000000" stroke-width="0.398" fill="none" /><path id="416" transform="matrix(1 0 0 -1 0 792)" d="M677.019 544.142L1121.771 544.142" stroke="#000000" stroke-width="0.398" fill="none" /><path id="417" transform="matrix(1 0 0 -1 0 792)" d="M677.218 516.844L677.218 543.942" stroke="#000000" stroke-width="0.398" fill="none" /><path id="470" transform="matrix(1 0 0 -1 0 792)" d="M1006.371 516.844L1006.371 543.942" stroke="#000000" stroke-width="0.398" fill="none" /><path id="472" transform="matrix(1 0 0 -1 0 792)" d="M1121.572 516.844L1121.572 543.942" stroke="#000000" stroke-width="0.398" fill="none" /><path id="473" transform="matrix(1 0 0 -1 0 792)" d="M677.019 516.645L1121.771 516.645" stroke="#000000" stroke-width="0.398" fill="none" /><path id="474" transform="matrix(1 0 0 -1 0 792)" d="M677.019 516.645L1121.771 516.645" stroke="#000000" stroke-width="0.398" fill="none" /><path id="475" transform="matrix(1 0 0 -1 0 792)" d="M677.218 502.879L677.218 516.446" stroke="#000000" stroke-width="0.398" fill="none" /><path id="498" transform="matrix(1 0 0 -1 0 792)" d="M1006.371 502.879L1006.371 516.446" stroke="#000000" stroke-width="0.398" fill="none" /><path id="500" transform="matrix(1 0 0 -1 0 792)" d="M1121.572 502.879L1121.572 516.446" stroke="#000000" stroke-width="0.398" fill="none" /><path id="501" transform="matrix(1 0 0 -1 0 792)" d="M677.019 502.68L1121.771 502.68" stroke="#000000" stroke-width="0.398" fill="none" /><path id="502" transform="matrix(1 0 0 -1 0 792)" d="M677.019 502.68L1121.771 502.68" stroke="#000000" stroke-width="0.398" fill="none" /><path id="503" transform="matrix(1 0 0 -1 0 792)" d="M677.218 475.382L677.218 502.48" stroke="#000000" stroke-width="0.398" fill="none" /><path id="599" transform="matrix(1 0 0 -1 0 792)" d="M1121.572 475.382L1121.572 502.48" stroke="#000000" stroke-width="0.398" fill="none" /><path id="600" transform="matrix(1 0 0 -1 0 792)" d="M677.218 461.816L677.218 475.383" stroke="#000000" stroke-width="0.398" fill="none" /><path id="623" transform="matrix(1 0 0 -1 0 792)" d="M1006.371 461.816L1006.371 475.383" stroke="#000000" stroke-width="0.398" fill="none" /><path id="625" transform="matrix(1 0 0 -1 0 792)" d="M1121.572 461.816L1121.572 475.383" stroke="#000000" stroke-width="0.398" fill="none" /><path id="626" transform="matrix(1 0 0 -1 0 792)" d="M677.218 448.249L677.218 461.816" stroke="#000000" stroke-width="0.398" fill="none" /><path id="653" transform="matrix(1 0 0 -1 0 792)" d="M880.207 452.531L883.196 452.531" stroke="#000000" stroke-width="0.398" fill="none" /><path id="658" transform="matrix(1 0 0 -1 0 792)" d="M1006.371 448.249L1006.371 461.816" stroke="#000000" stroke-width="0.398" fill="none" /><path id="660" transform="matrix(1 0 0 -1 0 792)" d="M1121.572 448.249L1121.572 461.816" stroke="#000000" stroke-width="0.398" fill="none" /><path id="661" transform="matrix(1 0 0 -1 0 792)" d="M677.218 434.682L677.218 448.249" stroke="#000000" stroke-width="0.398" fill="none" /><path id="685" transform="matrix(1 0 0 -1 0 792)" d="M1006.371 434.682L1006.371 448.249" stroke="#000000" stroke-width="0.398" fill="none" /><path id="687" transform="matrix(1 0 0 -1 0 792)" d="M1121.572 434.682L1121.572 448.249" stroke="#000000" stroke-width="0.398" fill="none" /><path id="688" transform="matrix(1 0 0 -1 0 792)" d="M677.218 421.116L677.218 434.683" stroke="#000000" stroke-width="0.398" fill="none" /><path id="715" transform="matrix(1 0 0 -1 0 792)" d="M880.207 425.397L883.196 425.397" stroke="#000000" stroke-width="0.398" fill="none" /><path id="721" transform="matrix(1 0 0 -1 0 792)" d="M1006.371 421.116L1006.371 434.683" stroke="#000000" stroke-width="0.398" fill="none" /><path id="723" transform="matrix(1 0 0 -1 0 792)" d="M1121.572 421.116L1121.572 434.683" stroke="#000000" stroke-width="0.398" fill="none" /><path id="724" transform="matrix(1 0 0 -1 0 792)" d="M677.218 407.549L677.218 421.116" stroke="#000000" stroke-width="0.398" fill="none" /><path id="746" transform="matrix(1 0 0 -1 0 792)" d="M1006.371 407.549L1006.371 421.116" stroke="#000000" stroke-width="0.398" fill="none" /><path id="748" transform="matrix(1 0 0 -1 0 792)" d="M1121.572 407.549L1121.572 421.116" stroke="#000000" stroke-width="0.398" fill="none" /><path id="749" transform="matrix(1 0 0 -1 0 792)" d="M677.218 393.982L677.218 407.549" stroke="#000000" stroke-width="0.398" fill="none" /><path id="776" transform="matrix(1 0 0 -1 0 792)" d="M880.207 398.264L883.196 398.264" stroke="#000000" stroke-width="0.398" fill="none" /><path id="780" transform="matrix(1 0 0 -1 0 792)" d="M1006.371 393.982L1006.371 407.549" stroke="#000000" stroke-width="0.398" fill="none" /><path id="782" transform="matrix(1 0 0 -1 0 792)" d="M1121.572 393.982L1121.572 407.549" stroke="#000000" stroke-width="0.398" fill="none" /><path id="783" transform="matrix(1 0 0 -1 0 792)" d="M677.218 380.416L677.218 393.983" stroke="#000000" stroke-width="0.398" fill="none" /><path id="807" transform="matrix(1 0 0 -1 0 792)" d="M1006.371 380.416L1006.371 393.983" stroke="#000000" stroke-width="0.398" fill="none" /><path id="809" transform="matrix(1 0 0 -1 0 792)" d="M1121.572 380.416L1121.572 393.983" stroke="#000000" stroke-width="0.398" fill="none" /><path id="810" transform="matrix(1 0 0 -1 0 792)" d="M677.218 366.849L677.218 380.416" stroke="#000000" stroke-width="0.398" fill="none" /><path id="834" transform="matrix(1 0 0 -1 0 792)" d="M1006.371 366.849L1006.371 380.416" stroke="#000000" stroke-width="0.398" fill="none" /><path id="836" transform="matrix(1 0 0 -1 0 792)" d="M1121.572 366.849L1121.572 380.416" stroke="#000000" stroke-width="0.398" fill="none" /><path id="837" transform="matrix(1 0 0 -1 0 792)" d="M677.019 366.65L1121.771 366.65" stroke="#000000" stroke-width="0.398" fill="none" /><path id="838" transform="matrix(1 0 0 -1 0 792)" d="M677.019 366.65L1121.771 366.65" stroke="#000000" stroke-width="0.398" fill="none" /><path id="839" transform="matrix(1 0 0 -1 0 792)" d="M677.218 352.901L677.218 366.45" stroke="#000000" stroke-width="0.398" fill="none" /><path id="884" transform="matrix(1 0 0 -1 0 792)" d="M1121.572 352.901L1121.572 366.45" stroke="#000000" stroke-width="0.398" fill="none" /><path id="885" transform="matrix(1 0 0 -1 0 792)" d="M677.218 339.335L677.218 352.902" stroke="#000000" stroke-width="0.398" fill="none" /><path id="908" transform="matrix(1 0 0 -1 0 792)" d="M838.364 343.616L841.353 343.616" stroke="#000000" stroke-width="0.398" fill="none" /><path id="919" transform="matrix(1 0 0 -1 0 792)" d="M901.726 343.616L904.715 343.616" stroke="#000000" stroke-width="0.398" fill="none" /><path id="924" transform="matrix(1 0 0 -1 0 792)" d="M1006.371 339.335L1006.371 352.902" stroke="#000000" stroke-width="0.398" fill="none" /><path id="926" transform="matrix(1 0 0 -1 0 792)" d="M1121.572 339.335L1121.572 352.902" stroke="#000000" stroke-width="0.398" fill="none" /><path id="927" transform="matrix(1 0 0 -1 0 792)" d="M677.218 325.768L677.218 339.335" stroke="#000000" stroke-width="0.398" fill="none" /><path id="951" transform="matrix(1 0 0 -1 0 792)" d="M844.341 330.05L847.33 330.05" stroke="#000000" stroke-width="0.398" fill="none" /><path id="966" transform="matrix(1 0 0 -1 0 792)" d="M931.614 330.05L934.603 330.05" stroke="#000000" stroke-width="0.398" fill="none" /><path id="970" transform="matrix(1 0 0 -1 0 792)" d="M1006.371 325.768L1006.371 339.335" stroke="#000000" stroke-width="0.398" fill="none" /><path id="972" transform="matrix(1 0 0 -1 0 792)" d="M1121.572 325.768L1121.572 339.335" stroke="#000000" stroke-width="0.398" fill="none" /><path id="973" transform="matrix(1 0 0 -1 0 792)" d="M677.218 312.201L677.218 325.768" stroke="#000000" stroke-width="0.398" fill="none" /><path id="989" transform="matrix(1 0 0 -1 0 792)" d="M796.521 316.483L799.51 316.483" stroke="#000000" stroke-width="0.398" fill="none" /><path id="1003" transform="matrix(1 0 0 -1 0 792)" d="M1006.371 312.201L1006.371 325.768" stroke="#000000" stroke-width="0.398" fill="none" /><path id="1005" transform="matrix(1 0 0 -1 0 792)" d="M1121.572 312.201L1121.572 325.768" stroke="#000000" stroke-width="0.398" fill="none" /><path id="1006" transform="matrix(1 0 0 -1 0 792)" d="M677.019 312.002L1121.771 312.002" stroke="#000000" stroke-width="0.398" fill="none" /><path id="1007" transform="matrix(1 0 0 -1 0 792)" d="M677.019 312.002L1121.771 312.002" stroke="#000000" stroke-width="0.398" fill="none" /><path id="1008" transform="matrix(1 0 0 -1 0 792)" d="M677.218 298.254L677.218 311.803" stroke="#000000" stroke-width="0.398" fill="none" /><path id="1073" transform="matrix(1 0 0 -1 0 792)" d="M1121.572 298.254L1121.572 311.803" stroke="#000000" stroke-width="0.398" fill="none" /><path id="1074" transform="matrix(1 0 0 -1 0 792)" d="M677.218 284.687L677.218 298.254" stroke="#000000" stroke-width="0.398" fill="none" /><path id="1097" transform="matrix(1 0 0 -1 0 792)" d="M838.364 288.969L841.353 288.969" stroke="#000000" stroke-width="0.398" fill="none" /><path id="1108" transform="matrix(1 0 0 -1 0 792)" d="M901.726 288.969L904.715 288.969" stroke="#000000" stroke-width="0.398" fill="none" /><path id="1113" transform="matrix(1 0 0 -1 0 792)" d="M1006.371 284.687L1006.371 298.254" stroke="#000000" stroke-width="0.398" fill="none" /><path id="1115" transform="matrix(1 0 0 -1 0 792)" d="M1121.572 284.687L1121.572 298.254" stroke="#000000" stroke-width="0.398" fill="none" /><path id="1116" transform="matrix(1 0 0 -1 0 792)" d="M677.218 271.121L677.218 284.688" stroke="#000000" stroke-width="0.398" fill="none" /><path id="1140" transform="matrix(1 0 0 -1 0 792)" d="M844.341 275.402L847.33 275.402" stroke="#000000" stroke-width="0.398" fill="none" /><path id="1155" transform="matrix(1 0 0 -1 0 792)" d="M931.614 275.402L934.603 275.402" stroke="#000000" stroke-width="0.398" fill="none" /><path id="1159" transform="matrix(1 0 0 -1 0 792)" d="M1006.371 271.121L1006.371 284.688" stroke="#000000" stroke-width="0.398" fill="none" /><path id="1161" transform="matrix(1 0 0 -1 0 792)" d="M1121.572 271.121L1121.572 284.688" stroke="#000000" stroke-width="0.398" fill="none" /><path id="1162" transform="matrix(1 0 0 -1 0 792)" d="M677.218 257.554L677.218 271.121" stroke="#000000" stroke-width="0.398" fill="none" /><path id="1178" transform="matrix(1 0 0 -1 0 792)" d="M796.521 261.835L799.51 261.835" stroke="#000000" stroke-width="0.398" fill="none" /><path id="1192" transform="matrix(1 0 0 -1 0 792)" d="M1006.371 257.554L1006.371 271.121" stroke="#000000" stroke-width="0.398" fill="none" /><path id="1194" transform="matrix(1 0 0 -1 0 792)" d="M1121.572 257.554L1121.572 271.121" stroke="#000000" stroke-width="0.398" fill="none" /><path id="1195" transform="matrix(1 0 0 -1 0 792)" d="M677.218 243.987L677.218 257.554" stroke="#000000" stroke-width="0.398" fill="none" /><path id="1209" transform="matrix(1 0 0 -1 0 792)" d="M784.565 248.269L787.554 248.269" stroke="#000000" stroke-width="0.398" fill="none" /><path id="1223" transform="matrix(1 0 0 -1 0 792)" d="M865.86 248.269L868.849 248.269" stroke="#000000" stroke-width="0.398" fill="none" /><path id="1229" transform="matrix(1 0 0 -1 0 792)" d="M1006.371 243.987L1006.371 257.554" stroke="#000000" stroke-width="0.398" fill="none" /><path id="1231" transform="matrix(1 0 0 -1 0 792)" d="M1121.572 243.987L1121.572 257.554" stroke="#000000" stroke-width="0.398" fill="none" /><path id="1232" transform="matrix(1 0 0 -1 0 792)" d="M677.218 230.421L677.218 243.988" stroke="#000000" stroke-width="0.398" fill="none" /><path id="1246" transform="matrix(1 0 0 -1 0 792)" d="M784.565 234.702L787.554 234.702" stroke="#000000" stroke-width="0.398" fill="none" /><path id="1250" transform="matrix(1 0 0 -1 0 792)" d="M1006.371 230.421L1006.371 243.988" stroke="#000000" stroke-width="0.398" fill="none" /><path id="1252" transform="matrix(1 0 0 -1 0 792)" d="M1121.572 230.421L1121.572 243.988" stroke="#000000" stroke-width="0.398" fill="none" /><path id="1253" transform="matrix(1 0 0 -1 0 792)" d="M677.019 230.221L1121.771 230.221" stroke="#000000" stroke-width="0.398" fill="none" /><path id="1254" transform="matrix(1 0 0 -1 0 792)" d="M677.019 230.221L1121.771 230.221" stroke="#000000" stroke-width="0.398" fill="none" /><path id="1255" transform="matrix(1 0 0 -1 0 792)" d="M677.218 202.924L677.218 230.022" stroke="#000000" stroke-width="0.398" fill="none" /><path id="1322" transform="matrix(1 0 0 -1 0 792)" d="M1006.371 202.924L1006.371 230.022" stroke="#000000" stroke-width="0.398" fill="none" /><path id="1324" transform="matrix(1 0 0 -1 0 792)" d="M1121.572 202.924L1121.572 230.022" stroke="#000000" stroke-width="0.398" fill="none" /><path id="1325" transform="matrix(1 0 0 -1 0 792)" d="M677.019 202.724L1121.771 202.724" stroke="#000000" stroke-width="0.398" fill="none" /><path id="1326" transform="matrix(1 0 0 -1 0 792)" d="M677.019 202.724L1121.771 202.724" stroke="#000000" stroke-width="0.398" fill="none" /><path id="1327" transform="matrix(1 0 0 -1 0 792)" d="M677.218 175.427L677.218 202.525" stroke="#000000" stroke-width="0.398" fill="none" /><path id="1409" transform="matrix(1 0 0 -1 0 792)" d="M1006.371 175.427L1006.371 202.525" stroke="#000000" stroke-width="0.398" fill="none" /><path id="1411" transform="matrix(1 0 0 -1 0 792)" d="M1121.572 175.427L1121.572 202.525" stroke="#000000" stroke-width="0.398" fill="none" /><path id="1412" transform="matrix(1 0 0 -1 0 792)" d="M677.019 175.228L1121.771 175.228" stroke="#000000" stroke-width="0.398" fill="none" /><path id="1413" transform="matrix(1 0 0 -1 0 792)" d="M677.019 175.228L1121.771 175.228" stroke="#000000" stroke-width="0.398" fill="none" /><path id="1414" transform="matrix(1 0 0 -1 0 792)" d="M677.218 147.93L677.218 175.028" stroke="#000000" stroke-width="0.398" fill="none" /><path id="1478" transform="matrix(1 0 0 -1 0 792)" d="M1006.371 147.93L1006.371 175.028" stroke="#000000" stroke-width="0.398" fill="none" /><path id="1480" transform="matrix(1 0 0 -1 0 792)" d="M1121.572 147.93L1121.572 175.028" stroke="#000000" stroke-width="0.398" fill="none" /><path id="1481" transform="matrix(1 0 0 -1 0 792)" d="M677.019 147.731L1121.771 147.731" stroke="#000000" stroke-width="0.398" fill="none" /><path id="1482" transform="matrix(1 0 0 -1 0 792)" d="M677.019 147.731L1121.771 147.731" stroke="#000000" stroke-width="0.398" fill="none" /><path id="1483" transform="matrix(1 0 0 -1 0 792)" d="M677.218 120.433L677.218 147.531" stroke="#000000" stroke-width="0.398" fill="none" /><path id="1571" transform="matrix(1 0 0 -1 0 792)" d="M1006.371 120.433L1006.371 147.531" stroke="#000000" stroke-width="0.398" fill="none" /><path id="1573" transform="matrix(1 0 0 -1 0 792)" d="M1121.572 120.433L1121.572 147.531" stroke="#000000" stroke-width="0.398" fill="none" /><path id="1574" transform="matrix(1 0 0 -1 0 792)" d="M677.019 120.234L1121.771 120.234" stroke="#000000" stroke-width="0.398" fill="none" /><path id="1575" transform="matrix(1 0 0 -1 0 792)" d="M677.019 120.234L1121.771 120.234" stroke="#000000" stroke-width="0.398" fill="none" /><path id="1576" transform="matrix(1 0 0 -1 0 792)" d="M677.218 106.468L677.218 120.035" stroke="#000000" stroke-width="0.398" fill="none" /><path id="1613" transform="matrix(1 0 0 -1 0 792)" d="M1006.371 106.468L1006.371 120.035" stroke="#000000" stroke-width="0.398" fill="none" /><path id="1615" transform="matrix(1 0 0 -1 0 792)" d="M1121.572 106.468L1121.572 120.035" stroke="#000000" stroke-width="0.398" fill="none" /><path id="1616" transform="matrix(1 0 0 -1 0 792)" d="M677.019 106.269L1121.771 106.269" stroke="#000000" stroke-width="0.398" fill="none" /><path id="1617" transform="matrix(1 0 0 -1 0 792)" d="M677.019 106.269L1121.771 106.269" stroke="#000000" stroke-width="0.398" fill="none" /><path id="1618" transform="matrix(1 0 0 -1 0 792)" d="M677.218 92.503L677.218 106.07" stroke="#000000" stroke-width="0.398" fill="none" /><path id="1649" transform="matrix(1 0 0 -1 0 792)" d="M1006.371 92.503L1006.371 106.07" stroke="#000000" stroke-width="0.398" fill="none" /><path id="1651" transform="matrix(1 0 0 -1 0 792)" d="M1121.572 92.503L1121.572 106.07" stroke="#000000" stroke-width="0.398" fill="none" /><path id="1652" transform="matrix(1 0 0 -1 0 792)" d="M677.019 92.304L1121.771 92.304" stroke="#000000" stroke-width="0.398" fill="none" /><path id="1653" transform="matrix(1 0 0 -1 0 792)" d="M677.019 92.304L1121.771 92.304" stroke="#000000" stroke-width="0.398" fill="none" /><path id="1654" transform="matrix(1 0 0 -1 0 792)" d="M677.218 78.538L677.218 92.105" stroke="#000000" stroke-width="0.398" fill="none" /><path id="1686" transform="matrix(1 0 0 -1 0 792)" d="M1006.371 78.538L1006.371 92.105" stroke="#000000" stroke-width="0.398" fill="none" /><path id="1688" transform="matrix(1 0 0 -1 0 792)" d="M1121.572 78.538L1121.572 92.105" stroke="#000000" stroke-width="0.398" fill="none" /><path id="1689" transform="matrix(1 0 0 -1 0 792)" d="M677.019 78.338L1121.771 78.338" stroke="#000000" stroke-width="0.398" fill="none" /><path id="1725" transform="matrix(1 0 0 -1 0 792)" d="M54.067 721.28L520.722 721.28" stroke="#000000" stroke-width="0.498" fill="none" /><path id="1726" transform="matrix(1 0 0 -1 0 792)" d="M65.019 696.423L509.771 696.423" stroke="#000000" stroke-width="0.398" fill="none" /><path id="1727" transform="matrix(1 0 0 -1 0 792)" d="M65.019 696.423L509.771 696.423" stroke="#000000" stroke-width="0.398" fill="none" /><path id="1728" transform="matrix(1 0 0 -1 0 792)" d="M65.218 682.658L65.218 696.225" stroke="#000000" stroke-width="0.398" fill="none" /><path id="1729" transform="matrix(1 0 0 -1 0 792)" d="M65.417 682.658L394.172 682.658L394.172 696.225L65.417 696.225z" stroke="none" fill="#CCCCEB" fill-rule="nonzero" /><path id="1739" transform="matrix(1 0 0 -1 0 792)" d="M394.371 682.658L394.371 696.225" stroke="#000000" stroke-width="0.398" fill="none" /><path id="1740" transform="matrix(1 0 0 -1 0 792)" d="M394.57 682.658L509.372 682.658L509.372 696.225L394.57 696.225z" stroke="none" fill="#CCCCEB" fill-rule="nonzero" /><path id="1747" transform="matrix(1 0 0 -1 0 792)" d="M509.572 682.658L509.572 696.225" stroke="#000000" stroke-width="0.398" fill="none" /><path id="1748" transform="matrix(1 0 0 -1 0 792)" d="M65.019 682.458L509.771 682.458" stroke="#000000" stroke-width="0.398" fill="none" /><path id="1749" transform="matrix(1 0 0 -1 0 792)" d="M65.019 682.458L509.771 682.458" stroke="#000000" stroke-width="0.398" fill="none" /><path id="1750" transform="matrix(1 0 0 -1 0 792)" d="M65.019 682.06L509.771 682.06" stroke="#000000" stroke-width="0.398" fill="none" /><path id="1751" transform="matrix(1 0 0 -1 0 792)" d="M65.019 682.06L509.771 682.06" stroke="#000000" stroke-width="0.398" fill="none" /><path id="1752" transform="matrix(1 0 0 -1 0 792)" d="M65.019 682.06L509.771 682.06" stroke="#000000" stroke-width="0.398" fill="none" /><path id="1753" transform="matrix(1 0 0 -1 0 792)" d="M65.218 654.762L65.218 681.86" stroke="#000000" stroke-width="0.398" fill="none" /><path id="1807" transform="matrix(1 0 0 -1 0 792)" d="M394.371 654.762L394.371 681.86" stroke="#000000" stroke-width="0.398" fill="none" /><path id="1809" transform="matrix(1 0 0 -1 0 792)" d="M509.572 654.762L509.572 681.86" stroke="#000000" stroke-width="0.398" fill="none" /><path id="1810" transform="matrix(1 0 0 -1 0 792)" d="M65.019 654.563L509.771 654.563" stroke="#000000" stroke-width="0.398" fill="none" /><path id="1811" transform="matrix(1 0 0 -1 0 792)" d="M65.019 654.563L509.771 654.563" stroke="#000000" stroke-width="0.398" fill="none" /><path id="1812" transform="matrix(1 0 0 -1 0 792)" d="M65.218 627.265L65.218 654.363" stroke="#000000" stroke-width="0.398" fill="none" /><path id="1873" transform="matrix(1 0 0 -1 0 792)" d="M394.371 627.265L394.371 654.363" stroke="#000000" stroke-width="0.398" fill="none" /><path id="1875" transform="matrix(1 0 0 -1 0 792)" d="M509.572 627.265L509.572 654.363" stroke="#000000" stroke-width="0.398" fill="none" /><path id="1876" transform="matrix(1 0 0 -1 0 792)" d="M65.019 627.066L509.771 627.066" stroke="#000000" stroke-width="0.398" fill="none" /><path id="1877" transform="matrix(1 0 0 -1 0 792)" d="M65.019 627.066L509.771 627.066" stroke="#000000" stroke-width="0.398" fill="none" /><path id="1878" transform="matrix(1 0 0 -1 0 792)" d="M65.218 599.768L65.218 626.866" stroke="#000000" stroke-width="0.398" fill="none" /><path id="1942" transform="matrix(1 0 0 -1 0 792)" d="M394.371 599.768L394.371 626.866" stroke="#000000" stroke-width="0.398" fill="none" /><path id="1944" transform="matrix(1 0 0 -1 0 792)" d="M509.572 599.768L509.572 626.866" stroke="#000000" stroke-width="0.398" fill="none" /><path id="1945" transform="matrix(1 0 0 -1 0 792)" d="M65.019 599.569L509.771 599.569" stroke="#000000" stroke-width="0.398" fill="none" /><path id="1946" transform="matrix(1 0 0 -1 0 792)" d="M65.019 599.569L509.771 599.569" stroke="#000000" stroke-width="0.398" fill="none" /><path id="1947" transform="matrix(1 0 0 -1 0 792)" d="M65.218 572.271L65.218 599.369" stroke="#000000" stroke-width="0.398" fill="none" /><path id="2012" transform="matrix(1 0 0 -1 0 792)" d="M394.371 572.271L394.371 599.369" stroke="#000000" stroke-width="0.398" fill="none" /><path id="2014" transform="matrix(1 0 0 -1 0 792)" d="M509.572 572.271L509.572 599.369" stroke="#000000" stroke-width="0.398" fill="none" /><path id="2015" transform="matrix(1 0 0 -1 0 792)" d="M65.019 572.072L509.771 572.072" stroke="#000000" stroke-width="0.398" fill="none" /><path id="2016" transform="matrix(1 0 0 -1 0 792)" d="M65.019 572.072L509.771 572.072" stroke="#000000" stroke-width="0.398" fill="none" /><path id="2017" transform="matrix(1 0 0 -1 0 792)" d="M65.218 558.306L65.218 571.873" stroke="#000000" stroke-width="0.398" fill="none" /><path id="2068" transform="matrix(1 0 0 -1 0 792)" d="M394.371 558.306L394.371 571.873" stroke="#000000" stroke-width="0.398" fill="none" /><path id="2070" transform="matrix(1 0 0 -1 0 792)" d="M509.572 558.306L509.572 571.873" stroke="#000000" stroke-width="0.398" fill="none" /><path id="2071" transform="matrix(1 0 0 -1 0 792)" d="M65.019 558.107L509.771 558.107" stroke="#000000" stroke-width="0.398" fill="none" /><path id="2072" transform="matrix(1 0 0 -1 0 792)" d="M65.019 558.107L509.771 558.107" stroke="#000000" stroke-width="0.398" fill="none" /><path id="2073" transform="matrix(1 0 0 -1 0 792)" d="M65.218 544.341L65.218 557.908" stroke="#000000" stroke-width="0.398" fill="none" /><path id="2120" transform="matrix(1 0 0 -1 0 792)" d="M394.371 544.341L394.371 557.908" stroke="#000000" stroke-width="0.398" fill="none" /><path id="2122" transform="matrix(1 0 0 -1 0 792)" d="M509.572 544.341L509.572 557.908" stroke="#000000" stroke-width="0.398" fill="none" /><path id="2123" transform="matrix(1 0 0 -1 0 792)" d="M65.019 544.142L509.771 544.142" stroke="#000000" stroke-width="0.398" fill="none" /><path id="2124" transform="matrix(1 0 0 -1 0 792)" d="M65.019 544.142L509.771 544.142" stroke="#000000" stroke-width="0.398" fill="none" /><path id="2125" transform="matrix(1 0 0 -1 0 792)" d="M65.218 516.844L65.218 543.942" stroke="#000000" stroke-width="0.398" fill="none" /><path id="2178" transform="matrix(1 0 0 -1 0 792)" d="M394.371 516.844L394.371 543.942" stroke="#000000" stroke-width="0.398" fill="none" /><path id="2180" transform="matrix(1 0 0 -1 0 792)" d="M509.572 516.844L509.572 543.942" stroke="#000000" stroke-width="0.398" fill="none" /><path id="2181" transform="matrix(1 0 0 -1 0 792)" d="M65.019 516.645L509.771 516.645" stroke="#000000" stroke-width="0.398" fill="none" /><path id="2182" transform="matrix(1 0 0 -1 0 792)" d="M65.019 516.645L509.771 516.645" stroke="#000000" stroke-width="0.398" fill="none" /><path id="2183" transform="matrix(1 0 0 -1 0 792)" d="M65.218 502.879L65.218 516.446" stroke="#000000" stroke-width="0.398" fill="none" /><path id="2206" transform="matrix(1 0 0 -1 0 792)" d="M394.371 502.879L394.371 516.446" stroke="#000000" stroke-width="0.398" fill="none" /><path id="2208" transform="matrix(1 0 0 -1 0 792)" d="M509.572 502.879L509.572 516.446" stroke="#000000" stroke-width="0.398" fill="none" /><path id="2209" transform="matrix(1 0 0 -1 0 792)" d="M65.019 502.68L509.771 502.68" stroke="#000000" stroke-width="0.398" fill="none" /><path id="2210" transform="matrix(1 0 0 -1 0 792)" d="M65.019 502.68L509.771 502.68" stroke="#000000" stroke-width="0.398" fill="none" /><path id="2211" transform="matrix(1 0 0 -1 0 792)" d="M65.218 475.382L65.218 502.48" stroke="#000000" stroke-width="0.398" fill="none" /><path id="2307" transform="matrix(1 0 0 -1 0 792)" d="M509.572 475.382L509.572 502.48" stroke="#000000" stroke-width="0.398" fill="none" /><path id="2308" transform="matrix(1 0 0 -1 0 792)" d="M65.218 461.816L65.218 475.383" stroke="#000000" stroke-width="0.398" fill="none" /><path id="2331" transform="matrix(1 0 0 -1 0 792)" d="M394.371 461.816L394.371 475.383" stroke="#000000" stroke-width="0.398" fill="none" /><path id="2333" transform="matrix(1 0 0 -1 0 792)" d="M509.572 461.816L509.572 475.383" stroke="#000000" stroke-width="0.398" fill="none" /><path id="2334" transform="matrix(1 0 0 -1 0 792)" d="M65.218 448.249L65.218 461.816" stroke="#000000" stroke-width="0.398" fill="none" /><path id="2361" transform="matrix(1 0 0 -1 0 792)" d="M268.207 452.531L271.196 452.531" stroke="#000000" stroke-width="0.398" fill="none" /><path id="2366" transform="matrix(1 0 0 -1 0 792)" d="M394.371 448.249L394.371 461.816" stroke="#000000" stroke-width="0.398" fill="none" /><path id="2368" transform="matrix(1 0 0 -1 0 792)" d="M509.572 448.249L509.572 461.816" stroke="#000000" stroke-width="0.398" fill="none" /><path id="2369" transform="matrix(1 0 0 -1 0 792)" d="M65.218 434.682L65.218 448.249" stroke="#000000" stroke-width="0.398" fill="none" /><path id="2393" transform="matrix(1 0 0 -1 0 792)" d="M394.371 434.682L394.371 448.249" stroke="#000000" stroke-width="0.398" fill="none" /><path id="2395" transform="matrix(1 0 0 -1 0 792)" d="M509.572 434.682L509.572 448.249" stroke="#000000" stroke-width="0.398" fill="none" /><path id="2396" transform="matrix(1 0 0 -1 0 792)" d="M65.218 421.116L65.218 434.683" stroke="#000000" stroke-width="0.398" fill="none" /><path id="2423" transform="matrix(1 0 0 -1 0 792)" d="M268.207 425.397L271.196 425.397" stroke="#000000" stroke-width="0.398" fill="none" /><path id="2429" transform="matrix(1 0 0 -1 0 792)" d="M394.371 421.116L394.371 434.683" stroke="#000000" stroke-width="0.398" fill="none" /><path id="2431" transform="matrix(1 0 0 -1 0 792)" d="M509.572 421.116L509.572 434.683" stroke="#000000" stroke-width="0.398" fill="none" /><path id="2432" transform="matrix(1 0 0 -1 0 792)" d="M65.218 407.549L65.218 421.116" stroke="#000000" stroke-width="0.398" fill="none" /><path id="2454" transform="matrix(1 0 0 -1 0 792)" d="M394.371 407.549L394.371 421.116" stroke="#000000" stroke-width="0.398" fill="none" /><path id="2456" transform="matrix(1 0 0 -1 0 792)" d="M509.572 407.549L509.572 421.116" stroke="#000000" stroke-width="0.398" fill="none" /><path id="2457" transform="matrix(1 0 0 -1 0 792)" d="M65.218 393.982L65.218 407.549" stroke="#000000" stroke-width="0.398" fill="none" /><path id="2484" transform="matrix(1 0 0 -1 0 792)" d="M268.207 398.264L271.196 398.264" stroke="#000000" stroke-width="0.398" fill="none" /><path id="2488" transform="matrix(1 0 0 -1 0 792)" d="M394.371 393.982L394.371 407.549" stroke="#000000" stroke-width="0.398" fill="none" /><path id="2490" transform="matrix(1 0 0 -1 0 792)" d="M509.572 393.982L509.572 407.549" stroke="#000000" stroke-width="0.398" fill="none" /><path id="2491" transform="matrix(1 0 0 -1 0 792)" d="M65.218 380.416L65.218 393.983" stroke="#000000" stroke-width="0.398" fill="none" /><path id="2515" transform="matrix(1 0 0 -1 0 792)" d="M394.371 380.416L394.371 393.983" stroke="#000000" stroke-width="0.398" fill="none" /><path id="2517" transform="matrix(1 0 0 -1 0 792)" d="M509.572 380.416L509.572 393.983" stroke="#000000" stroke-width="0.398" fill="none" /><path id="2518" transform="matrix(1 0 0 -1 0 792)" d="M65.218 366.849L65.218 380.416" stroke="#000000" stroke-width="0.398" fill="none" /><path id="2542" transform="matrix(1 0 0 -1 0 792)" d="M394.371 366.849L394.371 380.416" stroke="#000000" stroke-width="0.398" fill="none" /><path id="2544" transform="matrix(1 0 0 -1 0 792)" d="M509.572 366.849L509.572 380.416" stroke="#000000" stroke-width="0.398" fill="none" /><path id="2545" transform="matrix(1 0 0 -1 0 792)" d="M65.019 366.65L509.771 366.65" stroke="#000000" stroke-width="0.398" fill="none" /><path id="2546" transform="matrix(1 0 0 -1 0 792)" d="M65.019 366.65L509.771 366.65" stroke="#000000" stroke-width="0.398" fill="none" /><path id="2547" transform="matrix(1 0 0 -1 0 792)" d="M65.218 352.901L65.218 366.45" stroke="#000000" stroke-width="0.398" fill="none" /><path id="2592" transform="matrix(1 0 0 -1 0 792)" d="M509.572 352.901L509.572 366.45" stroke="#000000" stroke-width="0.398" fill="none" /><path id="2593" transform="matrix(1 0 0 -1 0 792)" d="M65.218 339.335L65.218 352.902" stroke="#000000" stroke-width="0.398" fill="none" /><path id="2616" transform="matrix(1 0 0 -1 0 792)" d="M226.364 343.616L229.353 343.616" stroke="#000000" stroke-width="0.398" fill="none" /><path id="2627" transform="matrix(1 0 0 -1 0 792)" d="M289.726 343.616L292.715 343.616" stroke="#000000" stroke-width="0.398" fill="none" /><path id="2632" transform="matrix(1 0 0 -1 0 792)" d="M394.371 339.335L394.371 352.902" stroke="#000000" stroke-width="0.398" fill="none" /><path id="2634" transform="matrix(1 0 0 -1 0 792)" d="M509.572 339.335L509.572 352.902" stroke="#000000" stroke-width="0.398" fill="none" /><path id="2635" transform="matrix(1 0 0 -1 0 792)" d="M65.218 325.768L65.218 339.335" stroke="#000000" stroke-width="0.398" fill="none" /><path id="2659" transform="matrix(1 0 0 -1 0 792)" d="M232.341 330.05L235.33 330.05" stroke="#000000" stroke-width="0.398" fill="none" /><path id="2674" transform="matrix(1 0 0 -1 0 792)" d="M319.614 330.05L322.603 330.05" stroke="#000000" stroke-width="0.398" fill="none" /><path id="2678" transform="matrix(1 0 0 -1 0 792)" d="M394.371 325.768L394.371 339.335" stroke="#000000" stroke-width="0.398" fill="none" /><path id="2680" transform="matrix(1 0 0 -1 0 792)" d="M509.572 325.768L509.572 339.335" stroke="#000000" stroke-width="0.398" fill="none" /><path id="2681" transform="matrix(1 0 0 -1 0 792)" d="M65.218 312.201L65.218 325.768" stroke="#000000" stroke-width="0.398" fill="none" /><path id="2697" transform="matrix(1 0 0 -1 0 792)" d="M184.521 316.483L187.51 316.483" stroke="#000000" stroke-width="0.398" fill="none" /><path id="2711" transform="matrix(1 0 0 -1 0 792)" d="M394.371 312.201L394.371 325.768" stroke="#000000" stroke-width="0.398" fill="none" /><path id="2713" transform="matrix(1 0 0 -1 0 792)" d="M509.572 312.201L509.572 325.768" stroke="#000000" stroke-width="0.398" fill="none" /><path id="2714" transform="matrix(1 0 0 -1 0 792)" d="M65.019 312.002L509.771 312.002" stroke="#000000" stroke-width="0.398" fill="none" /><path id="2715" transform="matrix(1 0 0 -1 0 792)" d="M65.019 312.002L509.771 312.002" stroke="#000000" stroke-width="0.398" fill="none" /><path id="2716" transform="matrix(1 0 0 -1 0 792)" d="M65.218 298.254L65.218 311.803" stroke="#000000" stroke-width="0.398" fill="none" /><path id="2781" transform="matrix(1 0 0 -1 0 792)" d="M509.572 298.254L509.572 311.803" stroke="#000000" stroke-width="0.398" fill="none" /><path id="2782" transform="matrix(1 0 0 -1 0 792)" d="M65.218 284.687L65.218 298.254" stroke="#000000" stroke-width="0.398" fill="none" /><path id="2805" transform="matrix(1 0 0 -1 0 792)" d="M226.364 288.969L229.353 288.969" stroke="#000000" stroke-width="0.398" fill="none" /><path id="2816" transform="matrix(1 0 0 -1 0 792)" d="M289.726 288.969L292.715 288.969" stroke="#000000" stroke-width="0.398" fill="none" /><path id="2821" transform="matrix(1 0 0 -1 0 792)" d="M394.371 284.687L394.371 298.254" stroke="#000000" stroke-width="0.398" fill="none" /><path id="2823" transform="matrix(1 0 0 -1 0 792)" d="M509.572 284.687L509.572 298.254" stroke="#000000" stroke-width="0.398" fill="none" /><path id="2824" transform="matrix(1 0 0 -1 0 792)" d="M65.218 271.121L65.218 284.688" stroke="#000000" stroke-width="0.398" fill="none" /><path id="2848" transform="matrix(1 0 0 -1 0 792)" d="M232.341 275.402L235.33 275.402" stroke="#000000" stroke-width="0.398" fill="none" /><path id="2863" transform="matrix(1 0 0 -1 0 792)" d="M319.614 275.402L322.603 275.402" stroke="#000000" stroke-width="0.398" fill="none" /><path id="2867" transform="matrix(1 0 0 -1 0 792)" d="M394.371 271.121L394.371 284.688" stroke="#000000" stroke-width="0.398" fill="none" /><path id="2869" transform="matrix(1 0 0 -1 0 792)" d="M509.572 271.121L509.572 284.688" stroke="#000000" stroke-width="0.398" fill="none" /><path id="2870" transform="matrix(1 0 0 -1 0 792)" d="M65.218 257.554L65.218 271.121" stroke="#000000" stroke-width="0.398" fill="none" /><path id="2886" transform="matrix(1 0 0 -1 0 792)" d="M184.521 261.835L187.51 261.835" stroke="#000000" stroke-width="0.398" fill="none" /><path id="2900" transform="matrix(1 0 0 -1 0 792)" d="M394.371 257.554L394.371 271.121" stroke="#000000" stroke-width="0.398" fill="none" /><path id="2902" transform="matrix(1 0 0 -1 0 792)" d="M509.572 257.554L509.572 271.121" stroke="#000000" stroke-width="0.398" fill="none" /><path id="2903" transform="matrix(1 0 0 -1 0 792)" d="M65.218 243.987L65.218 257.554" stroke="#000000" stroke-width="0.398" fill="none" /><path id="2917" transform="matrix(1 0 0 -1 0 792)" d="M172.565 248.269L175.554 248.269" stroke="#000000" stroke-width="0.398" fill="none" /><path id="2931" transform="matrix(1 0 0 -1 0 792)" d="M253.86 248.269L256.849 248.269" stroke="#000000" stroke-width="0.398" fill="none" /><path id="2937" transform="matrix(1 0 0 -1 0 792)" d="M394.371 243.987L394.371 257.554" stroke="#000000" stroke-width="0.398" fill="none" /><path id="2939" transform="matrix(1 0 0 -1 0 792)" d="M509.572 243.987L509.572 257.554" stroke="#000000" stroke-width="0.398" fill="none" /><path id="2940" transform="matrix(1 0 0 -1 0 792)" d="M65.218 230.421L65.218 243.988" stroke="#000000" stroke-width="0.398" fill="none" /><path id="2954" transform="matrix(1 0 0 -1 0 792)" d="M172.565 234.702L175.554 234.702" stroke="#000000" stroke-width="0.398" fill="none" /><path id="2958" transform="matrix(1 0 0 -1 0 792)" d="M394.371 230.421L394.371 243.988" stroke="#000000" stroke-width="0.398" fill="none" /><path id="2960" transform="matrix(1 0 0 -1 0 792)" d="M509.572 230.421L509.572 243.988" stroke="#000000" stroke-width="0.398" fill="none" /><path id="2961" transform="matrix(1 0 0 -1 0 792)" d="M65.019 230.221L509.771 230.221" stroke="#000000" stroke-width="0.398" fill="none" /><path id="2962" transform="matrix(1 0 0 -1 0 792)" d="M65.019 230.221L509.771 230.221" stroke="#000000" stroke-width="0.398" fill="none" /><path id="2963" transform="matrix(1 0 0 -1 0 792)" d="M65.218 202.924L65.218 230.022" stroke="#000000" stroke-width="0.398" fill="none" /><path id="3030" transform="matrix(1 0 0 -1 0 792)" d="M394.371 202.924L394.371 230.022" stroke="#000000" stroke-width="0.398" fill="none" /><path id="3032" transform="matrix(1 0 0 -1 0 792)" d="M509.572 202.924L509.572 230.022" stroke="#000000" stroke-width="0.398" fill="none" /><path id="3033" transform="matrix(1 0 0 -1 0 792)" d="M65.019 202.724L509.771 202.724" stroke="#000000" stroke-width="0.398" fill="none" /><path id="3034" transform="matrix(1 0 0 -1 0 792)" d="M65.019 202.724L509.771 202.724" stroke="#000000" stroke-width="0.398" fill="none" /><path id="3035" transform="matrix(1 0 0 -1 0 792)" d="M65.218 175.427L65.218 202.525" stroke="#000000" stroke-width="0.398" fill="none" /><path id="3117" transform="matrix(1 0 0 -1 0 792)" d="M394.371 175.427L394.371 202.525" stroke="#000000" stroke-width="0.398" fill="none" /><path id="3119" transform="matrix(1 0 0 -1 0 792)" d="M509.572 175.427L509.572 202.525" stroke="#000000" stroke-width="0.398" fill="none" /><path id="3120" transform="matrix(1 0 0 -1 0 792)" d="M65.019 175.228L509.771 175.228" stroke="#000000" stroke-width="0.398" fill="none" /><path id="3121" transform="matrix(1 0 0 -1 0 792)" d="M65.019 175.228L509.771 175.228" stroke="#000000" stroke-width="0.398" fill="none" /><path id="3122" transform="matrix(1 0 0 -1 0 792)" d="M65.218 147.93L65.218 175.028" stroke="#000000" stroke-width="0.398" fill="none" /><path id="3186" transform="matrix(1 0 0 -1 0 792)" d="M394.371 147.93L394.371 175.028" stroke="#000000" stroke-width="0.398" fill="none" /><path id="3188" transform="matrix(1 0 0 -1 0 792)" d="M509.572 147.93L509.572 175.028" stroke="#000000" stroke-width="0.398" fill="none" /><path id="3189" transform="matrix(1 0 0 -1 0 792)" d="M65.019 147.731L509.771 147.731" stroke="#000000" stroke-width="0.398" fill="none" /><path id="3190" transform="matrix(1 0 0 -1 0 792)" d="M65.019 147.731L509.771 147.731" stroke="#000000" stroke-width="0.398" fill="none" /><path id="3191" transform="matrix(1 0 0 -1 0 792)" d="M65.218 120.433L65.218 147.531" stroke="#000000" stroke-width="0.398" fill="none" /><path id="3279" transform="matrix(1 0 0 -1 0 792)" d="M394.371 120.433L394.371 147.531" stroke="#000000" stroke-width="0.398" fill="none" /><path id="3281" transform="matrix(1 0 0 -1 0 792)" d="M509.572 120.433L509.572 147.531" stroke="#000000" stroke-width="0.398" fill="none" /><path id="3282" transform="matrix(1 0 0 -1 0 792)" d="M65.019 120.234L509.771 120.234" stroke="#000000" stroke-width="0.398" fill="none" /><path id="3283" transform="matrix(1 0 0 -1 0 792)" d="M65.019 120.234L509.771 120.234" stroke="#000000" stroke-width="0.398" fill="none" /><path id="3284" transform="matrix(1 0 0 -1 0 792)" d="M65.218 106.468L65.218 120.035" stroke="#000000" stroke-width="0.398" fill="none" /><path id="3321" transform="matrix(1 0 0 -1 0 792)" d="M394.371 106.468L394.371 120.035" stroke="#000000" stroke-width="0.398" fill="none" /><path id="3323" transform="matrix(1 0 0 -1 0 792)" d="M509.572 106.468L509.572 120.035" stroke="#000000" stroke-width="0.398" fill="none" /><path id="3324" transform="matrix(1 0 0 -1 0 792)" d="M65.019 106.269L509.771 106.269" stroke="#000000" stroke-width="0.398" fill="none" /><path id="3325" transform="matrix(1 0 0 -1 0 792)" d="M65.019 106.269L509.771 106.269" stroke="#000000" stroke-width="0.398" fill="none" /><path id="3326" transform="matrix(1 0 0 -1 0 792)" d="M65.218 92.503L65.218 106.07" stroke="#000000" stroke-width="0.398" fill="none" /><path id="3357" transform="matrix(1 0 0 -1 0 792)" d="M394.371 92.503L394.371 106.07" stroke="#000000" stroke-width="0.398" fill="none" /><path id="3359" transform="matrix(1 0 0 -1 0 792)" d="M509.572 92.503L509.572 106.07" stroke="#000000" stroke-width="0.398" fill="none" /><path id="3360" transform="matrix(1 0 0 -1 0 792)" d="M65.019 92.304L509.771 92.304" stroke="#000000" stroke-width="0.398" fill="none" /><path id="3361" transform="matrix(1 0 0 -1 0 792)" d="M65.019 92.304L509.771 92.304" stroke="#000000" stroke-width="0.398" fill="none" /><path id="3362" transform="matrix(1 0 0 -1 0 792)" d="M65.218 78.538L65.218 92.105" stroke="#000000" stroke-width="0.398" fill="none" /><path id="3394" transform="matrix(1 0 0 -1 0 792)" d="M394.371 78.538L394.371 92.105" stroke="#000000" stroke-width="0.398" fill="none" /><path id="3396" transform="matrix(1 0 0 -1 0 792)" d="M509.572 78.538L509.572 92.105" stroke="#000000" stroke-width="0.398" fill="none" /><path id="3397" transform="matrix(1 0 0 -1 0 792)" d="M65.019 78.338L509.771 78.338" stroke="#000000" stroke-width="0.398" fill="none" /></g></g></svg>