<svg xmlns="http://www.w3.org/2000/svg" xmlns:xlink="http://www.w3.org/1999/xlink" id="body_3" preserveAspectRatio="xMinYMin meet" viewBox="0 0 1632 1056"><defs><clipPath id="1"><path id="" clip-rule="evenodd" transform="matrix(1 0 0 1 0 0)" d="M0 792L0 0L0 0L1224 0L1224 0L1224 792L1224 792L0 792z" /></clipPath></defs><g transform="matrix(1.333333 0 0 1.333333 0 0)"><g clip-path="url(#1)"><path id="11" transform="matrix(1 0 0 -1 0 792)" d="M666.067 721.28L1132.722 721.28" stroke="#000000" stroke-width="0.498" fill="none" /><path id="1761" transform="matrix(1 0 0 -1 0 792)" d="M707.522 551.057L1132.726 551.057L1132.726 551.057L1132.726 564.2025L1132.726 564.2025L707.522 564.2025z" stroke="#FFFFFF" stroke-width="1" fill="#FFFFFF" fill-rule="nonzero" /><path id="1799" transform="matrix(1 0 0 -1 0 792)" d="M666.067 480.321L1132.726 480.321L1132.726 480.321L1132.726 494.5138L1132.726 494.5138L666.067 494.5138z" stroke="#FFFFFF" stroke-width="1" fill="#FFFFFF" fill-rule="nonzero" /><path id="1815" transform="matrix(1 0 0 -1 0 792)" d="M682.431 378.665L1132.726 378.665L1132.726 378.665L1132.726 391.8105L1132.726 391.8105L682.431 391.8105z" stroke="#FFFFFF" stroke-width="1" fill="#FFFFFF" fill-rule="nonzero" /><path id="1859" transform="matrix(1 0 0 -1 0 792)" d="M707.522 349.434L1132.726 349.434L1132.726 349.434L1132.726 362.5795L1132.726 362.5795L707.522 362.5795z" stroke="#FFFFFF" stroke-width="1" fill="#FFFFFF" fill-rule="nonzero" /><path id="1898" transform="matrix(1 0 0 -1 0 792)" d="M707.522 334.818L1132.726 334.818L1132.726 334.818L1132.726 347.9635L1132.726 347.9635L707.522 347.9635z" stroke="#FFFFFF" stroke-width="1" fill="#FFFFFF" fill-rule="nonzero" /><path id="1939" transform="matrix(1 0 0 -1 0 792)" d="M707.522 292.038L1132.726 292.038L1132.726 292.038L1132.726 318.7325L1132.726 318.7325L707.522 318.7325z" stroke="#FFFFFF" stroke-width="1" fill="#FFFFFF" fill-rule="nonzero" /><path id="2007" transform="matrix(1 0 0 -1 0 792)" d="M707.522 262.808L1132.726 262.808L1132.726 262.808L1132.726 275.9535L1132.726 275.9535L707.522 275.9535z" stroke="#FFFFFF" stroke-width="1" fill="#FFFFFF" fill-rule="nonzero" /><path id="2040" transform="matrix(1 0 0 -1 0 792)" d="M707.522 248.191L1132.726 248.191L1132.726 248.191L1132.726 261.3365L1132.726 261.3365L707.522 261.3365z" stroke="#FFFFFF" stroke-width="1" fill="#FFFFFF" fill-rule="nonzero" /><path id="2075" transform="matrix(1 0 0 -1 0 792)" d="M666.067 92.7559L1132.726 92.7559L1132.726 92.7559L1132.726 106.9487L1132.726 106.9487L666.067 106.9487z" stroke="#FFFFFF" stroke-width="1" fill="#FFFFFF" fill-rule="nonzero" /><path id="2114" transform="matrix(1 0 0 -1 0 792)" d="M54.067 721.28L520.722 721.28" stroke="#000000" stroke-width="0.498" fill="none" /></g></g></svg>