<svg xmlns="http://www.w3.org/2000/svg" xmlns:xlink="http://www.w3.org/1999/xlink" id="body_37" preserveAspectRatio="xMinYMin meet" viewBox="0 0 1632 1056"><defs><clipPath id="1"><path id="" clip-rule="evenodd" transform="matrix(1 0 0 1 0 0)" d="M0 792L0 0L0 0L1224 0L1224 0L1224 792L1224 792L0 792z" /></clipPath></defs><g transform="matrix(1.333333 0 0 1.333333 0 0)"><g clip-path="url(#1)"><path id="1" transform="matrix(1 0 0 -1 0 792)" d="M701.933 721.28L1168.588 721.28" stroke="#000000" stroke-width="0.498" fill="none" /><path id="2" transform="matrix(1 0 0 -1 0 792)" d="M742.795 659.835L1127.726 659.835" stroke="#000000" stroke-width="0.398" fill="none" /><path id="3" transform="matrix(1 0 0 -1 0 792)" d="M742.795 659.835L1127.726 659.835" stroke="#000000" stroke-width="0.398" fill="none" /><path id="4" transform="matrix(1 0 0 -1 0 792)" d="M742.994 646.069L742.994 659.636" stroke="#000000" stroke-width="0.398" fill="none" /><path id="5" transform="matrix(1 0 0 -1 0 792)" d="M743.193 646.069L1071.948 646.069L1071.948 659.636L743.193 659.636z" stroke="none" fill="#CCCCEB" fill-rule="nonzero" /><path id="15" transform="matrix(1 0 0 -1 0 792)" d="M1072.147 646.069L1072.147 659.636" stroke="#000000" stroke-width="0.398" fill="none" /><path id="16" transform="matrix(1 0 0 -1 0 792)" d="M1072.347 646.069L1127.327 646.069L1127.327 659.636L1072.347 659.636z" stroke="none" fill="#CCCCEB" fill-rule="nonzero" /><path id="23" transform="matrix(1 0 0 -1 0 792)" d="M1127.526 646.069L1127.526 659.636" stroke="#000000" stroke-width="0.398" fill="none" /><path id="24" transform="matrix(1 0 0 -1 0 792)" d="M742.795 645.87L1127.726 645.87" stroke="#000000" stroke-width="0.398" fill="none" /><path id="25" transform="matrix(1 0 0 -1 0 792)" d="M742.795 645.87L1127.726 645.87" stroke="#000000" stroke-width="0.398" fill="none" /><path id="26" transform="matrix(1 0 0 -1 0 792)" d="M742.795 645.471L1127.726 645.471" stroke="#000000" stroke-width="0.398" fill="none" /><path id="27" transform="matrix(1 0 0 -1 0 792)" d="M742.795 645.471L1127.726 645.471" stroke="#000000" stroke-width="0.398" fill="none" /><path id="28" transform="matrix(1 0 0 -1 0 792)" d="M742.994 631.705L742.994 645.272" stroke="#000000" stroke-width="0.398" fill="none" /><path id="53" transform="matrix(1 0 0 -1 0 792)" d="M1072.147 631.705L1072.147 645.272" stroke="#000000" stroke-width="0.398" fill="none" /><path id="55" transform="matrix(1 0 0 -1 0 792)" d="M1127.526 631.705L1127.526 645.272" stroke="#000000" stroke-width="0.398" fill="none" /><path id="56" transform="matrix(1 0 0 -1 0 792)" d="M742.795 631.506L1127.726 631.506" stroke="#000000" stroke-width="0.398" fill="none" /><path id="57" transform="matrix(1 0 0 -1 0 792)" d="M742.795 631.506L1127.726 631.506" stroke="#000000" stroke-width="0.398" fill="none" /><path id="58" transform="matrix(1 0 0 -1 0 792)" d="M742.994 604.208L742.994 631.306" stroke="#000000" stroke-width="0.398" fill="none" /><path id="139" transform="matrix(1 0 0 -1 0 792)" d="M1072.147 604.208L1072.147 631.306" stroke="#000000" stroke-width="0.398" fill="none" /><path id="142" transform="matrix(1 0 0 -1 0 792)" d="M1127.526 604.208L1127.526 631.306" stroke="#000000" stroke-width="0.398" fill="none" /><path id="143" transform="matrix(1 0 0 -1 0 792)" d="M742.795 604.009L1127.726 604.009" stroke="#000000" stroke-width="0.398" fill="none" /><path id="144" transform="matrix(1 0 0 -1 0 792)" d="M742.795 604.009L1127.726 604.009" stroke="#000000" stroke-width="0.398" fill="none" /><path id="145" transform="matrix(1 0 0 -1 0 792)" d="M742.994 576.711L742.994 603.809" stroke="#000000" stroke-width="0.398" fill="none" /><path id="203" transform="matrix(1 0 0 -1 0 792)" d="M1072.147 576.711L1072.147 603.809" stroke="#000000" stroke-width="0.398" fill="none" /><path id="205" transform="matrix(1 0 0 -1 0 792)" d="M1127.526 576.711L1127.526 603.809" stroke="#000000" stroke-width="0.398" fill="none" /><path id="206" transform="matrix(1 0 0 -1 0 792)" d="M742.795 576.512L1127.726 576.512" stroke="#000000" stroke-width="0.398" fill="none" /><path id="207" transform="matrix(1 0 0 -1 0 792)" d="M742.795 576.512L1127.726 576.512" stroke="#000000" stroke-width="0.398" fill="none" /><path id="229" transform="matrix(1 0 0 -1 0 792)" d="M701.933 722.529L1168.588 722.529L1168.588 722.529L1168.588 735.6745L1168.588 735.6745L701.933 735.6745z" stroke="#FFFFFF" stroke-width="1" fill="#FFFFFF" fill-rule="nonzero" /><path id="242" transform="matrix(1 0 0 -1 0 792)" d="M701.933 669.05L1168.588 669.05L1168.588 669.05L1168.588 695.7445L1168.588 695.7445L701.933 695.7445z" stroke="#FFFFFF" stroke-width="1" fill="#FFFFFF" fill-rule="nonzero" /><path id="304" transform="matrix(1 0 0 -1 0 792)" d="M729.206 477.065L1168.589 477.065L1168.589 477.065L1168.589 561.1297L1168.589 561.1297L729.206 561.1297z" stroke="#FFFFFF" stroke-width="1" fill="#FFFFFF" fill-rule="nonzero" /><path id="513" transform="matrix(1 0 0 -1 0 792)" d="M701.933 388.266L1168.591 388.266L1168.591 388.266L1168.591 428.5105L1168.591 428.5105L701.933 428.5105z" stroke="#FFFFFF" stroke-width="1" fill="#FFFFFF" fill-rule="nonzero" /><path id="591" transform="matrix(1 0 0 -1 0 792)" d="M718.869 374.525L1168.586 374.525L1168.586 374.525L1168.586 387.6705L1168.586 387.6705L718.869 387.6705z" stroke="#FFFFFF" stroke-width="1" fill="#FFFFFF" fill-rule="nonzero" /><path id="628" transform="matrix(1 0 0 -1 0 792)" d="M701.933 320.328L1168.591 320.328L1168.591 320.328L1168.591 374.1215L1168.591 374.1215L701.933 374.1215z" stroke="#FFFFFF" stroke-width="1" fill="#FFFFFF" fill-rule="nonzero" /><path id="728" transform="matrix(1 0 0 -1 0 792)" d="M718.869 306.587L1168.586 306.587L1168.586 306.587L1168.586 319.7325L1168.586 319.7325L718.869 319.7325z" stroke="#FFFFFF" stroke-width="1" fill="#FFFFFF" fill-rule="nonzero" /><path id="753" transform="matrix(1 0 0 -1 0 792)" d="M701.933 293.038L1000.144 293.038L1000.144 293.038L1000.144 306.1835L1000.144 306.1835L701.933 306.1835z" stroke="#FFFFFF" stroke-width="1" fill="#FFFFFF" fill-rule="nonzero" /><path id="774" transform="matrix(1 0 0 -1 0 792)" d="M718.869 279.297L1168.585 279.297L1168.585 279.297L1168.585 292.4425L1168.585 292.4425L718.869 292.4425z" stroke="#FFFFFF" stroke-width="1" fill="#FFFFFF" fill-rule="nonzero" /><path id="806" transform="matrix(1 0 0 -1 0 792)" d="M701.933 225.1L1168.591 225.1L1168.591 225.1L1168.591 278.8935L1168.591 278.8935L701.933 278.8935z" stroke="#FFFFFF" stroke-width="1" fill="#FFFFFF" fill-rule="nonzero" /><path id="931" transform="matrix(1 0 0 -1 0 792)" d="M718.869 211.359L1168.586 211.359L1168.586 211.359L1168.586 224.5045L1168.586 224.5045L718.869 224.5045z" stroke="#FFFFFF" stroke-width="1" fill="#FFFFFF" fill-rule="nonzero" /><path id="966" transform="matrix(1 0 0 -1 0 792)" d="M701.933 184.26L1168.587 184.26L1168.587 184.26L1168.587 210.9554L1168.587 210.9554L701.933 210.9554z" stroke="#FFFFFF" stroke-width="1" fill="#FFFFFF" fill-rule="nonzero" /><path id="1019" transform="matrix(1 0 0 -1 0 792)" d="M701.933 152.208L966.047 152.208L966.047 152.208L966.047 167.7617L966.047 167.7617L701.933 167.7617z" stroke="#FFFFFF" stroke-width="1" fill="#FFFFFF" fill-rule="nonzero" /><path id="1035" transform="matrix(1 0 0 -1 0 792)" d="M701.933 64.1796L1168.591 64.1796L1168.591 64.1796L1168.591 145.071L1168.591 145.071L701.933 145.071z" stroke="#FFFFFF" stroke-width="1" fill="#FFFFFF" fill-rule="nonzero" /><path id="1275" transform="matrix(1 0 0 -1 0 792)" d="M89.933 721.28L556.588 721.28" stroke="#000000" stroke-width="0.498" fill="none" /><path id="1397" transform="matrix(1 0 0 -1 0 792)" d="M130.795 659.835L515.726 659.835" stroke="#000000" stroke-width="0.398" fill="none" /><path id="1398" transform="matrix(1 0 0 -1 0 792)" d="M130.795 659.835L515.726 659.835" stroke="#000000" stroke-width="0.398" fill="none" /><path id="1399" transform="matrix(1 0 0 -1 0 792)" d="M130.994 646.069L130.994 659.636" stroke="#000000" stroke-width="0.398" fill="none" /><path id="1400" transform="matrix(1 0 0 -1 0 792)" d="M131.193 646.069L459.948 646.069L459.948 659.636L131.193 659.636z" stroke="none" fill="#CCCCEB" fill-rule="nonzero" /><path id="1410" transform="matrix(1 0 0 -1 0 792)" d="M460.147 646.069L460.147 659.636" stroke="#000000" stroke-width="0.398" fill="none" /><path id="1411" transform="matrix(1 0 0 -1 0 792)" d="M460.347 646.069L515.327 646.069L515.327 659.636L460.347 659.636z" stroke="none" fill="#CCCCEB" fill-rule="nonzero" /><path id="1418" transform="matrix(1 0 0 -1 0 792)" d="M515.526 646.069L515.526 659.636" stroke="#000000" stroke-width="0.398" fill="none" /><path id="1419" transform="matrix(1 0 0 -1 0 792)" d="M130.795 645.87L515.726 645.87" stroke="#000000" stroke-width="0.398" fill="none" /><path id="1420" transform="matrix(1 0 0 -1 0 792)" d="M130.795 645.87L515.726 645.87" stroke="#000000" stroke-width="0.398" fill="none" /><path id="1421" transform="matrix(1 0 0 -1 0 792)" d="M130.795 645.471L515.726 645.471" stroke="#000000" stroke-width="0.398" fill="none" /><path id="1422" transform="matrix(1 0 0 -1 0 792)" d="M130.795 645.471L515.726 645.471" stroke="#000000" stroke-width="0.398" fill="none" /><path id="1423" transform="matrix(1 0 0 -1 0 792)" d="M130.994 631.705L130.994 645.272" stroke="#000000" stroke-width="0.398" fill="none" /><path id="1448" transform="matrix(1 0 0 -1 0 792)" d="M460.147 631.705L460.147 645.272" stroke="#000000" stroke-width="0.398" fill="none" /><path id="1450" transform="matrix(1 0 0 -1 0 792)" d="M515.526 631.705L515.526 645.272" stroke="#000000" stroke-width="0.398" fill="none" /><path id="1451" transform="matrix(1 0 0 -1 0 792)" d="M130.795 631.506L515.726 631.506" stroke="#000000" stroke-width="0.398" fill="none" /><path id="1452" transform="matrix(1 0 0 -1 0 792)" d="M130.795 631.506L515.726 631.506" stroke="#000000" stroke-width="0.398" fill="none" /><path id="1453" transform="matrix(1 0 0 -1 0 792)" d="M130.994 604.208L130.994 631.306" stroke="#000000" stroke-width="0.398" fill="none" /><path id="1534" transform="matrix(1 0 0 -1 0 792)" d="M460.147 604.208L460.147 631.306" stroke="#000000" stroke-width="0.398" fill="none" /><path id="1537" transform="matrix(1 0 0 -1 0 792)" d="M515.526 604.208L515.526 631.306" stroke="#000000" stroke-width="0.398" fill="none" /><path id="1538" transform="matrix(1 0 0 -1 0 792)" d="M130.795 604.009L515.726 604.009" stroke="#000000" stroke-width="0.398" fill="none" /><path id="1539" transform="matrix(1 0 0 -1 0 792)" d="M130.795 604.009L515.726 604.009" stroke="#000000" stroke-width="0.398" fill="none" /><path id="1540" transform="matrix(1 0 0 -1 0 792)" d="M130.994 576.711L130.994 603.809" stroke="#000000" stroke-width="0.398" fill="none" /><path id="1598" transform="matrix(1 0 0 -1 0 792)" d="M460.147 576.711L460.147 603.809" stroke="#000000" stroke-width="0.398" fill="none" /><path id="1600" transform="matrix(1 0 0 -1 0 792)" d="M515.526 576.711L515.526 603.809" stroke="#000000" stroke-width="0.398" fill="none" /><path id="1601" transform="matrix(1 0 0 -1 0 792)" d="M130.795 576.512L515.726 576.512" stroke="#000000" stroke-width="0.398" fill="none" /><path id="1602" transform="matrix(1 0 0 -1 0 792)" d="M130.795 576.512L515.726 576.512" stroke="#000000" stroke-width="0.398" fill="none" /></g></g></svg>