<svg xmlns="http://www.w3.org/2000/svg" xmlns:xlink="http://www.w3.org/1999/xlink" id="body_40" preserveAspectRatio="xMinYMin meet" viewBox="0 0 1632 1056"><defs><clipPath id="1"><path id="" clip-rule="evenodd" transform="matrix(1 0 0 1 0 0)" d="M0 792L0 0L0 0L1224 0L1224 0L1224 792L1224 792L0 792z" /></clipPath></defs><g transform="matrix(1.333333 0 0 1.333333 0 0)"><g clip-path="url(#1)"><path id="1" transform="matrix(1 0 0 -1 0 792)" d="M666.067 721.28L1132.722 721.28" stroke="#000000" stroke-width="0.498" fill="none" /><path id="2" transform="matrix(1 0 0 -1 0 792)" d="M1079.159 496.174L1082.148 496.174" stroke="#000000" stroke-width="0.398" fill="none" /><path id="205" transform="matrix(1 0 0 -1 0 792)" d="M1123.756 175.838L1126.745 175.838" stroke="#000000" stroke-width="0.398" fill="none" /><path id="206" transform="matrix(1 0 0 -1 0 792)" d="M738.396 162.289L741.385 162.289" stroke="#000000" stroke-width="0.398" fill="none" /><path id="207" transform="matrix(1 0 0 -1 0 792)" d="M873.327 162.289L876.316 162.289" stroke="#000000" stroke-width="0.398" fill="none" /><path id="208" transform="matrix(1 0 0 -1 0 792)" d="M870.165 148.74L873.154 148.74" stroke="#000000" stroke-width="0.398" fill="none" /><path id="209" transform="matrix(1 0 0 -1 0 792)" d="M885.707 148.74L888.696 148.74" stroke="#000000" stroke-width="0.398" fill="none" /><path id="210" transform="matrix(1 0 0 -1 0 792)" d="M666.067 722.529L1132.724 722.529L1132.724 722.529L1132.724 735.6745L1132.724 735.6745L666.067 735.6745z" stroke="#FFFFFF" stroke-width="1" fill="#FFFFFF" fill-rule="nonzero" /><path id="224" transform="matrix(1 0 0 -1 0 792)" d="M683.004 682.599L1132.722 682.599L1132.722 682.599L1132.722 695.7445L1132.722 695.7445L683.004 695.7445z" stroke="#FFFFFF" stroke-width="1" fill="#FFFFFF" fill-rule="nonzero" /><path id="283" transform="matrix(1 0 0 -1 0 792)" d="M666.067 655.5L1132.725 655.5L1132.725 655.5L1132.725 682.1955L1132.725 682.1955L666.067 682.1955z" stroke="#FFFFFF" stroke-width="1" fill="#FFFFFF" fill-rule="nonzero" /><path id="359" transform="matrix(1 0 0 -1 0 792)" d="M683.004 641.619L1132.722 641.619L1132.722 641.619L1132.722 655.0962L1132.722 655.0962L683.004 655.0962z" stroke="#FFFFFF" stroke-width="1" fill="#FFFFFF" fill-rule="nonzero" /><path id="409" transform="matrix(1 0 0 -1 0 792)" d="M666.067 614.853L1132.722 614.853L1132.722 614.853L1132.722 641.5475L1132.722 641.5475L666.067 641.5475z" stroke="#FFFFFF" stroke-width="1" fill="#FFFFFF" fill-rule="nonzero" /><path id="454" transform="matrix(1 0 0 -1 0 792)" d="M683.004 601.303L1132.721 601.303L1132.721 601.303L1132.721 614.4485L1132.721 614.4485L683.004 614.4485z" stroke="#FFFFFF" stroke-width="1" fill="#FFFFFF" fill-rule="nonzero" /><path id="490" transform="matrix(1 0 0 -1 0 792)" d="M666.067 574.204L1132.725 574.204L1132.725 574.204L1132.725 600.8985L1132.725 600.8985L666.067 600.8985z" stroke="#FFFFFF" stroke-width="1" fill="#FFFFFF" fill-rule="nonzero" /><path id="543" transform="matrix(1 0 0 -1 0 792)" d="M683.004 560.656L1132.723 560.656L1132.723 560.656L1132.723 573.8015L1132.723 573.8015L683.004 573.8015z" stroke="#FFFFFF" stroke-width="1" fill="#FFFFFF" fill-rule="nonzero" /><path id="582" transform="matrix(1 0 0 -1 0 792)" d="M666.067 547.106L1123.559 547.106L1123.559 547.106L1123.559 560.2515L1123.559 560.2515L666.067 560.2515z" stroke="#FFFFFF" stroke-width="1" fill="#FFFFFF" fill-rule="nonzero" /><path id="620" transform="matrix(1 0 0 -1 0 792)" d="M683.004 533.558L1132.727 533.558L1132.727 533.558L1132.727 546.7035L1132.727 546.7035L683.004 546.7035z" stroke="#FFFFFF" stroke-width="1" fill="#FFFFFF" fill-rule="nonzero" /><path id="665" transform="matrix(1 0 0 -1 0 792)" d="M666.067 506.458L1132.725 506.458L1132.725 506.458L1132.725 533.1525L1132.725 533.1525L666.067 533.1525z" stroke="#FFFFFF" stroke-width="1" fill="#FFFFFF" fill-rule="nonzero" /><path id="718" transform="matrix(1 0 0 -1 0 792)" d="M683.004 479.361L1126.718 479.361L1126.718 479.361L1126.718 506.0555L1126.718 506.0555L683.004 506.0555z" stroke="#FFFFFF" stroke-width="1" fill="#FFFFFF" fill-rule="nonzero" /><path id="796" transform="matrix(1 0 0 -1 0 792)" d="M683.004 426.779L1132.727 426.779L1132.727 426.779L1132.727 439.9245L1132.727 439.9245L683.004 439.9245z" stroke="#FFFFFF" stroke-width="1" fill="#FFFFFF" fill-rule="nonzero" /><path id="845" transform="matrix(1 0 0 -1 0 792)" d="M666.067 359.033L1132.725 359.033L1132.725 359.033L1132.725 426.3755L1132.725 426.3755L666.067 426.3755z" stroke="#FFFFFF" stroke-width="1" fill="#FFFFFF" fill-rule="nonzero" /><path id="1010" transform="matrix(1 0 0 -1 0 792)" d="M683.004 292.901L1132.723 292.901L1132.723 292.901L1132.723 306.0465L1132.723 306.0465L683.004 306.0465z" stroke="#FFFFFF" stroke-width="1" fill="#FFFFFF" fill-rule="nonzero" /><path id="1046" transform="matrix(1 0 0 -1 0 792)" d="M666.067 265.802L1132.718 265.802L1132.718 265.802L1132.718 292.4965L1132.718 292.4965L666.067 292.4965z" stroke="#FFFFFF" stroke-width="1" fill="#FFFFFF" fill-rule="nonzero" /><path id="1104" transform="matrix(1 0 0 -1 0 792)" d="M683.004 199.672L1132.72 199.672L1132.72 199.672L1132.72 212.8175L1132.72 212.8175L683.004 212.8175z" stroke="#FFFFFF" stroke-width="1" fill="#FFFFFF" fill-rule="nonzero" /><path id="1133" transform="matrix(1 0 0 -1 0 792)" d="M666.067 118.377L1132.724 118.377L1132.724 118.377L1132.724 199.2684L1132.724 199.2684L666.067 199.2684z" stroke="#FFFFFF" stroke-width="1" fill="#FFFFFF" fill-rule="nonzero" /><path id="1377" transform="matrix(1 0 0 -1 0 792)" d="M683.004 104.828L1132.721 104.828L1132.721 104.828L1132.721 117.9735L1132.721 117.9735L683.004 117.9735z" stroke="#FFFFFF" stroke-width="1" fill="#FFFFFF" fill-rule="nonzero" /><path id="1410" transform="matrix(1 0 0 -1 0 792)" d="M666.067 63.8478L1132.725 63.8478L1132.725 63.8478L1132.725 104.4231L1132.725 104.4231L666.067 104.4231z" stroke="#FFFFFF" stroke-width="1" fill="#FFFFFF" fill-rule="nonzero" /><path id="1591" transform="matrix(1 0 0 -1 0 792)" d="M54.067 721.28L520.722 721.28" stroke="#000000" stroke-width="0.498" fill="none" /><path id="2694" transform="matrix(1 0 0 -1 0 792)" d="M467.159 496.174L470.148 496.174" stroke="#000000" stroke-width="0.398" fill="none" /><path id="3876" transform="matrix(1 0 0 -1 0 792)" d="M511.756 175.838L514.745 175.838" stroke="#000000" stroke-width="0.398" fill="none" /><path id="3890" transform="matrix(1 0 0 -1 0 792)" d="M126.396 162.289L129.385 162.289" stroke="#000000" stroke-width="0.398" fill="none" /><path id="3914" transform="matrix(1 0 0 -1 0 792)" d="M261.327 162.289L264.316 162.289" stroke="#000000" stroke-width="0.398" fill="none" /><path id="3998" transform="matrix(1 0 0 -1 0 792)" d="M258.165 148.74L261.154 148.74" stroke="#000000" stroke-width="0.398" fill="none" /><path id="4001" transform="matrix(1 0 0 -1 0 792)" d="M273.707 148.74L276.696 148.74" stroke="#000000" stroke-width="0.398" fill="none" /></g></g></svg>