<svg xmlns="http://www.w3.org/2000/svg" xmlns:xlink="http://www.w3.org/1999/xlink" id="body_56" preserveAspectRatio="xMinYMin meet" viewBox="0 0 1632 1056"><defs><clipPath id="1"><path id="" clip-rule="evenodd" transform="matrix(1 0 0 1 0 0)" d="M0 792L0 0L0 0L1224 0L1224 0L1224 792L1224 792L0 792z" /></clipPath></defs><g transform="matrix(1.333333 0 0 1.333333 0 0)"><g clip-path="url(#1)"><path id="1" transform="matrix(1 0 0 -1 0 792)" d="M666.067 721.28L1132.722 721.28" stroke="#000000" stroke-width="0.498" fill="none" /><path id="2" transform="matrix(1 0 0 -1 0 792)" d="M729.338 645.054L1069.451 645.054" stroke="#000000" stroke-width="0.398" fill="none" /><path id="3" transform="matrix(1 0 0 -1 0 792)" d="M729.537 631.288L729.537 644.855" stroke="#000000" stroke-width="0.398" fill="none" /><path id="4" transform="matrix(1 0 0 -1 0 792)" d="M729.737 631.288L921.692 631.288L921.692 644.855L729.737 644.855z" stroke="none" fill="#CCCCEB" fill-rule="nonzero" /><path id="10" transform="matrix(1 0 0 -1 0 792)" d="M921.891 631.288L921.891 644.855" stroke="#000000" stroke-width="0.398" fill="none" /><path id="11" transform="matrix(1 0 0 -1 0 792)" d="M922.09 631.288L980.714 631.288L980.714 644.855L922.09 644.855z" stroke="none" fill="#CCCCEB" fill-rule="nonzero" /><path id="21" transform="matrix(1 0 0 -1 0 792)" d="M980.913 631.288L980.913 644.855" stroke="#000000" stroke-width="0.398" fill="none" /><path id="22" transform="matrix(1 0 0 -1 0 792)" d="M981.112 631.288L1039.736 631.288L1039.736 644.855L981.112 644.855z" stroke="none" fill="#CCCCEB" fill-rule="nonzero" /><path id="30" transform="matrix(1 0 0 -1 0 792)" d="M1039.935 631.288L1039.935 644.855" stroke="#000000" stroke-width="0.398" fill="none" /><path id="31" transform="matrix(1 0 0 -1 0 792)" d="M1040.134 631.288L1069.053 631.288L1069.053 644.855L1040.134 644.855z" stroke="none" fill="#CCCCEB" fill-rule="nonzero" /><path id="35" transform="matrix(1 0 0 -1 0 792)" d="M1069.252 631.288L1069.252 644.855" stroke="#000000" stroke-width="0.398" fill="none" /><path id="36" transform="matrix(1 0 0 -1 0 792)" d="M729.537 617.721L729.537 631.288" stroke="#000000" stroke-width="0.398" fill="none" /><path id="37" transform="matrix(1 0 0 -1 0 792)" d="M729.737 617.721L921.692 617.721L921.692 631.288L729.737 631.288z" stroke="none" fill="#CCCCEB" fill-rule="nonzero" /><path id="38" transform="matrix(1 0 0 -1 0 792)" d="M921.891 617.721L921.891 631.288" stroke="#000000" stroke-width="0.398" fill="none" /><path id="39" transform="matrix(1 0 0 -1 0 792)" d="M922.09 617.721L980.714 617.721L980.714 631.288L922.09 631.288z" stroke="none" fill="#CCCCEB" fill-rule="nonzero" /><path id="40" transform="matrix(1 0 0 -1 0 792)" d="M980.913 617.721L980.913 631.288" stroke="#000000" stroke-width="0.398" fill="none" /><path id="41" transform="matrix(1 0 0 -1 0 792)" d="M981.112 617.721L1039.736 617.721L1039.736 631.288L981.112 631.288z" stroke="none" fill="#CCCCEB" fill-rule="nonzero" /><path id="47" transform="matrix(1 0 0 -1 0 792)" d="M1039.935 617.721L1039.935 631.288" stroke="#000000" stroke-width="0.398" fill="none" /><path id="48" transform="matrix(1 0 0 -1 0 792)" d="M1040.134 617.721L1069.053 617.721L1069.053 631.288L1040.134 631.288z" stroke="none" fill="#CCCCEB" fill-rule="nonzero" /><path id="49" transform="matrix(1 0 0 -1 0 792)" d="M1069.252 617.721L1069.252 631.288" stroke="#000000" stroke-width="0.398" fill="none" /><path id="50" transform="matrix(1 0 0 -1 0 792)" d="M729.338 617.522L1069.451 617.522" stroke="#000000" stroke-width="0.398" fill="none" /><path id="51" transform="matrix(1 0 0 -1 0 792)" d="M729.338 615.131L1069.451 615.131" stroke="#000000" stroke-width="0.398" fill="none" /><path id="52" transform="matrix(1 0 0 -1 0 792)" d="M729.537 601.365L729.537 614.932" stroke="#000000" stroke-width="0.398" fill="none" /><path id="59" transform="matrix(1 0 0 -1 0 792)" d="M772.177 605.647L775.166 605.647" stroke="#000000" stroke-width="0.398" fill="none" /><path id="66" transform="matrix(1 0 0 -1 0 792)" d="M811.629 605.647L814.618 605.647" stroke="#000000" stroke-width="0.398" fill="none" /><path id="74" transform="matrix(1 0 0 -1 0 792)" d="M921.891 601.365L921.891 614.932" stroke="#000000" stroke-width="0.398" fill="none" /><path id="76" transform="matrix(1 0 0 -1 0 792)" d="M980.913 601.365L980.913 614.932" stroke="#000000" stroke-width="0.398" fill="none" /><path id="78" transform="matrix(1 0 0 -1 0 792)" d="M1039.935 601.365L1039.935 614.932" stroke="#000000" stroke-width="0.398" fill="none" /><path id="80" transform="matrix(1 0 0 -1 0 792)" d="M1069.252 601.365L1069.252 614.932" stroke="#000000" stroke-width="0.398" fill="none" /><path id="81" transform="matrix(1 0 0 -1 0 792)" d="M729.338 601.166L1069.451 601.166" stroke="#000000" stroke-width="0.398" fill="none" /><path id="82" transform="matrix(1 0 0 -1 0 792)" d="M729.537 587.4L729.537 600.967" stroke="#000000" stroke-width="0.398" fill="none" /><path id="89" transform="matrix(1 0 0 -1 0 792)" d="M772.177 591.681L775.166 591.681" stroke="#000000" stroke-width="0.398" fill="none" /><path id="95" transform="matrix(1 0 0 -1 0 792)" d="M921.891 587.4L921.891 600.967" stroke="#000000" stroke-width="0.398" fill="none" /><path id="97" transform="matrix(1 0 0 -1 0 792)" d="M980.913 587.4L980.913 600.967" stroke="#000000" stroke-width="0.398" fill="none" /><path id="99" transform="matrix(1 0 0 -1 0 792)" d="M1039.935 587.4L1039.935 600.967" stroke="#000000" stroke-width="0.398" fill="none" /><path id="101" transform="matrix(1 0 0 -1 0 792)" d="M1069.252 587.4L1069.252 600.967" stroke="#000000" stroke-width="0.398" fill="none" /><path id="102" transform="matrix(1 0 0 -1 0 792)" d="M729.338 587.201L1069.451 587.201" stroke="#000000" stroke-width="0.398" fill="none" /><path id="103" transform="matrix(1 0 0 -1 0 792)" d="M729.537 573.435L729.537 587.002" stroke="#000000" stroke-width="0.398" fill="none" /><path id="110" transform="matrix(1 0 0 -1 0 792)" d="M772.177 577.716L775.166 577.716" stroke="#000000" stroke-width="0.398" fill="none" /><path id="116" transform="matrix(1 0 0 -1 0 792)" d="M805.652 577.716L808.641 577.716" stroke="#000000" stroke-width="0.398" fill="none" /><path id="121" transform="matrix(1 0 0 -1 0 792)" d="M921.891 573.435L921.891 587.002" stroke="#000000" stroke-width="0.398" fill="none" /><path id="123" transform="matrix(1 0 0 -1 0 792)" d="M980.913 573.435L980.913 587.002" stroke="#000000" stroke-width="0.398" fill="none" /><path id="125" transform="matrix(1 0 0 -1 0 792)" d="M1039.935 573.435L1039.935 587.002" stroke="#000000" stroke-width="0.398" fill="none" /><path id="127" transform="matrix(1 0 0 -1 0 792)" d="M1069.252 573.435L1069.252 587.002" stroke="#000000" stroke-width="0.398" fill="none" /><path id="128" transform="matrix(1 0 0 -1 0 792)" d="M729.338 573.235L1069.451 573.235" stroke="#000000" stroke-width="0.398" fill="none" /><path id="129" transform="matrix(1 0 0 -1 0 792)" d="M729.537 559.47L729.537 573.037" stroke="#000000" stroke-width="0.398" fill="none" /><path id="136" transform="matrix(1 0 0 -1 0 792)" d="M772.177 563.751L775.166 563.751" stroke="#000000" stroke-width="0.398" fill="none" /><path id="142" transform="matrix(1 0 0 -1 0 792)" d="M805.652 563.751L808.641 563.751" stroke="#000000" stroke-width="0.398" fill="none" /><path id="149" transform="matrix(1 0 0 -1 0 792)" d="M921.891 559.47L921.891 573.037" stroke="#000000" stroke-width="0.398" fill="none" /><path id="151" transform="matrix(1 0 0 -1 0 792)" d="M980.913 559.47L980.913 573.037" stroke="#000000" stroke-width="0.398" fill="none" /><path id="153" transform="matrix(1 0 0 -1 0 792)" d="M1039.935 559.47L1039.935 573.037" stroke="#000000" stroke-width="0.398" fill="none" /><path id="155" transform="matrix(1 0 0 -1 0 792)" d="M1069.252 559.47L1069.252 573.037" stroke="#000000" stroke-width="0.398" fill="none" /><path id="156" transform="matrix(1 0 0 -1 0 792)" d="M729.338 559.27L1069.451 559.27" stroke="#000000" stroke-width="0.398" fill="none" /><path id="157" transform="matrix(1 0 0 -1 0 792)" d="M729.537 545.504L729.537 559.071" stroke="#000000" stroke-width="0.398" fill="none" /><path id="164" transform="matrix(1 0 0 -1 0 792)" d="M772.177 549.786L775.166 549.786" stroke="#000000" stroke-width="0.398" fill="none" /><path id="170" transform="matrix(1 0 0 -1 0 792)" d="M805.652 549.786L808.641 549.786" stroke="#000000" stroke-width="0.398" fill="none" /><path id="175" transform="matrix(1 0 0 -1 0 792)" d="M921.891 545.504L921.891 559.071" stroke="#000000" stroke-width="0.398" fill="none" /><path id="177" transform="matrix(1 0 0 -1 0 792)" d="M980.913 545.504L980.913 559.071" stroke="#000000" stroke-width="0.398" fill="none" /><path id="179" transform="matrix(1 0 0 -1 0 792)" d="M1039.935 545.504L1039.935 559.071" stroke="#000000" stroke-width="0.398" fill="none" /><path id="181" transform="matrix(1 0 0 -1 0 792)" d="M1069.252 545.504L1069.252 559.071" stroke="#000000" stroke-width="0.398" fill="none" /><path id="182" transform="matrix(1 0 0 -1 0 792)" d="M729.338 545.305L1069.451 545.305" stroke="#000000" stroke-width="0.398" fill="none" /><path id="183" transform="matrix(1 0 0 -1 0 792)" d="M729.537 531.539L729.537 545.106" stroke="#000000" stroke-width="0.398" fill="none" /><path id="190" transform="matrix(1 0 0 -1 0 792)" d="M772.177 535.821L775.166 535.821" stroke="#000000" stroke-width="0.398" fill="none" /><path id="196" transform="matrix(1 0 0 -1 0 792)" d="M805.652 535.821L808.641 535.821" stroke="#000000" stroke-width="0.398" fill="none" /><path id="204" transform="matrix(1 0 0 -1 0 792)" d="M921.891 531.539L921.891 545.106" stroke="#000000" stroke-width="0.398" fill="none" /><path id="206" transform="matrix(1 0 0 -1 0 792)" d="M980.913 531.539L980.913 545.106" stroke="#000000" stroke-width="0.398" fill="none" /><path id="208" transform="matrix(1 0 0 -1 0 792)" d="M1039.935 531.539L1039.935 545.106" stroke="#000000" stroke-width="0.398" fill="none" /><path id="210" transform="matrix(1 0 0 -1 0 792)" d="M1069.252 531.539L1069.252 545.106" stroke="#000000" stroke-width="0.398" fill="none" /><path id="211" transform="matrix(1 0 0 -1 0 792)" d="M729.338 531.34L1069.451 531.34" stroke="#000000" stroke-width="0.398" fill="none" /><path id="212" transform="matrix(1 0 0 -1 0 792)" d="M729.537 517.574L729.537 531.141" stroke="#000000" stroke-width="0.398" fill="none" /><path id="219" transform="matrix(1 0 0 -1 0 792)" d="M772.177 521.856L775.166 521.856" stroke="#000000" stroke-width="0.398" fill="none" /><path id="225" transform="matrix(1 0 0 -1 0 792)" d="M921.891 517.574L921.891 531.141" stroke="#000000" stroke-width="0.398" fill="none" /><path id="227" transform="matrix(1 0 0 -1 0 792)" d="M980.913 517.574L980.913 531.141" stroke="#000000" stroke-width="0.398" fill="none" /><path id="229" transform="matrix(1 0 0 -1 0 792)" d="M1039.935 517.574L1039.935 531.141" stroke="#000000" stroke-width="0.398" fill="none" /><path id="231" transform="matrix(1 0 0 -1 0 792)" d="M1069.252 517.574L1069.252 531.141" stroke="#000000" stroke-width="0.398" fill="none" /><path id="232" transform="matrix(1 0 0 -1 0 792)" d="M729.338 517.375L1069.451 517.375" stroke="#000000" stroke-width="0.398" fill="none" /><path id="233" transform="matrix(1 0 0 -1 0 792)" d="M729.537 503.609L729.537 517.176" stroke="#000000" stroke-width="0.398" fill="none" /><path id="240" transform="matrix(1 0 0 -1 0 792)" d="M772.177 507.89L775.166 507.89" stroke="#000000" stroke-width="0.398" fill="none" /><path id="246" transform="matrix(1 0 0 -1 0 792)" d="M805.652 507.89L808.641 507.89" stroke="#000000" stroke-width="0.398" fill="none" /><path id="253" transform="matrix(1 0 0 -1 0 792)" d="M921.891 503.609L921.891 517.176" stroke="#000000" stroke-width="0.398" fill="none" /><path id="255" transform="matrix(1 0 0 -1 0 792)" d="M980.913 503.609L980.913 517.176" stroke="#000000" stroke-width="0.398" fill="none" /><path id="257" transform="matrix(1 0 0 -1 0 792)" d="M1039.935 503.609L1039.935 517.176" stroke="#000000" stroke-width="0.398" fill="none" /><path id="259" transform="matrix(1 0 0 -1 0 792)" d="M1069.252 503.609L1069.252 517.176" stroke="#000000" stroke-width="0.398" fill="none" /><path id="260" transform="matrix(1 0 0 -1 0 792)" d="M729.338 503.41L1069.451 503.41" stroke="#000000" stroke-width="0.398" fill="none" /><path id="261" transform="matrix(1 0 0 -1 0 792)" d="M729.537 489.644L729.537 503.211" stroke="#000000" stroke-width="0.398" fill="none" /><path id="268" transform="matrix(1 0 0 -1 0 792)" d="M772.177 493.925L775.166 493.925" stroke="#000000" stroke-width="0.398" fill="none" /><path id="274" transform="matrix(1 0 0 -1 0 792)" d="M805.652 493.925L808.641 493.925" stroke="#000000" stroke-width="0.398" fill="none" /><path id="279" transform="matrix(1 0 0 -1 0 792)" d="M921.891 489.644L921.891 503.211" stroke="#000000" stroke-width="0.398" fill="none" /><path id="281" transform="matrix(1 0 0 -1 0 792)" d="M980.913 489.644L980.913 503.211" stroke="#000000" stroke-width="0.398" fill="none" /><path id="283" transform="matrix(1 0 0 -1 0 792)" d="M1039.935 489.644L1039.935 503.211" stroke="#000000" stroke-width="0.398" fill="none" /><path id="285" transform="matrix(1 0 0 -1 0 792)" d="M1069.252 489.644L1069.252 503.211" stroke="#000000" stroke-width="0.398" fill="none" /><path id="286" transform="matrix(1 0 0 -1 0 792)" d="M729.338 489.445L1069.451 489.445" stroke="#000000" stroke-width="0.398" fill="none" /><path id="287" transform="matrix(1 0 0 -1 0 792)" d="M729.537 475.679L729.537 489.246" stroke="#000000" stroke-width="0.398" fill="none" /><path id="294" transform="matrix(1 0 0 -1 0 792)" d="M772.177 479.96L775.166 479.96" stroke="#000000" stroke-width="0.398" fill="none" /><path id="300" transform="matrix(1 0 0 -1 0 792)" d="M805.652 479.96L808.641 479.96" stroke="#000000" stroke-width="0.398" fill="none" /><path id="308" transform="matrix(1 0 0 -1 0 792)" d="M921.891 475.679L921.891 489.246" stroke="#000000" stroke-width="0.398" fill="none" /><path id="310" transform="matrix(1 0 0 -1 0 792)" d="M980.913 475.679L980.913 489.246" stroke="#000000" stroke-width="0.398" fill="none" /><path id="312" transform="matrix(1 0 0 -1 0 792)" d="M1039.935 475.679L1039.935 489.246" stroke="#000000" stroke-width="0.398" fill="none" /><path id="314" transform="matrix(1 0 0 -1 0 792)" d="M1069.252 475.679L1069.252 489.246" stroke="#000000" stroke-width="0.398" fill="none" /><path id="315" transform="matrix(1 0 0 -1 0 792)" d="M729.338 475.479L1069.451 475.479" stroke="#000000" stroke-width="0.398" fill="none" /><path id="316" transform="matrix(1 0 0 -1 0 792)" d="M729.537 461.714L729.537 475.281" stroke="#000000" stroke-width="0.398" fill="none" /><path id="320" transform="matrix(1 0 0 -1 0 792)" d="M754.245 465.995L757.234 465.995" stroke="#000000" stroke-width="0.398" fill="none" /><path id="326" transform="matrix(1 0 0 -1 0 792)" d="M787.719 465.995L790.708 465.995" stroke="#000000" stroke-width="0.398" fill="none" /><path id="332" transform="matrix(1 0 0 -1 0 792)" d="M921.891 461.714L921.891 475.281" stroke="#000000" stroke-width="0.398" fill="none" /><path id="334" transform="matrix(1 0 0 -1 0 792)" d="M980.913 461.714L980.913 475.281" stroke="#000000" stroke-width="0.398" fill="none" /><path id="336" transform="matrix(1 0 0 -1 0 792)" d="M1039.935 461.714L1039.935 475.281" stroke="#000000" stroke-width="0.398" fill="none" /><path id="338" transform="matrix(1 0 0 -1 0 792)" d="M1069.252 461.714L1069.252 475.281" stroke="#000000" stroke-width="0.398" fill="none" /><path id="339" transform="matrix(1 0 0 -1 0 792)" d="M729.338 461.514L1069.451 461.514" stroke="#000000" stroke-width="0.398" fill="none" /><path id="340" transform="matrix(1 0 0 -1 0 792)" d="M729.537 447.748L729.537 461.315" stroke="#000000" stroke-width="0.398" fill="none" /><path id="344" transform="matrix(1 0 0 -1 0 792)" d="M754.245 452.03L757.234 452.03" stroke="#000000" stroke-width="0.398" fill="none" /><path id="350" transform="matrix(1 0 0 -1 0 792)" d="M787.719 452.03L790.708 452.03" stroke="#000000" stroke-width="0.398" fill="none" /><path id="356" transform="matrix(1 0 0 -1 0 792)" d="M821.194 452.03L824.183 452.03" stroke="#000000" stroke-width="0.398" fill="none" /><path id="363" transform="matrix(1 0 0 -1 0 792)" d="M921.891 447.748L921.891 461.315" stroke="#000000" stroke-width="0.398" fill="none" /><path id="365" transform="matrix(1 0 0 -1 0 792)" d="M980.913 447.748L980.913 461.315" stroke="#000000" stroke-width="0.398" fill="none" /><path id="367" transform="matrix(1 0 0 -1 0 792)" d="M1039.935 447.748L1039.935 461.315" stroke="#000000" stroke-width="0.398" fill="none" /><path id="369" transform="matrix(1 0 0 -1 0 792)" d="M1069.252 447.748L1069.252 461.315" stroke="#000000" stroke-width="0.398" fill="none" /><path id="370" transform="matrix(1 0 0 -1 0 792)" d="M729.338 447.549L1069.451 447.549" stroke="#000000" stroke-width="0.398" fill="none" /><path id="371" transform="matrix(1 0 0 -1 0 792)" d="M729.537 433.783L729.537 447.35" stroke="#000000" stroke-width="0.398" fill="none" /><path id="375" transform="matrix(1 0 0 -1 0 792)" d="M754.245 438.065L757.234 438.065" stroke="#000000" stroke-width="0.398" fill="none" /><path id="381" transform="matrix(1 0 0 -1 0 792)" d="M787.719 438.065L790.708 438.065" stroke="#000000" stroke-width="0.398" fill="none" /><path id="387" transform="matrix(1 0 0 -1 0 792)" d="M821.194 438.065L824.183 438.065" stroke="#000000" stroke-width="0.398" fill="none" /><path id="392" transform="matrix(1 0 0 -1 0 792)" d="M921.891 433.783L921.891 447.35" stroke="#000000" stroke-width="0.398" fill="none" /><path id="394" transform="matrix(1 0 0 -1 0 792)" d="M980.913 433.783L980.913 447.35" stroke="#000000" stroke-width="0.398" fill="none" /><path id="396" transform="matrix(1 0 0 -1 0 792)" d="M1039.935 433.783L1039.935 447.35" stroke="#000000" stroke-width="0.398" fill="none" /><path id="398" transform="matrix(1 0 0 -1 0 792)" d="M1069.252 433.783L1069.252 447.35" stroke="#000000" stroke-width="0.398" fill="none" /><path id="399" transform="matrix(1 0 0 -1 0 792)" d="M729.338 433.584L1069.451 433.584" stroke="#000000" stroke-width="0.398" fill="none" /><path id="400" transform="matrix(1 0 0 -1 0 792)" d="M729.537 419.818L729.537 433.385" stroke="#000000" stroke-width="0.398" fill="none" /><path id="404" transform="matrix(1 0 0 -1 0 792)" d="M754.245 424.1L757.234 424.1" stroke="#000000" stroke-width="0.398" fill="none" /><path id="410" transform="matrix(1 0 0 -1 0 792)" d="M787.719 424.1L790.708 424.1" stroke="#000000" stroke-width="0.398" fill="none" /><path id="416" transform="matrix(1 0 0 -1 0 792)" d="M821.194 424.1L824.183 424.1" stroke="#000000" stroke-width="0.398" fill="none" /><path id="424" transform="matrix(1 0 0 -1 0 792)" d="M921.891 419.818L921.891 433.385" stroke="#000000" stroke-width="0.398" fill="none" /><path id="426" transform="matrix(1 0 0 -1 0 792)" d="M980.913 419.818L980.913 433.385" stroke="#000000" stroke-width="0.398" fill="none" /><path id="428" transform="matrix(1 0 0 -1 0 792)" d="M1039.935 419.818L1039.935 433.385" stroke="#000000" stroke-width="0.398" fill="none" /><path id="430" transform="matrix(1 0 0 -1 0 792)" d="M1069.252 419.818L1069.252 433.385" stroke="#000000" stroke-width="0.398" fill="none" /><path id="431" transform="matrix(1 0 0 -1 0 792)" d="M729.338 419.619L1069.451 419.619" stroke="#000000" stroke-width="0.398" fill="none" /><path id="432" transform="matrix(1 0 0 -1 0 792)" d="M729.537 405.853L729.537 419.42" stroke="#000000" stroke-width="0.398" fill="none" /><path id="438" transform="matrix(1 0 0 -1 0 792)" d="M766.2 410.134L769.189 410.134" stroke="#000000" stroke-width="0.398" fill="none" /><path id="444" transform="matrix(1 0 0 -1 0 792)" d="M921.891 405.853L921.891 419.42" stroke="#000000" stroke-width="0.398" fill="none" /><path id="446" transform="matrix(1 0 0 -1 0 792)" d="M980.913 405.853L980.913 419.42" stroke="#000000" stroke-width="0.398" fill="none" /><path id="448" transform="matrix(1 0 0 -1 0 792)" d="M1039.935 405.853L1039.935 419.42" stroke="#000000" stroke-width="0.398" fill="none" /><path id="450" transform="matrix(1 0 0 -1 0 792)" d="M1069.252 405.853L1069.252 419.42" stroke="#000000" stroke-width="0.398" fill="none" /><path id="451" transform="matrix(1 0 0 -1 0 792)" d="M729.338 405.654L1069.451 405.654" stroke="#000000" stroke-width="0.398" fill="none" /><path id="452" transform="matrix(1 0 0 -1 0 792)" d="M729.537 391.888L729.537 405.455" stroke="#000000" stroke-width="0.398" fill="none" /><path id="458" transform="matrix(1 0 0 -1 0 792)" d="M766.2 396.169L769.189 396.169" stroke="#000000" stroke-width="0.398" fill="none" /><path id="464" transform="matrix(1 0 0 -1 0 792)" d="M799.674 396.169L802.663 396.169" stroke="#000000" stroke-width="0.398" fill="none" /><path id="469" transform="matrix(1 0 0 -1 0 792)" d="M921.891 391.888L921.891 405.455" stroke="#000000" stroke-width="0.398" fill="none" /><path id="471" transform="matrix(1 0 0 -1 0 792)" d="M980.913 391.888L980.913 405.455" stroke="#000000" stroke-width="0.398" fill="none" /><path id="473" transform="matrix(1 0 0 -1 0 792)" d="M1039.935 391.888L1039.935 405.455" stroke="#000000" stroke-width="0.398" fill="none" /><path id="475" transform="matrix(1 0 0 -1 0 792)" d="M1069.252 391.888L1069.252 405.455" stroke="#000000" stroke-width="0.398" fill="none" /><path id="476" transform="matrix(1 0 0 -1 0 792)" d="M729.338 391.689L1069.451 391.689" stroke="#000000" stroke-width="0.398" fill="none" /><path id="477" transform="matrix(1 0 0 -1 0 792)" d="M729.537 377.923L729.537 391.49" stroke="#000000" stroke-width="0.398" fill="none" /><path id="483" transform="matrix(1 0 0 -1 0 792)" d="M766.2 382.204L769.189 382.204" stroke="#000000" stroke-width="0.398" fill="none" /><path id="489" transform="matrix(1 0 0 -1 0 792)" d="M799.674 382.204L802.663 382.204" stroke="#000000" stroke-width="0.398" fill="none" /><path id="496" transform="matrix(1 0 0 -1 0 792)" d="M921.891 377.923L921.891 391.49" stroke="#000000" stroke-width="0.398" fill="none" /><path id="498" transform="matrix(1 0 0 -1 0 792)" d="M980.913 377.923L980.913 391.49" stroke="#000000" stroke-width="0.398" fill="none" /><path id="500" transform="matrix(1 0 0 -1 0 792)" d="M1039.935 377.923L1039.935 391.49" stroke="#000000" stroke-width="0.398" fill="none" /><path id="502" transform="matrix(1 0 0 -1 0 792)" d="M1069.252 377.923L1069.252 391.49" stroke="#000000" stroke-width="0.398" fill="none" /><path id="503" transform="matrix(1 0 0 -1 0 792)" d="M729.338 377.723L1069.451 377.723" stroke="#000000" stroke-width="0.398" fill="none" /><path id="504" transform="matrix(1 0 0 -1 0 792)" d="M729.537 363.957L729.537 377.524" stroke="#000000" stroke-width="0.398" fill="none" /><path id="510" transform="matrix(1 0 0 -1 0 792)" d="M766.2 368.239L769.189 368.239" stroke="#000000" stroke-width="0.398" fill="none" /><path id="516" transform="matrix(1 0 0 -1 0 792)" d="M799.674 368.239L802.663 368.239" stroke="#000000" stroke-width="0.398" fill="none" /><path id="521" transform="matrix(1 0 0 -1 0 792)" d="M921.891 363.957L921.891 377.524" stroke="#000000" stroke-width="0.398" fill="none" /><path id="523" transform="matrix(1 0 0 -1 0 792)" d="M980.913 363.957L980.913 377.524" stroke="#000000" stroke-width="0.398" fill="none" /><path id="525" transform="matrix(1 0 0 -1 0 792)" d="M1039.935 363.957L1039.935 377.524" stroke="#000000" stroke-width="0.398" fill="none" /><path id="527" transform="matrix(1 0 0 -1 0 792)" d="M1069.252 363.957L1069.252 377.524" stroke="#000000" stroke-width="0.398" fill="none" /><path id="528" transform="matrix(1 0 0 -1 0 792)" d="M729.338 363.758L1069.451 363.758" stroke="#000000" stroke-width="0.398" fill="none" /><path id="529" transform="matrix(1 0 0 -1 0 792)" d="M729.537 349.992L729.537 363.559" stroke="#000000" stroke-width="0.398" fill="none" /><path id="535" transform="matrix(1 0 0 -1 0 792)" d="M766.2 354.274L769.189 354.274" stroke="#000000" stroke-width="0.398" fill="none" /><path id="541" transform="matrix(1 0 0 -1 0 792)" d="M799.674 354.274L802.663 354.274" stroke="#000000" stroke-width="0.398" fill="none" /><path id="549" transform="matrix(1 0 0 -1 0 792)" d="M921.891 349.992L921.891 363.559" stroke="#000000" stroke-width="0.398" fill="none" /><path id="551" transform="matrix(1 0 0 -1 0 792)" d="M980.913 349.992L980.913 363.559" stroke="#000000" stroke-width="0.398" fill="none" /><path id="553" transform="matrix(1 0 0 -1 0 792)" d="M1039.935 349.992L1039.935 363.559" stroke="#000000" stroke-width="0.398" fill="none" /><path id="555" transform="matrix(1 0 0 -1 0 792)" d="M1069.252 349.992L1069.252 363.559" stroke="#000000" stroke-width="0.398" fill="none" /><path id="556" transform="matrix(1 0 0 -1 0 792)" d="M729.338 349.793L1069.451 349.793" stroke="#000000" stroke-width="0.398" fill="none" /><path id="557" transform="matrix(1 0 0 -1 0 792)" d="M729.537 336.027L729.537 349.594" stroke="#000000" stroke-width="0.398" fill="none" /><path id="567" transform="matrix(1 0 0 -1 0 792)" d="M790.11 340.309L793.099 340.309" stroke="#000000" stroke-width="0.398" fill="none" /><path id="573" transform="matrix(1 0 0 -1 0 792)" d="M823.585 340.309L826.574 340.309" stroke="#000000" stroke-width="0.398" fill="none" /><path id="579" transform="matrix(1 0 0 -1 0 792)" d="M921.891 336.027L921.891 349.594" stroke="#000000" stroke-width="0.398" fill="none" /><path id="581" transform="matrix(1 0 0 -1 0 792)" d="M980.913 336.027L980.913 349.594" stroke="#000000" stroke-width="0.398" fill="none" /><path id="583" transform="matrix(1 0 0 -1 0 792)" d="M1039.935 336.027L1039.935 349.594" stroke="#000000" stroke-width="0.398" fill="none" /><path id="585" transform="matrix(1 0 0 -1 0 792)" d="M1069.252 336.027L1069.252 349.594" stroke="#000000" stroke-width="0.398" fill="none" /><path id="586" transform="matrix(1 0 0 -1 0 792)" d="M729.338 335.828L1069.451 335.828" stroke="#000000" stroke-width="0.398" fill="none" /><path id="587" transform="matrix(1 0 0 -1 0 792)" d="M729.537 322.062L729.537 335.629" stroke="#000000" stroke-width="0.398" fill="none" /><path id="597" transform="matrix(1 0 0 -1 0 792)" d="M790.11 326.344L793.099 326.344" stroke="#000000" stroke-width="0.398" fill="none" /><path id="603" transform="matrix(1 0 0 -1 0 792)" d="M823.585 326.344L826.574 326.344" stroke="#000000" stroke-width="0.398" fill="none" /><path id="609" transform="matrix(1 0 0 -1 0 792)" d="M857.059 326.344L860.048 326.344" stroke="#000000" stroke-width="0.398" fill="none" /><path id="614" transform="matrix(1 0 0 -1 0 792)" d="M921.891 322.062L921.891 335.629" stroke="#000000" stroke-width="0.398" fill="none" /><path id="616" transform="matrix(1 0 0 -1 0 792)" d="M980.913 322.062L980.913 335.629" stroke="#000000" stroke-width="0.398" fill="none" /><path id="618" transform="matrix(1 0 0 -1 0 792)" d="M1039.935 322.062L1039.935 335.629" stroke="#000000" stroke-width="0.398" fill="none" /><path id="620" transform="matrix(1 0 0 -1 0 792)" d="M1069.252 322.062L1069.252 335.629" stroke="#000000" stroke-width="0.398" fill="none" /><path id="621" transform="matrix(1 0 0 -1 0 792)" d="M729.338 321.863L1069.451 321.863" stroke="#000000" stroke-width="0.398" fill="none" /><path id="622" transform="matrix(1 0 0 -1 0 792)" d="M729.537 308.097L729.537 321.664" stroke="#000000" stroke-width="0.398" fill="none" /><path id="632" transform="matrix(1 0 0 -1 0 792)" d="M790.11 312.378L793.099 312.378" stroke="#000000" stroke-width="0.398" fill="none" /><path id="638" transform="matrix(1 0 0 -1 0 792)" d="M823.585 312.378L826.574 312.378" stroke="#000000" stroke-width="0.398" fill="none" /><path id="644" transform="matrix(1 0 0 -1 0 792)" d="M857.059 312.378L860.048 312.378" stroke="#000000" stroke-width="0.398" fill="none" /><path id="651" transform="matrix(1 0 0 -1 0 792)" d="M921.891 308.097L921.891 321.664" stroke="#000000" stroke-width="0.398" fill="none" /><path id="653" transform="matrix(1 0 0 -1 0 792)" d="M980.913 308.097L980.913 321.664" stroke="#000000" stroke-width="0.398" fill="none" /><path id="655" transform="matrix(1 0 0 -1 0 792)" d="M1039.935 308.097L1039.935 321.664" stroke="#000000" stroke-width="0.398" fill="none" /><path id="657" transform="matrix(1 0 0 -1 0 792)" d="M1069.252 308.097L1069.252 321.664" stroke="#000000" stroke-width="0.398" fill="none" /><path id="658" transform="matrix(1 0 0 -1 0 792)" d="M729.338 307.898L1069.451 307.898" stroke="#000000" stroke-width="0.398" fill="none" /><path id="659" transform="matrix(1 0 0 -1 0 792)" d="M729.537 294.132L729.537 307.699" stroke="#000000" stroke-width="0.398" fill="none" /><path id="669" transform="matrix(1 0 0 -1 0 792)" d="M790.11 298.413L793.099 298.413" stroke="#000000" stroke-width="0.398" fill="none" /><path id="675" transform="matrix(1 0 0 -1 0 792)" d="M823.585 298.413L826.574 298.413" stroke="#000000" stroke-width="0.398" fill="none" /><path id="681" transform="matrix(1 0 0 -1 0 792)" d="M857.059 298.413L860.048 298.413" stroke="#000000" stroke-width="0.398" fill="none" /><path id="686" transform="matrix(1 0 0 -1 0 792)" d="M921.891 294.132L921.891 307.699" stroke="#000000" stroke-width="0.398" fill="none" /><path id="688" transform="matrix(1 0 0 -1 0 792)" d="M980.913 294.132L980.913 307.699" stroke="#000000" stroke-width="0.398" fill="none" /><path id="690" transform="matrix(1 0 0 -1 0 792)" d="M1039.935 294.132L1039.935 307.699" stroke="#000000" stroke-width="0.398" fill="none" /><path id="692" transform="matrix(1 0 0 -1 0 792)" d="M1069.252 294.132L1069.252 307.699" stroke="#000000" stroke-width="0.398" fill="none" /><path id="693" transform="matrix(1 0 0 -1 0 792)" d="M729.338 293.932L1069.451 293.932" stroke="#000000" stroke-width="0.398" fill="none" /><path id="694" transform="matrix(1 0 0 -1 0 792)" d="M729.537 280.167L729.537 293.734" stroke="#000000" stroke-width="0.398" fill="none" /><path id="704" transform="matrix(1 0 0 -1 0 792)" d="M790.11 284.448L793.099 284.448" stroke="#000000" stroke-width="0.398" fill="none" /><path id="710" transform="matrix(1 0 0 -1 0 792)" d="M823.585 284.448L826.574 284.448" stroke="#000000" stroke-width="0.398" fill="none" /><path id="716" transform="matrix(1 0 0 -1 0 792)" d="M857.059 284.448L860.048 284.448" stroke="#000000" stroke-width="0.398" fill="none" /><path id="724" transform="matrix(1 0 0 -1 0 792)" d="M921.891 280.167L921.891 293.734" stroke="#000000" stroke-width="0.398" fill="none" /><path id="726" transform="matrix(1 0 0 -1 0 792)" d="M980.913 280.167L980.913 293.734" stroke="#000000" stroke-width="0.398" fill="none" /><path id="728" transform="matrix(1 0 0 -1 0 792)" d="M1039.935 280.167L1039.935 293.734" stroke="#000000" stroke-width="0.398" fill="none" /><path id="730" transform="matrix(1 0 0 -1 0 792)" d="M1069.252 280.167L1069.252 293.734" stroke="#000000" stroke-width="0.398" fill="none" /><path id="731" transform="matrix(1 0 0 -1 0 792)" d="M729.338 279.967L1069.451 279.967" stroke="#000000" stroke-width="0.398" fill="none" /><path id="732" transform="matrix(1 0 0 -1 0 792)" d="M729.537 266.201L729.537 279.768" stroke="#000000" stroke-width="0.398" fill="none" /><path id="738" transform="matrix(1 0 0 -1 0 792)" d="M766.2 270.483L769.189 270.483" stroke="#000000" stroke-width="0.398" fill="none" /><path id="744" transform="matrix(1 0 0 -1 0 792)" d="M921.891 266.201L921.891 279.768" stroke="#000000" stroke-width="0.398" fill="none" /><path id="746" transform="matrix(1 0 0 -1 0 792)" d="M980.913 266.201L980.913 279.768" stroke="#000000" stroke-width="0.398" fill="none" /><path id="748" transform="matrix(1 0 0 -1 0 792)" d="M1039.935 266.201L1039.935 279.768" stroke="#000000" stroke-width="0.398" fill="none" /><path id="750" transform="matrix(1 0 0 -1 0 792)" d="M1069.252 266.201L1069.252 279.768" stroke="#000000" stroke-width="0.398" fill="none" /><path id="751" transform="matrix(1 0 0 -1 0 792)" d="M729.338 266.002L1069.451 266.002" stroke="#000000" stroke-width="0.398" fill="none" /><path id="752" transform="matrix(1 0 0 -1 0 792)" d="M729.537 252.236L729.537 265.803" stroke="#000000" stroke-width="0.398" fill="none" /><path id="758" transform="matrix(1 0 0 -1 0 792)" d="M766.2 256.518L769.189 256.518" stroke="#000000" stroke-width="0.398" fill="none" /><path id="764" transform="matrix(1 0 0 -1 0 792)" d="M799.674 256.518L802.663 256.518" stroke="#000000" stroke-width="0.398" fill="none" /><path id="771" transform="matrix(1 0 0 -1 0 792)" d="M921.891 252.236L921.891 265.803" stroke="#000000" stroke-width="0.398" fill="none" /><path id="773" transform="matrix(1 0 0 -1 0 792)" d="M980.913 252.236L980.913 265.803" stroke="#000000" stroke-width="0.398" fill="none" /><path id="775" transform="matrix(1 0 0 -1 0 792)" d="M1039.935 252.236L1039.935 265.803" stroke="#000000" stroke-width="0.398" fill="none" /><path id="777" transform="matrix(1 0 0 -1 0 792)" d="M1069.252 252.236L1069.252 265.803" stroke="#000000" stroke-width="0.398" fill="none" /><path id="778" transform="matrix(1 0 0 -1 0 792)" d="M729.338 252.037L1069.451 252.037" stroke="#000000" stroke-width="0.398" fill="none" /><path id="779" transform="matrix(1 0 0 -1 0 792)" d="M729.537 238.271L729.537 251.838" stroke="#000000" stroke-width="0.398" fill="none" /><path id="785" transform="matrix(1 0 0 -1 0 792)" d="M766.2 242.553L769.189 242.553" stroke="#000000" stroke-width="0.398" fill="none" /><path id="791" transform="matrix(1 0 0 -1 0 792)" d="M799.674 242.553L802.663 242.553" stroke="#000000" stroke-width="0.398" fill="none" /><path id="796" transform="matrix(1 0 0 -1 0 792)" d="M921.891 238.271L921.891 251.838" stroke="#000000" stroke-width="0.398" fill="none" /><path id="798" transform="matrix(1 0 0 -1 0 792)" d="M980.913 238.271L980.913 251.838" stroke="#000000" stroke-width="0.398" fill="none" /><path id="800" transform="matrix(1 0 0 -1 0 792)" d="M1039.935 238.271L1039.935 251.838" stroke="#000000" stroke-width="0.398" fill="none" /><path id="802" transform="matrix(1 0 0 -1 0 792)" d="M1069.252 238.271L1069.252 251.838" stroke="#000000" stroke-width="0.398" fill="none" /><path id="803" transform="matrix(1 0 0 -1 0 792)" d="M729.338 238.072L1069.451 238.072" stroke="#000000" stroke-width="0.398" fill="none" /><path id="804" transform="matrix(1 0 0 -1 0 792)" d="M729.537 224.306L729.537 237.873" stroke="#000000" stroke-width="0.398" fill="none" /><path id="810" transform="matrix(1 0 0 -1 0 792)" d="M766.2 228.588L769.189 228.588" stroke="#000000" stroke-width="0.398" fill="none" /><path id="816" transform="matrix(1 0 0 -1 0 792)" d="M799.674 228.588L802.663 228.588" stroke="#000000" stroke-width="0.398" fill="none" /><path id="824" transform="matrix(1 0 0 -1 0 792)" d="M921.891 224.306L921.891 237.873" stroke="#000000" stroke-width="0.398" fill="none" /><path id="826" transform="matrix(1 0 0 -1 0 792)" d="M980.913 224.306L980.913 237.873" stroke="#000000" stroke-width="0.398" fill="none" /><path id="828" transform="matrix(1 0 0 -1 0 792)" d="M1039.935 224.306L1039.935 237.873" stroke="#000000" stroke-width="0.398" fill="none" /><path id="830" transform="matrix(1 0 0 -1 0 792)" d="M1069.252 224.306L1069.252 237.873" stroke="#000000" stroke-width="0.398" fill="none" /><path id="831" transform="matrix(1 0 0 -1 0 792)" d="M729.338 224.107L1069.451 224.107" stroke="#000000" stroke-width="0.398" fill="none" /><path id="832" transform="matrix(1 0 0 -1 0 792)" d="M729.537 210.341L729.537 223.908" stroke="#000000" stroke-width="0.398" fill="none" /><path id="840" transform="matrix(1 0 0 -1 0 792)" d="M778.155 214.622L781.144 214.622" stroke="#000000" stroke-width="0.398" fill="none" /><path id="846" transform="matrix(1 0 0 -1 0 792)" d="M811.629 214.622L814.618 214.622" stroke="#000000" stroke-width="0.398" fill="none" /><path id="852" transform="matrix(1 0 0 -1 0 792)" d="M921.891 210.341L921.891 223.908" stroke="#000000" stroke-width="0.398" fill="none" /><path id="854" transform="matrix(1 0 0 -1 0 792)" d="M980.913 210.341L980.913 223.908" stroke="#000000" stroke-width="0.398" fill="none" /><path id="856" transform="matrix(1 0 0 -1 0 792)" d="M1039.935 210.341L1039.935 223.908" stroke="#000000" stroke-width="0.398" fill="none" /><path id="858" transform="matrix(1 0 0 -1 0 792)" d="M1069.252 210.341L1069.252 223.908" stroke="#000000" stroke-width="0.398" fill="none" /><path id="859" transform="matrix(1 0 0 -1 0 792)" d="M729.338 210.142L1069.451 210.142" stroke="#000000" stroke-width="0.398" fill="none" /><path id="860" transform="matrix(1 0 0 -1 0 792)" d="M729.537 196.376L729.537 209.943" stroke="#000000" stroke-width="0.398" fill="none" /><path id="868" transform="matrix(1 0 0 -1 0 792)" d="M778.155 200.657L781.144 200.657" stroke="#000000" stroke-width="0.398" fill="none" /><path id="874" transform="matrix(1 0 0 -1 0 792)" d="M811.629 200.657L814.618 200.657" stroke="#000000" stroke-width="0.398" fill="none" /><path id="880" transform="matrix(1 0 0 -1 0 792)" d="M845.104 200.657L848.093 200.657" stroke="#000000" stroke-width="0.398" fill="none" /><path id="885" transform="matrix(1 0 0 -1 0 792)" d="M921.891 196.376L921.891 209.943" stroke="#000000" stroke-width="0.398" fill="none" /><path id="887" transform="matrix(1 0 0 -1 0 792)" d="M980.913 196.376L980.913 209.943" stroke="#000000" stroke-width="0.398" fill="none" /><path id="889" transform="matrix(1 0 0 -1 0 792)" d="M1039.935 196.376L1039.935 209.943" stroke="#000000" stroke-width="0.398" fill="none" /><path id="891" transform="matrix(1 0 0 -1 0 792)" d="M1069.252 196.376L1069.252 209.943" stroke="#000000" stroke-width="0.398" fill="none" /><path id="892" transform="matrix(1 0 0 -1 0 792)" d="M729.338 196.176L1069.451 196.176" stroke="#000000" stroke-width="0.398" fill="none" /><path id="893" transform="matrix(1 0 0 -1 0 792)" d="M729.537 182.411L729.537 195.978" stroke="#000000" stroke-width="0.398" fill="none" /><path id="901" transform="matrix(1 0 0 -1 0 792)" d="M778.155 186.692L781.144 186.692" stroke="#000000" stroke-width="0.398" fill="none" /><path id="907" transform="matrix(1 0 0 -1 0 792)" d="M811.629 186.692L814.618 186.692" stroke="#000000" stroke-width="0.398" fill="none" /><path id="913" transform="matrix(1 0 0 -1 0 792)" d="M845.104 186.692L848.093 186.692" stroke="#000000" stroke-width="0.398" fill="none" /><path id="920" transform="matrix(1 0 0 -1 0 792)" d="M921.891 182.411L921.891 195.978" stroke="#000000" stroke-width="0.398" fill="none" /><path id="922" transform="matrix(1 0 0 -1 0 792)" d="M980.913 182.411L980.913 195.978" stroke="#000000" stroke-width="0.398" fill="none" /><path id="924" transform="matrix(1 0 0 -1 0 792)" d="M1039.935 182.411L1039.935 195.978" stroke="#000000" stroke-width="0.398" fill="none" /><path id="926" transform="matrix(1 0 0 -1 0 792)" d="M1069.252 182.411L1069.252 195.978" stroke="#000000" stroke-width="0.398" fill="none" /><path id="927" transform="matrix(1 0 0 -1 0 792)" d="M729.338 182.211L1069.451 182.211" stroke="#000000" stroke-width="0.398" fill="none" /><path id="928" transform="matrix(1 0 0 -1 0 792)" d="M729.537 168.445L729.537 182.012" stroke="#000000" stroke-width="0.398" fill="none" /><path id="936" transform="matrix(1 0 0 -1 0 792)" d="M778.155 172.727L781.144 172.727" stroke="#000000" stroke-width="0.398" fill="none" /><path id="942" transform="matrix(1 0 0 -1 0 792)" d="M811.629 172.727L814.618 172.727" stroke="#000000" stroke-width="0.398" fill="none" /><path id="948" transform="matrix(1 0 0 -1 0 792)" d="M845.104 172.727L848.093 172.727" stroke="#000000" stroke-width="0.398" fill="none" /><path id="953" transform="matrix(1 0 0 -1 0 792)" d="M921.891 168.445L921.891 182.012" stroke="#000000" stroke-width="0.398" fill="none" /><path id="955" transform="matrix(1 0 0 -1 0 792)" d="M980.913 168.445L980.913 182.012" stroke="#000000" stroke-width="0.398" fill="none" /><path id="957" transform="matrix(1 0 0 -1 0 792)" d="M1039.935 168.445L1039.935 182.012" stroke="#000000" stroke-width="0.398" fill="none" /><path id="959" transform="matrix(1 0 0 -1 0 792)" d="M1069.252 168.445L1069.252 182.012" stroke="#000000" stroke-width="0.398" fill="none" /><path id="960" transform="matrix(1 0 0 -1 0 792)" d="M729.338 168.246L1069.451 168.246" stroke="#000000" stroke-width="0.398" fill="none" /><path id="961" transform="matrix(1 0 0 -1 0 792)" d="M729.537 154.48L729.537 168.047" stroke="#000000" stroke-width="0.398" fill="none" /><path id="969" transform="matrix(1 0 0 -1 0 792)" d="M778.155 158.762L781.144 158.762" stroke="#000000" stroke-width="0.398" fill="none" /><path id="975" transform="matrix(1 0 0 -1 0 792)" d="M811.629 158.762L814.618 158.762" stroke="#000000" stroke-width="0.398" fill="none" /><path id="981" transform="matrix(1 0 0 -1 0 792)" d="M845.104 158.762L848.093 158.762" stroke="#000000" stroke-width="0.398" fill="none" /><path id="989" transform="matrix(1 0 0 -1 0 792)" d="M921.891 154.48L921.891 168.047" stroke="#000000" stroke-width="0.398" fill="none" /><path id="991" transform="matrix(1 0 0 -1 0 792)" d="M980.913 154.48L980.913 168.047" stroke="#000000" stroke-width="0.398" fill="none" /><path id="993" transform="matrix(1 0 0 -1 0 792)" d="M1039.935 154.48L1039.935 168.047" stroke="#000000" stroke-width="0.398" fill="none" /><path id="995" transform="matrix(1 0 0 -1 0 792)" d="M1069.252 154.48L1069.252 168.047" stroke="#000000" stroke-width="0.398" fill="none" /><path id="996" transform="matrix(1 0 0 -1 0 792)" d="M729.338 154.281L1069.451 154.281" stroke="#000000" stroke-width="0.398" fill="none" /><path id="997" transform="matrix(1 0 0 -1 0 792)" d="M666.067 722.529L1132.724 722.529L1132.724 722.529L1132.724 735.6745L1132.724 735.6745L666.067 735.6745z" stroke="#FFFFFF" stroke-width="1" fill="#FFFFFF" fill-rule="nonzero" /><path id="1007" transform="matrix(1 0 0 -1 0 792)" d="M836.123 131.57L962.668 131.57L962.668 131.57L962.668 144.7155L962.668 144.7155L836.123 144.7155z" stroke="#FFFFFF" stroke-width="1" fill="#FFFFFF" fill-rule="nonzero" /><path id="1061" transform="matrix(1 0 0 -1 0 792)" d="M54.067 721.28L520.722 721.28" stroke="#000000" stroke-width="0.498" fill="none" /><path id="1062" transform="matrix(1 0 0 -1 0 792)" d="M117.338 645.054L457.451 645.054" stroke="#000000" stroke-width="0.398" fill="none" /><path id="1063" transform="matrix(1 0 0 -1 0 792)" d="M117.537 631.288L117.537 644.855" stroke="#000000" stroke-width="0.398" fill="none" /><path id="1064" transform="matrix(1 0 0 -1 0 792)" d="M117.737 631.288L309.692 631.288L309.692 644.855L117.737 644.855z" stroke="none" fill="#CCCCEB" fill-rule="nonzero" /><path id="1070" transform="matrix(1 0 0 -1 0 792)" d="M309.891 631.288L309.891 644.855" stroke="#000000" stroke-width="0.398" fill="none" /><path id="1071" transform="matrix(1 0 0 -1 0 792)" d="M310.09 631.288L368.714 631.288L368.714 644.855L310.09 644.855z" stroke="none" fill="#CCCCEB" fill-rule="nonzero" /><path id="1081" transform="matrix(1 0 0 -1 0 792)" d="M368.913 631.288L368.913 644.855" stroke="#000000" stroke-width="0.398" fill="none" /><path id="1082" transform="matrix(1 0 0 -1 0 792)" d="M369.112 631.288L427.736 631.288L427.736 644.855L369.112 644.855z" stroke="none" fill="#CCCCEB" fill-rule="nonzero" /><path id="1090" transform="matrix(1 0 0 -1 0 792)" d="M427.935 631.288L427.935 644.855" stroke="#000000" stroke-width="0.398" fill="none" /><path id="1091" transform="matrix(1 0 0 -1 0 792)" d="M428.134 631.288L457.053 631.288L457.053 644.855L428.134 644.855z" stroke="none" fill="#CCCCEB" fill-rule="nonzero" /><path id="1095" transform="matrix(1 0 0 -1 0 792)" d="M457.252 631.288L457.252 644.855" stroke="#000000" stroke-width="0.398" fill="none" /><path id="1096" transform="matrix(1 0 0 -1 0 792)" d="M117.537 617.721L117.537 631.288" stroke="#000000" stroke-width="0.398" fill="none" /><path id="1097" transform="matrix(1 0 0 -1 0 792)" d="M117.737 617.721L309.692 617.721L309.692 631.288L117.737 631.288z" stroke="none" fill="#CCCCEB" fill-rule="nonzero" /><path id="1098" transform="matrix(1 0 0 -1 0 792)" d="M309.891 617.721L309.891 631.288" stroke="#000000" stroke-width="0.398" fill="none" /><path id="1099" transform="matrix(1 0 0 -1 0 792)" d="M310.09 617.721L368.714 617.721L368.714 631.288L310.09 631.288z" stroke="none" fill="#CCCCEB" fill-rule="nonzero" /><path id="1100" transform="matrix(1 0 0 -1 0 792)" d="M368.913 617.721L368.913 631.288" stroke="#000000" stroke-width="0.398" fill="none" /><path id="1101" transform="matrix(1 0 0 -1 0 792)" d="M369.112 617.721L427.736 617.721L427.736 631.288L369.112 631.288z" stroke="none" fill="#CCCCEB" fill-rule="nonzero" /><path id="1107" transform="matrix(1 0 0 -1 0 792)" d="M427.935 617.721L427.935 631.288" stroke="#000000" stroke-width="0.398" fill="none" /><path id="1108" transform="matrix(1 0 0 -1 0 792)" d="M428.134 617.721L457.053 617.721L457.053 631.288L428.134 631.288z" stroke="none" fill="#CCCCEB" fill-rule="nonzero" /><path id="1109" transform="matrix(1 0 0 -1 0 792)" d="M457.252 617.721L457.252 631.288" stroke="#000000" stroke-width="0.398" fill="none" /><path id="1110" transform="matrix(1 0 0 -1 0 792)" d="M117.338 617.522L457.451 617.522" stroke="#000000" stroke-width="0.398" fill="none" /><path id="1111" transform="matrix(1 0 0 -1 0 792)" d="M117.338 615.131L457.451 615.131" stroke="#000000" stroke-width="0.398" fill="none" /><path id="1112" transform="matrix(1 0 0 -1 0 792)" d="M117.537 601.365L117.537 614.932" stroke="#000000" stroke-width="0.398" fill="none" /><path id="1119" transform="matrix(1 0 0 -1 0 792)" d="M160.177 605.647L163.166 605.647" stroke="#000000" stroke-width="0.398" fill="none" /><path id="1126" transform="matrix(1 0 0 -1 0 792)" d="M199.629 605.647L202.618 605.647" stroke="#000000" stroke-width="0.398" fill="none" /><path id="1134" transform="matrix(1 0 0 -1 0 792)" d="M309.891 601.365L309.891 614.932" stroke="#000000" stroke-width="0.398" fill="none" /><path id="1136" transform="matrix(1 0 0 -1 0 792)" d="M368.913 601.365L368.913 614.932" stroke="#000000" stroke-width="0.398" fill="none" /><path id="1138" transform="matrix(1 0 0 -1 0 792)" d="M427.935 601.365L427.935 614.932" stroke="#000000" stroke-width="0.398" fill="none" /><path id="1140" transform="matrix(1 0 0 -1 0 792)" d="M457.252 601.365L457.252 614.932" stroke="#000000" stroke-width="0.398" fill="none" /><path id="1141" transform="matrix(1 0 0 -1 0 792)" d="M117.338 601.166L457.451 601.166" stroke="#000000" stroke-width="0.398" fill="none" /><path id="1142" transform="matrix(1 0 0 -1 0 792)" d="M117.537 587.4L117.537 600.967" stroke="#000000" stroke-width="0.398" fill="none" /><path id="1149" transform="matrix(1 0 0 -1 0 792)" d="M160.177 591.681L163.166 591.681" stroke="#000000" stroke-width="0.398" fill="none" /><path id="1155" transform="matrix(1 0 0 -1 0 792)" d="M309.891 587.4L309.891 600.967" stroke="#000000" stroke-width="0.398" fill="none" /><path id="1157" transform="matrix(1 0 0 -1 0 792)" d="M368.913 587.4L368.913 600.967" stroke="#000000" stroke-width="0.398" fill="none" /><path id="1159" transform="matrix(1 0 0 -1 0 792)" d="M427.935 587.4L427.935 600.967" stroke="#000000" stroke-width="0.398" fill="none" /><path id="1161" transform="matrix(1 0 0 -1 0 792)" d="M457.252 587.4L457.252 600.967" stroke="#000000" stroke-width="0.398" fill="none" /><path id="1162" transform="matrix(1 0 0 -1 0 792)" d="M117.338 587.201L457.451 587.201" stroke="#000000" stroke-width="0.398" fill="none" /><path id="1163" transform="matrix(1 0 0 -1 0 792)" d="M117.537 573.435L117.537 587.002" stroke="#000000" stroke-width="0.398" fill="none" /><path id="1170" transform="matrix(1 0 0 -1 0 792)" d="M160.177 577.716L163.166 577.716" stroke="#000000" stroke-width="0.398" fill="none" /><path id="1176" transform="matrix(1 0 0 -1 0 792)" d="M193.652 577.716L196.641 577.716" stroke="#000000" stroke-width="0.398" fill="none" /><path id="1181" transform="matrix(1 0 0 -1 0 792)" d="M309.891 573.435L309.891 587.002" stroke="#000000" stroke-width="0.398" fill="none" /><path id="1183" transform="matrix(1 0 0 -1 0 792)" d="M368.913 573.435L368.913 587.002" stroke="#000000" stroke-width="0.398" fill="none" /><path id="1185" transform="matrix(1 0 0 -1 0 792)" d="M427.935 573.435L427.935 587.002" stroke="#000000" stroke-width="0.398" fill="none" /><path id="1187" transform="matrix(1 0 0 -1 0 792)" d="M457.252 573.435L457.252 587.002" stroke="#000000" stroke-width="0.398" fill="none" /><path id="1188" transform="matrix(1 0 0 -1 0 792)" d="M117.338 573.235L457.451 573.235" stroke="#000000" stroke-width="0.398" fill="none" /><path id="1189" transform="matrix(1 0 0 -1 0 792)" d="M117.537 559.47L117.537 573.037" stroke="#000000" stroke-width="0.398" fill="none" /><path id="1196" transform="matrix(1 0 0 -1 0 792)" d="M160.177 563.751L163.166 563.751" stroke="#000000" stroke-width="0.398" fill="none" /><path id="1202" transform="matrix(1 0 0 -1 0 792)" d="M193.652 563.751L196.641 563.751" stroke="#000000" stroke-width="0.398" fill="none" /><path id="1209" transform="matrix(1 0 0 -1 0 792)" d="M309.891 559.47L309.891 573.037" stroke="#000000" stroke-width="0.398" fill="none" /><path id="1211" transform="matrix(1 0 0 -1 0 792)" d="M368.913 559.47L368.913 573.037" stroke="#000000" stroke-width="0.398" fill="none" /><path id="1213" transform="matrix(1 0 0 -1 0 792)" d="M427.935 559.47L427.935 573.037" stroke="#000000" stroke-width="0.398" fill="none" /><path id="1215" transform="matrix(1 0 0 -1 0 792)" d="M457.252 559.47L457.252 573.037" stroke="#000000" stroke-width="0.398" fill="none" /><path id="1216" transform="matrix(1 0 0 -1 0 792)" d="M117.338 559.27L457.451 559.27" stroke="#000000" stroke-width="0.398" fill="none" /><path id="1217" transform="matrix(1 0 0 -1 0 792)" d="M117.537 545.504L117.537 559.071" stroke="#000000" stroke-width="0.398" fill="none" /><path id="1224" transform="matrix(1 0 0 -1 0 792)" d="M160.177 549.786L163.166 549.786" stroke="#000000" stroke-width="0.398" fill="none" /><path id="1230" transform="matrix(1 0 0 -1 0 792)" d="M193.652 549.786L196.641 549.786" stroke="#000000" stroke-width="0.398" fill="none" /><path id="1235" transform="matrix(1 0 0 -1 0 792)" d="M309.891 545.504L309.891 559.071" stroke="#000000" stroke-width="0.398" fill="none" /><path id="1237" transform="matrix(1 0 0 -1 0 792)" d="M368.913 545.504L368.913 559.071" stroke="#000000" stroke-width="0.398" fill="none" /><path id="1239" transform="matrix(1 0 0 -1 0 792)" d="M427.935 545.504L427.935 559.071" stroke="#000000" stroke-width="0.398" fill="none" /><path id="1241" transform="matrix(1 0 0 -1 0 792)" d="M457.252 545.504L457.252 559.071" stroke="#000000" stroke-width="0.398" fill="none" /><path id="1242" transform="matrix(1 0 0 -1 0 792)" d="M117.338 545.305L457.451 545.305" stroke="#000000" stroke-width="0.398" fill="none" /><path id="1243" transform="matrix(1 0 0 -1 0 792)" d="M117.537 531.539L117.537 545.106" stroke="#000000" stroke-width="0.398" fill="none" /><path id="1250" transform="matrix(1 0 0 -1 0 792)" d="M160.177 535.821L163.166 535.821" stroke="#000000" stroke-width="0.398" fill="none" /><path id="1256" transform="matrix(1 0 0 -1 0 792)" d="M193.652 535.821L196.641 535.821" stroke="#000000" stroke-width="0.398" fill="none" /><path id="1264" transform="matrix(1 0 0 -1 0 792)" d="M309.891 531.539L309.891 545.106" stroke="#000000" stroke-width="0.398" fill="none" /><path id="1266" transform="matrix(1 0 0 -1 0 792)" d="M368.913 531.539L368.913 545.106" stroke="#000000" stroke-width="0.398" fill="none" /><path id="1268" transform="matrix(1 0 0 -1 0 792)" d="M427.935 531.539L427.935 545.106" stroke="#000000" stroke-width="0.398" fill="none" /><path id="1270" transform="matrix(1 0 0 -1 0 792)" d="M457.252 531.539L457.252 545.106" stroke="#000000" stroke-width="0.398" fill="none" /><path id="1271" transform="matrix(1 0 0 -1 0 792)" d="M117.338 531.34L457.451 531.34" stroke="#000000" stroke-width="0.398" fill="none" /><path id="1272" transform="matrix(1 0 0 -1 0 792)" d="M117.537 517.574L117.537 531.141" stroke="#000000" stroke-width="0.398" fill="none" /><path id="1279" transform="matrix(1 0 0 -1 0 792)" d="M160.177 521.856L163.166 521.856" stroke="#000000" stroke-width="0.398" fill="none" /><path id="1285" transform="matrix(1 0 0 -1 0 792)" d="M309.891 517.574L309.891 531.141" stroke="#000000" stroke-width="0.398" fill="none" /><path id="1287" transform="matrix(1 0 0 -1 0 792)" d="M368.913 517.574L368.913 531.141" stroke="#000000" stroke-width="0.398" fill="none" /><path id="1289" transform="matrix(1 0 0 -1 0 792)" d="M427.935 517.574L427.935 531.141" stroke="#000000" stroke-width="0.398" fill="none" /><path id="1291" transform="matrix(1 0 0 -1 0 792)" d="M457.252 517.574L457.252 531.141" stroke="#000000" stroke-width="0.398" fill="none" /><path id="1292" transform="matrix(1 0 0 -1 0 792)" d="M117.338 517.375L457.451 517.375" stroke="#000000" stroke-width="0.398" fill="none" /><path id="1293" transform="matrix(1 0 0 -1 0 792)" d="M117.537 503.609L117.537 517.176" stroke="#000000" stroke-width="0.398" fill="none" /><path id="1300" transform="matrix(1 0 0 -1 0 792)" d="M160.177 507.89L163.166 507.89" stroke="#000000" stroke-width="0.398" fill="none" /><path id="1306" transform="matrix(1 0 0 -1 0 792)" d="M193.652 507.89L196.641 507.89" stroke="#000000" stroke-width="0.398" fill="none" /><path id="1313" transform="matrix(1 0 0 -1 0 792)" d="M309.891 503.609L309.891 517.176" stroke="#000000" stroke-width="0.398" fill="none" /><path id="1315" transform="matrix(1 0 0 -1 0 792)" d="M368.913 503.609L368.913 517.176" stroke="#000000" stroke-width="0.398" fill="none" /><path id="1317" transform="matrix(1 0 0 -1 0 792)" d="M427.935 503.609L427.935 517.176" stroke="#000000" stroke-width="0.398" fill="none" /><path id="1319" transform="matrix(1 0 0 -1 0 792)" d="M457.252 503.609L457.252 517.176" stroke="#000000" stroke-width="0.398" fill="none" /><path id="1320" transform="matrix(1 0 0 -1 0 792)" d="M117.338 503.41L457.451 503.41" stroke="#000000" stroke-width="0.398" fill="none" /><path id="1321" transform="matrix(1 0 0 -1 0 792)" d="M117.537 489.644L117.537 503.211" stroke="#000000" stroke-width="0.398" fill="none" /><path id="1328" transform="matrix(1 0 0 -1 0 792)" d="M160.177 493.925L163.166 493.925" stroke="#000000" stroke-width="0.398" fill="none" /><path id="1334" transform="matrix(1 0 0 -1 0 792)" d="M193.652 493.925L196.641 493.925" stroke="#000000" stroke-width="0.398" fill="none" /><path id="1339" transform="matrix(1 0 0 -1 0 792)" d="M309.891 489.644L309.891 503.211" stroke="#000000" stroke-width="0.398" fill="none" /><path id="1341" transform="matrix(1 0 0 -1 0 792)" d="M368.913 489.644L368.913 503.211" stroke="#000000" stroke-width="0.398" fill="none" /><path id="1343" transform="matrix(1 0 0 -1 0 792)" d="M427.935 489.644L427.935 503.211" stroke="#000000" stroke-width="0.398" fill="none" /><path id="1345" transform="matrix(1 0 0 -1 0 792)" d="M457.252 489.644L457.252 503.211" stroke="#000000" stroke-width="0.398" fill="none" /><path id="1346" transform="matrix(1 0 0 -1 0 792)" d="M117.338 489.445L457.451 489.445" stroke="#000000" stroke-width="0.398" fill="none" /><path id="1347" transform="matrix(1 0 0 -1 0 792)" d="M117.537 475.679L117.537 489.246" stroke="#000000" stroke-width="0.398" fill="none" /><path id="1354" transform="matrix(1 0 0 -1 0 792)" d="M160.177 479.96L163.166 479.96" stroke="#000000" stroke-width="0.398" fill="none" /><path id="1360" transform="matrix(1 0 0 -1 0 792)" d="M193.652 479.96L196.641 479.96" stroke="#000000" stroke-width="0.398" fill="none" /><path id="1368" transform="matrix(1 0 0 -1 0 792)" d="M309.891 475.679L309.891 489.246" stroke="#000000" stroke-width="0.398" fill="none" /><path id="1370" transform="matrix(1 0 0 -1 0 792)" d="M368.913 475.679L368.913 489.246" stroke="#000000" stroke-width="0.398" fill="none" /><path id="1372" transform="matrix(1 0 0 -1 0 792)" d="M427.935 475.679L427.935 489.246" stroke="#000000" stroke-width="0.398" fill="none" /><path id="1374" transform="matrix(1 0 0 -1 0 792)" d="M457.252 475.679L457.252 489.246" stroke="#000000" stroke-width="0.398" fill="none" /><path id="1375" transform="matrix(1 0 0 -1 0 792)" d="M117.338 475.479L457.451 475.479" stroke="#000000" stroke-width="0.398" fill="none" /><path id="1376" transform="matrix(1 0 0 -1 0 792)" d="M117.537 461.714L117.537 475.281" stroke="#000000" stroke-width="0.398" fill="none" /><path id="1380" transform="matrix(1 0 0 -1 0 792)" d="M142.245 465.995L145.234 465.995" stroke="#000000" stroke-width="0.398" fill="none" /><path id="1386" transform="matrix(1 0 0 -1 0 792)" d="M175.719 465.995L178.708 465.995" stroke="#000000" stroke-width="0.398" fill="none" /><path id="1392" transform="matrix(1 0 0 -1 0 792)" d="M309.891 461.714L309.891 475.281" stroke="#000000" stroke-width="0.398" fill="none" /><path id="1394" transform="matrix(1 0 0 -1 0 792)" d="M368.913 461.714L368.913 475.281" stroke="#000000" stroke-width="0.398" fill="none" /><path id="1396" transform="matrix(1 0 0 -1 0 792)" d="M427.935 461.714L427.935 475.281" stroke="#000000" stroke-width="0.398" fill="none" /><path id="1398" transform="matrix(1 0 0 -1 0 792)" d="M457.252 461.714L457.252 475.281" stroke="#000000" stroke-width="0.398" fill="none" /><path id="1399" transform="matrix(1 0 0 -1 0 792)" d="M117.338 461.514L457.451 461.514" stroke="#000000" stroke-width="0.398" fill="none" /><path id="1400" transform="matrix(1 0 0 -1 0 792)" d="M117.537 447.748L117.537 461.315" stroke="#000000" stroke-width="0.398" fill="none" /><path id="1404" transform="matrix(1 0 0 -1 0 792)" d="M142.245 452.03L145.234 452.03" stroke="#000000" stroke-width="0.398" fill="none" /><path id="1410" transform="matrix(1 0 0 -1 0 792)" d="M175.719 452.03L178.708 452.03" stroke="#000000" stroke-width="0.398" fill="none" /><path id="1416" transform="matrix(1 0 0 -1 0 792)" d="M209.194 452.03L212.183 452.03" stroke="#000000" stroke-width="0.398" fill="none" /><path id="1423" transform="matrix(1 0 0 -1 0 792)" d="M309.891 447.748L309.891 461.315" stroke="#000000" stroke-width="0.398" fill="none" /><path id="1425" transform="matrix(1 0 0 -1 0 792)" d="M368.913 447.748L368.913 461.315" stroke="#000000" stroke-width="0.398" fill="none" /><path id="1427" transform="matrix(1 0 0 -1 0 792)" d="M427.935 447.748L427.935 461.315" stroke="#000000" stroke-width="0.398" fill="none" /><path id="1429" transform="matrix(1 0 0 -1 0 792)" d="M457.252 447.748L457.252 461.315" stroke="#000000" stroke-width="0.398" fill="none" /><path id="1430" transform="matrix(1 0 0 -1 0 792)" d="M117.338 447.549L457.451 447.549" stroke="#000000" stroke-width="0.398" fill="none" /><path id="1431" transform="matrix(1 0 0 -1 0 792)" d="M117.537 433.783L117.537 447.35" stroke="#000000" stroke-width="0.398" fill="none" /><path id="1435" transform="matrix(1 0 0 -1 0 792)" d="M142.245 438.065L145.234 438.065" stroke="#000000" stroke-width="0.398" fill="none" /><path id="1441" transform="matrix(1 0 0 -1 0 792)" d="M175.719 438.065L178.708 438.065" stroke="#000000" stroke-width="0.398" fill="none" /><path id="1447" transform="matrix(1 0 0 -1 0 792)" d="M209.194 438.065L212.183 438.065" stroke="#000000" stroke-width="0.398" fill="none" /><path id="1452" transform="matrix(1 0 0 -1 0 792)" d="M309.891 433.783L309.891 447.35" stroke="#000000" stroke-width="0.398" fill="none" /><path id="1454" transform="matrix(1 0 0 -1 0 792)" d="M368.913 433.783L368.913 447.35" stroke="#000000" stroke-width="0.398" fill="none" /><path id="1456" transform="matrix(1 0 0 -1 0 792)" d="M427.935 433.783L427.935 447.35" stroke="#000000" stroke-width="0.398" fill="none" /><path id="1458" transform="matrix(1 0 0 -1 0 792)" d="M457.252 433.783L457.252 447.35" stroke="#000000" stroke-width="0.398" fill="none" /><path id="1459" transform="matrix(1 0 0 -1 0 792)" d="M117.338 433.584L457.451 433.584" stroke="#000000" stroke-width="0.398" fill="none" /><path id="1460" transform="matrix(1 0 0 -1 0 792)" d="M117.537 419.818L117.537 433.385" stroke="#000000" stroke-width="0.398" fill="none" /><path id="1464" transform="matrix(1 0 0 -1 0 792)" d="M142.245 424.1L145.234 424.1" stroke="#000000" stroke-width="0.398" fill="none" /><path id="1470" transform="matrix(1 0 0 -1 0 792)" d="M175.719 424.1L178.708 424.1" stroke="#000000" stroke-width="0.398" fill="none" /><path id="1476" transform="matrix(1 0 0 -1 0 792)" d="M209.194 424.1L212.183 424.1" stroke="#000000" stroke-width="0.398" fill="none" /><path id="1484" transform="matrix(1 0 0 -1 0 792)" d="M309.891 419.818L309.891 433.385" stroke="#000000" stroke-width="0.398" fill="none" /><path id="1486" transform="matrix(1 0 0 -1 0 792)" d="M368.913 419.818L368.913 433.385" stroke="#000000" stroke-width="0.398" fill="none" /><path id="1488" transform="matrix(1 0 0 -1 0 792)" d="M427.935 419.818L427.935 433.385" stroke="#000000" stroke-width="0.398" fill="none" /><path id="1490" transform="matrix(1 0 0 -1 0 792)" d="M457.252 419.818L457.252 433.385" stroke="#000000" stroke-width="0.398" fill="none" /><path id="1491" transform="matrix(1 0 0 -1 0 792)" d="M117.338 419.619L457.451 419.619" stroke="#000000" stroke-width="0.398" fill="none" /><path id="1492" transform="matrix(1 0 0 -1 0 792)" d="M117.537 405.853L117.537 419.42" stroke="#000000" stroke-width="0.398" fill="none" /><path id="1498" transform="matrix(1 0 0 -1 0 792)" d="M154.2 410.134L157.189 410.134" stroke="#000000" stroke-width="0.398" fill="none" /><path id="1504" transform="matrix(1 0 0 -1 0 792)" d="M309.891 405.853L309.891 419.42" stroke="#000000" stroke-width="0.398" fill="none" /><path id="1506" transform="matrix(1 0 0 -1 0 792)" d="M368.913 405.853L368.913 419.42" stroke="#000000" stroke-width="0.398" fill="none" /><path id="1508" transform="matrix(1 0 0 -1 0 792)" d="M427.935 405.853L427.935 419.42" stroke="#000000" stroke-width="0.398" fill="none" /><path id="1510" transform="matrix(1 0 0 -1 0 792)" d="M457.252 405.853L457.252 419.42" stroke="#000000" stroke-width="0.398" fill="none" /><path id="1511" transform="matrix(1 0 0 -1 0 792)" d="M117.338 405.654L457.451 405.654" stroke="#000000" stroke-width="0.398" fill="none" /><path id="1512" transform="matrix(1 0 0 -1 0 792)" d="M117.537 391.888L117.537 405.455" stroke="#000000" stroke-width="0.398" fill="none" /><path id="1518" transform="matrix(1 0 0 -1 0 792)" d="M154.2 396.169L157.189 396.169" stroke="#000000" stroke-width="0.398" fill="none" /><path id="1524" transform="matrix(1 0 0 -1 0 792)" d="M187.674 396.169L190.663 396.169" stroke="#000000" stroke-width="0.398" fill="none" /><path id="1529" transform="matrix(1 0 0 -1 0 792)" d="M309.891 391.888L309.891 405.455" stroke="#000000" stroke-width="0.398" fill="none" /><path id="1531" transform="matrix(1 0 0 -1 0 792)" d="M368.913 391.888L368.913 405.455" stroke="#000000" stroke-width="0.398" fill="none" /><path id="1533" transform="matrix(1 0 0 -1 0 792)" d="M427.935 391.888L427.935 405.455" stroke="#000000" stroke-width="0.398" fill="none" /><path id="1535" transform="matrix(1 0 0 -1 0 792)" d="M457.252 391.888L457.252 405.455" stroke="#000000" stroke-width="0.398" fill="none" /><path id="1536" transform="matrix(1 0 0 -1 0 792)" d="M117.338 391.689L457.451 391.689" stroke="#000000" stroke-width="0.398" fill="none" /><path id="1537" transform="matrix(1 0 0 -1 0 792)" d="M117.537 377.923L117.537 391.49" stroke="#000000" stroke-width="0.398" fill="none" /><path id="1543" transform="matrix(1 0 0 -1 0 792)" d="M154.2 382.204L157.189 382.204" stroke="#000000" stroke-width="0.398" fill="none" /><path id="1549" transform="matrix(1 0 0 -1 0 792)" d="M187.674 382.204L190.663 382.204" stroke="#000000" stroke-width="0.398" fill="none" /><path id="1556" transform="matrix(1 0 0 -1 0 792)" d="M309.891 377.923L309.891 391.49" stroke="#000000" stroke-width="0.398" fill="none" /><path id="1558" transform="matrix(1 0 0 -1 0 792)" d="M368.913 377.923L368.913 391.49" stroke="#000000" stroke-width="0.398" fill="none" /><path id="1560" transform="matrix(1 0 0 -1 0 792)" d="M427.935 377.923L427.935 391.49" stroke="#000000" stroke-width="0.398" fill="none" /><path id="1562" transform="matrix(1 0 0 -1 0 792)" d="M457.252 377.923L457.252 391.49" stroke="#000000" stroke-width="0.398" fill="none" /><path id="1563" transform="matrix(1 0 0 -1 0 792)" d="M117.338 377.723L457.451 377.723" stroke="#000000" stroke-width="0.398" fill="none" /><path id="1564" transform="matrix(1 0 0 -1 0 792)" d="M117.537 363.957L117.537 377.524" stroke="#000000" stroke-width="0.398" fill="none" /><path id="1570" transform="matrix(1 0 0 -1 0 792)" d="M154.2 368.239L157.189 368.239" stroke="#000000" stroke-width="0.398" fill="none" /><path id="1576" transform="matrix(1 0 0 -1 0 792)" d="M187.674 368.239L190.663 368.239" stroke="#000000" stroke-width="0.398" fill="none" /><path id="1581" transform="matrix(1 0 0 -1 0 792)" d="M309.891 363.957L309.891 377.524" stroke="#000000" stroke-width="0.398" fill="none" /><path id="1583" transform="matrix(1 0 0 -1 0 792)" d="M368.913 363.957L368.913 377.524" stroke="#000000" stroke-width="0.398" fill="none" /><path id="1585" transform="matrix(1 0 0 -1 0 792)" d="M427.935 363.957L427.935 377.524" stroke="#000000" stroke-width="0.398" fill="none" /><path id="1587" transform="matrix(1 0 0 -1 0 792)" d="M457.252 363.957L457.252 377.524" stroke="#000000" stroke-width="0.398" fill="none" /><path id="1588" transform="matrix(1 0 0 -1 0 792)" d="M117.338 363.758L457.451 363.758" stroke="#000000" stroke-width="0.398" fill="none" /><path id="1589" transform="matrix(1 0 0 -1 0 792)" d="M117.537 349.992L117.537 363.559" stroke="#000000" stroke-width="0.398" fill="none" /><path id="1595" transform="matrix(1 0 0 -1 0 792)" d="M154.2 354.274L157.189 354.274" stroke="#000000" stroke-width="0.398" fill="none" /><path id="1601" transform="matrix(1 0 0 -1 0 792)" d="M187.674 354.274L190.663 354.274" stroke="#000000" stroke-width="0.398" fill="none" /><path id="1609" transform="matrix(1 0 0 -1 0 792)" d="M309.891 349.992L309.891 363.559" stroke="#000000" stroke-width="0.398" fill="none" /><path id="1611" transform="matrix(1 0 0 -1 0 792)" d="M368.913 349.992L368.913 363.559" stroke="#000000" stroke-width="0.398" fill="none" /><path id="1613" transform="matrix(1 0 0 -1 0 792)" d="M427.935 349.992L427.935 363.559" stroke="#000000" stroke-width="0.398" fill="none" /><path id="1615" transform="matrix(1 0 0 -1 0 792)" d="M457.252 349.992L457.252 363.559" stroke="#000000" stroke-width="0.398" fill="none" /><path id="1616" transform="matrix(1 0 0 -1 0 792)" d="M117.338 349.793L457.451 349.793" stroke="#000000" stroke-width="0.398" fill="none" /><path id="1617" transform="matrix(1 0 0 -1 0 792)" d="M117.537 336.027L117.537 349.594" stroke="#000000" stroke-width="0.398" fill="none" /><path id="1627" transform="matrix(1 0 0 -1 0 792)" d="M178.11 340.309L181.099 340.309" stroke="#000000" stroke-width="0.398" fill="none" /><path id="1633" transform="matrix(1 0 0 -1 0 792)" d="M211.585 340.309L214.574 340.309" stroke="#000000" stroke-width="0.398" fill="none" /><path id="1639" transform="matrix(1 0 0 -1 0 792)" d="M309.891 336.027L309.891 349.594" stroke="#000000" stroke-width="0.398" fill="none" /><path id="1641" transform="matrix(1 0 0 -1 0 792)" d="M368.913 336.027L368.913 349.594" stroke="#000000" stroke-width="0.398" fill="none" /><path id="1643" transform="matrix(1 0 0 -1 0 792)" d="M427.935 336.027L427.935 349.594" stroke="#000000" stroke-width="0.398" fill="none" /><path id="1645" transform="matrix(1 0 0 -1 0 792)" d="M457.252 336.027L457.252 349.594" stroke="#000000" stroke-width="0.398" fill="none" /><path id="1646" transform="matrix(1 0 0 -1 0 792)" d="M117.338 335.828L457.451 335.828" stroke="#000000" stroke-width="0.398" fill="none" /><path id="1647" transform="matrix(1 0 0 -1 0 792)" d="M117.537 322.062L117.537 335.629" stroke="#000000" stroke-width="0.398" fill="none" /><path id="1657" transform="matrix(1 0 0 -1 0 792)" d="M178.11 326.344L181.099 326.344" stroke="#000000" stroke-width="0.398" fill="none" /><path id="1663" transform="matrix(1 0 0 -1 0 792)" d="M211.585 326.344L214.574 326.344" stroke="#000000" stroke-width="0.398" fill="none" /><path id="1669" transform="matrix(1 0 0 -1 0 792)" d="M245.059 326.344L248.048 326.344" stroke="#000000" stroke-width="0.398" fill="none" /><path id="1674" transform="matrix(1 0 0 -1 0 792)" d="M309.891 322.062L309.891 335.629" stroke="#000000" stroke-width="0.398" fill="none" /><path id="1676" transform="matrix(1 0 0 -1 0 792)" d="M368.913 322.062L368.913 335.629" stroke="#000000" stroke-width="0.398" fill="none" /><path id="1678" transform="matrix(1 0 0 -1 0 792)" d="M427.935 322.062L427.935 335.629" stroke="#000000" stroke-width="0.398" fill="none" /><path id="1680" transform="matrix(1 0 0 -1 0 792)" d="M457.252 322.062L457.252 335.629" stroke="#000000" stroke-width="0.398" fill="none" /><path id="1681" transform="matrix(1 0 0 -1 0 792)" d="M117.338 321.863L457.451 321.863" stroke="#000000" stroke-width="0.398" fill="none" /><path id="1682" transform="matrix(1 0 0 -1 0 792)" d="M117.537 308.097L117.537 321.664" stroke="#000000" stroke-width="0.398" fill="none" /><path id="1692" transform="matrix(1 0 0 -1 0 792)" d="M178.11 312.378L181.099 312.378" stroke="#000000" stroke-width="0.398" fill="none" /><path id="1698" transform="matrix(1 0 0 -1 0 792)" d="M211.585 312.378L214.574 312.378" stroke="#000000" stroke-width="0.398" fill="none" /><path id="1704" transform="matrix(1 0 0 -1 0 792)" d="M245.059 312.378L248.048 312.378" stroke="#000000" stroke-width="0.398" fill="none" /><path id="1711" transform="matrix(1 0 0 -1 0 792)" d="M309.891 308.097L309.891 321.664" stroke="#000000" stroke-width="0.398" fill="none" /><path id="1713" transform="matrix(1 0 0 -1 0 792)" d="M368.913 308.097L368.913 321.664" stroke="#000000" stroke-width="0.398" fill="none" /><path id="1715" transform="matrix(1 0 0 -1 0 792)" d="M427.935 308.097L427.935 321.664" stroke="#000000" stroke-width="0.398" fill="none" /><path id="1717" transform="matrix(1 0 0 -1 0 792)" d="M457.252 308.097L457.252 321.664" stroke="#000000" stroke-width="0.398" fill="none" /><path id="1718" transform="matrix(1 0 0 -1 0 792)" d="M117.338 307.898L457.451 307.898" stroke="#000000" stroke-width="0.398" fill="none" /><path id="1719" transform="matrix(1 0 0 -1 0 792)" d="M117.537 294.132L117.537 307.699" stroke="#000000" stroke-width="0.398" fill="none" /><path id="1729" transform="matrix(1 0 0 -1 0 792)" d="M178.11 298.413L181.099 298.413" stroke="#000000" stroke-width="0.398" fill="none" /><path id="1735" transform="matrix(1 0 0 -1 0 792)" d="M211.585 298.413L214.574 298.413" stroke="#000000" stroke-width="0.398" fill="none" /><path id="1741" transform="matrix(1 0 0 -1 0 792)" d="M245.059 298.413L248.048 298.413" stroke="#000000" stroke-width="0.398" fill="none" /><path id="1746" transform="matrix(1 0 0 -1 0 792)" d="M309.891 294.132L309.891 307.699" stroke="#000000" stroke-width="0.398" fill="none" /><path id="1748" transform="matrix(1 0 0 -1 0 792)" d="M368.913 294.132L368.913 307.699" stroke="#000000" stroke-width="0.398" fill="none" /><path id="1750" transform="matrix(1 0 0 -1 0 792)" d="M427.935 294.132L427.935 307.699" stroke="#000000" stroke-width="0.398" fill="none" /><path id="1752" transform="matrix(1 0 0 -1 0 792)" d="M457.252 294.132L457.252 307.699" stroke="#000000" stroke-width="0.398" fill="none" /><path id="1753" transform="matrix(1 0 0 -1 0 792)" d="M117.338 293.932L457.451 293.932" stroke="#000000" stroke-width="0.398" fill="none" /><path id="1754" transform="matrix(1 0 0 -1 0 792)" d="M117.537 280.167L117.537 293.734" stroke="#000000" stroke-width="0.398" fill="none" /><path id="1764" transform="matrix(1 0 0 -1 0 792)" d="M178.11 284.448L181.099 284.448" stroke="#000000" stroke-width="0.398" fill="none" /><path id="1770" transform="matrix(1 0 0 -1 0 792)" d="M211.585 284.448L214.574 284.448" stroke="#000000" stroke-width="0.398" fill="none" /><path id="1776" transform="matrix(1 0 0 -1 0 792)" d="M245.059 284.448L248.048 284.448" stroke="#000000" stroke-width="0.398" fill="none" /><path id="1784" transform="matrix(1 0 0 -1 0 792)" d="M309.891 280.167L309.891 293.734" stroke="#000000" stroke-width="0.398" fill="none" /><path id="1786" transform="matrix(1 0 0 -1 0 792)" d="M368.913 280.167L368.913 293.734" stroke="#000000" stroke-width="0.398" fill="none" /><path id="1788" transform="matrix(1 0 0 -1 0 792)" d="M427.935 280.167L427.935 293.734" stroke="#000000" stroke-width="0.398" fill="none" /><path id="1790" transform="matrix(1 0 0 -1 0 792)" d="M457.252 280.167L457.252 293.734" stroke="#000000" stroke-width="0.398" fill="none" /><path id="1791" transform="matrix(1 0 0 -1 0 792)" d="M117.338 279.967L457.451 279.967" stroke="#000000" stroke-width="0.398" fill="none" /><path id="1792" transform="matrix(1 0 0 -1 0 792)" d="M117.537 266.201L117.537 279.768" stroke="#000000" stroke-width="0.398" fill="none" /><path id="1798" transform="matrix(1 0 0 -1 0 792)" d="M154.2 270.483L157.189 270.483" stroke="#000000" stroke-width="0.398" fill="none" /><path id="1804" transform="matrix(1 0 0 -1 0 792)" d="M309.891 266.201L309.891 279.768" stroke="#000000" stroke-width="0.398" fill="none" /><path id="1806" transform="matrix(1 0 0 -1 0 792)" d="M368.913 266.201L368.913 279.768" stroke="#000000" stroke-width="0.398" fill="none" /><path id="1808" transform="matrix(1 0 0 -1 0 792)" d="M427.935 266.201L427.935 279.768" stroke="#000000" stroke-width="0.398" fill="none" /><path id="1810" transform="matrix(1 0 0 -1 0 792)" d="M457.252 266.201L457.252 279.768" stroke="#000000" stroke-width="0.398" fill="none" /><path id="1811" transform="matrix(1 0 0 -1 0 792)" d="M117.338 266.002L457.451 266.002" stroke="#000000" stroke-width="0.398" fill="none" /><path id="1812" transform="matrix(1 0 0 -1 0 792)" d="M117.537 252.236L117.537 265.803" stroke="#000000" stroke-width="0.398" fill="none" /><path id="1818" transform="matrix(1 0 0 -1 0 792)" d="M154.2 256.518L157.189 256.518" stroke="#000000" stroke-width="0.398" fill="none" /><path id="1824" transform="matrix(1 0 0 -1 0 792)" d="M187.674 256.518L190.663 256.518" stroke="#000000" stroke-width="0.398" fill="none" /><path id="1831" transform="matrix(1 0 0 -1 0 792)" d="M309.891 252.236L309.891 265.803" stroke="#000000" stroke-width="0.398" fill="none" /><path id="1833" transform="matrix(1 0 0 -1 0 792)" d="M368.913 252.236L368.913 265.803" stroke="#000000" stroke-width="0.398" fill="none" /><path id="1835" transform="matrix(1 0 0 -1 0 792)" d="M427.935 252.236L427.935 265.803" stroke="#000000" stroke-width="0.398" fill="none" /><path id="1837" transform="matrix(1 0 0 -1 0 792)" d="M457.252 252.236L457.252 265.803" stroke="#000000" stroke-width="0.398" fill="none" /><path id="1838" transform="matrix(1 0 0 -1 0 792)" d="M117.338 252.037L457.451 252.037" stroke="#000000" stroke-width="0.398" fill="none" /><path id="1839" transform="matrix(1 0 0 -1 0 792)" d="M117.537 238.271L117.537 251.838" stroke="#000000" stroke-width="0.398" fill="none" /><path id="1845" transform="matrix(1 0 0 -1 0 792)" d="M154.2 242.553L157.189 242.553" stroke="#000000" stroke-width="0.398" fill="none" /><path id="1851" transform="matrix(1 0 0 -1 0 792)" d="M187.674 242.553L190.663 242.553" stroke="#000000" stroke-width="0.398" fill="none" /><path id="1856" transform="matrix(1 0 0 -1 0 792)" d="M309.891 238.271L309.891 251.838" stroke="#000000" stroke-width="0.398" fill="none" /><path id="1858" transform="matrix(1 0 0 -1 0 792)" d="M368.913 238.271L368.913 251.838" stroke="#000000" stroke-width="0.398" fill="none" /><path id="1860" transform="matrix(1 0 0 -1 0 792)" d="M427.935 238.271L427.935 251.838" stroke="#000000" stroke-width="0.398" fill="none" /><path id="1862" transform="matrix(1 0 0 -1 0 792)" d="M457.252 238.271L457.252 251.838" stroke="#000000" stroke-width="0.398" fill="none" /><path id="1863" transform="matrix(1 0 0 -1 0 792)" d="M117.338 238.072L457.451 238.072" stroke="#000000" stroke-width="0.398" fill="none" /><path id="1864" transform="matrix(1 0 0 -1 0 792)" d="M117.537 224.306L117.537 237.873" stroke="#000000" stroke-width="0.398" fill="none" /><path id="1870" transform="matrix(1 0 0 -1 0 792)" d="M154.2 228.588L157.189 228.588" stroke="#000000" stroke-width="0.398" fill="none" /><path id="1876" transform="matrix(1 0 0 -1 0 792)" d="M187.674 228.588L190.663 228.588" stroke="#000000" stroke-width="0.398" fill="none" /><path id="1884" transform="matrix(1 0 0 -1 0 792)" d="M309.891 224.306L309.891 237.873" stroke="#000000" stroke-width="0.398" fill="none" /><path id="1886" transform="matrix(1 0 0 -1 0 792)" d="M368.913 224.306L368.913 237.873" stroke="#000000" stroke-width="0.398" fill="none" /><path id="1888" transform="matrix(1 0 0 -1 0 792)" d="M427.935 224.306L427.935 237.873" stroke="#000000" stroke-width="0.398" fill="none" /><path id="1890" transform="matrix(1 0 0 -1 0 792)" d="M457.252 224.306L457.252 237.873" stroke="#000000" stroke-width="0.398" fill="none" /><path id="1891" transform="matrix(1 0 0 -1 0 792)" d="M117.338 224.107L457.451 224.107" stroke="#000000" stroke-width="0.398" fill="none" /><path id="1892" transform="matrix(1 0 0 -1 0 792)" d="M117.537 210.341L117.537 223.908" stroke="#000000" stroke-width="0.398" fill="none" /><path id="1900" transform="matrix(1 0 0 -1 0 792)" d="M166.155 214.622L169.144 214.622" stroke="#000000" stroke-width="0.398" fill="none" /><path id="1906" transform="matrix(1 0 0 -1 0 792)" d="M199.629 214.622L202.618 214.622" stroke="#000000" stroke-width="0.398" fill="none" /><path id="1912" transform="matrix(1 0 0 -1 0 792)" d="M309.891 210.341L309.891 223.908" stroke="#000000" stroke-width="0.398" fill="none" /><path id="1914" transform="matrix(1 0 0 -1 0 792)" d="M368.913 210.341L368.913 223.908" stroke="#000000" stroke-width="0.398" fill="none" /><path id="1916" transform="matrix(1 0 0 -1 0 792)" d="M427.935 210.341L427.935 223.908" stroke="#000000" stroke-width="0.398" fill="none" /><path id="1918" transform="matrix(1 0 0 -1 0 792)" d="M457.252 210.341L457.252 223.908" stroke="#000000" stroke-width="0.398" fill="none" /><path id="1919" transform="matrix(1 0 0 -1 0 792)" d="M117.338 210.142L457.451 210.142" stroke="#000000" stroke-width="0.398" fill="none" /><path id="1920" transform="matrix(1 0 0 -1 0 792)" d="M117.537 196.376L117.537 209.943" stroke="#000000" stroke-width="0.398" fill="none" /><path id="1928" transform="matrix(1 0 0 -1 0 792)" d="M166.155 200.657L169.144 200.657" stroke="#000000" stroke-width="0.398" fill="none" /><path id="1934" transform="matrix(1 0 0 -1 0 792)" d="M199.629 200.657L202.618 200.657" stroke="#000000" stroke-width="0.398" fill="none" /><path id="1940" transform="matrix(1 0 0 -1 0 792)" d="M233.104 200.657L236.093 200.657" stroke="#000000" stroke-width="0.398" fill="none" /><path id="1945" transform="matrix(1 0 0 -1 0 792)" d="M309.891 196.376L309.891 209.943" stroke="#000000" stroke-width="0.398" fill="none" /><path id="1947" transform="matrix(1 0 0 -1 0 792)" d="M368.913 196.376L368.913 209.943" stroke="#000000" stroke-width="0.398" fill="none" /><path id="1949" transform="matrix(1 0 0 -1 0 792)" d="M427.935 196.376L427.935 209.943" stroke="#000000" stroke-width="0.398" fill="none" /><path id="1951" transform="matrix(1 0 0 -1 0 792)" d="M457.252 196.376L457.252 209.943" stroke="#000000" stroke-width="0.398" fill="none" /><path id="1952" transform="matrix(1 0 0 -1 0 792)" d="M117.338 196.176L457.451 196.176" stroke="#000000" stroke-width="0.398" fill="none" /><path id="1953" transform="matrix(1 0 0 -1 0 792)" d="M117.537 182.411L117.537 195.978" stroke="#000000" stroke-width="0.398" fill="none" /><path id="1961" transform="matrix(1 0 0 -1 0 792)" d="M166.155 186.692L169.144 186.692" stroke="#000000" stroke-width="0.398" fill="none" /><path id="1967" transform="matrix(1 0 0 -1 0 792)" d="M199.629 186.692L202.618 186.692" stroke="#000000" stroke-width="0.398" fill="none" /><path id="1973" transform="matrix(1 0 0 -1 0 792)" d="M233.104 186.692L236.093 186.692" stroke="#000000" stroke-width="0.398" fill="none" /><path id="1980" transform="matrix(1 0 0 -1 0 792)" d="M309.891 182.411L309.891 195.978" stroke="#000000" stroke-width="0.398" fill="none" /><path id="1982" transform="matrix(1 0 0 -1 0 792)" d="M368.913 182.411L368.913 195.978" stroke="#000000" stroke-width="0.398" fill="none" /><path id="1984" transform="matrix(1 0 0 -1 0 792)" d="M427.935 182.411L427.935 195.978" stroke="#000000" stroke-width="0.398" fill="none" /><path id="1986" transform="matrix(1 0 0 -1 0 792)" d="M457.252 182.411L457.252 195.978" stroke="#000000" stroke-width="0.398" fill="none" /><path id="1987" transform="matrix(1 0 0 -1 0 792)" d="M117.338 182.211L457.451 182.211" stroke="#000000" stroke-width="0.398" fill="none" /><path id="1988" transform="matrix(1 0 0 -1 0 792)" d="M117.537 168.445L117.537 182.012" stroke="#000000" stroke-width="0.398" fill="none" /><path id="1996" transform="matrix(1 0 0 -1 0 792)" d="M166.155 172.727L169.144 172.727" stroke="#000000" stroke-width="0.398" fill="none" /><path id="2002" transform="matrix(1 0 0 -1 0 792)" d="M199.629 172.727L202.618 172.727" stroke="#000000" stroke-width="0.398" fill="none" /><path id="2008" transform="matrix(1 0 0 -1 0 792)" d="M233.104 172.727L236.093 172.727" stroke="#000000" stroke-width="0.398" fill="none" /><path id="2013" transform="matrix(1 0 0 -1 0 792)" d="M309.891 168.445L309.891 182.012" stroke="#000000" stroke-width="0.398" fill="none" /><path id="2015" transform="matrix(1 0 0 -1 0 792)" d="M368.913 168.445L368.913 182.012" stroke="#000000" stroke-width="0.398" fill="none" /><path id="2017" transform="matrix(1 0 0 -1 0 792)" d="M427.935 168.445L427.935 182.012" stroke="#000000" stroke-width="0.398" fill="none" /><path id="2019" transform="matrix(1 0 0 -1 0 792)" d="M457.252 168.445L457.252 182.012" stroke="#000000" stroke-width="0.398" fill="none" /><path id="2020" transform="matrix(1 0 0 -1 0 792)" d="M117.338 168.246L457.451 168.246" stroke="#000000" stroke-width="0.398" fill="none" /><path id="2021" transform="matrix(1 0 0 -1 0 792)" d="M117.537 154.48L117.537 168.047" stroke="#000000" stroke-width="0.398" fill="none" /><path id="2029" transform="matrix(1 0 0 -1 0 792)" d="M166.155 158.762L169.144 158.762" stroke="#000000" stroke-width="0.398" fill="none" /><path id="2035" transform="matrix(1 0 0 -1 0 792)" d="M199.629 158.762L202.618 158.762" stroke="#000000" stroke-width="0.398" fill="none" /><path id="2041" transform="matrix(1 0 0 -1 0 792)" d="M233.104 158.762L236.093 158.762" stroke="#000000" stroke-width="0.398" fill="none" /><path id="2049" transform="matrix(1 0 0 -1 0 792)" d="M309.891 154.48L309.891 168.047" stroke="#000000" stroke-width="0.398" fill="none" /><path id="2051" transform="matrix(1 0 0 -1 0 792)" d="M368.913 154.48L368.913 168.047" stroke="#000000" stroke-width="0.398" fill="none" /><path id="2053" transform="matrix(1 0 0 -1 0 792)" d="M427.935 154.48L427.935 168.047" stroke="#000000" stroke-width="0.398" fill="none" /><path id="2055" transform="matrix(1 0 0 -1 0 792)" d="M457.252 154.48L457.252 168.047" stroke="#000000" stroke-width="0.398" fill="none" /><path id="2056" transform="matrix(1 0 0 -1 0 792)" d="M117.338 154.281L457.451 154.281" stroke="#000000" stroke-width="0.398" fill="none" /></g></g></svg>