<svg xmlns="http://www.w3.org/2000/svg" xmlns:xlink="http://www.w3.org/1999/xlink" id="body_44" preserveAspectRatio="xMinYMin meet" viewBox="0 0 1632 1056"><defs><clipPath id="1"><path id="" clip-rule="evenodd" transform="matrix(1 0 0 1 0 0)" d="M0 792L0 0L0 0L1224 0L1224 0L1224 792L1224 792L0 792z" /></clipPath></defs><g transform="matrix(1.333333 0 0 1.333333 0 0)"><g clip-path="url(#1)"><path id="1" transform="matrix(1 0 0 -1 0 792)" d="M666.067 721.28L1132.722 721.28" stroke="#000000" stroke-width="0.498" fill="none" /><path id="2" transform="matrix(1 0 0 -1 0 792)" d="M794.865 663.265L797.854 663.265" stroke="#000000" stroke-width="0.398" fill="none" /><path id="3" transform="matrix(1 0 0 -1 0 792)" d="M794.865 640.667L797.854 640.667" stroke="#000000" stroke-width="0.398" fill="none" /><path id="4" transform="matrix(1 0 0 -1 0 792)" d="M806.82 618.069L809.809 618.069" stroke="#000000" stroke-width="0.398" fill="none" /><path id="28" transform="matrix(1 0 0 -1 0 792)" d="M1090.999 514.762L1093.988 514.762" stroke="#000000" stroke-width="0.398" fill="none" /><path id="29" transform="matrix(1 0 0 -1 0 792)" d="M726.605 501.213L729.594 501.213" stroke="#000000" stroke-width="0.398" fill="none" /><path id="30" transform="matrix(1 0 0 -1 0 792)" d="M1030.387 478.615L1033.376 478.615" stroke="#000000" stroke-width="0.398" fill="none" /><path id="31" transform="matrix(1 0 0 -1 0 792)" d="M1102.058 478.615L1105.047 478.615" stroke="#000000" stroke-width="0.398" fill="none" /><path id="32" transform="matrix(1 0 0 -1 0 792)" d="M712.757 465.065L715.746 465.065" stroke="#000000" stroke-width="0.398" fill="none" /><path id="33" transform="matrix(1 0 0 -1 0 792)" d="M1020.434 442.467L1023.423 442.467" stroke="#000000" stroke-width="0.398" fill="none" /><path id="34" transform="matrix(1 0 0 -1 0 792)" d="M1092.105 442.467L1095.094 442.467" stroke="#000000" stroke-width="0.398" fill="none" /><path id="35" transform="matrix(1 0 0 -1 0 792)" d="M902.406 392.771L905.395 392.771" stroke="#000000" stroke-width="0.398" fill="none" /><path id="47" transform="matrix(1 0 0 -1 0 792)" d="M666.067 722.529L1132.724 722.529L1132.724 722.529L1132.724 735.6745L1132.724 735.6745L666.067 735.6745z" stroke="#FFFFFF" stroke-width="1" fill="#FFFFFF" fill-rule="nonzero" /><path id="63" transform="matrix(1 0 0 -1 0 792)" d="M682.431 675.191L908.542 675.191L908.542 675.191L908.542 695.7437L908.542 695.7437L682.431 695.7437z" stroke="#FFFFFF" stroke-width="1" fill="#FFFFFF" fill-rule="nonzero" /><path id="78" transform="matrix(1 0 0 -1 0 792)" d="M682.431 652.593L1116.665 652.593L1116.665 652.593L1116.665 673.1457L1116.665 673.1457L682.431 673.1457z" stroke="#FFFFFF" stroke-width="1" fill="#FFFFFF" fill-rule="nonzero" /><path id="121" transform="matrix(1 0 0 -1 0 792)" d="M682.431 629.994L1112.727 629.994L1112.727 629.994L1112.727 650.5467L1112.727 650.5467L682.431 650.5467z" stroke="#FFFFFF" stroke-width="1" fill="#FFFFFF" fill-rule="nonzero" /><path id="150" transform="matrix(1 0 0 -1 0 792)" d="M682.431 607.396L1128.926 607.396L1128.926 607.396L1128.926 627.9488L1128.926 627.9488L682.431 627.9488z" stroke="#FFFFFF" stroke-width="1" fill="#FFFFFF" fill-rule="nonzero" /><path id="181" transform="matrix(1 0 0 -1 0 792)" d="M666.0671 564.224L952.4201 564.224L952.4201 564.224L952.4201 577.3695L952.4201 577.3695L666.0671 577.3695z" stroke="#FFFFFF" stroke-width="1" fill="#FFFFFF" fill-rule="nonzero" /><path id="206" transform="matrix(1 0 0 -1 0 792)" d="M683.004 550.654L1132.723 550.654L1132.723 550.654L1132.723 563.7995L1132.723 563.7995L683.004 563.7995z" stroke="#FFFFFF" stroke-width="1" fill="#FFFFFF" fill-rule="nonzero" /><path id="232" transform="matrix(1 0 0 -1 0 792)" d="M666.067 537.105L899.663 537.105L899.663 537.105L899.663 550.2505L899.663 550.2505L666.067 550.2505z" stroke="#FFFFFF" stroke-width="1" fill="#FFFFFF" fill-rule="nonzero" /><path id="249" transform="matrix(1 0 0 -1 0 792)" d="M682.431 504.09L1132.723 504.09L1132.723 504.09L1132.723 524.6428L1132.723 524.6428L682.431 524.6428z" stroke="#FFFFFF" stroke-width="1" fill="#FFFFFF" fill-rule="nonzero" /><path id="281" transform="matrix(1 0 0 -1 0 792)" d="M682.431 467.942L1132.722 467.942L1132.722 467.942L1132.722 488.4948L1132.722 488.4948L682.431 488.4948z" stroke="#FFFFFF" stroke-width="1" fill="#FFFFFF" fill-rule="nonzero" /><path id="303" transform="matrix(1 0 0 -1 0 792)" d="M682.431 431.795L1132.723 431.795L1132.723 431.795L1132.723 452.3478L1132.723 452.3478L682.431 452.3478z" stroke="#FFFFFF" stroke-width="1" fill="#FFFFFF" fill-rule="nonzero" /><path id="329" transform="matrix(1 0 0 -1 0 792)" d="M682.431 395.648L1132.726 395.648L1132.726 395.648L1132.726 416.2008L1132.726 416.2008L682.431 416.2008z" stroke="#FFFFFF" stroke-width="1" fill="#FFFFFF" fill-rule="nonzero" /><path id="348" transform="matrix(1 0 0 -1 0 792)" d="M693.34 389.174L979.716 389.174L979.716 389.174L979.716 402.6513L979.716 402.6513L693.34 402.6513z" stroke="#FFFFFF" stroke-width="1" fill="#FFFFFF" fill-rule="nonzero" /><path id="363" transform="matrix(1 0 0 -1 0 792)" d="M683.004 363.899L1132.721 363.899L1132.721 363.899L1132.721 377.0445L1132.721 377.0445L683.004 377.0445z" stroke="#FFFFFF" stroke-width="1" fill="#FFFFFF" fill-rule="nonzero" /><path id="391" transform="matrix(1 0 0 -1 0 792)" d="M666.067 336.468L1132.72 336.468L1132.72 336.468L1132.72 363.4952L1132.72 363.4952L666.067 363.4952z" stroke="#FFFFFF" stroke-width="1" fill="#FFFFFF" fill-rule="nonzero" /><path id="472" transform="matrix(1 0 0 -1 0 792)" d="M683.004 323.231L1132.72 323.231L1132.72 323.231L1132.72 336.3765L1132.72 336.3765L683.004 336.3765z" stroke="#FFFFFF" stroke-width="1" fill="#FFFFFF" fill-rule="nonzero" /><path id="500" transform="matrix(1 0 0 -1 0 792)" d="M682.431 276.666L944.271 276.666L944.271 276.666L944.271 297.2187L944.271 297.2187L682.431 297.2187z" stroke="#FFFFFF" stroke-width="1" fill="#FFFFFF" fill-rule="nonzero" /><path id="528" transform="matrix(1 0 0 -1 0 792)" d="M682.431 254.068L1114.381 254.068L1114.381 254.068L1114.381 274.6207L1114.381 274.6207L682.431 274.6207z" stroke="#FFFFFF" stroke-width="1" fill="#FFFFFF" fill-rule="nonzero" /><path id="586" transform="matrix(1 0 0 -1 0 792)" d="M682.431 231.469L1128.912 231.469L1128.912 231.469L1128.912 252.0217L1128.912 252.0217L682.431 252.0217z" stroke="#FFFFFF" stroke-width="1" fill="#FFFFFF" fill-rule="nonzero" /><path id="644" transform="matrix(1 0 0 -1 0 792)" d="M682.431 208.871L1132.726 208.871L1132.726 208.871L1132.726 229.4237L1132.726 229.4237L682.431 229.4237z" stroke="#FFFFFF" stroke-width="1" fill="#FFFFFF" fill-rule="nonzero" /><path id="670" transform="matrix(1 0 0 -1 0 792)" d="M682.431 172.724L1132.726 172.724L1132.726 172.724L1132.726 193.2767L1132.726 193.2767L682.431 193.2767z" stroke="#FFFFFF" stroke-width="1" fill="#FFFFFF" fill-rule="nonzero" /><path id="704" transform="matrix(1 0 0 -1 0 792)" d="M682.431 136.577L1132.723 136.577L1132.723 136.577L1132.723 157.1297L1132.723 157.1297L682.431 157.1297z" stroke="#FFFFFF" stroke-width="1" fill="#FFFFFF" fill-rule="nonzero" /><path id="752" transform="matrix(1 0 0 -1 0 792)" d="M693.34 130.435L935.936 130.435L935.936 130.435L935.936 143.5805L935.936 143.5805L693.34 143.5805z" stroke="#FFFFFF" stroke-width="1" fill="#FFFFFF" fill-rule="nonzero" /><path id="768" transform="matrix(1 0 0 -1 0 792)" d="M683.004 104.828L1132.72 104.828L1132.72 104.828L1132.72 117.9735L1132.72 117.9735L683.004 117.9735z" stroke="#FFFFFF" stroke-width="1" fill="#FFFFFF" fill-rule="nonzero" /><path id="800" transform="matrix(1 0 0 -1 0 792)" d="M666.067 64.1796L1132.725 64.1796L1132.725 64.1796L1132.725 104.423L1132.725 104.423L666.067 104.423z" stroke="#FFFFFF" stroke-width="1" fill="#FFFFFF" fill-rule="nonzero" /><path id="935" transform="matrix(1 0 0 -1 0 792)" d="M54.067 721.28L520.722 721.28" stroke="#000000" stroke-width="0.498" fill="none" /><path id="996" transform="matrix(1 0 0 -1 0 792)" d="M182.865 663.265L185.854 663.265" stroke="#000000" stroke-width="0.398" fill="none" /><path id="1078" transform="matrix(1 0 0 -1 0 792)" d="M182.865 640.667L185.854 640.667" stroke="#000000" stroke-width="0.398" fill="none" /><path id="1161" transform="matrix(1 0 0 -1 0 792)" d="M194.82 618.069L197.809 618.069" stroke="#000000" stroke-width="0.398" fill="none" /><path id="1511" transform="matrix(1 0 0 -1 0 792)" d="M478.999 514.762L481.988 514.762" stroke="#000000" stroke-width="0.398" fill="none" /><path id="1523" transform="matrix(1 0 0 -1 0 792)" d="M114.605 501.213L117.594 501.213" stroke="#000000" stroke-width="0.398" fill="none" /><path id="1593" transform="matrix(1 0 0 -1 0 792)" d="M418.387 478.615L421.376 478.615" stroke="#000000" stroke-width="0.398" fill="none" /><path id="1604" transform="matrix(1 0 0 -1 0 792)" d="M490.058 478.615L493.047 478.615" stroke="#000000" stroke-width="0.398" fill="none" /><path id="1613" transform="matrix(1 0 0 -1 0 792)" d="M100.757 465.065L103.746 465.065" stroke="#000000" stroke-width="0.398" fill="none" /><path id="1679" transform="matrix(1 0 0 -1 0 792)" d="M408.434 442.467L411.423 442.467" stroke="#000000" stroke-width="0.398" fill="none" /><path id="1690" transform="matrix(1 0 0 -1 0 792)" d="M480.105 442.467L483.094 442.467" stroke="#000000" stroke-width="0.398" fill="none" /><path id="1822" transform="matrix(1 0 0 -1 0 792)" d="M290.406 392.771L293.395 392.771" stroke="#000000" stroke-width="0.398" fill="none" /></g></g></svg>