<svg xmlns="http://www.w3.org/2000/svg" xmlns:xlink="http://www.w3.org/1999/xlink" id="body_62" preserveAspectRatio="xMinYMin meet" viewBox="0 0 1632 1056"><defs><clipPath id="1"><path id="" clip-rule="evenodd" transform="matrix(1 0 0 1 0 0)" d="M0 792L0 0L0 0L1224 0L1224 0L1224 792L1224 792L0 792z" /></clipPath></defs><g transform="matrix(1.333333 0 0 1.333333 0 0)"><g clip-path="url(#1)"><path id="1" transform="matrix(1 0 0 -1 0 792)" d="M666.067 721.28L1132.722 721.28" stroke="#000000" stroke-width="0.498" fill="none" /><path id="2" transform="matrix(1 0 0 -1 0 792)" d="M706.399 668.23L1092.391 668.23" stroke="#000000" stroke-width="0.398" fill="none" /><path id="3" transform="matrix(1 0 0 -1 0 792)" d="M706.598 654.465L706.598 668.032" stroke="#000000" stroke-width="0.398" fill="none" /><path id="4" transform="matrix(1 0 0 -1 0 792)" d="M706.797 654.465L898.752 654.465L898.752 668.032L706.797 668.032z" stroke="none" fill="#CCCCEB" fill-rule="nonzero" /><path id="10" transform="matrix(1 0 0 -1 0 792)" d="M898.951 654.465L898.951 668.032" stroke="#000000" stroke-width="0.398" fill="none" /><path id="11" transform="matrix(1 0 0 -1 0 792)" d="M899.151 654.465L957.775 654.465L957.775 668.032L899.151 668.032z" stroke="none" fill="#CCCCEB" fill-rule="nonzero" /><path id="21" transform="matrix(1 0 0 -1 0 792)" d="M957.974 654.465L957.974 668.032" stroke="#000000" stroke-width="0.398" fill="none" /><path id="22" transform="matrix(1 0 0 -1 0 792)" d="M958.173 654.465L1023.403 654.465L1023.403 668.032L958.173 668.032z" stroke="none" fill="#CCCCEB" fill-rule="nonzero" /><path id="30" transform="matrix(1 0 0 -1 0 792)" d="M1023.602 654.465L1023.602 668.032" stroke="#000000" stroke-width="0.398" fill="none" /><path id="31" transform="matrix(1 0 0 -1 0 792)" d="M1023.802 654.465L1091.993 654.465L1091.993 668.032L1023.802 668.032z" stroke="none" fill="#CCCCEB" fill-rule="nonzero" /><path id="35" transform="matrix(1 0 0 -1 0 792)" d="M1092.192 654.465L1092.192 668.032" stroke="#000000" stroke-width="0.398" fill="none" /><path id="36" transform="matrix(1 0 0 -1 0 792)" d="M706.598 640.898L706.598 654.465" stroke="#000000" stroke-width="0.398" fill="none" /><path id="37" transform="matrix(1 0 0 -1 0 792)" d="M706.797 640.898L898.752 640.898L898.752 654.465L706.797 654.465z" stroke="none" fill="#CCCCEB" fill-rule="nonzero" /><path id="38" transform="matrix(1 0 0 -1 0 792)" d="M898.951 640.898L898.951 654.465" stroke="#000000" stroke-width="0.398" fill="none" /><path id="39" transform="matrix(1 0 0 -1 0 792)" d="M899.151 640.898L957.775 640.898L957.775 654.465L899.151 654.465z" stroke="none" fill="#CCCCEB" fill-rule="nonzero" /><path id="40" transform="matrix(1 0 0 -1 0 792)" d="M957.974 640.898L957.974 654.465" stroke="#000000" stroke-width="0.398" fill="none" /><path id="41" transform="matrix(1 0 0 -1 0 792)" d="M958.173 640.898L1023.403 640.898L1023.403 654.465L958.173 654.465z" stroke="none" fill="#CCCCEB" fill-rule="nonzero" /><path id="47" transform="matrix(1 0 0 -1 0 792)" d="M1023.602 640.898L1023.602 654.465" stroke="#000000" stroke-width="0.398" fill="none" /><path id="48" transform="matrix(1 0 0 -1 0 792)" d="M1023.802 640.898L1091.993 640.898L1091.993 654.465L1023.802 654.465z" stroke="none" fill="#CCCCEB" fill-rule="nonzero" /><path id="49" transform="matrix(1 0 0 -1 0 792)" d="M1092.192 640.898L1092.192 654.465" stroke="#000000" stroke-width="0.398" fill="none" /><path id="50" transform="matrix(1 0 0 -1 0 792)" d="M706.399 640.699L1092.391 640.699" stroke="#000000" stroke-width="0.398" fill="none" /><path id="51" transform="matrix(1 0 0 -1 0 792)" d="M706.399 638.308L1092.391 638.308" stroke="#000000" stroke-width="0.398" fill="none" /><path id="52" transform="matrix(1 0 0 -1 0 792)" d="M706.598 624.542L706.598 638.109" stroke="#000000" stroke-width="0.398" fill="none" /><path id="59" transform="matrix(1 0 0 -1 0 792)" d="M749.238 628.823L752.227 628.823" stroke="#000000" stroke-width="0.398" fill="none" /><path id="67" transform="matrix(1 0 0 -1 0 792)" d="M898.951 624.542L898.951 638.109" stroke="#000000" stroke-width="0.398" fill="none" /><path id="69" transform="matrix(1 0 0 -1 0 792)" d="M957.974 624.542L957.974 638.109" stroke="#000000" stroke-width="0.398" fill="none" /><path id="78" transform="matrix(1 0 0 -1 0 792)" d="M1023.602 624.542L1023.602 638.109" stroke="#000000" stroke-width="0.398" fill="none" /><path id="90" transform="matrix(1 0 0 -1 0 792)" d="M1092.192 624.542L1092.192 638.109" stroke="#000000" stroke-width="0.398" fill="none" /><path id="91" transform="matrix(1 0 0 -1 0 792)" d="M706.399 624.342L1092.391 624.342" stroke="#000000" stroke-width="0.398" fill="none" /><path id="92" transform="matrix(1 0 0 -1 0 792)" d="M706.598 610.577L706.598 624.144" stroke="#000000" stroke-width="0.398" fill="none" /><path id="100" transform="matrix(1 0 0 -1 0 792)" d="M755.215 614.858L758.204 614.858" stroke="#000000" stroke-width="0.398" fill="none" /><path id="104" transform="matrix(1 0 0 -1 0 792)" d="M776.735 614.858L779.724 614.858" stroke="#000000" stroke-width="0.398" fill="none" /><path id="109" transform="matrix(1 0 0 -1 0 792)" d="M898.951 610.577L898.951 624.144" stroke="#000000" stroke-width="0.398" fill="none" /><path id="111" transform="matrix(1 0 0 -1 0 792)" d="M957.974 610.577L957.974 624.144" stroke="#000000" stroke-width="0.398" fill="none" /><path id="113" transform="matrix(1 0 0 -1 0 792)" d="M1023.602 610.577L1023.602 624.144" stroke="#000000" stroke-width="0.398" fill="none" /><path id="115" transform="matrix(1 0 0 -1 0 792)" d="M1092.192 610.577L1092.192 624.144" stroke="#000000" stroke-width="0.398" fill="none" /><path id="116" transform="matrix(1 0 0 -1 0 792)" d="M706.399 610.377L1092.391 610.377" stroke="#000000" stroke-width="0.398" fill="none" /><path id="117" transform="matrix(1 0 0 -1 0 792)" d="M706.598 596.611L706.598 610.178" stroke="#000000" stroke-width="0.398" fill="none" /><path id="125" transform="matrix(1 0 0 -1 0 792)" d="M755.215 600.893L758.204 600.893" stroke="#000000" stroke-width="0.398" fill="none" /><path id="129" transform="matrix(1 0 0 -1 0 792)" d="M776.735 600.893L779.724 600.893" stroke="#000000" stroke-width="0.398" fill="none" /><path id="135" transform="matrix(1 0 0 -1 0 792)" d="M898.951 596.611L898.951 610.178" stroke="#000000" stroke-width="0.398" fill="none" /><path id="137" transform="matrix(1 0 0 -1 0 792)" d="M957.974 596.611L957.974 610.178" stroke="#000000" stroke-width="0.398" fill="none" /><path id="139" transform="matrix(1 0 0 -1 0 792)" d="M1023.602 596.611L1023.602 610.178" stroke="#000000" stroke-width="0.398" fill="none" /><path id="141" transform="matrix(1 0 0 -1 0 792)" d="M1092.192 596.611L1092.192 610.178" stroke="#000000" stroke-width="0.398" fill="none" /><path id="142" transform="matrix(1 0 0 -1 0 792)" d="M706.399 596.412L1092.391 596.412" stroke="#000000" stroke-width="0.398" fill="none" /><path id="143" transform="matrix(1 0 0 -1 0 792)" d="M706.598 582.646L706.598 596.213" stroke="#000000" stroke-width="0.398" fill="none" /><path id="151" transform="matrix(1 0 0 -1 0 792)" d="M755.215 586.928L758.204 586.928" stroke="#000000" stroke-width="0.398" fill="none" /><path id="155" transform="matrix(1 0 0 -1 0 792)" d="M776.735 586.928L779.724 586.928" stroke="#000000" stroke-width="0.398" fill="none" /><path id="160" transform="matrix(1 0 0 -1 0 792)" d="M898.951 582.646L898.951 596.213" stroke="#000000" stroke-width="0.398" fill="none" /><path id="162" transform="matrix(1 0 0 -1 0 792)" d="M957.974 582.646L957.974 596.213" stroke="#000000" stroke-width="0.398" fill="none" /><path id="164" transform="matrix(1 0 0 -1 0 792)" d="M1023.602 582.646L1023.602 596.213" stroke="#000000" stroke-width="0.398" fill="none" /><path id="166" transform="matrix(1 0 0 -1 0 792)" d="M1092.192 582.646L1092.192 596.213" stroke="#000000" stroke-width="0.398" fill="none" /><path id="167" transform="matrix(1 0 0 -1 0 792)" d="M706.399 582.447L1092.391 582.447" stroke="#000000" stroke-width="0.398" fill="none" /><path id="168" transform="matrix(1 0 0 -1 0 792)" d="M706.598 568.681L706.598 582.248" stroke="#000000" stroke-width="0.398" fill="none" /><path id="176" transform="matrix(1 0 0 -1 0 792)" d="M755.215 572.963L758.204 572.963" stroke="#000000" stroke-width="0.398" fill="none" /><path id="180" transform="matrix(1 0 0 -1 0 792)" d="M776.735 572.963L779.724 572.963" stroke="#000000" stroke-width="0.398" fill="none" /><path id="187" transform="matrix(1 0 0 -1 0 792)" d="M898.951 568.681L898.951 582.248" stroke="#000000" stroke-width="0.398" fill="none" /><path id="189" transform="matrix(1 0 0 -1 0 792)" d="M957.974 568.681L957.974 582.248" stroke="#000000" stroke-width="0.398" fill="none" /><path id="191" transform="matrix(1 0 0 -1 0 792)" d="M1023.602 568.681L1023.602 582.248" stroke="#000000" stroke-width="0.398" fill="none" /><path id="193" transform="matrix(1 0 0 -1 0 792)" d="M1092.192 568.681L1092.192 582.248" stroke="#000000" stroke-width="0.398" fill="none" /><path id="194" transform="matrix(1 0 0 -1 0 792)" d="M706.399 568.482L1092.391 568.482" stroke="#000000" stroke-width="0.398" fill="none" /><path id="195" transform="matrix(1 0 0 -1 0 792)" d="M706.598 554.716L706.598 568.283" stroke="#000000" stroke-width="0.398" fill="none" /><path id="199" transform="matrix(1 0 0 -1 0 792)" d="M731.305 558.997L734.294 558.997" stroke="#000000" stroke-width="0.398" fill="none" /><path id="205" transform="matrix(1 0 0 -1 0 792)" d="M898.951 554.716L898.951 568.283" stroke="#000000" stroke-width="0.398" fill="none" /><path id="207" transform="matrix(1 0 0 -1 0 792)" d="M957.974 554.716L957.974 568.283" stroke="#000000" stroke-width="0.398" fill="none" /><path id="209" transform="matrix(1 0 0 -1 0 792)" d="M1023.602 554.716L1023.602 568.283" stroke="#000000" stroke-width="0.398" fill="none" /><path id="211" transform="matrix(1 0 0 -1 0 792)" d="M1092.192 554.716L1092.192 568.283" stroke="#000000" stroke-width="0.398" fill="none" /><path id="212" transform="matrix(1 0 0 -1 0 792)" d="M706.399 554.517L1092.391 554.517" stroke="#000000" stroke-width="0.398" fill="none" /><path id="213" transform="matrix(1 0 0 -1 0 792)" d="M706.598 540.751L706.598 554.318" stroke="#000000" stroke-width="0.398" fill="none" /><path id="220" transform="matrix(1 0 0 -1 0 792)" d="M749.238 545.032L752.227 545.032" stroke="#000000" stroke-width="0.398" fill="none" /><path id="226" transform="matrix(1 0 0 -1 0 792)" d="M898.951 540.751L898.951 554.318" stroke="#000000" stroke-width="0.398" fill="none" /><path id="228" transform="matrix(1 0 0 -1 0 792)" d="M957.974 540.751L957.974 554.318" stroke="#000000" stroke-width="0.398" fill="none" /><path id="230" transform="matrix(1 0 0 -1 0 792)" d="M1023.602 540.751L1023.602 554.318" stroke="#000000" stroke-width="0.398" fill="none" /><path id="232" transform="matrix(1 0 0 -1 0 792)" d="M1092.192 540.751L1092.192 554.318" stroke="#000000" stroke-width="0.398" fill="none" /><path id="233" transform="matrix(1 0 0 -1 0 792)" d="M706.399 540.552L1092.391 540.552" stroke="#000000" stroke-width="0.398" fill="none" /><path id="234" transform="matrix(1 0 0 -1 0 792)" d="M706.598 526.786L706.598 540.353" stroke="#000000" stroke-width="0.398" fill="none" /><path id="242" transform="matrix(1 0 0 -1 0 792)" d="M755.215 531.067L758.204 531.067" stroke="#000000" stroke-width="0.398" fill="none" /><path id="246" transform="matrix(1 0 0 -1 0 792)" d="M776.735 531.067L779.724 531.067" stroke="#000000" stroke-width="0.398" fill="none" /><path id="251" transform="matrix(1 0 0 -1 0 792)" d="M898.951 526.786L898.951 540.353" stroke="#000000" stroke-width="0.398" fill="none" /><path id="253" transform="matrix(1 0 0 -1 0 792)" d="M957.974 526.786L957.974 540.353" stroke="#000000" stroke-width="0.398" fill="none" /><path id="255" transform="matrix(1 0 0 -1 0 792)" d="M1023.602 526.786L1023.602 540.353" stroke="#000000" stroke-width="0.398" fill="none" /><path id="257" transform="matrix(1 0 0 -1 0 792)" d="M1092.192 526.786L1092.192 540.353" stroke="#000000" stroke-width="0.398" fill="none" /><path id="258" transform="matrix(1 0 0 -1 0 792)" d="M706.399 526.586L1092.391 526.586" stroke="#000000" stroke-width="0.398" fill="none" /><path id="259" transform="matrix(1 0 0 -1 0 792)" d="M706.598 512.821L706.598 526.388" stroke="#000000" stroke-width="0.398" fill="none" /><path id="267" transform="matrix(1 0 0 -1 0 792)" d="M755.215 517.102L758.204 517.102" stroke="#000000" stroke-width="0.398" fill="none" /><path id="271" transform="matrix(1 0 0 -1 0 792)" d="M898.951 512.821L898.951 526.388" stroke="#000000" stroke-width="0.398" fill="none" /><path id="273" transform="matrix(1 0 0 -1 0 792)" d="M957.974 512.821L957.974 526.388" stroke="#000000" stroke-width="0.398" fill="none" /><path id="275" transform="matrix(1 0 0 -1 0 792)" d="M1023.602 512.821L1023.602 526.388" stroke="#000000" stroke-width="0.398" fill="none" /><path id="277" transform="matrix(1 0 0 -1 0 792)" d="M1092.192 512.821L1092.192 526.388" stroke="#000000" stroke-width="0.398" fill="none" /><path id="278" transform="matrix(1 0 0 -1 0 792)" d="M706.399 512.621L1092.391 512.621" stroke="#000000" stroke-width="0.398" fill="none" /><path id="279" transform="matrix(1 0 0 -1 0 792)" d="M706.598 498.855L706.598 512.422" stroke="#000000" stroke-width="0.398" fill="none" /><path id="287" transform="matrix(1 0 0 -1 0 792)" d="M755.215 503.137L758.204 503.137" stroke="#000000" stroke-width="0.398" fill="none" /><path id="293" transform="matrix(1 0 0 -1 0 792)" d="M898.951 498.855L898.951 512.422" stroke="#000000" stroke-width="0.398" fill="none" /><path id="295" transform="matrix(1 0 0 -1 0 792)" d="M957.974 498.855L957.974 512.422" stroke="#000000" stroke-width="0.398" fill="none" /><path id="297" transform="matrix(1 0 0 -1 0 792)" d="M1023.602 498.855L1023.602 512.422" stroke="#000000" stroke-width="0.398" fill="none" /><path id="299" transform="matrix(1 0 0 -1 0 792)" d="M1092.192 498.855L1092.192 512.422" stroke="#000000" stroke-width="0.398" fill="none" /><path id="300" transform="matrix(1 0 0 -1 0 792)" d="M706.399 498.656L1092.391 498.656" stroke="#000000" stroke-width="0.398" fill="none" /><path id="301" transform="matrix(1 0 0 -1 0 792)" d="M706.598 484.89L706.598 498.457" stroke="#000000" stroke-width="0.398" fill="none" /><path id="310" transform="matrix(1 0 0 -1 0 792)" d="M759.201 489.172L762.19 489.172" stroke="#000000" stroke-width="0.398" fill="none" /><path id="314" transform="matrix(1 0 0 -1 0 792)" d="M898.951 484.89L898.951 498.457" stroke="#000000" stroke-width="0.398" fill="none" /><path id="316" transform="matrix(1 0 0 -1 0 792)" d="M957.974 484.89L957.974 498.457" stroke="#000000" stroke-width="0.398" fill="none" /><path id="318" transform="matrix(1 0 0 -1 0 792)" d="M1023.602 484.89L1023.602 498.457" stroke="#000000" stroke-width="0.398" fill="none" /><path id="320" transform="matrix(1 0 0 -1 0 792)" d="M1092.192 484.89L1092.192 498.457" stroke="#000000" stroke-width="0.398" fill="none" /><path id="321" transform="matrix(1 0 0 -1 0 792)" d="M706.399 484.691L1092.391 484.691" stroke="#000000" stroke-width="0.398" fill="none" /><path id="322" transform="matrix(1 0 0 -1 0 792)" d="M706.598 470.925L706.598 484.492" stroke="#000000" stroke-width="0.398" fill="none" /><path id="331" transform="matrix(1 0 0 -1 0 792)" d="M759.201 475.207L762.19 475.207" stroke="#000000" stroke-width="0.398" fill="none" /><path id="337" transform="matrix(1 0 0 -1 0 792)" d="M898.951 470.925L898.951 484.492" stroke="#000000" stroke-width="0.398" fill="none" /><path id="339" transform="matrix(1 0 0 -1 0 792)" d="M957.974 470.925L957.974 484.492" stroke="#000000" stroke-width="0.398" fill="none" /><path id="341" transform="matrix(1 0 0 -1 0 792)" d="M1023.602 470.925L1023.602 484.492" stroke="#000000" stroke-width="0.398" fill="none" /><path id="343" transform="matrix(1 0 0 -1 0 792)" d="M1092.192 470.925L1092.192 484.492" stroke="#000000" stroke-width="0.398" fill="none" /><path id="344" transform="matrix(1 0 0 -1 0 792)" d="M706.399 470.726L1092.391 470.726" stroke="#000000" stroke-width="0.398" fill="none" /><path id="345" transform="matrix(1 0 0 -1 0 792)" d="M706.598 456.96L706.598 470.527" stroke="#000000" stroke-width="0.398" fill="none" /><path id="358" transform="matrix(1 0 0 -1 0 792)" d="M783.111 461.241L786.1 461.241" stroke="#000000" stroke-width="0.398" fill="none" /><path id="362" transform="matrix(1 0 0 -1 0 792)" d="M898.951 456.96L898.951 470.527" stroke="#000000" stroke-width="0.398" fill="none" /><path id="364" transform="matrix(1 0 0 -1 0 792)" d="M957.974 456.96L957.974 470.527" stroke="#000000" stroke-width="0.398" fill="none" /><path id="366" transform="matrix(1 0 0 -1 0 792)" d="M1023.602 456.96L1023.602 470.527" stroke="#000000" stroke-width="0.398" fill="none" /><path id="368" transform="matrix(1 0 0 -1 0 792)" d="M1092.192 456.96L1092.192 470.527" stroke="#000000" stroke-width="0.398" fill="none" /><path id="369" transform="matrix(1 0 0 -1 0 792)" d="M706.399 456.761L1092.391 456.761" stroke="#000000" stroke-width="0.398" fill="none" /><path id="370" transform="matrix(1 0 0 -1 0 792)" d="M706.598 442.995L706.598 456.562" stroke="#000000" stroke-width="0.398" fill="none" /><path id="383" transform="matrix(1 0 0 -1 0 792)" d="M783.111 447.276L786.1 447.276" stroke="#000000" stroke-width="0.398" fill="none" /><path id="389" transform="matrix(1 0 0 -1 0 792)" d="M898.951 442.995L898.951 456.562" stroke="#000000" stroke-width="0.398" fill="none" /><path id="391" transform="matrix(1 0 0 -1 0 792)" d="M957.974 442.995L957.974 456.562" stroke="#000000" stroke-width="0.398" fill="none" /><path id="393" transform="matrix(1 0 0 -1 0 792)" d="M1023.602 442.995L1023.602 456.562" stroke="#000000" stroke-width="0.398" fill="none" /><path id="395" transform="matrix(1 0 0 -1 0 792)" d="M1092.192 442.995L1092.192 456.562" stroke="#000000" stroke-width="0.398" fill="none" /><path id="396" transform="matrix(1 0 0 -1 0 792)" d="M706.399 442.796L1092.391 442.796" stroke="#000000" stroke-width="0.398" fill="none" /><path id="397" transform="matrix(1 0 0 -1 0 792)" d="M706.598 429.03L706.598 442.597" stroke="#000000" stroke-width="0.398" fill="none" /><path id="401" transform="matrix(1 0 0 -1 0 792)" d="M731.305 433.311L734.294 433.311" stroke="#000000" stroke-width="0.398" fill="none" /><path id="407" transform="matrix(1 0 0 -1 0 792)" d="M898.951 429.03L898.951 442.597" stroke="#000000" stroke-width="0.398" fill="none" /><path id="409" transform="matrix(1 0 0 -1 0 792)" d="M957.974 429.03L957.974 442.597" stroke="#000000" stroke-width="0.398" fill="none" /><path id="411" transform="matrix(1 0 0 -1 0 792)" d="M1023.602 429.03L1023.602 442.597" stroke="#000000" stroke-width="0.398" fill="none" /><path id="413" transform="matrix(1 0 0 -1 0 792)" d="M1092.192 429.03L1092.192 442.597" stroke="#000000" stroke-width="0.398" fill="none" /><path id="414" transform="matrix(1 0 0 -1 0 792)" d="M706.399 428.83L1092.391 428.83" stroke="#000000" stroke-width="0.398" fill="none" /><path id="415" transform="matrix(1 0 0 -1 0 792)" d="M706.598 415.064L706.598 428.631" stroke="#000000" stroke-width="0.398" fill="none" /><path id="421" transform="matrix(1 0 0 -1 0 792)" d="M743.2599 419.346L746.249 419.346" stroke="#000000" stroke-width="0.398" fill="none" /><path id="427" transform="matrix(1 0 0 -1 0 792)" d="M898.951 415.064L898.951 428.631" stroke="#000000" stroke-width="0.398" fill="none" /><path id="429" transform="matrix(1 0 0 -1 0 792)" d="M957.974 415.064L957.974 428.631" stroke="#000000" stroke-width="0.398" fill="none" /><path id="431" transform="matrix(1 0 0 -1 0 792)" d="M1023.602 415.064L1023.602 428.631" stroke="#000000" stroke-width="0.398" fill="none" /><path id="433" transform="matrix(1 0 0 -1 0 792)" d="M1092.192 415.064L1092.192 428.631" stroke="#000000" stroke-width="0.398" fill="none" /><path id="434" transform="matrix(1 0 0 -1 0 792)" d="M706.399 414.865L1092.391 414.865" stroke="#000000" stroke-width="0.398" fill="none" /><path id="435" transform="matrix(1 0 0 -1 0 792)" d="M708.038 314.644L1090.751 314.644" stroke="#000000" stroke-width="0.398" fill="none" /><path id="436" transform="matrix(1 0 0 -1 0 792)" d="M708.237 300.878L708.237 314.445" stroke="#000000" stroke-width="0.398" fill="none" /><path id="437" transform="matrix(1 0 0 -1 0 792)" d="M708.437 300.878L900.392 300.878L900.392 314.445L708.437 314.445z" stroke="none" fill="#CCCCEB" fill-rule="nonzero" /><path id="443" transform="matrix(1 0 0 -1 0 792)" d="M900.591 300.878L900.591 314.445" stroke="#000000" stroke-width="0.398" fill="none" /><path id="444" transform="matrix(1 0 0 -1 0 792)" d="M900.79 300.878L959.414 300.878L959.414 314.445L900.79 314.445z" stroke="none" fill="#CCCCEB" fill-rule="nonzero" /><path id="454" transform="matrix(1 0 0 -1 0 792)" d="M959.613 300.878L959.613 314.445" stroke="#000000" stroke-width="0.398" fill="none" /><path id="455" transform="matrix(1 0 0 -1 0 792)" d="M959.812 300.878L1018.436 300.878L1018.436 314.445L959.812 314.445z" stroke="none" fill="#CCCCEB" fill-rule="nonzero" /><path id="463" transform="matrix(1 0 0 -1 0 792)" d="M1018.635 300.878L1018.635 314.445" stroke="#000000" stroke-width="0.398" fill="none" /><path id="464" transform="matrix(1 0 0 -1 0 792)" d="M1018.835 300.878L1090.353 300.878L1090.353 314.445L1018.835 314.445z" stroke="none" fill="#CCCCEB" fill-rule="nonzero" /><path id="468" transform="matrix(1 0 0 -1 0 792)" d="M1090.552 300.878L1090.552 314.445" stroke="#000000" stroke-width="0.398" fill="none" /><path id="469" transform="matrix(1 0 0 -1 0 792)" d="M708.237 287.311L708.237 300.878" stroke="#000000" stroke-width="0.398" fill="none" /><path id="470" transform="matrix(1 0 0 -1 0 792)" d="M708.437 287.311L900.392 287.311L900.392 300.878L708.437 300.878z" stroke="none" fill="#CCCCEB" fill-rule="nonzero" /><path id="471" transform="matrix(1 0 0 -1 0 792)" d="M900.591 287.311L900.591 300.878" stroke="#000000" stroke-width="0.398" fill="none" /><path id="472" transform="matrix(1 0 0 -1 0 792)" d="M900.79 287.311L959.414 287.311L959.414 300.878L900.79 300.878z" stroke="none" fill="#CCCCEB" fill-rule="nonzero" /><path id="473" transform="matrix(1 0 0 -1 0 792)" d="M959.613 287.311L959.613 300.878" stroke="#000000" stroke-width="0.398" fill="none" /><path id="474" transform="matrix(1 0 0 -1 0 792)" d="M959.812 287.311L1018.436 287.311L1018.436 300.878L959.812 300.878z" stroke="none" fill="#CCCCEB" fill-rule="nonzero" /><path id="480" transform="matrix(1 0 0 -1 0 792)" d="M1018.635 287.311L1018.635 300.878" stroke="#000000" stroke-width="0.398" fill="none" /><path id="481" transform="matrix(1 0 0 -1 0 792)" d="M1018.835 287.311L1090.353 287.311L1090.353 300.878L1018.835 300.878z" stroke="none" fill="#CCCCEB" fill-rule="nonzero" /><path id="482" transform="matrix(1 0 0 -1 0 792)" d="M1090.552 287.311L1090.552 300.878" stroke="#000000" stroke-width="0.398" fill="none" /><path id="483" transform="matrix(1 0 0 -1 0 792)" d="M708.038 287.112L1090.751 287.112" stroke="#000000" stroke-width="0.398" fill="none" /><path id="484" transform="matrix(1 0 0 -1 0 792)" d="M708.038 284.721L1090.751 284.721" stroke="#000000" stroke-width="0.398" fill="none" /><path id="485" transform="matrix(1 0 0 -1 0 792)" d="M708.237 270.955L708.237 284.522" stroke="#000000" stroke-width="0.398" fill="none" /><path id="490" transform="matrix(1 0 0 -1 0 792)" d="M738.922 275.237L741.911 275.237" stroke="#000000" stroke-width="0.398" fill="none" /><path id="497" transform="matrix(1 0 0 -1 0 792)" d="M900.591 270.955L900.591 284.522" stroke="#000000" stroke-width="0.398" fill="none" /><path id="499" transform="matrix(1 0 0 -1 0 792)" d="M959.613 270.955L959.613 284.522" stroke="#000000" stroke-width="0.398" fill="none" /><path id="501" transform="matrix(1 0 0 -1 0 792)" d="M1018.635 270.955L1018.635 284.522" stroke="#000000" stroke-width="0.398" fill="none" /><path id="503" transform="matrix(1 0 0 -1 0 792)" d="M1090.552 270.955L1090.552 284.522" stroke="#000000" stroke-width="0.398" fill="none" /><path id="504" transform="matrix(1 0 0 -1 0 792)" d="M708.038 270.756L1090.751 270.756" stroke="#000000" stroke-width="0.398" fill="none" /><path id="505" transform="matrix(1 0 0 -1 0 792)" d="M708.237 256.99L708.237 270.557" stroke="#000000" stroke-width="0.398" fill="none" /><path id="511" transform="matrix(1 0 0 -1 0 792)" d="M744.9 261.271L747.889 261.271" stroke="#000000" stroke-width="0.398" fill="none" /><path id="521" transform="matrix(1 0 0 -1 0 792)" d="M900.591 256.99L900.591 270.557" stroke="#000000" stroke-width="0.398" fill="none" /><path id="523" transform="matrix(1 0 0 -1 0 792)" d="M959.613 256.99L959.613 270.557" stroke="#000000" stroke-width="0.398" fill="none" /><path id="525" transform="matrix(1 0 0 -1 0 792)" d="M1018.635 256.99L1018.635 270.557" stroke="#000000" stroke-width="0.398" fill="none" /><path id="527" transform="matrix(1 0 0 -1 0 792)" d="M1090.552 256.99L1090.552 270.557" stroke="#000000" stroke-width="0.398" fill="none" /><path id="528" transform="matrix(1 0 0 -1 0 792)" d="M708.038 256.791L1090.751 256.791" stroke="#000000" stroke-width="0.398" fill="none" /><path id="529" transform="matrix(1 0 0 -1 0 792)" d="M708.237 243.025L708.237 256.592" stroke="#000000" stroke-width="0.398" fill="none" /><path id="535" transform="matrix(1 0 0 -1 0 792)" d="M744.9 247.306L747.889 247.306" stroke="#000000" stroke-width="0.398" fill="none" /><path id="545" transform="matrix(1 0 0 -1 0 792)" d="M900.591 243.025L900.591 256.592" stroke="#000000" stroke-width="0.398" fill="none" /><path id="547" transform="matrix(1 0 0 -1 0 792)" d="M959.613 243.025L959.613 256.592" stroke="#000000" stroke-width="0.398" fill="none" /><path id="552" transform="matrix(1 0 0 -1 0 792)" d="M1018.635 243.025L1018.635 256.592" stroke="#000000" stroke-width="0.398" fill="none" /><path id="564" transform="matrix(1 0 0 -1 0 792)" d="M1090.552 243.025L1090.552 256.592" stroke="#000000" stroke-width="0.398" fill="none" /><path id="565" transform="matrix(1 0 0 -1 0 792)" d="M708.038 242.825L1090.751 242.825" stroke="#000000" stroke-width="0.398" fill="none" /><path id="566" transform="matrix(1 0 0 -1 0 792)" d="M708.237 229.06L708.237 242.627" stroke="#000000" stroke-width="0.398" fill="none" /><path id="572" transform="matrix(1 0 0 -1 0 792)" d="M744.9 233.341L747.889 233.341" stroke="#000000" stroke-width="0.398" fill="none" /><path id="582" transform="matrix(1 0 0 -1 0 792)" d="M900.591 229.06L900.591 242.627" stroke="#000000" stroke-width="0.398" fill="none" /><path id="584" transform="matrix(1 0 0 -1 0 792)" d="M959.613 229.06L959.613 242.627" stroke="#000000" stroke-width="0.398" fill="none" /><path id="589" transform="matrix(1 0 0 -1 0 792)" d="M1018.635 229.06L1018.635 242.627" stroke="#000000" stroke-width="0.398" fill="none" /><path id="601" transform="matrix(1 0 0 -1 0 792)" d="M1090.552 229.06L1090.552 242.627" stroke="#000000" stroke-width="0.398" fill="none" /><path id="602" transform="matrix(1 0 0 -1 0 792)" d="M708.038 228.86L1090.751 228.86" stroke="#000000" stroke-width="0.398" fill="none" /><path id="603" transform="matrix(1 0 0 -1 0 792)" d="M708.237 215.094L708.237 228.661" stroke="#000000" stroke-width="0.398" fill="none" /><path id="611" transform="matrix(1 0 0 -1 0 792)" d="M756.855 219.376L759.844 219.376" stroke="#000000" stroke-width="0.398" fill="none" /><path id="621" transform="matrix(1 0 0 -1 0 792)" d="M900.591 215.094L900.591 228.661" stroke="#000000" stroke-width="0.398" fill="none" /><path id="623" transform="matrix(1 0 0 -1 0 792)" d="M959.613 215.094L959.613 228.661" stroke="#000000" stroke-width="0.398" fill="none" /><path id="627" transform="matrix(1 0 0 -1 0 792)" d="M1018.635 215.094L1018.635 228.661" stroke="#000000" stroke-width="0.398" fill="none" /><path id="639" transform="matrix(1 0 0 -1 0 792)" d="M1090.552 215.094L1090.552 228.661" stroke="#000000" stroke-width="0.398" fill="none" /><path id="640" transform="matrix(1 0 0 -1 0 792)" d="M708.038 214.895L1090.751 214.895" stroke="#000000" stroke-width="0.398" fill="none" /><path id="641" transform="matrix(1 0 0 -1 0 792)" d="M708.237 201.129L708.237 214.696" stroke="#000000" stroke-width="0.398" fill="none" /><path id="649" transform="matrix(1 0 0 -1 0 792)" d="M756.855 205.411L759.844 205.411" stroke="#000000" stroke-width="0.398" fill="none" /><path id="654" transform="matrix(1 0 0 -1 0 792)" d="M784.352 205.411L787.341 205.411" stroke="#000000" stroke-width="0.398" fill="none" /><path id="664" transform="matrix(1 0 0 -1 0 792)" d="M900.591 201.129L900.591 214.696" stroke="#000000" stroke-width="0.398" fill="none" /><path id="666" transform="matrix(1 0 0 -1 0 792)" d="M959.613 201.129L959.613 214.696" stroke="#000000" stroke-width="0.398" fill="none" /><path id="670" transform="matrix(1 0 0 -1 0 792)" d="M1018.635 201.129L1018.635 214.696" stroke="#000000" stroke-width="0.398" fill="none" /><path id="682" transform="matrix(1 0 0 -1 0 792)" d="M1090.552 201.129L1090.552 214.696" stroke="#000000" stroke-width="0.398" fill="none" /><path id="683" transform="matrix(1 0 0 -1 0 792)" d="M708.038 200.93L1090.751 200.93" stroke="#000000" stroke-width="0.398" fill="none" /><path id="684" transform="matrix(1 0 0 -1 0 792)" d="M708.237 187.164L708.237 200.731" stroke="#000000" stroke-width="0.398" fill="none" /><path id="690" transform="matrix(1 0 0 -1 0 792)" d="M744.9 191.446L747.889 191.446" stroke="#000000" stroke-width="0.398" fill="none" /><path id="696" transform="matrix(1 0 0 -1 0 792)" d="M778.374 191.446L781.363 191.446" stroke="#000000" stroke-width="0.398" fill="none" /><path id="702" transform="matrix(1 0 0 -1 0 792)" d="M900.591 187.164L900.591 200.731" stroke="#000000" stroke-width="0.398" fill="none" /><path id="704" transform="matrix(1 0 0 -1 0 792)" d="M959.613 187.164L959.613 200.731" stroke="#000000" stroke-width="0.398" fill="none" /><path id="712" transform="matrix(1 0 0 -1 0 792)" d="M1018.635 187.164L1018.635 200.731" stroke="#000000" stroke-width="0.398" fill="none" /><path id="722" transform="matrix(1 0 0 -1 0 792)" d="M1090.552 187.164L1090.552 200.731" stroke="#000000" stroke-width="0.398" fill="none" /><path id="723" transform="matrix(1 0 0 -1 0 792)" d="M708.038 186.965L1090.751 186.965" stroke="#000000" stroke-width="0.398" fill="none" /><path id="724" transform="matrix(1 0 0 -1 0 792)" d="M708.237 173.199L708.237 186.766" stroke="#000000" stroke-width="0.398" fill="none" /><path id="730" transform="matrix(1 0 0 -1 0 792)" d="M744.9 177.48L747.889 177.48" stroke="#000000" stroke-width="0.398" fill="none" /><path id="736" transform="matrix(1 0 0 -1 0 792)" d="M778.374 177.48L781.363 177.48" stroke="#000000" stroke-width="0.398" fill="none" /><path id="742" transform="matrix(1 0 0 -1 0 792)" d="M900.591 173.199L900.591 186.766" stroke="#000000" stroke-width="0.398" fill="none" /><path id="744" transform="matrix(1 0 0 -1 0 792)" d="M959.613 173.199L959.613 186.766" stroke="#000000" stroke-width="0.398" fill="none" /><path id="746" transform="matrix(1 0 0 -1 0 792)" d="M1018.635 173.199L1018.635 186.766" stroke="#000000" stroke-width="0.398" fill="none" /><path id="748" transform="matrix(1 0 0 -1 0 792)" d="M1090.552 173.199L1090.552 186.766" stroke="#000000" stroke-width="0.398" fill="none" /><path id="749" transform="matrix(1 0 0 -1 0 792)" d="M708.038 173L1090.751 173" stroke="#000000" stroke-width="0.398" fill="none" /><path id="750" transform="matrix(1 0 0 -1 0 792)" d="M708.237 159.234L708.237 172.801" stroke="#000000" stroke-width="0.398" fill="none" /><path id="756" transform="matrix(1 0 0 -1 0 792)" d="M744.9 163.515L747.889 163.515" stroke="#000000" stroke-width="0.398" fill="none" /><path id="762" transform="matrix(1 0 0 -1 0 792)" d="M778.374 163.515L781.363 163.515" stroke="#000000" stroke-width="0.398" fill="none" /><path id="768" transform="matrix(1 0 0 -1 0 792)" d="M900.591 159.234L900.591 172.801" stroke="#000000" stroke-width="0.398" fill="none" /><path id="770" transform="matrix(1 0 0 -1 0 792)" d="M959.613 159.234L959.613 172.801" stroke="#000000" stroke-width="0.398" fill="none" /><path id="772" transform="matrix(1 0 0 -1 0 792)" d="M1018.635 159.234L1018.635 172.801" stroke="#000000" stroke-width="0.398" fill="none" /><path id="784" transform="matrix(1 0 0 -1 0 792)" d="M1090.552 159.234L1090.552 172.801" stroke="#000000" stroke-width="0.398" fill="none" /><path id="785" transform="matrix(1 0 0 -1 0 792)" d="M708.038 159.035L1090.751 159.035" stroke="#000000" stroke-width="0.398" fill="none" /><path id="786" transform="matrix(1 0 0 -1 0 792)" d="M708.237 145.269L708.237 158.836" stroke="#000000" stroke-width="0.398" fill="none" /><path id="794" transform="matrix(1 0 0 -1 0 792)" d="M756.855 149.55L759.844 149.55" stroke="#000000" stroke-width="0.398" fill="none" /><path id="800" transform="matrix(1 0 0 -1 0 792)" d="M790.33 149.55L793.319 149.55" stroke="#000000" stroke-width="0.398" fill="none" /><path id="806" transform="matrix(1 0 0 -1 0 792)" d="M900.591 145.269L900.591 158.836" stroke="#000000" stroke-width="0.398" fill="none" /><path id="808" transform="matrix(1 0 0 -1 0 792)" d="M959.613 145.269L959.613 158.836" stroke="#000000" stroke-width="0.398" fill="none" /><path id="810" transform="matrix(1 0 0 -1 0 792)" d="M1018.635 145.269L1018.635 158.836" stroke="#000000" stroke-width="0.398" fill="none" /><path id="822" transform="matrix(1 0 0 -1 0 792)" d="M1090.552 145.269L1090.552 158.836" stroke="#000000" stroke-width="0.398" fill="none" /><path id="823" transform="matrix(1 0 0 -1 0 792)" d="M708.038 145.069L1090.751 145.069" stroke="#000000" stroke-width="0.398" fill="none" /><path id="824" transform="matrix(1 0 0 -1 0 792)" d="M708.237 131.304L708.237 144.871" stroke="#000000" stroke-width="0.398" fill="none" /><path id="830" transform="matrix(1 0 0 -1 0 792)" d="M744.9 135.585L747.889 135.585" stroke="#000000" stroke-width="0.398" fill="none" /><path id="836" transform="matrix(1 0 0 -1 0 792)" d="M778.374 135.585L781.363 135.585" stroke="#000000" stroke-width="0.398" fill="none" /><path id="842" transform="matrix(1 0 0 -1 0 792)" d="M900.591 131.304L900.591 144.871" stroke="#000000" stroke-width="0.398" fill="none" /><path id="844" transform="matrix(1 0 0 -1 0 792)" d="M959.613 131.304L959.613 144.871" stroke="#000000" stroke-width="0.398" fill="none" /><path id="846" transform="matrix(1 0 0 -1 0 792)" d="M1018.635 131.304L1018.635 144.871" stroke="#000000" stroke-width="0.398" fill="none" /><path id="848" transform="matrix(1 0 0 -1 0 792)" d="M1090.552 131.304L1090.552 144.871" stroke="#000000" stroke-width="0.398" fill="none" /><path id="849" transform="matrix(1 0 0 -1 0 792)" d="M708.038 131.104L1090.751 131.104" stroke="#000000" stroke-width="0.398" fill="none" /><path id="878" transform="matrix(1 0 0 -1 0 792)" d="M666.067 722.529L1132.724 722.529L1132.724 722.529L1132.724 735.6745L1132.724 735.6745L666.067 735.6745z" stroke="#FFFFFF" stroke-width="1" fill="#FFFFFF" fill-rule="nonzero" /><path id="888" transform="matrix(1 0 0 -1 0 792)" d="M792.328 392.154L1006.463 392.154L1006.463 392.154L1006.463 405.2995L1006.463 405.2995L792.328 405.2995z" stroke="#FFFFFF" stroke-width="1" fill="#FFFFFF" fill-rule="nonzero" /><path id="944" transform="matrix(1 0 0 -1 0 792)" d="M54.067 721.28L520.722 721.28" stroke="#000000" stroke-width="0.498" fill="none" /><path id="945" transform="matrix(1 0 0 -1 0 792)" d="M94.399 668.23L480.391 668.23" stroke="#000000" stroke-width="0.398" fill="none" /><path id="946" transform="matrix(1 0 0 -1 0 792)" d="M94.598 654.465L94.598 668.032" stroke="#000000" stroke-width="0.398" fill="none" /><path id="947" transform="matrix(1 0 0 -1 0 792)" d="M94.797 654.465L286.752 654.465L286.752 668.032L94.797 668.032z" stroke="none" fill="#CCCCEB" fill-rule="nonzero" /><path id="953" transform="matrix(1 0 0 -1 0 792)" d="M286.951 654.465L286.951 668.032" stroke="#000000" stroke-width="0.398" fill="none" /><path id="954" transform="matrix(1 0 0 -1 0 792)" d="M287.151 654.465L345.775 654.465L345.775 668.032L287.151 668.032z" stroke="none" fill="#CCCCEB" fill-rule="nonzero" /><path id="964" transform="matrix(1 0 0 -1 0 792)" d="M345.974 654.465L345.974 668.032" stroke="#000000" stroke-width="0.398" fill="none" /><path id="965" transform="matrix(1 0 0 -1 0 792)" d="M346.173 654.465L411.403 654.465L411.403 668.032L346.173 668.032z" stroke="none" fill="#CCCCEB" fill-rule="nonzero" /><path id="973" transform="matrix(1 0 0 -1 0 792)" d="M411.602 654.465L411.602 668.032" stroke="#000000" stroke-width="0.398" fill="none" /><path id="974" transform="matrix(1 0 0 -1 0 792)" d="M411.802 654.465L479.993 654.465L479.993 668.032L411.802 668.032z" stroke="none" fill="#CCCCEB" fill-rule="nonzero" /><path id="978" transform="matrix(1 0 0 -1 0 792)" d="M480.192 654.465L480.192 668.032" stroke="#000000" stroke-width="0.398" fill="none" /><path id="979" transform="matrix(1 0 0 -1 0 792)" d="M94.598 640.898L94.598 654.465" stroke="#000000" stroke-width="0.398" fill="none" /><path id="980" transform="matrix(1 0 0 -1 0 792)" d="M94.797 640.898L286.752 640.898L286.752 654.465L94.797 654.465z" stroke="none" fill="#CCCCEB" fill-rule="nonzero" /><path id="981" transform="matrix(1 0 0 -1 0 792)" d="M286.951 640.898L286.951 654.465" stroke="#000000" stroke-width="0.398" fill="none" /><path id="982" transform="matrix(1 0 0 -1 0 792)" d="M287.151 640.898L345.775 640.898L345.775 654.465L287.151 654.465z" stroke="none" fill="#CCCCEB" fill-rule="nonzero" /><path id="983" transform="matrix(1 0 0 -1 0 792)" d="M345.974 640.898L345.974 654.465" stroke="#000000" stroke-width="0.398" fill="none" /><path id="984" transform="matrix(1 0 0 -1 0 792)" d="M346.173 640.898L411.403 640.898L411.403 654.465L346.173 654.465z" stroke="none" fill="#CCCCEB" fill-rule="nonzero" /><path id="990" transform="matrix(1 0 0 -1 0 792)" d="M411.602 640.898L411.602 654.465" stroke="#000000" stroke-width="0.398" fill="none" /><path id="991" transform="matrix(1 0 0 -1 0 792)" d="M411.802 640.898L479.993 640.898L479.993 654.465L411.802 654.465z" stroke="none" fill="#CCCCEB" fill-rule="nonzero" /><path id="992" transform="matrix(1 0 0 -1 0 792)" d="M480.192 640.898L480.192 654.465" stroke="#000000" stroke-width="0.398" fill="none" /><path id="993" transform="matrix(1 0 0 -1 0 792)" d="M94.399 640.699L480.391 640.699" stroke="#000000" stroke-width="0.398" fill="none" /><path id="994" transform="matrix(1 0 0 -1 0 792)" d="M94.399 638.308L480.391 638.308" stroke="#000000" stroke-width="0.398" fill="none" /><path id="995" transform="matrix(1 0 0 -1 0 792)" d="M94.598 624.542L94.598 638.109" stroke="#000000" stroke-width="0.398" fill="none" /><path id="1002" transform="matrix(1 0 0 -1 0 792)" d="M137.238 628.823L140.227 628.823" stroke="#000000" stroke-width="0.398" fill="none" /><path id="1010" transform="matrix(1 0 0 -1 0 792)" d="M286.951 624.542L286.951 638.109" stroke="#000000" stroke-width="0.398" fill="none" /><path id="1012" transform="matrix(1 0 0 -1 0 792)" d="M345.974 624.542L345.974 638.109" stroke="#000000" stroke-width="0.398" fill="none" /><path id="1021" transform="matrix(1 0 0 -1 0 792)" d="M411.602 624.542L411.602 638.109" stroke="#000000" stroke-width="0.398" fill="none" /><path id="1033" transform="matrix(1 0 0 -1 0 792)" d="M480.192 624.542L480.192 638.109" stroke="#000000" stroke-width="0.398" fill="none" /><path id="1034" transform="matrix(1 0 0 -1 0 792)" d="M94.399 624.342L480.391 624.342" stroke="#000000" stroke-width="0.398" fill="none" /><path id="1035" transform="matrix(1 0 0 -1 0 792)" d="M94.598 610.577L94.598 624.144" stroke="#000000" stroke-width="0.398" fill="none" /><path id="1043" transform="matrix(1 0 0 -1 0 792)" d="M143.215 614.858L146.204 614.858" stroke="#000000" stroke-width="0.398" fill="none" /><path id="1047" transform="matrix(1 0 0 -1 0 792)" d="M164.735 614.858L167.724 614.858" stroke="#000000" stroke-width="0.398" fill="none" /><path id="1052" transform="matrix(1 0 0 -1 0 792)" d="M286.951 610.577L286.951 624.144" stroke="#000000" stroke-width="0.398" fill="none" /><path id="1054" transform="matrix(1 0 0 -1 0 792)" d="M345.974 610.577L345.974 624.144" stroke="#000000" stroke-width="0.398" fill="none" /><path id="1056" transform="matrix(1 0 0 -1 0 792)" d="M411.602 610.577L411.602 624.144" stroke="#000000" stroke-width="0.398" fill="none" /><path id="1058" transform="matrix(1 0 0 -1 0 792)" d="M480.192 610.577L480.192 624.144" stroke="#000000" stroke-width="0.398" fill="none" /><path id="1059" transform="matrix(1 0 0 -1 0 792)" d="M94.399 610.377L480.391 610.377" stroke="#000000" stroke-width="0.398" fill="none" /><path id="1060" transform="matrix(1 0 0 -1 0 792)" d="M94.598 596.611L94.598 610.178" stroke="#000000" stroke-width="0.398" fill="none" /><path id="1068" transform="matrix(1 0 0 -1 0 792)" d="M143.215 600.893L146.204 600.893" stroke="#000000" stroke-width="0.398" fill="none" /><path id="1072" transform="matrix(1 0 0 -1 0 792)" d="M164.735 600.893L167.724 600.893" stroke="#000000" stroke-width="0.398" fill="none" /><path id="1078" transform="matrix(1 0 0 -1 0 792)" d="M286.951 596.611L286.951 610.178" stroke="#000000" stroke-width="0.398" fill="none" /><path id="1080" transform="matrix(1 0 0 -1 0 792)" d="M345.974 596.611L345.974 610.178" stroke="#000000" stroke-width="0.398" fill="none" /><path id="1082" transform="matrix(1 0 0 -1 0 792)" d="M411.602 596.611L411.602 610.178" stroke="#000000" stroke-width="0.398" fill="none" /><path id="1084" transform="matrix(1 0 0 -1 0 792)" d="M480.192 596.611L480.192 610.178" stroke="#000000" stroke-width="0.398" fill="none" /><path id="1085" transform="matrix(1 0 0 -1 0 792)" d="M94.399 596.412L480.391 596.412" stroke="#000000" stroke-width="0.398" fill="none" /><path id="1086" transform="matrix(1 0 0 -1 0 792)" d="M94.598 582.646L94.598 596.213" stroke="#000000" stroke-width="0.398" fill="none" /><path id="1094" transform="matrix(1 0 0 -1 0 792)" d="M143.215 586.928L146.204 586.928" stroke="#000000" stroke-width="0.398" fill="none" /><path id="1098" transform="matrix(1 0 0 -1 0 792)" d="M164.735 586.928L167.724 586.928" stroke="#000000" stroke-width="0.398" fill="none" /><path id="1103" transform="matrix(1 0 0 -1 0 792)" d="M286.951 582.646L286.951 596.213" stroke="#000000" stroke-width="0.398" fill="none" /><path id="1105" transform="matrix(1 0 0 -1 0 792)" d="M345.974 582.646L345.974 596.213" stroke="#000000" stroke-width="0.398" fill="none" /><path id="1107" transform="matrix(1 0 0 -1 0 792)" d="M411.602 582.646L411.602 596.213" stroke="#000000" stroke-width="0.398" fill="none" /><path id="1109" transform="matrix(1 0 0 -1 0 792)" d="M480.192 582.646L480.192 596.213" stroke="#000000" stroke-width="0.398" fill="none" /><path id="1110" transform="matrix(1 0 0 -1 0 792)" d="M94.399 582.447L480.391 582.447" stroke="#000000" stroke-width="0.398" fill="none" /><path id="1111" transform="matrix(1 0 0 -1 0 792)" d="M94.598 568.681L94.598 582.248" stroke="#000000" stroke-width="0.398" fill="none" /><path id="1119" transform="matrix(1 0 0 -1 0 792)" d="M143.215 572.963L146.204 572.963" stroke="#000000" stroke-width="0.398" fill="none" /><path id="1123" transform="matrix(1 0 0 -1 0 792)" d="M164.735 572.963L167.724 572.963" stroke="#000000" stroke-width="0.398" fill="none" /><path id="1130" transform="matrix(1 0 0 -1 0 792)" d="M286.951 568.681L286.951 582.248" stroke="#000000" stroke-width="0.398" fill="none" /><path id="1132" transform="matrix(1 0 0 -1 0 792)" d="M345.974 568.681L345.974 582.248" stroke="#000000" stroke-width="0.398" fill="none" /><path id="1134" transform="matrix(1 0 0 -1 0 792)" d="M411.602 568.681L411.602 582.248" stroke="#000000" stroke-width="0.398" fill="none" /><path id="1136" transform="matrix(1 0 0 -1 0 792)" d="M480.192 568.681L480.192 582.248" stroke="#000000" stroke-width="0.398" fill="none" /><path id="1137" transform="matrix(1 0 0 -1 0 792)" d="M94.399 568.482L480.391 568.482" stroke="#000000" stroke-width="0.398" fill="none" /><path id="1138" transform="matrix(1 0 0 -1 0 792)" d="M94.598 554.716L94.598 568.283" stroke="#000000" stroke-width="0.398" fill="none" /><path id="1142" transform="matrix(1 0 0 -1 0 792)" d="M119.305 558.997L122.294 558.997" stroke="#000000" stroke-width="0.398" fill="none" /><path id="1148" transform="matrix(1 0 0 -1 0 792)" d="M286.951 554.716L286.951 568.283" stroke="#000000" stroke-width="0.398" fill="none" /><path id="1150" transform="matrix(1 0 0 -1 0 792)" d="M345.974 554.716L345.974 568.283" stroke="#000000" stroke-width="0.398" fill="none" /><path id="1152" transform="matrix(1 0 0 -1 0 792)" d="M411.602 554.716L411.602 568.283" stroke="#000000" stroke-width="0.398" fill="none" /><path id="1154" transform="matrix(1 0 0 -1 0 792)" d="M480.192 554.716L480.192 568.283" stroke="#000000" stroke-width="0.398" fill="none" /><path id="1155" transform="matrix(1 0 0 -1 0 792)" d="M94.399 554.517L480.391 554.517" stroke="#000000" stroke-width="0.398" fill="none" /><path id="1156" transform="matrix(1 0 0 -1 0 792)" d="M94.598 540.751L94.598 554.318" stroke="#000000" stroke-width="0.398" fill="none" /><path id="1163" transform="matrix(1 0 0 -1 0 792)" d="M137.238 545.032L140.227 545.032" stroke="#000000" stroke-width="0.398" fill="none" /><path id="1169" transform="matrix(1 0 0 -1 0 792)" d="M286.951 540.751L286.951 554.318" stroke="#000000" stroke-width="0.398" fill="none" /><path id="1171" transform="matrix(1 0 0 -1 0 792)" d="M345.974 540.751L345.974 554.318" stroke="#000000" stroke-width="0.398" fill="none" /><path id="1173" transform="matrix(1 0 0 -1 0 792)" d="M411.602 540.751L411.602 554.318" stroke="#000000" stroke-width="0.398" fill="none" /><path id="1175" transform="matrix(1 0 0 -1 0 792)" d="M480.192 540.751L480.192 554.318" stroke="#000000" stroke-width="0.398" fill="none" /><path id="1176" transform="matrix(1 0 0 -1 0 792)" d="M94.399 540.552L480.391 540.552" stroke="#000000" stroke-width="0.398" fill="none" /><path id="1177" transform="matrix(1 0 0 -1 0 792)" d="M94.598 526.786L94.598 540.353" stroke="#000000" stroke-width="0.398" fill="none" /><path id="1185" transform="matrix(1 0 0 -1 0 792)" d="M143.215 531.067L146.204 531.067" stroke="#000000" stroke-width="0.398" fill="none" /><path id="1189" transform="matrix(1 0 0 -1 0 792)" d="M164.735 531.067L167.724 531.067" stroke="#000000" stroke-width="0.398" fill="none" /><path id="1194" transform="matrix(1 0 0 -1 0 792)" d="M286.951 526.786L286.951 540.353" stroke="#000000" stroke-width="0.398" fill="none" /><path id="1196" transform="matrix(1 0 0 -1 0 792)" d="M345.974 526.786L345.974 540.353" stroke="#000000" stroke-width="0.398" fill="none" /><path id="1198" transform="matrix(1 0 0 -1 0 792)" d="M411.602 526.786L411.602 540.353" stroke="#000000" stroke-width="0.398" fill="none" /><path id="1200" transform="matrix(1 0 0 -1 0 792)" d="M480.192 526.786L480.192 540.353" stroke="#000000" stroke-width="0.398" fill="none" /><path id="1201" transform="matrix(1 0 0 -1 0 792)" d="M94.399 526.586L480.391 526.586" stroke="#000000" stroke-width="0.398" fill="none" /><path id="1202" transform="matrix(1 0 0 -1 0 792)" d="M94.598 512.821L94.598 526.388" stroke="#000000" stroke-width="0.398" fill="none" /><path id="1210" transform="matrix(1 0 0 -1 0 792)" d="M143.215 517.102L146.204 517.102" stroke="#000000" stroke-width="0.398" fill="none" /><path id="1214" transform="matrix(1 0 0 -1 0 792)" d="M286.951 512.821L286.951 526.388" stroke="#000000" stroke-width="0.398" fill="none" /><path id="1216" transform="matrix(1 0 0 -1 0 792)" d="M345.974 512.821L345.974 526.388" stroke="#000000" stroke-width="0.398" fill="none" /><path id="1218" transform="matrix(1 0 0 -1 0 792)" d="M411.602 512.821L411.602 526.388" stroke="#000000" stroke-width="0.398" fill="none" /><path id="1220" transform="matrix(1 0 0 -1 0 792)" d="M480.192 512.821L480.192 526.388" stroke="#000000" stroke-width="0.398" fill="none" /><path id="1221" transform="matrix(1 0 0 -1 0 792)" d="M94.399 512.621L480.391 512.621" stroke="#000000" stroke-width="0.398" fill="none" /><path id="1222" transform="matrix(1 0 0 -1 0 792)" d="M94.598 498.855L94.598 512.422" stroke="#000000" stroke-width="0.398" fill="none" /><path id="1230" transform="matrix(1 0 0 -1 0 792)" d="M143.215 503.137L146.204 503.137" stroke="#000000" stroke-width="0.398" fill="none" /><path id="1236" transform="matrix(1 0 0 -1 0 792)" d="M286.951 498.855L286.951 512.422" stroke="#000000" stroke-width="0.398" fill="none" /><path id="1238" transform="matrix(1 0 0 -1 0 792)" d="M345.974 498.855L345.974 512.422" stroke="#000000" stroke-width="0.398" fill="none" /><path id="1240" transform="matrix(1 0 0 -1 0 792)" d="M411.602 498.855L411.602 512.422" stroke="#000000" stroke-width="0.398" fill="none" /><path id="1242" transform="matrix(1 0 0 -1 0 792)" d="M480.192 498.855L480.192 512.422" stroke="#000000" stroke-width="0.398" fill="none" /><path id="1243" transform="matrix(1 0 0 -1 0 792)" d="M94.399 498.656L480.391 498.656" stroke="#000000" stroke-width="0.398" fill="none" /><path id="1244" transform="matrix(1 0 0 -1 0 792)" d="M94.598 484.89L94.598 498.457" stroke="#000000" stroke-width="0.398" fill="none" /><path id="1253" transform="matrix(1 0 0 -1 0 792)" d="M147.201 489.172L150.19 489.172" stroke="#000000" stroke-width="0.398" fill="none" /><path id="1257" transform="matrix(1 0 0 -1 0 792)" d="M286.951 484.89L286.951 498.457" stroke="#000000" stroke-width="0.398" fill="none" /><path id="1259" transform="matrix(1 0 0 -1 0 792)" d="M345.974 484.89L345.974 498.457" stroke="#000000" stroke-width="0.398" fill="none" /><path id="1261" transform="matrix(1 0 0 -1 0 792)" d="M411.602 484.89L411.602 498.457" stroke="#000000" stroke-width="0.398" fill="none" /><path id="1263" transform="matrix(1 0 0 -1 0 792)" d="M480.192 484.89L480.192 498.457" stroke="#000000" stroke-width="0.398" fill="none" /><path id="1264" transform="matrix(1 0 0 -1 0 792)" d="M94.399 484.691L480.391 484.691" stroke="#000000" stroke-width="0.398" fill="none" /><path id="1265" transform="matrix(1 0 0 -1 0 792)" d="M94.598 470.925L94.598 484.492" stroke="#000000" stroke-width="0.398" fill="none" /><path id="1274" transform="matrix(1 0 0 -1 0 792)" d="M147.201 475.207L150.19 475.207" stroke="#000000" stroke-width="0.398" fill="none" /><path id="1280" transform="matrix(1 0 0 -1 0 792)" d="M286.951 470.925L286.951 484.492" stroke="#000000" stroke-width="0.398" fill="none" /><path id="1282" transform="matrix(1 0 0 -1 0 792)" d="M345.974 470.925L345.974 484.492" stroke="#000000" stroke-width="0.398" fill="none" /><path id="1284" transform="matrix(1 0 0 -1 0 792)" d="M411.602 470.925L411.602 484.492" stroke="#000000" stroke-width="0.398" fill="none" /><path id="1286" transform="matrix(1 0 0 -1 0 792)" d="M480.192 470.925L480.192 484.492" stroke="#000000" stroke-width="0.398" fill="none" /><path id="1287" transform="matrix(1 0 0 -1 0 792)" d="M94.399 470.726L480.391 470.726" stroke="#000000" stroke-width="0.398" fill="none" /><path id="1288" transform="matrix(1 0 0 -1 0 792)" d="M94.598 456.96L94.598 470.527" stroke="#000000" stroke-width="0.398" fill="none" /><path id="1301" transform="matrix(1 0 0 -1 0 792)" d="M171.111 461.241L174.1 461.241" stroke="#000000" stroke-width="0.398" fill="none" /><path id="1305" transform="matrix(1 0 0 -1 0 792)" d="M286.951 456.96L286.951 470.527" stroke="#000000" stroke-width="0.398" fill="none" /><path id="1307" transform="matrix(1 0 0 -1 0 792)" d="M345.974 456.96L345.974 470.527" stroke="#000000" stroke-width="0.398" fill="none" /><path id="1309" transform="matrix(1 0 0 -1 0 792)" d="M411.602 456.96L411.602 470.527" stroke="#000000" stroke-width="0.398" fill="none" /><path id="1311" transform="matrix(1 0 0 -1 0 792)" d="M480.192 456.96L480.192 470.527" stroke="#000000" stroke-width="0.398" fill="none" /><path id="1312" transform="matrix(1 0 0 -1 0 792)" d="M94.399 456.761L480.391 456.761" stroke="#000000" stroke-width="0.398" fill="none" /><path id="1313" transform="matrix(1 0 0 -1 0 792)" d="M94.598 442.995L94.598 456.562" stroke="#000000" stroke-width="0.398" fill="none" /><path id="1326" transform="matrix(1 0 0 -1 0 792)" d="M171.111 447.276L174.1 447.276" stroke="#000000" stroke-width="0.398" fill="none" /><path id="1332" transform="matrix(1 0 0 -1 0 792)" d="M286.951 442.995L286.951 456.562" stroke="#000000" stroke-width="0.398" fill="none" /><path id="1334" transform="matrix(1 0 0 -1 0 792)" d="M345.974 442.995L345.974 456.562" stroke="#000000" stroke-width="0.398" fill="none" /><path id="1336" transform="matrix(1 0 0 -1 0 792)" d="M411.602 442.995L411.602 456.562" stroke="#000000" stroke-width="0.398" fill="none" /><path id="1338" transform="matrix(1 0 0 -1 0 792)" d="M480.192 442.995L480.192 456.562" stroke="#000000" stroke-width="0.398" fill="none" /><path id="1339" transform="matrix(1 0 0 -1 0 792)" d="M94.399 442.796L480.391 442.796" stroke="#000000" stroke-width="0.398" fill="none" /><path id="1340" transform="matrix(1 0 0 -1 0 792)" d="M94.598 429.03L94.598 442.597" stroke="#000000" stroke-width="0.398" fill="none" /><path id="1344" transform="matrix(1 0 0 -1 0 792)" d="M119.305 433.311L122.294 433.311" stroke="#000000" stroke-width="0.398" fill="none" /><path id="1350" transform="matrix(1 0 0 -1 0 792)" d="M286.951 429.03L286.951 442.597" stroke="#000000" stroke-width="0.398" fill="none" /><path id="1352" transform="matrix(1 0 0 -1 0 792)" d="M345.974 429.03L345.974 442.597" stroke="#000000" stroke-width="0.398" fill="none" /><path id="1354" transform="matrix(1 0 0 -1 0 792)" d="M411.602 429.03L411.602 442.597" stroke="#000000" stroke-width="0.398" fill="none" /><path id="1356" transform="matrix(1 0 0 -1 0 792)" d="M480.192 429.03L480.192 442.597" stroke="#000000" stroke-width="0.398" fill="none" /><path id="1357" transform="matrix(1 0 0 -1 0 792)" d="M94.399 428.83L480.391 428.83" stroke="#000000" stroke-width="0.398" fill="none" /><path id="1358" transform="matrix(1 0 0 -1 0 792)" d="M94.598 415.064L94.598 428.631" stroke="#000000" stroke-width="0.398" fill="none" /><path id="1364" transform="matrix(1 0 0 -1 0 792)" d="M131.26 419.346L134.249 419.346" stroke="#000000" stroke-width="0.398" fill="none" /><path id="1370" transform="matrix(1 0 0 -1 0 792)" d="M286.951 415.064L286.951 428.631" stroke="#000000" stroke-width="0.398" fill="none" /><path id="1372" transform="matrix(1 0 0 -1 0 792)" d="M345.974 415.064L345.974 428.631" stroke="#000000" stroke-width="0.398" fill="none" /><path id="1374" transform="matrix(1 0 0 -1 0 792)" d="M411.602 415.064L411.602 428.631" stroke="#000000" stroke-width="0.398" fill="none" /><path id="1376" transform="matrix(1 0 0 -1 0 792)" d="M480.192 415.064L480.192 428.631" stroke="#000000" stroke-width="0.398" fill="none" /><path id="1377" transform="matrix(1 0 0 -1 0 792)" d="M94.399 414.865L480.391 414.865" stroke="#000000" stroke-width="0.398" fill="none" /><path id="1419" transform="matrix(1 0 0 -1 0 792)" d="M96.038 314.644L478.751 314.644" stroke="#000000" stroke-width="0.398" fill="none" /><path id="1420" transform="matrix(1 0 0 -1 0 792)" d="M96.237 300.878L96.237 314.445" stroke="#000000" stroke-width="0.398" fill="none" /><path id="1421" transform="matrix(1 0 0 -1 0 792)" d="M96.437 300.878L288.392 300.878L288.392 314.445L96.437 314.445z" stroke="none" fill="#CCCCEB" fill-rule="nonzero" /><path id="1427" transform="matrix(1 0 0 -1 0 792)" d="M288.591 300.878L288.591 314.445" stroke="#000000" stroke-width="0.398" fill="none" /><path id="1428" transform="matrix(1 0 0 -1 0 792)" d="M288.79 300.878L347.414 300.878L347.414 314.445L288.79 314.445z" stroke="none" fill="#CCCCEB" fill-rule="nonzero" /><path id="1438" transform="matrix(1 0 0 -1 0 792)" d="M347.613 300.878L347.613 314.445" stroke="#000000" stroke-width="0.398" fill="none" /><path id="1439" transform="matrix(1 0 0 -1 0 792)" d="M347.812 300.878L406.436 300.878L406.436 314.445L347.812 314.445z" stroke="none" fill="#CCCCEB" fill-rule="nonzero" /><path id="1447" transform="matrix(1 0 0 -1 0 792)" d="M406.635 300.878L406.635 314.445" stroke="#000000" stroke-width="0.398" fill="none" /><path id="1448" transform="matrix(1 0 0 -1 0 792)" d="M406.835 300.878L478.353 300.878L478.353 314.445L406.835 314.445z" stroke="none" fill="#CCCCEB" fill-rule="nonzero" /><path id="1452" transform="matrix(1 0 0 -1 0 792)" d="M478.552 300.878L478.552 314.445" stroke="#000000" stroke-width="0.398" fill="none" /><path id="1453" transform="matrix(1 0 0 -1 0 792)" d="M96.237 287.311L96.237 300.878" stroke="#000000" stroke-width="0.398" fill="none" /><path id="1454" transform="matrix(1 0 0 -1 0 792)" d="M96.437 287.311L288.392 287.311L288.392 300.878L96.437 300.878z" stroke="none" fill="#CCCCEB" fill-rule="nonzero" /><path id="1455" transform="matrix(1 0 0 -1 0 792)" d="M288.591 287.311L288.591 300.878" stroke="#000000" stroke-width="0.398" fill="none" /><path id="1456" transform="matrix(1 0 0 -1 0 792)" d="M288.79 287.311L347.414 287.311L347.414 300.878L288.79 300.878z" stroke="none" fill="#CCCCEB" fill-rule="nonzero" /><path id="1457" transform="matrix(1 0 0 -1 0 792)" d="M347.613 287.311L347.613 300.878" stroke="#000000" stroke-width="0.398" fill="none" /><path id="1458" transform="matrix(1 0 0 -1 0 792)" d="M347.812 287.311L406.436 287.311L406.436 300.878L347.812 300.878z" stroke="none" fill="#CCCCEB" fill-rule="nonzero" /><path id="1464" transform="matrix(1 0 0 -1 0 792)" d="M406.635 287.311L406.635 300.878" stroke="#000000" stroke-width="0.398" fill="none" /><path id="1465" transform="matrix(1 0 0 -1 0 792)" d="M406.835 287.311L478.353 287.311L478.353 300.878L406.835 300.878z" stroke="none" fill="#CCCCEB" fill-rule="nonzero" /><path id="1466" transform="matrix(1 0 0 -1 0 792)" d="M478.552 287.311L478.552 300.878" stroke="#000000" stroke-width="0.398" fill="none" /><path id="1467" transform="matrix(1 0 0 -1 0 792)" d="M96.038 287.112L478.751 287.112" stroke="#000000" stroke-width="0.398" fill="none" /><path id="1468" transform="matrix(1 0 0 -1 0 792)" d="M96.038 284.721L478.751 284.721" stroke="#000000" stroke-width="0.398" fill="none" /><path id="1469" transform="matrix(1 0 0 -1 0 792)" d="M96.237 270.955L96.237 284.522" stroke="#000000" stroke-width="0.398" fill="none" /><path id="1474" transform="matrix(1 0 0 -1 0 792)" d="M126.922 275.237L129.911 275.237" stroke="#000000" stroke-width="0.398" fill="none" /><path id="1481" transform="matrix(1 0 0 -1 0 792)" d="M288.591 270.955L288.591 284.522" stroke="#000000" stroke-width="0.398" fill="none" /><path id="1483" transform="matrix(1 0 0 -1 0 792)" d="M347.613 270.955L347.613 284.522" stroke="#000000" stroke-width="0.398" fill="none" /><path id="1485" transform="matrix(1 0 0 -1 0 792)" d="M406.635 270.955L406.635 284.522" stroke="#000000" stroke-width="0.398" fill="none" /><path id="1487" transform="matrix(1 0 0 -1 0 792)" d="M478.552 270.955L478.552 284.522" stroke="#000000" stroke-width="0.398" fill="none" /><path id="1488" transform="matrix(1 0 0 -1 0 792)" d="M96.038 270.756L478.751 270.756" stroke="#000000" stroke-width="0.398" fill="none" /><path id="1489" transform="matrix(1 0 0 -1 0 792)" d="M96.237 256.99L96.237 270.557" stroke="#000000" stroke-width="0.398" fill="none" /><path id="1495" transform="matrix(1 0 0 -1 0 792)" d="M132.9 261.271L135.889 261.271" stroke="#000000" stroke-width="0.398" fill="none" /><path id="1505" transform="matrix(1 0 0 -1 0 792)" d="M288.591 256.99L288.591 270.557" stroke="#000000" stroke-width="0.398" fill="none" /><path id="1507" transform="matrix(1 0 0 -1 0 792)" d="M347.613 256.99L347.613 270.557" stroke="#000000" stroke-width="0.398" fill="none" /><path id="1509" transform="matrix(1 0 0 -1 0 792)" d="M406.635 256.99L406.635 270.557" stroke="#000000" stroke-width="0.398" fill="none" /><path id="1511" transform="matrix(1 0 0 -1 0 792)" d="M478.552 256.99L478.552 270.557" stroke="#000000" stroke-width="0.398" fill="none" /><path id="1512" transform="matrix(1 0 0 -1 0 792)" d="M96.038 256.791L478.751 256.791" stroke="#000000" stroke-width="0.398" fill="none" /><path id="1513" transform="matrix(1 0 0 -1 0 792)" d="M96.237 243.025L96.237 256.592" stroke="#000000" stroke-width="0.398" fill="none" /><path id="1519" transform="matrix(1 0 0 -1 0 792)" d="M132.9 247.306L135.889 247.306" stroke="#000000" stroke-width="0.398" fill="none" /><path id="1529" transform="matrix(1 0 0 -1 0 792)" d="M288.591 243.025L288.591 256.592" stroke="#000000" stroke-width="0.398" fill="none" /><path id="1531" transform="matrix(1 0 0 -1 0 792)" d="M347.613 243.025L347.613 256.592" stroke="#000000" stroke-width="0.398" fill="none" /><path id="1536" transform="matrix(1 0 0 -1 0 792)" d="M406.635 243.025L406.635 256.592" stroke="#000000" stroke-width="0.398" fill="none" /><path id="1548" transform="matrix(1 0 0 -1 0 792)" d="M478.552 243.025L478.552 256.592" stroke="#000000" stroke-width="0.398" fill="none" /><path id="1549" transform="matrix(1 0 0 -1 0 792)" d="M96.038 242.825L478.751 242.825" stroke="#000000" stroke-width="0.398" fill="none" /><path id="1550" transform="matrix(1 0 0 -1 0 792)" d="M96.237 229.06L96.237 242.627" stroke="#000000" stroke-width="0.398" fill="none" /><path id="1556" transform="matrix(1 0 0 -1 0 792)" d="M132.9 233.341L135.889 233.341" stroke="#000000" stroke-width="0.398" fill="none" /><path id="1566" transform="matrix(1 0 0 -1 0 792)" d="M288.591 229.06L288.591 242.627" stroke="#000000" stroke-width="0.398" fill="none" /><path id="1568" transform="matrix(1 0 0 -1 0 792)" d="M347.613 229.06L347.613 242.627" stroke="#000000" stroke-width="0.398" fill="none" /><path id="1573" transform="matrix(1 0 0 -1 0 792)" d="M406.635 229.06L406.635 242.627" stroke="#000000" stroke-width="0.398" fill="none" /><path id="1585" transform="matrix(1 0 0 -1 0 792)" d="M478.552 229.06L478.552 242.627" stroke="#000000" stroke-width="0.398" fill="none" /><path id="1586" transform="matrix(1 0 0 -1 0 792)" d="M96.038 228.86L478.751 228.86" stroke="#000000" stroke-width="0.398" fill="none" /><path id="1587" transform="matrix(1 0 0 -1 0 792)" d="M96.237 215.094L96.237 228.661" stroke="#000000" stroke-width="0.398" fill="none" /><path id="1595" transform="matrix(1 0 0 -1 0 792)" d="M144.855 219.376L147.844 219.376" stroke="#000000" stroke-width="0.398" fill="none" /><path id="1605" transform="matrix(1 0 0 -1 0 792)" d="M288.591 215.094L288.591 228.661" stroke="#000000" stroke-width="0.398" fill="none" /><path id="1607" transform="matrix(1 0 0 -1 0 792)" d="M347.613 215.094L347.613 228.661" stroke="#000000" stroke-width="0.398" fill="none" /><path id="1611" transform="matrix(1 0 0 -1 0 792)" d="M406.635 215.094L406.635 228.661" stroke="#000000" stroke-width="0.398" fill="none" /><path id="1623" transform="matrix(1 0 0 -1 0 792)" d="M478.552 215.094L478.552 228.661" stroke="#000000" stroke-width="0.398" fill="none" /><path id="1624" transform="matrix(1 0 0 -1 0 792)" d="M96.038 214.895L478.751 214.895" stroke="#000000" stroke-width="0.398" fill="none" /><path id="1625" transform="matrix(1 0 0 -1 0 792)" d="M96.237 201.129L96.237 214.696" stroke="#000000" stroke-width="0.398" fill="none" /><path id="1633" transform="matrix(1 0 0 -1 0 792)" d="M144.855 205.411L147.844 205.411" stroke="#000000" stroke-width="0.398" fill="none" /><path id="1638" transform="matrix(1 0 0 -1 0 792)" d="M172.352 205.411L175.341 205.411" stroke="#000000" stroke-width="0.398" fill="none" /><path id="1648" transform="matrix(1 0 0 -1 0 792)" d="M288.591 201.129L288.591 214.696" stroke="#000000" stroke-width="0.398" fill="none" /><path id="1650" transform="matrix(1 0 0 -1 0 792)" d="M347.613 201.129L347.613 214.696" stroke="#000000" stroke-width="0.398" fill="none" /><path id="1654" transform="matrix(1 0 0 -1 0 792)" d="M406.635 201.129L406.635 214.696" stroke="#000000" stroke-width="0.398" fill="none" /><path id="1666" transform="matrix(1 0 0 -1 0 792)" d="M478.552 201.129L478.552 214.696" stroke="#000000" stroke-width="0.398" fill="none" /><path id="1667" transform="matrix(1 0 0 -1 0 792)" d="M96.038 200.93L478.751 200.93" stroke="#000000" stroke-width="0.398" fill="none" /><path id="1668" transform="matrix(1 0 0 -1 0 792)" d="M96.237 187.164L96.237 200.731" stroke="#000000" stroke-width="0.398" fill="none" /><path id="1674" transform="matrix(1 0 0 -1 0 792)" d="M132.9 191.446L135.889 191.446" stroke="#000000" stroke-width="0.398" fill="none" /><path id="1680" transform="matrix(1 0 0 -1 0 792)" d="M166.374 191.446L169.363 191.446" stroke="#000000" stroke-width="0.398" fill="none" /><path id="1686" transform="matrix(1 0 0 -1 0 792)" d="M288.591 187.164L288.591 200.731" stroke="#000000" stroke-width="0.398" fill="none" /><path id="1688" transform="matrix(1 0 0 -1 0 792)" d="M347.613 187.164L347.613 200.731" stroke="#000000" stroke-width="0.398" fill="none" /><path id="1696" transform="matrix(1 0 0 -1 0 792)" d="M406.635 187.164L406.635 200.731" stroke="#000000" stroke-width="0.398" fill="none" /><path id="1706" transform="matrix(1 0 0 -1 0 792)" d="M478.552 187.164L478.552 200.731" stroke="#000000" stroke-width="0.398" fill="none" /><path id="1707" transform="matrix(1 0 0 -1 0 792)" d="M96.038 186.965L478.751 186.965" stroke="#000000" stroke-width="0.398" fill="none" /><path id="1708" transform="matrix(1 0 0 -1 0 792)" d="M96.237 173.199L96.237 186.766" stroke="#000000" stroke-width="0.398" fill="none" /><path id="1714" transform="matrix(1 0 0 -1 0 792)" d="M132.9 177.48L135.889 177.48" stroke="#000000" stroke-width="0.398" fill="none" /><path id="1720" transform="matrix(1 0 0 -1 0 792)" d="M166.374 177.48L169.363 177.48" stroke="#000000" stroke-width="0.398" fill="none" /><path id="1726" transform="matrix(1 0 0 -1 0 792)" d="M288.591 173.199L288.591 186.766" stroke="#000000" stroke-width="0.398" fill="none" /><path id="1728" transform="matrix(1 0 0 -1 0 792)" d="M347.613 173.199L347.613 186.766" stroke="#000000" stroke-width="0.398" fill="none" /><path id="1730" transform="matrix(1 0 0 -1 0 792)" d="M406.635 173.199L406.635 186.766" stroke="#000000" stroke-width="0.398" fill="none" /><path id="1732" transform="matrix(1 0 0 -1 0 792)" d="M478.552 173.199L478.552 186.766" stroke="#000000" stroke-width="0.398" fill="none" /><path id="1733" transform="matrix(1 0 0 -1 0 792)" d="M96.038 173L478.751 173" stroke="#000000" stroke-width="0.398" fill="none" /><path id="1734" transform="matrix(1 0 0 -1 0 792)" d="M96.237 159.234L96.237 172.801" stroke="#000000" stroke-width="0.398" fill="none" /><path id="1740" transform="matrix(1 0 0 -1 0 792)" d="M132.9 163.515L135.889 163.515" stroke="#000000" stroke-width="0.398" fill="none" /><path id="1746" transform="matrix(1 0 0 -1 0 792)" d="M166.374 163.515L169.363 163.515" stroke="#000000" stroke-width="0.398" fill="none" /><path id="1752" transform="matrix(1 0 0 -1 0 792)" d="M288.591 159.234L288.591 172.801" stroke="#000000" stroke-width="0.398" fill="none" /><path id="1754" transform="matrix(1 0 0 -1 0 792)" d="M347.613 159.234L347.613 172.801" stroke="#000000" stroke-width="0.398" fill="none" /><path id="1756" transform="matrix(1 0 0 -1 0 792)" d="M406.635 159.234L406.635 172.801" stroke="#000000" stroke-width="0.398" fill="none" /><path id="1768" transform="matrix(1 0 0 -1 0 792)" d="M478.552 159.234L478.552 172.801" stroke="#000000" stroke-width="0.398" fill="none" /><path id="1769" transform="matrix(1 0 0 -1 0 792)" d="M96.038 159.035L478.751 159.035" stroke="#000000" stroke-width="0.398" fill="none" /><path id="1770" transform="matrix(1 0 0 -1 0 792)" d="M96.237 145.269L96.237 158.836" stroke="#000000" stroke-width="0.398" fill="none" /><path id="1778" transform="matrix(1 0 0 -1 0 792)" d="M144.855 149.55L147.844 149.55" stroke="#000000" stroke-width="0.398" fill="none" /><path id="1784" transform="matrix(1 0 0 -1 0 792)" d="M178.33 149.55L181.319 149.55" stroke="#000000" stroke-width="0.398" fill="none" /><path id="1790" transform="matrix(1 0 0 -1 0 792)" d="M288.591 145.269L288.591 158.836" stroke="#000000" stroke-width="0.398" fill="none" /><path id="1792" transform="matrix(1 0 0 -1 0 792)" d="M347.613 145.269L347.613 158.836" stroke="#000000" stroke-width="0.398" fill="none" /><path id="1794" transform="matrix(1 0 0 -1 0 792)" d="M406.635 145.269L406.635 158.836" stroke="#000000" stroke-width="0.398" fill="none" /><path id="1806" transform="matrix(1 0 0 -1 0 792)" d="M478.552 145.269L478.552 158.836" stroke="#000000" stroke-width="0.398" fill="none" /><path id="1807" transform="matrix(1 0 0 -1 0 792)" d="M96.038 145.069L478.751 145.069" stroke="#000000" stroke-width="0.398" fill="none" /><path id="1808" transform="matrix(1 0 0 -1 0 792)" d="M96.237 131.304L96.237 144.871" stroke="#000000" stroke-width="0.398" fill="none" /><path id="1814" transform="matrix(1 0 0 -1 0 792)" d="M132.9 135.585L135.889 135.585" stroke="#000000" stroke-width="0.398" fill="none" /><path id="1820" transform="matrix(1 0 0 -1 0 792)" d="M166.374 135.585L169.363 135.585" stroke="#000000" stroke-width="0.398" fill="none" /><path id="1826" transform="matrix(1 0 0 -1 0 792)" d="M288.591 131.304L288.591 144.871" stroke="#000000" stroke-width="0.398" fill="none" /><path id="1828" transform="matrix(1 0 0 -1 0 792)" d="M347.613 131.304L347.613 144.871" stroke="#000000" stroke-width="0.398" fill="none" /><path id="1830" transform="matrix(1 0 0 -1 0 792)" d="M406.635 131.304L406.635 144.871" stroke="#000000" stroke-width="0.398" fill="none" /><path id="1832" transform="matrix(1 0 0 -1 0 792)" d="M478.552 131.304L478.552 144.871" stroke="#000000" stroke-width="0.398" fill="none" /><path id="1833" transform="matrix(1 0 0 -1 0 792)" d="M96.038 131.104L478.751 131.104" stroke="#000000" stroke-width="0.398" fill="none" /></g></g></svg>