<svg xmlns="http://www.w3.org/2000/svg" xmlns:xlink="http://www.w3.org/1999/xlink" id="body_30" preserveAspectRatio="xMinYMin meet" viewBox="0 0 1632 1056"><defs><clipPath id="1"><path id="" clip-rule="evenodd" transform="matrix(1 0 0 1 0 0)" d="M0 792L0 0L0 0L1224 0L1224 0L1224 792L1224 792L0 792z" /></clipPath></defs><g transform="matrix(1.333333 0 0 1.333333 0 0)"><g clip-path="url(#1)"><path id="16" transform="matrix(1 0 0 -1 0 792)" d="M666.067 721.28L1132.722 721.28" stroke="#000000" stroke-width="0.498" fill="none" /><path id="17" transform="matrix(1 0 0 -1 0 792)" d="M677.019 696.423L1121.771 696.423" stroke="#000000" stroke-width="0.398" fill="none" /><path id="18" transform="matrix(1 0 0 -1 0 792)" d="M677.019 696.423L1121.771 696.423" stroke="#000000" stroke-width="0.398" fill="none" /><path id="19" transform="matrix(1 0 0 -1 0 792)" d="M677.218 682.658L677.218 696.225" stroke="#000000" stroke-width="0.398" fill="none" /><path id="20" transform="matrix(1 0 0 -1 0 792)" d="M677.417 682.658L1006.172 682.658L1006.172 696.225L677.417 696.225z" stroke="none" fill="#CCCCEB" fill-rule="nonzero" /><path id="30" transform="matrix(1 0 0 -1 0 792)" d="M1006.371 682.658L1006.371 696.225" stroke="#000000" stroke-width="0.398" fill="none" /><path id="31" transform="matrix(1 0 0 -1 0 792)" d="M1006.57 682.658L1121.372 682.658L1121.372 696.225L1006.57 696.225z" stroke="none" fill="#CCCCEB" fill-rule="nonzero" /><path id="38" transform="matrix(1 0 0 -1 0 792)" d="M1121.572 682.658L1121.572 696.225" stroke="#000000" stroke-width="0.398" fill="none" /><path id="39" transform="matrix(1 0 0 -1 0 792)" d="M677.019 682.458L1121.771 682.458" stroke="#000000" stroke-width="0.398" fill="none" /><path id="40" transform="matrix(1 0 0 -1 0 792)" d="M677.019 682.458L1121.771 682.458" stroke="#000000" stroke-width="0.398" fill="none" /><path id="41" transform="matrix(1 0 0 -1 0 792)" d="M677.019 682.06L1121.771 682.06" stroke="#000000" stroke-width="0.398" fill="none" /><path id="42" transform="matrix(1 0 0 -1 0 792)" d="M677.019 682.06L1121.771 682.06" stroke="#000000" stroke-width="0.398" fill="none" /><path id="43" transform="matrix(1 0 0 -1 0 792)" d="M677.218 668.294L677.218 681.861" stroke="#000000" stroke-width="0.398" fill="none" /><path id="57" transform="matrix(1 0 0 -1 0 792)" d="M784.565 672.575L787.554 672.575" stroke="#000000" stroke-width="0.398" fill="none" /><path id="62" transform="matrix(1 0 0 -1 0 792)" d="M812.062 672.575L815.051 672.575" stroke="#000000" stroke-width="0.398" fill="none" /><path id="72" transform="matrix(1 0 0 -1 0 792)" d="M869.447 672.575L872.436 672.575" stroke="#000000" stroke-width="0.398" fill="none" /><path id="77" transform="matrix(1 0 0 -1 0 792)" d="M896.944 672.575L899.933 672.575" stroke="#000000" stroke-width="0.398" fill="none" /><path id="79" transform="matrix(1 0 0 -1 0 792)" d="M1006.371 668.294L1006.371 681.861" stroke="#000000" stroke-width="0.398" fill="none" /><path id="81" transform="matrix(1 0 0 -1 0 792)" d="M1121.572 668.294L1121.572 681.861" stroke="#000000" stroke-width="0.398" fill="none" /><path id="82" transform="matrix(1 0 0 -1 0 792)" d="M677.218 654.727L677.218 668.294" stroke="#000000" stroke-width="0.398" fill="none" /><path id="96" transform="matrix(1 0 0 -1 0 792)" d="M784.565 659.009L787.554 659.009" stroke="#000000" stroke-width="0.398" fill="none" /><path id="101" transform="matrix(1 0 0 -1 0 792)" d="M812.062 659.009L815.051 659.009" stroke="#000000" stroke-width="0.398" fill="none" /><path id="103" transform="matrix(1 0 0 -1 0 792)" d="M1006.371 654.727L1006.371 668.294" stroke="#000000" stroke-width="0.398" fill="none" /><path id="105" transform="matrix(1 0 0 -1 0 792)" d="M1121.572 654.727L1121.572 668.294" stroke="#000000" stroke-width="0.398" fill="none" /><path id="106" transform="matrix(1 0 0 -1 0 792)" d="M677.218 641.161L677.218 654.728" stroke="#000000" stroke-width="0.398" fill="none" /><path id="120" transform="matrix(1 0 0 -1 0 792)" d="M784.565 645.442L787.554 645.442" stroke="#000000" stroke-width="0.398" fill="none" /><path id="127" transform="matrix(1 0 0 -1 0 792)" d="M824.017 645.442L827.006 645.442" stroke="#000000" stroke-width="0.398" fill="none" /><path id="133" transform="matrix(1 0 0 -1 0 792)" d="M1006.371 641.161L1006.371 654.728" stroke="#000000" stroke-width="0.398" fill="none" /><path id="135" transform="matrix(1 0 0 -1 0 792)" d="M1121.572 641.161L1121.572 654.728" stroke="#000000" stroke-width="0.398" fill="none" /><path id="136" transform="matrix(1 0 0 -1 0 792)" d="M677.218 627.594L677.218 641.161" stroke="#000000" stroke-width="0.398" fill="none" /><path id="150" transform="matrix(1 0 0 -1 0 792)" d="M784.565 631.875L787.554 631.875" stroke="#000000" stroke-width="0.398" fill="none" /><path id="154" transform="matrix(1 0 0 -1 0 792)" d="M806.085 631.875L809.074 631.875" stroke="#000000" stroke-width="0.398" fill="none" /><path id="166" transform="matrix(1 0 0 -1 0 792)" d="M875.425 631.875L878.414 631.875" stroke="#000000" stroke-width="0.398" fill="none" /><path id="170" transform="matrix(1 0 0 -1 0 792)" d="M896.944 631.875L899.933 631.875" stroke="#000000" stroke-width="0.398" fill="none" /><path id="174" transform="matrix(1 0 0 -1 0 792)" d="M1006.371 627.594L1006.371 641.161" stroke="#000000" stroke-width="0.398" fill="none" /><path id="176" transform="matrix(1 0 0 -1 0 792)" d="M1121.572 627.594L1121.572 641.161" stroke="#000000" stroke-width="0.398" fill="none" /><path id="177" transform="matrix(1 0 0 -1 0 792)" d="M677.218 614.027L677.218 627.594" stroke="#000000" stroke-width="0.398" fill="none" /><path id="191" transform="matrix(1 0 0 -1 0 792)" d="M784.565 618.309L787.554 618.309" stroke="#000000" stroke-width="0.398" fill="none" /><path id="196" transform="matrix(1 0 0 -1 0 792)" d="M812.062 618.309L815.051 618.309" stroke="#000000" stroke-width="0.398" fill="none" /><path id="210" transform="matrix(1 0 0 -1 0 792)" d="M893.357 618.309L896.346 618.309" stroke="#000000" stroke-width="0.398" fill="none" /><path id="214" transform="matrix(1 0 0 -1 0 792)" d="M914.877 618.309L917.866 618.309" stroke="#000000" stroke-width="0.398" fill="none" /><path id="220" transform="matrix(1 0 0 -1 0 792)" d="M1006.371 614.027L1006.371 627.594" stroke="#000000" stroke-width="0.398" fill="none" /><path id="222" transform="matrix(1 0 0 -1 0 792)" d="M1121.572 614.027L1121.572 627.594" stroke="#000000" stroke-width="0.398" fill="none" /><path id="223" transform="matrix(1 0 0 -1 0 792)" d="M677.218 600.461L677.218 614.028" stroke="#000000" stroke-width="0.398" fill="none" /><path id="237" transform="matrix(1 0 0 -1 0 792)" d="M784.565 604.742L787.554 604.742" stroke="#000000" stroke-width="0.398" fill="none" /><path id="241" transform="matrix(1 0 0 -1 0 792)" d="M806.085 604.742L809.074 604.742" stroke="#000000" stroke-width="0.398" fill="none" /><path id="246" transform="matrix(1 0 0 -1 0 792)" d="M1006.371 600.461L1006.371 614.028" stroke="#000000" stroke-width="0.398" fill="none" /><path id="248" transform="matrix(1 0 0 -1 0 792)" d="M1121.572 600.461L1121.572 614.028" stroke="#000000" stroke-width="0.398" fill="none" /><path id="249" transform="matrix(1 0 0 -1 0 792)" d="M677.218 586.894L677.218 600.461" stroke="#000000" stroke-width="0.398" fill="none" /><path id="261" transform="matrix(1 0 0 -1 0 792)" d="M772.61 591.175L775.599 591.175" stroke="#000000" stroke-width="0.398" fill="none" /><path id="269" transform="matrix(1 0 0 -1 0 792)" d="M818.04 591.175L821.029 591.175" stroke="#000000" stroke-width="0.398" fill="none" /><path id="274" transform="matrix(1 0 0 -1 0 792)" d="M1006.371 586.894L1006.371 600.461" stroke="#000000" stroke-width="0.398" fill="none" /><path id="276" transform="matrix(1 0 0 -1 0 792)" d="M1121.572 586.894L1121.572 600.461" stroke="#000000" stroke-width="0.398" fill="none" /><path id="277" transform="matrix(1 0 0 -1 0 792)" d="M677.218 573.327L677.218 586.894" stroke="#000000" stroke-width="0.398" fill="none" /><path id="291" transform="matrix(1 0 0 -1 0 792)" d="M784.565 577.609L787.554 577.609" stroke="#000000" stroke-width="0.398" fill="none" /><path id="299" transform="matrix(1 0 0 -1 0 792)" d="M829.995 577.609L832.984 577.609" stroke="#000000" stroke-width="0.398" fill="none" /><path id="304" transform="matrix(1 0 0 -1 0 792)" d="M1006.371 573.327L1006.371 586.894" stroke="#000000" stroke-width="0.398" fill="none" /><path id="306" transform="matrix(1 0 0 -1 0 792)" d="M1121.572 573.327L1121.572 586.894" stroke="#000000" stroke-width="0.398" fill="none" /><path id="307" transform="matrix(1 0 0 -1 0 792)" d="M677.218 559.761L677.218 573.328" stroke="#000000" stroke-width="0.398" fill="none" /><path id="321" transform="matrix(1 0 0 -1 0 792)" d="M784.565 564.042L787.554 564.042" stroke="#000000" stroke-width="0.398" fill="none" /><path id="329" transform="matrix(1 0 0 -1 0 792)" d="M829.995 564.042L832.984 564.042" stroke="#000000" stroke-width="0.398" fill="none" /><path id="334" transform="matrix(1 0 0 -1 0 792)" d="M1006.371 559.761L1006.371 573.328" stroke="#000000" stroke-width="0.398" fill="none" /><path id="336" transform="matrix(1 0 0 -1 0 792)" d="M1121.572 559.761L1121.572 573.328" stroke="#000000" stroke-width="0.398" fill="none" /><path id="337" transform="matrix(1 0 0 -1 0 792)" d="M677.218 546.194L677.218 559.761" stroke="#000000" stroke-width="0.398" fill="none" /><path id="351" transform="matrix(1 0 0 -1 0 792)" d="M784.565 550.476L787.554 550.476" stroke="#000000" stroke-width="0.398" fill="none" /><path id="360" transform="matrix(1 0 0 -1 0 792)" d="M1006.371 546.194L1006.371 559.761" stroke="#000000" stroke-width="0.398" fill="none" /><path id="362" transform="matrix(1 0 0 -1 0 792)" d="M1121.572 546.194L1121.572 559.761" stroke="#000000" stroke-width="0.398" fill="none" /><path id="363" transform="matrix(1 0 0 -1 0 792)" d="M677.218 532.627L677.218 546.194" stroke="#000000" stroke-width="0.398" fill="none" /><path id="378" transform="matrix(1 0 0 -1 0 792)" d="M790.543 536.909L793.532 536.909" stroke="#000000" stroke-width="0.398" fill="none" /><path id="385" transform="matrix(1 0 0 -1 0 792)" d="M1006.371 532.627L1006.371 546.194" stroke="#000000" stroke-width="0.398" fill="none" /><path id="387" transform="matrix(1 0 0 -1 0 792)" d="M1121.572 532.627L1121.572 546.194" stroke="#000000" stroke-width="0.398" fill="none" /><path id="388" transform="matrix(1 0 0 -1 0 792)" d="M677.019 532.428L1121.771 532.428" stroke="#000000" stroke-width="0.398" fill="none" /><path id="389" transform="matrix(1 0 0 -1 0 792)" d="M677.019 532.428L1121.771 532.428" stroke="#000000" stroke-width="0.398" fill="none" /><path id="390" transform="matrix(1 0 0 -1 0 792)" d="M677.218 505.13L677.218 532.228" stroke="#000000" stroke-width="0.398" fill="none" /><path id="446" transform="matrix(1 0 0 -1 0 792)" d="M1006.371 505.13L1006.371 532.228" stroke="#000000" stroke-width="0.398" fill="none" /><path id="448" transform="matrix(1 0 0 -1 0 792)" d="M1121.572 505.13L1121.572 532.228" stroke="#000000" stroke-width="0.398" fill="none" /><path id="449" transform="matrix(1 0 0 -1 0 792)" d="M677.019 504.931L1121.771 504.931" stroke="#000000" stroke-width="0.398" fill="none" /><path id="450" transform="matrix(1 0 0 -1 0 792)" d="M677.019 504.931L1121.771 504.931" stroke="#000000" stroke-width="0.398" fill="none" /><path id="451" transform="matrix(1 0 0 -1 0 792)" d="M677.218 477.634L677.218 504.732" stroke="#000000" stroke-width="0.398" fill="none" /><path id="521" transform="matrix(1 0 0 -1 0 792)" d="M1006.371 477.634L1006.371 504.732" stroke="#000000" stroke-width="0.398" fill="none" /><path id="523" transform="matrix(1 0 0 -1 0 792)" d="M1121.572 477.634L1121.572 504.732" stroke="#000000" stroke-width="0.398" fill="none" /><path id="524" transform="matrix(1 0 0 -1 0 792)" d="M677.019 477.434L1121.771 477.434" stroke="#000000" stroke-width="0.398" fill="none" /><path id="525" transform="matrix(1 0 0 -1 0 792)" d="M677.019 477.434L1121.771 477.434" stroke="#000000" stroke-width="0.398" fill="none" /><path id="526" transform="matrix(1 0 0 -1 0 792)" d="M677.218 463.686L677.218 477.235" stroke="#000000" stroke-width="0.398" fill="none" /><path id="566" transform="matrix(1 0 0 -1 0 792)" d="M1121.572 463.686L1121.572 477.235" stroke="#000000" stroke-width="0.398" fill="none" /><path id="567" transform="matrix(1 0 0 -1 0 792)" d="M677.218 450.119L677.218 463.686" stroke="#000000" stroke-width="0.398" fill="none" /><path id="582" transform="matrix(1 0 0 -1 0 792)" d="M790.543 454.401L793.532 454.401" stroke="#000000" stroke-width="0.398" fill="none" /><path id="593" transform="matrix(1 0 0 -1 0 792)" d="M853.905 454.401L856.894 454.401" stroke="#000000" stroke-width="0.398" fill="none" /><path id="598" transform="matrix(1 0 0 -1 0 792)" d="M881.402 454.401L884.391 454.401" stroke="#000000" stroke-width="0.398" fill="none" /><path id="602" transform="matrix(1 0 0 -1 0 792)" d="M1006.371 450.119L1006.371 463.686" stroke="#000000" stroke-width="0.398" fill="none" /><path id="604" transform="matrix(1 0 0 -1 0 792)" d="M1121.572 450.119L1121.572 463.686" stroke="#000000" stroke-width="0.398" fill="none" /><path id="605" transform="matrix(1 0 0 -1 0 792)" d="M677.218 436.553L677.218 450.12" stroke="#000000" stroke-width="0.398" fill="none" /><path id="620" transform="matrix(1 0 0 -1 0 792)" d="M790.543 440.834L793.532 440.834" stroke="#000000" stroke-width="0.398" fill="none" /><path id="623" transform="matrix(1 0 0 -1 0 792)" d="M1006.371 436.553L1006.371 450.12" stroke="#000000" stroke-width="0.398" fill="none" /><path id="625" transform="matrix(1 0 0 -1 0 792)" d="M1121.572 436.553L1121.572 450.12" stroke="#000000" stroke-width="0.398" fill="none" /><path id="626" transform="matrix(1 0 0 -1 0 792)" d="M677.218 422.986L677.218 436.553" stroke="#000000" stroke-width="0.398" fill="none" /><path id="641" transform="matrix(1 0 0 -1 0 792)" d="M790.543 427.268L793.532 427.268" stroke="#000000" stroke-width="0.398" fill="none" /><path id="644" transform="matrix(1 0 0 -1 0 792)" d="M1006.371 422.986L1006.371 436.553" stroke="#000000" stroke-width="0.398" fill="none" /><path id="646" transform="matrix(1 0 0 -1 0 792)" d="M1121.572 422.986L1121.572 436.553" stroke="#000000" stroke-width="0.398" fill="none" /><path id="647" transform="matrix(1 0 0 -1 0 792)" d="M677.019 422.787L1121.771 422.787" stroke="#000000" stroke-width="0.398" fill="none" /><path id="648" transform="matrix(1 0 0 -1 0 792)" d="M677.019 422.787L1121.771 422.787" stroke="#000000" stroke-width="0.398" fill="none" /><path id="649" transform="matrix(1 0 0 -1 0 792)" d="M677.218 409.021L677.218 422.588" stroke="#000000" stroke-width="0.398" fill="none" /><path id="695" transform="matrix(1 0 0 -1 0 792)" d="M1006.371 409.021L1006.371 422.588" stroke="#000000" stroke-width="0.398" fill="none" /><path id="697" transform="matrix(1 0 0 -1 0 792)" d="M1121.572 409.021L1121.572 422.588" stroke="#000000" stroke-width="0.398" fill="none" /><path id="698" transform="matrix(1 0 0 -1 0 792)" d="M677.019 408.822L1121.771 408.822" stroke="#000000" stroke-width="0.398" fill="none" /><path id="699" transform="matrix(1 0 0 -1 0 792)" d="M677.019 408.822L1121.771 408.822" stroke="#000000" stroke-width="0.398" fill="none" /><path id="700" transform="matrix(1 0 0 -1 0 792)" d="M677.218 395.056L677.218 408.623" stroke="#000000" stroke-width="0.398" fill="none" /><path id="738" transform="matrix(1 0 0 -1 0 792)" d="M1006.371 395.056L1006.371 408.623" stroke="#000000" stroke-width="0.398" fill="none" /><path id="740" transform="matrix(1 0 0 -1 0 792)" d="M1121.572 395.056L1121.572 408.623" stroke="#000000" stroke-width="0.398" fill="none" /><path id="741" transform="matrix(1 0 0 -1 0 792)" d="M677.019 394.856L1121.771 394.856" stroke="#000000" stroke-width="0.398" fill="none" /><path id="742" transform="matrix(1 0 0 -1 0 792)" d="M677.019 394.856L1121.771 394.856" stroke="#000000" stroke-width="0.398" fill="none" /><path id="743" transform="matrix(1 0 0 -1 0 792)" d="M677.218 381.091L677.218 394.658" stroke="#000000" stroke-width="0.398" fill="none" /><path id="773" transform="matrix(1 0 0 -1 0 792)" d="M1006.371 381.091L1006.371 394.658" stroke="#000000" stroke-width="0.398" fill="none" /><path id="775" transform="matrix(1 0 0 -1 0 792)" d="M1121.572 381.091L1121.572 394.658" stroke="#000000" stroke-width="0.398" fill="none" /><path id="776" transform="matrix(1 0 0 -1 0 792)" d="M677.019 380.891L1121.771 380.891" stroke="#000000" stroke-width="0.398" fill="none" /><path id="777" transform="matrix(1 0 0 -1 0 792)" d="M677.019 380.891L1121.771 380.891" stroke="#000000" stroke-width="0.398" fill="none" /><path id="778" transform="matrix(1 0 0 -1 0 792)" d="M677.218 353.594L677.218 380.692" stroke="#000000" stroke-width="0.398" fill="none" /><path id="846" transform="matrix(1 0 0 -1 0 792)" d="M1006.371 353.594L1006.371 380.692" stroke="#000000" stroke-width="0.398" fill="none" /><path id="848" transform="matrix(1 0 0 -1 0 792)" d="M1121.572 353.594L1121.572 380.692" stroke="#000000" stroke-width="0.398" fill="none" /><path id="849" transform="matrix(1 0 0 -1 0 792)" d="M677.019 353.394L1121.771 353.394" stroke="#000000" stroke-width="0.398" fill="none" /><path id="850" transform="matrix(1 0 0 -1 0 792)" d="M677.019 353.394L1121.771 353.394" stroke="#000000" stroke-width="0.398" fill="none" /><path id="851" transform="matrix(1 0 0 -1 0 792)" d="M677.218 326.097L677.218 353.195" stroke="#000000" stroke-width="0.398" fill="none" /><path id="914" transform="matrix(1 0 0 -1 0 792)" d="M1006.371 326.097L1006.371 353.195" stroke="#000000" stroke-width="0.398" fill="none" /><path id="916" transform="matrix(1 0 0 -1 0 792)" d="M1121.572 326.097L1121.572 353.195" stroke="#000000" stroke-width="0.398" fill="none" /><path id="917" transform="matrix(1 0 0 -1 0 792)" d="M677.019 325.898L1121.771 325.898" stroke="#000000" stroke-width="0.398" fill="none" /><path id="918" transform="matrix(1 0 0 -1 0 792)" d="M677.019 325.898L1121.771 325.898" stroke="#000000" stroke-width="0.398" fill="none" /><path id="919" transform="matrix(1 0 0 -1 0 792)" d="M677.218 312.149L677.218 325.698" stroke="#000000" stroke-width="0.398" fill="none" /><path id="947" transform="matrix(1 0 0 -1 0 792)" d="M1121.572 312.149L1121.572 325.698" stroke="#000000" stroke-width="0.398" fill="none" /><path id="948" transform="matrix(1 0 0 -1 0 792)" d="M677.218 298.582L677.218 312.149" stroke="#000000" stroke-width="0.398" fill="none" /><path id="960" transform="matrix(1 0 0 -1 0 792)" d="M772.61 302.864L775.599 302.864" stroke="#000000" stroke-width="0.398" fill="none" /><path id="971" transform="matrix(1 0 0 -1 0 792)" d="M835.973 302.864L838.962 302.864" stroke="#000000" stroke-width="0.398" fill="none" /><path id="976" transform="matrix(1 0 0 -1 0 792)" d="M863.469 302.864L866.458 302.864" stroke="#000000" stroke-width="0.398" fill="none" /><path id="980" transform="matrix(1 0 0 -1 0 792)" d="M1006.371 298.582L1006.371 312.149" stroke="#000000" stroke-width="0.398" fill="none" /><path id="982" transform="matrix(1 0 0 -1 0 792)" d="M1121.572 298.582L1121.572 312.149" stroke="#000000" stroke-width="0.398" fill="none" /><path id="983" transform="matrix(1 0 0 -1 0 792)" d="M677.218 285.016L677.218 298.583" stroke="#000000" stroke-width="0.398" fill="none" /><path id="995" transform="matrix(1 0 0 -1 0 792)" d="M772.61 289.297L775.599 289.297" stroke="#000000" stroke-width="0.398" fill="none" /><path id="998" transform="matrix(1 0 0 -1 0 792)" d="M1006.371 285.016L1006.371 298.583" stroke="#000000" stroke-width="0.398" fill="none" /><path id="1000" transform="matrix(1 0 0 -1 0 792)" d="M1121.572 285.016L1121.572 298.583" stroke="#000000" stroke-width="0.398" fill="none" /><path id="1001" transform="matrix(1 0 0 -1 0 792)" d="M677.218 271.449L677.218 285.016" stroke="#000000" stroke-width="0.398" fill="none" /><path id="1013" transform="matrix(1 0 0 -1 0 792)" d="M772.61 275.731L775.599 275.731" stroke="#000000" stroke-width="0.398" fill="none" /><path id="1024" transform="matrix(1 0 0 -1 0 792)" d="M835.973 275.731L838.962 275.731" stroke="#000000" stroke-width="0.398" fill="none" /><path id="1027" transform="matrix(1 0 0 -1 0 792)" d="M1006.371 271.449L1006.371 285.016" stroke="#000000" stroke-width="0.398" fill="none" /><path id="1029" transform="matrix(1 0 0 -1 0 792)" d="M1121.572 271.449L1121.572 285.016" stroke="#000000" stroke-width="0.398" fill="none" /><path id="1030" transform="matrix(1 0 0 -1 0 792)" d="M677.019 271.25L1121.771 271.25" stroke="#000000" stroke-width="0.398" fill="none" /><path id="1031" transform="matrix(1 0 0 -1 0 792)" d="M677.019 271.25L1121.771 271.25" stroke="#000000" stroke-width="0.398" fill="none" /><path id="1032" transform="matrix(1 0 0 -1 0 792)" d="M677.218 257.484L677.218 271.051" stroke="#000000" stroke-width="0.398" fill="none" /><path id="1079" transform="matrix(1 0 0 -1 0 792)" d="M1006.371 257.484L1006.371 271.051" stroke="#000000" stroke-width="0.398" fill="none" /><path id="1081" transform="matrix(1 0 0 -1 0 792)" d="M1121.572 257.484L1121.572 271.051" stroke="#000000" stroke-width="0.398" fill="none" /><path id="1082" transform="matrix(1 0 0 -1 0 792)" d="M677.019 257.285L1121.771 257.285" stroke="#000000" stroke-width="0.398" fill="none" /><path id="1083" transform="matrix(1 0 0 -1 0 792)" d="M677.019 257.285L1121.771 257.285" stroke="#000000" stroke-width="0.398" fill="none" /><path id="1084" transform="matrix(1 0 0 -1 0 792)" d="M677.218 243.519L677.218 257.086" stroke="#000000" stroke-width="0.398" fill="none" /><path id="1134" transform="matrix(1 0 0 -1 0 792)" d="M1006.371 243.519L1006.371 257.086" stroke="#000000" stroke-width="0.398" fill="none" /><path id="1136" transform="matrix(1 0 0 -1 0 792)" d="M1121.572 243.519L1121.572 257.086" stroke="#000000" stroke-width="0.398" fill="none" /><path id="1137" transform="matrix(1 0 0 -1 0 792)" d="M677.019 243.32L1121.771 243.32" stroke="#000000" stroke-width="0.398" fill="none" /><path id="1138" transform="matrix(1 0 0 -1 0 792)" d="M677.019 243.32L1121.771 243.32" stroke="#000000" stroke-width="0.398" fill="none" /><path id="1139" transform="matrix(1 0 0 -1 0 792)" d="M677.218 229.554L677.218 243.121" stroke="#000000" stroke-width="0.398" fill="none" /><path id="1170" transform="matrix(1 0 0 -1 0 792)" d="M1006.371 229.554L1006.371 243.121" stroke="#000000" stroke-width="0.398" fill="none" /><path id="1172" transform="matrix(1 0 0 -1 0 792)" d="M1121.572 229.554L1121.572 243.121" stroke="#000000" stroke-width="0.398" fill="none" /><path id="1173" transform="matrix(1 0 0 -1 0 792)" d="M677.019 229.354L1121.771 229.354" stroke="#000000" stroke-width="0.398" fill="none" /><path id="1174" transform="matrix(1 0 0 -1 0 792)" d="M677.019 229.354L1121.771 229.354" stroke="#000000" stroke-width="0.398" fill="none" /><path id="1175" transform="matrix(1 0 0 -1 0 792)" d="M693.34 128.339L1132.726 128.339L1132.726 128.339L1132.726 212.4038L1132.726 212.4038L693.34 212.4038z" stroke="#FFFFFF" stroke-width="1" fill="#FFFFFF" fill-rule="nonzero" /><path id="1389" transform="matrix(1 0 0 -1 0 792)" d="M693.34 64.4056L1132.721 64.4056L1132.721 64.4056L1132.721 124.5603L1132.721 124.5603L693.34 124.5603z" stroke="#FFFFFF" stroke-width="1" fill="#FFFFFF" fill-rule="nonzero" /><path id="1566" transform="matrix(1 0 0 -1 0 792)" d="M54.067 721.28L520.722 721.28" stroke="#000000" stroke-width="0.498" fill="none" /><path id="1567" transform="matrix(1 0 0 -1 0 792)" d="M65.019 696.423L509.771 696.423" stroke="#000000" stroke-width="0.398" fill="none" /><path id="1568" transform="matrix(1 0 0 -1 0 792)" d="M65.019 696.423L509.771 696.423" stroke="#000000" stroke-width="0.398" fill="none" /><path id="1569" transform="matrix(1 0 0 -1 0 792)" d="M65.218 682.658L65.218 696.225" stroke="#000000" stroke-width="0.398" fill="none" /><path id="1570" transform="matrix(1 0 0 -1 0 792)" d="M65.417 682.658L394.172 682.658L394.172 696.225L65.417 696.225z" stroke="none" fill="#CCCCEB" fill-rule="nonzero" /><path id="1580" transform="matrix(1 0 0 -1 0 792)" d="M394.371 682.658L394.371 696.225" stroke="#000000" stroke-width="0.398" fill="none" /><path id="1581" transform="matrix(1 0 0 -1 0 792)" d="M394.57 682.658L509.372 682.658L509.372 696.225L394.57 696.225z" stroke="none" fill="#CCCCEB" fill-rule="nonzero" /><path id="1588" transform="matrix(1 0 0 -1 0 792)" d="M509.572 682.658L509.572 696.225" stroke="#000000" stroke-width="0.398" fill="none" /><path id="1589" transform="matrix(1 0 0 -1 0 792)" d="M65.019 682.458L509.771 682.458" stroke="#000000" stroke-width="0.398" fill="none" /><path id="1590" transform="matrix(1 0 0 -1 0 792)" d="M65.019 682.458L509.771 682.458" stroke="#000000" stroke-width="0.398" fill="none" /><path id="1591" transform="matrix(1 0 0 -1 0 792)" d="M65.019 682.06L509.771 682.06" stroke="#000000" stroke-width="0.398" fill="none" /><path id="1592" transform="matrix(1 0 0 -1 0 792)" d="M65.019 682.06L509.771 682.06" stroke="#000000" stroke-width="0.398" fill="none" /><path id="1593" transform="matrix(1 0 0 -1 0 792)" d="M65.218 668.294L65.218 681.861" stroke="#000000" stroke-width="0.398" fill="none" /><path id="1607" transform="matrix(1 0 0 -1 0 792)" d="M172.565 672.575L175.554 672.575" stroke="#000000" stroke-width="0.398" fill="none" /><path id="1612" transform="matrix(1 0 0 -1 0 792)" d="M200.062 672.575L203.051 672.575" stroke="#000000" stroke-width="0.398" fill="none" /><path id="1622" transform="matrix(1 0 0 -1 0 792)" d="M257.447 672.575L260.436 672.575" stroke="#000000" stroke-width="0.398" fill="none" /><path id="1627" transform="matrix(1 0 0 -1 0 792)" d="M284.944 672.575L287.933 672.575" stroke="#000000" stroke-width="0.398" fill="none" /><path id="1629" transform="matrix(1 0 0 -1 0 792)" d="M394.371 668.294L394.371 681.861" stroke="#000000" stroke-width="0.398" fill="none" /><path id="1631" transform="matrix(1 0 0 -1 0 792)" d="M509.572 668.294L509.572 681.861" stroke="#000000" stroke-width="0.398" fill="none" /><path id="1632" transform="matrix(1 0 0 -1 0 792)" d="M65.218 654.727L65.218 668.294" stroke="#000000" stroke-width="0.398" fill="none" /><path id="1646" transform="matrix(1 0 0 -1 0 792)" d="M172.565 659.009L175.554 659.009" stroke="#000000" stroke-width="0.398" fill="none" /><path id="1651" transform="matrix(1 0 0 -1 0 792)" d="M200.062 659.009L203.051 659.009" stroke="#000000" stroke-width="0.398" fill="none" /><path id="1653" transform="matrix(1 0 0 -1 0 792)" d="M394.371 654.727L394.371 668.294" stroke="#000000" stroke-width="0.398" fill="none" /><path id="1655" transform="matrix(1 0 0 -1 0 792)" d="M509.572 654.727L509.572 668.294" stroke="#000000" stroke-width="0.398" fill="none" /><path id="1656" transform="matrix(1 0 0 -1 0 792)" d="M65.218 641.161L65.218 654.728" stroke="#000000" stroke-width="0.398" fill="none" /><path id="1670" transform="matrix(1 0 0 -1 0 792)" d="M172.565 645.442L175.554 645.442" stroke="#000000" stroke-width="0.398" fill="none" /><path id="1677" transform="matrix(1 0 0 -1 0 792)" d="M212.017 645.442L215.006 645.442" stroke="#000000" stroke-width="0.398" fill="none" /><path id="1683" transform="matrix(1 0 0 -1 0 792)" d="M394.371 641.161L394.371 654.728" stroke="#000000" stroke-width="0.398" fill="none" /><path id="1685" transform="matrix(1 0 0 -1 0 792)" d="M509.572 641.161L509.572 654.728" stroke="#000000" stroke-width="0.398" fill="none" /><path id="1686" transform="matrix(1 0 0 -1 0 792)" d="M65.218 627.594L65.218 641.161" stroke="#000000" stroke-width="0.398" fill="none" /><path id="1700" transform="matrix(1 0 0 -1 0 792)" d="M172.565 631.875L175.554 631.875" stroke="#000000" stroke-width="0.398" fill="none" /><path id="1704" transform="matrix(1 0 0 -1 0 792)" d="M194.085 631.875L197.074 631.875" stroke="#000000" stroke-width="0.398" fill="none" /><path id="1716" transform="matrix(1 0 0 -1 0 792)" d="M263.425 631.875L266.414 631.875" stroke="#000000" stroke-width="0.398" fill="none" /><path id="1720" transform="matrix(1 0 0 -1 0 792)" d="M284.944 631.875L287.933 631.875" stroke="#000000" stroke-width="0.398" fill="none" /><path id="1724" transform="matrix(1 0 0 -1 0 792)" d="M394.371 627.594L394.371 641.161" stroke="#000000" stroke-width="0.398" fill="none" /><path id="1726" transform="matrix(1 0 0 -1 0 792)" d="M509.572 627.594L509.572 641.161" stroke="#000000" stroke-width="0.398" fill="none" /><path id="1727" transform="matrix(1 0 0 -1 0 792)" d="M65.218 614.027L65.218 627.594" stroke="#000000" stroke-width="0.398" fill="none" /><path id="1741" transform="matrix(1 0 0 -1 0 792)" d="M172.565 618.309L175.554 618.309" stroke="#000000" stroke-width="0.398" fill="none" /><path id="1746" transform="matrix(1 0 0 -1 0 792)" d="M200.062 618.309L203.051 618.309" stroke="#000000" stroke-width="0.398" fill="none" /><path id="1760" transform="matrix(1 0 0 -1 0 792)" d="M281.357 618.309L284.346 618.309" stroke="#000000" stroke-width="0.398" fill="none" /><path id="1764" transform="matrix(1 0 0 -1 0 792)" d="M302.877 618.309L305.866 618.309" stroke="#000000" stroke-width="0.398" fill="none" /><path id="1770" transform="matrix(1 0 0 -1 0 792)" d="M394.371 614.027L394.371 627.594" stroke="#000000" stroke-width="0.398" fill="none" /><path id="1772" transform="matrix(1 0 0 -1 0 792)" d="M509.572 614.027L509.572 627.594" stroke="#000000" stroke-width="0.398" fill="none" /><path id="1773" transform="matrix(1 0 0 -1 0 792)" d="M65.218 600.461L65.218 614.028" stroke="#000000" stroke-width="0.398" fill="none" /><path id="1787" transform="matrix(1 0 0 -1 0 792)" d="M172.565 604.742L175.554 604.742" stroke="#000000" stroke-width="0.398" fill="none" /><path id="1791" transform="matrix(1 0 0 -1 0 792)" d="M194.085 604.742L197.074 604.742" stroke="#000000" stroke-width="0.398" fill="none" /><path id="1796" transform="matrix(1 0 0 -1 0 792)" d="M394.371 600.461L394.371 614.028" stroke="#000000" stroke-width="0.398" fill="none" /><path id="1798" transform="matrix(1 0 0 -1 0 792)" d="M509.572 600.461L509.572 614.028" stroke="#000000" stroke-width="0.398" fill="none" /><path id="1799" transform="matrix(1 0 0 -1 0 792)" d="M65.218 586.894L65.218 600.461" stroke="#000000" stroke-width="0.398" fill="none" /><path id="1811" transform="matrix(1 0 0 -1 0 792)" d="M160.61 591.175L163.599 591.175" stroke="#000000" stroke-width="0.398" fill="none" /><path id="1819" transform="matrix(1 0 0 -1 0 792)" d="M206.04 591.175L209.029 591.175" stroke="#000000" stroke-width="0.398" fill="none" /><path id="1824" transform="matrix(1 0 0 -1 0 792)" d="M394.371 586.894L394.371 600.461" stroke="#000000" stroke-width="0.398" fill="none" /><path id="1826" transform="matrix(1 0 0 -1 0 792)" d="M509.572 586.894L509.572 600.461" stroke="#000000" stroke-width="0.398" fill="none" /><path id="1827" transform="matrix(1 0 0 -1 0 792)" d="M65.218 573.327L65.218 586.894" stroke="#000000" stroke-width="0.398" fill="none" /><path id="1841" transform="matrix(1 0 0 -1 0 792)" d="M172.565 577.609L175.554 577.609" stroke="#000000" stroke-width="0.398" fill="none" /><path id="1849" transform="matrix(1 0 0 -1 0 792)" d="M217.995 577.609L220.984 577.609" stroke="#000000" stroke-width="0.398" fill="none" /><path id="1854" transform="matrix(1 0 0 -1 0 792)" d="M394.371 573.327L394.371 586.894" stroke="#000000" stroke-width="0.398" fill="none" /><path id="1856" transform="matrix(1 0 0 -1 0 792)" d="M509.572 573.327L509.572 586.894" stroke="#000000" stroke-width="0.398" fill="none" /><path id="1857" transform="matrix(1 0 0 -1 0 792)" d="M65.218 559.761L65.218 573.328" stroke="#000000" stroke-width="0.398" fill="none" /><path id="1871" transform="matrix(1 0 0 -1 0 792)" d="M172.565 564.042L175.554 564.042" stroke="#000000" stroke-width="0.398" fill="none" /><path id="1879" transform="matrix(1 0 0 -1 0 792)" d="M217.995 564.042L220.984 564.042" stroke="#000000" stroke-width="0.398" fill="none" /><path id="1884" transform="matrix(1 0 0 -1 0 792)" d="M394.371 559.761L394.371 573.328" stroke="#000000" stroke-width="0.398" fill="none" /><path id="1886" transform="matrix(1 0 0 -1 0 792)" d="M509.572 559.761L509.572 573.328" stroke="#000000" stroke-width="0.398" fill="none" /><path id="1887" transform="matrix(1 0 0 -1 0 792)" d="M65.218 546.194L65.218 559.761" stroke="#000000" stroke-width="0.398" fill="none" /><path id="1901" transform="matrix(1 0 0 -1 0 792)" d="M172.565 550.476L175.554 550.476" stroke="#000000" stroke-width="0.398" fill="none" /><path id="1910" transform="matrix(1 0 0 -1 0 792)" d="M394.371 546.194L394.371 559.761" stroke="#000000" stroke-width="0.398" fill="none" /><path id="1912" transform="matrix(1 0 0 -1 0 792)" d="M509.572 546.194L509.572 559.761" stroke="#000000" stroke-width="0.398" fill="none" /><path id="1913" transform="matrix(1 0 0 -1 0 792)" d="M65.218 532.627L65.218 546.194" stroke="#000000" stroke-width="0.398" fill="none" /><path id="1928" transform="matrix(1 0 0 -1 0 792)" d="M178.543 536.909L181.532 536.909" stroke="#000000" stroke-width="0.398" fill="none" /><path id="1935" transform="matrix(1 0 0 -1 0 792)" d="M394.371 532.627L394.371 546.194" stroke="#000000" stroke-width="0.398" fill="none" /><path id="1937" transform="matrix(1 0 0 -1 0 792)" d="M509.572 532.627L509.572 546.194" stroke="#000000" stroke-width="0.398" fill="none" /><path id="1938" transform="matrix(1 0 0 -1 0 792)" d="M65.019 532.428L509.771 532.428" stroke="#000000" stroke-width="0.398" fill="none" /><path id="1939" transform="matrix(1 0 0 -1 0 792)" d="M65.019 532.428L509.771 532.428" stroke="#000000" stroke-width="0.398" fill="none" /><path id="1940" transform="matrix(1 0 0 -1 0 792)" d="M65.218 505.13L65.218 532.228" stroke="#000000" stroke-width="0.398" fill="none" /><path id="1996" transform="matrix(1 0 0 -1 0 792)" d="M394.371 505.13L394.371 532.228" stroke="#000000" stroke-width="0.398" fill="none" /><path id="1998" transform="matrix(1 0 0 -1 0 792)" d="M509.572 505.13L509.572 532.228" stroke="#000000" stroke-width="0.398" fill="none" /><path id="1999" transform="matrix(1 0 0 -1 0 792)" d="M65.019 504.931L509.771 504.931" stroke="#000000" stroke-width="0.398" fill="none" /><path id="2000" transform="matrix(1 0 0 -1 0 792)" d="M65.019 504.931L509.771 504.931" stroke="#000000" stroke-width="0.398" fill="none" /><path id="2001" transform="matrix(1 0 0 -1 0 792)" d="M65.218 477.634L65.218 504.732" stroke="#000000" stroke-width="0.398" fill="none" /><path id="2071" transform="matrix(1 0 0 -1 0 792)" d="M394.371 477.634L394.371 504.732" stroke="#000000" stroke-width="0.398" fill="none" /><path id="2073" transform="matrix(1 0 0 -1 0 792)" d="M509.572 477.634L509.572 504.732" stroke="#000000" stroke-width="0.398" fill="none" /><path id="2074" transform="matrix(1 0 0 -1 0 792)" d="M65.019 477.434L509.771 477.434" stroke="#000000" stroke-width="0.398" fill="none" /><path id="2075" transform="matrix(1 0 0 -1 0 792)" d="M65.019 477.434L509.771 477.434" stroke="#000000" stroke-width="0.398" fill="none" /><path id="2076" transform="matrix(1 0 0 -1 0 792)" d="M65.218 463.686L65.218 477.235" stroke="#000000" stroke-width="0.398" fill="none" /><path id="2116" transform="matrix(1 0 0 -1 0 792)" d="M509.572 463.686L509.572 477.235" stroke="#000000" stroke-width="0.398" fill="none" /><path id="2117" transform="matrix(1 0 0 -1 0 792)" d="M65.218 450.119L65.218 463.686" stroke="#000000" stroke-width="0.398" fill="none" /><path id="2132" transform="matrix(1 0 0 -1 0 792)" d="M178.543 454.401L181.532 454.401" stroke="#000000" stroke-width="0.398" fill="none" /><path id="2143" transform="matrix(1 0 0 -1 0 792)" d="M241.905 454.401L244.894 454.401" stroke="#000000" stroke-width="0.398" fill="none" /><path id="2148" transform="matrix(1 0 0 -1 0 792)" d="M269.402 454.401L272.391 454.401" stroke="#000000" stroke-width="0.398" fill="none" /><path id="2152" transform="matrix(1 0 0 -1 0 792)" d="M394.371 450.119L394.371 463.686" stroke="#000000" stroke-width="0.398" fill="none" /><path id="2154" transform="matrix(1 0 0 -1 0 792)" d="M509.572 450.119L509.572 463.686" stroke="#000000" stroke-width="0.398" fill="none" /><path id="2155" transform="matrix(1 0 0 -1 0 792)" d="M65.218 436.553L65.218 450.12" stroke="#000000" stroke-width="0.398" fill="none" /><path id="2170" transform="matrix(1 0 0 -1 0 792)" d="M178.543 440.834L181.532 440.834" stroke="#000000" stroke-width="0.398" fill="none" /><path id="2173" transform="matrix(1 0 0 -1 0 792)" d="M394.371 436.553L394.371 450.12" stroke="#000000" stroke-width="0.398" fill="none" /><path id="2175" transform="matrix(1 0 0 -1 0 792)" d="M509.572 436.553L509.572 450.12" stroke="#000000" stroke-width="0.398" fill="none" /><path id="2176" transform="matrix(1 0 0 -1 0 792)" d="M65.218 422.986L65.218 436.553" stroke="#000000" stroke-width="0.398" fill="none" /><path id="2191" transform="matrix(1 0 0 -1 0 792)" d="M178.543 427.268L181.532 427.268" stroke="#000000" stroke-width="0.398" fill="none" /><path id="2194" transform="matrix(1 0 0 -1 0 792)" d="M394.371 422.986L394.371 436.553" stroke="#000000" stroke-width="0.398" fill="none" /><path id="2196" transform="matrix(1 0 0 -1 0 792)" d="M509.572 422.986L509.572 436.553" stroke="#000000" stroke-width="0.398" fill="none" /><path id="2197" transform="matrix(1 0 0 -1 0 792)" d="M65.019 422.787L509.771 422.787" stroke="#000000" stroke-width="0.398" fill="none" /><path id="2198" transform="matrix(1 0 0 -1 0 792)" d="M65.019 422.787L509.771 422.787" stroke="#000000" stroke-width="0.398" fill="none" /><path id="2199" transform="matrix(1 0 0 -1 0 792)" d="M65.218 409.021L65.218 422.588" stroke="#000000" stroke-width="0.398" fill="none" /><path id="2245" transform="matrix(1 0 0 -1 0 792)" d="M394.371 409.021L394.371 422.588" stroke="#000000" stroke-width="0.398" fill="none" /><path id="2247" transform="matrix(1 0 0 -1 0 792)" d="M509.572 409.021L509.572 422.588" stroke="#000000" stroke-width="0.398" fill="none" /><path id="2248" transform="matrix(1 0 0 -1 0 792)" d="M65.019 408.822L509.771 408.822" stroke="#000000" stroke-width="0.398" fill="none" /><path id="2249" transform="matrix(1 0 0 -1 0 792)" d="M65.019 408.822L509.771 408.822" stroke="#000000" stroke-width="0.398" fill="none" /><path id="2250" transform="matrix(1 0 0 -1 0 792)" d="M65.218 395.056L65.218 408.623" stroke="#000000" stroke-width="0.398" fill="none" /><path id="2288" transform="matrix(1 0 0 -1 0 792)" d="M394.371 395.056L394.371 408.623" stroke="#000000" stroke-width="0.398" fill="none" /><path id="2290" transform="matrix(1 0 0 -1 0 792)" d="M509.572 395.056L509.572 408.623" stroke="#000000" stroke-width="0.398" fill="none" /><path id="2291" transform="matrix(1 0 0 -1 0 792)" d="M65.019 394.856L509.771 394.856" stroke="#000000" stroke-width="0.398" fill="none" /><path id="2292" transform="matrix(1 0 0 -1 0 792)" d="M65.019 394.856L509.771 394.856" stroke="#000000" stroke-width="0.398" fill="none" /><path id="2293" transform="matrix(1 0 0 -1 0 792)" d="M65.218 381.091L65.218 394.658" stroke="#000000" stroke-width="0.398" fill="none" /><path id="2323" transform="matrix(1 0 0 -1 0 792)" d="M394.371 381.091L394.371 394.658" stroke="#000000" stroke-width="0.398" fill="none" /><path id="2325" transform="matrix(1 0 0 -1 0 792)" d="M509.572 381.091L509.572 394.658" stroke="#000000" stroke-width="0.398" fill="none" /><path id="2326" transform="matrix(1 0 0 -1 0 792)" d="M65.019 380.891L509.771 380.891" stroke="#000000" stroke-width="0.398" fill="none" /><path id="2327" transform="matrix(1 0 0 -1 0 792)" d="M65.019 380.891L509.771 380.891" stroke="#000000" stroke-width="0.398" fill="none" /><path id="2328" transform="matrix(1 0 0 -1 0 792)" d="M65.218 353.594L65.218 380.692" stroke="#000000" stroke-width="0.398" fill="none" /><path id="2396" transform="matrix(1 0 0 -1 0 792)" d="M394.371 353.594L394.371 380.692" stroke="#000000" stroke-width="0.398" fill="none" /><path id="2398" transform="matrix(1 0 0 -1 0 792)" d="M509.572 353.594L509.572 380.692" stroke="#000000" stroke-width="0.398" fill="none" /><path id="2399" transform="matrix(1 0 0 -1 0 792)" d="M65.019 353.394L509.771 353.394" stroke="#000000" stroke-width="0.398" fill="none" /><path id="2400" transform="matrix(1 0 0 -1 0 792)" d="M65.019 353.394L509.771 353.394" stroke="#000000" stroke-width="0.398" fill="none" /><path id="2401" transform="matrix(1 0 0 -1 0 792)" d="M65.218 326.097L65.218 353.195" stroke="#000000" stroke-width="0.398" fill="none" /><path id="2464" transform="matrix(1 0 0 -1 0 792)" d="M394.371 326.097L394.371 353.195" stroke="#000000" stroke-width="0.398" fill="none" /><path id="2466" transform="matrix(1 0 0 -1 0 792)" d="M509.572 326.097L509.572 353.195" stroke="#000000" stroke-width="0.398" fill="none" /><path id="2467" transform="matrix(1 0 0 -1 0 792)" d="M65.019 325.898L509.771 325.898" stroke="#000000" stroke-width="0.398" fill="none" /><path id="2468" transform="matrix(1 0 0 -1 0 792)" d="M65.019 325.898L509.771 325.898" stroke="#000000" stroke-width="0.398" fill="none" /><path id="2469" transform="matrix(1 0 0 -1 0 792)" d="M65.218 312.149L65.218 325.698" stroke="#000000" stroke-width="0.398" fill="none" /><path id="2497" transform="matrix(1 0 0 -1 0 792)" d="M509.572 312.149L509.572 325.698" stroke="#000000" stroke-width="0.398" fill="none" /><path id="2498" transform="matrix(1 0 0 -1 0 792)" d="M65.218 298.582L65.218 312.149" stroke="#000000" stroke-width="0.398" fill="none" /><path id="2510" transform="matrix(1 0 0 -1 0 792)" d="M160.61 302.864L163.599 302.864" stroke="#000000" stroke-width="0.398" fill="none" /><path id="2521" transform="matrix(1 0 0 -1 0 792)" d="M223.973 302.864L226.962 302.864" stroke="#000000" stroke-width="0.398" fill="none" /><path id="2526" transform="matrix(1 0 0 -1 0 792)" d="M251.469 302.864L254.458 302.864" stroke="#000000" stroke-width="0.398" fill="none" /><path id="2530" transform="matrix(1 0 0 -1 0 792)" d="M394.371 298.582L394.371 312.149" stroke="#000000" stroke-width="0.398" fill="none" /><path id="2532" transform="matrix(1 0 0 -1 0 792)" d="M509.572 298.582L509.572 312.149" stroke="#000000" stroke-width="0.398" fill="none" /><path id="2533" transform="matrix(1 0 0 -1 0 792)" d="M65.218 285.016L65.218 298.583" stroke="#000000" stroke-width="0.398" fill="none" /><path id="2545" transform="matrix(1 0 0 -1 0 792)" d="M160.61 289.297L163.599 289.297" stroke="#000000" stroke-width="0.398" fill="none" /><path id="2548" transform="matrix(1 0 0 -1 0 792)" d="M394.371 285.016L394.371 298.583" stroke="#000000" stroke-width="0.398" fill="none" /><path id="2550" transform="matrix(1 0 0 -1 0 792)" d="M509.572 285.016L509.572 298.583" stroke="#000000" stroke-width="0.398" fill="none" /><path id="2551" transform="matrix(1 0 0 -1 0 792)" d="M65.218 271.449L65.218 285.016" stroke="#000000" stroke-width="0.398" fill="none" /><path id="2563" transform="matrix(1 0 0 -1 0 792)" d="M160.61 275.731L163.599 275.731" stroke="#000000" stroke-width="0.398" fill="none" /><path id="2574" transform="matrix(1 0 0 -1 0 792)" d="M223.973 275.731L226.962 275.731" stroke="#000000" stroke-width="0.398" fill="none" /><path id="2577" transform="matrix(1 0 0 -1 0 792)" d="M394.371 271.449L394.371 285.016" stroke="#000000" stroke-width="0.398" fill="none" /><path id="2579" transform="matrix(1 0 0 -1 0 792)" d="M509.572 271.449L509.572 285.016" stroke="#000000" stroke-width="0.398" fill="none" /><path id="2580" transform="matrix(1 0 0 -1 0 792)" d="M65.019 271.25L509.771 271.25" stroke="#000000" stroke-width="0.398" fill="none" /><path id="2581" transform="matrix(1 0 0 -1 0 792)" d="M65.019 271.25L509.771 271.25" stroke="#000000" stroke-width="0.398" fill="none" /><path id="2582" transform="matrix(1 0 0 -1 0 792)" d="M65.218 257.484L65.218 271.051" stroke="#000000" stroke-width="0.398" fill="none" /><path id="2629" transform="matrix(1 0 0 -1 0 792)" d="M394.371 257.484L394.371 271.051" stroke="#000000" stroke-width="0.398" fill="none" /><path id="2631" transform="matrix(1 0 0 -1 0 792)" d="M509.572 257.484L509.572 271.051" stroke="#000000" stroke-width="0.398" fill="none" /><path id="2632" transform="matrix(1 0 0 -1 0 792)" d="M65.019 257.285L509.771 257.285" stroke="#000000" stroke-width="0.398" fill="none" /><path id="2633" transform="matrix(1 0 0 -1 0 792)" d="M65.019 257.285L509.771 257.285" stroke="#000000" stroke-width="0.398" fill="none" /><path id="2634" transform="matrix(1 0 0 -1 0 792)" d="M65.218 243.519L65.218 257.086" stroke="#000000" stroke-width="0.398" fill="none" /><path id="2684" transform="matrix(1 0 0 -1 0 792)" d="M394.371 243.519L394.371 257.086" stroke="#000000" stroke-width="0.398" fill="none" /><path id="2686" transform="matrix(1 0 0 -1 0 792)" d="M509.572 243.519L509.572 257.086" stroke="#000000" stroke-width="0.398" fill="none" /><path id="2687" transform="matrix(1 0 0 -1 0 792)" d="M65.019 243.32L509.771 243.32" stroke="#000000" stroke-width="0.398" fill="none" /><path id="2688" transform="matrix(1 0 0 -1 0 792)" d="M65.019 243.32L509.771 243.32" stroke="#000000" stroke-width="0.398" fill="none" /><path id="2689" transform="matrix(1 0 0 -1 0 792)" d="M65.218 229.554L65.218 243.121" stroke="#000000" stroke-width="0.398" fill="none" /><path id="2720" transform="matrix(1 0 0 -1 0 792)" d="M394.371 229.554L394.371 243.121" stroke="#000000" stroke-width="0.398" fill="none" /><path id="2722" transform="matrix(1 0 0 -1 0 792)" d="M509.572 229.554L509.572 243.121" stroke="#000000" stroke-width="0.398" fill="none" /><path id="2723" transform="matrix(1 0 0 -1 0 792)" d="M65.019 229.354L509.771 229.354" stroke="#000000" stroke-width="0.398" fill="none" /><path id="2724" transform="matrix(1 0 0 -1 0 792)" d="M65.019 229.354L509.771 229.354" stroke="#000000" stroke-width="0.398" fill="none" /></g></g></svg>