<svg xmlns="http://www.w3.org/2000/svg" xmlns:xlink="http://www.w3.org/1999/xlink" id="body_80" preserveAspectRatio="xMinYMin meet" viewBox="0 0 1632 1056"><defs><clipPath id="1"><path id="" clip-rule="evenodd" transform="matrix(1 0 0 1 0 0)" d="M0 792L0 0L0 0L1224 0L1224 0L1224 792L1224 792L0 792z" /></clipPath></defs><g transform="matrix(1.333333 0 0 1.333333 0 0)"><g clip-path="url(#1)"><path id="80" transform="matrix(1 0 0 -1 0 792)" d="M859.3849 282.596L862.658 282.596" stroke="#000000" stroke-width="0.398" fill="none" /><path id="81" transform="matrix(1 0 0 -1 0 792)" d="M883.919 282.596L887.192 282.596" stroke="#000000" stroke-width="0.398" fill="none" /><path id="82" transform="matrix(1 0 0 -1 0 792)" d="M1027.297 224.015L1030.57 224.015" stroke="#000000" stroke-width="0.398" fill="none" /><path id="85" transform="matrix(1 0 0 -1 0 792)" d="M666.067 464.018L1132.726 464.018L1132.726 464.018L1132.726 517.8115L1132.726 517.8115L666.067 517.8115z" stroke="#FFFFFF" stroke-width="1" fill="#FFFFFF" fill-rule="nonzero" /><path id="185" transform="matrix(1 0 0 -1 0 792)" d="M683.004 450.469L1132.721 450.469L1132.721 450.469L1132.721 463.6145L1132.721 463.6145L683.004 463.6145z" stroke="#FFFFFF" stroke-width="1" fill="#FFFFFF" fill-rule="nonzero" /><path id="208" transform="matrix(1 0 0 -1 0 792)" d="M666.067 409.821L1132.725 409.821L1132.725 409.821L1132.725 450.0645L1132.725 450.0645L666.067 450.0645z" stroke="#FFFFFF" stroke-width="1" fill="#FFFFFF" fill-rule="nonzero" /><path id="268" transform="matrix(1 0 0 -1 0 792)" d="M666.067 304.835L1132.726 304.835L1132.726 304.835L1132.726 331.5295L1132.726 331.5295L666.067 331.5295z" stroke="#FFFFFF" stroke-width="1" fill="#FFFFFF" fill-rule="nonzero" /><path id="313" transform="matrix(1 0 0 -1 0 792)" d="M682.431 271.924L1132.723 271.924L1132.723 271.924L1132.723 292.4768L1132.723 292.4768L682.431 292.4768z" stroke="#FFFFFF" stroke-width="1" fill="#FFFFFF" fill-rule="nonzero" /><path id="346" transform="matrix(1 0 0 -1 0 792)" d="M693.34 265.782L1087.573 265.782L1087.573 265.782L1087.573 278.9275L1087.573 278.9275L693.34 278.9275z" stroke="#FFFFFF" stroke-width="1" fill="#FFFFFF" fill-rule="nonzero" /><path id="375" transform="matrix(1 0 0 -1 0 792)" d="M682.431 235.859L1053.696 235.859L1053.696 235.859L1053.696 256.8481L1053.696 256.8481L682.431 256.8481z" stroke="#FFFFFF" stroke-width="1" fill="#FFFFFF" fill-rule="nonzero" /><path id="405" transform="matrix(1 0 0 -1 0 792)" d="M682.431 213.343L1053.904 213.343L1053.904 213.343L1053.904 233.8957L1053.904 233.8957L682.431 233.8957z" stroke="#FFFFFF" stroke-width="1" fill="#FFFFFF" fill-rule="nonzero" /><path id="435" transform="matrix(1 0 0 -1 0 792)" d="M666.067 183.81L941.571 183.81L941.571 183.81L941.571 202.4744L941.571 202.4744L666.067 202.4744z" stroke="#FFFFFF" stroke-width="1" fill="#FFFFFF" fill-rule="nonzero" /><path id="449" transform="matrix(1 0 0 -1 0 792)" d="M666.067 133.043L1132.725 133.043L1132.725 133.043L1132.725 173.941L1132.725 173.941L666.067 173.941z" stroke="#FFFFFF" stroke-width="1" fill="#FFFFFF" fill-rule="nonzero" /><path id="530" transform="matrix(1 0 0 -1 0 792)" d="M683.004 120.149L1132.721 120.149L1132.721 120.149L1132.721 133.2945L1132.721 133.2945L683.004 133.2945z" stroke="#FFFFFF" stroke-width="1" fill="#FFFFFF" fill-rule="nonzero" /><path id="563" transform="matrix(1 0 0 -1 0 792)" d="M666.067 93.0506L1132.722 93.0506L1132.722 93.0506L1132.722 120.1378L1132.722 120.1378L666.067 120.1378z" stroke="#FFFFFF" stroke-width="1" fill="#FFFFFF" fill-rule="nonzero" /><path id="1432" transform="matrix(1 0 0 -1 0 792)" d="M247.385 282.596L250.658 282.596" stroke="#000000" stroke-width="0.398" fill="none" /><path id="1436" transform="matrix(1 0 0 -1 0 792)" d="M271.919 282.596L275.192 282.596" stroke="#000000" stroke-width="0.398" fill="none" /><path id="1688" transform="matrix(1 0 0 -1 0 792)" d="M415.297 224.015L418.57 224.015" stroke="#000000" stroke-width="0.398" fill="none" /></g></g></svg>