<svg xmlns="http://www.w3.org/2000/svg" xmlns:xlink="http://www.w3.org/1999/xlink" id="body_26" preserveAspectRatio="xMinYMin meet" viewBox="0 0 1632 1056"><defs><clipPath id="1"><path id="" clip-rule="evenodd" transform="matrix(1 0 0 1 0 0)" d="M0 792L0 0L0 0L1224 0L1224 0L1224 792L1224 792L0 792z" /></clipPath></defs><g transform="matrix(1.333333 0 0 1.333333 0 0)"><g clip-path="url(#1)"><path id="16" transform="matrix(1 0 0 -1 0 792)" d="M666.067 721.28L1132.722 721.28" stroke="#000000" stroke-width="0.498" fill="none" /><path id="61" transform="matrix(1 0 0 -1 0 792)" d="M799.687 573.877L802.676 573.877" stroke="#000000" stroke-width="0.398" fill="none" /><path id="62" transform="matrix(1 0 0 -1 0 792)" d="M815.229 573.877L818.218 573.877" stroke="#000000" stroke-width="0.398" fill="none" /><path id="63" transform="matrix(1 0 0 -1 0 792)" d="M914.185 573.877L917.174 573.877" stroke="#000000" stroke-width="0.398" fill="none" /><path id="87" transform="matrix(1 0 0 -1 0 792)" d="M799.414 442.156L802.403 442.156" stroke="#000000" stroke-width="0.398" fill="none" /><path id="88" transform="matrix(1 0 0 -1 0 792)" d="M844.844 442.156L847.833 442.156" stroke="#000000" stroke-width="0.398" fill="none" /><path id="146" transform="matrix(1 0 0 -1 0 792)" d="M813.003 318.172L815.992 318.172" stroke="#000000" stroke-width="0.398" fill="none" /><path id="147" transform="matrix(1 0 0 -1 0 792)" d="M735.7809 274.722L738.77 274.722" stroke="#000000" stroke-width="0.398" fill="none" /><path id="148" transform="matrix(1 0 0 -1 0 792)" d="M757.3 274.722L760.289 274.722" stroke="#000000" stroke-width="0.398" fill="none" /><path id="149" transform="matrix(1 0 0 -1 0 792)" d="M1060.393 274.722L1063.382 274.722" stroke="#000000" stroke-width="0.398" fill="none" /><path id="150" transform="matrix(1 0 0 -1 0 792)" d="M1123.756 274.722L1126.745 274.722" stroke="#000000" stroke-width="0.398" fill="none" /><path id="151" transform="matrix(1 0 0 -1 0 792)" d="M735.7809 261.173L738.77 261.173" stroke="#000000" stroke-width="0.398" fill="none" /><path id="152" transform="matrix(1 0 0 -1 0 792)" d="M1060.821 261.173L1063.81 261.173" stroke="#000000" stroke-width="0.398" fill="none" /><path id="153" transform="matrix(1 0 0 -1 0 792)" d="M1082.341 261.173L1085.33 261.173" stroke="#000000" stroke-width="0.398" fill="none" /><path id="154" transform="matrix(1 0 0 -1 0 792)" d="M735.7809 247.623L738.77 247.623" stroke="#000000" stroke-width="0.398" fill="none" /><path id="155" transform="matrix(1 0 0 -1 0 792)" d="M775.233 247.623L778.222 247.623" stroke="#000000" stroke-width="0.398" fill="none" /><path id="156" transform="matrix(1 0 0 -1 0 792)" d="M867.349 247.623L870.338 247.623" stroke="#000000" stroke-width="0.398" fill="none" /><path id="157" transform="matrix(1 0 0 -1 0 792)" d="M906.801 247.623L909.79 247.623" stroke="#000000" stroke-width="0.398" fill="none" /><path id="158" transform="matrix(1 0 0 -1 0 792)" d="M986.962 247.623L989.951 247.623" stroke="#000000" stroke-width="0.398" fill="none" /><path id="159" transform="matrix(1 0 0 -1 0 792)" d="M1026.414 247.623L1029.403 247.623" stroke="#000000" stroke-width="0.398" fill="none" /><path id="160" transform="matrix(1 0 0 -1 0 792)" d="M1123.756 247.623L1126.745 247.623" stroke="#000000" stroke-width="0.398" fill="none" /><path id="161" transform="matrix(1 0 0 -1 0 792)" d="M729.803 234.074L732.792 234.074" stroke="#000000" stroke-width="0.398" fill="none" /><path id="162" transform="matrix(1 0 0 -1 0 792)" d="M921.551 234.074L924.54 234.074" stroke="#000000" stroke-width="0.398" fill="none" /><path id="163" transform="matrix(1 0 0 -1 0 792)" d="M984.914 234.074L987.903 234.074" stroke="#000000" stroke-width="0.398" fill="none" /><path id="164" transform="matrix(1 0 0 -1 0 792)" d="M1030.344 234.074L1033.333 234.074" stroke="#000000" stroke-width="0.398" fill="none" /><path id="189" transform="matrix(1 0 0 -1 0 792)" d="M666.067 620.706L1132.726 620.706L1132.726 620.706L1132.726 674.8313L1132.726 674.8313L666.067 674.8313z" stroke="#FFFFFF" stroke-width="1" fill="#FFFFFF" fill-rule="nonzero" /><path id="297" transform="matrix(1 0 0 -1 0 792)" d="M666.067 516.416L1132.727 516.416L1132.727 516.416L1132.727 583.7585L1132.727 583.7585L666.067 583.7585z" stroke="#FFFFFF" stroke-width="1" fill="#FFFFFF" fill-rule="nonzero" /><path id="433" transform="matrix(1 0 0 -1 0 792)" d="M666.067 438.891L1132.726 438.891L1132.726 438.891L1132.726 479.1345L1132.726 479.1345L666.067 479.1345z" stroke="#FFFFFF" stroke-width="1" fill="#FFFFFF" fill-rule="nonzero" /><path id="533" transform="matrix(1 0 0 -1 0 792)" d="M666.067 388.466L1011.613 388.466L1011.613 388.466L1011.613 401.6115L1011.613 401.6115L666.067 401.6115z" stroke="#FFFFFF" stroke-width="1" fill="#FFFFFF" fill-rule="nonzero" /><path id="562" transform="matrix(1 0 0 -1 0 792)" d="M666.067 338.041L1040.74 338.041L1040.74 338.041L1040.74 351.1865L1040.74 351.1865L666.067 351.1865z" stroke="#FFFFFF" stroke-width="1" fill="#FFFFFF" fill-rule="nonzero" /><path id="584" transform="matrix(1 0 0 -1 0 792)" d="M682.431 307.5L1083.629 307.5L1083.629 307.5L1083.629 328.0528L1083.629 328.0528L682.431 328.0528z" stroke="#FFFFFF" stroke-width="1" fill="#FFFFFF" fill-rule="nonzero" /><path id="624" transform="matrix(1 0 0 -1 0 792)" d="M682.431 285.775L1052.299 285.775L1052.299 285.775L1052.299 306.3278L1052.299 306.3278L682.431 306.3278z" stroke="#FFFFFF" stroke-width="1" fill="#FFFFFF" fill-rule="nonzero" /><path id="645" transform="matrix(1 0 0 -1 0 792)" d="M682.431 264.05L1132.722 264.05L1132.722 264.05L1132.722 284.6028L1132.722 284.6028L682.431 284.6028z" stroke="#FFFFFF" stroke-width="1" fill="#FFFFFF" fill-rule="nonzero" /><path id="703" transform="matrix(1 0 0 -1 0 792)" d="M693.34 217.261L1132.727 217.261L1132.727 217.261L1132.727 271.0535L1132.727 271.0535L693.34 271.0535z" stroke="#FFFFFF" stroke-width="1" fill="#FFFFFF" fill-rule="nonzero" /><path id="889" transform="matrix(1 0 0 -1 0 792)" d="M666.067 139.737L1132.726 139.737L1132.726 139.737L1132.726 179.9805L1132.726 179.9805L666.067 179.9805z" stroke="#FFFFFF" stroke-width="1" fill="#FFFFFF" fill-rule="nonzero" /><path id="944" transform="matrix(1 0 0 -1 0 792)" d="M683.004 122.587L1125.529 122.587L1125.529 122.587L1125.529 135.7325L1125.529 135.7325L683.004 135.7325z" stroke="#FFFFFF" stroke-width="1" fill="#FFFFFF" fill-rule="nonzero" /><path id="984" transform="matrix(1 0 0 -1 0 792)" d="M682.431 92.0463L1037.816 92.0463L1037.816 92.0463L1037.816 112.599L1037.816 112.599L682.431 112.599z" stroke="#FFFFFF" stroke-width="1" fill="#FFFFFF" fill-rule="nonzero" /><path id="1010" transform="matrix(1 0 0 -1 0 792)" d="M682.431 70.3213L1132.727 70.3213L1132.727 70.3213L1132.727 91.26669L1132.727 91.26669L682.431 91.26669z" stroke="#FFFFFF" stroke-width="1" fill="#FFFFFF" fill-rule="nonzero" /><path id="1066" transform="matrix(1 0 0 -1 0 792)" d="M54.067 721.28L520.722 721.28" stroke="#000000" stroke-width="0.498" fill="none" /><path id="1447" transform="matrix(1 0 0 -1 0 792)" d="M187.687 573.877L190.676 573.877" stroke="#000000" stroke-width="0.398" fill="none" /><path id="1450" transform="matrix(1 0 0 -1 0 792)" d="M203.229 573.877L206.218 573.877" stroke="#000000" stroke-width="0.398" fill="none" /><path id="1466" transform="matrix(1 0 0 -1 0 792)" d="M302.185 573.877L305.174 573.877" stroke="#000000" stroke-width="0.398" fill="none" /><path id="2024" transform="matrix(1 0 0 -1 0 792)" d="M187.414 442.156L190.403 442.156" stroke="#000000" stroke-width="0.398" fill="none" /><path id="2032" transform="matrix(1 0 0 -1 0 792)" d="M232.844 442.156L235.833 442.156" stroke="#000000" stroke-width="0.398" fill="none" /><path id="2262" transform="matrix(1 0 0 -1 0 792)" d="M201.003 318.172L203.992 318.172" stroke="#000000" stroke-width="0.398" fill="none" /><path id="2394" transform="matrix(1 0 0 -1 0 792)" d="M123.781 274.722L126.77 274.722" stroke="#000000" stroke-width="0.398" fill="none" /><path id="2398" transform="matrix(1 0 0 -1 0 792)" d="M145.3 274.722L148.289 274.722" stroke="#000000" stroke-width="0.398" fill="none" /><path id="2447" transform="matrix(1 0 0 -1 0 792)" d="M448.393 274.722L451.382 274.722" stroke="#000000" stroke-width="0.398" fill="none" /><path id="2458" transform="matrix(1 0 0 -1 0 792)" d="M511.756 274.722L514.745 274.722" stroke="#000000" stroke-width="0.398" fill="none" /><path id="2467" transform="matrix(1 0 0 -1 0 792)" d="M123.781 261.173L126.77 261.173" stroke="#000000" stroke-width="0.398" fill="none" /><path id="2524" transform="matrix(1 0 0 -1 0 792)" d="M448.821 261.173L451.81 261.173" stroke="#000000" stroke-width="0.398" fill="none" /><path id="2528" transform="matrix(1 0 0 -1 0 792)" d="M470.341 261.173L473.33 261.173" stroke="#000000" stroke-width="0.398" fill="none" /><path id="2544" transform="matrix(1 0 0 -1 0 792)" d="M123.781 247.623L126.77 247.623" stroke="#000000" stroke-width="0.398" fill="none" /><path id="2551" transform="matrix(1 0 0 -1 0 792)" d="M163.233 247.623L166.222 247.623" stroke="#000000" stroke-width="0.398" fill="none" /><path id="2567" transform="matrix(1 0 0 -1 0 792)" d="M255.349 247.623L258.338 247.623" stroke="#000000" stroke-width="0.398" fill="none" /><path id="2574" transform="matrix(1 0 0 -1 0 792)" d="M294.801 247.623L297.79 247.623" stroke="#000000" stroke-width="0.398" fill="none" /><path id="2588" transform="matrix(1 0 0 -1 0 792)" d="M374.962 247.623L377.951 247.623" stroke="#000000" stroke-width="0.398" fill="none" /><path id="2595" transform="matrix(1 0 0 -1 0 792)" d="M414.414 247.623L417.403 247.623" stroke="#000000" stroke-width="0.398" fill="none" /><path id="2612" transform="matrix(1 0 0 -1 0 792)" d="M511.756 247.623L514.745 247.623" stroke="#000000" stroke-width="0.398" fill="none" /><path id="2620" transform="matrix(1 0 0 -1 0 792)" d="M117.803 234.074L120.792 234.074" stroke="#000000" stroke-width="0.398" fill="none" /><path id="2652" transform="matrix(1 0 0 -1 0 792)" d="M309.551 234.074L312.54 234.074" stroke="#000000" stroke-width="0.398" fill="none" /><path id="2663" transform="matrix(1 0 0 -1 0 792)" d="M372.914 234.074L375.903 234.074" stroke="#000000" stroke-width="0.398" fill="none" /><path id="2671" transform="matrix(1 0 0 -1 0 792)" d="M418.344 234.074L421.333 234.074" stroke="#000000" stroke-width="0.398" fill="none" /></g></g></svg>