<svg xmlns="http://www.w3.org/2000/svg" xmlns:xlink="http://www.w3.org/1999/xlink" id="body_38" preserveAspectRatio="xMinYMin meet" viewBox="0 0 1632 1056"><defs><clipPath id="1"><path id="" clip-rule="evenodd" transform="matrix(1 0 0 1 0 0)" d="M0 792L0 0L0 0L1224 0L1224 0L1224 792L1224 792L0 792z" /></clipPath></defs><g transform="matrix(1.333333 0 0 1.333333 0 0)"><g clip-path="url(#1)"><path id="1" transform="matrix(1 0 0 -1 0 792)" d="M666.067 721.28L1132.722 721.28" stroke="#000000" stroke-width="0.498" fill="none" /><path id="50" transform="matrix(1 0 0 -1 0 792)" d="M1081.53 529.22L1084.519 529.22" stroke="#000000" stroke-width="0.398" fill="none" /><path id="51" transform="matrix(1 0 0 -1 0 792)" d="M723.826 141.967L726.815 141.967" stroke="#000000" stroke-width="0.398" fill="none" /><path id="52" transform="matrix(1 0 0 -1 0 792)" d="M1123.756 118.255L1126.745 118.255" stroke="#000000" stroke-width="0.398" fill="none" /><path id="53" transform="matrix(1 0 0 -1 0 792)" d="M1123.756 80.994L1126.745 80.994" stroke="#000000" stroke-width="0.398" fill="none" /><path id="54" transform="matrix(1 0 0 -1 0 792)" d="M666.067 722.529L1132.724 722.529L1132.724 722.529L1132.724 735.6745L1132.724 735.6745L666.067 735.6745z" stroke="#FFFFFF" stroke-width="1" fill="#FFFFFF" fill-rule="nonzero" /><path id="69" transform="matrix(1 0 0 -1 0 792)" d="M683.004 682.599L1132.721 682.599L1132.721 682.599L1132.721 695.7445L1132.721 695.7445L683.004 695.7445z" stroke="#FFFFFF" stroke-width="1" fill="#FFFFFF" fill-rule="nonzero" /><path id="100" transform="matrix(1 0 0 -1 0 792)" d="M666.067 655.5L1132.725 655.5L1132.725 655.5L1132.725 682.1955L1132.725 682.1955L666.067 682.1955z" stroke="#FFFFFF" stroke-width="1" fill="#FFFFFF" fill-rule="nonzero" /><path id="156" transform="matrix(1 0 0 -1 0 792)" d="M683.004 594L1132.727 594L1132.727 594L1132.727 607.1455L1132.727 607.1455L683.004 607.1455z" stroke="#FFFFFF" stroke-width="1" fill="#FFFFFF" fill-rule="nonzero" /><path id="194" transform="matrix(1 0 0 -1 0 792)" d="M666.067 566.901L1132.725 566.901L1132.725 566.901L1132.725 593.5955L1132.725 593.5955L666.067 593.5955z" stroke="#FFFFFF" stroke-width="1" fill="#FFFFFF" fill-rule="nonzero" /><path id="235" transform="matrix(1 0 0 -1 0 792)" d="M683.004 552.722L1132.718 552.722L1132.718 552.722L1132.718 566.1993L1132.718 566.1993L683.004 566.1993z" stroke="#FFFFFF" stroke-width="1" fill="#FFFFFF" fill-rule="nonzero" /><path id="276" transform="matrix(1 0 0 -1 0 792)" d="M666.067 525.954L1132.723 525.954L1132.723 525.954L1132.723 552.6495L1132.723 552.6495L666.067 552.6495z" stroke="#FFFFFF" stroke-width="1" fill="#FFFFFF" fill-rule="nonzero" /><path id="370" transform="matrix(1 0 0 -1 0 792)" d="M683.004 512.107L1132.719 512.107L1132.719 512.107L1132.719 525.2525L1132.719 525.2525L683.004 525.2525z" stroke="#FFFFFF" stroke-width="1" fill="#FFFFFF" fill-rule="nonzero" /><path id="410" transform="matrix(1 0 0 -1 0 792)" d="M666.067 444.361L1132.728 444.361L1132.728 444.361L1132.728 511.7035L1132.728 511.7035L666.067 511.7035z" stroke="#FFFFFF" stroke-width="1" fill="#FFFFFF" fill-rule="nonzero" /><path id="560" transform="matrix(1 0 0 -1 0 792)" d="M683.004 430.513L1132.721 430.513L1132.721 430.513L1132.721 443.6585L1132.721 443.6585L683.004 443.6585z" stroke="#FFFFFF" stroke-width="1" fill="#FFFFFF" fill-rule="nonzero" /><path id="594" transform="matrix(1 0 0 -1 0 792)" d="M666.067 362.766L1132.725 362.766L1132.725 362.766L1132.725 430.1085L1132.725 430.1085L666.067 430.1085z" stroke="#FFFFFF" stroke-width="1" fill="#FFFFFF" fill-rule="nonzero" /><path id="747" transform="matrix(1 0 0 -1 0 792)" d="M683.004 348.917L1132.721 348.917L1132.721 348.917L1132.721 362.0625L1132.721 362.0625L683.004 362.0625z" stroke="#FFFFFF" stroke-width="1" fill="#FFFFFF" fill-rule="nonzero" /><path id="783" transform="matrix(1 0 0 -1 0 792)" d="M666.067 267.622L1132.726 267.622L1132.726 267.622L1132.726 348.5135L1132.726 348.5135L666.067 348.5135z" stroke="#FFFFFF" stroke-width="1" fill="#FFFFFF" fill-rule="nonzero" /><path id="971" transform="matrix(1 0 0 -1 0 792)" d="M683.004 253.774L1078.371 253.774L1078.371 253.774L1078.371 266.9195L1078.371 266.9195L683.004 266.9195z" stroke="#FFFFFF" stroke-width="1" fill="#FFFFFF" fill-rule="nonzero" /><path id="996" transform="matrix(1 0 0 -1 0 792)" d="M682.431 219.367L1132.726 219.367L1132.726 219.367L1132.726 239.9197L1132.726 239.9197L682.431 239.9197z" stroke="#FFFFFF" stroke-width="1" fill="#FFFFFF" fill-rule="nonzero" /><path id="1027" transform="matrix(1 0 0 -1 0 792)" d="M693.34 213.225L791.3801 213.225L791.3801 213.225L791.3801 226.3705L791.3801 226.3705L693.34 226.3705z" stroke="#FFFFFF" stroke-width="1" fill="#FFFFFF" fill-rule="nonzero" /><path id="1035" transform="matrix(1 0 0 -1 0 792)" d="M682.431 182.105L1132.726 182.105L1132.726 182.105L1132.726 202.6577L1132.726 202.6577L682.431 202.6577z" stroke="#FFFFFF" stroke-width="1" fill="#FFFFFF" fill-rule="nonzero" /><path id="1059" transform="matrix(1 0 0 -1 0 792)" d="M693.34 175.964L822.406 175.964L822.406 175.964L822.406 189.1095L822.406 189.1095L693.34 189.1095z" stroke="#FFFFFF" stroke-width="1" fill="#FFFFFF" fill-rule="nonzero" /><path id="1071" transform="matrix(1 0 0 -1 0 792)" d="M682.431 144.844L1132.726 144.844L1132.726 144.844L1132.726 165.3967L1132.726 165.3967L682.431 165.3967z" stroke="#FFFFFF" stroke-width="1" fill="#FFFFFF" fill-rule="nonzero" /><path id="1103" transform="matrix(1 0 0 -1 0 792)" d="M682.431 107.583L1132.723 107.583L1132.723 107.583L1132.723 128.1357L1132.723 128.1357L682.431 128.1357z" stroke="#FFFFFF" stroke-width="1" fill="#FFFFFF" fill-rule="nonzero" /><path id="1136" transform="matrix(1 0 0 -1 0 792)" d="M682.431 70.3213L1132.723 70.3213L1132.723 70.3213L1132.723 90.87399L1132.723 90.87399L682.431 90.87399z" stroke="#FFFFFF" stroke-width="1" fill="#FFFFFF" fill-rule="nonzero" /><path id="1230" transform="matrix(1 0 0 -1 0 792)" d="M54.067 721.28L520.722 721.28" stroke="#000000" stroke-width="0.498" fill="none" /><path id="1923" transform="matrix(1 0 0 -1 0 792)" d="M469.53 529.22L472.519 529.22" stroke="#000000" stroke-width="0.398" fill="none" /><path id="3893" transform="matrix(1 0 0 -1 0 792)" d="M111.826 141.967L114.815 141.967" stroke="#000000" stroke-width="0.398" fill="none" /><path id="3986" transform="matrix(1 0 0 -1 0 792)" d="M511.756 118.255L514.745 118.255" stroke="#000000" stroke-width="0.398" fill="none" /><path id="4083" transform="matrix(1 0 0 -1 0 792)" d="M511.756 80.994L514.745 80.994" stroke="#000000" stroke-width="0.398" fill="none" /></g></g></svg>