<svg xmlns="http://www.w3.org/2000/svg" xmlns:xlink="http://www.w3.org/1999/xlink" id="body_14" preserveAspectRatio="xMinYMin meet" viewBox="0 0 1632 1056"><defs><clipPath id="1"><path id="" clip-rule="evenodd" transform="matrix(1 0 0 1 0 0)" d="M0 792L0 0L0 0L1224 0L1224 0L1224 792L1224 792L0 792z" /></clipPath></defs><g transform="matrix(1.333333 0 0 1.333333 0 0)"><g clip-path="url(#1)"><path id="18" transform="matrix(1 0 0 -1 0 792)" d="M666.067 721.28L1132.722 721.28" stroke="#000000" stroke-width="0.498" fill="none" /><path id="31" transform="matrix(1 0 0 -1 0 792)" d="M706.929 551.463L1091.86 551.463" stroke="#000000" stroke-width="0.398" fill="none" /><path id="32" transform="matrix(1 0 0 -1 0 792)" d="M706.929 551.463L1091.86 551.463" stroke="#000000" stroke-width="0.398" fill="none" /><path id="33" transform="matrix(1 0 0 -1 0 792)" d="M707.129 537.697L707.129 551.264" stroke="#000000" stroke-width="0.398" fill="none" /><path id="34" transform="matrix(1 0 0 -1 0 792)" d="M707.328 537.697L1036.083 537.697L1036.083 551.264L707.328 551.264z" stroke="none" fill="#CCCCEB" fill-rule="nonzero" /><path id="44" transform="matrix(1 0 0 -1 0 792)" d="M1036.282 537.697L1036.282 551.264" stroke="#000000" stroke-width="0.398" fill="none" /><path id="45" transform="matrix(1 0 0 -1 0 792)" d="M1036.481 537.697L1091.461 537.697L1091.461 551.264L1036.481 551.264z" stroke="none" fill="#CCCCEB" fill-rule="nonzero" /><path id="52" transform="matrix(1 0 0 -1 0 792)" d="M1091.661 537.697L1091.661 551.264" stroke="#000000" stroke-width="0.398" fill="none" /><path id="53" transform="matrix(1 0 0 -1 0 792)" d="M706.929 537.498L1091.86 537.498" stroke="#000000" stroke-width="0.398" fill="none" /><path id="54" transform="matrix(1 0 0 -1 0 792)" d="M706.929 537.498L1091.86 537.498" stroke="#000000" stroke-width="0.398" fill="none" /><path id="55" transform="matrix(1 0 0 -1 0 792)" d="M706.929 537.1L1091.86 537.1" stroke="#000000" stroke-width="0.398" fill="none" /><path id="56" transform="matrix(1 0 0 -1 0 792)" d="M706.929 537.1L1091.86 537.1" stroke="#000000" stroke-width="0.398" fill="none" /><path id="57" transform="matrix(1 0 0 -1 0 792)" d="M707.129 523.334L707.129 536.901" stroke="#000000" stroke-width="0.398" fill="none" /><path id="103" transform="matrix(1 0 0 -1 0 792)" d="M1036.282 523.334L1036.282 536.901" stroke="#000000" stroke-width="0.398" fill="none" /><path id="105" transform="matrix(1 0 0 -1 0 792)" d="M1091.661 523.334L1091.661 536.901" stroke="#000000" stroke-width="0.398" fill="none" /><path id="106" transform="matrix(1 0 0 -1 0 792)" d="M706.929 523.134L1091.86 523.134" stroke="#000000" stroke-width="0.398" fill="none" /><path id="107" transform="matrix(1 0 0 -1 0 792)" d="M706.929 523.134L1091.86 523.134" stroke="#000000" stroke-width="0.398" fill="none" /><path id="108" transform="matrix(1 0 0 -1 0 792)" d="M707.129 509.368L707.129 522.935" stroke="#000000" stroke-width="0.398" fill="none" /><path id="152" transform="matrix(1 0 0 -1 0 792)" d="M1036.282 509.368L1036.282 522.935" stroke="#000000" stroke-width="0.398" fill="none" /><path id="154" transform="matrix(1 0 0 -1 0 792)" d="M1091.661 509.368L1091.661 522.935" stroke="#000000" stroke-width="0.398" fill="none" /><path id="155" transform="matrix(1 0 0 -1 0 792)" d="M706.929 509.169L1091.86 509.169" stroke="#000000" stroke-width="0.398" fill="none" /><path id="156" transform="matrix(1 0 0 -1 0 792)" d="M706.929 509.169L1091.86 509.169" stroke="#000000" stroke-width="0.398" fill="none" /><path id="157" transform="matrix(1 0 0 -1 0 792)" d="M707.129 495.403L707.129 508.97" stroke="#000000" stroke-width="0.398" fill="none" /><path id="181" transform="matrix(1 0 0 -1 0 792)" d="M828.672 499.685L831.661 499.685" stroke="#000000" stroke-width="0.398" fill="none" /><path id="193" transform="matrix(1 0 0 -1 0 792)" d="M1036.282 495.403L1036.282 508.97" stroke="#000000" stroke-width="0.398" fill="none" /><path id="195" transform="matrix(1 0 0 -1 0 792)" d="M1091.661 495.403L1091.661 508.97" stroke="#000000" stroke-width="0.398" fill="none" /><path id="196" transform="matrix(1 0 0 -1 0 792)" d="M706.929 495.204L1091.86 495.204" stroke="#000000" stroke-width="0.398" fill="none" /><path id="197" transform="matrix(1 0 0 -1 0 792)" d="M706.929 495.204L1091.86 495.204" stroke="#000000" stroke-width="0.398" fill="none" /><path id="223" transform="matrix(1 0 0 -1 0 792)" d="M666.067 323.299L1050.998 323.299" stroke="#000000" stroke-width="0.398" fill="none" /><path id="224" transform="matrix(1 0 0 -1 0 792)" d="M666.266 309.533L666.266 323.1" stroke="#000000" stroke-width="0.398" fill="none" /><path id="225" transform="matrix(1 0 0 -1 0 792)" d="M666.4659 309.533L995.2209 309.533L995.2209 323.1L666.4659 323.1z" stroke="none" fill="#CCCCEB" fill-rule="nonzero" /><path id="235" transform="matrix(1 0 0 -1 0 792)" d="M995.42 309.533L995.42 323.1" stroke="#000000" stroke-width="0.398" fill="none" /><path id="236" transform="matrix(1 0 0 -1 0 792)" d="M995.619 309.533L1050.599 309.533L1050.599 323.1L995.619 323.1z" stroke="none" fill="#CCCCEB" fill-rule="nonzero" /><path id="243" transform="matrix(1 0 0 -1 0 792)" d="M1050.799 309.533L1050.799 323.1" stroke="#000000" stroke-width="0.398" fill="none" /><path id="244" transform="matrix(1 0 0 -1 0 792)" d="M666.067 309.334L1050.998 309.334" stroke="#000000" stroke-width="0.398" fill="none" /><path id="245" transform="matrix(1 0 0 -1 0 792)" d="M666.067 306.943L1050.998 306.943" stroke="#000000" stroke-width="0.398" fill="none" /><path id="246" transform="matrix(1 0 0 -1 0 792)" d="M666.266 293.177L666.266 306.744" stroke="#000000" stroke-width="0.398" fill="none" /><path id="281" transform="matrix(1 0 0 -1 0 792)" d="M995.42 293.177L995.42 306.744" stroke="#000000" stroke-width="0.398" fill="none" /><path id="283" transform="matrix(1 0 0 -1 0 792)" d="M1050.799 293.177L1050.799 306.744" stroke="#000000" stroke-width="0.398" fill="none" /><path id="284" transform="matrix(1 0 0 -1 0 792)" d="M666.067 292.977L1050.998 292.977" stroke="#000000" stroke-width="0.398" fill="none" /><path id="285" transform="matrix(1 0 0 -1 0 792)" d="M666.266 279.211L666.266 292.778" stroke="#000000" stroke-width="0.398" fill="none" /><path id="318" transform="matrix(1 0 0 -1 0 792)" d="M995.42 279.211L995.42 292.778" stroke="#000000" stroke-width="0.398" fill="none" /><path id="320" transform="matrix(1 0 0 -1 0 792)" d="M1050.799 279.211L1050.799 292.778" stroke="#000000" stroke-width="0.398" fill="none" /><path id="321" transform="matrix(1 0 0 -1 0 792)" d="M666.067 279.012L1050.998 279.012" stroke="#000000" stroke-width="0.398" fill="none" /><path id="343" transform="matrix(1 0 0 -1 0 792)" d="M706.929 161.872L1091.86 161.872" stroke="#000000" stroke-width="0.398" fill="none" /><path id="344" transform="matrix(1 0 0 -1 0 792)" d="M706.929 161.872L1091.86 161.872" stroke="#000000" stroke-width="0.398" fill="none" /><path id="345" transform="matrix(1 0 0 -1 0 792)" d="M707.129 148.106L707.129 161.673" stroke="#000000" stroke-width="0.398" fill="none" /><path id="346" transform="matrix(1 0 0 -1 0 792)" d="M707.328 148.106L1036.083 148.106L1036.083 161.673L707.328 161.673z" stroke="none" fill="#CCCCEB" fill-rule="nonzero" /><path id="356" transform="matrix(1 0 0 -1 0 792)" d="M1036.282 148.106L1036.282 161.673" stroke="#000000" stroke-width="0.398" fill="none" /><path id="357" transform="matrix(1 0 0 -1 0 792)" d="M1036.481 148.106L1091.461 148.106L1091.461 161.673L1036.481 161.673z" stroke="none" fill="#CCCCEB" fill-rule="nonzero" /><path id="364" transform="matrix(1 0 0 -1 0 792)" d="M1091.661 148.106L1091.661 161.673" stroke="#000000" stroke-width="0.398" fill="none" /><path id="365" transform="matrix(1 0 0 -1 0 792)" d="M706.929 147.907L1091.86 147.907" stroke="#000000" stroke-width="0.398" fill="none" /><path id="366" transform="matrix(1 0 0 -1 0 792)" d="M706.929 147.907L1091.86 147.907" stroke="#000000" stroke-width="0.398" fill="none" /><path id="367" transform="matrix(1 0 0 -1 0 792)" d="M706.929 147.508L1091.86 147.508" stroke="#000000" stroke-width="0.398" fill="none" /><path id="368" transform="matrix(1 0 0 -1 0 792)" d="M706.929 147.508L1091.86 147.508" stroke="#000000" stroke-width="0.398" fill="none" /><path id="369" transform="matrix(1 0 0 -1 0 792)" d="M707.129 133.742L707.129 147.309" stroke="#000000" stroke-width="0.398" fill="none" /><path id="393" transform="matrix(1 0 0 -1 0 792)" d="M1036.282 133.742L1036.282 147.309" stroke="#000000" stroke-width="0.398" fill="none" /><path id="395" transform="matrix(1 0 0 -1 0 792)" d="M1091.661 133.742L1091.661 147.309" stroke="#000000" stroke-width="0.398" fill="none" /><path id="396" transform="matrix(1 0 0 -1 0 792)" d="M706.929 133.543L1091.86 133.543" stroke="#000000" stroke-width="0.398" fill="none" /><path id="397" transform="matrix(1 0 0 -1 0 792)" d="M706.929 133.543L1091.86 133.543" stroke="#000000" stroke-width="0.398" fill="none" /><path id="398" transform="matrix(1 0 0 -1 0 792)" d="M707.129 119.777L707.129 133.344" stroke="#000000" stroke-width="0.398" fill="none" /><path id="427" transform="matrix(1 0 0 -1 0 792)" d="M1036.282 119.777L1036.282 133.344" stroke="#000000" stroke-width="0.398" fill="none" /><path id="429" transform="matrix(1 0 0 -1 0 792)" d="M1091.661 119.777L1091.661 133.344" stroke="#000000" stroke-width="0.398" fill="none" /><path id="430" transform="matrix(1 0 0 -1 0 792)" d="M706.929 119.578L1091.86 119.578" stroke="#000000" stroke-width="0.398" fill="none" /><path id="431" transform="matrix(1 0 0 -1 0 792)" d="M706.929 119.578L1091.86 119.578" stroke="#000000" stroke-width="0.398" fill="none" /><path id="432" transform="matrix(1 0 0 -1 0 792)" d="M707.129 105.812L707.129 119.379" stroke="#000000" stroke-width="0.398" fill="none" /><path id="463" transform="matrix(1 0 0 -1 0 792)" d="M1036.282 105.812L1036.282 119.379" stroke="#000000" stroke-width="0.398" fill="none" /><path id="465" transform="matrix(1 0 0 -1 0 792)" d="M1091.661 105.812L1091.661 119.379" stroke="#000000" stroke-width="0.398" fill="none" /><path id="466" transform="matrix(1 0 0 -1 0 792)" d="M706.929 105.613L1091.86 105.613" stroke="#000000" stroke-width="0.398" fill="none" /><path id="467" transform="matrix(1 0 0 -1 0 792)" d="M706.929 105.613L1091.86 105.613" stroke="#000000" stroke-width="0.398" fill="none" /><path id="468" transform="matrix(1 0 0 -1 0 792)" d="M707.129 91.847L707.129 105.414" stroke="#000000" stroke-width="0.398" fill="none" /><path id="512" transform="matrix(1 0 0 -1 0 792)" d="M1036.282 91.847L1036.282 105.414" stroke="#000000" stroke-width="0.398" fill="none" /><path id="514" transform="matrix(1 0 0 -1 0 792)" d="M1091.661 91.847L1091.661 105.414" stroke="#000000" stroke-width="0.398" fill="none" /><path id="515" transform="matrix(1 0 0 -1 0 792)" d="M706.929 91.648L1091.86 91.648" stroke="#000000" stroke-width="0.398" fill="none" /><path id="516" transform="matrix(1 0 0 -1 0 792)" d="M706.929 91.648L1091.86 91.648" stroke="#000000" stroke-width="0.398" fill="none" /><path id="517" transform="matrix(1 0 0 -1 0 792)" d="M707.129 77.882L707.129 91.44901" stroke="#000000" stroke-width="0.398" fill="none" /><path id="561" transform="matrix(1 0 0 -1 0 792)" d="M1036.282 77.882L1036.282 91.44901" stroke="#000000" stroke-width="0.398" fill="none" /><path id="563" transform="matrix(1 0 0 -1 0 792)" d="M1091.661 77.882L1091.661 91.44901" stroke="#000000" stroke-width="0.398" fill="none" /><path id="564" transform="matrix(1 0 0 -1 0 792)" d="M706.929 77.683L1091.86 77.683" stroke="#000000" stroke-width="0.398" fill="none" /><path id="565" transform="matrix(1 0 0 -1 0 792)" d="M706.929 77.683L1091.86 77.683" stroke="#000000" stroke-width="0.398" fill="none" /><path id="566" transform="matrix(1 0 0 -1 0 792)" d="M707.129 63.917L707.129 77.484" stroke="#000000" stroke-width="0.398" fill="none" /><path id="613" transform="matrix(1 0 0 -1 0 792)" d="M1036.282 63.917L1036.282 77.484" stroke="#000000" stroke-width="0.398" fill="none" /><path id="615" transform="matrix(1 0 0 -1 0 792)" d="M1091.661 63.917L1091.661 77.484" stroke="#000000" stroke-width="0.398" fill="none" /><path id="616" transform="matrix(1 0 0 -1 0 792)" d="M706.929 63.717L1091.86 63.717" stroke="#000000" stroke-width="0.398" fill="none" /><path id="617" transform="matrix(1 0 0 -1 0 792)" d="M666.067 644.208L1132.725 644.208L1132.725 644.208L1132.725 670.9035L1132.725 670.9035L666.067 670.9035z" stroke="#FFFFFF" stroke-width="1" fill="#FFFFFF" fill-rule="nonzero" /><path id="644" transform="matrix(1 0 0 -1 0 792)" d="M683.004 617.11L1132.721 617.11L1132.721 617.11L1132.721 643.8045L1132.721 643.8045L683.004 643.8045z" stroke="#FFFFFF" stroke-width="1" fill="#FFFFFF" fill-rule="nonzero" /><path id="712" transform="matrix(1 0 0 -1 0 792)" d="M666.067 562.913L1132.726 562.913L1132.726 562.913L1132.726 616.7065L1132.726 616.7065L666.067 616.7065z" stroke="#FFFFFF" stroke-width="1" fill="#FFFFFF" fill-rule="nonzero" /><path id="828" transform="matrix(1 0 0 -1 0 792)" d="M693.34 408.48L1132.724 408.48L1132.724 408.48L1132.724 480.5886L1132.724 480.5886L693.34 480.5886z" stroke="#FFFFFF" stroke-width="1" fill="#FFFFFF" fill-rule="nonzero" /><path id="964" transform="matrix(1 0 0 -1 0 792)" d="M666.067 334.75L1132.726 334.75L1132.726 334.75L1132.726 361.4445L1132.726 361.4445L666.067 361.4445z" stroke="#FFFFFF" stroke-width="1" fill="#FFFFFF" fill-rule="nonzero" /><path id="1012" transform="matrix(1 0 0 -1 0 792)" d="M693.34 233.504L1132.724 233.504L1132.724 233.504L1132.724 257.7927L1132.724 257.7927L693.34 257.7927z" stroke="#FFFFFF" stroke-width="1" fill="#FFFFFF" fill-rule="nonzero" /><path id="1038" transform="matrix(1 0 0 -1 0 792)" d="M666.067 173.323L973.158 173.323L973.158 173.323L973.158 186.4685L973.158 186.4685L666.067 186.4685z" stroke="#FFFFFF" stroke-width="1" fill="#FFFFFF" fill-rule="nonzero" /><path id="1097" transform="matrix(1 0 0 -1 0 792)" d="M54.067 721.28L520.722 721.28" stroke="#000000" stroke-width="0.498" fill="none" /><path id="1727" transform="matrix(1 0 0 -1 0 792)" d="M94.929 551.463L479.86 551.463" stroke="#000000" stroke-width="0.398" fill="none" /><path id="1728" transform="matrix(1 0 0 -1 0 792)" d="M94.929 551.463L479.86 551.463" stroke="#000000" stroke-width="0.398" fill="none" /><path id="1729" transform="matrix(1 0 0 -1 0 792)" d="M95.129 537.697L95.129 551.264" stroke="#000000" stroke-width="0.398" fill="none" /><path id="1730" transform="matrix(1 0 0 -1 0 792)" d="M95.328 537.697L424.083 537.697L424.083 551.264L95.328 551.264z" stroke="none" fill="#CCCCEB" fill-rule="nonzero" /><path id="1740" transform="matrix(1 0 0 -1 0 792)" d="M424.282 537.697L424.282 551.264" stroke="#000000" stroke-width="0.398" fill="none" /><path id="1741" transform="matrix(1 0 0 -1 0 792)" d="M424.481 537.697L479.461 537.697L479.461 551.264L424.481 551.264z" stroke="none" fill="#CCCCEB" fill-rule="nonzero" /><path id="1748" transform="matrix(1 0 0 -1 0 792)" d="M479.661 537.697L479.661 551.264" stroke="#000000" stroke-width="0.398" fill="none" /><path id="1749" transform="matrix(1 0 0 -1 0 792)" d="M94.929 537.498L479.86 537.498" stroke="#000000" stroke-width="0.398" fill="none" /><path id="1750" transform="matrix(1 0 0 -1 0 792)" d="M94.929 537.498L479.86 537.498" stroke="#000000" stroke-width="0.398" fill="none" /><path id="1751" transform="matrix(1 0 0 -1 0 792)" d="M94.929 537.1L479.86 537.1" stroke="#000000" stroke-width="0.398" fill="none" /><path id="1752" transform="matrix(1 0 0 -1 0 792)" d="M94.929 537.1L479.86 537.1" stroke="#000000" stroke-width="0.398" fill="none" /><path id="1753" transform="matrix(1 0 0 -1 0 792)" d="M95.129 523.334L95.129 536.901" stroke="#000000" stroke-width="0.398" fill="none" /><path id="1799" transform="matrix(1 0 0 -1 0 792)" d="M424.282 523.334L424.282 536.901" stroke="#000000" stroke-width="0.398" fill="none" /><path id="1801" transform="matrix(1 0 0 -1 0 792)" d="M479.661 523.334L479.661 536.901" stroke="#000000" stroke-width="0.398" fill="none" /><path id="1802" transform="matrix(1 0 0 -1 0 792)" d="M94.929 523.134L479.86 523.134" stroke="#000000" stroke-width="0.398" fill="none" /><path id="1803" transform="matrix(1 0 0 -1 0 792)" d="M94.929 523.134L479.86 523.134" stroke="#000000" stroke-width="0.398" fill="none" /><path id="1804" transform="matrix(1 0 0 -1 0 792)" d="M95.129 509.368L95.129 522.935" stroke="#000000" stroke-width="0.398" fill="none" /><path id="1848" transform="matrix(1 0 0 -1 0 792)" d="M424.282 509.368L424.282 522.935" stroke="#000000" stroke-width="0.398" fill="none" /><path id="1850" transform="matrix(1 0 0 -1 0 792)" d="M479.661 509.368L479.661 522.935" stroke="#000000" stroke-width="0.398" fill="none" /><path id="1851" transform="matrix(1 0 0 -1 0 792)" d="M94.929 509.169L479.86 509.169" stroke="#000000" stroke-width="0.398" fill="none" /><path id="1852" transform="matrix(1 0 0 -1 0 792)" d="M94.929 509.169L479.86 509.169" stroke="#000000" stroke-width="0.398" fill="none" /><path id="1853" transform="matrix(1 0 0 -1 0 792)" d="M95.129 495.403L95.129 508.97" stroke="#000000" stroke-width="0.398" fill="none" /><path id="1877" transform="matrix(1 0 0 -1 0 792)" d="M216.672 499.685L219.661 499.685" stroke="#000000" stroke-width="0.398" fill="none" /><path id="1889" transform="matrix(1 0 0 -1 0 792)" d="M424.282 495.403L424.282 508.97" stroke="#000000" stroke-width="0.398" fill="none" /><path id="1891" transform="matrix(1 0 0 -1 0 792)" d="M479.661 495.403L479.661 508.97" stroke="#000000" stroke-width="0.398" fill="none" /><path id="1892" transform="matrix(1 0 0 -1 0 792)" d="M94.929 495.204L479.86 495.204" stroke="#000000" stroke-width="0.398" fill="none" /><path id="1893" transform="matrix(1 0 0 -1 0 792)" d="M94.929 495.204L479.86 495.204" stroke="#000000" stroke-width="0.398" fill="none" /><path id="2503" transform="matrix(1 0 0 -1 0 792)" d="M54.067 323.299L438.998 323.299" stroke="#000000" stroke-width="0.398" fill="none" /><path id="2504" transform="matrix(1 0 0 -1 0 792)" d="M54.266 309.533L54.266 323.1" stroke="#000000" stroke-width="0.398" fill="none" /><path id="2505" transform="matrix(1 0 0 -1 0 792)" d="M54.466 309.533L383.221 309.533L383.221 323.1L54.466 323.1z" stroke="none" fill="#CCCCEB" fill-rule="nonzero" /><path id="2515" transform="matrix(1 0 0 -1 0 792)" d="M383.42 309.533L383.42 323.1" stroke="#000000" stroke-width="0.398" fill="none" /><path id="2516" transform="matrix(1 0 0 -1 0 792)" d="M383.619 309.533L438.599 309.533L438.599 323.1L383.619 323.1z" stroke="none" fill="#CCCCEB" fill-rule="nonzero" /><path id="2523" transform="matrix(1 0 0 -1 0 792)" d="M438.799 309.533L438.799 323.1" stroke="#000000" stroke-width="0.398" fill="none" /><path id="2524" transform="matrix(1 0 0 -1 0 792)" d="M54.067 309.334L438.998 309.334" stroke="#000000" stroke-width="0.398" fill="none" /><path id="2525" transform="matrix(1 0 0 -1 0 792)" d="M54.067 306.943L438.998 306.943" stroke="#000000" stroke-width="0.398" fill="none" /><path id="2526" transform="matrix(1 0 0 -1 0 792)" d="M54.266 293.177L54.266 306.744" stroke="#000000" stroke-width="0.398" fill="none" /><path id="2561" transform="matrix(1 0 0 -1 0 792)" d="M383.42 293.177L383.42 306.744" stroke="#000000" stroke-width="0.398" fill="none" /><path id="2563" transform="matrix(1 0 0 -1 0 792)" d="M438.799 293.177L438.799 306.744" stroke="#000000" stroke-width="0.398" fill="none" /><path id="2564" transform="matrix(1 0 0 -1 0 792)" d="M54.067 292.977L438.998 292.977" stroke="#000000" stroke-width="0.398" fill="none" /><path id="2565" transform="matrix(1 0 0 -1 0 792)" d="M54.266 279.211L54.266 292.778" stroke="#000000" stroke-width="0.398" fill="none" /><path id="2598" transform="matrix(1 0 0 -1 0 792)" d="M383.42 279.211L383.42 292.778" stroke="#000000" stroke-width="0.398" fill="none" /><path id="2600" transform="matrix(1 0 0 -1 0 792)" d="M438.799 279.211L438.799 292.778" stroke="#000000" stroke-width="0.398" fill="none" /><path id="2601" transform="matrix(1 0 0 -1 0 792)" d="M54.067 279.012L438.998 279.012" stroke="#000000" stroke-width="0.398" fill="none" /><path id="2769" transform="matrix(1 0 0 -1 0 792)" d="M94.929 161.872L479.86 161.872" stroke="#000000" stroke-width="0.398" fill="none" /><path id="2770" transform="matrix(1 0 0 -1 0 792)" d="M94.929 161.872L479.86 161.872" stroke="#000000" stroke-width="0.398" fill="none" /><path id="2771" transform="matrix(1 0 0 -1 0 792)" d="M95.129 148.106L95.129 161.673" stroke="#000000" stroke-width="0.398" fill="none" /><path id="2772" transform="matrix(1 0 0 -1 0 792)" d="M95.328 148.106L424.083 148.106L424.083 161.673L95.328 161.673z" stroke="none" fill="#CCCCEB" fill-rule="nonzero" /><path id="2782" transform="matrix(1 0 0 -1 0 792)" d="M424.282 148.106L424.282 161.673" stroke="#000000" stroke-width="0.398" fill="none" /><path id="2783" transform="matrix(1 0 0 -1 0 792)" d="M424.481 148.106L479.461 148.106L479.461 161.673L424.481 161.673z" stroke="none" fill="#CCCCEB" fill-rule="nonzero" /><path id="2790" transform="matrix(1 0 0 -1 0 792)" d="M479.661 148.106L479.661 161.673" stroke="#000000" stroke-width="0.398" fill="none" /><path id="2791" transform="matrix(1 0 0 -1 0 792)" d="M94.929 147.907L479.86 147.907" stroke="#000000" stroke-width="0.398" fill="none" /><path id="2792" transform="matrix(1 0 0 -1 0 792)" d="M94.929 147.907L479.86 147.907" stroke="#000000" stroke-width="0.398" fill="none" /><path id="2793" transform="matrix(1 0 0 -1 0 792)" d="M94.929 147.508L479.86 147.508" stroke="#000000" stroke-width="0.398" fill="none" /><path id="2794" transform="matrix(1 0 0 -1 0 792)" d="M94.929 147.508L479.86 147.508" stroke="#000000" stroke-width="0.398" fill="none" /><path id="2795" transform="matrix(1 0 0 -1 0 792)" d="M95.129 133.742L95.129 147.309" stroke="#000000" stroke-width="0.398" fill="none" /><path id="2819" transform="matrix(1 0 0 -1 0 792)" d="M424.282 133.742L424.282 147.309" stroke="#000000" stroke-width="0.398" fill="none" /><path id="2821" transform="matrix(1 0 0 -1 0 792)" d="M479.661 133.742L479.661 147.309" stroke="#000000" stroke-width="0.398" fill="none" /><path id="2822" transform="matrix(1 0 0 -1 0 792)" d="M94.929 133.543L479.86 133.543" stroke="#000000" stroke-width="0.398" fill="none" /><path id="2823" transform="matrix(1 0 0 -1 0 792)" d="M94.929 133.543L479.86 133.543" stroke="#000000" stroke-width="0.398" fill="none" /><path id="2824" transform="matrix(1 0 0 -1 0 792)" d="M95.129 119.777L95.129 133.344" stroke="#000000" stroke-width="0.398" fill="none" /><path id="2853" transform="matrix(1 0 0 -1 0 792)" d="M424.282 119.777L424.282 133.344" stroke="#000000" stroke-width="0.398" fill="none" /><path id="2855" transform="matrix(1 0 0 -1 0 792)" d="M479.661 119.777L479.661 133.344" stroke="#000000" stroke-width="0.398" fill="none" /><path id="2856" transform="matrix(1 0 0 -1 0 792)" d="M94.929 119.578L479.86 119.578" stroke="#000000" stroke-width="0.398" fill="none" /><path id="2857" transform="matrix(1 0 0 -1 0 792)" d="M94.929 119.578L479.86 119.578" stroke="#000000" stroke-width="0.398" fill="none" /><path id="2858" transform="matrix(1 0 0 -1 0 792)" d="M95.129 105.812L95.129 119.379" stroke="#000000" stroke-width="0.398" fill="none" /><path id="2889" transform="matrix(1 0 0 -1 0 792)" d="M424.282 105.812L424.282 119.379" stroke="#000000" stroke-width="0.398" fill="none" /><path id="2891" transform="matrix(1 0 0 -1 0 792)" d="M479.661 105.812L479.661 119.379" stroke="#000000" stroke-width="0.398" fill="none" /><path id="2892" transform="matrix(1 0 0 -1 0 792)" d="M94.929 105.613L479.86 105.613" stroke="#000000" stroke-width="0.398" fill="none" /><path id="2893" transform="matrix(1 0 0 -1 0 792)" d="M94.929 105.613L479.86 105.613" stroke="#000000" stroke-width="0.398" fill="none" /><path id="2894" transform="matrix(1 0 0 -1 0 792)" d="M95.129 91.847L95.129 105.414" stroke="#000000" stroke-width="0.398" fill="none" /><path id="2938" transform="matrix(1 0 0 -1 0 792)" d="M424.282 91.847L424.282 105.414" stroke="#000000" stroke-width="0.398" fill="none" /><path id="2940" transform="matrix(1 0 0 -1 0 792)" d="M479.661 91.847L479.661 105.414" stroke="#000000" stroke-width="0.398" fill="none" /><path id="2941" transform="matrix(1 0 0 -1 0 792)" d="M94.929 91.648L479.86 91.648" stroke="#000000" stroke-width="0.398" fill="none" /><path id="2942" transform="matrix(1 0 0 -1 0 792)" d="M94.929 91.648L479.86 91.648" stroke="#000000" stroke-width="0.398" fill="none" /><path id="2943" transform="matrix(1 0 0 -1 0 792)" d="M95.129 77.882L95.129 91.44901" stroke="#000000" stroke-width="0.398" fill="none" /><path id="2987" transform="matrix(1 0 0 -1 0 792)" d="M424.282 77.882L424.282 91.44901" stroke="#000000" stroke-width="0.398" fill="none" /><path id="2989" transform="matrix(1 0 0 -1 0 792)" d="M479.661 77.882L479.661 91.44901" stroke="#000000" stroke-width="0.398" fill="none" /><path id="2990" transform="matrix(1 0 0 -1 0 792)" d="M94.929 77.683L479.86 77.683" stroke="#000000" stroke-width="0.398" fill="none" /><path id="2991" transform="matrix(1 0 0 -1 0 792)" d="M94.929 77.683L479.86 77.683" stroke="#000000" stroke-width="0.398" fill="none" /><path id="2992" transform="matrix(1 0 0 -1 0 792)" d="M95.129 63.917L95.129 77.484" stroke="#000000" stroke-width="0.398" fill="none" /><path id="3039" transform="matrix(1 0 0 -1 0 792)" d="M424.282 63.917L424.282 77.484" stroke="#000000" stroke-width="0.398" fill="none" /><path id="3041" transform="matrix(1 0 0 -1 0 792)" d="M479.661 63.917L479.661 77.484" stroke="#000000" stroke-width="0.398" fill="none" /><path id="3042" transform="matrix(1 0 0 -1 0 792)" d="M94.929 63.717L479.86 63.717" stroke="#000000" stroke-width="0.398" fill="none" /></g></g></svg>