<svg xmlns="http://www.w3.org/2000/svg" xmlns:xlink="http://www.w3.org/1999/xlink" id="body_9" preserveAspectRatio="xMinYMin meet" viewBox="0 0 1632 1056"><defs><clipPath id="1"><path id="" clip-rule="evenodd" transform="matrix(1 0 0 1 0 0)" d="M0 792L0 0L0 0L1224 0L1224 0L1224 792L1224 792L0 792z" /></clipPath></defs><g transform="matrix(1.333333 0 0 1.333333 0 0)"><g clip-path="url(#1)"><path id="17" transform="matrix(1 0 0 -1 0 792)" d="M701.933 721.28L1168.588 721.28" stroke="#000000" stroke-width="0.498" fill="none" /><path id="39" transform="matrix(1 0 0 -1 0 792)" d="M835.266 606.826L838.539 606.826" stroke="#000000" stroke-width="0.398" fill="none" /><path id="40" transform="matrix(1 0 0 -1 0 792)" d="M881.564 606.826L884.837 606.826" stroke="#000000" stroke-width="0.398" fill="none" /><path id="41" transform="matrix(1 0 0 -1 0 792)" d="M701.933 551.463L1086.864 551.463" stroke="#000000" stroke-width="0.398" fill="none" /><path id="42" transform="matrix(1 0 0 -1 0 792)" d="M702.132 537.697L702.132 551.264" stroke="#000000" stroke-width="0.398" fill="none" /><path id="43" transform="matrix(1 0 0 -1 0 792)" d="M702.331 537.697L1031.086 537.697L1031.086 551.264L702.331 551.264z" stroke="none" fill="#CCCCEB" fill-rule="nonzero" /><path id="53" transform="matrix(1 0 0 -1 0 792)" d="M1031.285 537.697L1031.285 551.264" stroke="#000000" stroke-width="0.398" fill="none" /><path id="54" transform="matrix(1 0 0 -1 0 792)" d="M1031.484 537.697L1086.464 537.697L1086.464 551.264L1031.484 551.264z" stroke="none" fill="#CCCCEB" fill-rule="nonzero" /><path id="61" transform="matrix(1 0 0 -1 0 792)" d="M1086.664 537.697L1086.664 551.264" stroke="#000000" stroke-width="0.398" fill="none" /><path id="62" transform="matrix(1 0 0 -1 0 792)" d="M701.933 537.498L1086.864 537.498" stroke="#000000" stroke-width="0.398" fill="none" /><path id="63" transform="matrix(1 0 0 -1 0 792)" d="M701.933 535.107L1086.864 535.107" stroke="#000000" stroke-width="0.398" fill="none" /><path id="64" transform="matrix(1 0 0 -1 0 792)" d="M702.132 521.341L702.132 534.908" stroke="#000000" stroke-width="0.398" fill="none" /><path id="98" transform="matrix(1 0 0 -1 0 792)" d="M1031.285 521.341L1031.285 534.908" stroke="#000000" stroke-width="0.398" fill="none" /><path id="100" transform="matrix(1 0 0 -1 0 792)" d="M1086.664 521.341L1086.664 534.908" stroke="#000000" stroke-width="0.398" fill="none" /><path id="101" transform="matrix(1 0 0 -1 0 792)" d="M701.933 521.142L1086.864 521.142" stroke="#000000" stroke-width="0.398" fill="none" /><path id="102" transform="matrix(1 0 0 -1 0 792)" d="M702.132 507.376L702.132 520.943" stroke="#000000" stroke-width="0.398" fill="none" /><path id="133" transform="matrix(1 0 0 -1 0 792)" d="M1031.285 507.376L1031.285 520.943" stroke="#000000" stroke-width="0.398" fill="none" /><path id="135" transform="matrix(1 0 0 -1 0 792)" d="M1086.664 507.376L1086.664 520.943" stroke="#000000" stroke-width="0.398" fill="none" /><path id="136" transform="matrix(1 0 0 -1 0 792)" d="M701.933 507.177L1086.864 507.177" stroke="#000000" stroke-width="0.398" fill="none" /><path id="137" transform="matrix(1 0 0 -1 0 792)" d="M702.132 493.411L702.132 506.978" stroke="#000000" stroke-width="0.398" fill="none" /><path id="174" transform="matrix(1 0 0 -1 0 792)" d="M1031.285 493.411L1031.285 506.978" stroke="#000000" stroke-width="0.398" fill="none" /><path id="176" transform="matrix(1 0 0 -1 0 792)" d="M1086.664 493.411L1086.664 506.978" stroke="#000000" stroke-width="0.398" fill="none" /><path id="177" transform="matrix(1 0 0 -1 0 792)" d="M701.933 493.212L1086.864 493.212" stroke="#000000" stroke-width="0.398" fill="none" /><path id="178" transform="matrix(1 0 0 -1 0 792)" d="M702.132 479.446L702.132 493.013" stroke="#000000" stroke-width="0.398" fill="none" /><path id="232" transform="matrix(1 0 0 -1 0 792)" d="M1031.285 479.446L1031.285 493.013" stroke="#000000" stroke-width="0.398" fill="none" /><path id="234" transform="matrix(1 0 0 -1 0 792)" d="M1086.664 479.446L1086.664 493.013" stroke="#000000" stroke-width="0.398" fill="none" /><path id="235" transform="matrix(1 0 0 -1 0 792)" d="M701.933 479.246L1086.864 479.246" stroke="#000000" stroke-width="0.398" fill="none" /><path id="236" transform="matrix(1 0 0 -1 0 792)" d="M702.132 465.48L702.132 479.047" stroke="#000000" stroke-width="0.398" fill="none" /><path id="279" transform="matrix(1 0 0 -1 0 792)" d="M1031.285 465.48L1031.285 479.047" stroke="#000000" stroke-width="0.398" fill="none" /><path id="281" transform="matrix(1 0 0 -1 0 792)" d="M1086.664 465.48L1086.664 479.047" stroke="#000000" stroke-width="0.398" fill="none" /><path id="282" transform="matrix(1 0 0 -1 0 792)" d="M701.933 465.281L1086.864 465.281" stroke="#000000" stroke-width="0.398" fill="none" /><path id="283" transform="matrix(1 0 0 -1 0 792)" d="M702.132 451.515L702.132 465.082" stroke="#000000" stroke-width="0.398" fill="none" /><path id="311" transform="matrix(1 0 0 -1 0 792)" d="M1031.285 451.515L1031.285 465.082" stroke="#000000" stroke-width="0.398" fill="none" /><path id="313" transform="matrix(1 0 0 -1 0 792)" d="M1086.664 451.515L1086.664 465.082" stroke="#000000" stroke-width="0.398" fill="none" /><path id="314" transform="matrix(1 0 0 -1 0 792)" d="M701.933 451.316L1086.864 451.316" stroke="#000000" stroke-width="0.398" fill="none" /><path id="315" transform="matrix(1 0 0 -1 0 792)" d="M702.132 437.55L702.132 451.117" stroke="#000000" stroke-width="0.398" fill="none" /><path id="364" transform="matrix(1 0 0 -1 0 792)" d="M1031.285 437.55L1031.285 451.117" stroke="#000000" stroke-width="0.398" fill="none" /><path id="366" transform="matrix(1 0 0 -1 0 792)" d="M1086.664 437.55L1086.664 451.117" stroke="#000000" stroke-width="0.398" fill="none" /><path id="367" transform="matrix(1 0 0 -1 0 792)" d="M701.933 437.351L1086.864 437.351" stroke="#000000" stroke-width="0.398" fill="none" /><path id="368" transform="matrix(1 0 0 -1 0 792)" d="M702.132 423.585L702.132 437.152" stroke="#000000" stroke-width="0.398" fill="none" /><path id="402" transform="matrix(1 0 0 -1 0 792)" d="M1031.285 423.585L1031.285 437.152" stroke="#000000" stroke-width="0.398" fill="none" /><path id="404" transform="matrix(1 0 0 -1 0 792)" d="M1086.664 423.585L1086.664 437.152" stroke="#000000" stroke-width="0.398" fill="none" /><path id="405" transform="matrix(1 0 0 -1 0 792)" d="M701.933 423.386L1086.864 423.386" stroke="#000000" stroke-width="0.398" fill="none" /><path id="406" transform="matrix(1 0 0 -1 0 792)" d="M702.132 409.62L702.132 423.187" stroke="#000000" stroke-width="0.398" fill="none" /><path id="451" transform="matrix(1 0 0 -1 0 792)" d="M1031.285 409.62L1031.285 423.187" stroke="#000000" stroke-width="0.398" fill="none" /><path id="453" transform="matrix(1 0 0 -1 0 792)" d="M1086.664 409.62L1086.664 423.187" stroke="#000000" stroke-width="0.398" fill="none" /><path id="454" transform="matrix(1 0 0 -1 0 792)" d="M701.933 409.421L1086.864 409.421" stroke="#000000" stroke-width="0.398" fill="none" /><path id="455" transform="matrix(1 0 0 -1 0 792)" d="M702.132 395.655L702.132 409.222" stroke="#000000" stroke-width="0.398" fill="none" /><path id="503" transform="matrix(1 0 0 -1 0 792)" d="M1031.285 395.655L1031.285 409.222" stroke="#000000" stroke-width="0.398" fill="none" /><path id="505" transform="matrix(1 0 0 -1 0 792)" d="M1086.664 395.655L1086.664 409.222" stroke="#000000" stroke-width="0.398" fill="none" /><path id="506" transform="matrix(1 0 0 -1 0 792)" d="M701.933 395.456L1086.864 395.456" stroke="#000000" stroke-width="0.398" fill="none" /><path id="507" transform="matrix(1 0 0 -1 0 792)" d="M702.132 381.69L702.132 395.257" stroke="#000000" stroke-width="0.398" fill="none" /><path id="556" transform="matrix(1 0 0 -1 0 792)" d="M1031.285 381.69L1031.285 395.257" stroke="#000000" stroke-width="0.398" fill="none" /><path id="558" transform="matrix(1 0 0 -1 0 792)" d="M1086.664 381.69L1086.664 395.257" stroke="#000000" stroke-width="0.398" fill="none" /><path id="559" transform="matrix(1 0 0 -1 0 792)" d="M701.933 381.49L1086.864 381.49" stroke="#000000" stroke-width="0.398" fill="none" /><path id="560" transform="matrix(1 0 0 -1 0 792)" d="M702.132 367.724L702.132 381.291" stroke="#000000" stroke-width="0.398" fill="none" /><path id="611" transform="matrix(1 0 0 -1 0 792)" d="M1031.285 367.724L1031.285 381.291" stroke="#000000" stroke-width="0.398" fill="none" /><path id="613" transform="matrix(1 0 0 -1 0 792)" d="M1086.664 367.724L1086.664 381.291" stroke="#000000" stroke-width="0.398" fill="none" /><path id="614" transform="matrix(1 0 0 -1 0 792)" d="M701.933 367.525L1086.864 367.525" stroke="#000000" stroke-width="0.398" fill="none" /><path id="630" transform="matrix(1 0 0 -1 0 792)" d="M1080.717 139.345L1083.706 139.345" stroke="#000000" stroke-width="0.398" fill="none" /><path id="631" transform="matrix(1 0 0 -1 0 792)" d="M1126.147 139.345L1129.136 139.345" stroke="#000000" stroke-width="0.398" fill="none" /><path id="632" transform="matrix(1 0 0 -1 0 792)" d="M1159.621 139.345L1162.61 139.345" stroke="#000000" stroke-width="0.398" fill="none" /><path id="633" transform="matrix(1 0 0 -1 0 792)" d="M712.884 113.316L1157.636 113.316" stroke="#000000" stroke-width="0.398" fill="none" /><path id="634" transform="matrix(1 0 0 -1 0 792)" d="M712.884 113.316L1157.636 113.316" stroke="#000000" stroke-width="0.398" fill="none" /><path id="635" transform="matrix(1 0 0 -1 0 792)" d="M713.0829 99.55L713.0829 113.117" stroke="#000000" stroke-width="0.398" fill="none" /><path id="636" transform="matrix(1 0 0 -1 0 792)" d="M713.283 99.55L1042.038 99.55L1042.038 113.117L713.283 113.117z" stroke="none" fill="#CCCCEB" fill-rule="nonzero" /><path id="646" transform="matrix(1 0 0 -1 0 792)" d="M1042.237 99.55L1042.237 113.117" stroke="#000000" stroke-width="0.398" fill="none" /><path id="647" transform="matrix(1 0 0 -1 0 792)" d="M1042.436 99.55L1157.238 99.55L1157.238 113.117L1042.436 113.117z" stroke="none" fill="#CCCCEB" fill-rule="nonzero" /><path id="654" transform="matrix(1 0 0 -1 0 792)" d="M1157.437 99.55L1157.437 113.117" stroke="#000000" stroke-width="0.398" fill="none" /><path id="655" transform="matrix(1 0 0 -1 0 792)" d="M712.884 99.351L1157.636 99.351" stroke="#000000" stroke-width="0.398" fill="none" /><path id="656" transform="matrix(1 0 0 -1 0 792)" d="M712.884 99.351L1157.636 99.351" stroke="#000000" stroke-width="0.398" fill="none" /><path id="657" transform="matrix(1 0 0 -1 0 792)" d="M712.884 98.953L1157.636 98.953" stroke="#000000" stroke-width="0.398" fill="none" /><path id="658" transform="matrix(1 0 0 -1 0 792)" d="M712.884 98.953L1157.636 98.953" stroke="#000000" stroke-width="0.398" fill="none" /><path id="659" transform="matrix(1 0 0 -1 0 792)" d="M713.0829 71.655L713.0829 98.753" stroke="#000000" stroke-width="0.398" fill="none" /><path id="721" transform="matrix(1 0 0 -1 0 792)" d="M1042.237 71.655L1042.237 98.753" stroke="#000000" stroke-width="0.398" fill="none" /><path id="723" transform="matrix(1 0 0 -1 0 792)" d="M1157.437 71.655L1157.437 98.753" stroke="#000000" stroke-width="0.398" fill="none" /><path id="724" transform="matrix(1 0 0 -1 0 792)" d="M712.884 71.456L1157.636 71.456" stroke="#000000" stroke-width="0.398" fill="none" /><path id="725" transform="matrix(1 0 0 -1 0 792)" d="M701.933 644.208L1168.591 644.208L1168.591 644.208L1168.591 670.9035L1168.591 670.9035L701.933 670.9035z" stroke="#FFFFFF" stroke-width="1" fill="#FFFFFF" fill-rule="nonzero" /><path id="768" transform="matrix(1 0 0 -1 0 792)" d="M718.869 630.66L1168.585 630.66L1168.585 630.66L1168.585 643.8055L1168.585 643.8055L718.869 643.8055z" stroke="#FFFFFF" stroke-width="1" fill="#FFFFFF" fill-rule="nonzero" /><path id="798" transform="matrix(1 0 0 -1 0 792)" d="M701.933 590.013L1168.593 590.013L1168.593 590.013L1168.593 630.2564L1168.593 630.2564L701.933 630.2564z" stroke="#FFFFFF" stroke-width="1" fill="#FFFFFF" fill-rule="nonzero" /><path id="863" transform="matrix(1 0 0 -1 0 792)" d="M718.869 576.463L1168.586 576.463L1168.586 576.463L1168.586 589.6085L1168.586 589.6085L718.869 589.6085z" stroke="#FFFFFF" stroke-width="1" fill="#FFFFFF" fill-rule="nonzero" /><path id="893" transform="matrix(1 0 0 -1 0 792)" d="M701.933 562.914L1026.828 562.914L1026.828 562.914L1026.828 576.0595L1026.828 576.0595L701.933 576.0595z" stroke="#FFFFFF" stroke-width="1" fill="#FFFFFF" fill-rule="nonzero" /><path id="923" transform="matrix(1 0 0 -1 0 792)" d="M729.206 298.106L1168.587 298.106L1168.587 298.106L1168.587 346.3754L1168.587 346.3754L729.206 346.3754z" stroke="#FFFFFF" stroke-width="1" fill="#FFFFFF" fill-rule="nonzero" /><path id="1033" transform="matrix(1 0 0 -1 0 792)" d="M729.206 271.207L1168.586 271.207L1168.586 271.207L1168.586 295.4957L1168.586 295.4957L729.206 295.4957z" stroke="#FFFFFF" stroke-width="1" fill="#FFFFFF" fill-rule="nonzero" /><path id="1087" transform="matrix(1 0 0 -1 0 792)" d="M701.933 170.379L1168.591 170.379L1168.591 170.379L1168.591 224.1724L1168.591 224.1724L701.933 224.1724z" stroke="#FFFFFF" stroke-width="1" fill="#FFFFFF" fill-rule="nonzero" /><path id="1211" transform="matrix(1 0 0 -1 0 792)" d="M718.869 149.629L1168.592 149.629L1168.592 149.629L1168.592 162.7745L1168.592 162.7745L718.869 162.7745z" stroke="#FFFFFF" stroke-width="1" fill="#FFFFFF" fill-rule="nonzero" /><path id="1246" transform="matrix(1 0 0 -1 0 792)" d="M701.933 122.531L1168.588 122.531L1168.588 122.531L1168.588 149.2255L1168.588 149.2255L701.933 149.2255z" stroke="#FFFFFF" stroke-width="1" fill="#FFFFFF" fill-rule="nonzero" /><path id="1330" transform="matrix(1 0 0 -1 0 792)" d="M89.933 721.28L556.588 721.28" stroke="#000000" stroke-width="0.498" fill="none" /><path id="1671" transform="matrix(1 0 0 -1 0 792)" d="M223.266 606.826L226.539 606.826" stroke="#000000" stroke-width="0.398" fill="none" /><path id="1678" transform="matrix(1 0 0 -1 0 792)" d="M269.564 606.826L272.837 606.826" stroke="#000000" stroke-width="0.398" fill="none" /><path id="1909" transform="matrix(1 0 0 -1 0 792)" d="M89.933 551.463L474.864 551.463" stroke="#000000" stroke-width="0.398" fill="none" /><path id="1910" transform="matrix(1 0 0 -1 0 792)" d="M90.132 537.697L90.132 551.264" stroke="#000000" stroke-width="0.398" fill="none" /><path id="1911" transform="matrix(1 0 0 -1 0 792)" d="M90.331 537.697L419.086 537.697L419.086 551.264L90.331 551.264z" stroke="none" fill="#CCCCEB" fill-rule="nonzero" /><path id="1921" transform="matrix(1 0 0 -1 0 792)" d="M419.285 537.697L419.285 551.264" stroke="#000000" stroke-width="0.398" fill="none" /><path id="1922" transform="matrix(1 0 0 -1 0 792)" d="M419.484 537.697L474.464 537.697L474.464 551.264L419.484 551.264z" stroke="none" fill="#CCCCEB" fill-rule="nonzero" /><path id="1929" transform="matrix(1 0 0 -1 0 792)" d="M474.664 537.697L474.664 551.264" stroke="#000000" stroke-width="0.398" fill="none" /><path id="1930" transform="matrix(1 0 0 -1 0 792)" d="M89.933 537.498L474.864 537.498" stroke="#000000" stroke-width="0.398" fill="none" /><path id="1931" transform="matrix(1 0 0 -1 0 792)" d="M89.933 535.107L474.864 535.107" stroke="#000000" stroke-width="0.398" fill="none" /><path id="1932" transform="matrix(1 0 0 -1 0 792)" d="M90.132 521.341L90.132 534.908" stroke="#000000" stroke-width="0.398" fill="none" /><path id="1966" transform="matrix(1 0 0 -1 0 792)" d="M419.285 521.341L419.285 534.908" stroke="#000000" stroke-width="0.398" fill="none" /><path id="1968" transform="matrix(1 0 0 -1 0 792)" d="M474.664 521.341L474.664 534.908" stroke="#000000" stroke-width="0.398" fill="none" /><path id="1969" transform="matrix(1 0 0 -1 0 792)" d="M89.933 521.142L474.864 521.142" stroke="#000000" stroke-width="0.398" fill="none" /><path id="1970" transform="matrix(1 0 0 -1 0 792)" d="M90.132 507.376L90.132 520.943" stroke="#000000" stroke-width="0.398" fill="none" /><path id="2001" transform="matrix(1 0 0 -1 0 792)" d="M419.285 507.376L419.285 520.943" stroke="#000000" stroke-width="0.398" fill="none" /><path id="2003" transform="matrix(1 0 0 -1 0 792)" d="M474.664 507.376L474.664 520.943" stroke="#000000" stroke-width="0.398" fill="none" /><path id="2004" transform="matrix(1 0 0 -1 0 792)" d="M89.933 507.177L474.864 507.177" stroke="#000000" stroke-width="0.398" fill="none" /><path id="2005" transform="matrix(1 0 0 -1 0 792)" d="M90.132 493.411L90.132 506.978" stroke="#000000" stroke-width="0.398" fill="none" /><path id="2042" transform="matrix(1 0 0 -1 0 792)" d="M419.285 493.411L419.285 506.978" stroke="#000000" stroke-width="0.398" fill="none" /><path id="2044" transform="matrix(1 0 0 -1 0 792)" d="M474.664 493.411L474.664 506.978" stroke="#000000" stroke-width="0.398" fill="none" /><path id="2045" transform="matrix(1 0 0 -1 0 792)" d="M89.933 493.212L474.864 493.212" stroke="#000000" stroke-width="0.398" fill="none" /><path id="2046" transform="matrix(1 0 0 -1 0 792)" d="M90.132 479.446L90.132 493.013" stroke="#000000" stroke-width="0.398" fill="none" /><path id="2100" transform="matrix(1 0 0 -1 0 792)" d="M419.285 479.446L419.285 493.013" stroke="#000000" stroke-width="0.398" fill="none" /><path id="2102" transform="matrix(1 0 0 -1 0 792)" d="M474.664 479.446L474.664 493.013" stroke="#000000" stroke-width="0.398" fill="none" /><path id="2103" transform="matrix(1 0 0 -1 0 792)" d="M89.933 479.246L474.864 479.246" stroke="#000000" stroke-width="0.398" fill="none" /><path id="2104" transform="matrix(1 0 0 -1 0 792)" d="M90.132 465.48L90.132 479.047" stroke="#000000" stroke-width="0.398" fill="none" /><path id="2147" transform="matrix(1 0 0 -1 0 792)" d="M419.285 465.48L419.285 479.047" stroke="#000000" stroke-width="0.398" fill="none" /><path id="2149" transform="matrix(1 0 0 -1 0 792)" d="M474.664 465.48L474.664 479.047" stroke="#000000" stroke-width="0.398" fill="none" /><path id="2150" transform="matrix(1 0 0 -1 0 792)" d="M89.933 465.281L474.864 465.281" stroke="#000000" stroke-width="0.398" fill="none" /><path id="2151" transform="matrix(1 0 0 -1 0 792)" d="M90.132 451.515L90.132 465.082" stroke="#000000" stroke-width="0.398" fill="none" /><path id="2179" transform="matrix(1 0 0 -1 0 792)" d="M419.285 451.515L419.285 465.082" stroke="#000000" stroke-width="0.398" fill="none" /><path id="2181" transform="matrix(1 0 0 -1 0 792)" d="M474.664 451.515L474.664 465.082" stroke="#000000" stroke-width="0.398" fill="none" /><path id="2182" transform="matrix(1 0 0 -1 0 792)" d="M89.933 451.316L474.864 451.316" stroke="#000000" stroke-width="0.398" fill="none" /><path id="2183" transform="matrix(1 0 0 -1 0 792)" d="M90.132 437.55L90.132 451.117" stroke="#000000" stroke-width="0.398" fill="none" /><path id="2232" transform="matrix(1 0 0 -1 0 792)" d="M419.285 437.55L419.285 451.117" stroke="#000000" stroke-width="0.398" fill="none" /><path id="2234" transform="matrix(1 0 0 -1 0 792)" d="M474.664 437.55L474.664 451.117" stroke="#000000" stroke-width="0.398" fill="none" /><path id="2235" transform="matrix(1 0 0 -1 0 792)" d="M89.933 437.351L474.864 437.351" stroke="#000000" stroke-width="0.398" fill="none" /><path id="2236" transform="matrix(1 0 0 -1 0 792)" d="M90.132 423.585L90.132 437.152" stroke="#000000" stroke-width="0.398" fill="none" /><path id="2270" transform="matrix(1 0 0 -1 0 792)" d="M419.285 423.585L419.285 437.152" stroke="#000000" stroke-width="0.398" fill="none" /><path id="2272" transform="matrix(1 0 0 -1 0 792)" d="M474.664 423.585L474.664 437.152" stroke="#000000" stroke-width="0.398" fill="none" /><path id="2273" transform="matrix(1 0 0 -1 0 792)" d="M89.933 423.386L474.864 423.386" stroke="#000000" stroke-width="0.398" fill="none" /><path id="2274" transform="matrix(1 0 0 -1 0 792)" d="M90.132 409.62L90.132 423.187" stroke="#000000" stroke-width="0.398" fill="none" /><path id="2319" transform="matrix(1 0 0 -1 0 792)" d="M419.285 409.62L419.285 423.187" stroke="#000000" stroke-width="0.398" fill="none" /><path id="2321" transform="matrix(1 0 0 -1 0 792)" d="M474.664 409.62L474.664 423.187" stroke="#000000" stroke-width="0.398" fill="none" /><path id="2322" transform="matrix(1 0 0 -1 0 792)" d="M89.933 409.421L474.864 409.421" stroke="#000000" stroke-width="0.398" fill="none" /><path id="2323" transform="matrix(1 0 0 -1 0 792)" d="M90.132 395.655L90.132 409.222" stroke="#000000" stroke-width="0.398" fill="none" /><path id="2371" transform="matrix(1 0 0 -1 0 792)" d="M419.285 395.655L419.285 409.222" stroke="#000000" stroke-width="0.398" fill="none" /><path id="2373" transform="matrix(1 0 0 -1 0 792)" d="M474.664 395.655L474.664 409.222" stroke="#000000" stroke-width="0.398" fill="none" /><path id="2374" transform="matrix(1 0 0 -1 0 792)" d="M89.933 395.456L474.864 395.456" stroke="#000000" stroke-width="0.398" fill="none" /><path id="2375" transform="matrix(1 0 0 -1 0 792)" d="M90.132 381.69L90.132 395.257" stroke="#000000" stroke-width="0.398" fill="none" /><path id="2424" transform="matrix(1 0 0 -1 0 792)" d="M419.285 381.69L419.285 395.257" stroke="#000000" stroke-width="0.398" fill="none" /><path id="2426" transform="matrix(1 0 0 -1 0 792)" d="M474.664 381.69L474.664 395.257" stroke="#000000" stroke-width="0.398" fill="none" /><path id="2427" transform="matrix(1 0 0 -1 0 792)" d="M89.933 381.49L474.864 381.49" stroke="#000000" stroke-width="0.398" fill="none" /><path id="2428" transform="matrix(1 0 0 -1 0 792)" d="M90.132 367.724L90.132 381.291" stroke="#000000" stroke-width="0.398" fill="none" /><path id="2479" transform="matrix(1 0 0 -1 0 792)" d="M419.285 367.724L419.285 381.291" stroke="#000000" stroke-width="0.398" fill="none" /><path id="2481" transform="matrix(1 0 0 -1 0 792)" d="M474.664 367.724L474.664 381.291" stroke="#000000" stroke-width="0.398" fill="none" /><path id="2482" transform="matrix(1 0 0 -1 0 792)" d="M89.933 367.525L474.864 367.525" stroke="#000000" stroke-width="0.398" fill="none" /><path id="3370" transform="matrix(1 0 0 -1 0 792)" d="M468.717 139.345L471.706 139.345" stroke="#000000" stroke-width="0.398" fill="none" /><path id="3378" transform="matrix(1 0 0 -1 0 792)" d="M514.147 139.345L517.136 139.345" stroke="#000000" stroke-width="0.398" fill="none" /><path id="3384" transform="matrix(1 0 0 -1 0 792)" d="M547.621 139.345L550.61 139.345" stroke="#000000" stroke-width="0.398" fill="none" /><path id="3400" transform="matrix(1 0 0 -1 0 792)" d="M100.884 113.316L545.636 113.316" stroke="#000000" stroke-width="0.398" fill="none" /><path id="3401" transform="matrix(1 0 0 -1 0 792)" d="M100.884 113.316L545.636 113.316" stroke="#000000" stroke-width="0.398" fill="none" /><path id="3402" transform="matrix(1 0 0 -1 0 792)" d="M101.083 99.55L101.083 113.117" stroke="#000000" stroke-width="0.398" fill="none" /><path id="3403" transform="matrix(1 0 0 -1 0 792)" d="M101.283 99.55L430.038 99.55L430.038 113.117L101.283 113.117z" stroke="none" fill="#CCCCEB" fill-rule="nonzero" /><path id="3413" transform="matrix(1 0 0 -1 0 792)" d="M430.237 99.55L430.237 113.117" stroke="#000000" stroke-width="0.398" fill="none" /><path id="3414" transform="matrix(1 0 0 -1 0 792)" d="M430.436 99.55L545.238 99.55L545.238 113.117L430.436 113.117z" stroke="none" fill="#CCCCEB" fill-rule="nonzero" /><path id="3421" transform="matrix(1 0 0 -1 0 792)" d="M545.437 99.55L545.437 113.117" stroke="#000000" stroke-width="0.398" fill="none" /><path id="3422" transform="matrix(1 0 0 -1 0 792)" d="M100.884 99.351L545.636 99.351" stroke="#000000" stroke-width="0.398" fill="none" /><path id="3423" transform="matrix(1 0 0 -1 0 792)" d="M100.884 99.351L545.636 99.351" stroke="#000000" stroke-width="0.398" fill="none" /><path id="3424" transform="matrix(1 0 0 -1 0 792)" d="M100.884 98.953L545.636 98.953" stroke="#000000" stroke-width="0.398" fill="none" /><path id="3425" transform="matrix(1 0 0 -1 0 792)" d="M100.884 98.953L545.636 98.953" stroke="#000000" stroke-width="0.398" fill="none" /><path id="3426" transform="matrix(1 0 0 -1 0 792)" d="M101.083 71.655L101.083 98.753" stroke="#000000" stroke-width="0.398" fill="none" /><path id="3488" transform="matrix(1 0 0 -1 0 792)" d="M430.237 71.655L430.237 98.753" stroke="#000000" stroke-width="0.398" fill="none" /><path id="3490" transform="matrix(1 0 0 -1 0 792)" d="M545.437 71.655L545.437 98.753" stroke="#000000" stroke-width="0.398" fill="none" /><path id="3491" transform="matrix(1 0 0 -1 0 792)" d="M100.884 71.456L545.636 71.456" stroke="#000000" stroke-width="0.398" fill="none" /></g></g></svg>