<svg xmlns="http://www.w3.org/2000/svg" xmlns:xlink="http://www.w3.org/1999/xlink" id="body_48" preserveAspectRatio="xMinYMin meet" viewBox="0 0 1632 1056"><defs><clipPath id="1"><path id="" clip-rule="evenodd" transform="matrix(1 0 0 1 0 0)" d="M0 792L0 0L0 0L1224 0L1224 0L1224 792L1224 792L0 792z" /></clipPath></defs><g transform="matrix(1.333333 0 0 1.333333 0 0)"><g clip-path="url(#1)"><path id="38" transform="matrix(1 0 0 -1 0 792)" d="M706.929 463.991L1091.86 463.991" stroke="#000000" stroke-width="0.398" fill="none" /><path id="39" transform="matrix(1 0 0 -1 0 792)" d="M706.929 463.991L1091.86 463.991" stroke="#000000" stroke-width="0.398" fill="none" /><path id="40" transform="matrix(1 0 0 -1 0 792)" d="M707.129 450.225L707.129 463.792" stroke="#000000" stroke-width="0.398" fill="none" /><path id="41" transform="matrix(1 0 0 -1 0 792)" d="M707.328 450.225L1036.083 450.225L1036.083 463.792L707.328 463.792z" stroke="none" fill="#CCCCEB" fill-rule="nonzero" /><path id="51" transform="matrix(1 0 0 -1 0 792)" d="M1036.282 450.225L1036.282 463.792" stroke="#000000" stroke-width="0.398" fill="none" /><path id="52" transform="matrix(1 0 0 -1 0 792)" d="M1036.481 450.225L1091.461 450.225L1091.461 463.792L1036.481 463.792z" stroke="none" fill="#CCCCEB" fill-rule="nonzero" /><path id="59" transform="matrix(1 0 0 -1 0 792)" d="M1091.661 450.225L1091.661 463.792" stroke="#000000" stroke-width="0.398" fill="none" /><path id="60" transform="matrix(1 0 0 -1 0 792)" d="M706.929 450.026L1091.86 450.026" stroke="#000000" stroke-width="0.398" fill="none" /><path id="61" transform="matrix(1 0 0 -1 0 792)" d="M706.929 450.026L1091.86 450.026" stroke="#000000" stroke-width="0.398" fill="none" /><path id="62" transform="matrix(1 0 0 -1 0 792)" d="M706.929 449.628L1091.86 449.628" stroke="#000000" stroke-width="0.398" fill="none" /><path id="63" transform="matrix(1 0 0 -1 0 792)" d="M706.929 449.628L1091.86 449.628" stroke="#000000" stroke-width="0.398" fill="none" /><path id="64" transform="matrix(1 0 0 -1 0 792)" d="M707.129 422.33L707.129 449.428" stroke="#000000" stroke-width="0.398" fill="none" /><path id="124" transform="matrix(1 0 0 -1 0 792)" d="M1036.282 422.33L1036.282 449.428" stroke="#000000" stroke-width="0.398" fill="none" /><path id="126" transform="matrix(1 0 0 -1 0 792)" d="M1091.661 422.33L1091.661 449.428" stroke="#000000" stroke-width="0.398" fill="none" /><path id="127" transform="matrix(1 0 0 -1 0 792)" d="M706.929 422.131L1091.86 422.131" stroke="#000000" stroke-width="0.398" fill="none" /><path id="128" transform="matrix(1 0 0 -1 0 792)" d="M706.929 422.131L1091.86 422.131" stroke="#000000" stroke-width="0.398" fill="none" /><path id="129" transform="matrix(1 0 0 -1 0 792)" d="M707.129 381.284L707.129 421.932" stroke="#000000" stroke-width="0.398" fill="none" /><path id="221" transform="matrix(1 0 0 -1 0 792)" d="M1036.282 381.284L1036.282 421.932" stroke="#000000" stroke-width="0.398" fill="none" /><path id="223" transform="matrix(1 0 0 -1 0 792)" d="M1091.661 381.284L1091.661 421.932" stroke="#000000" stroke-width="0.398" fill="none" /><path id="224" transform="matrix(1 0 0 -1 0 792)" d="M706.929 381.085L1091.86 381.085" stroke="#000000" stroke-width="0.398" fill="none" /><path id="225" transform="matrix(1 0 0 -1 0 792)" d="M706.929 381.085L1091.86 381.085" stroke="#000000" stroke-width="0.398" fill="none" /><path id="226" transform="matrix(1 0 0 -1 0 792)" d="M707.129 367.319L707.129 380.886" stroke="#000000" stroke-width="0.398" fill="none" /><path id="269" transform="matrix(1 0 0 -1 0 792)" d="M1036.282 367.319L1036.282 380.886" stroke="#000000" stroke-width="0.398" fill="none" /><path id="271" transform="matrix(1 0 0 -1 0 792)" d="M1091.661 367.319L1091.661 380.886" stroke="#000000" stroke-width="0.398" fill="none" /><path id="272" transform="matrix(1 0 0 -1 0 792)" d="M706.929 367.119L1091.86 367.119" stroke="#000000" stroke-width="0.398" fill="none" /><path id="273" transform="matrix(1 0 0 -1 0 792)" d="M706.929 367.119L1091.86 367.119" stroke="#000000" stroke-width="0.398" fill="none" /><path id="274" transform="matrix(1 0 0 -1 0 792)" d="M707.129 353.354L707.129 366.921" stroke="#000000" stroke-width="0.398" fill="none" /><path id="307" transform="matrix(1 0 0 -1 0 792)" d="M1036.282 353.354L1036.282 366.921" stroke="#000000" stroke-width="0.398" fill="none" /><path id="309" transform="matrix(1 0 0 -1 0 792)" d="M1091.661 353.354L1091.661 366.921" stroke="#000000" stroke-width="0.398" fill="none" /><path id="310" transform="matrix(1 0 0 -1 0 792)" d="M706.929 353.154L1091.86 353.154" stroke="#000000" stroke-width="0.398" fill="none" /><path id="311" transform="matrix(1 0 0 -1 0 792)" d="M706.929 353.154L1091.86 353.154" stroke="#000000" stroke-width="0.398" fill="none" /><path id="312" transform="matrix(1 0 0 -1 0 792)" d="M707.129 339.388L707.129 352.955" stroke="#000000" stroke-width="0.398" fill="none" /><path id="344" transform="matrix(1 0 0 -1 0 792)" d="M1036.282 339.388L1036.282 352.955" stroke="#000000" stroke-width="0.398" fill="none" /><path id="346" transform="matrix(1 0 0 -1 0 792)" d="M1091.661 339.388L1091.661 352.955" stroke="#000000" stroke-width="0.398" fill="none" /><path id="347" transform="matrix(1 0 0 -1 0 792)" d="M706.929 339.189L1091.86 339.189" stroke="#000000" stroke-width="0.398" fill="none" /><path id="348" transform="matrix(1 0 0 -1 0 792)" d="M706.929 339.189L1091.86 339.189" stroke="#000000" stroke-width="0.398" fill="none" /><path id="349" transform="matrix(1 0 0 -1 0 792)" d="M707.129 325.423L707.129 338.99" stroke="#000000" stroke-width="0.398" fill="none" /><path id="389" transform="matrix(1 0 0 -1 0 792)" d="M1036.282 325.423L1036.282 338.99" stroke="#000000" stroke-width="0.398" fill="none" /><path id="391" transform="matrix(1 0 0 -1 0 792)" d="M1091.661 325.423L1091.661 338.99" stroke="#000000" stroke-width="0.398" fill="none" /><path id="392" transform="matrix(1 0 0 -1 0 792)" d="M706.929 325.224L1091.86 325.224" stroke="#000000" stroke-width="0.398" fill="none" /><path id="393" transform="matrix(1 0 0 -1 0 792)" d="M706.929 325.224L1091.86 325.224" stroke="#000000" stroke-width="0.398" fill="none" /><path id="394" transform="matrix(1 0 0 -1 0 792)" d="M707.129 311.458L707.129 325.025" stroke="#000000" stroke-width="0.398" fill="none" /><path id="430" transform="matrix(1 0 0 -1 0 792)" d="M1036.282 311.458L1036.282 325.025" stroke="#000000" stroke-width="0.398" fill="none" /><path id="432" transform="matrix(1 0 0 -1 0 792)" d="M1091.661 311.458L1091.661 325.025" stroke="#000000" stroke-width="0.398" fill="none" /><path id="433" transform="matrix(1 0 0 -1 0 792)" d="M706.929 311.259L1091.86 311.259" stroke="#000000" stroke-width="0.398" fill="none" /><path id="434" transform="matrix(1 0 0 -1 0 792)" d="M706.929 311.259L1091.86 311.259" stroke="#000000" stroke-width="0.398" fill="none" /><path id="435" transform="matrix(1 0 0 -1 0 792)" d="M707.129 283.961L707.129 311.059" stroke="#000000" stroke-width="0.398" fill="none" /><path id="483" transform="matrix(1 0 0 -1 0 792)" d="M1036.282 283.961L1036.282 311.059" stroke="#000000" stroke-width="0.398" fill="none" /><path id="485" transform="matrix(1 0 0 -1 0 792)" d="M1091.661 283.961L1091.661 311.059" stroke="#000000" stroke-width="0.398" fill="none" /><path id="486" transform="matrix(1 0 0 -1 0 792)" d="M706.929 283.762L1091.86 283.762" stroke="#000000" stroke-width="0.398" fill="none" /><path id="487" transform="matrix(1 0 0 -1 0 792)" d="M706.929 283.762L1091.86 283.762" stroke="#000000" stroke-width="0.398" fill="none" /><path id="488" transform="matrix(1 0 0 -1 0 792)" d="M707.129 269.996L707.129 283.563" stroke="#000000" stroke-width="0.398" fill="none" /><path id="509" transform="matrix(1 0 0 -1 0 792)" d="M1036.282 269.996L1036.282 283.563" stroke="#000000" stroke-width="0.398" fill="none" /><path id="511" transform="matrix(1 0 0 -1 0 792)" d="M1091.661 269.996L1091.661 283.563" stroke="#000000" stroke-width="0.398" fill="none" /><path id="512" transform="matrix(1 0 0 -1 0 792)" d="M706.929 269.797L1091.86 269.797" stroke="#000000" stroke-width="0.398" fill="none" /><path id="513" transform="matrix(1 0 0 -1 0 792)" d="M706.929 269.797L1091.86 269.797" stroke="#000000" stroke-width="0.398" fill="none" /><path id="514" transform="matrix(1 0 0 -1 0 792)" d="M707.129 256.031L707.129 269.598" stroke="#000000" stroke-width="0.398" fill="none" /><path id="540" transform="matrix(1 0 0 -1 0 792)" d="M1036.282 256.031L1036.282 269.598" stroke="#000000" stroke-width="0.398" fill="none" /><path id="542" transform="matrix(1 0 0 -1 0 792)" d="M1091.661 256.031L1091.661 269.598" stroke="#000000" stroke-width="0.398" fill="none" /><path id="543" transform="matrix(1 0 0 -1 0 792)" d="M706.929 255.832L1091.86 255.832" stroke="#000000" stroke-width="0.398" fill="none" /><path id="544" transform="matrix(1 0 0 -1 0 792)" d="M706.929 255.832L1091.86 255.832" stroke="#000000" stroke-width="0.398" fill="none" /><path id="557" transform="matrix(1 0 0 -1 0 792)" d="M706.929 157.251L1091.86 157.251" stroke="#000000" stroke-width="0.398" fill="none" /><path id="558" transform="matrix(1 0 0 -1 0 792)" d="M706.929 157.251L1091.86 157.251" stroke="#000000" stroke-width="0.398" fill="none" /><path id="559" transform="matrix(1 0 0 -1 0 792)" d="M707.129 143.485L707.129 157.052" stroke="#000000" stroke-width="0.398" fill="none" /><path id="560" transform="matrix(1 0 0 -1 0 792)" d="M707.328 143.485L1036.083 143.485L1036.083 157.052L707.328 157.052z" stroke="none" fill="#CCCCEB" fill-rule="nonzero" /><path id="570" transform="matrix(1 0 0 -1 0 792)" d="M1036.282 143.485L1036.282 157.052" stroke="#000000" stroke-width="0.398" fill="none" /><path id="571" transform="matrix(1 0 0 -1 0 792)" d="M1036.481 143.485L1091.461 143.485L1091.461 157.052L1036.481 157.052z" stroke="none" fill="#CCCCEB" fill-rule="nonzero" /><path id="578" transform="matrix(1 0 0 -1 0 792)" d="M1091.661 143.485L1091.661 157.052" stroke="#000000" stroke-width="0.398" fill="none" /><path id="579" transform="matrix(1 0 0 -1 0 792)" d="M706.929 143.286L1091.86 143.286" stroke="#000000" stroke-width="0.398" fill="none" /><path id="580" transform="matrix(1 0 0 -1 0 792)" d="M706.929 143.286L1091.86 143.286" stroke="#000000" stroke-width="0.398" fill="none" /><path id="581" transform="matrix(1 0 0 -1 0 792)" d="M706.929 142.888L1091.86 142.888" stroke="#000000" stroke-width="0.398" fill="none" /><path id="582" transform="matrix(1 0 0 -1 0 792)" d="M706.929 142.888L1091.86 142.888" stroke="#000000" stroke-width="0.398" fill="none" /><path id="583" transform="matrix(1 0 0 -1 0 792)" d="M707.129 129.122L707.129 142.689" stroke="#000000" stroke-width="0.398" fill="none" /><path id="603" transform="matrix(1 0 0 -1 0 792)" d="M1036.282 129.122L1036.282 142.689" stroke="#000000" stroke-width="0.398" fill="none" /><path id="605" transform="matrix(1 0 0 -1 0 792)" d="M1091.661 129.122L1091.661 142.689" stroke="#000000" stroke-width="0.398" fill="none" /><path id="606" transform="matrix(1 0 0 -1 0 792)" d="M706.929 128.923L1091.86 128.923" stroke="#000000" stroke-width="0.398" fill="none" /><path id="607" transform="matrix(1 0 0 -1 0 792)" d="M706.929 128.923L1091.86 128.923" stroke="#000000" stroke-width="0.398" fill="none" /><path id="608" transform="matrix(1 0 0 -1 0 792)" d="M707.129 115.157L707.129 128.724" stroke="#000000" stroke-width="0.398" fill="none" /><path id="631" transform="matrix(1 0 0 -1 0 792)" d="M1036.282 115.157L1036.282 128.724" stroke="#000000" stroke-width="0.398" fill="none" /><path id="633" transform="matrix(1 0 0 -1 0 792)" d="M1091.661 115.157L1091.661 128.724" stroke="#000000" stroke-width="0.398" fill="none" /><path id="634" transform="matrix(1 0 0 -1 0 792)" d="M706.929 114.957L1091.86 114.957" stroke="#000000" stroke-width="0.398" fill="none" /><path id="635" transform="matrix(1 0 0 -1 0 792)" d="M706.929 114.957L1091.86 114.957" stroke="#000000" stroke-width="0.398" fill="none" /><path id="636" transform="matrix(1 0 0 -1 0 792)" d="M707.129 101.192L707.129 114.759" stroke="#000000" stroke-width="0.398" fill="none" /><path id="659" transform="matrix(1 0 0 -1 0 792)" d="M1036.282 101.192L1036.282 114.759" stroke="#000000" stroke-width="0.398" fill="none" /><path id="661" transform="matrix(1 0 0 -1 0 792)" d="M1091.661 101.192L1091.661 114.759" stroke="#000000" stroke-width="0.398" fill="none" /><path id="662" transform="matrix(1 0 0 -1 0 792)" d="M706.929 100.992L1091.86 100.992" stroke="#000000" stroke-width="0.398" fill="none" /><path id="663" transform="matrix(1 0 0 -1 0 792)" d="M706.929 100.992L1091.86 100.992" stroke="#000000" stroke-width="0.398" fill="none" /><path id="664" transform="matrix(1 0 0 -1 0 792)" d="M707.129 87.226L707.129 100.793" stroke="#000000" stroke-width="0.398" fill="none" /><path id="682" transform="matrix(1 0 0 -1 0 792)" d="M1036.282 87.226L1036.282 100.793" stroke="#000000" stroke-width="0.398" fill="none" /><path id="684" transform="matrix(1 0 0 -1 0 792)" d="M1091.661 87.226L1091.661 100.793" stroke="#000000" stroke-width="0.398" fill="none" /><path id="685" transform="matrix(1 0 0 -1 0 792)" d="M706.929 87.027L1091.86 87.027" stroke="#000000" stroke-width="0.398" fill="none" /><path id="686" transform="matrix(1 0 0 -1 0 792)" d="M706.929 87.027L1091.86 87.027" stroke="#000000" stroke-width="0.398" fill="none" /><path id="687" transform="matrix(1 0 0 -1 0 792)" d="M707.129 73.261L707.129 86.828" stroke="#000000" stroke-width="0.398" fill="none" /><path id="711" transform="matrix(1 0 0 -1 0 792)" d="M1036.282 73.261L1036.282 86.828" stroke="#000000" stroke-width="0.398" fill="none" /><path id="713" transform="matrix(1 0 0 -1 0 792)" d="M1091.661 73.261L1091.661 86.828" stroke="#000000" stroke-width="0.398" fill="none" /><path id="714" transform="matrix(1 0 0 -1 0 792)" d="M706.929 73.062L1091.86 73.062" stroke="#000000" stroke-width="0.398" fill="none" /><path id="715" transform="matrix(1 0 0 -1 0 792)" d="M706.929 73.062L1091.86 73.062" stroke="#000000" stroke-width="0.398" fill="none" /><path id="716" transform="matrix(1 0 0 -1 0 792)" d="M707.129 59.296L707.129 72.863" stroke="#000000" stroke-width="0.398" fill="none" /><path id="756" transform="matrix(1 0 0 -1 0 792)" d="M1036.282 59.296L1036.282 72.863" stroke="#000000" stroke-width="0.398" fill="none" /><path id="758" transform="matrix(1 0 0 -1 0 792)" d="M1091.661 59.296L1091.661 72.863" stroke="#000000" stroke-width="0.398" fill="none" /><path id="759" transform="matrix(1 0 0 -1 0 792)" d="M706.929 59.097L1091.86 59.097" stroke="#000000" stroke-width="0.398" fill="none" /><path id="760" transform="matrix(1 0 0 -1 0 792)" d="M706.929 59.097L1091.86 59.097" stroke="#000000" stroke-width="0.398" fill="none" /><path id="763" transform="matrix(1 0 0 -1 0 792)" d="M666.067 475.442L793.649 475.442L793.649 475.442L793.649 488.5875L793.649 488.5875L666.067 488.5875z" stroke="#FFFFFF" stroke-width="1" fill="#FFFFFF" fill-rule="nonzero" /><path id="771" transform="matrix(1 0 0 -1 0 792)" d="M693.34 228.883L1102.39 228.883L1102.39 228.883L1102.39 241.2167L1102.39 241.2167L693.34 241.2167z" stroke="#FFFFFF" stroke-width="1" fill="#FFFFFF" fill-rule="nonzero" /><path id="803" transform="matrix(1 0 0 -1 0 792)" d="M666.067 168.702L781.823 168.702L781.823 168.702L781.823 181.8475L781.823 181.8475L666.067 181.8475z" stroke="#FFFFFF" stroke-width="1" fill="#FFFFFF" fill-rule="nonzero" /><path id="892" transform="matrix(1 0 0 -1 0 792)" d="M94.929 463.991L479.86 463.991" stroke="#000000" stroke-width="0.398" fill="none" /><path id="893" transform="matrix(1 0 0 -1 0 792)" d="M94.929 463.991L479.86 463.991" stroke="#000000" stroke-width="0.398" fill="none" /><path id="894" transform="matrix(1 0 0 -1 0 792)" d="M95.129 450.225L95.129 463.792" stroke="#000000" stroke-width="0.398" fill="none" /><path id="895" transform="matrix(1 0 0 -1 0 792)" d="M95.328 450.225L424.083 450.225L424.083 463.792L95.328 463.792z" stroke="none" fill="#CCCCEB" fill-rule="nonzero" /><path id="905" transform="matrix(1 0 0 -1 0 792)" d="M424.282 450.225L424.282 463.792" stroke="#000000" stroke-width="0.398" fill="none" /><path id="906" transform="matrix(1 0 0 -1 0 792)" d="M424.481 450.225L479.461 450.225L479.461 463.792L424.481 463.792z" stroke="none" fill="#CCCCEB" fill-rule="nonzero" /><path id="913" transform="matrix(1 0 0 -1 0 792)" d="M479.661 450.225L479.661 463.792" stroke="#000000" stroke-width="0.398" fill="none" /><path id="914" transform="matrix(1 0 0 -1 0 792)" d="M94.929 450.026L479.86 450.026" stroke="#000000" stroke-width="0.398" fill="none" /><path id="915" transform="matrix(1 0 0 -1 0 792)" d="M94.929 450.026L479.86 450.026" stroke="#000000" stroke-width="0.398" fill="none" /><path id="916" transform="matrix(1 0 0 -1 0 792)" d="M94.929 449.628L479.86 449.628" stroke="#000000" stroke-width="0.398" fill="none" /><path id="917" transform="matrix(1 0 0 -1 0 792)" d="M94.929 449.628L479.86 449.628" stroke="#000000" stroke-width="0.398" fill="none" /><path id="918" transform="matrix(1 0 0 -1 0 792)" d="M95.129 422.33L95.129 449.428" stroke="#000000" stroke-width="0.398" fill="none" /><path id="978" transform="matrix(1 0 0 -1 0 792)" d="M424.282 422.33L424.282 449.428" stroke="#000000" stroke-width="0.398" fill="none" /><path id="980" transform="matrix(1 0 0 -1 0 792)" d="M479.661 422.33L479.661 449.428" stroke="#000000" stroke-width="0.398" fill="none" /><path id="981" transform="matrix(1 0 0 -1 0 792)" d="M94.929 422.131L479.86 422.131" stroke="#000000" stroke-width="0.398" fill="none" /><path id="982" transform="matrix(1 0 0 -1 0 792)" d="M94.929 422.131L479.86 422.131" stroke="#000000" stroke-width="0.398" fill="none" /><path id="983" transform="matrix(1 0 0 -1 0 792)" d="M95.129 381.284L95.129 421.932" stroke="#000000" stroke-width="0.398" fill="none" /><path id="1075" transform="matrix(1 0 0 -1 0 792)" d="M424.282 381.284L424.282 421.932" stroke="#000000" stroke-width="0.398" fill="none" /><path id="1077" transform="matrix(1 0 0 -1 0 792)" d="M479.661 381.284L479.661 421.932" stroke="#000000" stroke-width="0.398" fill="none" /><path id="1078" transform="matrix(1 0 0 -1 0 792)" d="M94.929 381.085L479.86 381.085" stroke="#000000" stroke-width="0.398" fill="none" /><path id="1079" transform="matrix(1 0 0 -1 0 792)" d="M94.929 381.085L479.86 381.085" stroke="#000000" stroke-width="0.398" fill="none" /><path id="1080" transform="matrix(1 0 0 -1 0 792)" d="M95.129 367.319L95.129 380.886" stroke="#000000" stroke-width="0.398" fill="none" /><path id="1123" transform="matrix(1 0 0 -1 0 792)" d="M424.282 367.319L424.282 380.886" stroke="#000000" stroke-width="0.398" fill="none" /><path id="1125" transform="matrix(1 0 0 -1 0 792)" d="M479.661 367.319L479.661 380.886" stroke="#000000" stroke-width="0.398" fill="none" /><path id="1126" transform="matrix(1 0 0 -1 0 792)" d="M94.929 367.119L479.86 367.119" stroke="#000000" stroke-width="0.398" fill="none" /><path id="1127" transform="matrix(1 0 0 -1 0 792)" d="M94.929 367.119L479.86 367.119" stroke="#000000" stroke-width="0.398" fill="none" /><path id="1128" transform="matrix(1 0 0 -1 0 792)" d="M95.129 353.354L95.129 366.921" stroke="#000000" stroke-width="0.398" fill="none" /><path id="1161" transform="matrix(1 0 0 -1 0 792)" d="M424.282 353.354L424.282 366.921" stroke="#000000" stroke-width="0.398" fill="none" /><path id="1163" transform="matrix(1 0 0 -1 0 792)" d="M479.661 353.354L479.661 366.921" stroke="#000000" stroke-width="0.398" fill="none" /><path id="1164" transform="matrix(1 0 0 -1 0 792)" d="M94.929 353.154L479.86 353.154" stroke="#000000" stroke-width="0.398" fill="none" /><path id="1165" transform="matrix(1 0 0 -1 0 792)" d="M94.929 353.154L479.86 353.154" stroke="#000000" stroke-width="0.398" fill="none" /><path id="1166" transform="matrix(1 0 0 -1 0 792)" d="M95.129 339.388L95.129 352.955" stroke="#000000" stroke-width="0.398" fill="none" /><path id="1198" transform="matrix(1 0 0 -1 0 792)" d="M424.282 339.388L424.282 352.955" stroke="#000000" stroke-width="0.398" fill="none" /><path id="1200" transform="matrix(1 0 0 -1 0 792)" d="M479.661 339.388L479.661 352.955" stroke="#000000" stroke-width="0.398" fill="none" /><path id="1201" transform="matrix(1 0 0 -1 0 792)" d="M94.929 339.189L479.86 339.189" stroke="#000000" stroke-width="0.398" fill="none" /><path id="1202" transform="matrix(1 0 0 -1 0 792)" d="M94.929 339.189L479.86 339.189" stroke="#000000" stroke-width="0.398" fill="none" /><path id="1203" transform="matrix(1 0 0 -1 0 792)" d="M95.129 325.423L95.129 338.99" stroke="#000000" stroke-width="0.398" fill="none" /><path id="1243" transform="matrix(1 0 0 -1 0 792)" d="M424.282 325.423L424.282 338.99" stroke="#000000" stroke-width="0.398" fill="none" /><path id="1245" transform="matrix(1 0 0 -1 0 792)" d="M479.661 325.423L479.661 338.99" stroke="#000000" stroke-width="0.398" fill="none" /><path id="1246" transform="matrix(1 0 0 -1 0 792)" d="M94.929 325.224L479.86 325.224" stroke="#000000" stroke-width="0.398" fill="none" /><path id="1247" transform="matrix(1 0 0 -1 0 792)" d="M94.929 325.224L479.86 325.224" stroke="#000000" stroke-width="0.398" fill="none" /><path id="1248" transform="matrix(1 0 0 -1 0 792)" d="M95.129 311.458L95.129 325.025" stroke="#000000" stroke-width="0.398" fill="none" /><path id="1284" transform="matrix(1 0 0 -1 0 792)" d="M424.282 311.458L424.282 325.025" stroke="#000000" stroke-width="0.398" fill="none" /><path id="1286" transform="matrix(1 0 0 -1 0 792)" d="M479.661 311.458L479.661 325.025" stroke="#000000" stroke-width="0.398" fill="none" /><path id="1287" transform="matrix(1 0 0 -1 0 792)" d="M94.929 311.259L479.86 311.259" stroke="#000000" stroke-width="0.398" fill="none" /><path id="1288" transform="matrix(1 0 0 -1 0 792)" d="M94.929 311.259L479.86 311.259" stroke="#000000" stroke-width="0.398" fill="none" /><path id="1289" transform="matrix(1 0 0 -1 0 792)" d="M95.129 283.961L95.129 311.059" stroke="#000000" stroke-width="0.398" fill="none" /><path id="1337" transform="matrix(1 0 0 -1 0 792)" d="M424.282 283.961L424.282 311.059" stroke="#000000" stroke-width="0.398" fill="none" /><path id="1339" transform="matrix(1 0 0 -1 0 792)" d="M479.661 283.961L479.661 311.059" stroke="#000000" stroke-width="0.398" fill="none" /><path id="1340" transform="matrix(1 0 0 -1 0 792)" d="M94.929 283.762L479.86 283.762" stroke="#000000" stroke-width="0.398" fill="none" /><path id="1341" transform="matrix(1 0 0 -1 0 792)" d="M94.929 283.762L479.86 283.762" stroke="#000000" stroke-width="0.398" fill="none" /><path id="1342" transform="matrix(1 0 0 -1 0 792)" d="M95.129 269.996L95.129 283.563" stroke="#000000" stroke-width="0.398" fill="none" /><path id="1363" transform="matrix(1 0 0 -1 0 792)" d="M424.282 269.996L424.282 283.563" stroke="#000000" stroke-width="0.398" fill="none" /><path id="1365" transform="matrix(1 0 0 -1 0 792)" d="M479.661 269.996L479.661 283.563" stroke="#000000" stroke-width="0.398" fill="none" /><path id="1366" transform="matrix(1 0 0 -1 0 792)" d="M94.929 269.797L479.86 269.797" stroke="#000000" stroke-width="0.398" fill="none" /><path id="1367" transform="matrix(1 0 0 -1 0 792)" d="M94.929 269.797L479.86 269.797" stroke="#000000" stroke-width="0.398" fill="none" /><path id="1368" transform="matrix(1 0 0 -1 0 792)" d="M95.129 256.031L95.129 269.598" stroke="#000000" stroke-width="0.398" fill="none" /><path id="1394" transform="matrix(1 0 0 -1 0 792)" d="M424.282 256.031L424.282 269.598" stroke="#000000" stroke-width="0.398" fill="none" /><path id="1396" transform="matrix(1 0 0 -1 0 792)" d="M479.661 256.031L479.661 269.598" stroke="#000000" stroke-width="0.398" fill="none" /><path id="1397" transform="matrix(1 0 0 -1 0 792)" d="M94.929 255.832L479.86 255.832" stroke="#000000" stroke-width="0.398" fill="none" /><path id="1398" transform="matrix(1 0 0 -1 0 792)" d="M94.929 255.832L479.86 255.832" stroke="#000000" stroke-width="0.398" fill="none" /><path id="1513" transform="matrix(1 0 0 -1 0 792)" d="M94.929 157.251L479.86 157.251" stroke="#000000" stroke-width="0.398" fill="none" /><path id="1514" transform="matrix(1 0 0 -1 0 792)" d="M94.929 157.251L479.86 157.251" stroke="#000000" stroke-width="0.398" fill="none" /><path id="1515" transform="matrix(1 0 0 -1 0 792)" d="M95.129 143.485L95.129 157.052" stroke="#000000" stroke-width="0.398" fill="none" /><path id="1516" transform="matrix(1 0 0 -1 0 792)" d="M95.328 143.485L424.083 143.485L424.083 157.052L95.328 157.052z" stroke="none" fill="#CCCCEB" fill-rule="nonzero" /><path id="1526" transform="matrix(1 0 0 -1 0 792)" d="M424.282 143.485L424.282 157.052" stroke="#000000" stroke-width="0.398" fill="none" /><path id="1527" transform="matrix(1 0 0 -1 0 792)" d="M424.481 143.485L479.461 143.485L479.461 157.052L424.481 157.052z" stroke="none" fill="#CCCCEB" fill-rule="nonzero" /><path id="1534" transform="matrix(1 0 0 -1 0 792)" d="M479.661 143.485L479.661 157.052" stroke="#000000" stroke-width="0.398" fill="none" /><path id="1535" transform="matrix(1 0 0 -1 0 792)" d="M94.929 143.286L479.86 143.286" stroke="#000000" stroke-width="0.398" fill="none" /><path id="1536" transform="matrix(1 0 0 -1 0 792)" d="M94.929 143.286L479.86 143.286" stroke="#000000" stroke-width="0.398" fill="none" /><path id="1537" transform="matrix(1 0 0 -1 0 792)" d="M94.929 142.888L479.86 142.888" stroke="#000000" stroke-width="0.398" fill="none" /><path id="1538" transform="matrix(1 0 0 -1 0 792)" d="M94.929 142.888L479.86 142.888" stroke="#000000" stroke-width="0.398" fill="none" /><path id="1539" transform="matrix(1 0 0 -1 0 792)" d="M95.129 129.122L95.129 142.689" stroke="#000000" stroke-width="0.398" fill="none" /><path id="1559" transform="matrix(1 0 0 -1 0 792)" d="M424.282 129.122L424.282 142.689" stroke="#000000" stroke-width="0.398" fill="none" /><path id="1561" transform="matrix(1 0 0 -1 0 792)" d="M479.661 129.122L479.661 142.689" stroke="#000000" stroke-width="0.398" fill="none" /><path id="1562" transform="matrix(1 0 0 -1 0 792)" d="M94.929 128.923L479.86 128.923" stroke="#000000" stroke-width="0.398" fill="none" /><path id="1563" transform="matrix(1 0 0 -1 0 792)" d="M94.929 128.923L479.86 128.923" stroke="#000000" stroke-width="0.398" fill="none" /><path id="1564" transform="matrix(1 0 0 -1 0 792)" d="M95.129 115.157L95.129 128.724" stroke="#000000" stroke-width="0.398" fill="none" /><path id="1587" transform="matrix(1 0 0 -1 0 792)" d="M424.282 115.157L424.282 128.724" stroke="#000000" stroke-width="0.398" fill="none" /><path id="1589" transform="matrix(1 0 0 -1 0 792)" d="M479.661 115.157L479.661 128.724" stroke="#000000" stroke-width="0.398" fill="none" /><path id="1590" transform="matrix(1 0 0 -1 0 792)" d="M94.929 114.957L479.86 114.957" stroke="#000000" stroke-width="0.398" fill="none" /><path id="1591" transform="matrix(1 0 0 -1 0 792)" d="M94.929 114.957L479.86 114.957" stroke="#000000" stroke-width="0.398" fill="none" /><path id="1592" transform="matrix(1 0 0 -1 0 792)" d="M95.129 101.192L95.129 114.759" stroke="#000000" stroke-width="0.398" fill="none" /><path id="1615" transform="matrix(1 0 0 -1 0 792)" d="M424.282 101.192L424.282 114.759" stroke="#000000" stroke-width="0.398" fill="none" /><path id="1617" transform="matrix(1 0 0 -1 0 792)" d="M479.661 101.192L479.661 114.759" stroke="#000000" stroke-width="0.398" fill="none" /><path id="1618" transform="matrix(1 0 0 -1 0 792)" d="M94.929 100.992L479.86 100.992" stroke="#000000" stroke-width="0.398" fill="none" /><path id="1619" transform="matrix(1 0 0 -1 0 792)" d="M94.929 100.992L479.86 100.992" stroke="#000000" stroke-width="0.398" fill="none" /><path id="1620" transform="matrix(1 0 0 -1 0 792)" d="M95.129 87.226L95.129 100.793" stroke="#000000" stroke-width="0.398" fill="none" /><path id="1638" transform="matrix(1 0 0 -1 0 792)" d="M424.282 87.226L424.282 100.793" stroke="#000000" stroke-width="0.398" fill="none" /><path id="1640" transform="matrix(1 0 0 -1 0 792)" d="M479.661 87.226L479.661 100.793" stroke="#000000" stroke-width="0.398" fill="none" /><path id="1641" transform="matrix(1 0 0 -1 0 792)" d="M94.929 87.027L479.86 87.027" stroke="#000000" stroke-width="0.398" fill="none" /><path id="1642" transform="matrix(1 0 0 -1 0 792)" d="M94.929 87.027L479.86 87.027" stroke="#000000" stroke-width="0.398" fill="none" /><path id="1643" transform="matrix(1 0 0 -1 0 792)" d="M95.129 73.261L95.129 86.828" stroke="#000000" stroke-width="0.398" fill="none" /><path id="1667" transform="matrix(1 0 0 -1 0 792)" d="M424.282 73.261L424.282 86.828" stroke="#000000" stroke-width="0.398" fill="none" /><path id="1669" transform="matrix(1 0 0 -1 0 792)" d="M479.661 73.261L479.661 86.828" stroke="#000000" stroke-width="0.398" fill="none" /><path id="1670" transform="matrix(1 0 0 -1 0 792)" d="M94.929 73.062L479.86 73.062" stroke="#000000" stroke-width="0.398" fill="none" /><path id="1671" transform="matrix(1 0 0 -1 0 792)" d="M94.929 73.062L479.86 73.062" stroke="#000000" stroke-width="0.398" fill="none" /><path id="1672" transform="matrix(1 0 0 -1 0 792)" d="M95.129 59.296L95.129 72.863" stroke="#000000" stroke-width="0.398" fill="none" /><path id="1712" transform="matrix(1 0 0 -1 0 792)" d="M424.282 59.296L424.282 72.863" stroke="#000000" stroke-width="0.398" fill="none" /><path id="1714" transform="matrix(1 0 0 -1 0 792)" d="M479.661 59.296L479.661 72.863" stroke="#000000" stroke-width="0.398" fill="none" /><path id="1715" transform="matrix(1 0 0 -1 0 792)" d="M94.929 59.097L479.86 59.097" stroke="#000000" stroke-width="0.398" fill="none" /><path id="1716" transform="matrix(1 0 0 -1 0 792)" d="M94.929 59.097L479.86 59.097" stroke="#000000" stroke-width="0.398" fill="none" /></g></g></svg>