<svg xmlns="http://www.w3.org/2000/svg" xmlns:xlink="http://www.w3.org/1999/xlink" id="body_4" preserveAspectRatio="xMinYMin meet" viewBox="0 0 1632 1056"><defs><clipPath id="1"><path id="" clip-rule="evenodd" transform="matrix(1 0 0 1 0 0)" d="M0 792L0 0L0 0L1224 0L1224 0L1224 792L1224 792L0 792z" /></clipPath></defs><g transform="matrix(1.333333 0 0 1.333333 0 0)"><g clip-path="url(#1)"><path id="12" transform="matrix(1 0 0 -1 0 792)" d="M701.933 721.28L1168.588 721.28" stroke="#000000" stroke-width="0.498" fill="none" /><path id="149" transform="matrix(1 0 0 -1 0 792)" d="M718.296 669.05L1168.591 669.05L1168.591 669.05L1168.591 682.1955L1168.591 682.1955L718.296 682.1955z" stroke="#FFFFFF" stroke-width="1" fill="#FFFFFF" fill-rule="nonzero" /><path id="191" transform="matrix(1 0 0 -1 0 792)" d="M718.296 655.5L1168.591 655.5L1168.591 655.5L1168.591 668.6455L1168.591 668.6455L718.296 668.6455z" stroke="#FFFFFF" stroke-width="1" fill="#FFFFFF" fill-rule="nonzero" /><path id="236" transform="matrix(1 0 0 -1 0 792)" d="M743.387 641.951L1168.591 641.951L1168.591 641.951L1168.591 655.0965L1168.591 655.0965L743.387 655.0965z" stroke="#FFFFFF" stroke-width="1" fill="#FFFFFF" fill-rule="nonzero" /><path id="277" transform="matrix(1 0 0 -1 0 792)" d="M743.387 628.401L1168.591 628.401L1168.591 628.401L1168.591 641.5465L1168.591 641.5465L743.387 641.5465z" stroke="#FFFFFF" stroke-width="1" fill="#FFFFFF" fill-rule="nonzero" /><path id="315" transform="matrix(1 0 0 -1 0 792)" d="M718.296 527.928L1168.591 527.928L1168.591 527.928L1168.591 541.0735L1168.591 541.0735L718.296 541.0735z" stroke="#FFFFFF" stroke-width="1" fill="#FFFFFF" fill-rule="nonzero" /><path id="388" transform="matrix(1 0 0 -1 0 792)" d="M89.933 721.28L556.588 721.28" stroke="#000000" stroke-width="0.498" fill="none" /></g></g></svg>