<svg xmlns="http://www.w3.org/2000/svg" xmlns:xlink="http://www.w3.org/1999/xlink" id="body_78" preserveAspectRatio="xMinYMin meet" viewBox="0 0 1632 1056"><defs><clipPath id="1"><path id="" clip-rule="evenodd" transform="matrix(1 0 0 1 0 0)" d="M0 792L0 0L0 0L1224 0L1224 0L1224 792L1224 792L0 792z" /></clipPath></defs><g transform="matrix(1.333333 0 0 1.333333 0 0)"><g clip-path="url(#1)"><path id="19" transform="matrix(1 0 0 -1 0 792)" d="M666.067 721.28L1132.722 721.28" stroke="#000000" stroke-width="0.498" fill="none" /><path id="151" transform="matrix(1 0 0 -1 0 792)" d="M666.067 664.566L799.409 664.566L799.409 664.566L799.409 677.7115L799.409 677.7115L666.067 677.7115z" stroke="#FFFFFF" stroke-width="1" fill="#FFFFFF" fill-rule="nonzero" /><path id="167" transform="matrix(1 0 0 -1 0 792)" d="M666.067 628.502L804.874 628.502L804.874 628.502L804.874 641.6475L804.874 641.6475L666.067 641.6475z" stroke="#FFFFFF" stroke-width="1" fill="#FFFFFF" fill-rule="nonzero" /><path id="185" transform="matrix(1 0 0 -1 0 792)" d="M666.067 610.469L806.369 610.469L806.369 610.469L806.369 623.6145L806.369 623.6145L666.067 623.6145z" stroke="#FFFFFF" stroke-width="1" fill="#FFFFFF" fill-rule="nonzero" /><path id="247" transform="matrix(1 0 0 -1 0 792)" d="M54.067 721.28L520.722 721.28" stroke="#000000" stroke-width="0.498" fill="none" /></g></g></svg>