<svg xmlns="http://www.w3.org/2000/svg" xmlns:xlink="http://www.w3.org/1999/xlink" id="body_35" preserveAspectRatio="xMinYMin meet" viewBox="0 0 1632 1056"><defs><clipPath id="1"><path id="" clip-rule="evenodd" transform="matrix(1 0 0 1 0 0)" d="M0 792L0 0L0 0L1224 0L1224 0L1224 792L1224 792L0 792z" /></clipPath></defs><g transform="matrix(1.333333 0 0 1.333333 0 0)"><g clip-path="url(#1)"><path id="1" transform="matrix(1 0 0 -1 0 792)" d="M701.933 721.28L1168.588 721.28" stroke="#000000" stroke-width="0.498" fill="none" /><path id="2" transform="matrix(1 0 0 -1 0 792)" d="M742.795 696.423L1127.726 696.423" stroke="#000000" stroke-width="0.398" fill="none" /><path id="3" transform="matrix(1 0 0 -1 0 792)" d="M742.795 696.423L1127.726 696.423" stroke="#000000" stroke-width="0.398" fill="none" /><path id="4" transform="matrix(1 0 0 -1 0 792)" d="M742.994 682.658L742.994 696.225" stroke="#000000" stroke-width="0.398" fill="none" /><path id="5" transform="matrix(1 0 0 -1 0 792)" d="M743.193 682.658L1071.948 682.658L1071.948 696.225L743.193 696.225z" stroke="none" fill="#CCCCEB" fill-rule="nonzero" /><path id="15" transform="matrix(1 0 0 -1 0 792)" d="M1072.147 682.658L1072.147 696.225" stroke="#000000" stroke-width="0.398" fill="none" /><path id="16" transform="matrix(1 0 0 -1 0 792)" d="M1072.347 682.658L1127.327 682.658L1127.327 696.225L1072.347 696.225z" stroke="none" fill="#CCCCEB" fill-rule="nonzero" /><path id="23" transform="matrix(1 0 0 -1 0 792)" d="M1127.526 682.658L1127.526 696.225" stroke="#000000" stroke-width="0.398" fill="none" /><path id="24" transform="matrix(1 0 0 -1 0 792)" d="M742.795 682.458L1127.726 682.458" stroke="#000000" stroke-width="0.398" fill="none" /><path id="25" transform="matrix(1 0 0 -1 0 792)" d="M742.795 682.458L1127.726 682.458" stroke="#000000" stroke-width="0.398" fill="none" /><path id="26" transform="matrix(1 0 0 -1 0 792)" d="M742.795 682.06L1127.726 682.06" stroke="#000000" stroke-width="0.398" fill="none" /><path id="27" transform="matrix(1 0 0 -1 0 792)" d="M742.795 682.06L1127.726 682.06" stroke="#000000" stroke-width="0.398" fill="none" /><path id="28" transform="matrix(1 0 0 -1 0 792)" d="M742.795 682.06L1127.726 682.06" stroke="#000000" stroke-width="0.398" fill="none" /><path id="29" transform="matrix(1 0 0 -1 0 792)" d="M742.994 668.294L742.994 681.861" stroke="#000000" stroke-width="0.398" fill="none" /><path id="75" transform="matrix(1 0 0 -1 0 792)" d="M1072.147 668.294L1072.147 681.861" stroke="#000000" stroke-width="0.398" fill="none" /><path id="77" transform="matrix(1 0 0 -1 0 792)" d="M1127.526 668.294L1127.526 681.861" stroke="#000000" stroke-width="0.398" fill="none" /><path id="78" transform="matrix(1 0 0 -1 0 792)" d="M742.795 668.095L1127.726 668.095" stroke="#000000" stroke-width="0.398" fill="none" /><path id="79" transform="matrix(1 0 0 -1 0 792)" d="M742.795 668.095L1127.726 668.095" stroke="#000000" stroke-width="0.398" fill="none" /><path id="80" transform="matrix(1 0 0 -1 0 792)" d="M742.994 654.346L742.994 667.895" stroke="#000000" stroke-width="0.398" fill="none" /><path id="81" transform="matrix(1 0 0 -1 0 792)" d="M1127.526 654.346L1127.526 667.895" stroke="#000000" stroke-width="0.398" fill="none" /><path id="82" transform="matrix(1 0 0 -1 0 792)" d="M742.795 654.147L1127.726 654.147" stroke="#000000" stroke-width="0.398" fill="none" /><path id="83" transform="matrix(1 0 0 -1 0 792)" d="M742.795 654.147L1127.726 654.147" stroke="#000000" stroke-width="0.398" fill="none" /><path id="84" transform="matrix(1 0 0 -1 0 792)" d="M742.994 640.381L742.994 653.948" stroke="#000000" stroke-width="0.398" fill="none" /><path id="110" transform="matrix(1 0 0 -1 0 792)" d="M876.492 644.663L879.481 644.663" stroke="#000000" stroke-width="0.398" fill="none" /><path id="120" transform="matrix(1 0 0 -1 0 792)" d="M1072.147 640.381L1072.147 653.948" stroke="#000000" stroke-width="0.398" fill="none" /><path id="122" transform="matrix(1 0 0 -1 0 792)" d="M1127.526 640.381L1127.526 653.948" stroke="#000000" stroke-width="0.398" fill="none" /><path id="123" transform="matrix(1 0 0 -1 0 792)" d="M742.795 640.182L1127.726 640.182" stroke="#000000" stroke-width="0.398" fill="none" /><path id="124" transform="matrix(1 0 0 -1 0 792)" d="M742.795 640.182L1127.726 640.182" stroke="#000000" stroke-width="0.398" fill="none" /><path id="125" transform="matrix(1 0 0 -1 0 792)" d="M742.994 626.416L742.994 639.983" stroke="#000000" stroke-width="0.398" fill="none" /><path id="151" transform="matrix(1 0 0 -1 0 792)" d="M876.492 630.697L879.481 630.697" stroke="#000000" stroke-width="0.398" fill="none" /><path id="157" transform="matrix(1 0 0 -1 0 792)" d="M909.967 630.697L912.956 630.697" stroke="#000000" stroke-width="0.398" fill="none" /><path id="160" transform="matrix(1 0 0 -1 0 792)" d="M925.509 630.697L928.498 630.697" stroke="#000000" stroke-width="0.398" fill="none" /><path id="170" transform="matrix(1 0 0 -1 0 792)" d="M1072.147 626.416L1072.147 639.983" stroke="#000000" stroke-width="0.398" fill="none" /><path id="172" transform="matrix(1 0 0 -1 0 792)" d="M1127.526 626.416L1127.526 639.983" stroke="#000000" stroke-width="0.398" fill="none" /><path id="173" transform="matrix(1 0 0 -1 0 792)" d="M742.795 626.217L1127.726 626.217" stroke="#000000" stroke-width="0.398" fill="none" /><path id="174" transform="matrix(1 0 0 -1 0 792)" d="M742.795 626.217L1127.726 626.217" stroke="#000000" stroke-width="0.398" fill="none" /><path id="175" transform="matrix(1 0 0 -1 0 792)" d="M742.994 612.451L742.994 626.018" stroke="#000000" stroke-width="0.398" fill="none" /><path id="201" transform="matrix(1 0 0 -1 0 792)" d="M876.492 616.732L879.481 616.732" stroke="#000000" stroke-width="0.398" fill="none" /><path id="207" transform="matrix(1 0 0 -1 0 792)" d="M909.967 616.732L912.956 616.732" stroke="#000000" stroke-width="0.398" fill="none" /><path id="210" transform="matrix(1 0 0 -1 0 792)" d="M925.509 616.732L928.498 616.732" stroke="#000000" stroke-width="0.398" fill="none" /><path id="215" transform="matrix(1 0 0 -1 0 792)" d="M1072.147 612.451L1072.147 626.018" stroke="#000000" stroke-width="0.398" fill="none" /><path id="217" transform="matrix(1 0 0 -1 0 792)" d="M1127.526 612.451L1127.526 626.018" stroke="#000000" stroke-width="0.398" fill="none" /><path id="218" transform="matrix(1 0 0 -1 0 792)" d="M742.795 612.251L1127.726 612.251" stroke="#000000" stroke-width="0.398" fill="none" /><path id="219" transform="matrix(1 0 0 -1 0 792)" d="M742.795 612.251L1127.726 612.251" stroke="#000000" stroke-width="0.398" fill="none" /><path id="220" transform="matrix(1 0 0 -1 0 792)" d="M742.994 598.486L742.994 612.053" stroke="#000000" stroke-width="0.398" fill="none" /><path id="266" transform="matrix(1 0 0 -1 0 792)" d="M1072.147 598.486L1072.147 612.053" stroke="#000000" stroke-width="0.398" fill="none" /><path id="268" transform="matrix(1 0 0 -1 0 792)" d="M1127.526 598.486L1127.526 612.053" stroke="#000000" stroke-width="0.398" fill="none" /><path id="269" transform="matrix(1 0 0 -1 0 792)" d="M742.795 598.286L1127.726 598.286" stroke="#000000" stroke-width="0.398" fill="none" /><path id="270" transform="matrix(1 0 0 -1 0 792)" d="M742.795 598.286L1127.726 598.286" stroke="#000000" stroke-width="0.398" fill="none" /><path id="271" transform="matrix(1 0 0 -1 0 792)" d="M742.994 584.538L742.994 598.087" stroke="#000000" stroke-width="0.398" fill="none" /><path id="272" transform="matrix(1 0 0 -1 0 792)" d="M1127.526 584.538L1127.526 598.087" stroke="#000000" stroke-width="0.398" fill="none" /><path id="273" transform="matrix(1 0 0 -1 0 792)" d="M742.795 584.339L1127.726 584.339" stroke="#000000" stroke-width="0.398" fill="none" /><path id="274" transform="matrix(1 0 0 -1 0 792)" d="M742.795 584.339L1127.726 584.339" stroke="#000000" stroke-width="0.398" fill="none" /><path id="275" transform="matrix(1 0 0 -1 0 792)" d="M742.994 570.573L742.994 584.14" stroke="#000000" stroke-width="0.398" fill="none" /><path id="300" transform="matrix(1 0 0 -1 0 792)" d="M870.515 574.854L873.504 574.854" stroke="#000000" stroke-width="0.398" fill="none" /><path id="306" transform="matrix(1 0 0 -1 0 792)" d="M1072.147 570.573L1072.147 584.14" stroke="#000000" stroke-width="0.398" fill="none" /><path id="308" transform="matrix(1 0 0 -1 0 792)" d="M1127.526 570.573L1127.526 584.14" stroke="#000000" stroke-width="0.398" fill="none" /><path id="309" transform="matrix(1 0 0 -1 0 792)" d="M742.795 570.374L1127.726 570.374" stroke="#000000" stroke-width="0.398" fill="none" /><path id="310" transform="matrix(1 0 0 -1 0 792)" d="M742.795 570.374L1127.726 570.374" stroke="#000000" stroke-width="0.398" fill="none" /><path id="311" transform="matrix(1 0 0 -1 0 792)" d="M742.994 556.608L742.994 570.175" stroke="#000000" stroke-width="0.398" fill="none" /><path id="345" transform="matrix(1 0 0 -1 0 792)" d="M1072.147 556.608L1072.147 570.175" stroke="#000000" stroke-width="0.398" fill="none" /><path id="347" transform="matrix(1 0 0 -1 0 792)" d="M1127.526 556.608L1127.526 570.175" stroke="#000000" stroke-width="0.398" fill="none" /><path id="348" transform="matrix(1 0 0 -1 0 792)" d="M742.795 556.408L1127.726 556.408" stroke="#000000" stroke-width="0.398" fill="none" /><path id="349" transform="matrix(1 0 0 -1 0 792)" d="M742.795 556.408L1127.726 556.408" stroke="#000000" stroke-width="0.398" fill="none" /><path id="350" transform="matrix(1 0 0 -1 0 792)" d="M742.994 542.66L742.994 556.209" stroke="#000000" stroke-width="0.398" fill="none" /><path id="351" transform="matrix(1 0 0 -1 0 792)" d="M1127.526 542.66L1127.526 556.209" stroke="#000000" stroke-width="0.398" fill="none" /><path id="352" transform="matrix(1 0 0 -1 0 792)" d="M742.795 542.461L1127.726 542.461" stroke="#000000" stroke-width="0.398" fill="none" /><path id="353" transform="matrix(1 0 0 -1 0 792)" d="M742.795 542.461L1127.726 542.461" stroke="#000000" stroke-width="0.398" fill="none" /><path id="354" transform="matrix(1 0 0 -1 0 792)" d="M742.994 528.695L742.994 542.262" stroke="#000000" stroke-width="0.398" fill="none" /><path id="381" transform="matrix(1 0 0 -1 0 792)" d="M882.47 532.976L885.459 532.976" stroke="#000000" stroke-width="0.398" fill="none" /><path id="387" transform="matrix(1 0 0 -1 0 792)" d="M1072.147 528.695L1072.147 542.262" stroke="#000000" stroke-width="0.398" fill="none" /><path id="389" transform="matrix(1 0 0 -1 0 792)" d="M1127.526 528.695L1127.526 542.262" stroke="#000000" stroke-width="0.398" fill="none" /><path id="390" transform="matrix(1 0 0 -1 0 792)" d="M742.795 528.496L1127.726 528.496" stroke="#000000" stroke-width="0.398" fill="none" /><path id="391" transform="matrix(1 0 0 -1 0 792)" d="M742.795 528.496L1127.726 528.496" stroke="#000000" stroke-width="0.398" fill="none" /><path id="392" transform="matrix(1 0 0 -1 0 792)" d="M742.994 514.73L742.994 528.297" stroke="#000000" stroke-width="0.398" fill="none" /><path id="434" transform="matrix(1 0 0 -1 0 792)" d="M1072.147 514.73L1072.147 528.297" stroke="#000000" stroke-width="0.398" fill="none" /><path id="436" transform="matrix(1 0 0 -1 0 792)" d="M1127.526 514.73L1127.526 528.297" stroke="#000000" stroke-width="0.398" fill="none" /><path id="437" transform="matrix(1 0 0 -1 0 792)" d="M742.795 514.53L1127.726 514.53" stroke="#000000" stroke-width="0.398" fill="none" /><path id="438" transform="matrix(1 0 0 -1 0 792)" d="M742.795 514.53L1127.726 514.53" stroke="#000000" stroke-width="0.398" fill="none" /><path id="439" transform="matrix(1 0 0 -1 0 792)" d="M742.994 487.233L742.994 514.331" stroke="#000000" stroke-width="0.398" fill="none" /><path id="498" transform="matrix(1 0 0 -1 0 792)" d="M1072.147 487.233L1072.147 514.331" stroke="#000000" stroke-width="0.398" fill="none" /><path id="500" transform="matrix(1 0 0 -1 0 792)" d="M1127.526 487.233L1127.526 514.331" stroke="#000000" stroke-width="0.398" fill="none" /><path id="501" transform="matrix(1 0 0 -1 0 792)" d="M742.795 487.034L1127.726 487.034" stroke="#000000" stroke-width="0.398" fill="none" /><path id="502" transform="matrix(1 0 0 -1 0 792)" d="M742.795 487.034L1127.726 487.034" stroke="#000000" stroke-width="0.398" fill="none" /><path id="503" transform="matrix(1 0 0 -1 0 792)" d="M742.994 473.268L742.994 486.835" stroke="#000000" stroke-width="0.398" fill="none" /><path id="547" transform="matrix(1 0 0 -1 0 792)" d="M1072.147 473.268L1072.147 486.835" stroke="#000000" stroke-width="0.398" fill="none" /><path id="549" transform="matrix(1 0 0 -1 0 792)" d="M1127.526 473.268L1127.526 486.835" stroke="#000000" stroke-width="0.398" fill="none" /><path id="550" transform="matrix(1 0 0 -1 0 792)" d="M742.795 473.068L1127.726 473.068" stroke="#000000" stroke-width="0.398" fill="none" /><path id="551" transform="matrix(1 0 0 -1 0 792)" d="M742.795 473.068L1127.726 473.068" stroke="#000000" stroke-width="0.398" fill="none" /><path id="552" transform="matrix(1 0 0 -1 0 792)" d="M742.994 445.771L742.994 472.869" stroke="#000000" stroke-width="0.398" fill="none" /><path id="613" transform="matrix(1 0 0 -1 0 792)" d="M1072.147 445.771L1072.147 472.869" stroke="#000000" stroke-width="0.398" fill="none" /><path id="615" transform="matrix(1 0 0 -1 0 792)" d="M1127.526 445.771L1127.526 472.869" stroke="#000000" stroke-width="0.398" fill="none" /><path id="616" transform="matrix(1 0 0 -1 0 792)" d="M742.795 445.571L1127.726 445.571" stroke="#000000" stroke-width="0.398" fill="none" /><path id="617" transform="matrix(1 0 0 -1 0 792)" d="M742.795 445.571L1127.726 445.571" stroke="#000000" stroke-width="0.398" fill="none" /><path id="618" transform="matrix(1 0 0 -1 0 792)" d="M742.994 431.823L742.994 445.372" stroke="#000000" stroke-width="0.398" fill="none" /><path id="619" transform="matrix(1 0 0 -1 0 792)" d="M1127.526 431.823L1127.526 445.372" stroke="#000000" stroke-width="0.398" fill="none" /><path id="620" transform="matrix(1 0 0 -1 0 792)" d="M742.795 431.624L1127.726 431.624" stroke="#000000" stroke-width="0.398" fill="none" /><path id="621" transform="matrix(1 0 0 -1 0 792)" d="M742.795 431.624L1127.726 431.624" stroke="#000000" stroke-width="0.398" fill="none" /><path id="622" transform="matrix(1 0 0 -1 0 792)" d="M742.994 417.858L742.994 431.425" stroke="#000000" stroke-width="0.398" fill="none" /><path id="647" transform="matrix(1 0 0 -1 0 792)" d="M870.515 422.139L873.504 422.139" stroke="#000000" stroke-width="0.398" fill="none" /><path id="653" transform="matrix(1 0 0 -1 0 792)" d="M1072.147 417.858L1072.147 431.425" stroke="#000000" stroke-width="0.398" fill="none" /><path id="655" transform="matrix(1 0 0 -1 0 792)" d="M1127.526 417.858L1127.526 431.425" stroke="#000000" stroke-width="0.398" fill="none" /><path id="656" transform="matrix(1 0 0 -1 0 792)" d="M742.795 417.659L1127.726 417.659" stroke="#000000" stroke-width="0.398" fill="none" /><path id="657" transform="matrix(1 0 0 -1 0 792)" d="M742.795 417.659L1127.726 417.659" stroke="#000000" stroke-width="0.398" fill="none" /><path id="658" transform="matrix(1 0 0 -1 0 792)" d="M742.994 403.893L742.994 417.46" stroke="#000000" stroke-width="0.398" fill="none" /><path id="682" transform="matrix(1 0 0 -1 0 792)" d="M1072.147 403.893L1072.147 417.46" stroke="#000000" stroke-width="0.398" fill="none" /><path id="684" transform="matrix(1 0 0 -1 0 792)" d="M1127.526 403.893L1127.526 417.46" stroke="#000000" stroke-width="0.398" fill="none" /><path id="685" transform="matrix(1 0 0 -1 0 792)" d="M742.795 403.694L1127.726 403.694" stroke="#000000" stroke-width="0.398" fill="none" /><path id="686" transform="matrix(1 0 0 -1 0 792)" d="M742.795 403.694L1127.726 403.694" stroke="#000000" stroke-width="0.398" fill="none" /><path id="687" transform="matrix(1 0 0 -1 0 792)" d="M742.994 389.945L742.994 403.494" stroke="#000000" stroke-width="0.398" fill="none" /><path id="688" transform="matrix(1 0 0 -1 0 792)" d="M1127.526 389.945L1127.526 403.494" stroke="#000000" stroke-width="0.398" fill="none" /><path id="689" transform="matrix(1 0 0 -1 0 792)" d="M742.795 389.746L1127.726 389.746" stroke="#000000" stroke-width="0.398" fill="none" /><path id="690" transform="matrix(1 0 0 -1 0 792)" d="M742.795 389.746L1127.726 389.746" stroke="#000000" stroke-width="0.398" fill="none" /><path id="691" transform="matrix(1 0 0 -1 0 792)" d="M742.994 375.98L742.994 389.547" stroke="#000000" stroke-width="0.398" fill="none" /><path id="717" transform="matrix(1 0 0 -1 0 792)" d="M1072.147 375.98L1072.147 389.547" stroke="#000000" stroke-width="0.398" fill="none" /><path id="719" transform="matrix(1 0 0 -1 0 792)" d="M1127.526 375.98L1127.526 389.547" stroke="#000000" stroke-width="0.398" fill="none" /><path id="720" transform="matrix(1 0 0 -1 0 792)" d="M742.795 375.781L1127.726 375.781" stroke="#000000" stroke-width="0.398" fill="none" /><path id="721" transform="matrix(1 0 0 -1 0 792)" d="M742.795 375.781L1127.726 375.781" stroke="#000000" stroke-width="0.398" fill="none" /><path id="722" transform="matrix(1 0 0 -1 0 792)" d="M742.994 362.015L742.994 375.582" stroke="#000000" stroke-width="0.398" fill="none" /><path id="761" transform="matrix(1 0 0 -1 0 792)" d="M1072.147 362.015L1072.147 375.582" stroke="#000000" stroke-width="0.398" fill="none" /><path id="763" transform="matrix(1 0 0 -1 0 792)" d="M1127.526 362.015L1127.526 375.582" stroke="#000000" stroke-width="0.398" fill="none" /><path id="764" transform="matrix(1 0 0 -1 0 792)" d="M742.795 361.816L1127.726 361.816" stroke="#000000" stroke-width="0.398" fill="none" /><path id="765" transform="matrix(1 0 0 -1 0 792)" d="M742.795 361.816L1127.726 361.816" stroke="#000000" stroke-width="0.398" fill="none" /><path id="766" transform="matrix(1 0 0 -1 0 792)" d="M742.994 334.518L742.994 361.616" stroke="#000000" stroke-width="0.398" fill="none" /><path id="837" transform="matrix(1 0 0 -1 0 792)" d="M1072.147 334.518L1072.147 361.616" stroke="#000000" stroke-width="0.398" fill="none" /><path id="839" transform="matrix(1 0 0 -1 0 792)" d="M1127.526 334.518L1127.526 361.616" stroke="#000000" stroke-width="0.398" fill="none" /><path id="840" transform="matrix(1 0 0 -1 0 792)" d="M742.795 334.319L1127.726 334.319" stroke="#000000" stroke-width="0.398" fill="none" /><path id="841" transform="matrix(1 0 0 -1 0 792)" d="M742.795 334.319L1127.726 334.319" stroke="#000000" stroke-width="0.398" fill="none" /><path id="842" transform="matrix(1 0 0 -1 0 792)" d="M742.994 320.553L742.994 334.12" stroke="#000000" stroke-width="0.398" fill="none" /><path id="870" transform="matrix(1 0 0 -1 0 792)" d="M1072.147 320.553L1072.147 334.12" stroke="#000000" stroke-width="0.398" fill="none" /><path id="873" transform="matrix(1 0 0 -1 0 792)" d="M1127.526 320.553L1127.526 334.12" stroke="#000000" stroke-width="0.398" fill="none" /><path id="874" transform="matrix(1 0 0 -1 0 792)" d="M742.795 320.354L1127.726 320.354" stroke="#000000" stroke-width="0.398" fill="none" /><path id="875" transform="matrix(1 0 0 -1 0 792)" d="M742.795 320.354L1127.726 320.354" stroke="#000000" stroke-width="0.398" fill="none" /><path id="876" transform="matrix(1 0 0 -1 0 792)" d="M742.994 306.588L742.994 320.155" stroke="#000000" stroke-width="0.398" fill="none" /><path id="929" transform="matrix(1 0 0 -1 0 792)" d="M1072.147 306.588L1072.147 320.155" stroke="#000000" stroke-width="0.398" fill="none" /><path id="932" transform="matrix(1 0 0 -1 0 792)" d="M1127.526 306.588L1127.526 320.155" stroke="#000000" stroke-width="0.398" fill="none" /><path id="933" transform="matrix(1 0 0 -1 0 792)" d="M742.795 306.388L1127.726 306.388" stroke="#000000" stroke-width="0.398" fill="none" /><path id="934" transform="matrix(1 0 0 -1 0 792)" d="M742.795 306.388L1127.726 306.388" stroke="#000000" stroke-width="0.398" fill="none" /><path id="935" transform="matrix(1 0 0 -1 0 792)" d="M742.994 279.091L742.994 306.189" stroke="#000000" stroke-width="0.398" fill="none" /><path id="996" transform="matrix(1 0 0 -1 0 792)" d="M1072.147 279.091L1072.147 306.189" stroke="#000000" stroke-width="0.398" fill="none" /><path id="998" transform="matrix(1 0 0 -1 0 792)" d="M1127.526 279.091L1127.526 306.189" stroke="#000000" stroke-width="0.398" fill="none" /><path id="999" transform="matrix(1 0 0 -1 0 792)" d="M742.795 278.891L1127.726 278.891" stroke="#000000" stroke-width="0.398" fill="none" /><path id="1000" transform="matrix(1 0 0 -1 0 792)" d="M742.795 278.891L1127.726 278.891" stroke="#000000" stroke-width="0.398" fill="none" /><path id="1001" transform="matrix(1 0 0 -1 0 792)" d="M742.994 265.143L742.994 278.692" stroke="#000000" stroke-width="0.398" fill="none" /><path id="1002" transform="matrix(1 0 0 -1 0 792)" d="M1127.526 265.143L1127.526 278.692" stroke="#000000" stroke-width="0.398" fill="none" /><path id="1003" transform="matrix(1 0 0 -1 0 792)" d="M742.795 264.944L1127.726 264.944" stroke="#000000" stroke-width="0.398" fill="none" /><path id="1004" transform="matrix(1 0 0 -1 0 792)" d="M742.795 264.944L1127.726 264.944" stroke="#000000" stroke-width="0.398" fill="none" /><path id="1005" transform="matrix(1 0 0 -1 0 792)" d="M742.994 251.178L742.994 264.745" stroke="#000000" stroke-width="0.398" fill="none" /><path id="1032" transform="matrix(1 0 0 -1 0 792)" d="M1072.147 251.178L1072.147 264.745" stroke="#000000" stroke-width="0.398" fill="none" /><path id="1034" transform="matrix(1 0 0 -1 0 792)" d="M1127.526 251.178L1127.526 264.745" stroke="#000000" stroke-width="0.398" fill="none" /><path id="1035" transform="matrix(1 0 0 -1 0 792)" d="M742.795 250.979L1127.726 250.979" stroke="#000000" stroke-width="0.398" fill="none" /><path id="1036" transform="matrix(1 0 0 -1 0 792)" d="M742.795 250.979L1127.726 250.979" stroke="#000000" stroke-width="0.398" fill="none" /><path id="1037" transform="matrix(1 0 0 -1 0 792)" d="M742.994 237.23L742.994 250.779" stroke="#000000" stroke-width="0.398" fill="none" /><path id="1038" transform="matrix(1 0 0 -1 0 792)" d="M1127.526 237.23L1127.526 250.779" stroke="#000000" stroke-width="0.398" fill="none" /><path id="1039" transform="matrix(1 0 0 -1 0 792)" d="M742.795 237.031L1127.726 237.031" stroke="#000000" stroke-width="0.398" fill="none" /><path id="1040" transform="matrix(1 0 0 -1 0 792)" d="M742.795 237.031L1127.726 237.031" stroke="#000000" stroke-width="0.398" fill="none" /><path id="1041" transform="matrix(1 0 0 -1 0 792)" d="M742.994 223.265L742.994 236.832" stroke="#000000" stroke-width="0.398" fill="none" /><path id="1066" transform="matrix(1 0 0 -1 0 792)" d="M870.515 227.547L873.504 227.547" stroke="#000000" stroke-width="0.398" fill="none" /><path id="1072" transform="matrix(1 0 0 -1 0 792)" d="M903.989 227.547L906.978 227.547" stroke="#000000" stroke-width="0.398" fill="none" /><path id="1076" transform="matrix(1 0 0 -1 0 792)" d="M1072.147 223.265L1072.147 236.832" stroke="#000000" stroke-width="0.398" fill="none" /><path id="1078" transform="matrix(1 0 0 -1 0 792)" d="M1127.526 223.265L1127.526 236.832" stroke="#000000" stroke-width="0.398" fill="none" /><path id="1079" transform="matrix(1 0 0 -1 0 792)" d="M742.795 223.066L1127.726 223.066" stroke="#000000" stroke-width="0.398" fill="none" /><path id="1080" transform="matrix(1 0 0 -1 0 792)" d="M742.795 223.066L1127.726 223.066" stroke="#000000" stroke-width="0.398" fill="none" /><path id="1081" transform="matrix(1 0 0 -1 0 792)" d="M742.994 209.317L742.994 222.866" stroke="#000000" stroke-width="0.398" fill="none" /><path id="1082" transform="matrix(1 0 0 -1 0 792)" d="M1127.526 209.317L1127.526 222.866" stroke="#000000" stroke-width="0.398" fill="none" /><path id="1083" transform="matrix(1 0 0 -1 0 792)" d="M742.795 209.118L1127.726 209.118" stroke="#000000" stroke-width="0.398" fill="none" /><path id="1084" transform="matrix(1 0 0 -1 0 792)" d="M742.795 209.118L1127.726 209.118" stroke="#000000" stroke-width="0.398" fill="none" /><path id="1085" transform="matrix(1 0 0 -1 0 792)" d="M742.994 195.352L742.994 208.919" stroke="#000000" stroke-width="0.398" fill="none" /><path id="1110" transform="matrix(1 0 0 -1 0 792)" d="M870.515 199.634L873.504 199.634" stroke="#000000" stroke-width="0.398" fill="none" /><path id="1116" transform="matrix(1 0 0 -1 0 792)" d="M903.989 199.634L906.978 199.634" stroke="#000000" stroke-width="0.398" fill="none" /><path id="1120" transform="matrix(1 0 0 -1 0 792)" d="M1072.147 195.352L1072.147 208.919" stroke="#000000" stroke-width="0.398" fill="none" /><path id="1122" transform="matrix(1 0 0 -1 0 792)" d="M1127.526 195.352L1127.526 208.919" stroke="#000000" stroke-width="0.398" fill="none" /><path id="1123" transform="matrix(1 0 0 -1 0 792)" d="M742.795 195.153L1127.726 195.153" stroke="#000000" stroke-width="0.398" fill="none" /><path id="1124" transform="matrix(1 0 0 -1 0 792)" d="M742.795 195.153L1127.726 195.153" stroke="#000000" stroke-width="0.398" fill="none" /><path id="1125" transform="matrix(1 0 0 -1 0 792)" d="M742.994 181.387L742.994 194.954" stroke="#000000" stroke-width="0.398" fill="none" /><path id="1149" transform="matrix(1 0 0 -1 0 792)" d="M1072.147 181.387L1072.147 194.954" stroke="#000000" stroke-width="0.398" fill="none" /><path id="1151" transform="matrix(1 0 0 -1 0 792)" d="M1127.526 181.387L1127.526 194.954" stroke="#000000" stroke-width="0.398" fill="none" /><path id="1152" transform="matrix(1 0 0 -1 0 792)" d="M742.795 181.188L1127.726 181.188" stroke="#000000" stroke-width="0.398" fill="none" /><path id="1153" transform="matrix(1 0 0 -1 0 792)" d="M742.795 181.188L1127.726 181.188" stroke="#000000" stroke-width="0.398" fill="none" /><path id="1154" transform="matrix(1 0 0 -1 0 792)" d="M742.994 167.439L742.994 180.988" stroke="#000000" stroke-width="0.398" fill="none" /><path id="1155" transform="matrix(1 0 0 -1 0 792)" d="M1127.526 167.439L1127.526 180.988" stroke="#000000" stroke-width="0.398" fill="none" /><path id="1156" transform="matrix(1 0 0 -1 0 792)" d="M742.795 167.24L1127.726 167.24" stroke="#000000" stroke-width="0.398" fill="none" /><path id="1157" transform="matrix(1 0 0 -1 0 792)" d="M742.795 167.24L1127.726 167.24" stroke="#000000" stroke-width="0.398" fill="none" /><path id="1158" transform="matrix(1 0 0 -1 0 792)" d="M742.994 153.474L742.994 167.041" stroke="#000000" stroke-width="0.398" fill="none" /><path id="1192" transform="matrix(1 0 0 -1 0 792)" d="M1072.147 153.474L1072.147 167.041" stroke="#000000" stroke-width="0.398" fill="none" /><path id="1194" transform="matrix(1 0 0 -1 0 792)" d="M1127.526 153.474L1127.526 167.041" stroke="#000000" stroke-width="0.398" fill="none" /><path id="1195" transform="matrix(1 0 0 -1 0 792)" d="M742.795 153.275L1127.726 153.275" stroke="#000000" stroke-width="0.398" fill="none" /><path id="1196" transform="matrix(1 0 0 -1 0 792)" d="M742.795 153.275L1127.726 153.275" stroke="#000000" stroke-width="0.398" fill="none" /><path id="1197" transform="matrix(1 0 0 -1 0 792)" d="M742.994 139.509L742.994 153.076" stroke="#000000" stroke-width="0.398" fill="none" /><path id="1222" transform="matrix(1 0 0 -1 0 792)" d="M1072.147 139.509L1072.147 153.076" stroke="#000000" stroke-width="0.398" fill="none" /><path id="1224" transform="matrix(1 0 0 -1 0 792)" d="M1127.526 139.509L1127.526 153.076" stroke="#000000" stroke-width="0.398" fill="none" /><path id="1225" transform="matrix(1 0 0 -1 0 792)" d="M742.795 139.31L1127.726 139.31" stroke="#000000" stroke-width="0.398" fill="none" /><path id="1226" transform="matrix(1 0 0 -1 0 792)" d="M742.795 139.31L1127.726 139.31" stroke="#000000" stroke-width="0.398" fill="none" /><path id="1227" transform="matrix(1 0 0 -1 0 792)" d="M742.994 125.544L742.994 139.111" stroke="#000000" stroke-width="0.398" fill="none" /><path id="1259" transform="matrix(1 0 0 -1 0 792)" d="M1072.147 125.544L1072.147 139.111" stroke="#000000" stroke-width="0.398" fill="none" /><path id="1261" transform="matrix(1 0 0 -1 0 792)" d="M1127.526 125.544L1127.526 139.111" stroke="#000000" stroke-width="0.398" fill="none" /><path id="1262" transform="matrix(1 0 0 -1 0 792)" d="M742.795 125.345L1127.726 125.345" stroke="#000000" stroke-width="0.398" fill="none" /><path id="1263" transform="matrix(1 0 0 -1 0 792)" d="M742.795 125.345L1127.726 125.345" stroke="#000000" stroke-width="0.398" fill="none" /><path id="1264" transform="matrix(1 0 0 -1 0 792)" d="M742.994 111.579L742.994 125.146" stroke="#000000" stroke-width="0.398" fill="none" /><path id="1299" transform="matrix(1 0 0 -1 0 792)" d="M1072.147 111.579L1072.147 125.146" stroke="#000000" stroke-width="0.398" fill="none" /><path id="1301" transform="matrix(1 0 0 -1 0 792)" d="M1127.526 111.579L1127.526 125.146" stroke="#000000" stroke-width="0.398" fill="none" /><path id="1302" transform="matrix(1 0 0 -1 0 792)" d="M742.795 111.38L1127.726 111.38" stroke="#000000" stroke-width="0.398" fill="none" /><path id="1303" transform="matrix(1 0 0 -1 0 792)" d="M742.795 111.38L1127.726 111.38" stroke="#000000" stroke-width="0.398" fill="none" /><path id="1304" transform="matrix(1 0 0 -1 0 792)" d="M701.933 722.529L1168.588 722.529L1168.588 722.529L1168.588 735.6745L1168.588 735.6745L701.933 735.6745z" stroke="#FFFFFF" stroke-width="1" fill="#FFFFFF" fill-rule="nonzero" /><path id="1317" transform="matrix(1 0 0 -1 0 792)" d="M729.206 64.4056L1168.586 64.4056L1168.586 64.4056L1168.586 100.6494L1168.586 100.6494L729.206 100.6494z" stroke="#FFFFFF" stroke-width="1" fill="#FFFFFF" fill-rule="nonzero" /><path id="1469" transform="matrix(1 0 0 -1 0 792)" d="M89.933 721.28L556.588 721.28" stroke="#000000" stroke-width="0.498" fill="none" /><path id="1470" transform="matrix(1 0 0 -1 0 792)" d="M130.795 696.423L515.726 696.423" stroke="#000000" stroke-width="0.398" fill="none" /><path id="1471" transform="matrix(1 0 0 -1 0 792)" d="M130.795 696.423L515.726 696.423" stroke="#000000" stroke-width="0.398" fill="none" /><path id="1472" transform="matrix(1 0 0 -1 0 792)" d="M130.994 682.658L130.994 696.225" stroke="#000000" stroke-width="0.398" fill="none" /><path id="1473" transform="matrix(1 0 0 -1 0 792)" d="M131.193 682.658L459.948 682.658L459.948 696.225L131.193 696.225z" stroke="none" fill="#CCCCEB" fill-rule="nonzero" /><path id="1483" transform="matrix(1 0 0 -1 0 792)" d="M460.147 682.658L460.147 696.225" stroke="#000000" stroke-width="0.398" fill="none" /><path id="1484" transform="matrix(1 0 0 -1 0 792)" d="M460.347 682.658L515.327 682.658L515.327 696.225L460.347 696.225z" stroke="none" fill="#CCCCEB" fill-rule="nonzero" /><path id="1491" transform="matrix(1 0 0 -1 0 792)" d="M515.526 682.658L515.526 696.225" stroke="#000000" stroke-width="0.398" fill="none" /><path id="1492" transform="matrix(1 0 0 -1 0 792)" d="M130.795 682.458L515.726 682.458" stroke="#000000" stroke-width="0.398" fill="none" /><path id="1493" transform="matrix(1 0 0 -1 0 792)" d="M130.795 682.458L515.726 682.458" stroke="#000000" stroke-width="0.398" fill="none" /><path id="1494" transform="matrix(1 0 0 -1 0 792)" d="M130.795 682.06L515.726 682.06" stroke="#000000" stroke-width="0.398" fill="none" /><path id="1495" transform="matrix(1 0 0 -1 0 792)" d="M130.795 682.06L515.726 682.06" stroke="#000000" stroke-width="0.398" fill="none" /><path id="1496" transform="matrix(1 0 0 -1 0 792)" d="M130.795 682.06L515.726 682.06" stroke="#000000" stroke-width="0.398" fill="none" /><path id="1497" transform="matrix(1 0 0 -1 0 792)" d="M130.994 668.294L130.994 681.861" stroke="#000000" stroke-width="0.398" fill="none" /><path id="1543" transform="matrix(1 0 0 -1 0 792)" d="M460.147 668.294L460.147 681.861" stroke="#000000" stroke-width="0.398" fill="none" /><path id="1545" transform="matrix(1 0 0 -1 0 792)" d="M515.526 668.294L515.526 681.861" stroke="#000000" stroke-width="0.398" fill="none" /><path id="1546" transform="matrix(1 0 0 -1 0 792)" d="M130.795 668.095L515.726 668.095" stroke="#000000" stroke-width="0.398" fill="none" /><path id="1547" transform="matrix(1 0 0 -1 0 792)" d="M130.795 668.095L515.726 668.095" stroke="#000000" stroke-width="0.398" fill="none" /><path id="1548" transform="matrix(1 0 0 -1 0 792)" d="M130.994 654.346L130.994 667.895" stroke="#000000" stroke-width="0.398" fill="none" /><path id="1549" transform="matrix(1 0 0 -1 0 792)" d="M515.526 654.346L515.526 667.895" stroke="#000000" stroke-width="0.398" fill="none" /><path id="1550" transform="matrix(1 0 0 -1 0 792)" d="M130.795 654.147L515.726 654.147" stroke="#000000" stroke-width="0.398" fill="none" /><path id="1551" transform="matrix(1 0 0 -1 0 792)" d="M130.795 654.147L515.726 654.147" stroke="#000000" stroke-width="0.398" fill="none" /><path id="1552" transform="matrix(1 0 0 -1 0 792)" d="M130.994 640.381L130.994 653.948" stroke="#000000" stroke-width="0.398" fill="none" /><path id="1578" transform="matrix(1 0 0 -1 0 792)" d="M264.492 644.663L267.481 644.663" stroke="#000000" stroke-width="0.398" fill="none" /><path id="1588" transform="matrix(1 0 0 -1 0 792)" d="M460.147 640.381L460.147 653.948" stroke="#000000" stroke-width="0.398" fill="none" /><path id="1590" transform="matrix(1 0 0 -1 0 792)" d="M515.526 640.381L515.526 653.948" stroke="#000000" stroke-width="0.398" fill="none" /><path id="1591" transform="matrix(1 0 0 -1 0 792)" d="M130.795 640.182L515.726 640.182" stroke="#000000" stroke-width="0.398" fill="none" /><path id="1592" transform="matrix(1 0 0 -1 0 792)" d="M130.795 640.182L515.726 640.182" stroke="#000000" stroke-width="0.398" fill="none" /><path id="1593" transform="matrix(1 0 0 -1 0 792)" d="M130.994 626.416L130.994 639.983" stroke="#000000" stroke-width="0.398" fill="none" /><path id="1619" transform="matrix(1 0 0 -1 0 792)" d="M264.492 630.697L267.481 630.697" stroke="#000000" stroke-width="0.398" fill="none" /><path id="1625" transform="matrix(1 0 0 -1 0 792)" d="M297.967 630.697L300.956 630.697" stroke="#000000" stroke-width="0.398" fill="none" /><path id="1628" transform="matrix(1 0 0 -1 0 792)" d="M313.509 630.697L316.498 630.697" stroke="#000000" stroke-width="0.398" fill="none" /><path id="1638" transform="matrix(1 0 0 -1 0 792)" d="M460.147 626.416L460.147 639.983" stroke="#000000" stroke-width="0.398" fill="none" /><path id="1640" transform="matrix(1 0 0 -1 0 792)" d="M515.526 626.416L515.526 639.983" stroke="#000000" stroke-width="0.398" fill="none" /><path id="1641" transform="matrix(1 0 0 -1 0 792)" d="M130.795 626.217L515.726 626.217" stroke="#000000" stroke-width="0.398" fill="none" /><path id="1642" transform="matrix(1 0 0 -1 0 792)" d="M130.795 626.217L515.726 626.217" stroke="#000000" stroke-width="0.398" fill="none" /><path id="1643" transform="matrix(1 0 0 -1 0 792)" d="M130.994 612.451L130.994 626.018" stroke="#000000" stroke-width="0.398" fill="none" /><path id="1669" transform="matrix(1 0 0 -1 0 792)" d="M264.492 616.732L267.481 616.732" stroke="#000000" stroke-width="0.398" fill="none" /><path id="1675" transform="matrix(1 0 0 -1 0 792)" d="M297.967 616.732L300.956 616.732" stroke="#000000" stroke-width="0.398" fill="none" /><path id="1678" transform="matrix(1 0 0 -1 0 792)" d="M313.509 616.732L316.498 616.732" stroke="#000000" stroke-width="0.398" fill="none" /><path id="1683" transform="matrix(1 0 0 -1 0 792)" d="M460.147 612.451L460.147 626.018" stroke="#000000" stroke-width="0.398" fill="none" /><path id="1685" transform="matrix(1 0 0 -1 0 792)" d="M515.526 612.451L515.526 626.018" stroke="#000000" stroke-width="0.398" fill="none" /><path id="1686" transform="matrix(1 0 0 -1 0 792)" d="M130.795 612.251L515.726 612.251" stroke="#000000" stroke-width="0.398" fill="none" /><path id="1687" transform="matrix(1 0 0 -1 0 792)" d="M130.795 612.251L515.726 612.251" stroke="#000000" stroke-width="0.398" fill="none" /><path id="1688" transform="matrix(1 0 0 -1 0 792)" d="M130.994 598.486L130.994 612.053" stroke="#000000" stroke-width="0.398" fill="none" /><path id="1734" transform="matrix(1 0 0 -1 0 792)" d="M460.147 598.486L460.147 612.053" stroke="#000000" stroke-width="0.398" fill="none" /><path id="1736" transform="matrix(1 0 0 -1 0 792)" d="M515.526 598.486L515.526 612.053" stroke="#000000" stroke-width="0.398" fill="none" /><path id="1737" transform="matrix(1 0 0 -1 0 792)" d="M130.795 598.286L515.726 598.286" stroke="#000000" stroke-width="0.398" fill="none" /><path id="1738" transform="matrix(1 0 0 -1 0 792)" d="M130.795 598.286L515.726 598.286" stroke="#000000" stroke-width="0.398" fill="none" /><path id="1739" transform="matrix(1 0 0 -1 0 792)" d="M130.994 584.538L130.994 598.087" stroke="#000000" stroke-width="0.398" fill="none" /><path id="1740" transform="matrix(1 0 0 -1 0 792)" d="M515.526 584.538L515.526 598.087" stroke="#000000" stroke-width="0.398" fill="none" /><path id="1741" transform="matrix(1 0 0 -1 0 792)" d="M130.795 584.339L515.726 584.339" stroke="#000000" stroke-width="0.398" fill="none" /><path id="1742" transform="matrix(1 0 0 -1 0 792)" d="M130.795 584.339L515.726 584.339" stroke="#000000" stroke-width="0.398" fill="none" /><path id="1743" transform="matrix(1 0 0 -1 0 792)" d="M130.994 570.573L130.994 584.14" stroke="#000000" stroke-width="0.398" fill="none" /><path id="1768" transform="matrix(1 0 0 -1 0 792)" d="M258.515 574.854L261.504 574.854" stroke="#000000" stroke-width="0.398" fill="none" /><path id="1774" transform="matrix(1 0 0 -1 0 792)" d="M460.147 570.573L460.147 584.14" stroke="#000000" stroke-width="0.398" fill="none" /><path id="1776" transform="matrix(1 0 0 -1 0 792)" d="M515.526 570.573L515.526 584.14" stroke="#000000" stroke-width="0.398" fill="none" /><path id="1777" transform="matrix(1 0 0 -1 0 792)" d="M130.795 570.374L515.726 570.374" stroke="#000000" stroke-width="0.398" fill="none" /><path id="1778" transform="matrix(1 0 0 -1 0 792)" d="M130.795 570.374L515.726 570.374" stroke="#000000" stroke-width="0.398" fill="none" /><path id="1779" transform="matrix(1 0 0 -1 0 792)" d="M130.994 556.608L130.994 570.175" stroke="#000000" stroke-width="0.398" fill="none" /><path id="1813" transform="matrix(1 0 0 -1 0 792)" d="M460.147 556.608L460.147 570.175" stroke="#000000" stroke-width="0.398" fill="none" /><path id="1815" transform="matrix(1 0 0 -1 0 792)" d="M515.526 556.608L515.526 570.175" stroke="#000000" stroke-width="0.398" fill="none" /><path id="1816" transform="matrix(1 0 0 -1 0 792)" d="M130.795 556.408L515.726 556.408" stroke="#000000" stroke-width="0.398" fill="none" /><path id="1817" transform="matrix(1 0 0 -1 0 792)" d="M130.795 556.408L515.726 556.408" stroke="#000000" stroke-width="0.398" fill="none" /><path id="1818" transform="matrix(1 0 0 -1 0 792)" d="M130.994 542.66L130.994 556.209" stroke="#000000" stroke-width="0.398" fill="none" /><path id="1819" transform="matrix(1 0 0 -1 0 792)" d="M515.526 542.66L515.526 556.209" stroke="#000000" stroke-width="0.398" fill="none" /><path id="1820" transform="matrix(1 0 0 -1 0 792)" d="M130.795 542.461L515.726 542.461" stroke="#000000" stroke-width="0.398" fill="none" /><path id="1821" transform="matrix(1 0 0 -1 0 792)" d="M130.795 542.461L515.726 542.461" stroke="#000000" stroke-width="0.398" fill="none" /><path id="1822" transform="matrix(1 0 0 -1 0 792)" d="M130.994 528.695L130.994 542.262" stroke="#000000" stroke-width="0.398" fill="none" /><path id="1849" transform="matrix(1 0 0 -1 0 792)" d="M270.47 532.976L273.459 532.976" stroke="#000000" stroke-width="0.398" fill="none" /><path id="1855" transform="matrix(1 0 0 -1 0 792)" d="M460.147 528.695L460.147 542.262" stroke="#000000" stroke-width="0.398" fill="none" /><path id="1857" transform="matrix(1 0 0 -1 0 792)" d="M515.526 528.695L515.526 542.262" stroke="#000000" stroke-width="0.398" fill="none" /><path id="1858" transform="matrix(1 0 0 -1 0 792)" d="M130.795 528.496L515.726 528.496" stroke="#000000" stroke-width="0.398" fill="none" /><path id="1859" transform="matrix(1 0 0 -1 0 792)" d="M130.795 528.496L515.726 528.496" stroke="#000000" stroke-width="0.398" fill="none" /><path id="1860" transform="matrix(1 0 0 -1 0 792)" d="M130.994 514.73L130.994 528.297" stroke="#000000" stroke-width="0.398" fill="none" /><path id="1902" transform="matrix(1 0 0 -1 0 792)" d="M460.147 514.73L460.147 528.297" stroke="#000000" stroke-width="0.398" fill="none" /><path id="1904" transform="matrix(1 0 0 -1 0 792)" d="M515.526 514.73L515.526 528.297" stroke="#000000" stroke-width="0.398" fill="none" /><path id="1905" transform="matrix(1 0 0 -1 0 792)" d="M130.795 514.53L515.726 514.53" stroke="#000000" stroke-width="0.398" fill="none" /><path id="1906" transform="matrix(1 0 0 -1 0 792)" d="M130.795 514.53L515.726 514.53" stroke="#000000" stroke-width="0.398" fill="none" /><path id="1907" transform="matrix(1 0 0 -1 0 792)" d="M130.994 487.233L130.994 514.331" stroke="#000000" stroke-width="0.398" fill="none" /><path id="1966" transform="matrix(1 0 0 -1 0 792)" d="M460.147 487.233L460.147 514.331" stroke="#000000" stroke-width="0.398" fill="none" /><path id="1968" transform="matrix(1 0 0 -1 0 792)" d="M515.526 487.233L515.526 514.331" stroke="#000000" stroke-width="0.398" fill="none" /><path id="1969" transform="matrix(1 0 0 -1 0 792)" d="M130.795 487.034L515.726 487.034" stroke="#000000" stroke-width="0.398" fill="none" /><path id="1970" transform="matrix(1 0 0 -1 0 792)" d="M130.795 487.034L515.726 487.034" stroke="#000000" stroke-width="0.398" fill="none" /><path id="1971" transform="matrix(1 0 0 -1 0 792)" d="M130.994 473.268L130.994 486.835" stroke="#000000" stroke-width="0.398" fill="none" /><path id="2015" transform="matrix(1 0 0 -1 0 792)" d="M460.147 473.268L460.147 486.835" stroke="#000000" stroke-width="0.398" fill="none" /><path id="2017" transform="matrix(1 0 0 -1 0 792)" d="M515.526 473.268L515.526 486.835" stroke="#000000" stroke-width="0.398" fill="none" /><path id="2018" transform="matrix(1 0 0 -1 0 792)" d="M130.795 473.068L515.726 473.068" stroke="#000000" stroke-width="0.398" fill="none" /><path id="2019" transform="matrix(1 0 0 -1 0 792)" d="M130.795 473.068L515.726 473.068" stroke="#000000" stroke-width="0.398" fill="none" /><path id="2020" transform="matrix(1 0 0 -1 0 792)" d="M130.994 445.771L130.994 472.869" stroke="#000000" stroke-width="0.398" fill="none" /><path id="2081" transform="matrix(1 0 0 -1 0 792)" d="M460.147 445.771L460.147 472.869" stroke="#000000" stroke-width="0.398" fill="none" /><path id="2083" transform="matrix(1 0 0 -1 0 792)" d="M515.526 445.771L515.526 472.869" stroke="#000000" stroke-width="0.398" fill="none" /><path id="2084" transform="matrix(1 0 0 -1 0 792)" d="M130.795 445.571L515.726 445.571" stroke="#000000" stroke-width="0.398" fill="none" /><path id="2085" transform="matrix(1 0 0 -1 0 792)" d="M130.795 445.571L515.726 445.571" stroke="#000000" stroke-width="0.398" fill="none" /><path id="2086" transform="matrix(1 0 0 -1 0 792)" d="M130.994 431.823L130.994 445.372" stroke="#000000" stroke-width="0.398" fill="none" /><path id="2087" transform="matrix(1 0 0 -1 0 792)" d="M515.526 431.823L515.526 445.372" stroke="#000000" stroke-width="0.398" fill="none" /><path id="2088" transform="matrix(1 0 0 -1 0 792)" d="M130.795 431.624L515.726 431.624" stroke="#000000" stroke-width="0.398" fill="none" /><path id="2089" transform="matrix(1 0 0 -1 0 792)" d="M130.795 431.624L515.726 431.624" stroke="#000000" stroke-width="0.398" fill="none" /><path id="2090" transform="matrix(1 0 0 -1 0 792)" d="M130.994 417.858L130.994 431.425" stroke="#000000" stroke-width="0.398" fill="none" /><path id="2115" transform="matrix(1 0 0 -1 0 792)" d="M258.515 422.139L261.504 422.139" stroke="#000000" stroke-width="0.398" fill="none" /><path id="2121" transform="matrix(1 0 0 -1 0 792)" d="M460.147 417.858L460.147 431.425" stroke="#000000" stroke-width="0.398" fill="none" /><path id="2123" transform="matrix(1 0 0 -1 0 792)" d="M515.526 417.858L515.526 431.425" stroke="#000000" stroke-width="0.398" fill="none" /><path id="2124" transform="matrix(1 0 0 -1 0 792)" d="M130.795 417.659L515.726 417.659" stroke="#000000" stroke-width="0.398" fill="none" /><path id="2125" transform="matrix(1 0 0 -1 0 792)" d="M130.795 417.659L515.726 417.659" stroke="#000000" stroke-width="0.398" fill="none" /><path id="2126" transform="matrix(1 0 0 -1 0 792)" d="M130.994 403.893L130.994 417.46" stroke="#000000" stroke-width="0.398" fill="none" /><path id="2150" transform="matrix(1 0 0 -1 0 792)" d="M460.147 403.893L460.147 417.46" stroke="#000000" stroke-width="0.398" fill="none" /><path id="2152" transform="matrix(1 0 0 -1 0 792)" d="M515.526 403.893L515.526 417.46" stroke="#000000" stroke-width="0.398" fill="none" /><path id="2153" transform="matrix(1 0 0 -1 0 792)" d="M130.795 403.694L515.726 403.694" stroke="#000000" stroke-width="0.398" fill="none" /><path id="2154" transform="matrix(1 0 0 -1 0 792)" d="M130.795 403.694L515.726 403.694" stroke="#000000" stroke-width="0.398" fill="none" /><path id="2155" transform="matrix(1 0 0 -1 0 792)" d="M130.994 389.945L130.994 403.494" stroke="#000000" stroke-width="0.398" fill="none" /><path id="2156" transform="matrix(1 0 0 -1 0 792)" d="M515.526 389.945L515.526 403.494" stroke="#000000" stroke-width="0.398" fill="none" /><path id="2157" transform="matrix(1 0 0 -1 0 792)" d="M130.795 389.746L515.726 389.746" stroke="#000000" stroke-width="0.398" fill="none" /><path id="2158" transform="matrix(1 0 0 -1 0 792)" d="M130.795 389.746L515.726 389.746" stroke="#000000" stroke-width="0.398" fill="none" /><path id="2159" transform="matrix(1 0 0 -1 0 792)" d="M130.994 375.98L130.994 389.547" stroke="#000000" stroke-width="0.398" fill="none" /><path id="2185" transform="matrix(1 0 0 -1 0 792)" d="M460.147 375.98L460.147 389.547" stroke="#000000" stroke-width="0.398" fill="none" /><path id="2187" transform="matrix(1 0 0 -1 0 792)" d="M515.526 375.98L515.526 389.547" stroke="#000000" stroke-width="0.398" fill="none" /><path id="2188" transform="matrix(1 0 0 -1 0 792)" d="M130.795 375.781L515.726 375.781" stroke="#000000" stroke-width="0.398" fill="none" /><path id="2189" transform="matrix(1 0 0 -1 0 792)" d="M130.795 375.781L515.726 375.781" stroke="#000000" stroke-width="0.398" fill="none" /><path id="2190" transform="matrix(1 0 0 -1 0 792)" d="M130.994 362.015L130.994 375.582" stroke="#000000" stroke-width="0.398" fill="none" /><path id="2229" transform="matrix(1 0 0 -1 0 792)" d="M460.147 362.015L460.147 375.582" stroke="#000000" stroke-width="0.398" fill="none" /><path id="2231" transform="matrix(1 0 0 -1 0 792)" d="M515.526 362.015L515.526 375.582" stroke="#000000" stroke-width="0.398" fill="none" /><path id="2232" transform="matrix(1 0 0 -1 0 792)" d="M130.795 361.816L515.726 361.816" stroke="#000000" stroke-width="0.398" fill="none" /><path id="2233" transform="matrix(1 0 0 -1 0 792)" d="M130.795 361.816L515.726 361.816" stroke="#000000" stroke-width="0.398" fill="none" /><path id="2234" transform="matrix(1 0 0 -1 0 792)" d="M130.994 334.518L130.994 361.616" stroke="#000000" stroke-width="0.398" fill="none" /><path id="2305" transform="matrix(1 0 0 -1 0 792)" d="M460.147 334.518L460.147 361.616" stroke="#000000" stroke-width="0.398" fill="none" /><path id="2307" transform="matrix(1 0 0 -1 0 792)" d="M515.526 334.518L515.526 361.616" stroke="#000000" stroke-width="0.398" fill="none" /><path id="2308" transform="matrix(1 0 0 -1 0 792)" d="M130.795 334.319L515.726 334.319" stroke="#000000" stroke-width="0.398" fill="none" /><path id="2309" transform="matrix(1 0 0 -1 0 792)" d="M130.795 334.319L515.726 334.319" stroke="#000000" stroke-width="0.398" fill="none" /><path id="2310" transform="matrix(1 0 0 -1 0 792)" d="M130.994 320.553L130.994 334.12" stroke="#000000" stroke-width="0.398" fill="none" /><path id="2338" transform="matrix(1 0 0 -1 0 792)" d="M460.147 320.553L460.147 334.12" stroke="#000000" stroke-width="0.398" fill="none" /><path id="2341" transform="matrix(1 0 0 -1 0 792)" d="M515.526 320.553L515.526 334.12" stroke="#000000" stroke-width="0.398" fill="none" /><path id="2342" transform="matrix(1 0 0 -1 0 792)" d="M130.795 320.354L515.726 320.354" stroke="#000000" stroke-width="0.398" fill="none" /><path id="2343" transform="matrix(1 0 0 -1 0 792)" d="M130.795 320.354L515.726 320.354" stroke="#000000" stroke-width="0.398" fill="none" /><path id="2344" transform="matrix(1 0 0 -1 0 792)" d="M130.994 306.588L130.994 320.155" stroke="#000000" stroke-width="0.398" fill="none" /><path id="2397" transform="matrix(1 0 0 -1 0 792)" d="M460.147 306.588L460.147 320.155" stroke="#000000" stroke-width="0.398" fill="none" /><path id="2400" transform="matrix(1 0 0 -1 0 792)" d="M515.526 306.588L515.526 320.155" stroke="#000000" stroke-width="0.398" fill="none" /><path id="2401" transform="matrix(1 0 0 -1 0 792)" d="M130.795 306.388L515.726 306.388" stroke="#000000" stroke-width="0.398" fill="none" /><path id="2402" transform="matrix(1 0 0 -1 0 792)" d="M130.795 306.388L515.726 306.388" stroke="#000000" stroke-width="0.398" fill="none" /><path id="2403" transform="matrix(1 0 0 -1 0 792)" d="M130.994 279.091L130.994 306.189" stroke="#000000" stroke-width="0.398" fill="none" /><path id="2464" transform="matrix(1 0 0 -1 0 792)" d="M460.147 279.091L460.147 306.189" stroke="#000000" stroke-width="0.398" fill="none" /><path id="2466" transform="matrix(1 0 0 -1 0 792)" d="M515.526 279.091L515.526 306.189" stroke="#000000" stroke-width="0.398" fill="none" /><path id="2467" transform="matrix(1 0 0 -1 0 792)" d="M130.795 278.891L515.726 278.891" stroke="#000000" stroke-width="0.398" fill="none" /><path id="2468" transform="matrix(1 0 0 -1 0 792)" d="M130.795 278.891L515.726 278.891" stroke="#000000" stroke-width="0.398" fill="none" /><path id="2469" transform="matrix(1 0 0 -1 0 792)" d="M130.994 265.143L130.994 278.692" stroke="#000000" stroke-width="0.398" fill="none" /><path id="2470" transform="matrix(1 0 0 -1 0 792)" d="M515.526 265.143L515.526 278.692" stroke="#000000" stroke-width="0.398" fill="none" /><path id="2471" transform="matrix(1 0 0 -1 0 792)" d="M130.795 264.944L515.726 264.944" stroke="#000000" stroke-width="0.398" fill="none" /><path id="2472" transform="matrix(1 0 0 -1 0 792)" d="M130.795 264.944L515.726 264.944" stroke="#000000" stroke-width="0.398" fill="none" /><path id="2473" transform="matrix(1 0 0 -1 0 792)" d="M130.994 251.178L130.994 264.745" stroke="#000000" stroke-width="0.398" fill="none" /><path id="2500" transform="matrix(1 0 0 -1 0 792)" d="M460.147 251.178L460.147 264.745" stroke="#000000" stroke-width="0.398" fill="none" /><path id="2502" transform="matrix(1 0 0 -1 0 792)" d="M515.526 251.178L515.526 264.745" stroke="#000000" stroke-width="0.398" fill="none" /><path id="2503" transform="matrix(1 0 0 -1 0 792)" d="M130.795 250.979L515.726 250.979" stroke="#000000" stroke-width="0.398" fill="none" /><path id="2504" transform="matrix(1 0 0 -1 0 792)" d="M130.795 250.979L515.726 250.979" stroke="#000000" stroke-width="0.398" fill="none" /><path id="2505" transform="matrix(1 0 0 -1 0 792)" d="M130.994 237.23L130.994 250.779" stroke="#000000" stroke-width="0.398" fill="none" /><path id="2506" transform="matrix(1 0 0 -1 0 792)" d="M515.526 237.23L515.526 250.779" stroke="#000000" stroke-width="0.398" fill="none" /><path id="2507" transform="matrix(1 0 0 -1 0 792)" d="M130.795 237.031L515.726 237.031" stroke="#000000" stroke-width="0.398" fill="none" /><path id="2508" transform="matrix(1 0 0 -1 0 792)" d="M130.795 237.031L515.726 237.031" stroke="#000000" stroke-width="0.398" fill="none" /><path id="2509" transform="matrix(1 0 0 -1 0 792)" d="M130.994 223.265L130.994 236.832" stroke="#000000" stroke-width="0.398" fill="none" /><path id="2534" transform="matrix(1 0 0 -1 0 792)" d="M258.515 227.547L261.504 227.547" stroke="#000000" stroke-width="0.398" fill="none" /><path id="2540" transform="matrix(1 0 0 -1 0 792)" d="M291.989 227.547L294.978 227.547" stroke="#000000" stroke-width="0.398" fill="none" /><path id="2544" transform="matrix(1 0 0 -1 0 792)" d="M460.147 223.265L460.147 236.832" stroke="#000000" stroke-width="0.398" fill="none" /><path id="2546" transform="matrix(1 0 0 -1 0 792)" d="M515.526 223.265L515.526 236.832" stroke="#000000" stroke-width="0.398" fill="none" /><path id="2547" transform="matrix(1 0 0 -1 0 792)" d="M130.795 223.066L515.726 223.066" stroke="#000000" stroke-width="0.398" fill="none" /><path id="2548" transform="matrix(1 0 0 -1 0 792)" d="M130.795 223.066L515.726 223.066" stroke="#000000" stroke-width="0.398" fill="none" /><path id="2549" transform="matrix(1 0 0 -1 0 792)" d="M130.994 209.317L130.994 222.866" stroke="#000000" stroke-width="0.398" fill="none" /><path id="2550" transform="matrix(1 0 0 -1 0 792)" d="M515.526 209.317L515.526 222.866" stroke="#000000" stroke-width="0.398" fill="none" /><path id="2551" transform="matrix(1 0 0 -1 0 792)" d="M130.795 209.118L515.726 209.118" stroke="#000000" stroke-width="0.398" fill="none" /><path id="2552" transform="matrix(1 0 0 -1 0 792)" d="M130.795 209.118L515.726 209.118" stroke="#000000" stroke-width="0.398" fill="none" /><path id="2553" transform="matrix(1 0 0 -1 0 792)" d="M130.994 195.352L130.994 208.919" stroke="#000000" stroke-width="0.398" fill="none" /><path id="2578" transform="matrix(1 0 0 -1 0 792)" d="M258.515 199.634L261.504 199.634" stroke="#000000" stroke-width="0.398" fill="none" /><path id="2584" transform="matrix(1 0 0 -1 0 792)" d="M291.989 199.634L294.978 199.634" stroke="#000000" stroke-width="0.398" fill="none" /><path id="2588" transform="matrix(1 0 0 -1 0 792)" d="M460.147 195.352L460.147 208.919" stroke="#000000" stroke-width="0.398" fill="none" /><path id="2590" transform="matrix(1 0 0 -1 0 792)" d="M515.526 195.352L515.526 208.919" stroke="#000000" stroke-width="0.398" fill="none" /><path id="2591" transform="matrix(1 0 0 -1 0 792)" d="M130.795 195.153L515.726 195.153" stroke="#000000" stroke-width="0.398" fill="none" /><path id="2592" transform="matrix(1 0 0 -1 0 792)" d="M130.795 195.153L515.726 195.153" stroke="#000000" stroke-width="0.398" fill="none" /><path id="2593" transform="matrix(1 0 0 -1 0 792)" d="M130.994 181.387L130.994 194.954" stroke="#000000" stroke-width="0.398" fill="none" /><path id="2617" transform="matrix(1 0 0 -1 0 792)" d="M460.147 181.387L460.147 194.954" stroke="#000000" stroke-width="0.398" fill="none" /><path id="2619" transform="matrix(1 0 0 -1 0 792)" d="M515.526 181.387L515.526 194.954" stroke="#000000" stroke-width="0.398" fill="none" /><path id="2620" transform="matrix(1 0 0 -1 0 792)" d="M130.795 181.188L515.726 181.188" stroke="#000000" stroke-width="0.398" fill="none" /><path id="2621" transform="matrix(1 0 0 -1 0 792)" d="M130.795 181.188L515.726 181.188" stroke="#000000" stroke-width="0.398" fill="none" /><path id="2622" transform="matrix(1 0 0 -1 0 792)" d="M130.994 167.439L130.994 180.988" stroke="#000000" stroke-width="0.398" fill="none" /><path id="2623" transform="matrix(1 0 0 -1 0 792)" d="M515.526 167.439L515.526 180.988" stroke="#000000" stroke-width="0.398" fill="none" /><path id="2624" transform="matrix(1 0 0 -1 0 792)" d="M130.795 167.24L515.726 167.24" stroke="#000000" stroke-width="0.398" fill="none" /><path id="2625" transform="matrix(1 0 0 -1 0 792)" d="M130.795 167.24L515.726 167.24" stroke="#000000" stroke-width="0.398" fill="none" /><path id="2626" transform="matrix(1 0 0 -1 0 792)" d="M130.994 153.474L130.994 167.041" stroke="#000000" stroke-width="0.398" fill="none" /><path id="2660" transform="matrix(1 0 0 -1 0 792)" d="M460.147 153.474L460.147 167.041" stroke="#000000" stroke-width="0.398" fill="none" /><path id="2662" transform="matrix(1 0 0 -1 0 792)" d="M515.526 153.474L515.526 167.041" stroke="#000000" stroke-width="0.398" fill="none" /><path id="2663" transform="matrix(1 0 0 -1 0 792)" d="M130.795 153.275L515.726 153.275" stroke="#000000" stroke-width="0.398" fill="none" /><path id="2664" transform="matrix(1 0 0 -1 0 792)" d="M130.795 153.275L515.726 153.275" stroke="#000000" stroke-width="0.398" fill="none" /><path id="2665" transform="matrix(1 0 0 -1 0 792)" d="M130.994 139.509L130.994 153.076" stroke="#000000" stroke-width="0.398" fill="none" /><path id="2690" transform="matrix(1 0 0 -1 0 792)" d="M460.147 139.509L460.147 153.076" stroke="#000000" stroke-width="0.398" fill="none" /><path id="2692" transform="matrix(1 0 0 -1 0 792)" d="M515.526 139.509L515.526 153.076" stroke="#000000" stroke-width="0.398" fill="none" /><path id="2693" transform="matrix(1 0 0 -1 0 792)" d="M130.795 139.31L515.726 139.31" stroke="#000000" stroke-width="0.398" fill="none" /><path id="2694" transform="matrix(1 0 0 -1 0 792)" d="M130.795 139.31L515.726 139.31" stroke="#000000" stroke-width="0.398" fill="none" /><path id="2695" transform="matrix(1 0 0 -1 0 792)" d="M130.994 125.544L130.994 139.111" stroke="#000000" stroke-width="0.398" fill="none" /><path id="2727" transform="matrix(1 0 0 -1 0 792)" d="M460.147 125.544L460.147 139.111" stroke="#000000" stroke-width="0.398" fill="none" /><path id="2729" transform="matrix(1 0 0 -1 0 792)" d="M515.526 125.544L515.526 139.111" stroke="#000000" stroke-width="0.398" fill="none" /><path id="2730" transform="matrix(1 0 0 -1 0 792)" d="M130.795 125.345L515.726 125.345" stroke="#000000" stroke-width="0.398" fill="none" /><path id="2731" transform="matrix(1 0 0 -1 0 792)" d="M130.795 125.345L515.726 125.345" stroke="#000000" stroke-width="0.398" fill="none" /><path id="2732" transform="matrix(1 0 0 -1 0 792)" d="M130.994 111.579L130.994 125.146" stroke="#000000" stroke-width="0.398" fill="none" /><path id="2767" transform="matrix(1 0 0 -1 0 792)" d="M460.147 111.579L460.147 125.146" stroke="#000000" stroke-width="0.398" fill="none" /><path id="2769" transform="matrix(1 0 0 -1 0 792)" d="M515.526 111.579L515.526 125.146" stroke="#000000" stroke-width="0.398" fill="none" /><path id="2770" transform="matrix(1 0 0 -1 0 792)" d="M130.795 111.38L515.726 111.38" stroke="#000000" stroke-width="0.398" fill="none" /><path id="2771" transform="matrix(1 0 0 -1 0 792)" d="M130.795 111.38L515.726 111.38" stroke="#000000" stroke-width="0.398" fill="none" /></g></g></svg>