<svg xmlns="http://www.w3.org/2000/svg" xmlns:xlink="http://www.w3.org/1999/xlink" id="body_24" preserveAspectRatio="xMinYMin meet" viewBox="0 0 1632 1056"><defs><clipPath id="1"><path id="" clip-rule="evenodd" transform="matrix(1 0 0 1 0 0)" d="M0 792L0 0L0 0L1224 0L1224 0L1224 792L1224 792L0 792z" /></clipPath></defs><g transform="matrix(1.333333 0 0 1.333333 0 0)"><g clip-path="url(#1)"><path id="16" transform="matrix(1 0 0 -1 0 792)" d="M666.067 721.28L1132.722 721.28" stroke="#000000" stroke-width="0.498" fill="none" /><path id="29" transform="matrix(1 0 0 -1 0 792)" d="M1072.349 633.925L1075.338 633.925" stroke="#000000" stroke-width="0.398" fill="none" /><path id="30" transform="matrix(1 0 0 -1 0 792)" d="M1117.778 633.925L1120.767 633.925" stroke="#000000" stroke-width="0.398" fill="none" /><path id="31" transform="matrix(1 0 0 -1 0 792)" d="M721.691 521.931L724.68 521.931" stroke="#000000" stroke-width="0.398" fill="none" /><path id="32" transform="matrix(1 0 0 -1 0 792)" d="M767.121 521.931L770.11 521.931" stroke="#000000" stroke-width="0.398" fill="none" /><path id="33" transform="matrix(1 0 0 -1 0 792)" d="M714.486 508.382L717.475 508.382" stroke="#000000" stroke-width="0.398" fill="none" /><path id="34" transform="matrix(1 0 0 -1 0 792)" d="M733.819 494.832L736.808 494.832" stroke="#000000" stroke-width="0.398" fill="none" /><path id="35" transform="matrix(1 0 0 -1 0 792)" d="M779.249 494.832L782.238 494.832" stroke="#000000" stroke-width="0.398" fill="none" /><path id="36" transform="matrix(1 0 0 -1 0 792)" d="M989.795 467.734L992.784 467.734" stroke="#000000" stroke-width="0.398" fill="none" /><path id="37" transform="matrix(1 0 0 -1 0 792)" d="M764.242 413.537L767.231 413.537" stroke="#000000" stroke-width="0.398" fill="none" /><path id="38" transform="matrix(1 0 0 -1 0 792)" d="M692.5959 399.573L1106.193 399.573" stroke="#000000" stroke-width="0.398" fill="none" /><path id="39" transform="matrix(1 0 0 -1 0 792)" d="M692.796 385.824L692.796 399.373" stroke="#000000" stroke-width="0.398" fill="none" /><path id="40" transform="matrix(1 0 0 -1 0 792)" d="M692.995 385.824L792.223 385.824L792.223 399.373L692.995 399.373z" stroke="none" fill="#CCCCEB" fill-rule="nonzero" /><path id="55" transform="matrix(1 0 0 -1 0 792)" d="M792.422 385.824L792.422 399.373" stroke="#000000" stroke-width="0.398" fill="none" /><path id="56" transform="matrix(1 0 0 -1 0 792)" d="M792.621 385.824L891.849 385.824L891.849 399.373L792.621 399.373z" stroke="none" fill="#CCCCEB" fill-rule="nonzero" /><path id="71" transform="matrix(1 0 0 -1 0 792)" d="M892.048 385.824L892.048 399.373" stroke="#000000" stroke-width="0.398" fill="none" /><path id="72" transform="matrix(1 0 0 -1 0 792)" d="M892.248 385.824L1023.755 385.824L1023.755 399.373L892.248 399.373z" stroke="none" fill="#CCCCEB" fill-rule="nonzero" /><path id="77" transform="matrix(1 0 0 -1 0 792)" d="M1023.954 385.824L1023.954 399.373" stroke="#000000" stroke-width="0.398" fill="none" /><path id="78" transform="matrix(1 0 0 -1 0 792)" d="M1024.153 385.824L1105.795 385.824L1105.795 399.373L1024.153 399.373z" stroke="none" fill="#CCCCEB" fill-rule="nonzero" /><path id="92" transform="matrix(1 0 0 -1 0 792)" d="M1105.994 385.824L1105.994 399.373" stroke="#000000" stroke-width="0.398" fill="none" /><path id="93" transform="matrix(1 0 0 -1 0 792)" d="M692.5959 385.625L1106.193 385.625" stroke="#000000" stroke-width="0.398" fill="none" /><path id="94" transform="matrix(1 0 0 -1 0 792)" d="M692.5959 383.234L1106.193 383.234" stroke="#000000" stroke-width="0.398" fill="none" /><path id="95" transform="matrix(1 0 0 -1 0 792)" d="M692.796 369.486L692.796 383.035" stroke="#000000" stroke-width="0.398" fill="none" /><path id="100" transform="matrix(1 0 0 -1 0 792)" d="M792.422 369.486L792.422 383.035" stroke="#000000" stroke-width="0.398" fill="none" /><path id="105" transform="matrix(1 0 0 -1 0 792)" d="M892.048 369.486L892.048 383.035" stroke="#000000" stroke-width="0.398" fill="none" /><path id="114" transform="matrix(1 0 0 -1 0 792)" d="M946.644 373.75L949.633 373.75" stroke="#000000" stroke-width="0.398" fill="none" /><path id="119" transform="matrix(1 0 0 -1 0 792)" d="M1023.954 369.486L1023.954 383.035" stroke="#000000" stroke-width="0.398" fill="none" /><path id="121" transform="matrix(1 0 0 -1 0 792)" d="M1105.994 369.486L1105.994 383.035" stroke="#000000" stroke-width="0.398" fill="none" /><path id="122" transform="matrix(1 0 0 -1 0 792)" d="M692.5959 369.287L1106.193 369.287" stroke="#000000" stroke-width="0.398" fill="none" /><path id="123" transform="matrix(1 0 0 -1 0 792)" d="M692.796 355.538L692.796 369.087" stroke="#000000" stroke-width="0.398" fill="none" /><path id="127" transform="matrix(1 0 0 -1 0 792)" d="M792.422 355.538L792.422 369.087" stroke="#000000" stroke-width="0.398" fill="none" /><path id="131" transform="matrix(1 0 0 -1 0 792)" d="M892.048 355.538L892.048 369.087" stroke="#000000" stroke-width="0.398" fill="none" /><path id="140" transform="matrix(1 0 0 -1 0 792)" d="M946.644 359.802L949.633 359.802" stroke="#000000" stroke-width="0.398" fill="none" /><path id="145" transform="matrix(1 0 0 -1 0 792)" d="M1023.954 355.538L1023.954 369.087" stroke="#000000" stroke-width="0.398" fill="none" /><path id="147" transform="matrix(1 0 0 -1 0 792)" d="M1105.994 355.538L1105.994 369.087" stroke="#000000" stroke-width="0.398" fill="none" /><path id="148" transform="matrix(1 0 0 -1 0 792)" d="M692.5959 355.339L1106.193 355.339" stroke="#000000" stroke-width="0.398" fill="none" /><path id="149" transform="matrix(1 0 0 -1 0 792)" d="M692.796 341.59L692.796 355.139" stroke="#000000" stroke-width="0.398" fill="none" /><path id="154" transform="matrix(1 0 0 -1 0 792)" d="M792.422 341.59L792.422 355.139" stroke="#000000" stroke-width="0.398" fill="none" /><path id="159" transform="matrix(1 0 0 -1 0 792)" d="M892.048 341.59L892.048 355.139" stroke="#000000" stroke-width="0.398" fill="none" /><path id="168" transform="matrix(1 0 0 -1 0 792)" d="M946.644 345.854L949.633 345.854" stroke="#000000" stroke-width="0.398" fill="none" /><path id="174" transform="matrix(1 0 0 -1 0 792)" d="M980.118 345.854L983.107 345.854" stroke="#000000" stroke-width="0.398" fill="none" /><path id="176" transform="matrix(1 0 0 -1 0 792)" d="M989.682 345.854L992.671 345.854" stroke="#000000" stroke-width="0.398" fill="none" /><path id="178" transform="matrix(1 0 0 -1 0 792)" d="M999.246 345.854L1002.235 345.854" stroke="#000000" stroke-width="0.398" fill="none" /><path id="180" transform="matrix(1 0 0 -1 0 792)" d="M1008.811 345.854L1011.8 345.854" stroke="#000000" stroke-width="0.398" fill="none" /><path id="182" transform="matrix(1 0 0 -1 0 792)" d="M1023.954 341.59L1023.954 355.139" stroke="#000000" stroke-width="0.398" fill="none" /><path id="184" transform="matrix(1 0 0 -1 0 792)" d="M1105.994 341.59L1105.994 355.139" stroke="#000000" stroke-width="0.398" fill="none" /><path id="185" transform="matrix(1 0 0 -1 0 792)" d="M692.5959 341.391L1106.193 341.391" stroke="#000000" stroke-width="0.398" fill="none" /><path id="186" transform="matrix(1 0 0 -1 0 792)" d="M692.796 327.643L692.796 341.192" stroke="#000000" stroke-width="0.398" fill="none" /><path id="191" transform="matrix(1 0 0 -1 0 792)" d="M792.422 327.643L792.422 341.192" stroke="#000000" stroke-width="0.398" fill="none" /><path id="196" transform="matrix(1 0 0 -1 0 792)" d="M892.048 327.643L892.048 341.192" stroke="#000000" stroke-width="0.398" fill="none" /><path id="205" transform="matrix(1 0 0 -1 0 792)" d="M946.644 331.907L949.633 331.907" stroke="#000000" stroke-width="0.398" fill="none" /><path id="211" transform="matrix(1 0 0 -1 0 792)" d="M980.118 331.907L983.107 331.907" stroke="#000000" stroke-width="0.398" fill="none" /><path id="213" transform="matrix(1 0 0 -1 0 792)" d="M989.682 331.907L992.671 331.907" stroke="#000000" stroke-width="0.398" fill="none" /><path id="215" transform="matrix(1 0 0 -1 0 792)" d="M999.246 331.907L1002.235 331.907" stroke="#000000" stroke-width="0.398" fill="none" /><path id="217" transform="matrix(1 0 0 -1 0 792)" d="M1008.811 331.907L1011.8 331.907" stroke="#000000" stroke-width="0.398" fill="none" /><path id="219" transform="matrix(1 0 0 -1 0 792)" d="M1023.954 327.643L1023.954 341.192" stroke="#000000" stroke-width="0.398" fill="none" /><path id="221" transform="matrix(1 0 0 -1 0 792)" d="M1105.994 327.643L1105.994 341.192" stroke="#000000" stroke-width="0.398" fill="none" /><path id="222" transform="matrix(1 0 0 -1 0 792)" d="M692.5959 327.443L1106.193 327.443" stroke="#000000" stroke-width="0.398" fill="none" /><path id="223" transform="matrix(1 0 0 -1 0 792)" d="M692.796 313.695L692.796 327.244" stroke="#000000" stroke-width="0.398" fill="none" /><path id="227" transform="matrix(1 0 0 -1 0 792)" d="M792.422 313.695L792.422 327.244" stroke="#000000" stroke-width="0.398" fill="none" /><path id="231" transform="matrix(1 0 0 -1 0 792)" d="M892.048 313.695L892.048 327.244" stroke="#000000" stroke-width="0.398" fill="none" /><path id="240" transform="matrix(1 0 0 -1 0 792)" d="M946.644 317.959L949.633 317.959" stroke="#000000" stroke-width="0.398" fill="none" /><path id="246" transform="matrix(1 0 0 -1 0 792)" d="M980.118 317.959L983.107 317.959" stroke="#000000" stroke-width="0.398" fill="none" /><path id="248" transform="matrix(1 0 0 -1 0 792)" d="M989.682 317.959L992.671 317.959" stroke="#000000" stroke-width="0.398" fill="none" /><path id="250" transform="matrix(1 0 0 -1 0 792)" d="M999.246 317.959L1002.235 317.959" stroke="#000000" stroke-width="0.398" fill="none" /><path id="252" transform="matrix(1 0 0 -1 0 792)" d="M1023.954 313.695L1023.954 327.244" stroke="#000000" stroke-width="0.398" fill="none" /><path id="254" transform="matrix(1 0 0 -1 0 792)" d="M1105.994 313.695L1105.994 327.244" stroke="#000000" stroke-width="0.398" fill="none" /><path id="255" transform="matrix(1 0 0 -1 0 792)" d="M692.5959 313.496L1106.193 313.496" stroke="#000000" stroke-width="0.398" fill="none" /><path id="256" transform="matrix(1 0 0 -1 0 792)" d="M692.796 299.747L692.796 313.296" stroke="#000000" stroke-width="0.398" fill="none" /><path id="266" transform="matrix(1 0 0 -1 0 792)" d="M753.368 304.011L756.357 304.011" stroke="#000000" stroke-width="0.398" fill="none" /><path id="272" transform="matrix(1 0 0 -1 0 792)" d="M792.422 299.747L792.422 313.296" stroke="#000000" stroke-width="0.398" fill="none" /><path id="282" transform="matrix(1 0 0 -1 0 792)" d="M852.995 304.011L855.984 304.011" stroke="#000000" stroke-width="0.398" fill="none" /><path id="288" transform="matrix(1 0 0 -1 0 792)" d="M892.048 299.747L892.048 313.296" stroke="#000000" stroke-width="0.398" fill="none" /><path id="297" transform="matrix(1 0 0 -1 0 792)" d="M946.644 304.011L949.633 304.011" stroke="#000000" stroke-width="0.398" fill="none" /><path id="302" transform="matrix(1 0 0 -1 0 792)" d="M1023.954 299.747L1023.954 313.296" stroke="#000000" stroke-width="0.398" fill="none" /><path id="304" transform="matrix(1 0 0 -1 0 792)" d="M1105.994 299.747L1105.994 313.296" stroke="#000000" stroke-width="0.398" fill="none" /><path id="305" transform="matrix(1 0 0 -1 0 792)" d="M692.5959 299.548L1106.193 299.548" stroke="#000000" stroke-width="0.398" fill="none" /><path id="306" transform="matrix(1 0 0 -1 0 792)" d="M692.796 285.8L692.796 299.349" stroke="#000000" stroke-width="0.398" fill="none" /><path id="316" transform="matrix(1 0 0 -1 0 792)" d="M792.422 285.8L792.422 299.349" stroke="#000000" stroke-width="0.398" fill="none" /><path id="326" transform="matrix(1 0 0 -1 0 792)" d="M892.048 285.8L892.048 299.349" stroke="#000000" stroke-width="0.398" fill="none" /><path id="335" transform="matrix(1 0 0 -1 0 792)" d="M946.644 290.064L949.633 290.064" stroke="#000000" stroke-width="0.398" fill="none" /><path id="340" transform="matrix(1 0 0 -1 0 792)" d="M1023.954 285.8L1023.954 299.349" stroke="#000000" stroke-width="0.398" fill="none" /><path id="342" transform="matrix(1 0 0 -1 0 792)" d="M1105.994 285.8L1105.994 299.349" stroke="#000000" stroke-width="0.398" fill="none" /><path id="343" transform="matrix(1 0 0 -1 0 792)" d="M692.5959 285.6L1106.193 285.6" stroke="#000000" stroke-width="0.398" fill="none" /><path id="344" transform="matrix(1 0 0 -1 0 792)" d="M692.796 271.852L692.796 285.401" stroke="#000000" stroke-width="0.398" fill="none" /><path id="350" transform="matrix(1 0 0 -1 0 792)" d="M792.422 271.852L792.422 285.401" stroke="#000000" stroke-width="0.398" fill="none" /><path id="356" transform="matrix(1 0 0 -1 0 792)" d="M892.048 271.852L892.048 285.401" stroke="#000000" stroke-width="0.398" fill="none" /><path id="365" transform="matrix(1 0 0 -1 0 792)" d="M946.644 276.116L949.633 276.116" stroke="#000000" stroke-width="0.398" fill="none" /><path id="370" transform="matrix(1 0 0 -1 0 792)" d="M1023.954 271.852L1023.954 285.401" stroke="#000000" stroke-width="0.398" fill="none" /><path id="372" transform="matrix(1 0 0 -1 0 792)" d="M1105.994 271.852L1105.994 285.401" stroke="#000000" stroke-width="0.398" fill="none" /><path id="373" transform="matrix(1 0 0 -1 0 792)" d="M692.5959 271.653L1106.193 271.653" stroke="#000000" stroke-width="0.398" fill="none" /><path id="390" transform="matrix(1 0 0 -1 0 792)" d="M1123.756 135.19L1126.745 135.19" stroke="#000000" stroke-width="0.398" fill="none" /><path id="391" transform="matrix(1 0 0 -1 0 792)" d="M1075.935 108.092L1078.924 108.092" stroke="#000000" stroke-width="0.398" fill="none" /><path id="392" transform="matrix(1 0 0 -1 0 792)" d="M740.996 80.994L743.985 80.994" stroke="#000000" stroke-width="0.398" fill="none" /><path id="393" transform="matrix(1 0 0 -1 0 792)" d="M810.336 80.994L813.325 80.994" stroke="#000000" stroke-width="0.398" fill="none" /><path id="394" transform="matrix(1 0 0 -1 0 792)" d="M1003.83 67.444L1006.819 67.444" stroke="#000000" stroke-width="0.398" fill="none" /><path id="395" transform="matrix(1 0 0 -1 0 792)" d="M666.067 617.11L1132.725 617.11L1132.725 617.11L1132.725 670.9035L1132.725 670.9035L666.067 670.9035z" stroke="#FFFFFF" stroke-width="1" fill="#FFFFFF" fill-rule="nonzero" /><path id="485" transform="matrix(1 0 0 -1 0 792)" d="M683.004 603.562L1132.72 603.562L1132.72 603.562L1132.72 616.7075L1132.72 616.7075L683.004 616.7075z" stroke="#FFFFFF" stroke-width="1" fill="#FFFFFF" fill-rule="nonzero" /><path id="523" transform="matrix(1 0 0 -1 0 792)" d="M666.067 576.463L1132.726 576.463L1132.726 576.463L1132.726 603.1584L1132.726 603.1584L666.067 603.1584z" stroke="#FFFFFF" stroke-width="1" fill="#FFFFFF" fill-rule="nonzero" /><path id="569" transform="matrix(1 0 0 -1 0 792)" d="M683.004 559.313L1132.723 559.313L1132.723 559.313L1132.723 572.4585L1132.723 572.4585L683.004 572.4585z" stroke="#FFFFFF" stroke-width="1" fill="#FFFFFF" fill-rule="nonzero" /><path id="605" transform="matrix(1 0 0 -1 0 792)" d="M666.067 532.215L1132.725 532.215L1132.725 532.215L1132.725 558.9095L1132.725 558.9095L666.067 558.9095z" stroke="#FFFFFF" stroke-width="1" fill="#FFFFFF" fill-rule="nonzero" /><path id="671" transform="matrix(1 0 0 -1 0 792)" d="M683.004 518.666L1132.723 518.666L1132.723 518.666L1132.723 531.8124L1132.723 531.8124L683.004 531.8124z" stroke="#FFFFFF" stroke-width="1" fill="#FFFFFF" fill-rule="nonzero" /><path id="703" transform="matrix(1 0 0 -1 0 792)" d="M666.067 491.568L1132.718 491.568L1132.718 491.568L1132.718 518.2625L1132.718 518.2625L666.067 518.2625z" stroke="#FFFFFF" stroke-width="1" fill="#FFFFFF" fill-rule="nonzero" /><path id="764" transform="matrix(1 0 0 -1 0 792)" d="M683.004 478.019L1132.721 478.019L1132.721 478.019L1132.721 491.1645L1132.721 491.1645L683.004 491.1645z" stroke="#FFFFFF" stroke-width="1" fill="#FFFFFF" fill-rule="nonzero" /><path id="792" transform="matrix(1 0 0 -1 0 792)" d="M666.067 410.273L1132.725 410.273L1132.725 410.273L1132.725 477.6155L1132.725 477.6155L666.067 477.6155z" stroke="#FFFFFF" stroke-width="1" fill="#FFFFFF" fill-rule="nonzero" /><path id="975" transform="matrix(1 0 0 -1 0 792)" d="M801.868 248.941L996.923 248.941L996.923 248.941L996.923 262.0865L996.923 262.0865L801.868 262.0865z" stroke="#FFFFFF" stroke-width="1" fill="#FFFFFF" fill-rule="nonzero" /><path id="990" transform="matrix(1 0 0 -1 0 792)" d="M666.067 91.2776L1132.726 91.2776L1132.726 91.2776L1132.726 185.719L1132.726 185.719L666.067 185.719z" stroke="#FFFFFF" stroke-width="1" fill="#FFFFFF" fill-rule="nonzero" /><path id="1231" transform="matrix(1 0 0 -1 0 792)" d="M683.004 77.3968L1132.722 77.3968L1132.722 77.3968L1132.722 90.87399L1132.722 90.87399L683.004 90.87399z" stroke="#FFFFFF" stroke-width="1" fill="#FFFFFF" fill-rule="nonzero" /><path id="1252" transform="matrix(1 0 0 -1 0 792)" d="M666.067 63.8478L1132.722 63.8478L1132.722 63.8478L1132.722 77.325L1132.722 77.325L666.067 77.325z" stroke="#FFFFFF" stroke-width="1" fill="#FFFFFF" fill-rule="nonzero" /><path id="1343" transform="matrix(1 0 0 -1 0 792)" d="M54.067 721.28L520.722 721.28" stroke="#000000" stroke-width="0.498" fill="none" /><path id="1604" transform="matrix(1 0 0 -1 0 792)" d="M460.349 633.925L463.338 633.925" stroke="#000000" stroke-width="0.398" fill="none" /><path id="1612" transform="matrix(1 0 0 -1 0 792)" d="M505.778 633.925L508.767 633.925" stroke="#000000" stroke-width="0.398" fill="none" /><path id="2026" transform="matrix(1 0 0 -1 0 792)" d="M109.691 521.931L112.68 521.931" stroke="#000000" stroke-width="0.398" fill="none" /><path id="2034" transform="matrix(1 0 0 -1 0 792)" d="M155.121 521.931L158.11 521.931" stroke="#000000" stroke-width="0.398" fill="none" /><path id="2109" transform="matrix(1 0 0 -1 0 792)" d="M102.486 508.382L105.475 508.382" stroke="#000000" stroke-width="0.398" fill="none" /><path id="2195" transform="matrix(1 0 0 -1 0 792)" d="M121.819 494.832L124.808 494.832" stroke="#000000" stroke-width="0.398" fill="none" /><path id="2203" transform="matrix(1 0 0 -1 0 792)" d="M167.249 494.832L170.238 494.832" stroke="#000000" stroke-width="0.398" fill="none" /><path id="2369" transform="matrix(1 0 0 -1 0 792)" d="M377.795 467.734L380.784 467.734" stroke="#000000" stroke-width="0.398" fill="none" /><path id="2666" transform="matrix(1 0 0 -1 0 792)" d="M152.242 413.537L155.231 413.537" stroke="#000000" stroke-width="0.398" fill="none" /><path id="2700" transform="matrix(1 0 0 -1 0 792)" d="M80.596 399.573L494.193 399.573" stroke="#000000" stroke-width="0.398" fill="none" /><path id="2701" transform="matrix(1 0 0 -1 0 792)" d="M80.796 385.824L80.796 399.373" stroke="#000000" stroke-width="0.398" fill="none" /><path id="2702" transform="matrix(1 0 0 -1 0 792)" d="M80.995 385.824L180.223 385.824L180.223 399.373L80.995 399.373z" stroke="none" fill="#CCCCEB" fill-rule="nonzero" /><path id="2717" transform="matrix(1 0 0 -1 0 792)" d="M180.422 385.824L180.422 399.373" stroke="#000000" stroke-width="0.398" fill="none" /><path id="2718" transform="matrix(1 0 0 -1 0 792)" d="M180.621 385.824L279.849 385.824L279.849 399.373L180.621 399.373z" stroke="none" fill="#CCCCEB" fill-rule="nonzero" /><path id="2733" transform="matrix(1 0 0 -1 0 792)" d="M280.048 385.824L280.048 399.373" stroke="#000000" stroke-width="0.398" fill="none" /><path id="2734" transform="matrix(1 0 0 -1 0 792)" d="M280.248 385.824L411.755 385.824L411.755 399.373L280.248 399.373z" stroke="none" fill="#CCCCEB" fill-rule="nonzero" /><path id="2739" transform="matrix(1 0 0 -1 0 792)" d="M411.954 385.824L411.954 399.373" stroke="#000000" stroke-width="0.398" fill="none" /><path id="2740" transform="matrix(1 0 0 -1 0 792)" d="M412.153 385.824L493.795 385.824L493.795 399.373L412.153 399.373z" stroke="none" fill="#CCCCEB" fill-rule="nonzero" /><path id="2754" transform="matrix(1 0 0 -1 0 792)" d="M493.994 385.824L493.994 399.373" stroke="#000000" stroke-width="0.398" fill="none" /><path id="2755" transform="matrix(1 0 0 -1 0 792)" d="M80.596 385.625L494.193 385.625" stroke="#000000" stroke-width="0.398" fill="none" /><path id="2756" transform="matrix(1 0 0 -1 0 792)" d="M80.596 383.234L494.193 383.234" stroke="#000000" stroke-width="0.398" fill="none" /><path id="2757" transform="matrix(1 0 0 -1 0 792)" d="M80.796 369.486L80.796 383.035" stroke="#000000" stroke-width="0.398" fill="none" /><path id="2762" transform="matrix(1 0 0 -1 0 792)" d="M180.422 369.486L180.422 383.035" stroke="#000000" stroke-width="0.398" fill="none" /><path id="2767" transform="matrix(1 0 0 -1 0 792)" d="M280.048 369.486L280.048 383.035" stroke="#000000" stroke-width="0.398" fill="none" /><path id="2776" transform="matrix(1 0 0 -1 0 792)" d="M334.644 373.75L337.633 373.75" stroke="#000000" stroke-width="0.398" fill="none" /><path id="2781" transform="matrix(1 0 0 -1 0 792)" d="M411.954 369.486L411.954 383.035" stroke="#000000" stroke-width="0.398" fill="none" /><path id="2783" transform="matrix(1 0 0 -1 0 792)" d="M493.994 369.486L493.994 383.035" stroke="#000000" stroke-width="0.398" fill="none" /><path id="2784" transform="matrix(1 0 0 -1 0 792)" d="M80.596 369.287L494.193 369.287" stroke="#000000" stroke-width="0.398" fill="none" /><path id="2785" transform="matrix(1 0 0 -1 0 792)" d="M80.796 355.538L80.796 369.087" stroke="#000000" stroke-width="0.398" fill="none" /><path id="2789" transform="matrix(1 0 0 -1 0 792)" d="M180.422 355.538L180.422 369.087" stroke="#000000" stroke-width="0.398" fill="none" /><path id="2793" transform="matrix(1 0 0 -1 0 792)" d="M280.048 355.538L280.048 369.087" stroke="#000000" stroke-width="0.398" fill="none" /><path id="2802" transform="matrix(1 0 0 -1 0 792)" d="M334.644 359.802L337.633 359.802" stroke="#000000" stroke-width="0.398" fill="none" /><path id="2807" transform="matrix(1 0 0 -1 0 792)" d="M411.954 355.538L411.954 369.087" stroke="#000000" stroke-width="0.398" fill="none" /><path id="2809" transform="matrix(1 0 0 -1 0 792)" d="M493.994 355.538L493.994 369.087" stroke="#000000" stroke-width="0.398" fill="none" /><path id="2810" transform="matrix(1 0 0 -1 0 792)" d="M80.596 355.339L494.193 355.339" stroke="#000000" stroke-width="0.398" fill="none" /><path id="2811" transform="matrix(1 0 0 -1 0 792)" d="M80.796 341.59L80.796 355.139" stroke="#000000" stroke-width="0.398" fill="none" /><path id="2816" transform="matrix(1 0 0 -1 0 792)" d="M180.422 341.59L180.422 355.139" stroke="#000000" stroke-width="0.398" fill="none" /><path id="2821" transform="matrix(1 0 0 -1 0 792)" d="M280.048 341.59L280.048 355.139" stroke="#000000" stroke-width="0.398" fill="none" /><path id="2830" transform="matrix(1 0 0 -1 0 792)" d="M334.644 345.854L337.633 345.854" stroke="#000000" stroke-width="0.398" fill="none" /><path id="2836" transform="matrix(1 0 0 -1 0 792)" d="M368.118 345.854L371.107 345.854" stroke="#000000" stroke-width="0.398" fill="none" /><path id="2838" transform="matrix(1 0 0 -1 0 792)" d="M377.682 345.854L380.671 345.854" stroke="#000000" stroke-width="0.398" fill="none" /><path id="2840" transform="matrix(1 0 0 -1 0 792)" d="M387.246 345.854L390.235 345.854" stroke="#000000" stroke-width="0.398" fill="none" /><path id="2842" transform="matrix(1 0 0 -1 0 792)" d="M396.811 345.854L399.8 345.854" stroke="#000000" stroke-width="0.398" fill="none" /><path id="2844" transform="matrix(1 0 0 -1 0 792)" d="M411.954 341.59L411.954 355.139" stroke="#000000" stroke-width="0.398" fill="none" /><path id="2846" transform="matrix(1 0 0 -1 0 792)" d="M493.994 341.59L493.994 355.139" stroke="#000000" stroke-width="0.398" fill="none" /><path id="2847" transform="matrix(1 0 0 -1 0 792)" d="M80.596 341.391L494.193 341.391" stroke="#000000" stroke-width="0.398" fill="none" /><path id="2848" transform="matrix(1 0 0 -1 0 792)" d="M80.796 327.643L80.796 341.192" stroke="#000000" stroke-width="0.398" fill="none" /><path id="2853" transform="matrix(1 0 0 -1 0 792)" d="M180.422 327.643L180.422 341.192" stroke="#000000" stroke-width="0.398" fill="none" /><path id="2858" transform="matrix(1 0 0 -1 0 792)" d="M280.048 327.643L280.048 341.192" stroke="#000000" stroke-width="0.398" fill="none" /><path id="2867" transform="matrix(1 0 0 -1 0 792)" d="M334.644 331.907L337.633 331.907" stroke="#000000" stroke-width="0.398" fill="none" /><path id="2873" transform="matrix(1 0 0 -1 0 792)" d="M368.118 331.907L371.107 331.907" stroke="#000000" stroke-width="0.398" fill="none" /><path id="2875" transform="matrix(1 0 0 -1 0 792)" d="M377.682 331.907L380.671 331.907" stroke="#000000" stroke-width="0.398" fill="none" /><path id="2877" transform="matrix(1 0 0 -1 0 792)" d="M387.246 331.907L390.235 331.907" stroke="#000000" stroke-width="0.398" fill="none" /><path id="2879" transform="matrix(1 0 0 -1 0 792)" d="M396.811 331.907L399.8 331.907" stroke="#000000" stroke-width="0.398" fill="none" /><path id="2881" transform="matrix(1 0 0 -1 0 792)" d="M411.954 327.643L411.954 341.192" stroke="#000000" stroke-width="0.398" fill="none" /><path id="2883" transform="matrix(1 0 0 -1 0 792)" d="M493.994 327.643L493.994 341.192" stroke="#000000" stroke-width="0.398" fill="none" /><path id="2884" transform="matrix(1 0 0 -1 0 792)" d="M80.596 327.443L494.193 327.443" stroke="#000000" stroke-width="0.398" fill="none" /><path id="2885" transform="matrix(1 0 0 -1 0 792)" d="M80.796 313.695L80.796 327.244" stroke="#000000" stroke-width="0.398" fill="none" /><path id="2889" transform="matrix(1 0 0 -1 0 792)" d="M180.422 313.695L180.422 327.244" stroke="#000000" stroke-width="0.398" fill="none" /><path id="2893" transform="matrix(1 0 0 -1 0 792)" d="M280.048 313.695L280.048 327.244" stroke="#000000" stroke-width="0.398" fill="none" /><path id="2902" transform="matrix(1 0 0 -1 0 792)" d="M334.644 317.959L337.633 317.959" stroke="#000000" stroke-width="0.398" fill="none" /><path id="2908" transform="matrix(1 0 0 -1 0 792)" d="M368.118 317.959L371.107 317.959" stroke="#000000" stroke-width="0.398" fill="none" /><path id="2910" transform="matrix(1 0 0 -1 0 792)" d="M377.682 317.959L380.671 317.959" stroke="#000000" stroke-width="0.398" fill="none" /><path id="2912" transform="matrix(1 0 0 -1 0 792)" d="M387.246 317.959L390.235 317.959" stroke="#000000" stroke-width="0.398" fill="none" /><path id="2914" transform="matrix(1 0 0 -1 0 792)" d="M411.954 313.695L411.954 327.244" stroke="#000000" stroke-width="0.398" fill="none" /><path id="2916" transform="matrix(1 0 0 -1 0 792)" d="M493.994 313.695L493.994 327.244" stroke="#000000" stroke-width="0.398" fill="none" /><path id="2917" transform="matrix(1 0 0 -1 0 792)" d="M80.596 313.496L494.193 313.496" stroke="#000000" stroke-width="0.398" fill="none" /><path id="2918" transform="matrix(1 0 0 -1 0 792)" d="M80.796 299.747L80.796 313.296" stroke="#000000" stroke-width="0.398" fill="none" /><path id="2928" transform="matrix(1 0 0 -1 0 792)" d="M141.368 304.011L144.357 304.011" stroke="#000000" stroke-width="0.398" fill="none" /><path id="2934" transform="matrix(1 0 0 -1 0 792)" d="M180.422 299.747L180.422 313.296" stroke="#000000" stroke-width="0.398" fill="none" /><path id="2944" transform="matrix(1 0 0 -1 0 792)" d="M240.995 304.011L243.984 304.011" stroke="#000000" stroke-width="0.398" fill="none" /><path id="2950" transform="matrix(1 0 0 -1 0 792)" d="M280.048 299.747L280.048 313.296" stroke="#000000" stroke-width="0.398" fill="none" /><path id="2959" transform="matrix(1 0 0 -1 0 792)" d="M334.644 304.011L337.633 304.011" stroke="#000000" stroke-width="0.398" fill="none" /><path id="2964" transform="matrix(1 0 0 -1 0 792)" d="M411.954 299.747L411.954 313.296" stroke="#000000" stroke-width="0.398" fill="none" /><path id="2966" transform="matrix(1 0 0 -1 0 792)" d="M493.994 299.747L493.994 313.296" stroke="#000000" stroke-width="0.398" fill="none" /><path id="2967" transform="matrix(1 0 0 -1 0 792)" d="M80.596 299.548L494.193 299.548" stroke="#000000" stroke-width="0.398" fill="none" /><path id="2968" transform="matrix(1 0 0 -1 0 792)" d="M80.796 285.8L80.796 299.349" stroke="#000000" stroke-width="0.398" fill="none" /><path id="2978" transform="matrix(1 0 0 -1 0 792)" d="M180.422 285.8L180.422 299.349" stroke="#000000" stroke-width="0.398" fill="none" /><path id="2988" transform="matrix(1 0 0 -1 0 792)" d="M280.048 285.8L280.048 299.349" stroke="#000000" stroke-width="0.398" fill="none" /><path id="2997" transform="matrix(1 0 0 -1 0 792)" d="M334.644 290.064L337.633 290.064" stroke="#000000" stroke-width="0.398" fill="none" /><path id="3002" transform="matrix(1 0 0 -1 0 792)" d="M411.954 285.8L411.954 299.349" stroke="#000000" stroke-width="0.398" fill="none" /><path id="3004" transform="matrix(1 0 0 -1 0 792)" d="M493.994 285.8L493.994 299.349" stroke="#000000" stroke-width="0.398" fill="none" /><path id="3005" transform="matrix(1 0 0 -1 0 792)" d="M80.596 285.6L494.193 285.6" stroke="#000000" stroke-width="0.398" fill="none" /><path id="3006" transform="matrix(1 0 0 -1 0 792)" d="M80.796 271.852L80.796 285.401" stroke="#000000" stroke-width="0.398" fill="none" /><path id="3012" transform="matrix(1 0 0 -1 0 792)" d="M180.422 271.852L180.422 285.401" stroke="#000000" stroke-width="0.398" fill="none" /><path id="3018" transform="matrix(1 0 0 -1 0 792)" d="M280.048 271.852L280.048 285.401" stroke="#000000" stroke-width="0.398" fill="none" /><path id="3027" transform="matrix(1 0 0 -1 0 792)" d="M334.644 276.116L337.633 276.116" stroke="#000000" stroke-width="0.398" fill="none" /><path id="3032" transform="matrix(1 0 0 -1 0 792)" d="M411.954 271.852L411.954 285.401" stroke="#000000" stroke-width="0.398" fill="none" /><path id="3034" transform="matrix(1 0 0 -1 0 792)" d="M493.994 271.852L493.994 285.401" stroke="#000000" stroke-width="0.398" fill="none" /><path id="3035" transform="matrix(1 0 0 -1 0 792)" d="M80.596 271.653L494.193 271.653" stroke="#000000" stroke-width="0.398" fill="none" /><path id="3432" transform="matrix(1 0 0 -1 0 792)" d="M511.756 135.19L514.745 135.19" stroke="#000000" stroke-width="0.398" fill="none" /><path id="3601" transform="matrix(1 0 0 -1 0 792)" d="M463.935 108.092L466.924 108.092" stroke="#000000" stroke-width="0.398" fill="none" /><path id="3633" transform="matrix(1 0 0 -1 0 792)" d="M128.996 80.994L131.985 80.994" stroke="#000000" stroke-width="0.398" fill="none" /><path id="3645" transform="matrix(1 0 0 -1 0 792)" d="M198.336 80.994L201.325 80.994" stroke="#000000" stroke-width="0.398" fill="none" /><path id="3765" transform="matrix(1 0 0 -1 0 792)" d="M391.83 67.444L394.819 67.444" stroke="#000000" stroke-width="0.398" fill="none" /></g></g></svg>