<svg xmlns="http://www.w3.org/2000/svg" xmlns:xlink="http://www.w3.org/1999/xlink" id="body_71" preserveAspectRatio="xMinYMin meet" viewBox="0 0 1632 1056"><defs><clipPath id="1"><path id="" clip-rule="evenodd" transform="matrix(1 0 0 1 0 0)" d="M0 792L0 0L0 0L1224 0L1224 0L1224 792L1224 792L0 792z" /></clipPath></defs><g transform="matrix(1.333333 0 0 1.333333 0 0)"><g clip-path="url(#1)"><path id="1" transform="matrix(1 0 0 -1 0 792)" d="M701.933 721.28L1168.588 721.28" stroke="#000000" stroke-width="0.498" fill="none" /><path id="2" transform="matrix(1 0 0 -1 0 792)" d="M751.671 668.23L1118.85 668.23" stroke="#000000" stroke-width="0.398" fill="none" /><path id="3" transform="matrix(1 0 0 -1 0 792)" d="M751.87 654.465L751.87 668.032" stroke="#000000" stroke-width="0.398" fill="none" /><path id="4" transform="matrix(1 0 0 -1 0 792)" d="M752.069 654.465L944.024 654.465L944.024 668.032L752.069 668.032z" stroke="none" fill="#CCCCEB" fill-rule="nonzero" /><path id="10" transform="matrix(1 0 0 -1 0 792)" d="M944.224 654.465L944.224 668.032" stroke="#000000" stroke-width="0.398" fill="none" /><path id="11" transform="matrix(1 0 0 -1 0 792)" d="M944.423 654.465L1003.047 654.465L1003.047 668.032L944.423 668.032z" stroke="none" fill="#CCCCEB" fill-rule="nonzero" /><path id="21" transform="matrix(1 0 0 -1 0 792)" d="M1003.246 654.465L1003.246 668.032" stroke="#000000" stroke-width="0.398" fill="none" /><path id="22" transform="matrix(1 0 0 -1 0 792)" d="M1003.445 654.465L1062.069 654.465L1062.069 668.032L1003.445 668.032z" stroke="none" fill="#CCCCEB" fill-rule="nonzero" /><path id="30" transform="matrix(1 0 0 -1 0 792)" d="M1062.268 654.465L1062.268 668.032" stroke="#000000" stroke-width="0.398" fill="none" /><path id="31" transform="matrix(1 0 0 -1 0 792)" d="M1062.467 654.465L1118.451 654.465L1118.451 668.032L1062.467 668.032z" stroke="none" fill="#CCCCEB" fill-rule="nonzero" /><path id="35" transform="matrix(1 0 0 -1 0 792)" d="M1118.65 654.465L1118.65 668.032" stroke="#000000" stroke-width="0.398" fill="none" /><path id="36" transform="matrix(1 0 0 -1 0 792)" d="M751.87 640.898L751.87 654.465" stroke="#000000" stroke-width="0.398" fill="none" /><path id="37" transform="matrix(1 0 0 -1 0 792)" d="M752.069 640.898L944.024 640.898L944.024 654.465L752.069 654.465z" stroke="none" fill="#CCCCEB" fill-rule="nonzero" /><path id="38" transform="matrix(1 0 0 -1 0 792)" d="M944.224 640.898L944.224 654.465" stroke="#000000" stroke-width="0.398" fill="none" /><path id="39" transform="matrix(1 0 0 -1 0 792)" d="M944.423 640.898L1003.047 640.898L1003.047 654.465L944.423 654.465z" stroke="none" fill="#CCCCEB" fill-rule="nonzero" /><path id="40" transform="matrix(1 0 0 -1 0 792)" d="M1003.246 640.898L1003.246 654.465" stroke="#000000" stroke-width="0.398" fill="none" /><path id="41" transform="matrix(1 0 0 -1 0 792)" d="M1003.445 640.898L1062.069 640.898L1062.069 654.465L1003.445 654.465z" stroke="none" fill="#CCCCEB" fill-rule="nonzero" /><path id="47" transform="matrix(1 0 0 -1 0 792)" d="M1062.268 640.898L1062.268 654.465" stroke="#000000" stroke-width="0.398" fill="none" /><path id="48" transform="matrix(1 0 0 -1 0 792)" d="M1062.467 640.898L1118.451 640.898L1118.451 654.465L1062.467 654.465z" stroke="none" fill="#CCCCEB" fill-rule="nonzero" /><path id="49" transform="matrix(1 0 0 -1 0 792)" d="M1118.65 640.898L1118.65 654.465" stroke="#000000" stroke-width="0.398" fill="none" /><path id="50" transform="matrix(1 0 0 -1 0 792)" d="M751.671 640.699L1118.85 640.699" stroke="#000000" stroke-width="0.398" fill="none" /><path id="51" transform="matrix(1 0 0 -1 0 792)" d="M751.671 638.308L1118.85 638.308" stroke="#000000" stroke-width="0.398" fill="none" /><path id="52" transform="matrix(1 0 0 -1 0 792)" d="M751.87 624.542L751.87 638.109" stroke="#000000" stroke-width="0.398" fill="none" /><path id="57" transform="matrix(1 0 0 -1 0 792)" d="M782.555 628.823L785.544 628.823" stroke="#000000" stroke-width="0.398" fill="none" /><path id="62" transform="matrix(1 0 0 -1 0 792)" d="M944.224 624.542L944.224 638.109" stroke="#000000" stroke-width="0.398" fill="none" /><path id="64" transform="matrix(1 0 0 -1 0 792)" d="M1003.246 624.542L1003.246 638.109" stroke="#000000" stroke-width="0.398" fill="none" /><path id="66" transform="matrix(1 0 0 -1 0 792)" d="M1062.268 624.542L1062.268 638.109" stroke="#000000" stroke-width="0.398" fill="none" /><path id="68" transform="matrix(1 0 0 -1 0 792)" d="M1118.65 624.542L1118.65 638.109" stroke="#000000" stroke-width="0.398" fill="none" /><path id="69" transform="matrix(1 0 0 -1 0 792)" d="M751.671 624.342L1118.85 624.342" stroke="#000000" stroke-width="0.398" fill="none" /><path id="70" transform="matrix(1 0 0 -1 0 792)" d="M751.87 610.577L751.87 624.144" stroke="#000000" stroke-width="0.398" fill="none" /><path id="75" transform="matrix(1 0 0 -1 0 792)" d="M782.555 614.858L785.544 614.858" stroke="#000000" stroke-width="0.398" fill="none" /><path id="81" transform="matrix(1 0 0 -1 0 792)" d="M944.224 610.577L944.224 624.144" stroke="#000000" stroke-width="0.398" fill="none" /><path id="83" transform="matrix(1 0 0 -1 0 792)" d="M1003.246 610.577L1003.246 624.144" stroke="#000000" stroke-width="0.398" fill="none" /><path id="85" transform="matrix(1 0 0 -1 0 792)" d="M1062.268 610.577L1062.268 624.144" stroke="#000000" stroke-width="0.398" fill="none" /><path id="87" transform="matrix(1 0 0 -1 0 792)" d="M1118.65 610.577L1118.65 624.144" stroke="#000000" stroke-width="0.398" fill="none" /><path id="88" transform="matrix(1 0 0 -1 0 792)" d="M751.671 610.377L1118.85 610.377" stroke="#000000" stroke-width="0.398" fill="none" /><path id="89" transform="matrix(1 0 0 -1 0 792)" d="M751.87 596.611L751.87 610.178" stroke="#000000" stroke-width="0.398" fill="none" /><path id="94" transform="matrix(1 0 0 -1 0 792)" d="M782.555 600.893L785.544 600.893" stroke="#000000" stroke-width="0.398" fill="none" /><path id="99" transform="matrix(1 0 0 -1 0 792)" d="M944.224 596.611L944.224 610.178" stroke="#000000" stroke-width="0.398" fill="none" /><path id="101" transform="matrix(1 0 0 -1 0 792)" d="M1003.246 596.611L1003.246 610.178" stroke="#000000" stroke-width="0.398" fill="none" /><path id="103" transform="matrix(1 0 0 -1 0 792)" d="M1062.268 596.611L1062.268 610.178" stroke="#000000" stroke-width="0.398" fill="none" /><path id="105" transform="matrix(1 0 0 -1 0 792)" d="M1118.65 596.611L1118.65 610.178" stroke="#000000" stroke-width="0.398" fill="none" /><path id="106" transform="matrix(1 0 0 -1 0 792)" d="M751.671 596.412L1118.85 596.412" stroke="#000000" stroke-width="0.398" fill="none" /><path id="107" transform="matrix(1 0 0 -1 0 792)" d="M751.87 582.646L751.87 596.213" stroke="#000000" stroke-width="0.398" fill="none" /><path id="128" transform="matrix(1 0 0 -1 0 792)" d="M944.224 582.646L944.224 596.213" stroke="#000000" stroke-width="0.398" fill="none" /><path id="130" transform="matrix(1 0 0 -1 0 792)" d="M1003.246 582.646L1003.246 596.213" stroke="#000000" stroke-width="0.398" fill="none" /><path id="132" transform="matrix(1 0 0 -1 0 792)" d="M1062.268 582.646L1062.268 596.213" stroke="#000000" stroke-width="0.398" fill="none" /><path id="134" transform="matrix(1 0 0 -1 0 792)" d="M1118.65 582.646L1118.65 596.213" stroke="#000000" stroke-width="0.398" fill="none" /><path id="135" transform="matrix(1 0 0 -1 0 792)" d="M751.671 582.447L1118.85 582.447" stroke="#000000" stroke-width="0.398" fill="none" /><path id="136" transform="matrix(1 0 0 -1 0 792)" d="M751.87 568.681L751.87 582.248" stroke="#000000" stroke-width="0.398" fill="none" /><path id="143" transform="matrix(1 0 0 -1 0 792)" d="M794.5099 572.963L797.499 572.963" stroke="#000000" stroke-width="0.398" fill="none" /><path id="149" transform="matrix(1 0 0 -1 0 792)" d="M827.985 572.963L830.974 572.963" stroke="#000000" stroke-width="0.398" fill="none" /><path id="155" transform="matrix(1 0 0 -1 0 792)" d="M944.224 568.681L944.224 582.248" stroke="#000000" stroke-width="0.398" fill="none" /><path id="157" transform="matrix(1 0 0 -1 0 792)" d="M1003.246 568.681L1003.246 582.248" stroke="#000000" stroke-width="0.398" fill="none" /><path id="159" transform="matrix(1 0 0 -1 0 792)" d="M1062.268 568.681L1062.268 582.248" stroke="#000000" stroke-width="0.398" fill="none" /><path id="161" transform="matrix(1 0 0 -1 0 792)" d="M1118.65 568.681L1118.65 582.248" stroke="#000000" stroke-width="0.398" fill="none" /><path id="162" transform="matrix(1 0 0 -1 0 792)" d="M751.671 568.482L1118.85 568.482" stroke="#000000" stroke-width="0.398" fill="none" /><path id="163" transform="matrix(1 0 0 -1 0 792)" d="M751.87 554.716L751.87 568.283" stroke="#000000" stroke-width="0.398" fill="none" /><path id="184" transform="matrix(1 0 0 -1 0 792)" d="M944.224 554.716L944.224 568.283" stroke="#000000" stroke-width="0.398" fill="none" /><path id="186" transform="matrix(1 0 0 -1 0 792)" d="M1003.246 554.716L1003.246 568.283" stroke="#000000" stroke-width="0.398" fill="none" /><path id="188" transform="matrix(1 0 0 -1 0 792)" d="M1062.268 554.716L1062.268 568.283" stroke="#000000" stroke-width="0.398" fill="none" /><path id="190" transform="matrix(1 0 0 -1 0 792)" d="M1118.65 554.716L1118.65 568.283" stroke="#000000" stroke-width="0.398" fill="none" /><path id="191" transform="matrix(1 0 0 -1 0 792)" d="M751.671 554.517L1118.85 554.517" stroke="#000000" stroke-width="0.398" fill="none" /><path id="192" transform="matrix(1 0 0 -1 0 792)" d="M751.87 540.751L751.87 554.318" stroke="#000000" stroke-width="0.398" fill="none" /><path id="199" transform="matrix(1 0 0 -1 0 792)" d="M794.5099 545.032L797.499 545.032" stroke="#000000" stroke-width="0.398" fill="none" /><path id="206" transform="matrix(1 0 0 -1 0 792)" d="M833.962 545.032L836.951 545.032" stroke="#000000" stroke-width="0.398" fill="none" /><path id="212" transform="matrix(1 0 0 -1 0 792)" d="M867.437 545.032L870.426 545.032" stroke="#000000" stroke-width="0.398" fill="none" /><path id="218" transform="matrix(1 0 0 -1 0 792)" d="M944.224 540.751L944.224 554.318" stroke="#000000" stroke-width="0.398" fill="none" /><path id="220" transform="matrix(1 0 0 -1 0 792)" d="M1003.246 540.751L1003.246 554.318" stroke="#000000" stroke-width="0.398" fill="none" /><path id="222" transform="matrix(1 0 0 -1 0 792)" d="M1062.268 540.751L1062.268 554.318" stroke="#000000" stroke-width="0.398" fill="none" /><path id="224" transform="matrix(1 0 0 -1 0 792)" d="M1118.65 540.751L1118.65 554.318" stroke="#000000" stroke-width="0.398" fill="none" /><path id="225" transform="matrix(1 0 0 -1 0 792)" d="M751.671 540.552L1118.85 540.552" stroke="#000000" stroke-width="0.398" fill="none" /><path id="226" transform="matrix(1 0 0 -1 0 792)" d="M751.87 526.786L751.87 540.353" stroke="#000000" stroke-width="0.398" fill="none" /><path id="231" transform="matrix(1 0 0 -1 0 792)" d="M782.555 531.067L785.544 531.067" stroke="#000000" stroke-width="0.398" fill="none" /><path id="237" transform="matrix(1 0 0 -1 0 792)" d="M816.03 531.067L819.019 531.067" stroke="#000000" stroke-width="0.398" fill="none" /><path id="243" transform="matrix(1 0 0 -1 0 792)" d="M944.224 526.786L944.224 540.353" stroke="#000000" stroke-width="0.398" fill="none" /><path id="245" transform="matrix(1 0 0 -1 0 792)" d="M1003.246 526.786L1003.246 540.353" stroke="#000000" stroke-width="0.398" fill="none" /><path id="247" transform="matrix(1 0 0 -1 0 792)" d="M1062.268 526.786L1062.268 540.353" stroke="#000000" stroke-width="0.398" fill="none" /><path id="249" transform="matrix(1 0 0 -1 0 792)" d="M1118.65 526.786L1118.65 540.353" stroke="#000000" stroke-width="0.398" fill="none" /><path id="250" transform="matrix(1 0 0 -1 0 792)" d="M751.671 526.586L1118.85 526.586" stroke="#000000" stroke-width="0.398" fill="none" /><path id="251" transform="matrix(1 0 0 -1 0 792)" d="M751.87 512.821L751.87 526.388" stroke="#000000" stroke-width="0.398" fill="none" /><path id="258" transform="matrix(1 0 0 -1 0 792)" d="M794.5099 517.102L797.499 517.102" stroke="#000000" stroke-width="0.398" fill="none" /><path id="263" transform="matrix(1 0 0 -1 0 792)" d="M944.224 512.821L944.224 526.388" stroke="#000000" stroke-width="0.398" fill="none" /><path id="265" transform="matrix(1 0 0 -1 0 792)" d="M1003.246 512.821L1003.246 526.388" stroke="#000000" stroke-width="0.398" fill="none" /><path id="267" transform="matrix(1 0 0 -1 0 792)" d="M1062.268 512.821L1062.268 526.388" stroke="#000000" stroke-width="0.398" fill="none" /><path id="269" transform="matrix(1 0 0 -1 0 792)" d="M1118.65 512.821L1118.65 526.388" stroke="#000000" stroke-width="0.398" fill="none" /><path id="270" transform="matrix(1 0 0 -1 0 792)" d="M751.671 512.621L1118.85 512.621" stroke="#000000" stroke-width="0.398" fill="none" /><path id="271" transform="matrix(1 0 0 -1 0 792)" d="M751.87 498.855L751.87 512.422" stroke="#000000" stroke-width="0.398" fill="none" /><path id="281" transform="matrix(1 0 0 -1 0 792)" d="M812.443 503.137L815.432 503.137" stroke="#000000" stroke-width="0.398" fill="none" /><path id="288" transform="matrix(1 0 0 -1 0 792)" d="M851.895 503.137L854.884 503.137" stroke="#000000" stroke-width="0.398" fill="none" /><path id="296" transform="matrix(1 0 0 -1 0 792)" d="M944.224 498.855L944.224 512.422" stroke="#000000" stroke-width="0.398" fill="none" /><path id="298" transform="matrix(1 0 0 -1 0 792)" d="M1003.246 498.855L1003.246 512.422" stroke="#000000" stroke-width="0.398" fill="none" /><path id="300" transform="matrix(1 0 0 -1 0 792)" d="M1062.268 498.855L1062.268 512.422" stroke="#000000" stroke-width="0.398" fill="none" /><path id="302" transform="matrix(1 0 0 -1 0 792)" d="M1118.65 498.855L1118.65 512.422" stroke="#000000" stroke-width="0.398" fill="none" /><path id="303" transform="matrix(1 0 0 -1 0 792)" d="M751.671 498.656L1118.85 498.656" stroke="#000000" stroke-width="0.398" fill="none" /><path id="304" transform="matrix(1 0 0 -1 0 792)" d="M751.87 484.89L751.87 498.457" stroke="#000000" stroke-width="0.398" fill="none" /><path id="314" transform="matrix(1 0 0 -1 0 792)" d="M812.443 489.172L815.432 489.172" stroke="#000000" stroke-width="0.398" fill="none" /><path id="321" transform="matrix(1 0 0 -1 0 792)" d="M851.895 489.172L854.884 489.172" stroke="#000000" stroke-width="0.398" fill="none" /><path id="326" transform="matrix(1 0 0 -1 0 792)" d="M944.224 484.89L944.224 498.457" stroke="#000000" stroke-width="0.398" fill="none" /><path id="328" transform="matrix(1 0 0 -1 0 792)" d="M1003.246 484.89L1003.246 498.457" stroke="#000000" stroke-width="0.398" fill="none" /><path id="330" transform="matrix(1 0 0 -1 0 792)" d="M1062.268 484.89L1062.268 498.457" stroke="#000000" stroke-width="0.398" fill="none" /><path id="332" transform="matrix(1 0 0 -1 0 792)" d="M1118.65 484.89L1118.65 498.457" stroke="#000000" stroke-width="0.398" fill="none" /><path id="333" transform="matrix(1 0 0 -1 0 792)" d="M751.671 484.691L1118.85 484.691" stroke="#000000" stroke-width="0.398" fill="none" /><path id="334" transform="matrix(1 0 0 -1 0 792)" d="M751.87 470.925L751.87 484.492" stroke="#000000" stroke-width="0.398" fill="none" /><path id="343" transform="matrix(1 0 0 -1 0 792)" d="M806.465 475.207L809.454 475.207" stroke="#000000" stroke-width="0.398" fill="none" /><path id="350" transform="matrix(1 0 0 -1 0 792)" d="M845.917 475.207L848.906 475.207" stroke="#000000" stroke-width="0.398" fill="none" /><path id="358" transform="matrix(1 0 0 -1 0 792)" d="M944.224 470.925L944.224 484.492" stroke="#000000" stroke-width="0.398" fill="none" /><path id="360" transform="matrix(1 0 0 -1 0 792)" d="M1003.246 470.925L1003.246 484.492" stroke="#000000" stroke-width="0.398" fill="none" /><path id="362" transform="matrix(1 0 0 -1 0 792)" d="M1062.268 470.925L1062.268 484.492" stroke="#000000" stroke-width="0.398" fill="none" /><path id="364" transform="matrix(1 0 0 -1 0 792)" d="M1118.65 470.925L1118.65 484.492" stroke="#000000" stroke-width="0.398" fill="none" /><path id="365" transform="matrix(1 0 0 -1 0 792)" d="M751.671 470.726L1118.85 470.726" stroke="#000000" stroke-width="0.398" fill="none" /><path id="366" transform="matrix(1 0 0 -1 0 792)" d="M751.87 456.96L751.87 470.527" stroke="#000000" stroke-width="0.398" fill="none" /><path id="375" transform="matrix(1 0 0 -1 0 792)" d="M806.465 461.241L809.454 461.241" stroke="#000000" stroke-width="0.398" fill="none" /><path id="382" transform="matrix(1 0 0 -1 0 792)" d="M845.917 461.241L848.906 461.241" stroke="#000000" stroke-width="0.398" fill="none" /><path id="387" transform="matrix(1 0 0 -1 0 792)" d="M944.224 456.96L944.224 470.527" stroke="#000000" stroke-width="0.398" fill="none" /><path id="389" transform="matrix(1 0 0 -1 0 792)" d="M1003.246 456.96L1003.246 470.527" stroke="#000000" stroke-width="0.398" fill="none" /><path id="391" transform="matrix(1 0 0 -1 0 792)" d="M1062.268 456.96L1062.268 470.527" stroke="#000000" stroke-width="0.398" fill="none" /><path id="393" transform="matrix(1 0 0 -1 0 792)" d="M1118.65 456.96L1118.65 470.527" stroke="#000000" stroke-width="0.398" fill="none" /><path id="394" transform="matrix(1 0 0 -1 0 792)" d="M751.671 456.761L1118.85 456.761" stroke="#000000" stroke-width="0.398" fill="none" /><path id="395" transform="matrix(1 0 0 -1 0 792)" d="M751.87 442.995L751.87 456.562" stroke="#000000" stroke-width="0.398" fill="none" /><path id="404" transform="matrix(1 0 0 -1 0 792)" d="M806.465 447.276L809.454 447.276" stroke="#000000" stroke-width="0.398" fill="none" /><path id="411" transform="matrix(1 0 0 -1 0 792)" d="M845.917 447.276L848.906 447.276" stroke="#000000" stroke-width="0.398" fill="none" /><path id="416" transform="matrix(1 0 0 -1 0 792)" d="M944.224 442.995L944.224 456.562" stroke="#000000" stroke-width="0.398" fill="none" /><path id="418" transform="matrix(1 0 0 -1 0 792)" d="M1003.246 442.995L1003.246 456.562" stroke="#000000" stroke-width="0.398" fill="none" /><path id="420" transform="matrix(1 0 0 -1 0 792)" d="M1062.268 442.995L1062.268 456.562" stroke="#000000" stroke-width="0.398" fill="none" /><path id="422" transform="matrix(1 0 0 -1 0 792)" d="M1118.65 442.995L1118.65 456.562" stroke="#000000" stroke-width="0.398" fill="none" /><path id="423" transform="matrix(1 0 0 -1 0 792)" d="M751.671 442.796L1118.85 442.796" stroke="#000000" stroke-width="0.398" fill="none" /><path id="424" transform="matrix(1 0 0 -1 0 792)" d="M751.87 429.03L751.87 442.597" stroke="#000000" stroke-width="0.398" fill="none" /><path id="432" transform="matrix(1 0 0 -1 0 792)" d="M800.488 433.311L803.477 433.311" stroke="#000000" stroke-width="0.398" fill="none" /><path id="438" transform="matrix(1 0 0 -1 0 792)" d="M944.224 429.03L944.224 442.597" stroke="#000000" stroke-width="0.398" fill="none" /><path id="440" transform="matrix(1 0 0 -1 0 792)" d="M1003.246 429.03L1003.246 442.597" stroke="#000000" stroke-width="0.398" fill="none" /><path id="442" transform="matrix(1 0 0 -1 0 792)" d="M1062.268 429.03L1062.268 442.597" stroke="#000000" stroke-width="0.398" fill="none" /><path id="444" transform="matrix(1 0 0 -1 0 792)" d="M1118.65 429.03L1118.65 442.597" stroke="#000000" stroke-width="0.398" fill="none" /><path id="445" transform="matrix(1 0 0 -1 0 792)" d="M751.671 428.83L1118.85 428.83" stroke="#000000" stroke-width="0.398" fill="none" /><path id="446" transform="matrix(1 0 0 -1 0 792)" d="M751.87 415.064L751.87 428.631" stroke="#000000" stroke-width="0.398" fill="none" /><path id="466" transform="matrix(1 0 0 -1 0 792)" d="M944.224 415.064L944.224 428.631" stroke="#000000" stroke-width="0.398" fill="none" /><path id="468" transform="matrix(1 0 0 -1 0 792)" d="M1003.246 415.064L1003.246 428.631" stroke="#000000" stroke-width="0.398" fill="none" /><path id="471" transform="matrix(1 0 0 -1 0 792)" d="M1022.595 419.329L1025.584 419.329" stroke="#000000" stroke-width="0.398" fill="none" /><path id="477" transform="matrix(1 0 0 -1 0 792)" d="M1062.268 415.064L1062.268 428.631" stroke="#000000" stroke-width="0.398" fill="none" /><path id="486" transform="matrix(1 0 0 -1 0 792)" d="M1118.65 415.064L1118.65 428.631" stroke="#000000" stroke-width="0.398" fill="none" /><path id="487" transform="matrix(1 0 0 -1 0 792)" d="M751.671 414.865L1118.85 414.865" stroke="#000000" stroke-width="0.398" fill="none" /><path id="488" transform="matrix(1 0 0 -1 0 792)" d="M751.87 401.099L751.87 414.666" stroke="#000000" stroke-width="0.398" fill="none" /><path id="511" transform="matrix(1 0 0 -1 0 792)" d="M944.224 401.099L944.224 414.666" stroke="#000000" stroke-width="0.398" fill="none" /><path id="513" transform="matrix(1 0 0 -1 0 792)" d="M1003.246 401.099L1003.246 414.666" stroke="#000000" stroke-width="0.398" fill="none" /><path id="515" transform="matrix(1 0 0 -1 0 792)" d="M1062.268 401.099L1062.268 414.666" stroke="#000000" stroke-width="0.398" fill="none" /><path id="517" transform="matrix(1 0 0 -1 0 792)" d="M1118.65 401.099L1118.65 414.666" stroke="#000000" stroke-width="0.398" fill="none" /><path id="518" transform="matrix(1 0 0 -1 0 792)" d="M751.671 400.9L1118.85 400.9" stroke="#000000" stroke-width="0.398" fill="none" /><path id="542" transform="matrix(1 0 0 -1 0 792)" d="M710.533 300.679L1159.988 300.679" stroke="#000000" stroke-width="0.398" fill="none" /><path id="543" transform="matrix(1 0 0 -1 0 792)" d="M710.732 286.913L710.732 300.48" stroke="#000000" stroke-width="0.398" fill="none" /><path id="544" transform="matrix(1 0 0 -1 0 792)" d="M710.931 286.913L902.886 286.913L902.886 300.48L710.931 300.48z" stroke="none" fill="#CCCCEB" fill-rule="nonzero" /><path id="550" transform="matrix(1 0 0 -1 0 792)" d="M903.086 286.913L903.086 300.48" stroke="#000000" stroke-width="0.398" fill="none" /><path id="551" transform="matrix(1 0 0 -1 0 792)" d="M903.285 286.913L961.909 286.913L961.909 300.48L903.285 300.48z" stroke="none" fill="#CCCCEB" fill-rule="nonzero" /><path id="561" transform="matrix(1 0 0 -1 0 792)" d="M962.108 286.913L962.108 300.48" stroke="#000000" stroke-width="0.398" fill="none" /><path id="562" transform="matrix(1 0 0 -1 0 792)" d="M962.307 286.913L1020.931 286.913L1020.931 300.48L962.307 300.48z" stroke="none" fill="#CCCCEB" fill-rule="nonzero" /><path id="570" transform="matrix(1 0 0 -1 0 792)" d="M1021.13 286.913L1021.13 300.48" stroke="#000000" stroke-width="0.398" fill="none" /><path id="571" transform="matrix(1 0 0 -1 0 792)" d="M1021.329 286.913L1159.589 286.913L1159.589 300.48L1021.329 300.48z" stroke="none" fill="#CCCCEB" fill-rule="nonzero" /><path id="575" transform="matrix(1 0 0 -1 0 792)" d="M1159.789 286.913L1159.789 300.48" stroke="#000000" stroke-width="0.398" fill="none" /><path id="576" transform="matrix(1 0 0 -1 0 792)" d="M710.732 273.346L710.732 286.913" stroke="#000000" stroke-width="0.398" fill="none" /><path id="577" transform="matrix(1 0 0 -1 0 792)" d="M710.931 273.346L902.886 273.346L902.886 286.913L710.931 286.913z" stroke="none" fill="#CCCCEB" fill-rule="nonzero" /><path id="578" transform="matrix(1 0 0 -1 0 792)" d="M903.086 273.346L903.086 286.913" stroke="#000000" stroke-width="0.398" fill="none" /><path id="579" transform="matrix(1 0 0 -1 0 792)" d="M903.285 273.346L961.909 273.346L961.909 286.913L903.285 286.913z" stroke="none" fill="#CCCCEB" fill-rule="nonzero" /><path id="580" transform="matrix(1 0 0 -1 0 792)" d="M962.108 273.346L962.108 286.913" stroke="#000000" stroke-width="0.398" fill="none" /><path id="581" transform="matrix(1 0 0 -1 0 792)" d="M962.307 273.346L1020.931 273.346L1020.931 286.913L962.307 286.913z" stroke="none" fill="#CCCCEB" fill-rule="nonzero" /><path id="587" transform="matrix(1 0 0 -1 0 792)" d="M1021.13 273.346L1021.13 286.913" stroke="#000000" stroke-width="0.398" fill="none" /><path id="588" transform="matrix(1 0 0 -1 0 792)" d="M1021.329 273.346L1159.589 273.346L1159.589 286.913L1021.329 286.913z" stroke="none" fill="#CCCCEB" fill-rule="nonzero" /><path id="589" transform="matrix(1 0 0 -1 0 792)" d="M1159.789 273.346L1159.789 286.913" stroke="#000000" stroke-width="0.398" fill="none" /><path id="590" transform="matrix(1 0 0 -1 0 792)" d="M710.533 273.147L1159.988 273.147" stroke="#000000" stroke-width="0.398" fill="none" /><path id="591" transform="matrix(1 0 0 -1 0 792)" d="M710.533 270.756L1159.988 270.756" stroke="#000000" stroke-width="0.398" fill="none" /><path id="592" transform="matrix(1 0 0 -1 0 792)" d="M710.732 256.99L710.732 270.557" stroke="#000000" stroke-width="0.398" fill="none" /><path id="605" transform="matrix(1 0 0 -1 0 792)" d="M789.238 261.271L792.227 261.271" stroke="#000000" stroke-width="0.398" fill="none" /><path id="613" transform="matrix(1 0 0 -1 0 792)" d="M903.086 256.99L903.086 270.557" stroke="#000000" stroke-width="0.398" fill="none" /><path id="615" transform="matrix(1 0 0 -1 0 792)" d="M962.108 256.99L962.108 270.557" stroke="#000000" stroke-width="0.398" fill="none" /><path id="617" transform="matrix(1 0 0 -1 0 792)" d="M1021.13 256.99L1021.13 270.557" stroke="#000000" stroke-width="0.398" fill="none" /><path id="629" transform="matrix(1 0 0 -1 0 792)" d="M1159.789 256.99L1159.789 270.557" stroke="#000000" stroke-width="0.398" fill="none" /><path id="630" transform="matrix(1 0 0 -1 0 792)" d="M710.533 256.791L1159.988 256.791" stroke="#000000" stroke-width="0.398" fill="none" /><path id="631" transform="matrix(1 0 0 -1 0 792)" d="M710.732 243.025L710.732 256.592" stroke="#000000" stroke-width="0.398" fill="none" /><path id="644" transform="matrix(1 0 0 -1 0 792)" d="M789.238 247.306L792.227 247.306" stroke="#000000" stroke-width="0.398" fill="none" /><path id="650" transform="matrix(1 0 0 -1 0 792)" d="M903.086 243.025L903.086 256.592" stroke="#000000" stroke-width="0.398" fill="none" /><path id="652" transform="matrix(1 0 0 -1 0 792)" d="M962.108 243.025L962.108 256.592" stroke="#000000" stroke-width="0.398" fill="none" /><path id="654" transform="matrix(1 0 0 -1 0 792)" d="M1021.13 243.025L1021.13 256.592" stroke="#000000" stroke-width="0.398" fill="none" /><path id="681" transform="matrix(1 0 0 -1 0 792)" d="M1159.789 243.025L1159.789 256.592" stroke="#000000" stroke-width="0.398" fill="none" /><path id="682" transform="matrix(1 0 0 -1 0 792)" d="M710.533 242.825L1159.988 242.825" stroke="#000000" stroke-width="0.398" fill="none" /><path id="683" transform="matrix(1 0 0 -1 0 792)" d="M710.732 229.06L710.732 242.627" stroke="#000000" stroke-width="0.398" fill="none" /><path id="696" transform="matrix(1 0 0 -1 0 792)" d="M789.238 233.341L792.227 233.341" stroke="#000000" stroke-width="0.398" fill="none" /><path id="703" transform="matrix(1 0 0 -1 0 792)" d="M903.086 229.06L903.086 242.627" stroke="#000000" stroke-width="0.398" fill="none" /><path id="705" transform="matrix(1 0 0 -1 0 792)" d="M962.108 229.06L962.108 242.627" stroke="#000000" stroke-width="0.398" fill="none" /><path id="707" transform="matrix(1 0 0 -1 0 792)" d="M1021.13 229.06L1021.13 242.627" stroke="#000000" stroke-width="0.398" fill="none" /><path id="734" transform="matrix(1 0 0 -1 0 792)" d="M1159.789 229.06L1159.789 242.627" stroke="#000000" stroke-width="0.398" fill="none" /><path id="735" transform="matrix(1 0 0 -1 0 792)" d="M710.533 228.86L1159.988 228.86" stroke="#000000" stroke-width="0.398" fill="none" /><path id="736" transform="matrix(1 0 0 -1 0 792)" d="M710.732 215.094L710.732 228.661" stroke="#000000" stroke-width="0.398" fill="none" /><path id="749" transform="matrix(1 0 0 -1 0 792)" d="M789.238 219.376L792.227 219.376" stroke="#000000" stroke-width="0.398" fill="none" /><path id="758" transform="matrix(1 0 0 -1 0 792)" d="M840.645 219.376L843.634 219.376" stroke="#000000" stroke-width="0.398" fill="none" /><path id="765" transform="matrix(1 0 0 -1 0 792)" d="M903.086 215.094L903.086 228.661" stroke="#000000" stroke-width="0.398" fill="none" /><path id="767" transform="matrix(1 0 0 -1 0 792)" d="M962.108 215.094L962.108 228.661" stroke="#000000" stroke-width="0.398" fill="none" /><path id="773" transform="matrix(1 0 0 -1 0 792)" d="M1021.13 215.094L1021.13 228.661" stroke="#000000" stroke-width="0.398" fill="none" /><path id="800" transform="matrix(1 0 0 -1 0 792)" d="M1159.789 215.094L1159.789 228.661" stroke="#000000" stroke-width="0.398" fill="none" /><path id="801" transform="matrix(1 0 0 -1 0 792)" d="M710.533 214.895L1159.988 214.895" stroke="#000000" stroke-width="0.398" fill="none" /><path id="802" transform="matrix(1 0 0 -1 0 792)" d="M710.732 201.129L710.732 214.696" stroke="#000000" stroke-width="0.398" fill="none" /><path id="815" transform="matrix(1 0 0 -1 0 792)" d="M789.238 205.411L792.227 205.411" stroke="#000000" stroke-width="0.398" fill="none" /><path id="819" transform="matrix(1 0 0 -1 0 792)" d="M810.757 205.411L813.746 205.411" stroke="#000000" stroke-width="0.398" fill="none" /><path id="824" transform="matrix(1 0 0 -1 0 792)" d="M903.086 201.129L903.086 214.696" stroke="#000000" stroke-width="0.398" fill="none" /><path id="826" transform="matrix(1 0 0 -1 0 792)" d="M962.108 201.129L962.108 214.696" stroke="#000000" stroke-width="0.398" fill="none" /><path id="828" transform="matrix(1 0 0 -1 0 792)" d="M1021.13 201.129L1021.13 214.696" stroke="#000000" stroke-width="0.398" fill="none" /><path id="855" transform="matrix(1 0 0 -1 0 792)" d="M1159.789 201.129L1159.789 214.696" stroke="#000000" stroke-width="0.398" fill="none" /><path id="856" transform="matrix(1 0 0 -1 0 792)" d="M710.533 200.93L1159.988 200.93" stroke="#000000" stroke-width="0.398" fill="none" /><path id="857" transform="matrix(1 0 0 -1 0 792)" d="M710.732 187.164L710.732 200.731" stroke="#000000" stroke-width="0.398" fill="none" /><path id="870" transform="matrix(1 0 0 -1 0 792)" d="M789.238 191.446L792.227 191.446" stroke="#000000" stroke-width="0.398" fill="none" /><path id="876" transform="matrix(1 0 0 -1 0 792)" d="M822.712 191.446L825.701 191.446" stroke="#000000" stroke-width="0.398" fill="none" /><path id="881" transform="matrix(1 0 0 -1 0 792)" d="M903.086 187.164L903.086 200.731" stroke="#000000" stroke-width="0.398" fill="none" /><path id="883" transform="matrix(1 0 0 -1 0 792)" d="M962.108 187.164L962.108 200.731" stroke="#000000" stroke-width="0.398" fill="none" /><path id="885" transform="matrix(1 0 0 -1 0 792)" d="M1021.13 187.164L1021.13 200.731" stroke="#000000" stroke-width="0.398" fill="none" /><path id="912" transform="matrix(1 0 0 -1 0 792)" d="M1159.789 187.164L1159.789 200.731" stroke="#000000" stroke-width="0.398" fill="none" /><path id="913" transform="matrix(1 0 0 -1 0 792)" d="M710.533 186.965L1159.988 186.965" stroke="#000000" stroke-width="0.398" fill="none" /><path id="914" transform="matrix(1 0 0 -1 0 792)" d="M710.732 173.199L710.732 186.766" stroke="#000000" stroke-width="0.398" fill="none" /><path id="927" transform="matrix(1 0 0 -1 0 792)" d="M789.238 177.48L792.227 177.48" stroke="#000000" stroke-width="0.398" fill="none" /><path id="932" transform="matrix(1 0 0 -1 0 792)" d="M816.7339 177.48L819.723 177.48" stroke="#000000" stroke-width="0.398" fill="none" /><path id="937" transform="matrix(1 0 0 -1 0 792)" d="M903.086 173.199L903.086 186.766" stroke="#000000" stroke-width="0.398" fill="none" /><path id="939" transform="matrix(1 0 0 -1 0 792)" d="M962.108 173.199L962.108 186.766" stroke="#000000" stroke-width="0.398" fill="none" /><path id="941" transform="matrix(1 0 0 -1 0 792)" d="M1021.13 173.199L1021.13 186.766" stroke="#000000" stroke-width="0.398" fill="none" /><path id="968" transform="matrix(1 0 0 -1 0 792)" d="M1159.789 173.199L1159.789 186.766" stroke="#000000" stroke-width="0.398" fill="none" /><path id="969" transform="matrix(1 0 0 -1 0 792)" d="M710.533 173L1159.988 173" stroke="#000000" stroke-width="0.398" fill="none" /><path id="970" transform="matrix(1 0 0 -1 0 792)" d="M710.732 159.234L710.732 172.801" stroke="#000000" stroke-width="0.398" fill="none" /><path id="983" transform="matrix(1 0 0 -1 0 792)" d="M789.238 163.515L792.227 163.515" stroke="#000000" stroke-width="0.398" fill="none" /><path id="989" transform="matrix(1 0 0 -1 0 792)" d="M822.712 163.515L825.701 163.515" stroke="#000000" stroke-width="0.398" fill="none" /><path id="994" transform="matrix(1 0 0 -1 0 792)" d="M903.086 159.234L903.086 172.801" stroke="#000000" stroke-width="0.398" fill="none" /><path id="996" transform="matrix(1 0 0 -1 0 792)" d="M962.108 159.234L962.108 172.801" stroke="#000000" stroke-width="0.398" fill="none" /><path id="998" transform="matrix(1 0 0 -1 0 792)" d="M1021.13 159.234L1021.13 172.801" stroke="#000000" stroke-width="0.398" fill="none" /><path id="1025" transform="matrix(1 0 0 -1 0 792)" d="M1159.789 159.234L1159.789 172.801" stroke="#000000" stroke-width="0.398" fill="none" /><path id="1026" transform="matrix(1 0 0 -1 0 792)" d="M710.533 159.035L1159.988 159.035" stroke="#000000" stroke-width="0.398" fill="none" /><path id="1027" transform="matrix(1 0 0 -1 0 792)" d="M710.732 145.269L710.732 158.836" stroke="#000000" stroke-width="0.398" fill="none" /><path id="1040" transform="matrix(1 0 0 -1 0 792)" d="M789.238 149.55L792.227 149.55" stroke="#000000" stroke-width="0.398" fill="none" /><path id="1046" transform="matrix(1 0 0 -1 0 792)" d="M822.712 149.55L825.701 149.55" stroke="#000000" stroke-width="0.398" fill="none" /><path id="1051" transform="matrix(1 0 0 -1 0 792)" d="M903.086 145.269L903.086 158.836" stroke="#000000" stroke-width="0.398" fill="none" /><path id="1053" transform="matrix(1 0 0 -1 0 792)" d="M962.108 145.269L962.108 158.836" stroke="#000000" stroke-width="0.398" fill="none" /><path id="1055" transform="matrix(1 0 0 -1 0 792)" d="M1021.13 145.269L1021.13 158.836" stroke="#000000" stroke-width="0.398" fill="none" /><path id="1082" transform="matrix(1 0 0 -1 0 792)" d="M1159.789 145.269L1159.789 158.836" stroke="#000000" stroke-width="0.398" fill="none" /><path id="1083" transform="matrix(1 0 0 -1 0 792)" d="M710.533 145.069L1159.988 145.069" stroke="#000000" stroke-width="0.398" fill="none" /><path id="1084" transform="matrix(1 0 0 -1 0 792)" d="M710.732 131.304L710.732 144.871" stroke="#000000" stroke-width="0.398" fill="none" /><path id="1097" transform="matrix(1 0 0 -1 0 792)" d="M789.238 135.585L792.227 135.585" stroke="#000000" stroke-width="0.398" fill="none" /><path id="1105" transform="matrix(1 0 0 -1 0 792)" d="M834.667 135.585L837.656 135.585" stroke="#000000" stroke-width="0.398" fill="none" /><path id="1110" transform="matrix(1 0 0 -1 0 792)" d="M903.086 131.304L903.086 144.871" stroke="#000000" stroke-width="0.398" fill="none" /><path id="1112" transform="matrix(1 0 0 -1 0 792)" d="M962.108 131.304L962.108 144.871" stroke="#000000" stroke-width="0.398" fill="none" /><path id="1114" transform="matrix(1 0 0 -1 0 792)" d="M1021.13 131.304L1021.13 144.871" stroke="#000000" stroke-width="0.398" fill="none" /><path id="1141" transform="matrix(1 0 0 -1 0 792)" d="M1159.789 131.304L1159.789 144.871" stroke="#000000" stroke-width="0.398" fill="none" /><path id="1142" transform="matrix(1 0 0 -1 0 792)" d="M710.533 131.104L1159.988 131.104" stroke="#000000" stroke-width="0.398" fill="none" /><path id="1180" transform="matrix(1 0 0 -1 0 792)" d="M701.933 722.529L1168.588 722.529L1168.588 722.529L1168.588 735.6745L1168.588 735.6745L701.933 735.6745z" stroke="#FFFFFF" stroke-width="1" fill="#FFFFFF" fill-rule="nonzero" /><path id="1231" transform="matrix(1 0 0 -1 0 792)" d="M89.933 721.28L556.588 721.28" stroke="#000000" stroke-width="0.498" fill="none" /><path id="1232" transform="matrix(1 0 0 -1 0 792)" d="M139.671 668.23L506.85 668.23" stroke="#000000" stroke-width="0.398" fill="none" /><path id="1233" transform="matrix(1 0 0 -1 0 792)" d="M139.87 654.465L139.87 668.032" stroke="#000000" stroke-width="0.398" fill="none" /><path id="1234" transform="matrix(1 0 0 -1 0 792)" d="M140.069 654.465L332.024 654.465L332.024 668.032L140.069 668.032z" stroke="none" fill="#CCCCEB" fill-rule="nonzero" /><path id="1240" transform="matrix(1 0 0 -1 0 792)" d="M332.224 654.465L332.224 668.032" stroke="#000000" stroke-width="0.398" fill="none" /><path id="1241" transform="matrix(1 0 0 -1 0 792)" d="M332.423 654.465L391.047 654.465L391.047 668.032L332.423 668.032z" stroke="none" fill="#CCCCEB" fill-rule="nonzero" /><path id="1251" transform="matrix(1 0 0 -1 0 792)" d="M391.246 654.465L391.246 668.032" stroke="#000000" stroke-width="0.398" fill="none" /><path id="1252" transform="matrix(1 0 0 -1 0 792)" d="M391.445 654.465L450.069 654.465L450.069 668.032L391.445 668.032z" stroke="none" fill="#CCCCEB" fill-rule="nonzero" /><path id="1260" transform="matrix(1 0 0 -1 0 792)" d="M450.268 654.465L450.268 668.032" stroke="#000000" stroke-width="0.398" fill="none" /><path id="1261" transform="matrix(1 0 0 -1 0 792)" d="M450.467 654.465L506.451 654.465L506.451 668.032L450.467 668.032z" stroke="none" fill="#CCCCEB" fill-rule="nonzero" /><path id="1265" transform="matrix(1 0 0 -1 0 792)" d="M506.65 654.465L506.65 668.032" stroke="#000000" stroke-width="0.398" fill="none" /><path id="1266" transform="matrix(1 0 0 -1 0 792)" d="M139.87 640.898L139.87 654.465" stroke="#000000" stroke-width="0.398" fill="none" /><path id="1267" transform="matrix(1 0 0 -1 0 792)" d="M140.069 640.898L332.024 640.898L332.024 654.465L140.069 654.465z" stroke="none" fill="#CCCCEB" fill-rule="nonzero" /><path id="1268" transform="matrix(1 0 0 -1 0 792)" d="M332.224 640.898L332.224 654.465" stroke="#000000" stroke-width="0.398" fill="none" /><path id="1269" transform="matrix(1 0 0 -1 0 792)" d="M332.423 640.898L391.047 640.898L391.047 654.465L332.423 654.465z" stroke="none" fill="#CCCCEB" fill-rule="nonzero" /><path id="1270" transform="matrix(1 0 0 -1 0 792)" d="M391.246 640.898L391.246 654.465" stroke="#000000" stroke-width="0.398" fill="none" /><path id="1271" transform="matrix(1 0 0 -1 0 792)" d="M391.445 640.898L450.069 640.898L450.069 654.465L391.445 654.465z" stroke="none" fill="#CCCCEB" fill-rule="nonzero" /><path id="1277" transform="matrix(1 0 0 -1 0 792)" d="M450.268 640.898L450.268 654.465" stroke="#000000" stroke-width="0.398" fill="none" /><path id="1278" transform="matrix(1 0 0 -1 0 792)" d="M450.467 640.898L506.451 640.898L506.451 654.465L450.467 654.465z" stroke="none" fill="#CCCCEB" fill-rule="nonzero" /><path id="1279" transform="matrix(1 0 0 -1 0 792)" d="M506.65 640.898L506.65 654.465" stroke="#000000" stroke-width="0.398" fill="none" /><path id="1280" transform="matrix(1 0 0 -1 0 792)" d="M139.671 640.699L506.85 640.699" stroke="#000000" stroke-width="0.398" fill="none" /><path id="1281" transform="matrix(1 0 0 -1 0 792)" d="M139.671 638.308L506.85 638.308" stroke="#000000" stroke-width="0.398" fill="none" /><path id="1282" transform="matrix(1 0 0 -1 0 792)" d="M139.87 624.542L139.87 638.109" stroke="#000000" stroke-width="0.398" fill="none" /><path id="1287" transform="matrix(1 0 0 -1 0 792)" d="M170.555 628.823L173.544 628.823" stroke="#000000" stroke-width="0.398" fill="none" /><path id="1292" transform="matrix(1 0 0 -1 0 792)" d="M332.224 624.542L332.224 638.109" stroke="#000000" stroke-width="0.398" fill="none" /><path id="1294" transform="matrix(1 0 0 -1 0 792)" d="M391.246 624.542L391.246 638.109" stroke="#000000" stroke-width="0.398" fill="none" /><path id="1296" transform="matrix(1 0 0 -1 0 792)" d="M450.268 624.542L450.268 638.109" stroke="#000000" stroke-width="0.398" fill="none" /><path id="1298" transform="matrix(1 0 0 -1 0 792)" d="M506.65 624.542L506.65 638.109" stroke="#000000" stroke-width="0.398" fill="none" /><path id="1299" transform="matrix(1 0 0 -1 0 792)" d="M139.671 624.342L506.85 624.342" stroke="#000000" stroke-width="0.398" fill="none" /><path id="1300" transform="matrix(1 0 0 -1 0 792)" d="M139.87 610.577L139.87 624.144" stroke="#000000" stroke-width="0.398" fill="none" /><path id="1305" transform="matrix(1 0 0 -1 0 792)" d="M170.555 614.858L173.544 614.858" stroke="#000000" stroke-width="0.398" fill="none" /><path id="1311" transform="matrix(1 0 0 -1 0 792)" d="M332.224 610.577L332.224 624.144" stroke="#000000" stroke-width="0.398" fill="none" /><path id="1313" transform="matrix(1 0 0 -1 0 792)" d="M391.246 610.577L391.246 624.144" stroke="#000000" stroke-width="0.398" fill="none" /><path id="1315" transform="matrix(1 0 0 -1 0 792)" d="M450.268 610.577L450.268 624.144" stroke="#000000" stroke-width="0.398" fill="none" /><path id="1317" transform="matrix(1 0 0 -1 0 792)" d="M506.65 610.577L506.65 624.144" stroke="#000000" stroke-width="0.398" fill="none" /><path id="1318" transform="matrix(1 0 0 -1 0 792)" d="M139.671 610.377L506.85 610.377" stroke="#000000" stroke-width="0.398" fill="none" /><path id="1319" transform="matrix(1 0 0 -1 0 792)" d="M139.87 596.611L139.87 610.178" stroke="#000000" stroke-width="0.398" fill="none" /><path id="1324" transform="matrix(1 0 0 -1 0 792)" d="M170.555 600.893L173.544 600.893" stroke="#000000" stroke-width="0.398" fill="none" /><path id="1329" transform="matrix(1 0 0 -1 0 792)" d="M332.224 596.611L332.224 610.178" stroke="#000000" stroke-width="0.398" fill="none" /><path id="1331" transform="matrix(1 0 0 -1 0 792)" d="M391.246 596.611L391.246 610.178" stroke="#000000" stroke-width="0.398" fill="none" /><path id="1333" transform="matrix(1 0 0 -1 0 792)" d="M450.268 596.611L450.268 610.178" stroke="#000000" stroke-width="0.398" fill="none" /><path id="1335" transform="matrix(1 0 0 -1 0 792)" d="M506.65 596.611L506.65 610.178" stroke="#000000" stroke-width="0.398" fill="none" /><path id="1336" transform="matrix(1 0 0 -1 0 792)" d="M139.671 596.412L506.85 596.412" stroke="#000000" stroke-width="0.398" fill="none" /><path id="1337" transform="matrix(1 0 0 -1 0 792)" d="M139.87 582.646L139.87 596.213" stroke="#000000" stroke-width="0.398" fill="none" /><path id="1358" transform="matrix(1 0 0 -1 0 792)" d="M332.224 582.646L332.224 596.213" stroke="#000000" stroke-width="0.398" fill="none" /><path id="1360" transform="matrix(1 0 0 -1 0 792)" d="M391.246 582.646L391.246 596.213" stroke="#000000" stroke-width="0.398" fill="none" /><path id="1362" transform="matrix(1 0 0 -1 0 792)" d="M450.268 582.646L450.268 596.213" stroke="#000000" stroke-width="0.398" fill="none" /><path id="1364" transform="matrix(1 0 0 -1 0 792)" d="M506.65 582.646L506.65 596.213" stroke="#000000" stroke-width="0.398" fill="none" /><path id="1365" transform="matrix(1 0 0 -1 0 792)" d="M139.671 582.447L506.85 582.447" stroke="#000000" stroke-width="0.398" fill="none" /><path id="1366" transform="matrix(1 0 0 -1 0 792)" d="M139.87 568.681L139.87 582.248" stroke="#000000" stroke-width="0.398" fill="none" /><path id="1373" transform="matrix(1 0 0 -1 0 792)" d="M182.51 572.963L185.499 572.963" stroke="#000000" stroke-width="0.398" fill="none" /><path id="1379" transform="matrix(1 0 0 -1 0 792)" d="M215.985 572.963L218.974 572.963" stroke="#000000" stroke-width="0.398" fill="none" /><path id="1385" transform="matrix(1 0 0 -1 0 792)" d="M332.224 568.681L332.224 582.248" stroke="#000000" stroke-width="0.398" fill="none" /><path id="1387" transform="matrix(1 0 0 -1 0 792)" d="M391.246 568.681L391.246 582.248" stroke="#000000" stroke-width="0.398" fill="none" /><path id="1389" transform="matrix(1 0 0 -1 0 792)" d="M450.268 568.681L450.268 582.248" stroke="#000000" stroke-width="0.398" fill="none" /><path id="1391" transform="matrix(1 0 0 -1 0 792)" d="M506.65 568.681L506.65 582.248" stroke="#000000" stroke-width="0.398" fill="none" /><path id="1392" transform="matrix(1 0 0 -1 0 792)" d="M139.671 568.482L506.85 568.482" stroke="#000000" stroke-width="0.398" fill="none" /><path id="1393" transform="matrix(1 0 0 -1 0 792)" d="M139.87 554.716L139.87 568.283" stroke="#000000" stroke-width="0.398" fill="none" /><path id="1414" transform="matrix(1 0 0 -1 0 792)" d="M332.224 554.716L332.224 568.283" stroke="#000000" stroke-width="0.398" fill="none" /><path id="1416" transform="matrix(1 0 0 -1 0 792)" d="M391.246 554.716L391.246 568.283" stroke="#000000" stroke-width="0.398" fill="none" /><path id="1418" transform="matrix(1 0 0 -1 0 792)" d="M450.268 554.716L450.268 568.283" stroke="#000000" stroke-width="0.398" fill="none" /><path id="1420" transform="matrix(1 0 0 -1 0 792)" d="M506.65 554.716L506.65 568.283" stroke="#000000" stroke-width="0.398" fill="none" /><path id="1421" transform="matrix(1 0 0 -1 0 792)" d="M139.671 554.517L506.85 554.517" stroke="#000000" stroke-width="0.398" fill="none" /><path id="1422" transform="matrix(1 0 0 -1 0 792)" d="M139.87 540.751L139.87 554.318" stroke="#000000" stroke-width="0.398" fill="none" /><path id="1429" transform="matrix(1 0 0 -1 0 792)" d="M182.51 545.032L185.499 545.032" stroke="#000000" stroke-width="0.398" fill="none" /><path id="1436" transform="matrix(1 0 0 -1 0 792)" d="M221.962 545.032L224.951 545.032" stroke="#000000" stroke-width="0.398" fill="none" /><path id="1442" transform="matrix(1 0 0 -1 0 792)" d="M255.437 545.032L258.426 545.032" stroke="#000000" stroke-width="0.398" fill="none" /><path id="1448" transform="matrix(1 0 0 -1 0 792)" d="M332.224 540.751L332.224 554.318" stroke="#000000" stroke-width="0.398" fill="none" /><path id="1450" transform="matrix(1 0 0 -1 0 792)" d="M391.246 540.751L391.246 554.318" stroke="#000000" stroke-width="0.398" fill="none" /><path id="1452" transform="matrix(1 0 0 -1 0 792)" d="M450.268 540.751L450.268 554.318" stroke="#000000" stroke-width="0.398" fill="none" /><path id="1454" transform="matrix(1 0 0 -1 0 792)" d="M506.65 540.751L506.65 554.318" stroke="#000000" stroke-width="0.398" fill="none" /><path id="1455" transform="matrix(1 0 0 -1 0 792)" d="M139.671 540.552L506.85 540.552" stroke="#000000" stroke-width="0.398" fill="none" /><path id="1456" transform="matrix(1 0 0 -1 0 792)" d="M139.87 526.786L139.87 540.353" stroke="#000000" stroke-width="0.398" fill="none" /><path id="1461" transform="matrix(1 0 0 -1 0 792)" d="M170.555 531.067L173.544 531.067" stroke="#000000" stroke-width="0.398" fill="none" /><path id="1467" transform="matrix(1 0 0 -1 0 792)" d="M204.03 531.067L207.019 531.067" stroke="#000000" stroke-width="0.398" fill="none" /><path id="1473" transform="matrix(1 0 0 -1 0 792)" d="M332.224 526.786L332.224 540.353" stroke="#000000" stroke-width="0.398" fill="none" /><path id="1475" transform="matrix(1 0 0 -1 0 792)" d="M391.246 526.786L391.246 540.353" stroke="#000000" stroke-width="0.398" fill="none" /><path id="1477" transform="matrix(1 0 0 -1 0 792)" d="M450.268 526.786L450.268 540.353" stroke="#000000" stroke-width="0.398" fill="none" /><path id="1479" transform="matrix(1 0 0 -1 0 792)" d="M506.65 526.786L506.65 540.353" stroke="#000000" stroke-width="0.398" fill="none" /><path id="1480" transform="matrix(1 0 0 -1 0 792)" d="M139.671 526.586L506.85 526.586" stroke="#000000" stroke-width="0.398" fill="none" /><path id="1481" transform="matrix(1 0 0 -1 0 792)" d="M139.87 512.821L139.87 526.388" stroke="#000000" stroke-width="0.398" fill="none" /><path id="1488" transform="matrix(1 0 0 -1 0 792)" d="M182.51 517.102L185.499 517.102" stroke="#000000" stroke-width="0.398" fill="none" /><path id="1493" transform="matrix(1 0 0 -1 0 792)" d="M332.224 512.821L332.224 526.388" stroke="#000000" stroke-width="0.398" fill="none" /><path id="1495" transform="matrix(1 0 0 -1 0 792)" d="M391.246 512.821L391.246 526.388" stroke="#000000" stroke-width="0.398" fill="none" /><path id="1497" transform="matrix(1 0 0 -1 0 792)" d="M450.268 512.821L450.268 526.388" stroke="#000000" stroke-width="0.398" fill="none" /><path id="1499" transform="matrix(1 0 0 -1 0 792)" d="M506.65 512.821L506.65 526.388" stroke="#000000" stroke-width="0.398" fill="none" /><path id="1500" transform="matrix(1 0 0 -1 0 792)" d="M139.671 512.621L506.85 512.621" stroke="#000000" stroke-width="0.398" fill="none" /><path id="1501" transform="matrix(1 0 0 -1 0 792)" d="M139.87 498.855L139.87 512.422" stroke="#000000" stroke-width="0.398" fill="none" /><path id="1511" transform="matrix(1 0 0 -1 0 792)" d="M200.443 503.137L203.432 503.137" stroke="#000000" stroke-width="0.398" fill="none" /><path id="1518" transform="matrix(1 0 0 -1 0 792)" d="M239.895 503.137L242.884 503.137" stroke="#000000" stroke-width="0.398" fill="none" /><path id="1526" transform="matrix(1 0 0 -1 0 792)" d="M332.224 498.855L332.224 512.422" stroke="#000000" stroke-width="0.398" fill="none" /><path id="1528" transform="matrix(1 0 0 -1 0 792)" d="M391.246 498.855L391.246 512.422" stroke="#000000" stroke-width="0.398" fill="none" /><path id="1530" transform="matrix(1 0 0 -1 0 792)" d="M450.268 498.855L450.268 512.422" stroke="#000000" stroke-width="0.398" fill="none" /><path id="1532" transform="matrix(1 0 0 -1 0 792)" d="M506.65 498.855L506.65 512.422" stroke="#000000" stroke-width="0.398" fill="none" /><path id="1533" transform="matrix(1 0 0 -1 0 792)" d="M139.671 498.656L506.85 498.656" stroke="#000000" stroke-width="0.398" fill="none" /><path id="1534" transform="matrix(1 0 0 -1 0 792)" d="M139.87 484.89L139.87 498.457" stroke="#000000" stroke-width="0.398" fill="none" /><path id="1544" transform="matrix(1 0 0 -1 0 792)" d="M200.443 489.172L203.432 489.172" stroke="#000000" stroke-width="0.398" fill="none" /><path id="1551" transform="matrix(1 0 0 -1 0 792)" d="M239.895 489.172L242.884 489.172" stroke="#000000" stroke-width="0.398" fill="none" /><path id="1556" transform="matrix(1 0 0 -1 0 792)" d="M332.224 484.89L332.224 498.457" stroke="#000000" stroke-width="0.398" fill="none" /><path id="1558" transform="matrix(1 0 0 -1 0 792)" d="M391.246 484.89L391.246 498.457" stroke="#000000" stroke-width="0.398" fill="none" /><path id="1560" transform="matrix(1 0 0 -1 0 792)" d="M450.268 484.89L450.268 498.457" stroke="#000000" stroke-width="0.398" fill="none" /><path id="1562" transform="matrix(1 0 0 -1 0 792)" d="M506.65 484.89L506.65 498.457" stroke="#000000" stroke-width="0.398" fill="none" /><path id="1563" transform="matrix(1 0 0 -1 0 792)" d="M139.671 484.691L506.85 484.691" stroke="#000000" stroke-width="0.398" fill="none" /><path id="1564" transform="matrix(1 0 0 -1 0 792)" d="M139.87 470.925L139.87 484.492" stroke="#000000" stroke-width="0.398" fill="none" /><path id="1573" transform="matrix(1 0 0 -1 0 792)" d="M194.465 475.207L197.454 475.207" stroke="#000000" stroke-width="0.398" fill="none" /><path id="1580" transform="matrix(1 0 0 -1 0 792)" d="M233.917 475.207L236.906 475.207" stroke="#000000" stroke-width="0.398" fill="none" /><path id="1588" transform="matrix(1 0 0 -1 0 792)" d="M332.224 470.925L332.224 484.492" stroke="#000000" stroke-width="0.398" fill="none" /><path id="1590" transform="matrix(1 0 0 -1 0 792)" d="M391.246 470.925L391.246 484.492" stroke="#000000" stroke-width="0.398" fill="none" /><path id="1592" transform="matrix(1 0 0 -1 0 792)" d="M450.268 470.925L450.268 484.492" stroke="#000000" stroke-width="0.398" fill="none" /><path id="1594" transform="matrix(1 0 0 -1 0 792)" d="M506.65 470.925L506.65 484.492" stroke="#000000" stroke-width="0.398" fill="none" /><path id="1595" transform="matrix(1 0 0 -1 0 792)" d="M139.671 470.726L506.85 470.726" stroke="#000000" stroke-width="0.398" fill="none" /><path id="1596" transform="matrix(1 0 0 -1 0 792)" d="M139.87 456.96L139.87 470.527" stroke="#000000" stroke-width="0.398" fill="none" /><path id="1605" transform="matrix(1 0 0 -1 0 792)" d="M194.465 461.241L197.454 461.241" stroke="#000000" stroke-width="0.398" fill="none" /><path id="1612" transform="matrix(1 0 0 -1 0 792)" d="M233.917 461.241L236.906 461.241" stroke="#000000" stroke-width="0.398" fill="none" /><path id="1617" transform="matrix(1 0 0 -1 0 792)" d="M332.224 456.96L332.224 470.527" stroke="#000000" stroke-width="0.398" fill="none" /><path id="1619" transform="matrix(1 0 0 -1 0 792)" d="M391.246 456.96L391.246 470.527" stroke="#000000" stroke-width="0.398" fill="none" /><path id="1621" transform="matrix(1 0 0 -1 0 792)" d="M450.268 456.96L450.268 470.527" stroke="#000000" stroke-width="0.398" fill="none" /><path id="1623" transform="matrix(1 0 0 -1 0 792)" d="M506.65 456.96L506.65 470.527" stroke="#000000" stroke-width="0.398" fill="none" /><path id="1624" transform="matrix(1 0 0 -1 0 792)" d="M139.671 456.761L506.85 456.761" stroke="#000000" stroke-width="0.398" fill="none" /><path id="1625" transform="matrix(1 0 0 -1 0 792)" d="M139.87 442.995L139.87 456.562" stroke="#000000" stroke-width="0.398" fill="none" /><path id="1634" transform="matrix(1 0 0 -1 0 792)" d="M194.465 447.276L197.454 447.276" stroke="#000000" stroke-width="0.398" fill="none" /><path id="1641" transform="matrix(1 0 0 -1 0 792)" d="M233.917 447.276L236.906 447.276" stroke="#000000" stroke-width="0.398" fill="none" /><path id="1646" transform="matrix(1 0 0 -1 0 792)" d="M332.224 442.995L332.224 456.562" stroke="#000000" stroke-width="0.398" fill="none" /><path id="1648" transform="matrix(1 0 0 -1 0 792)" d="M391.246 442.995L391.246 456.562" stroke="#000000" stroke-width="0.398" fill="none" /><path id="1650" transform="matrix(1 0 0 -1 0 792)" d="M450.268 442.995L450.268 456.562" stroke="#000000" stroke-width="0.398" fill="none" /><path id="1652" transform="matrix(1 0 0 -1 0 792)" d="M506.65 442.995L506.65 456.562" stroke="#000000" stroke-width="0.398" fill="none" /><path id="1653" transform="matrix(1 0 0 -1 0 792)" d="M139.671 442.796L506.85 442.796" stroke="#000000" stroke-width="0.398" fill="none" /><path id="1654" transform="matrix(1 0 0 -1 0 792)" d="M139.87 429.03L139.87 442.597" stroke="#000000" stroke-width="0.398" fill="none" /><path id="1662" transform="matrix(1 0 0 -1 0 792)" d="M188.488 433.311L191.477 433.311" stroke="#000000" stroke-width="0.398" fill="none" /><path id="1668" transform="matrix(1 0 0 -1 0 792)" d="M332.224 429.03L332.224 442.597" stroke="#000000" stroke-width="0.398" fill="none" /><path id="1670" transform="matrix(1 0 0 -1 0 792)" d="M391.246 429.03L391.246 442.597" stroke="#000000" stroke-width="0.398" fill="none" /><path id="1672" transform="matrix(1 0 0 -1 0 792)" d="M450.268 429.03L450.268 442.597" stroke="#000000" stroke-width="0.398" fill="none" /><path id="1674" transform="matrix(1 0 0 -1 0 792)" d="M506.65 429.03L506.65 442.597" stroke="#000000" stroke-width="0.398" fill="none" /><path id="1675" transform="matrix(1 0 0 -1 0 792)" d="M139.671 428.83L506.85 428.83" stroke="#000000" stroke-width="0.398" fill="none" /><path id="1676" transform="matrix(1 0 0 -1 0 792)" d="M139.87 415.064L139.87 428.631" stroke="#000000" stroke-width="0.398" fill="none" /><path id="1696" transform="matrix(1 0 0 -1 0 792)" d="M332.224 415.064L332.224 428.631" stroke="#000000" stroke-width="0.398" fill="none" /><path id="1698" transform="matrix(1 0 0 -1 0 792)" d="M391.246 415.064L391.246 428.631" stroke="#000000" stroke-width="0.398" fill="none" /><path id="1701" transform="matrix(1 0 0 -1 0 792)" d="M410.595 419.329L413.584 419.329" stroke="#000000" stroke-width="0.398" fill="none" /><path id="1707" transform="matrix(1 0 0 -1 0 792)" d="M450.268 415.064L450.268 428.631" stroke="#000000" stroke-width="0.398" fill="none" /><path id="1716" transform="matrix(1 0 0 -1 0 792)" d="M506.65 415.064L506.65 428.631" stroke="#000000" stroke-width="0.398" fill="none" /><path id="1717" transform="matrix(1 0 0 -1 0 792)" d="M139.671 414.865L506.85 414.865" stroke="#000000" stroke-width="0.398" fill="none" /><path id="1718" transform="matrix(1 0 0 -1 0 792)" d="M139.87 401.099L139.87 414.666" stroke="#000000" stroke-width="0.398" fill="none" /><path id="1741" transform="matrix(1 0 0 -1 0 792)" d="M332.224 401.099L332.224 414.666" stroke="#000000" stroke-width="0.398" fill="none" /><path id="1743" transform="matrix(1 0 0 -1 0 792)" d="M391.246 401.099L391.246 414.666" stroke="#000000" stroke-width="0.398" fill="none" /><path id="1745" transform="matrix(1 0 0 -1 0 792)" d="M450.268 401.099L450.268 414.666" stroke="#000000" stroke-width="0.398" fill="none" /><path id="1747" transform="matrix(1 0 0 -1 0 792)" d="M506.65 401.099L506.65 414.666" stroke="#000000" stroke-width="0.398" fill="none" /><path id="1748" transform="matrix(1 0 0 -1 0 792)" d="M139.671 400.9L506.85 400.9" stroke="#000000" stroke-width="0.398" fill="none" /><path id="1772" transform="matrix(1 0 0 -1 0 792)" d="M98.533 300.679L547.988 300.679" stroke="#000000" stroke-width="0.398" fill="none" /><path id="1773" transform="matrix(1 0 0 -1 0 792)" d="M98.732 286.913L98.732 300.48" stroke="#000000" stroke-width="0.398" fill="none" /><path id="1774" transform="matrix(1 0 0 -1 0 792)" d="M98.931 286.913L290.886 286.913L290.886 300.48L98.931 300.48z" stroke="none" fill="#CCCCEB" fill-rule="nonzero" /><path id="1780" transform="matrix(1 0 0 -1 0 792)" d="M291.086 286.913L291.086 300.48" stroke="#000000" stroke-width="0.398" fill="none" /><path id="1781" transform="matrix(1 0 0 -1 0 792)" d="M291.285 286.913L349.909 286.913L349.909 300.48L291.285 300.48z" stroke="none" fill="#CCCCEB" fill-rule="nonzero" /><path id="1791" transform="matrix(1 0 0 -1 0 792)" d="M350.108 286.913L350.108 300.48" stroke="#000000" stroke-width="0.398" fill="none" /><path id="1792" transform="matrix(1 0 0 -1 0 792)" d="M350.307 286.913L408.931 286.913L408.931 300.48L350.307 300.48z" stroke="none" fill="#CCCCEB" fill-rule="nonzero" /><path id="1800" transform="matrix(1 0 0 -1 0 792)" d="M409.13 286.913L409.13 300.48" stroke="#000000" stroke-width="0.398" fill="none" /><path id="1801" transform="matrix(1 0 0 -1 0 792)" d="M409.329 286.913L547.589 286.913L547.589 300.48L409.329 300.48z" stroke="none" fill="#CCCCEB" fill-rule="nonzero" /><path id="1805" transform="matrix(1 0 0 -1 0 792)" d="M547.789 286.913L547.789 300.48" stroke="#000000" stroke-width="0.398" fill="none" /><path id="1806" transform="matrix(1 0 0 -1 0 792)" d="M98.732 273.346L98.732 286.913" stroke="#000000" stroke-width="0.398" fill="none" /><path id="1807" transform="matrix(1 0 0 -1 0 792)" d="M98.931 273.346L290.886 273.346L290.886 286.913L98.931 286.913z" stroke="none" fill="#CCCCEB" fill-rule="nonzero" /><path id="1808" transform="matrix(1 0 0 -1 0 792)" d="M291.086 273.346L291.086 286.913" stroke="#000000" stroke-width="0.398" fill="none" /><path id="1809" transform="matrix(1 0 0 -1 0 792)" d="M291.285 273.346L349.909 273.346L349.909 286.913L291.285 286.913z" stroke="none" fill="#CCCCEB" fill-rule="nonzero" /><path id="1810" transform="matrix(1 0 0 -1 0 792)" d="M350.108 273.346L350.108 286.913" stroke="#000000" stroke-width="0.398" fill="none" /><path id="1811" transform="matrix(1 0 0 -1 0 792)" d="M350.307 273.346L408.931 273.346L408.931 286.913L350.307 286.913z" stroke="none" fill="#CCCCEB" fill-rule="nonzero" /><path id="1817" transform="matrix(1 0 0 -1 0 792)" d="M409.13 273.346L409.13 286.913" stroke="#000000" stroke-width="0.398" fill="none" /><path id="1818" transform="matrix(1 0 0 -1 0 792)" d="M409.329 273.346L547.589 273.346L547.589 286.913L409.329 286.913z" stroke="none" fill="#CCCCEB" fill-rule="nonzero" /><path id="1819" transform="matrix(1 0 0 -1 0 792)" d="M547.789 273.346L547.789 286.913" stroke="#000000" stroke-width="0.398" fill="none" /><path id="1820" transform="matrix(1 0 0 -1 0 792)" d="M98.533 273.147L547.988 273.147" stroke="#000000" stroke-width="0.398" fill="none" /><path id="1821" transform="matrix(1 0 0 -1 0 792)" d="M98.533 270.756L547.988 270.756" stroke="#000000" stroke-width="0.398" fill="none" /><path id="1822" transform="matrix(1 0 0 -1 0 792)" d="M98.732 256.99L98.732 270.557" stroke="#000000" stroke-width="0.398" fill="none" /><path id="1835" transform="matrix(1 0 0 -1 0 792)" d="M177.238 261.271L180.227 261.271" stroke="#000000" stroke-width="0.398" fill="none" /><path id="1843" transform="matrix(1 0 0 -1 0 792)" d="M291.086 256.99L291.086 270.557" stroke="#000000" stroke-width="0.398" fill="none" /><path id="1845" transform="matrix(1 0 0 -1 0 792)" d="M350.108 256.99L350.108 270.557" stroke="#000000" stroke-width="0.398" fill="none" /><path id="1847" transform="matrix(1 0 0 -1 0 792)" d="M409.13 256.99L409.13 270.557" stroke="#000000" stroke-width="0.398" fill="none" /><path id="1859" transform="matrix(1 0 0 -1 0 792)" d="M547.789 256.99L547.789 270.557" stroke="#000000" stroke-width="0.398" fill="none" /><path id="1860" transform="matrix(1 0 0 -1 0 792)" d="M98.533 256.791L547.988 256.791" stroke="#000000" stroke-width="0.398" fill="none" /><path id="1861" transform="matrix(1 0 0 -1 0 792)" d="M98.732 243.025L98.732 256.592" stroke="#000000" stroke-width="0.398" fill="none" /><path id="1874" transform="matrix(1 0 0 -1 0 792)" d="M177.238 247.306L180.227 247.306" stroke="#000000" stroke-width="0.398" fill="none" /><path id="1880" transform="matrix(1 0 0 -1 0 792)" d="M291.086 243.025L291.086 256.592" stroke="#000000" stroke-width="0.398" fill="none" /><path id="1882" transform="matrix(1 0 0 -1 0 792)" d="M350.108 243.025L350.108 256.592" stroke="#000000" stroke-width="0.398" fill="none" /><path id="1884" transform="matrix(1 0 0 -1 0 792)" d="M409.13 243.025L409.13 256.592" stroke="#000000" stroke-width="0.398" fill="none" /><path id="1911" transform="matrix(1 0 0 -1 0 792)" d="M547.789 243.025L547.789 256.592" stroke="#000000" stroke-width="0.398" fill="none" /><path id="1912" transform="matrix(1 0 0 -1 0 792)" d="M98.533 242.825L547.988 242.825" stroke="#000000" stroke-width="0.398" fill="none" /><path id="1913" transform="matrix(1 0 0 -1 0 792)" d="M98.732 229.06L98.732 242.627" stroke="#000000" stroke-width="0.398" fill="none" /><path id="1926" transform="matrix(1 0 0 -1 0 792)" d="M177.238 233.341L180.227 233.341" stroke="#000000" stroke-width="0.398" fill="none" /><path id="1933" transform="matrix(1 0 0 -1 0 792)" d="M291.086 229.06L291.086 242.627" stroke="#000000" stroke-width="0.398" fill="none" /><path id="1935" transform="matrix(1 0 0 -1 0 792)" d="M350.108 229.06L350.108 242.627" stroke="#000000" stroke-width="0.398" fill="none" /><path id="1937" transform="matrix(1 0 0 -1 0 792)" d="M409.13 229.06L409.13 242.627" stroke="#000000" stroke-width="0.398" fill="none" /><path id="1964" transform="matrix(1 0 0 -1 0 792)" d="M547.789 229.06L547.789 242.627" stroke="#000000" stroke-width="0.398" fill="none" /><path id="1965" transform="matrix(1 0 0 -1 0 792)" d="M98.533 228.86L547.988 228.86" stroke="#000000" stroke-width="0.398" fill="none" /><path id="1966" transform="matrix(1 0 0 -1 0 792)" d="M98.732 215.094L98.732 228.661" stroke="#000000" stroke-width="0.398" fill="none" /><path id="1979" transform="matrix(1 0 0 -1 0 792)" d="M177.238 219.376L180.227 219.376" stroke="#000000" stroke-width="0.398" fill="none" /><path id="1988" transform="matrix(1 0 0 -1 0 792)" d="M228.645 219.376L231.634 219.376" stroke="#000000" stroke-width="0.398" fill="none" /><path id="1995" transform="matrix(1 0 0 -1 0 792)" d="M291.086 215.094L291.086 228.661" stroke="#000000" stroke-width="0.398" fill="none" /><path id="1997" transform="matrix(1 0 0 -1 0 792)" d="M350.108 215.094L350.108 228.661" stroke="#000000" stroke-width="0.398" fill="none" /><path id="2003" transform="matrix(1 0 0 -1 0 792)" d="M409.13 215.094L409.13 228.661" stroke="#000000" stroke-width="0.398" fill="none" /><path id="2030" transform="matrix(1 0 0 -1 0 792)" d="M547.789 215.094L547.789 228.661" stroke="#000000" stroke-width="0.398" fill="none" /><path id="2031" transform="matrix(1 0 0 -1 0 792)" d="M98.533 214.895L547.988 214.895" stroke="#000000" stroke-width="0.398" fill="none" /><path id="2032" transform="matrix(1 0 0 -1 0 792)" d="M98.732 201.129L98.732 214.696" stroke="#000000" stroke-width="0.398" fill="none" /><path id="2045" transform="matrix(1 0 0 -1 0 792)" d="M177.238 205.411L180.227 205.411" stroke="#000000" stroke-width="0.398" fill="none" /><path id="2049" transform="matrix(1 0 0 -1 0 792)" d="M198.757 205.411L201.746 205.411" stroke="#000000" stroke-width="0.398" fill="none" /><path id="2054" transform="matrix(1 0 0 -1 0 792)" d="M291.086 201.129L291.086 214.696" stroke="#000000" stroke-width="0.398" fill="none" /><path id="2056" transform="matrix(1 0 0 -1 0 792)" d="M350.108 201.129L350.108 214.696" stroke="#000000" stroke-width="0.398" fill="none" /><path id="2058" transform="matrix(1 0 0 -1 0 792)" d="M409.13 201.129L409.13 214.696" stroke="#000000" stroke-width="0.398" fill="none" /><path id="2085" transform="matrix(1 0 0 -1 0 792)" d="M547.789 201.129L547.789 214.696" stroke="#000000" stroke-width="0.398" fill="none" /><path id="2086" transform="matrix(1 0 0 -1 0 792)" d="M98.533 200.93L547.988 200.93" stroke="#000000" stroke-width="0.398" fill="none" /><path id="2087" transform="matrix(1 0 0 -1 0 792)" d="M98.732 187.164L98.732 200.731" stroke="#000000" stroke-width="0.398" fill="none" /><path id="2100" transform="matrix(1 0 0 -1 0 792)" d="M177.238 191.446L180.227 191.446" stroke="#000000" stroke-width="0.398" fill="none" /><path id="2106" transform="matrix(1 0 0 -1 0 792)" d="M210.712 191.446L213.701 191.446" stroke="#000000" stroke-width="0.398" fill="none" /><path id="2111" transform="matrix(1 0 0 -1 0 792)" d="M291.086 187.164L291.086 200.731" stroke="#000000" stroke-width="0.398" fill="none" /><path id="2113" transform="matrix(1 0 0 -1 0 792)" d="M350.108 187.164L350.108 200.731" stroke="#000000" stroke-width="0.398" fill="none" /><path id="2115" transform="matrix(1 0 0 -1 0 792)" d="M409.13 187.164L409.13 200.731" stroke="#000000" stroke-width="0.398" fill="none" /><path id="2142" transform="matrix(1 0 0 -1 0 792)" d="M547.789 187.164L547.789 200.731" stroke="#000000" stroke-width="0.398" fill="none" /><path id="2143" transform="matrix(1 0 0 -1 0 792)" d="M98.533 186.965L547.988 186.965" stroke="#000000" stroke-width="0.398" fill="none" /><path id="2144" transform="matrix(1 0 0 -1 0 792)" d="M98.732 173.199L98.732 186.766" stroke="#000000" stroke-width="0.398" fill="none" /><path id="2157" transform="matrix(1 0 0 -1 0 792)" d="M177.238 177.48L180.227 177.48" stroke="#000000" stroke-width="0.398" fill="none" /><path id="2162" transform="matrix(1 0 0 -1 0 792)" d="M204.734 177.48L207.723 177.48" stroke="#000000" stroke-width="0.398" fill="none" /><path id="2167" transform="matrix(1 0 0 -1 0 792)" d="M291.086 173.199L291.086 186.766" stroke="#000000" stroke-width="0.398" fill="none" /><path id="2169" transform="matrix(1 0 0 -1 0 792)" d="M350.108 173.199L350.108 186.766" stroke="#000000" stroke-width="0.398" fill="none" /><path id="2171" transform="matrix(1 0 0 -1 0 792)" d="M409.13 173.199L409.13 186.766" stroke="#000000" stroke-width="0.398" fill="none" /><path id="2198" transform="matrix(1 0 0 -1 0 792)" d="M547.789 173.199L547.789 186.766" stroke="#000000" stroke-width="0.398" fill="none" /><path id="2199" transform="matrix(1 0 0 -1 0 792)" d="M98.533 173L547.988 173" stroke="#000000" stroke-width="0.398" fill="none" /><path id="2200" transform="matrix(1 0 0 -1 0 792)" d="M98.732 159.234L98.732 172.801" stroke="#000000" stroke-width="0.398" fill="none" /><path id="2213" transform="matrix(1 0 0 -1 0 792)" d="M177.238 163.515L180.227 163.515" stroke="#000000" stroke-width="0.398" fill="none" /><path id="2219" transform="matrix(1 0 0 -1 0 792)" d="M210.712 163.515L213.701 163.515" stroke="#000000" stroke-width="0.398" fill="none" /><path id="2224" transform="matrix(1 0 0 -1 0 792)" d="M291.086 159.234L291.086 172.801" stroke="#000000" stroke-width="0.398" fill="none" /><path id="2226" transform="matrix(1 0 0 -1 0 792)" d="M350.108 159.234L350.108 172.801" stroke="#000000" stroke-width="0.398" fill="none" /><path id="2228" transform="matrix(1 0 0 -1 0 792)" d="M409.13 159.234L409.13 172.801" stroke="#000000" stroke-width="0.398" fill="none" /><path id="2255" transform="matrix(1 0 0 -1 0 792)" d="M547.789 159.234L547.789 172.801" stroke="#000000" stroke-width="0.398" fill="none" /><path id="2256" transform="matrix(1 0 0 -1 0 792)" d="M98.533 159.035L547.988 159.035" stroke="#000000" stroke-width="0.398" fill="none" /><path id="2257" transform="matrix(1 0 0 -1 0 792)" d="M98.732 145.269L98.732 158.836" stroke="#000000" stroke-width="0.398" fill="none" /><path id="2270" transform="matrix(1 0 0 -1 0 792)" d="M177.238 149.55L180.227 149.55" stroke="#000000" stroke-width="0.398" fill="none" /><path id="2276" transform="matrix(1 0 0 -1 0 792)" d="M210.712 149.55L213.701 149.55" stroke="#000000" stroke-width="0.398" fill="none" /><path id="2281" transform="matrix(1 0 0 -1 0 792)" d="M291.086 145.269L291.086 158.836" stroke="#000000" stroke-width="0.398" fill="none" /><path id="2283" transform="matrix(1 0 0 -1 0 792)" d="M350.108 145.269L350.108 158.836" stroke="#000000" stroke-width="0.398" fill="none" /><path id="2285" transform="matrix(1 0 0 -1 0 792)" d="M409.13 145.269L409.13 158.836" stroke="#000000" stroke-width="0.398" fill="none" /><path id="2312" transform="matrix(1 0 0 -1 0 792)" d="M547.789 145.269L547.789 158.836" stroke="#000000" stroke-width="0.398" fill="none" /><path id="2313" transform="matrix(1 0 0 -1 0 792)" d="M98.533 145.069L547.988 145.069" stroke="#000000" stroke-width="0.398" fill="none" /><path id="2314" transform="matrix(1 0 0 -1 0 792)" d="M98.732 131.304L98.732 144.871" stroke="#000000" stroke-width="0.398" fill="none" /><path id="2327" transform="matrix(1 0 0 -1 0 792)" d="M177.238 135.585L180.227 135.585" stroke="#000000" stroke-width="0.398" fill="none" /><path id="2335" transform="matrix(1 0 0 -1 0 792)" d="M222.667 135.585L225.656 135.585" stroke="#000000" stroke-width="0.398" fill="none" /><path id="2340" transform="matrix(1 0 0 -1 0 792)" d="M291.086 131.304L291.086 144.871" stroke="#000000" stroke-width="0.398" fill="none" /><path id="2342" transform="matrix(1 0 0 -1 0 792)" d="M350.108 131.304L350.108 144.871" stroke="#000000" stroke-width="0.398" fill="none" /><path id="2344" transform="matrix(1 0 0 -1 0 792)" d="M409.13 131.304L409.13 144.871" stroke="#000000" stroke-width="0.398" fill="none" /><path id="2371" transform="matrix(1 0 0 -1 0 792)" d="M547.789 131.304L547.789 144.871" stroke="#000000" stroke-width="0.398" fill="none" /><path id="2372" transform="matrix(1 0 0 -1 0 792)" d="M98.533 131.104L547.988 131.104" stroke="#000000" stroke-width="0.398" fill="none" /></g></g></svg>