<svg xmlns="http://www.w3.org/2000/svg" xmlns:xlink="http://www.w3.org/1999/xlink" id="body_66" preserveAspectRatio="xMinYMin meet" viewBox="0 0 1632 1056"><defs><clipPath id="1"><path id="" clip-rule="evenodd" transform="matrix(1 0 0 1 0 0)" d="M0 792L0 0L0 0L1224 0L1224 0L1224 792L1224 792L0 792z" /></clipPath></defs><g transform="matrix(1.333333 0 0 1.333333 0 0)"><g clip-path="url(#1)"><path id="1" transform="matrix(1 0 0 -1 0 792)" d="M666.067 721.28L1132.722 721.28" stroke="#000000" stroke-width="0.498" fill="none" /><path id="2" transform="matrix(1 0 0 -1 0 792)" d="M729.338 589.193L1069.451 589.193" stroke="#000000" stroke-width="0.398" fill="none" /><path id="3" transform="matrix(1 0 0 -1 0 792)" d="M729.537 575.427L729.537 588.994" stroke="#000000" stroke-width="0.398" fill="none" /><path id="4" transform="matrix(1 0 0 -1 0 792)" d="M729.737 575.427L921.692 575.427L921.692 588.994L729.737 588.994z" stroke="none" fill="#CCCCEB" fill-rule="nonzero" /><path id="10" transform="matrix(1 0 0 -1 0 792)" d="M921.891 575.427L921.891 588.994" stroke="#000000" stroke-width="0.398" fill="none" /><path id="11" transform="matrix(1 0 0 -1 0 792)" d="M922.09 575.427L980.714 575.427L980.714 588.994L922.09 588.994z" stroke="none" fill="#CCCCEB" fill-rule="nonzero" /><path id="21" transform="matrix(1 0 0 -1 0 792)" d="M980.913 575.427L980.913 588.994" stroke="#000000" stroke-width="0.398" fill="none" /><path id="22" transform="matrix(1 0 0 -1 0 792)" d="M981.112 575.427L1039.736 575.427L1039.736 588.994L981.112 588.994z" stroke="none" fill="#CCCCEB" fill-rule="nonzero" /><path id="30" transform="matrix(1 0 0 -1 0 792)" d="M1039.935 575.427L1039.935 588.994" stroke="#000000" stroke-width="0.398" fill="none" /><path id="31" transform="matrix(1 0 0 -1 0 792)" d="M1040.134 575.427L1069.053 575.427L1069.053 588.994L1040.134 588.994z" stroke="none" fill="#CCCCEB" fill-rule="nonzero" /><path id="35" transform="matrix(1 0 0 -1 0 792)" d="M1069.252 575.427L1069.252 588.994" stroke="#000000" stroke-width="0.398" fill="none" /><path id="36" transform="matrix(1 0 0 -1 0 792)" d="M729.537 561.861L729.537 575.428" stroke="#000000" stroke-width="0.398" fill="none" /><path id="37" transform="matrix(1 0 0 -1 0 792)" d="M729.737 561.861L921.692 561.861L921.692 575.428L729.737 575.428z" stroke="none" fill="#CCCCEB" fill-rule="nonzero" /><path id="38" transform="matrix(1 0 0 -1 0 792)" d="M921.891 561.861L921.891 575.428" stroke="#000000" stroke-width="0.398" fill="none" /><path id="39" transform="matrix(1 0 0 -1 0 792)" d="M922.09 561.861L980.714 561.861L980.714 575.428L922.09 575.428z" stroke="none" fill="#CCCCEB" fill-rule="nonzero" /><path id="40" transform="matrix(1 0 0 -1 0 792)" d="M980.913 561.861L980.913 575.428" stroke="#000000" stroke-width="0.398" fill="none" /><path id="41" transform="matrix(1 0 0 -1 0 792)" d="M981.112 561.861L1039.736 561.861L1039.736 575.428L981.112 575.428z" stroke="none" fill="#CCCCEB" fill-rule="nonzero" /><path id="47" transform="matrix(1 0 0 -1 0 792)" d="M1039.935 561.861L1039.935 575.428" stroke="#000000" stroke-width="0.398" fill="none" /><path id="48" transform="matrix(1 0 0 -1 0 792)" d="M1040.134 561.861L1069.053 561.861L1069.053 575.428L1040.134 575.428z" stroke="none" fill="#CCCCEB" fill-rule="nonzero" /><path id="49" transform="matrix(1 0 0 -1 0 792)" d="M1069.252 561.861L1069.252 575.428" stroke="#000000" stroke-width="0.398" fill="none" /><path id="50" transform="matrix(1 0 0 -1 0 792)" d="M729.338 561.661L1069.451 561.661" stroke="#000000" stroke-width="0.398" fill="none" /><path id="51" transform="matrix(1 0 0 -1 0 792)" d="M729.338 559.27L1069.451 559.27" stroke="#000000" stroke-width="0.398" fill="none" /><path id="52" transform="matrix(1 0 0 -1 0 792)" d="M729.537 545.504L729.537 559.071" stroke="#000000" stroke-width="0.398" fill="none" /><path id="57" transform="matrix(1 0 0 -1 0 792)" d="M760.222 549.786L763.211 549.786" stroke="#000000" stroke-width="0.398" fill="none" /><path id="69" transform="matrix(1 0 0 -1 0 792)" d="M829.562 549.786L832.551 549.786" stroke="#000000" stroke-width="0.398" fill="none" /><path id="73" transform="matrix(1 0 0 -1 0 792)" d="M851.081 549.786L854.07 549.786" stroke="#000000" stroke-width="0.398" fill="none" /><path id="79" transform="matrix(1 0 0 -1 0 792)" d="M921.891 545.504L921.891 559.071" stroke="#000000" stroke-width="0.398" fill="none" /><path id="81" transform="matrix(1 0 0 -1 0 792)" d="M980.913 545.504L980.913 559.071" stroke="#000000" stroke-width="0.398" fill="none" /><path id="83" transform="matrix(1 0 0 -1 0 792)" d="M1039.935 545.504L1039.935 559.071" stroke="#000000" stroke-width="0.398" fill="none" /><path id="85" transform="matrix(1 0 0 -1 0 792)" d="M1069.252 545.504L1069.252 559.071" stroke="#000000" stroke-width="0.398" fill="none" /><path id="86" transform="matrix(1 0 0 -1 0 792)" d="M729.338 545.305L1069.451 545.305" stroke="#000000" stroke-width="0.398" fill="none" /><path id="87" transform="matrix(1 0 0 -1 0 792)" d="M729.537 531.539L729.537 545.106" stroke="#000000" stroke-width="0.398" fill="none" /><path id="92" transform="matrix(1 0 0 -1 0 792)" d="M760.222 535.821L763.211 535.821" stroke="#000000" stroke-width="0.398" fill="none" /><path id="104" transform="matrix(1 0 0 -1 0 792)" d="M829.562 535.821L832.551 535.821" stroke="#000000" stroke-width="0.398" fill="none" /><path id="110" transform="matrix(1 0 0 -1 0 792)" d="M863.037 535.821L866.026 535.821" stroke="#000000" stroke-width="0.398" fill="none" /><path id="116" transform="matrix(1 0 0 -1 0 792)" d="M921.891 531.539L921.891 545.106" stroke="#000000" stroke-width="0.398" fill="none" /><path id="118" transform="matrix(1 0 0 -1 0 792)" d="M980.913 531.539L980.913 545.106" stroke="#000000" stroke-width="0.398" fill="none" /><path id="120" transform="matrix(1 0 0 -1 0 792)" d="M1039.935 531.539L1039.935 545.106" stroke="#000000" stroke-width="0.398" fill="none" /><path id="122" transform="matrix(1 0 0 -1 0 792)" d="M1069.252 531.539L1069.252 545.106" stroke="#000000" stroke-width="0.398" fill="none" /><path id="123" transform="matrix(1 0 0 -1 0 792)" d="M729.338 531.34L1069.451 531.34" stroke="#000000" stroke-width="0.398" fill="none" /><path id="124" transform="matrix(1 0 0 -1 0 792)" d="M729.537 517.574L729.537 531.141" stroke="#000000" stroke-width="0.398" fill="none" /><path id="129" transform="matrix(1 0 0 -1 0 792)" d="M760.222 521.856L763.211 521.856" stroke="#000000" stroke-width="0.398" fill="none" /><path id="141" transform="matrix(1 0 0 -1 0 792)" d="M829.562 521.856L832.551 521.856" stroke="#000000" stroke-width="0.398" fill="none" /><path id="146" transform="matrix(1 0 0 -1 0 792)" d="M857.059 521.856L860.048 521.856" stroke="#000000" stroke-width="0.398" fill="none" /><path id="152" transform="matrix(1 0 0 -1 0 792)" d="M921.891 517.574L921.891 531.141" stroke="#000000" stroke-width="0.398" fill="none" /><path id="154" transform="matrix(1 0 0 -1 0 792)" d="M980.913 517.574L980.913 531.141" stroke="#000000" stroke-width="0.398" fill="none" /><path id="156" transform="matrix(1 0 0 -1 0 792)" d="M1039.935 517.574L1039.935 531.141" stroke="#000000" stroke-width="0.398" fill="none" /><path id="158" transform="matrix(1 0 0 -1 0 792)" d="M1069.252 517.574L1069.252 531.141" stroke="#000000" stroke-width="0.398" fill="none" /><path id="159" transform="matrix(1 0 0 -1 0 792)" d="M729.338 517.375L1069.451 517.375" stroke="#000000" stroke-width="0.398" fill="none" /><path id="160" transform="matrix(1 0 0 -1 0 792)" d="M729.537 503.609L729.537 517.176" stroke="#000000" stroke-width="0.398" fill="none" /><path id="165" transform="matrix(1 0 0 -1 0 792)" d="M760.222 507.89L763.211 507.89" stroke="#000000" stroke-width="0.398" fill="none" /><path id="177" transform="matrix(1 0 0 -1 0 792)" d="M829.562 507.89L832.551 507.89" stroke="#000000" stroke-width="0.398" fill="none" /><path id="183" transform="matrix(1 0 0 -1 0 792)" d="M863.037 507.89L866.026 507.89" stroke="#000000" stroke-width="0.398" fill="none" /><path id="189" transform="matrix(1 0 0 -1 0 792)" d="M921.891 503.609L921.891 517.176" stroke="#000000" stroke-width="0.398" fill="none" /><path id="191" transform="matrix(1 0 0 -1 0 792)" d="M980.913 503.609L980.913 517.176" stroke="#000000" stroke-width="0.398" fill="none" /><path id="193" transform="matrix(1 0 0 -1 0 792)" d="M1039.935 503.609L1039.935 517.176" stroke="#000000" stroke-width="0.398" fill="none" /><path id="195" transform="matrix(1 0 0 -1 0 792)" d="M1069.252 503.609L1069.252 517.176" stroke="#000000" stroke-width="0.398" fill="none" /><path id="196" transform="matrix(1 0 0 -1 0 792)" d="M729.338 503.41L1069.451 503.41" stroke="#000000" stroke-width="0.398" fill="none" /><path id="197" transform="matrix(1 0 0 -1 0 792)" d="M729.537 489.644L729.537 503.211" stroke="#000000" stroke-width="0.398" fill="none" /><path id="202" transform="matrix(1 0 0 -1 0 792)" d="M760.222 493.925L763.211 493.925" stroke="#000000" stroke-width="0.398" fill="none" /><path id="214" transform="matrix(1 0 0 -1 0 792)" d="M829.562 493.925L832.551 493.925" stroke="#000000" stroke-width="0.398" fill="none" /><path id="218" transform="matrix(1 0 0 -1 0 792)" d="M851.081 493.925L854.07 493.925" stroke="#000000" stroke-width="0.398" fill="none" /><path id="223" transform="matrix(1 0 0 -1 0 792)" d="M921.891 489.644L921.891 503.211" stroke="#000000" stroke-width="0.398" fill="none" /><path id="225" transform="matrix(1 0 0 -1 0 792)" d="M980.913 489.644L980.913 503.211" stroke="#000000" stroke-width="0.398" fill="none" /><path id="227" transform="matrix(1 0 0 -1 0 792)" d="M1039.935 489.644L1039.935 503.211" stroke="#000000" stroke-width="0.398" fill="none" /><path id="229" transform="matrix(1 0 0 -1 0 792)" d="M1069.252 489.644L1069.252 503.211" stroke="#000000" stroke-width="0.398" fill="none" /><path id="230" transform="matrix(1 0 0 -1 0 792)" d="M729.338 489.445L1069.451 489.445" stroke="#000000" stroke-width="0.398" fill="none" /><path id="231" transform="matrix(1 0 0 -1 0 792)" d="M729.537 475.679L729.537 489.246" stroke="#000000" stroke-width="0.398" fill="none" /><path id="236" transform="matrix(1 0 0 -1 0 792)" d="M760.222 479.96L763.211 479.96" stroke="#000000" stroke-width="0.398" fill="none" /><path id="248" transform="matrix(1 0 0 -1 0 792)" d="M829.562 479.96L832.551 479.96" stroke="#000000" stroke-width="0.398" fill="none" /><path id="254" transform="matrix(1 0 0 -1 0 792)" d="M863.037 479.96L866.026 479.96" stroke="#000000" stroke-width="0.398" fill="none" /><path id="259" transform="matrix(1 0 0 -1 0 792)" d="M921.891 475.679L921.891 489.246" stroke="#000000" stroke-width="0.398" fill="none" /><path id="261" transform="matrix(1 0 0 -1 0 792)" d="M980.913 475.679L980.913 489.246" stroke="#000000" stroke-width="0.398" fill="none" /><path id="263" transform="matrix(1 0 0 -1 0 792)" d="M1039.935 475.679L1039.935 489.246" stroke="#000000" stroke-width="0.398" fill="none" /><path id="265" transform="matrix(1 0 0 -1 0 792)" d="M1069.252 475.679L1069.252 489.246" stroke="#000000" stroke-width="0.398" fill="none" /><path id="266" transform="matrix(1 0 0 -1 0 792)" d="M729.338 475.479L1069.451 475.479" stroke="#000000" stroke-width="0.398" fill="none" /><path id="267" transform="matrix(1 0 0 -1 0 792)" d="M729.537 461.714L729.537 475.281" stroke="#000000" stroke-width="0.398" fill="none" /><path id="272" transform="matrix(1 0 0 -1 0 792)" d="M760.222 465.995L763.211 465.995" stroke="#000000" stroke-width="0.398" fill="none" /><path id="284" transform="matrix(1 0 0 -1 0 792)" d="M829.562 465.995L832.551 465.995" stroke="#000000" stroke-width="0.398" fill="none" /><path id="289" transform="matrix(1 0 0 -1 0 792)" d="M857.059 465.995L860.048 465.995" stroke="#000000" stroke-width="0.398" fill="none" /><path id="294" transform="matrix(1 0 0 -1 0 792)" d="M921.891 461.714L921.891 475.281" stroke="#000000" stroke-width="0.398" fill="none" /><path id="296" transform="matrix(1 0 0 -1 0 792)" d="M980.913 461.714L980.913 475.281" stroke="#000000" stroke-width="0.398" fill="none" /><path id="298" transform="matrix(1 0 0 -1 0 792)" d="M1039.935 461.714L1039.935 475.281" stroke="#000000" stroke-width="0.398" fill="none" /><path id="300" transform="matrix(1 0 0 -1 0 792)" d="M1069.252 461.714L1069.252 475.281" stroke="#000000" stroke-width="0.398" fill="none" /><path id="301" transform="matrix(1 0 0 -1 0 792)" d="M729.338 461.514L1069.451 461.514" stroke="#000000" stroke-width="0.398" fill="none" /><path id="302" transform="matrix(1 0 0 -1 0 792)" d="M729.537 447.748L729.537 461.315" stroke="#000000" stroke-width="0.398" fill="none" /><path id="307" transform="matrix(1 0 0 -1 0 792)" d="M760.222 452.03L763.211 452.03" stroke="#000000" stroke-width="0.398" fill="none" /><path id="319" transform="matrix(1 0 0 -1 0 792)" d="M829.562 452.03L832.551 452.03" stroke="#000000" stroke-width="0.398" fill="none" /><path id="325" transform="matrix(1 0 0 -1 0 792)" d="M863.037 452.03L866.026 452.03" stroke="#000000" stroke-width="0.398" fill="none" /><path id="330" transform="matrix(1 0 0 -1 0 792)" d="M921.891 447.748L921.891 461.315" stroke="#000000" stroke-width="0.398" fill="none" /><path id="332" transform="matrix(1 0 0 -1 0 792)" d="M980.913 447.748L980.913 461.315" stroke="#000000" stroke-width="0.398" fill="none" /><path id="334" transform="matrix(1 0 0 -1 0 792)" d="M1039.935 447.748L1039.935 461.315" stroke="#000000" stroke-width="0.398" fill="none" /><path id="336" transform="matrix(1 0 0 -1 0 792)" d="M1069.252 447.748L1069.252 461.315" stroke="#000000" stroke-width="0.398" fill="none" /><path id="337" transform="matrix(1 0 0 -1 0 792)" d="M729.338 447.549L1069.451 447.549" stroke="#000000" stroke-width="0.398" fill="none" /><path id="338" transform="matrix(1 0 0 -1 0 792)" d="M729.537 433.783L729.537 447.35" stroke="#000000" stroke-width="0.398" fill="none" /><path id="343" transform="matrix(1 0 0 -1 0 792)" d="M760.222 438.065L763.211 438.065" stroke="#000000" stroke-width="0.398" fill="none" /><path id="349" transform="matrix(1 0 0 -1 0 792)" d="M793.697 438.065L796.686 438.065" stroke="#000000" stroke-width="0.398" fill="none" /><path id="356" transform="matrix(1 0 0 -1 0 792)" d="M833.149 438.065L836.138 438.065" stroke="#000000" stroke-width="0.398" fill="none" /><path id="360" transform="matrix(1 0 0 -1 0 792)" d="M854.668 438.065L857.657 438.065" stroke="#000000" stroke-width="0.398" fill="none" /><path id="366" transform="matrix(1 0 0 -1 0 792)" d="M921.891 433.783L921.891 447.35" stroke="#000000" stroke-width="0.398" fill="none" /><path id="368" transform="matrix(1 0 0 -1 0 792)" d="M980.913 433.783L980.913 447.35" stroke="#000000" stroke-width="0.398" fill="none" /><path id="370" transform="matrix(1 0 0 -1 0 792)" d="M1039.935 433.783L1039.935 447.35" stroke="#000000" stroke-width="0.398" fill="none" /><path id="372" transform="matrix(1 0 0 -1 0 792)" d="M1069.252 433.783L1069.252 447.35" stroke="#000000" stroke-width="0.398" fill="none" /><path id="373" transform="matrix(1 0 0 -1 0 792)" d="M729.338 433.584L1069.451 433.584" stroke="#000000" stroke-width="0.398" fill="none" /><path id="374" transform="matrix(1 0 0 -1 0 792)" d="M729.537 419.818L729.537 433.385" stroke="#000000" stroke-width="0.398" fill="none" /><path id="379" transform="matrix(1 0 0 -1 0 792)" d="M760.222 424.1L763.211 424.1" stroke="#000000" stroke-width="0.398" fill="none" /><path id="385" transform="matrix(1 0 0 -1 0 792)" d="M793.697 424.1L796.686 424.1" stroke="#000000" stroke-width="0.398" fill="none" /><path id="392" transform="matrix(1 0 0 -1 0 792)" d="M833.149 424.1L836.138 424.1" stroke="#000000" stroke-width="0.398" fill="none" /><path id="398" transform="matrix(1 0 0 -1 0 792)" d="M866.623 424.1L869.612 424.1" stroke="#000000" stroke-width="0.398" fill="none" /><path id="404" transform="matrix(1 0 0 -1 0 792)" d="M921.891 419.818L921.891 433.385" stroke="#000000" stroke-width="0.398" fill="none" /><path id="406" transform="matrix(1 0 0 -1 0 792)" d="M980.913 419.818L980.913 433.385" stroke="#000000" stroke-width="0.398" fill="none" /><path id="408" transform="matrix(1 0 0 -1 0 792)" d="M1039.935 419.818L1039.935 433.385" stroke="#000000" stroke-width="0.398" fill="none" /><path id="410" transform="matrix(1 0 0 -1 0 792)" d="M1069.252 419.818L1069.252 433.385" stroke="#000000" stroke-width="0.398" fill="none" /><path id="411" transform="matrix(1 0 0 -1 0 792)" d="M729.338 419.619L1069.451 419.619" stroke="#000000" stroke-width="0.398" fill="none" /><path id="412" transform="matrix(1 0 0 -1 0 792)" d="M729.537 405.853L729.537 419.42" stroke="#000000" stroke-width="0.398" fill="none" /><path id="417" transform="matrix(1 0 0 -1 0 792)" d="M760.222 410.134L763.211 410.134" stroke="#000000" stroke-width="0.398" fill="none" /><path id="423" transform="matrix(1 0 0 -1 0 792)" d="M793.697 410.134L796.686 410.134" stroke="#000000" stroke-width="0.398" fill="none" /><path id="430" transform="matrix(1 0 0 -1 0 792)" d="M833.149 410.134L836.138 410.134" stroke="#000000" stroke-width="0.398" fill="none" /><path id="435" transform="matrix(1 0 0 -1 0 792)" d="M860.646 410.134L863.635 410.134" stroke="#000000" stroke-width="0.398" fill="none" /><path id="441" transform="matrix(1 0 0 -1 0 792)" d="M921.891 405.853L921.891 419.42" stroke="#000000" stroke-width="0.398" fill="none" /><path id="443" transform="matrix(1 0 0 -1 0 792)" d="M980.913 405.853L980.913 419.42" stroke="#000000" stroke-width="0.398" fill="none" /><path id="445" transform="matrix(1 0 0 -1 0 792)" d="M1039.935 405.853L1039.935 419.42" stroke="#000000" stroke-width="0.398" fill="none" /><path id="447" transform="matrix(1 0 0 -1 0 792)" d="M1069.252 405.853L1069.252 419.42" stroke="#000000" stroke-width="0.398" fill="none" /><path id="448" transform="matrix(1 0 0 -1 0 792)" d="M729.338 405.654L1069.451 405.654" stroke="#000000" stroke-width="0.398" fill="none" /><path id="449" transform="matrix(1 0 0 -1 0 792)" d="M729.537 391.888L729.537 405.455" stroke="#000000" stroke-width="0.398" fill="none" /><path id="454" transform="matrix(1 0 0 -1 0 792)" d="M760.222 396.169L763.211 396.169" stroke="#000000" stroke-width="0.398" fill="none" /><path id="460" transform="matrix(1 0 0 -1 0 792)" d="M793.697 396.169L796.686 396.169" stroke="#000000" stroke-width="0.398" fill="none" /><path id="467" transform="matrix(1 0 0 -1 0 792)" d="M833.149 396.169L836.138 396.169" stroke="#000000" stroke-width="0.398" fill="none" /><path id="473" transform="matrix(1 0 0 -1 0 792)" d="M866.623 396.169L869.612 396.169" stroke="#000000" stroke-width="0.398" fill="none" /><path id="479" transform="matrix(1 0 0 -1 0 792)" d="M921.891 391.888L921.891 405.455" stroke="#000000" stroke-width="0.398" fill="none" /><path id="481" transform="matrix(1 0 0 -1 0 792)" d="M980.913 391.888L980.913 405.455" stroke="#000000" stroke-width="0.398" fill="none" /><path id="483" transform="matrix(1 0 0 -1 0 792)" d="M1039.935 391.888L1039.935 405.455" stroke="#000000" stroke-width="0.398" fill="none" /><path id="485" transform="matrix(1 0 0 -1 0 792)" d="M1069.252 391.888L1069.252 405.455" stroke="#000000" stroke-width="0.398" fill="none" /><path id="486" transform="matrix(1 0 0 -1 0 792)" d="M729.338 391.689L1069.451 391.689" stroke="#000000" stroke-width="0.398" fill="none" /><path id="487" transform="matrix(1 0 0 -1 0 792)" d="M729.537 377.923L729.537 391.49" stroke="#000000" stroke-width="0.398" fill="none" /><path id="492" transform="matrix(1 0 0 -1 0 792)" d="M760.222 382.204L763.211 382.204" stroke="#000000" stroke-width="0.398" fill="none" /><path id="498" transform="matrix(1 0 0 -1 0 792)" d="M793.697 382.204L796.686 382.204" stroke="#000000" stroke-width="0.398" fill="none" /><path id="505" transform="matrix(1 0 0 -1 0 792)" d="M833.149 382.204L836.138 382.204" stroke="#000000" stroke-width="0.398" fill="none" /><path id="509" transform="matrix(1 0 0 -1 0 792)" d="M854.668 382.204L857.657 382.204" stroke="#000000" stroke-width="0.398" fill="none" /><path id="514" transform="matrix(1 0 0 -1 0 792)" d="M921.891 377.923L921.891 391.49" stroke="#000000" stroke-width="0.398" fill="none" /><path id="516" transform="matrix(1 0 0 -1 0 792)" d="M980.913 377.923L980.913 391.49" stroke="#000000" stroke-width="0.398" fill="none" /><path id="518" transform="matrix(1 0 0 -1 0 792)" d="M1039.935 377.923L1039.935 391.49" stroke="#000000" stroke-width="0.398" fill="none" /><path id="520" transform="matrix(1 0 0 -1 0 792)" d="M1069.252 377.923L1069.252 391.49" stroke="#000000" stroke-width="0.398" fill="none" /><path id="521" transform="matrix(1 0 0 -1 0 792)" d="M729.338 377.723L1069.451 377.723" stroke="#000000" stroke-width="0.398" fill="none" /><path id="522" transform="matrix(1 0 0 -1 0 792)" d="M729.537 363.957L729.537 377.524" stroke="#000000" stroke-width="0.398" fill="none" /><path id="527" transform="matrix(1 0 0 -1 0 792)" d="M760.222 368.239L763.211 368.239" stroke="#000000" stroke-width="0.398" fill="none" /><path id="533" transform="matrix(1 0 0 -1 0 792)" d="M793.697 368.239L796.686 368.239" stroke="#000000" stroke-width="0.398" fill="none" /><path id="540" transform="matrix(1 0 0 -1 0 792)" d="M833.149 368.239L836.138 368.239" stroke="#000000" stroke-width="0.398" fill="none" /><path id="546" transform="matrix(1 0 0 -1 0 792)" d="M866.623 368.239L869.612 368.239" stroke="#000000" stroke-width="0.398" fill="none" /><path id="551" transform="matrix(1 0 0 -1 0 792)" d="M921.891 363.957L921.891 377.524" stroke="#000000" stroke-width="0.398" fill="none" /><path id="553" transform="matrix(1 0 0 -1 0 792)" d="M980.913 363.957L980.913 377.524" stroke="#000000" stroke-width="0.398" fill="none" /><path id="555" transform="matrix(1 0 0 -1 0 792)" d="M1039.935 363.957L1039.935 377.524" stroke="#000000" stroke-width="0.398" fill="none" /><path id="557" transform="matrix(1 0 0 -1 0 792)" d="M1069.252 363.957L1069.252 377.524" stroke="#000000" stroke-width="0.398" fill="none" /><path id="558" transform="matrix(1 0 0 -1 0 792)" d="M729.338 363.758L1069.451 363.758" stroke="#000000" stroke-width="0.398" fill="none" /><path id="559" transform="matrix(1 0 0 -1 0 792)" d="M729.537 349.992L729.537 363.559" stroke="#000000" stroke-width="0.398" fill="none" /><path id="564" transform="matrix(1 0 0 -1 0 792)" d="M760.222 354.274L763.211 354.274" stroke="#000000" stroke-width="0.398" fill="none" /><path id="570" transform="matrix(1 0 0 -1 0 792)" d="M793.697 354.274L796.686 354.274" stroke="#000000" stroke-width="0.398" fill="none" /><path id="577" transform="matrix(1 0 0 -1 0 792)" d="M833.149 354.274L836.138 354.274" stroke="#000000" stroke-width="0.398" fill="none" /><path id="582" transform="matrix(1 0 0 -1 0 792)" d="M860.646 354.274L863.635 354.274" stroke="#000000" stroke-width="0.398" fill="none" /><path id="587" transform="matrix(1 0 0 -1 0 792)" d="M921.891 349.992L921.891 363.559" stroke="#000000" stroke-width="0.398" fill="none" /><path id="589" transform="matrix(1 0 0 -1 0 792)" d="M980.913 349.992L980.913 363.559" stroke="#000000" stroke-width="0.398" fill="none" /><path id="591" transform="matrix(1 0 0 -1 0 792)" d="M1039.935 349.992L1039.935 363.559" stroke="#000000" stroke-width="0.398" fill="none" /><path id="593" transform="matrix(1 0 0 -1 0 792)" d="M1069.252 349.992L1069.252 363.559" stroke="#000000" stroke-width="0.398" fill="none" /><path id="594" transform="matrix(1 0 0 -1 0 792)" d="M729.338 349.793L1069.451 349.793" stroke="#000000" stroke-width="0.398" fill="none" /><path id="595" transform="matrix(1 0 0 -1 0 792)" d="M729.537 336.027L729.537 349.594" stroke="#000000" stroke-width="0.398" fill="none" /><path id="600" transform="matrix(1 0 0 -1 0 792)" d="M760.222 340.309L763.211 340.309" stroke="#000000" stroke-width="0.398" fill="none" /><path id="606" transform="matrix(1 0 0 -1 0 792)" d="M793.697 340.309L796.686 340.309" stroke="#000000" stroke-width="0.398" fill="none" /><path id="613" transform="matrix(1 0 0 -1 0 792)" d="M833.149 340.309L836.138 340.309" stroke="#000000" stroke-width="0.398" fill="none" /><path id="619" transform="matrix(1 0 0 -1 0 792)" d="M866.623 340.309L869.612 340.309" stroke="#000000" stroke-width="0.398" fill="none" /><path id="624" transform="matrix(1 0 0 -1 0 792)" d="M921.891 336.027L921.891 349.594" stroke="#000000" stroke-width="0.398" fill="none" /><path id="626" transform="matrix(1 0 0 -1 0 792)" d="M980.913 336.027L980.913 349.594" stroke="#000000" stroke-width="0.398" fill="none" /><path id="628" transform="matrix(1 0 0 -1 0 792)" d="M1039.935 336.027L1039.935 349.594" stroke="#000000" stroke-width="0.398" fill="none" /><path id="630" transform="matrix(1 0 0 -1 0 792)" d="M1069.252 336.027L1069.252 349.594" stroke="#000000" stroke-width="0.398" fill="none" /><path id="631" transform="matrix(1 0 0 -1 0 792)" d="M729.338 335.828L1069.451 335.828" stroke="#000000" stroke-width="0.398" fill="none" /><path id="632" transform="matrix(1 0 0 -1 0 792)" d="M729.537 322.062L729.537 335.629" stroke="#000000" stroke-width="0.398" fill="none" /><path id="642" transform="matrix(1 0 0 -1 0 792)" d="M921.891 322.062L921.891 335.629" stroke="#000000" stroke-width="0.398" fill="none" /><path id="644" transform="matrix(1 0 0 -1 0 792)" d="M980.913 322.062L980.913 335.629" stroke="#000000" stroke-width="0.398" fill="none" /><path id="646" transform="matrix(1 0 0 -1 0 792)" d="M1039.935 322.062L1039.935 335.629" stroke="#000000" stroke-width="0.398" fill="none" /><path id="648" transform="matrix(1 0 0 -1 0 792)" d="M1069.252 322.062L1069.252 335.629" stroke="#000000" stroke-width="0.398" fill="none" /><path id="649" transform="matrix(1 0 0 -1 0 792)" d="M729.338 321.863L1069.451 321.863" stroke="#000000" stroke-width="0.398" fill="none" /><path id="650" transform="matrix(1 0 0 -1 0 792)" d="M729.537 308.097L729.537 321.664" stroke="#000000" stroke-width="0.398" fill="none" /><path id="660" transform="matrix(1 0 0 -1 0 792)" d="M790.11 312.378L793.099 312.378" stroke="#000000" stroke-width="0.398" fill="none" /><path id="666" transform="matrix(1 0 0 -1 0 792)" d="M921.891 308.097L921.891 321.664" stroke="#000000" stroke-width="0.398" fill="none" /><path id="668" transform="matrix(1 0 0 -1 0 792)" d="M980.913 308.097L980.913 321.664" stroke="#000000" stroke-width="0.398" fill="none" /><path id="670" transform="matrix(1 0 0 -1 0 792)" d="M1039.935 308.097L1039.935 321.664" stroke="#000000" stroke-width="0.398" fill="none" /><path id="672" transform="matrix(1 0 0 -1 0 792)" d="M1069.252 308.097L1069.252 321.664" stroke="#000000" stroke-width="0.398" fill="none" /><path id="673" transform="matrix(1 0 0 -1 0 792)" d="M729.338 307.898L1069.451 307.898" stroke="#000000" stroke-width="0.398" fill="none" /><path id="674" transform="matrix(1 0 0 -1 0 792)" d="M729.537 294.132L729.537 307.699" stroke="#000000" stroke-width="0.398" fill="none" /><path id="684" transform="matrix(1 0 0 -1 0 792)" d="M790.11 298.413L793.099 298.413" stroke="#000000" stroke-width="0.398" fill="none" /><path id="691" transform="matrix(1 0 0 -1 0 792)" d="M921.891 294.132L921.891 307.699" stroke="#000000" stroke-width="0.398" fill="none" /><path id="693" transform="matrix(1 0 0 -1 0 792)" d="M980.913 294.132L980.913 307.699" stroke="#000000" stroke-width="0.398" fill="none" /><path id="695" transform="matrix(1 0 0 -1 0 792)" d="M1039.935 294.132L1039.935 307.699" stroke="#000000" stroke-width="0.398" fill="none" /><path id="697" transform="matrix(1 0 0 -1 0 792)" d="M1069.252 294.132L1069.252 307.699" stroke="#000000" stroke-width="0.398" fill="none" /><path id="698" transform="matrix(1 0 0 -1 0 792)" d="M729.338 293.932L1069.451 293.932" stroke="#000000" stroke-width="0.398" fill="none" /><path id="699" transform="matrix(1 0 0 -1 0 792)" d="M729.537 280.167L729.537 293.734" stroke="#000000" stroke-width="0.398" fill="none" /><path id="709" transform="matrix(1 0 0 -1 0 792)" d="M790.11 284.448L793.099 284.448" stroke="#000000" stroke-width="0.398" fill="none" /><path id="713" transform="matrix(1 0 0 -1 0 792)" d="M811.629 284.448L814.618 284.448" stroke="#000000" stroke-width="0.398" fill="none" /><path id="718" transform="matrix(1 0 0 -1 0 792)" d="M921.891 280.167L921.891 293.734" stroke="#000000" stroke-width="0.398" fill="none" /><path id="720" transform="matrix(1 0 0 -1 0 792)" d="M980.913 280.167L980.913 293.734" stroke="#000000" stroke-width="0.398" fill="none" /><path id="722" transform="matrix(1 0 0 -1 0 792)" d="M1039.935 280.167L1039.935 293.734" stroke="#000000" stroke-width="0.398" fill="none" /><path id="724" transform="matrix(1 0 0 -1 0 792)" d="M1069.252 280.167L1069.252 293.734" stroke="#000000" stroke-width="0.398" fill="none" /><path id="725" transform="matrix(1 0 0 -1 0 792)" d="M729.338 279.967L1069.451 279.967" stroke="#000000" stroke-width="0.398" fill="none" /><path id="726" transform="matrix(1 0 0 -1 0 792)" d="M729.537 266.201L729.537 279.768" stroke="#000000" stroke-width="0.398" fill="none" /><path id="736" transform="matrix(1 0 0 -1 0 792)" d="M790.11 270.483L793.099 270.483" stroke="#000000" stroke-width="0.398" fill="none" /><path id="742" transform="matrix(1 0 0 -1 0 792)" d="M823.585 270.483L826.574 270.483" stroke="#000000" stroke-width="0.398" fill="none" /><path id="747" transform="matrix(1 0 0 -1 0 792)" d="M921.891 266.201L921.891 279.768" stroke="#000000" stroke-width="0.398" fill="none" /><path id="749" transform="matrix(1 0 0 -1 0 792)" d="M980.913 266.201L980.913 279.768" stroke="#000000" stroke-width="0.398" fill="none" /><path id="751" transform="matrix(1 0 0 -1 0 792)" d="M1039.935 266.201L1039.935 279.768" stroke="#000000" stroke-width="0.398" fill="none" /><path id="753" transform="matrix(1 0 0 -1 0 792)" d="M1069.252 266.201L1069.252 279.768" stroke="#000000" stroke-width="0.398" fill="none" /><path id="754" transform="matrix(1 0 0 -1 0 792)" d="M729.338 266.002L1069.451 266.002" stroke="#000000" stroke-width="0.398" fill="none" /><path id="755" transform="matrix(1 0 0 -1 0 792)" d="M729.537 252.236L729.537 265.803" stroke="#000000" stroke-width="0.398" fill="none" /><path id="765" transform="matrix(1 0 0 -1 0 792)" d="M790.11 256.518L793.099 256.518" stroke="#000000" stroke-width="0.398" fill="none" /><path id="770" transform="matrix(1 0 0 -1 0 792)" d="M817.607 256.518L820.596 256.518" stroke="#000000" stroke-width="0.398" fill="none" /><path id="775" transform="matrix(1 0 0 -1 0 792)" d="M921.891 252.236L921.891 265.803" stroke="#000000" stroke-width="0.398" fill="none" /><path id="777" transform="matrix(1 0 0 -1 0 792)" d="M980.913 252.236L980.913 265.803" stroke="#000000" stroke-width="0.398" fill="none" /><path id="779" transform="matrix(1 0 0 -1 0 792)" d="M1039.935 252.236L1039.935 265.803" stroke="#000000" stroke-width="0.398" fill="none" /><path id="781" transform="matrix(1 0 0 -1 0 792)" d="M1069.252 252.236L1069.252 265.803" stroke="#000000" stroke-width="0.398" fill="none" /><path id="782" transform="matrix(1 0 0 -1 0 792)" d="M729.338 252.037L1069.451 252.037" stroke="#000000" stroke-width="0.398" fill="none" /><path id="783" transform="matrix(1 0 0 -1 0 792)" d="M729.537 238.271L729.537 251.838" stroke="#000000" stroke-width="0.398" fill="none" /><path id="793" transform="matrix(1 0 0 -1 0 792)" d="M790.11 242.553L793.099 242.553" stroke="#000000" stroke-width="0.398" fill="none" /><path id="799" transform="matrix(1 0 0 -1 0 792)" d="M823.585 242.553L826.574 242.553" stroke="#000000" stroke-width="0.398" fill="none" /><path id="804" transform="matrix(1 0 0 -1 0 792)" d="M921.891 238.271L921.891 251.838" stroke="#000000" stroke-width="0.398" fill="none" /><path id="806" transform="matrix(1 0 0 -1 0 792)" d="M980.913 238.271L980.913 251.838" stroke="#000000" stroke-width="0.398" fill="none" /><path id="808" transform="matrix(1 0 0 -1 0 792)" d="M1039.935 238.271L1039.935 251.838" stroke="#000000" stroke-width="0.398" fill="none" /><path id="810" transform="matrix(1 0 0 -1 0 792)" d="M1069.252 238.271L1069.252 251.838" stroke="#000000" stroke-width="0.398" fill="none" /><path id="811" transform="matrix(1 0 0 -1 0 792)" d="M729.338 238.072L1069.451 238.072" stroke="#000000" stroke-width="0.398" fill="none" /><path id="812" transform="matrix(1 0 0 -1 0 792)" d="M729.537 224.306L729.537 237.873" stroke="#000000" stroke-width="0.398" fill="none" /><path id="822" transform="matrix(1 0 0 -1 0 792)" d="M790.11 228.588L793.099 228.588" stroke="#000000" stroke-width="0.398" fill="none" /><path id="832" transform="matrix(1 0 0 -1 0 792)" d="M847.495 228.588L850.484 228.588" stroke="#000000" stroke-width="0.398" fill="none" /><path id="837" transform="matrix(1 0 0 -1 0 792)" d="M921.891 224.306L921.891 237.873" stroke="#000000" stroke-width="0.398" fill="none" /><path id="839" transform="matrix(1 0 0 -1 0 792)" d="M980.913 224.306L980.913 237.873" stroke="#000000" stroke-width="0.398" fill="none" /><path id="841" transform="matrix(1 0 0 -1 0 792)" d="M1039.935 224.306L1039.935 237.873" stroke="#000000" stroke-width="0.398" fill="none" /><path id="843" transform="matrix(1 0 0 -1 0 792)" d="M1069.252 224.306L1069.252 237.873" stroke="#000000" stroke-width="0.398" fill="none" /><path id="844" transform="matrix(1 0 0 -1 0 792)" d="M729.338 224.107L1069.451 224.107" stroke="#000000" stroke-width="0.398" fill="none" /><path id="845" transform="matrix(1 0 0 -1 0 792)" d="M729.537 210.341L729.537 223.908" stroke="#000000" stroke-width="0.398" fill="none" /><path id="855" transform="matrix(1 0 0 -1 0 792)" d="M790.11 214.622L793.099 214.622" stroke="#000000" stroke-width="0.398" fill="none" /><path id="860" transform="matrix(1 0 0 -1 0 792)" d="M921.891 210.341L921.891 223.908" stroke="#000000" stroke-width="0.398" fill="none" /><path id="862" transform="matrix(1 0 0 -1 0 792)" d="M980.913 210.341L980.913 223.908" stroke="#000000" stroke-width="0.398" fill="none" /><path id="864" transform="matrix(1 0 0 -1 0 792)" d="M1039.935 210.341L1039.935 223.908" stroke="#000000" stroke-width="0.398" fill="none" /><path id="866" transform="matrix(1 0 0 -1 0 792)" d="M1069.252 210.341L1069.252 223.908" stroke="#000000" stroke-width="0.398" fill="none" /><path id="867" transform="matrix(1 0 0 -1 0 792)" d="M729.338 210.142L1069.451 210.142" stroke="#000000" stroke-width="0.398" fill="none" /><path id="891" transform="matrix(1 0 0 -1 0 792)" d="M666.067 722.529L1132.724 722.529L1132.724 722.529L1132.724 735.6745L1132.724 735.6745L666.067 735.6745z" stroke="#FFFFFF" stroke-width="1" fill="#FFFFFF" fill-rule="nonzero" /><path id="943" transform="matrix(1 0 0 -1 0 792)" d="M54.067 721.28L520.722 721.28" stroke="#000000" stroke-width="0.498" fill="none" /><path id="944" transform="matrix(1 0 0 -1 0 792)" d="M117.338 589.193L457.451 589.193" stroke="#000000" stroke-width="0.398" fill="none" /><path id="945" transform="matrix(1 0 0 -1 0 792)" d="M117.537 575.427L117.537 588.994" stroke="#000000" stroke-width="0.398" fill="none" /><path id="946" transform="matrix(1 0 0 -1 0 792)" d="M117.737 575.427L309.692 575.427L309.692 588.994L117.737 588.994z" stroke="none" fill="#CCCCEB" fill-rule="nonzero" /><path id="952" transform="matrix(1 0 0 -1 0 792)" d="M309.891 575.427L309.891 588.994" stroke="#000000" stroke-width="0.398" fill="none" /><path id="953" transform="matrix(1 0 0 -1 0 792)" d="M310.09 575.427L368.714 575.427L368.714 588.994L310.09 588.994z" stroke="none" fill="#CCCCEB" fill-rule="nonzero" /><path id="963" transform="matrix(1 0 0 -1 0 792)" d="M368.913 575.427L368.913 588.994" stroke="#000000" stroke-width="0.398" fill="none" /><path id="964" transform="matrix(1 0 0 -1 0 792)" d="M369.112 575.427L427.736 575.427L427.736 588.994L369.112 588.994z" stroke="none" fill="#CCCCEB" fill-rule="nonzero" /><path id="972" transform="matrix(1 0 0 -1 0 792)" d="M427.935 575.427L427.935 588.994" stroke="#000000" stroke-width="0.398" fill="none" /><path id="973" transform="matrix(1 0 0 -1 0 792)" d="M428.134 575.427L457.053 575.427L457.053 588.994L428.134 588.994z" stroke="none" fill="#CCCCEB" fill-rule="nonzero" /><path id="977" transform="matrix(1 0 0 -1 0 792)" d="M457.252 575.427L457.252 588.994" stroke="#000000" stroke-width="0.398" fill="none" /><path id="978" transform="matrix(1 0 0 -1 0 792)" d="M117.537 561.861L117.537 575.428" stroke="#000000" stroke-width="0.398" fill="none" /><path id="979" transform="matrix(1 0 0 -1 0 792)" d="M117.737 561.861L309.692 561.861L309.692 575.428L117.737 575.428z" stroke="none" fill="#CCCCEB" fill-rule="nonzero" /><path id="980" transform="matrix(1 0 0 -1 0 792)" d="M309.891 561.861L309.891 575.428" stroke="#000000" stroke-width="0.398" fill="none" /><path id="981" transform="matrix(1 0 0 -1 0 792)" d="M310.09 561.861L368.714 561.861L368.714 575.428L310.09 575.428z" stroke="none" fill="#CCCCEB" fill-rule="nonzero" /><path id="982" transform="matrix(1 0 0 -1 0 792)" d="M368.913 561.861L368.913 575.428" stroke="#000000" stroke-width="0.398" fill="none" /><path id="983" transform="matrix(1 0 0 -1 0 792)" d="M369.112 561.861L427.736 561.861L427.736 575.428L369.112 575.428z" stroke="none" fill="#CCCCEB" fill-rule="nonzero" /><path id="989" transform="matrix(1 0 0 -1 0 792)" d="M427.935 561.861L427.935 575.428" stroke="#000000" stroke-width="0.398" fill="none" /><path id="990" transform="matrix(1 0 0 -1 0 792)" d="M428.134 561.861L457.053 561.861L457.053 575.428L428.134 575.428z" stroke="none" fill="#CCCCEB" fill-rule="nonzero" /><path id="991" transform="matrix(1 0 0 -1 0 792)" d="M457.252 561.861L457.252 575.428" stroke="#000000" stroke-width="0.398" fill="none" /><path id="992" transform="matrix(1 0 0 -1 0 792)" d="M117.338 561.661L457.451 561.661" stroke="#000000" stroke-width="0.398" fill="none" /><path id="993" transform="matrix(1 0 0 -1 0 792)" d="M117.338 559.27L457.451 559.27" stroke="#000000" stroke-width="0.398" fill="none" /><path id="994" transform="matrix(1 0 0 -1 0 792)" d="M117.537 545.504L117.537 559.071" stroke="#000000" stroke-width="0.398" fill="none" /><path id="999" transform="matrix(1 0 0 -1 0 792)" d="M148.222 549.786L151.211 549.786" stroke="#000000" stroke-width="0.398" fill="none" /><path id="1011" transform="matrix(1 0 0 -1 0 792)" d="M217.562 549.786L220.551 549.786" stroke="#000000" stroke-width="0.398" fill="none" /><path id="1015" transform="matrix(1 0 0 -1 0 792)" d="M239.081 549.786L242.07 549.786" stroke="#000000" stroke-width="0.398" fill="none" /><path id="1021" transform="matrix(1 0 0 -1 0 792)" d="M309.891 545.504L309.891 559.071" stroke="#000000" stroke-width="0.398" fill="none" /><path id="1023" transform="matrix(1 0 0 -1 0 792)" d="M368.913 545.504L368.913 559.071" stroke="#000000" stroke-width="0.398" fill="none" /><path id="1025" transform="matrix(1 0 0 -1 0 792)" d="M427.935 545.504L427.935 559.071" stroke="#000000" stroke-width="0.398" fill="none" /><path id="1027" transform="matrix(1 0 0 -1 0 792)" d="M457.252 545.504L457.252 559.071" stroke="#000000" stroke-width="0.398" fill="none" /><path id="1028" transform="matrix(1 0 0 -1 0 792)" d="M117.338 545.305L457.451 545.305" stroke="#000000" stroke-width="0.398" fill="none" /><path id="1029" transform="matrix(1 0 0 -1 0 792)" d="M117.537 531.539L117.537 545.106" stroke="#000000" stroke-width="0.398" fill="none" /><path id="1034" transform="matrix(1 0 0 -1 0 792)" d="M148.222 535.821L151.211 535.821" stroke="#000000" stroke-width="0.398" fill="none" /><path id="1046" transform="matrix(1 0 0 -1 0 792)" d="M217.562 535.821L220.551 535.821" stroke="#000000" stroke-width="0.398" fill="none" /><path id="1052" transform="matrix(1 0 0 -1 0 792)" d="M251.037 535.821L254.026 535.821" stroke="#000000" stroke-width="0.398" fill="none" /><path id="1058" transform="matrix(1 0 0 -1 0 792)" d="M309.891 531.539L309.891 545.106" stroke="#000000" stroke-width="0.398" fill="none" /><path id="1060" transform="matrix(1 0 0 -1 0 792)" d="M368.913 531.539L368.913 545.106" stroke="#000000" stroke-width="0.398" fill="none" /><path id="1062" transform="matrix(1 0 0 -1 0 792)" d="M427.935 531.539L427.935 545.106" stroke="#000000" stroke-width="0.398" fill="none" /><path id="1064" transform="matrix(1 0 0 -1 0 792)" d="M457.252 531.539L457.252 545.106" stroke="#000000" stroke-width="0.398" fill="none" /><path id="1065" transform="matrix(1 0 0 -1 0 792)" d="M117.338 531.34L457.451 531.34" stroke="#000000" stroke-width="0.398" fill="none" /><path id="1066" transform="matrix(1 0 0 -1 0 792)" d="M117.537 517.574L117.537 531.141" stroke="#000000" stroke-width="0.398" fill="none" /><path id="1071" transform="matrix(1 0 0 -1 0 792)" d="M148.222 521.856L151.211 521.856" stroke="#000000" stroke-width="0.398" fill="none" /><path id="1083" transform="matrix(1 0 0 -1 0 792)" d="M217.562 521.856L220.551 521.856" stroke="#000000" stroke-width="0.398" fill="none" /><path id="1088" transform="matrix(1 0 0 -1 0 792)" d="M245.059 521.856L248.048 521.856" stroke="#000000" stroke-width="0.398" fill="none" /><path id="1094" transform="matrix(1 0 0 -1 0 792)" d="M309.891 517.574L309.891 531.141" stroke="#000000" stroke-width="0.398" fill="none" /><path id="1096" transform="matrix(1 0 0 -1 0 792)" d="M368.913 517.574L368.913 531.141" stroke="#000000" stroke-width="0.398" fill="none" /><path id="1098" transform="matrix(1 0 0 -1 0 792)" d="M427.935 517.574L427.935 531.141" stroke="#000000" stroke-width="0.398" fill="none" /><path id="1100" transform="matrix(1 0 0 -1 0 792)" d="M457.252 517.574L457.252 531.141" stroke="#000000" stroke-width="0.398" fill="none" /><path id="1101" transform="matrix(1 0 0 -1 0 792)" d="M117.338 517.375L457.451 517.375" stroke="#000000" stroke-width="0.398" fill="none" /><path id="1102" transform="matrix(1 0 0 -1 0 792)" d="M117.537 503.609L117.537 517.176" stroke="#000000" stroke-width="0.398" fill="none" /><path id="1107" transform="matrix(1 0 0 -1 0 792)" d="M148.222 507.89L151.211 507.89" stroke="#000000" stroke-width="0.398" fill="none" /><path id="1119" transform="matrix(1 0 0 -1 0 792)" d="M217.562 507.89L220.551 507.89" stroke="#000000" stroke-width="0.398" fill="none" /><path id="1125" transform="matrix(1 0 0 -1 0 792)" d="M251.037 507.89L254.026 507.89" stroke="#000000" stroke-width="0.398" fill="none" /><path id="1131" transform="matrix(1 0 0 -1 0 792)" d="M309.891 503.609L309.891 517.176" stroke="#000000" stroke-width="0.398" fill="none" /><path id="1133" transform="matrix(1 0 0 -1 0 792)" d="M368.913 503.609L368.913 517.176" stroke="#000000" stroke-width="0.398" fill="none" /><path id="1135" transform="matrix(1 0 0 -1 0 792)" d="M427.935 503.609L427.935 517.176" stroke="#000000" stroke-width="0.398" fill="none" /><path id="1137" transform="matrix(1 0 0 -1 0 792)" d="M457.252 503.609L457.252 517.176" stroke="#000000" stroke-width="0.398" fill="none" /><path id="1138" transform="matrix(1 0 0 -1 0 792)" d="M117.338 503.41L457.451 503.41" stroke="#000000" stroke-width="0.398" fill="none" /><path id="1139" transform="matrix(1 0 0 -1 0 792)" d="M117.537 489.644L117.537 503.211" stroke="#000000" stroke-width="0.398" fill="none" /><path id="1144" transform="matrix(1 0 0 -1 0 792)" d="M148.222 493.925L151.211 493.925" stroke="#000000" stroke-width="0.398" fill="none" /><path id="1156" transform="matrix(1 0 0 -1 0 792)" d="M217.562 493.925L220.551 493.925" stroke="#000000" stroke-width="0.398" fill="none" /><path id="1160" transform="matrix(1 0 0 -1 0 792)" d="M239.081 493.925L242.07 493.925" stroke="#000000" stroke-width="0.398" fill="none" /><path id="1165" transform="matrix(1 0 0 -1 0 792)" d="M309.891 489.644L309.891 503.211" stroke="#000000" stroke-width="0.398" fill="none" /><path id="1167" transform="matrix(1 0 0 -1 0 792)" d="M368.913 489.644L368.913 503.211" stroke="#000000" stroke-width="0.398" fill="none" /><path id="1169" transform="matrix(1 0 0 -1 0 792)" d="M427.935 489.644L427.935 503.211" stroke="#000000" stroke-width="0.398" fill="none" /><path id="1171" transform="matrix(1 0 0 -1 0 792)" d="M457.252 489.644L457.252 503.211" stroke="#000000" stroke-width="0.398" fill="none" /><path id="1172" transform="matrix(1 0 0 -1 0 792)" d="M117.338 489.445L457.451 489.445" stroke="#000000" stroke-width="0.398" fill="none" /><path id="1173" transform="matrix(1 0 0 -1 0 792)" d="M117.537 475.679L117.537 489.246" stroke="#000000" stroke-width="0.398" fill="none" /><path id="1178" transform="matrix(1 0 0 -1 0 792)" d="M148.222 479.96L151.211 479.96" stroke="#000000" stroke-width="0.398" fill="none" /><path id="1190" transform="matrix(1 0 0 -1 0 792)" d="M217.562 479.96L220.551 479.96" stroke="#000000" stroke-width="0.398" fill="none" /><path id="1196" transform="matrix(1 0 0 -1 0 792)" d="M251.037 479.96L254.026 479.96" stroke="#000000" stroke-width="0.398" fill="none" /><path id="1201" transform="matrix(1 0 0 -1 0 792)" d="M309.891 475.679L309.891 489.246" stroke="#000000" stroke-width="0.398" fill="none" /><path id="1203" transform="matrix(1 0 0 -1 0 792)" d="M368.913 475.679L368.913 489.246" stroke="#000000" stroke-width="0.398" fill="none" /><path id="1205" transform="matrix(1 0 0 -1 0 792)" d="M427.935 475.679L427.935 489.246" stroke="#000000" stroke-width="0.398" fill="none" /><path id="1207" transform="matrix(1 0 0 -1 0 792)" d="M457.252 475.679L457.252 489.246" stroke="#000000" stroke-width="0.398" fill="none" /><path id="1208" transform="matrix(1 0 0 -1 0 792)" d="M117.338 475.479L457.451 475.479" stroke="#000000" stroke-width="0.398" fill="none" /><path id="1209" transform="matrix(1 0 0 -1 0 792)" d="M117.537 461.714L117.537 475.281" stroke="#000000" stroke-width="0.398" fill="none" /><path id="1214" transform="matrix(1 0 0 -1 0 792)" d="M148.222 465.995L151.211 465.995" stroke="#000000" stroke-width="0.398" fill="none" /><path id="1226" transform="matrix(1 0 0 -1 0 792)" d="M217.562 465.995L220.551 465.995" stroke="#000000" stroke-width="0.398" fill="none" /><path id="1231" transform="matrix(1 0 0 -1 0 792)" d="M245.059 465.995L248.048 465.995" stroke="#000000" stroke-width="0.398" fill="none" /><path id="1236" transform="matrix(1 0 0 -1 0 792)" d="M309.891 461.714L309.891 475.281" stroke="#000000" stroke-width="0.398" fill="none" /><path id="1238" transform="matrix(1 0 0 -1 0 792)" d="M368.913 461.714L368.913 475.281" stroke="#000000" stroke-width="0.398" fill="none" /><path id="1240" transform="matrix(1 0 0 -1 0 792)" d="M427.935 461.714L427.935 475.281" stroke="#000000" stroke-width="0.398" fill="none" /><path id="1242" transform="matrix(1 0 0 -1 0 792)" d="M457.252 461.714L457.252 475.281" stroke="#000000" stroke-width="0.398" fill="none" /><path id="1243" transform="matrix(1 0 0 -1 0 792)" d="M117.338 461.514L457.451 461.514" stroke="#000000" stroke-width="0.398" fill="none" /><path id="1244" transform="matrix(1 0 0 -1 0 792)" d="M117.537 447.748L117.537 461.315" stroke="#000000" stroke-width="0.398" fill="none" /><path id="1249" transform="matrix(1 0 0 -1 0 792)" d="M148.222 452.03L151.211 452.03" stroke="#000000" stroke-width="0.398" fill="none" /><path id="1261" transform="matrix(1 0 0 -1 0 792)" d="M217.562 452.03L220.551 452.03" stroke="#000000" stroke-width="0.398" fill="none" /><path id="1267" transform="matrix(1 0 0 -1 0 792)" d="M251.037 452.03L254.026 452.03" stroke="#000000" stroke-width="0.398" fill="none" /><path id="1272" transform="matrix(1 0 0 -1 0 792)" d="M309.891 447.748L309.891 461.315" stroke="#000000" stroke-width="0.398" fill="none" /><path id="1274" transform="matrix(1 0 0 -1 0 792)" d="M368.913 447.748L368.913 461.315" stroke="#000000" stroke-width="0.398" fill="none" /><path id="1276" transform="matrix(1 0 0 -1 0 792)" d="M427.935 447.748L427.935 461.315" stroke="#000000" stroke-width="0.398" fill="none" /><path id="1278" transform="matrix(1 0 0 -1 0 792)" d="M457.252 447.748L457.252 461.315" stroke="#000000" stroke-width="0.398" fill="none" /><path id="1279" transform="matrix(1 0 0 -1 0 792)" d="M117.338 447.549L457.451 447.549" stroke="#000000" stroke-width="0.398" fill="none" /><path id="1280" transform="matrix(1 0 0 -1 0 792)" d="M117.537 433.783L117.537 447.35" stroke="#000000" stroke-width="0.398" fill="none" /><path id="1285" transform="matrix(1 0 0 -1 0 792)" d="M148.222 438.065L151.211 438.065" stroke="#000000" stroke-width="0.398" fill="none" /><path id="1291" transform="matrix(1 0 0 -1 0 792)" d="M181.697 438.065L184.686 438.065" stroke="#000000" stroke-width="0.398" fill="none" /><path id="1298" transform="matrix(1 0 0 -1 0 792)" d="M221.149 438.065L224.138 438.065" stroke="#000000" stroke-width="0.398" fill="none" /><path id="1302" transform="matrix(1 0 0 -1 0 792)" d="M242.668 438.065L245.657 438.065" stroke="#000000" stroke-width="0.398" fill="none" /><path id="1308" transform="matrix(1 0 0 -1 0 792)" d="M309.891 433.783L309.891 447.35" stroke="#000000" stroke-width="0.398" fill="none" /><path id="1310" transform="matrix(1 0 0 -1 0 792)" d="M368.913 433.783L368.913 447.35" stroke="#000000" stroke-width="0.398" fill="none" /><path id="1312" transform="matrix(1 0 0 -1 0 792)" d="M427.935 433.783L427.935 447.35" stroke="#000000" stroke-width="0.398" fill="none" /><path id="1314" transform="matrix(1 0 0 -1 0 792)" d="M457.252 433.783L457.252 447.35" stroke="#000000" stroke-width="0.398" fill="none" /><path id="1315" transform="matrix(1 0 0 -1 0 792)" d="M117.338 433.584L457.451 433.584" stroke="#000000" stroke-width="0.398" fill="none" /><path id="1316" transform="matrix(1 0 0 -1 0 792)" d="M117.537 419.818L117.537 433.385" stroke="#000000" stroke-width="0.398" fill="none" /><path id="1321" transform="matrix(1 0 0 -1 0 792)" d="M148.222 424.1L151.211 424.1" stroke="#000000" stroke-width="0.398" fill="none" /><path id="1327" transform="matrix(1 0 0 -1 0 792)" d="M181.697 424.1L184.686 424.1" stroke="#000000" stroke-width="0.398" fill="none" /><path id="1334" transform="matrix(1 0 0 -1 0 792)" d="M221.149 424.1L224.138 424.1" stroke="#000000" stroke-width="0.398" fill="none" /><path id="1340" transform="matrix(1 0 0 -1 0 792)" d="M254.623 424.1L257.612 424.1" stroke="#000000" stroke-width="0.398" fill="none" /><path id="1346" transform="matrix(1 0 0 -1 0 792)" d="M309.891 419.818L309.891 433.385" stroke="#000000" stroke-width="0.398" fill="none" /><path id="1348" transform="matrix(1 0 0 -1 0 792)" d="M368.913 419.818L368.913 433.385" stroke="#000000" stroke-width="0.398" fill="none" /><path id="1350" transform="matrix(1 0 0 -1 0 792)" d="M427.935 419.818L427.935 433.385" stroke="#000000" stroke-width="0.398" fill="none" /><path id="1352" transform="matrix(1 0 0 -1 0 792)" d="M457.252 419.818L457.252 433.385" stroke="#000000" stroke-width="0.398" fill="none" /><path id="1353" transform="matrix(1 0 0 -1 0 792)" d="M117.338 419.619L457.451 419.619" stroke="#000000" stroke-width="0.398" fill="none" /><path id="1354" transform="matrix(1 0 0 -1 0 792)" d="M117.537 405.853L117.537 419.42" stroke="#000000" stroke-width="0.398" fill="none" /><path id="1359" transform="matrix(1 0 0 -1 0 792)" d="M148.222 410.134L151.211 410.134" stroke="#000000" stroke-width="0.398" fill="none" /><path id="1365" transform="matrix(1 0 0 -1 0 792)" d="M181.697 410.134L184.686 410.134" stroke="#000000" stroke-width="0.398" fill="none" /><path id="1372" transform="matrix(1 0 0 -1 0 792)" d="M221.149 410.134L224.138 410.134" stroke="#000000" stroke-width="0.398" fill="none" /><path id="1377" transform="matrix(1 0 0 -1 0 792)" d="M248.646 410.134L251.635 410.134" stroke="#000000" stroke-width="0.398" fill="none" /><path id="1383" transform="matrix(1 0 0 -1 0 792)" d="M309.891 405.853L309.891 419.42" stroke="#000000" stroke-width="0.398" fill="none" /><path id="1385" transform="matrix(1 0 0 -1 0 792)" d="M368.913 405.853L368.913 419.42" stroke="#000000" stroke-width="0.398" fill="none" /><path id="1387" transform="matrix(1 0 0 -1 0 792)" d="M427.935 405.853L427.935 419.42" stroke="#000000" stroke-width="0.398" fill="none" /><path id="1389" transform="matrix(1 0 0 -1 0 792)" d="M457.252 405.853L457.252 419.42" stroke="#000000" stroke-width="0.398" fill="none" /><path id="1390" transform="matrix(1 0 0 -1 0 792)" d="M117.338 405.654L457.451 405.654" stroke="#000000" stroke-width="0.398" fill="none" /><path id="1391" transform="matrix(1 0 0 -1 0 792)" d="M117.537 391.888L117.537 405.455" stroke="#000000" stroke-width="0.398" fill="none" /><path id="1396" transform="matrix(1 0 0 -1 0 792)" d="M148.222 396.169L151.211 396.169" stroke="#000000" stroke-width="0.398" fill="none" /><path id="1402" transform="matrix(1 0 0 -1 0 792)" d="M181.697 396.169L184.686 396.169" stroke="#000000" stroke-width="0.398" fill="none" /><path id="1409" transform="matrix(1 0 0 -1 0 792)" d="M221.149 396.169L224.138 396.169" stroke="#000000" stroke-width="0.398" fill="none" /><path id="1415" transform="matrix(1 0 0 -1 0 792)" d="M254.623 396.169L257.612 396.169" stroke="#000000" stroke-width="0.398" fill="none" /><path id="1421" transform="matrix(1 0 0 -1 0 792)" d="M309.891 391.888L309.891 405.455" stroke="#000000" stroke-width="0.398" fill="none" /><path id="1423" transform="matrix(1 0 0 -1 0 792)" d="M368.913 391.888L368.913 405.455" stroke="#000000" stroke-width="0.398" fill="none" /><path id="1425" transform="matrix(1 0 0 -1 0 792)" d="M427.935 391.888L427.935 405.455" stroke="#000000" stroke-width="0.398" fill="none" /><path id="1427" transform="matrix(1 0 0 -1 0 792)" d="M457.252 391.888L457.252 405.455" stroke="#000000" stroke-width="0.398" fill="none" /><path id="1428" transform="matrix(1 0 0 -1 0 792)" d="M117.338 391.689L457.451 391.689" stroke="#000000" stroke-width="0.398" fill="none" /><path id="1429" transform="matrix(1 0 0 -1 0 792)" d="M117.537 377.923L117.537 391.49" stroke="#000000" stroke-width="0.398" fill="none" /><path id="1434" transform="matrix(1 0 0 -1 0 792)" d="M148.222 382.204L151.211 382.204" stroke="#000000" stroke-width="0.398" fill="none" /><path id="1440" transform="matrix(1 0 0 -1 0 792)" d="M181.697 382.204L184.686 382.204" stroke="#000000" stroke-width="0.398" fill="none" /><path id="1447" transform="matrix(1 0 0 -1 0 792)" d="M221.149 382.204L224.138 382.204" stroke="#000000" stroke-width="0.398" fill="none" /><path id="1451" transform="matrix(1 0 0 -1 0 792)" d="M242.668 382.204L245.657 382.204" stroke="#000000" stroke-width="0.398" fill="none" /><path id="1456" transform="matrix(1 0 0 -1 0 792)" d="M309.891 377.923L309.891 391.49" stroke="#000000" stroke-width="0.398" fill="none" /><path id="1458" transform="matrix(1 0 0 -1 0 792)" d="M368.913 377.923L368.913 391.49" stroke="#000000" stroke-width="0.398" fill="none" /><path id="1460" transform="matrix(1 0 0 -1 0 792)" d="M427.935 377.923L427.935 391.49" stroke="#000000" stroke-width="0.398" fill="none" /><path id="1462" transform="matrix(1 0 0 -1 0 792)" d="M457.252 377.923L457.252 391.49" stroke="#000000" stroke-width="0.398" fill="none" /><path id="1463" transform="matrix(1 0 0 -1 0 792)" d="M117.338 377.723L457.451 377.723" stroke="#000000" stroke-width="0.398" fill="none" /><path id="1464" transform="matrix(1 0 0 -1 0 792)" d="M117.537 363.957L117.537 377.524" stroke="#000000" stroke-width="0.398" fill="none" /><path id="1469" transform="matrix(1 0 0 -1 0 792)" d="M148.222 368.239L151.211 368.239" stroke="#000000" stroke-width="0.398" fill="none" /><path id="1475" transform="matrix(1 0 0 -1 0 792)" d="M181.697 368.239L184.686 368.239" stroke="#000000" stroke-width="0.398" fill="none" /><path id="1482" transform="matrix(1 0 0 -1 0 792)" d="M221.149 368.239L224.138 368.239" stroke="#000000" stroke-width="0.398" fill="none" /><path id="1488" transform="matrix(1 0 0 -1 0 792)" d="M254.623 368.239L257.612 368.239" stroke="#000000" stroke-width="0.398" fill="none" /><path id="1493" transform="matrix(1 0 0 -1 0 792)" d="M309.891 363.957L309.891 377.524" stroke="#000000" stroke-width="0.398" fill="none" /><path id="1495" transform="matrix(1 0 0 -1 0 792)" d="M368.913 363.957L368.913 377.524" stroke="#000000" stroke-width="0.398" fill="none" /><path id="1497" transform="matrix(1 0 0 -1 0 792)" d="M427.935 363.957L427.935 377.524" stroke="#000000" stroke-width="0.398" fill="none" /><path id="1499" transform="matrix(1 0 0 -1 0 792)" d="M457.252 363.957L457.252 377.524" stroke="#000000" stroke-width="0.398" fill="none" /><path id="1500" transform="matrix(1 0 0 -1 0 792)" d="M117.338 363.758L457.451 363.758" stroke="#000000" stroke-width="0.398" fill="none" /><path id="1501" transform="matrix(1 0 0 -1 0 792)" d="M117.537 349.992L117.537 363.559" stroke="#000000" stroke-width="0.398" fill="none" /><path id="1506" transform="matrix(1 0 0 -1 0 792)" d="M148.222 354.274L151.211 354.274" stroke="#000000" stroke-width="0.398" fill="none" /><path id="1512" transform="matrix(1 0 0 -1 0 792)" d="M181.697 354.274L184.686 354.274" stroke="#000000" stroke-width="0.398" fill="none" /><path id="1519" transform="matrix(1 0 0 -1 0 792)" d="M221.149 354.274L224.138 354.274" stroke="#000000" stroke-width="0.398" fill="none" /><path id="1524" transform="matrix(1 0 0 -1 0 792)" d="M248.646 354.274L251.635 354.274" stroke="#000000" stroke-width="0.398" fill="none" /><path id="1529" transform="matrix(1 0 0 -1 0 792)" d="M309.891 349.992L309.891 363.559" stroke="#000000" stroke-width="0.398" fill="none" /><path id="1531" transform="matrix(1 0 0 -1 0 792)" d="M368.913 349.992L368.913 363.559" stroke="#000000" stroke-width="0.398" fill="none" /><path id="1533" transform="matrix(1 0 0 -1 0 792)" d="M427.935 349.992L427.935 363.559" stroke="#000000" stroke-width="0.398" fill="none" /><path id="1535" transform="matrix(1 0 0 -1 0 792)" d="M457.252 349.992L457.252 363.559" stroke="#000000" stroke-width="0.398" fill="none" /><path id="1536" transform="matrix(1 0 0 -1 0 792)" d="M117.338 349.793L457.451 349.793" stroke="#000000" stroke-width="0.398" fill="none" /><path id="1537" transform="matrix(1 0 0 -1 0 792)" d="M117.537 336.027L117.537 349.594" stroke="#000000" stroke-width="0.398" fill="none" /><path id="1542" transform="matrix(1 0 0 -1 0 792)" d="M148.222 340.309L151.211 340.309" stroke="#000000" stroke-width="0.398" fill="none" /><path id="1548" transform="matrix(1 0 0 -1 0 792)" d="M181.697 340.309L184.686 340.309" stroke="#000000" stroke-width="0.398" fill="none" /><path id="1555" transform="matrix(1 0 0 -1 0 792)" d="M221.149 340.309L224.138 340.309" stroke="#000000" stroke-width="0.398" fill="none" /><path id="1561" transform="matrix(1 0 0 -1 0 792)" d="M254.623 340.309L257.612 340.309" stroke="#000000" stroke-width="0.398" fill="none" /><path id="1566" transform="matrix(1 0 0 -1 0 792)" d="M309.891 336.027L309.891 349.594" stroke="#000000" stroke-width="0.398" fill="none" /><path id="1568" transform="matrix(1 0 0 -1 0 792)" d="M368.913 336.027L368.913 349.594" stroke="#000000" stroke-width="0.398" fill="none" /><path id="1570" transform="matrix(1 0 0 -1 0 792)" d="M427.935 336.027L427.935 349.594" stroke="#000000" stroke-width="0.398" fill="none" /><path id="1572" transform="matrix(1 0 0 -1 0 792)" d="M457.252 336.027L457.252 349.594" stroke="#000000" stroke-width="0.398" fill="none" /><path id="1573" transform="matrix(1 0 0 -1 0 792)" d="M117.338 335.828L457.451 335.828" stroke="#000000" stroke-width="0.398" fill="none" /><path id="1574" transform="matrix(1 0 0 -1 0 792)" d="M117.537 322.062L117.537 335.629" stroke="#000000" stroke-width="0.398" fill="none" /><path id="1584" transform="matrix(1 0 0 -1 0 792)" d="M309.891 322.062L309.891 335.629" stroke="#000000" stroke-width="0.398" fill="none" /><path id="1586" transform="matrix(1 0 0 -1 0 792)" d="M368.913 322.062L368.913 335.629" stroke="#000000" stroke-width="0.398" fill="none" /><path id="1588" transform="matrix(1 0 0 -1 0 792)" d="M427.935 322.062L427.935 335.629" stroke="#000000" stroke-width="0.398" fill="none" /><path id="1590" transform="matrix(1 0 0 -1 0 792)" d="M457.252 322.062L457.252 335.629" stroke="#000000" stroke-width="0.398" fill="none" /><path id="1591" transform="matrix(1 0 0 -1 0 792)" d="M117.338 321.863L457.451 321.863" stroke="#000000" stroke-width="0.398" fill="none" /><path id="1592" transform="matrix(1 0 0 -1 0 792)" d="M117.537 308.097L117.537 321.664" stroke="#000000" stroke-width="0.398" fill="none" /><path id="1602" transform="matrix(1 0 0 -1 0 792)" d="M178.11 312.378L181.099 312.378" stroke="#000000" stroke-width="0.398" fill="none" /><path id="1608" transform="matrix(1 0 0 -1 0 792)" d="M309.891 308.097L309.891 321.664" stroke="#000000" stroke-width="0.398" fill="none" /><path id="1610" transform="matrix(1 0 0 -1 0 792)" d="M368.913 308.097L368.913 321.664" stroke="#000000" stroke-width="0.398" fill="none" /><path id="1612" transform="matrix(1 0 0 -1 0 792)" d="M427.935 308.097L427.935 321.664" stroke="#000000" stroke-width="0.398" fill="none" /><path id="1614" transform="matrix(1 0 0 -1 0 792)" d="M457.252 308.097L457.252 321.664" stroke="#000000" stroke-width="0.398" fill="none" /><path id="1615" transform="matrix(1 0 0 -1 0 792)" d="M117.338 307.898L457.451 307.898" stroke="#000000" stroke-width="0.398" fill="none" /><path id="1616" transform="matrix(1 0 0 -1 0 792)" d="M117.537 294.132L117.537 307.699" stroke="#000000" stroke-width="0.398" fill="none" /><path id="1626" transform="matrix(1 0 0 -1 0 792)" d="M178.11 298.413L181.099 298.413" stroke="#000000" stroke-width="0.398" fill="none" /><path id="1633" transform="matrix(1 0 0 -1 0 792)" d="M309.891 294.132L309.891 307.699" stroke="#000000" stroke-width="0.398" fill="none" /><path id="1635" transform="matrix(1 0 0 -1 0 792)" d="M368.913 294.132L368.913 307.699" stroke="#000000" stroke-width="0.398" fill="none" /><path id="1637" transform="matrix(1 0 0 -1 0 792)" d="M427.935 294.132L427.935 307.699" stroke="#000000" stroke-width="0.398" fill="none" /><path id="1639" transform="matrix(1 0 0 -1 0 792)" d="M457.252 294.132L457.252 307.699" stroke="#000000" stroke-width="0.398" fill="none" /><path id="1640" transform="matrix(1 0 0 -1 0 792)" d="M117.338 293.932L457.451 293.932" stroke="#000000" stroke-width="0.398" fill="none" /><path id="1641" transform="matrix(1 0 0 -1 0 792)" d="M117.537 280.167L117.537 293.734" stroke="#000000" stroke-width="0.398" fill="none" /><path id="1651" transform="matrix(1 0 0 -1 0 792)" d="M178.11 284.448L181.099 284.448" stroke="#000000" stroke-width="0.398" fill="none" /><path id="1655" transform="matrix(1 0 0 -1 0 792)" d="M199.629 284.448L202.618 284.448" stroke="#000000" stroke-width="0.398" fill="none" /><path id="1660" transform="matrix(1 0 0 -1 0 792)" d="M309.891 280.167L309.891 293.734" stroke="#000000" stroke-width="0.398" fill="none" /><path id="1662" transform="matrix(1 0 0 -1 0 792)" d="M368.913 280.167L368.913 293.734" stroke="#000000" stroke-width="0.398" fill="none" /><path id="1664" transform="matrix(1 0 0 -1 0 792)" d="M427.935 280.167L427.935 293.734" stroke="#000000" stroke-width="0.398" fill="none" /><path id="1666" transform="matrix(1 0 0 -1 0 792)" d="M457.252 280.167L457.252 293.734" stroke="#000000" stroke-width="0.398" fill="none" /><path id="1667" transform="matrix(1 0 0 -1 0 792)" d="M117.338 279.967L457.451 279.967" stroke="#000000" stroke-width="0.398" fill="none" /><path id="1668" transform="matrix(1 0 0 -1 0 792)" d="M117.537 266.201L117.537 279.768" stroke="#000000" stroke-width="0.398" fill="none" /><path id="1678" transform="matrix(1 0 0 -1 0 792)" d="M178.11 270.483L181.099 270.483" stroke="#000000" stroke-width="0.398" fill="none" /><path id="1684" transform="matrix(1 0 0 -1 0 792)" d="M211.585 270.483L214.574 270.483" stroke="#000000" stroke-width="0.398" fill="none" /><path id="1689" transform="matrix(1 0 0 -1 0 792)" d="M309.891 266.201L309.891 279.768" stroke="#000000" stroke-width="0.398" fill="none" /><path id="1691" transform="matrix(1 0 0 -1 0 792)" d="M368.913 266.201L368.913 279.768" stroke="#000000" stroke-width="0.398" fill="none" /><path id="1693" transform="matrix(1 0 0 -1 0 792)" d="M427.935 266.201L427.935 279.768" stroke="#000000" stroke-width="0.398" fill="none" /><path id="1695" transform="matrix(1 0 0 -1 0 792)" d="M457.252 266.201L457.252 279.768" stroke="#000000" stroke-width="0.398" fill="none" /><path id="1696" transform="matrix(1 0 0 -1 0 792)" d="M117.338 266.002L457.451 266.002" stroke="#000000" stroke-width="0.398" fill="none" /><path id="1697" transform="matrix(1 0 0 -1 0 792)" d="M117.537 252.236L117.537 265.803" stroke="#000000" stroke-width="0.398" fill="none" /><path id="1707" transform="matrix(1 0 0 -1 0 792)" d="M178.11 256.518L181.099 256.518" stroke="#000000" stroke-width="0.398" fill="none" /><path id="1712" transform="matrix(1 0 0 -1 0 792)" d="M205.607 256.518L208.596 256.518" stroke="#000000" stroke-width="0.398" fill="none" /><path id="1717" transform="matrix(1 0 0 -1 0 792)" d="M309.891 252.236L309.891 265.803" stroke="#000000" stroke-width="0.398" fill="none" /><path id="1719" transform="matrix(1 0 0 -1 0 792)" d="M368.913 252.236L368.913 265.803" stroke="#000000" stroke-width="0.398" fill="none" /><path id="1721" transform="matrix(1 0 0 -1 0 792)" d="M427.935 252.236L427.935 265.803" stroke="#000000" stroke-width="0.398" fill="none" /><path id="1723" transform="matrix(1 0 0 -1 0 792)" d="M457.252 252.236L457.252 265.803" stroke="#000000" stroke-width="0.398" fill="none" /><path id="1724" transform="matrix(1 0 0 -1 0 792)" d="M117.338 252.037L457.451 252.037" stroke="#000000" stroke-width="0.398" fill="none" /><path id="1725" transform="matrix(1 0 0 -1 0 792)" d="M117.537 238.271L117.537 251.838" stroke="#000000" stroke-width="0.398" fill="none" /><path id="1735" transform="matrix(1 0 0 -1 0 792)" d="M178.11 242.553L181.099 242.553" stroke="#000000" stroke-width="0.398" fill="none" /><path id="1741" transform="matrix(1 0 0 -1 0 792)" d="M211.585 242.553L214.574 242.553" stroke="#000000" stroke-width="0.398" fill="none" /><path id="1746" transform="matrix(1 0 0 -1 0 792)" d="M309.891 238.271L309.891 251.838" stroke="#000000" stroke-width="0.398" fill="none" /><path id="1748" transform="matrix(1 0 0 -1 0 792)" d="M368.913 238.271L368.913 251.838" stroke="#000000" stroke-width="0.398" fill="none" /><path id="1750" transform="matrix(1 0 0 -1 0 792)" d="M427.935 238.271L427.935 251.838" stroke="#000000" stroke-width="0.398" fill="none" /><path id="1752" transform="matrix(1 0 0 -1 0 792)" d="M457.252 238.271L457.252 251.838" stroke="#000000" stroke-width="0.398" fill="none" /><path id="1753" transform="matrix(1 0 0 -1 0 792)" d="M117.338 238.072L457.451 238.072" stroke="#000000" stroke-width="0.398" fill="none" /><path id="1754" transform="matrix(1 0 0 -1 0 792)" d="M117.537 224.306L117.537 237.873" stroke="#000000" stroke-width="0.398" fill="none" /><path id="1764" transform="matrix(1 0 0 -1 0 792)" d="M178.11 228.588L181.099 228.588" stroke="#000000" stroke-width="0.398" fill="none" /><path id="1774" transform="matrix(1 0 0 -1 0 792)" d="M235.495 228.588L238.484 228.588" stroke="#000000" stroke-width="0.398" fill="none" /><path id="1779" transform="matrix(1 0 0 -1 0 792)" d="M309.891 224.306L309.891 237.873" stroke="#000000" stroke-width="0.398" fill="none" /><path id="1781" transform="matrix(1 0 0 -1 0 792)" d="M368.913 224.306L368.913 237.873" stroke="#000000" stroke-width="0.398" fill="none" /><path id="1783" transform="matrix(1 0 0 -1 0 792)" d="M427.935 224.306L427.935 237.873" stroke="#000000" stroke-width="0.398" fill="none" /><path id="1785" transform="matrix(1 0 0 -1 0 792)" d="M457.252 224.306L457.252 237.873" stroke="#000000" stroke-width="0.398" fill="none" /><path id="1786" transform="matrix(1 0 0 -1 0 792)" d="M117.338 224.107L457.451 224.107" stroke="#000000" stroke-width="0.398" fill="none" /><path id="1787" transform="matrix(1 0 0 -1 0 792)" d="M117.537 210.341L117.537 223.908" stroke="#000000" stroke-width="0.398" fill="none" /><path id="1797" transform="matrix(1 0 0 -1 0 792)" d="M178.11 214.622L181.099 214.622" stroke="#000000" stroke-width="0.398" fill="none" /><path id="1802" transform="matrix(1 0 0 -1 0 792)" d="M309.891 210.341L309.891 223.908" stroke="#000000" stroke-width="0.398" fill="none" /><path id="1804" transform="matrix(1 0 0 -1 0 792)" d="M368.913 210.341L368.913 223.908" stroke="#000000" stroke-width="0.398" fill="none" /><path id="1806" transform="matrix(1 0 0 -1 0 792)" d="M427.935 210.341L427.935 223.908" stroke="#000000" stroke-width="0.398" fill="none" /><path id="1808" transform="matrix(1 0 0 -1 0 792)" d="M457.252 210.341L457.252 223.908" stroke="#000000" stroke-width="0.398" fill="none" /><path id="1809" transform="matrix(1 0 0 -1 0 792)" d="M117.338 210.142L457.451 210.142" stroke="#000000" stroke-width="0.398" fill="none" /></g></g></svg>