<svg xmlns="http://www.w3.org/2000/svg" xmlns:xlink="http://www.w3.org/1999/xlink" id="body_46" preserveAspectRatio="xMinYMin meet" viewBox="0 0 1632 1056"><defs><clipPath id="1"><path id="" clip-rule="evenodd" transform="matrix(1 0 0 1 0 0)" d="M0 792L0 0L0 0L1224 0L1224 0L1224 792L1224 792L0 792z" /></clipPath></defs><g transform="matrix(1.333333 0 0 1.333333 0 0)"><g clip-path="url(#1)"><path id="1" transform="matrix(1 0 0 -1 0 792)" d="M666.067 721.28L1132.722 721.28" stroke="#000000" stroke-width="0.498" fill="none" /><path id="2" transform="matrix(1 0 0 -1 0 792)" d="M1017.323 664.95L1020.312 664.95" stroke="#000000" stroke-width="0.398" fill="none" /><path id="14" transform="matrix(1 0 0 -1 0 792)" d="M753.667 559.938L756.656 559.938" stroke="#000000" stroke-width="0.398" fill="none" /><path id="15" transform="matrix(1 0 0 -1 0 792)" d="M823.007 559.938L825.996 559.938" stroke="#000000" stroke-width="0.398" fill="none" /><path id="16" transform="matrix(1 0 0 -1 0 792)" d="M791.909 546.389L794.898 546.389" stroke="#000000" stroke-width="0.398" fill="none" /><path id="17" transform="matrix(1 0 0 -1 0 792)" d="M769.18 515.691L772.169 515.691" stroke="#000000" stroke-width="0.398" fill="none" /><path id="18" transform="matrix(1 0 0 -1 0 792)" d="M786.374 502.141L789.363 502.141" stroke="#000000" stroke-width="0.398" fill="none" /><path id="19" transform="matrix(1 0 0 -1 0 792)" d="M769.769 484.992L772.758 484.992" stroke="#000000" stroke-width="0.398" fill="none" /><path id="20" transform="matrix(1 0 0 -1 0 792)" d="M842.119 471.443L845.108 471.443" stroke="#000000" stroke-width="0.398" fill="none" /><path id="21" transform="matrix(1 0 0 -1 0 792)" d="M769.942 454.293L772.931 454.293" stroke="#000000" stroke-width="0.398" fill="none" /><path id="22" transform="matrix(1 0 0 -1 0 792)" d="M739.121 440.744L742.11 440.744" stroke="#000000" stroke-width="0.398" fill="none" /><path id="23" transform="matrix(1 0 0 -1 0 792)" d="M814.438 440.744L817.427 440.744" stroke="#000000" stroke-width="0.398" fill="none" /><path id="24" transform="matrix(1 0 0 -1 0 792)" d="M770.531 423.595L773.52 423.595" stroke="#000000" stroke-width="0.398" fill="none" /><path id="25" transform="matrix(1 0 0 -1 0 792)" d="M769.573 392.896L772.562 392.896" stroke="#000000" stroke-width="0.398" fill="none" /><path id="26" transform="matrix(1 0 0 -1 0 792)" d="M770.263 362.198L773.252 362.198" stroke="#000000" stroke-width="0.398" fill="none" /><path id="27" transform="matrix(1 0 0 -1 0 792)" d="M769.431 331.499L772.42 331.499" stroke="#000000" stroke-width="0.398" fill="none" /><path id="33" transform="matrix(1 0 0 -1 0 792)" d="M770.543 300.8L773.532 300.8" stroke="#000000" stroke-width="0.398" fill="none" /><path id="40" transform="matrix(1 0 0 -1 0 792)" d="M770.543 270.102L773.532 270.102" stroke="#000000" stroke-width="0.398" fill="none" /><path id="47" transform="matrix(1 0 0 -1 0 792)" d="M767.75 239.403L770.739 239.403" stroke="#000000" stroke-width="0.398" fill="none" /><path id="48" transform="matrix(1 0 0 -1 0 792)" d="M746.46 222.254L749.449 222.254" stroke="#000000" stroke-width="0.398" fill="none" /><path id="49" transform="matrix(1 0 0 -1 0 792)" d="M762.002 222.254L764.991 222.254" stroke="#000000" stroke-width="0.398" fill="none" /><path id="85" transform="matrix(1 0 0 -1 0 792)" d="M769.229 191.555L772.218 191.555" stroke="#000000" stroke-width="0.398" fill="none" /><path id="86" transform="matrix(1 0 0 -1 0 792)" d="M1123.756 191.555L1126.745 191.555" stroke="#000000" stroke-width="0.398" fill="none" /><path id="87" transform="matrix(1 0 0 -1 0 792)" d="M690.575 178.006L693.564 178.006" stroke="#000000" stroke-width="0.398" fill="none" /><path id="88" transform="matrix(1 0 0 -1 0 792)" d="M936.772 178.006L939.761 178.006" stroke="#000000" stroke-width="0.398" fill="none" /><path id="89" transform="matrix(1 0 0 -1 0 792)" d="M964.269 178.006L967.258 178.006" stroke="#000000" stroke-width="0.398" fill="none" /><path id="90" transform="matrix(1 0 0 -1 0 792)" d="M706.929 163.291L1091.86 163.291" stroke="#000000" stroke-width="0.398" fill="none" /><path id="91" transform="matrix(1 0 0 -1 0 792)" d="M706.929 163.291L1091.86 163.291" stroke="#000000" stroke-width="0.398" fill="none" /><path id="92" transform="matrix(1 0 0 -1 0 792)" d="M707.129 149.525L707.129 163.092" stroke="#000000" stroke-width="0.398" fill="none" /><path id="93" transform="matrix(1 0 0 -1 0 792)" d="M707.328 149.525L1036.083 149.525L1036.083 163.092L707.328 163.092z" stroke="none" fill="#CCCCEB" fill-rule="nonzero" /><path id="103" transform="matrix(1 0 0 -1 0 792)" d="M1036.282 149.525L1036.282 163.092" stroke="#000000" stroke-width="0.398" fill="none" /><path id="104" transform="matrix(1 0 0 -1 0 792)" d="M1036.481 149.525L1091.461 149.525L1091.461 163.092L1036.481 163.092z" stroke="none" fill="#CCCCEB" fill-rule="nonzero" /><path id="111" transform="matrix(1 0 0 -1 0 792)" d="M1091.661 149.525L1091.661 163.092" stroke="#000000" stroke-width="0.398" fill="none" /><path id="112" transform="matrix(1 0 0 -1 0 792)" d="M706.929 149.325L1091.86 149.325" stroke="#000000" stroke-width="0.398" fill="none" /><path id="113" transform="matrix(1 0 0 -1 0 792)" d="M706.929 149.325L1091.86 149.325" stroke="#000000" stroke-width="0.398" fill="none" /><path id="114" transform="matrix(1 0 0 -1 0 792)" d="M706.929 148.927L1091.86 148.927" stroke="#000000" stroke-width="0.398" fill="none" /><path id="115" transform="matrix(1 0 0 -1 0 792)" d="M706.929 148.927L1091.86 148.927" stroke="#000000" stroke-width="0.398" fill="none" /><path id="116" transform="matrix(1 0 0 -1 0 792)" d="M707.129 135.161L707.129 148.728" stroke="#000000" stroke-width="0.398" fill="none" /><path id="166" transform="matrix(1 0 0 -1 0 792)" d="M1036.282 135.161L1036.282 148.728" stroke="#000000" stroke-width="0.398" fill="none" /><path id="168" transform="matrix(1 0 0 -1 0 792)" d="M1091.661 135.161L1091.661 148.728" stroke="#000000" stroke-width="0.398" fill="none" /><path id="169" transform="matrix(1 0 0 -1 0 792)" d="M706.929 134.962L1091.86 134.962" stroke="#000000" stroke-width="0.398" fill="none" /><path id="170" transform="matrix(1 0 0 -1 0 792)" d="M706.929 134.962L1091.86 134.962" stroke="#000000" stroke-width="0.398" fill="none" /><path id="171" transform="matrix(1 0 0 -1 0 792)" d="M707.129 107.664L707.129 134.762" stroke="#000000" stroke-width="0.398" fill="none" /><path id="227" transform="matrix(1 0 0 -1 0 792)" d="M1036.282 107.664L1036.282 134.762" stroke="#000000" stroke-width="0.398" fill="none" /><path id="229" transform="matrix(1 0 0 -1 0 792)" d="M1091.661 107.664L1091.661 134.762" stroke="#000000" stroke-width="0.398" fill="none" /><path id="230" transform="matrix(1 0 0 -1 0 792)" d="M706.929 107.465L1091.86 107.465" stroke="#000000" stroke-width="0.398" fill="none" /><path id="231" transform="matrix(1 0 0 -1 0 792)" d="M706.929 107.465L1091.86 107.465" stroke="#000000" stroke-width="0.398" fill="none" /><path id="232" transform="matrix(1 0 0 -1 0 792)" d="M707.129 93.699L707.129 107.266" stroke="#000000" stroke-width="0.398" fill="none" /><path id="280" transform="matrix(1 0 0 -1 0 792)" d="M1036.282 93.699L1036.282 107.266" stroke="#000000" stroke-width="0.398" fill="none" /><path id="282" transform="matrix(1 0 0 -1 0 792)" d="M1091.661 93.699L1091.661 107.266" stroke="#000000" stroke-width="0.398" fill="none" /><path id="283" transform="matrix(1 0 0 -1 0 792)" d="M706.929 93.5L1091.86 93.5" stroke="#000000" stroke-width="0.398" fill="none" /><path id="284" transform="matrix(1 0 0 -1 0 792)" d="M706.929 93.5L1091.86 93.5" stroke="#000000" stroke-width="0.398" fill="none" /><path id="285" transform="matrix(1 0 0 -1 0 792)" d="M707.129 66.202L707.129 93.3" stroke="#000000" stroke-width="0.398" fill="none" /><path id="363" transform="matrix(1 0 0 -1 0 792)" d="M1036.282 66.202L1036.282 93.3" stroke="#000000" stroke-width="0.398" fill="none" /><path id="365" transform="matrix(1 0 0 -1 0 792)" d="M1091.661 66.202L1091.661 93.3" stroke="#000000" stroke-width="0.398" fill="none" /><path id="366" transform="matrix(1 0 0 -1 0 792)" d="M706.929 66.003L1091.86 66.003" stroke="#000000" stroke-width="0.398" fill="none" /><path id="367" transform="matrix(1 0 0 -1 0 792)" d="M666.067 722.529L1132.724 722.529L1132.724 722.529L1132.724 735.6745L1132.724 735.6745L666.067 735.6745z" stroke="#FFFFFF" stroke-width="1" fill="#FFFFFF" fill-rule="nonzero" /><path id="383" transform="matrix(1 0 0 -1 0 792)" d="M666.067 681.944L940.616 681.944L940.616 681.944L940.616 696.1368L940.616 696.1368L666.067 696.1368z" stroke="#FFFFFF" stroke-width="1" fill="#FFFFFF" fill-rule="nonzero" /><path id="398" transform="matrix(1 0 0 -1 0 792)" d="M666.067 607.157L1132.725 607.157L1132.725 607.157L1132.725 674.8313L1132.725 674.8313L666.067 674.8313z" stroke="#FFFFFF" stroke-width="1" fill="#FFFFFF" fill-rule="nonzero" /><path id="580" transform="matrix(1 0 0 -1 0 792)" d="M666.067 529.576L1132.725 529.576L1132.725 529.576L1132.725 569.8195L1132.725 569.8195L666.067 569.8195z" stroke="#FFFFFF" stroke-width="1" fill="#FFFFFF" fill-rule="nonzero" /><path id="680" transform="matrix(1 0 0 -1 0 792)" d="M683.004 512.094L1132.722 512.094L1132.722 512.094L1132.722 525.5713L1132.722 525.5713L683.004 525.5713z" stroke="#FFFFFF" stroke-width="1" fill="#FFFFFF" fill-rule="nonzero" /><path id="736" transform="matrix(1 0 0 -1 0 792)" d="M666.067 498.877L865.439 498.877L865.439 498.877L865.439 512.0225L865.439 512.0225L666.067 512.0225z" stroke="#FFFFFF" stroke-width="1" fill="#FFFFFF" fill-rule="nonzero" /><path id="760" transform="matrix(1 0 0 -1 0 792)" d="M683.004 481.396L1132.722 481.396L1132.722 481.396L1132.722 494.8733L1132.722 494.8733L683.004 494.8733z" stroke="#FFFFFF" stroke-width="1" fill="#FFFFFF" fill-rule="nonzero" /><path id="808" transform="matrix(1 0 0 -1 0 792)" d="M666.067 468.179L921.183 468.179L921.183 468.179L921.183 481.3245L921.183 481.3245L666.067 481.3245z" stroke="#FFFFFF" stroke-width="1" fill="#FFFFFF" fill-rule="nonzero" /><path id="836" transform="matrix(1 0 0 -1 0 792)" d="M683.004 450.697L1132.718 450.697L1132.718 450.697L1132.718 464.1743L1132.718 464.1743L683.004 464.1743z" stroke="#FFFFFF" stroke-width="1" fill="#FFFFFF" fill-rule="nonzero" /><path id="867" transform="matrix(1 0 0 -1 0 792)" d="M666.0671 437.48L844.0641 437.48L844.0641 437.48L844.0641 450.6255L844.0641 450.6255L666.0671 450.6255z" stroke="#FFFFFF" stroke-width="1" fill="#FFFFFF" fill-rule="nonzero" /><path id="890" transform="matrix(1 0 0 -1 0 792)" d="M683.004 419.999L1132.718 419.999L1132.718 419.999L1132.718 433.4763L1132.718 433.4763L683.004 433.4763z" stroke="#FFFFFF" stroke-width="1" fill="#FFFFFF" fill-rule="nonzero" /><path id="938" transform="matrix(1 0 0 -1 0 792)" d="M666.067 406.781L950.151 406.781L950.151 406.781L950.151 419.9265L950.151 419.9265L666.067 419.9265z" stroke="#FFFFFF" stroke-width="1" fill="#FFFFFF" fill-rule="nonzero" /><path id="959" transform="matrix(1 0 0 -1 0 792)" d="M683.004 389.3L1132.722 389.3L1132.722 389.3L1132.722 402.7773L1132.722 402.7773L683.004 402.7773z" stroke="#FFFFFF" stroke-width="1" fill="#FFFFFF" fill-rule="nonzero" /><path id="1025" transform="matrix(1 0 0 -1 0 792)" d="M666.067 376.083L830.674 376.083L830.674 376.083L830.674 389.2285L830.674 389.2285L666.067 389.2285z" stroke="#FFFFFF" stroke-width="1" fill="#FFFFFF" fill-rule="nonzero" /><path id="1046" transform="matrix(1 0 0 -1 0 792)" d="M683.004 358.601L1132.719 358.601L1132.719 358.601L1132.719 372.0783L1132.719 372.0783L683.004 372.0783z" stroke="#FFFFFF" stroke-width="1" fill="#FFFFFF" fill-rule="nonzero" /><path id="1091" transform="matrix(1 0 0 -1 0 792)" d="M666.067 345.384L774.056 345.384L774.056 345.384L774.056 358.5295L774.056 358.5295L666.067 358.5295z" stroke="#FFFFFF" stroke-width="1" fill="#FFFFFF" fill-rule="nonzero" /><path id="1100" transform="matrix(1 0 0 -1 0 792)" d="M683.004 327.903L1132.721 327.903L1132.721 327.903L1132.721 341.3803L1132.721 341.3803L683.004 341.3803z" stroke="#FFFFFF" stroke-width="1" fill="#FFFFFF" fill-rule="nonzero" /><path id="1144" transform="matrix(1 0 0 -1 0 792)" d="M683.004 297.204L1132.723 297.204L1132.723 297.204L1132.723 310.6813L1132.723 310.6813L683.004 310.6813z" stroke="#FFFFFF" stroke-width="1" fill="#FFFFFF" fill-rule="nonzero" /><path id="1185" transform="matrix(1 0 0 -1 0 792)" d="M683.004 266.506L1132.723 266.506L1132.723 266.506L1132.723 279.9832L1132.723 279.9832L683.004 279.9832z" stroke="#FFFFFF" stroke-width="1" fill="#FFFFFF" fill-rule="nonzero" /><path id="1226" transform="matrix(1 0 0 -1 0 792)" d="M683.004 235.807L1146.382 235.807L1146.382 235.807L1146.382 249.2843L1146.382 249.2843L683.004 249.2843z" stroke="#FFFFFF" stroke-width="1" fill="#FFFFFF" fill-rule="nonzero" /><path id="1289" transform="matrix(1 0 0 -1 0 792)" d="M683.004 218.99L1132.722 218.99L1132.722 218.99L1132.722 232.1355L1132.722 232.1355L683.004 232.1355z" stroke="#FFFFFF" stroke-width="1" fill="#FFFFFF" fill-rule="nonzero" /><path id="1323" transform="matrix(1 0 0 -1 0 792)" d="M683.004 187.959L1132.723 187.959L1132.723 187.959L1132.723 201.4362L1132.723 201.4362L683.004 201.4362z" stroke="#FFFFFF" stroke-width="1" fill="#FFFFFF" fill-rule="nonzero" /><path id="1378" transform="matrix(1 0 0 -1 0 792)" d="M666.067 174.742L1080.022 174.742L1080.022 174.742L1080.022 187.8875L1080.022 187.8875L666.067 187.8875z" stroke="#FFFFFF" stroke-width="1" fill="#FFFFFF" fill-rule="nonzero" /><path id="1479" transform="matrix(1 0 0 -1 0 792)" d="M54.067 721.28L520.722 721.28" stroke="#000000" stroke-width="0.498" fill="none" /><path id="1593" transform="matrix(1 0 0 -1 0 792)" d="M405.323 664.95L408.312 664.95" stroke="#000000" stroke-width="0.398" fill="none" /><path id="1983" transform="matrix(1 0 0 -1 0 792)" d="M141.667 559.938L144.656 559.938" stroke="#000000" stroke-width="0.398" fill="none" /><path id="1995" transform="matrix(1 0 0 -1 0 792)" d="M211.007 559.938L213.996 559.938" stroke="#000000" stroke-width="0.398" fill="none" /><path id="2075" transform="matrix(1 0 0 -1 0 792)" d="M179.909 546.389L182.898 546.389" stroke="#000000" stroke-width="0.398" fill="none" /><path id="2156" transform="matrix(1 0 0 -1 0 792)" d="M157.18 515.691L160.169 515.691" stroke="#000000" stroke-width="0.398" fill="none" /><path id="2248" transform="matrix(1 0 0 -1 0 792)" d="M174.374 502.141L177.363 502.141" stroke="#000000" stroke-width="0.398" fill="none" /><path id="2278" transform="matrix(1 0 0 -1 0 792)" d="M157.769 484.992L160.758 484.992" stroke="#000000" stroke-width="0.398" fill="none" /><path id="2380" transform="matrix(1 0 0 -1 0 792)" d="M230.119 471.443L233.108 471.443" stroke="#000000" stroke-width="0.398" fill="none" /><path id="2410" transform="matrix(1 0 0 -1 0 792)" d="M157.942 454.293L160.931 454.293" stroke="#000000" stroke-width="0.398" fill="none" /><path id="2494" transform="matrix(1 0 0 -1 0 792)" d="M127.121 440.744L130.11 440.744" stroke="#000000" stroke-width="0.398" fill="none" /><path id="2507" transform="matrix(1 0 0 -1 0 792)" d="M202.438 440.744L205.427 440.744" stroke="#000000" stroke-width="0.398" fill="none" /><path id="2528" transform="matrix(1 0 0 -1 0 792)" d="M158.531 423.595L161.52 423.595" stroke="#000000" stroke-width="0.398" fill="none" /><path id="2670" transform="matrix(1 0 0 -1 0 792)" d="M157.573 392.896L160.562 392.896" stroke="#000000" stroke-width="0.398" fill="none" /><path id="2788" transform="matrix(1 0 0 -1 0 792)" d="M158.263 362.198L161.252 362.198" stroke="#000000" stroke-width="0.398" fill="none" /><path id="2893" transform="matrix(1 0 0 -1 0 792)" d="M157.431 331.499L160.42 331.499" stroke="#000000" stroke-width="0.398" fill="none" /><path id="2984" transform="matrix(1 0 0 -1 0 792)" d="M158.543 300.8L161.532 300.8" stroke="#000000" stroke-width="0.398" fill="none" /><path id="3075" transform="matrix(1 0 0 -1 0 792)" d="M158.543 270.102L161.532 270.102" stroke="#000000" stroke-width="0.398" fill="none" /><path id="3166" transform="matrix(1 0 0 -1 0 792)" d="M155.75 239.403L158.739 239.403" stroke="#000000" stroke-width="0.398" fill="none" /><path id="3251" transform="matrix(1 0 0 -1 0 792)" d="M134.46 222.254L137.449 222.254" stroke="#000000" stroke-width="0.398" fill="none" /><path id="3254" transform="matrix(1 0 0 -1 0 792)" d="M150.002 222.254L152.991 222.254" stroke="#000000" stroke-width="0.398" fill="none" /><path id="3371" transform="matrix(1 0 0 -1 0 792)" d="M157.229 191.555L160.218 191.555" stroke="#000000" stroke-width="0.398" fill="none" /><path id="3436" transform="matrix(1 0 0 -1 0 792)" d="M511.756 191.555L514.745 191.555" stroke="#000000" stroke-width="0.398" fill="none" /><path id="3442" transform="matrix(1 0 0 -1 0 792)" d="M78.575 178.006L81.564 178.006" stroke="#000000" stroke-width="0.398" fill="none" /><path id="3488" transform="matrix(1 0 0 -1 0 792)" d="M324.772 178.006L327.761 178.006" stroke="#000000" stroke-width="0.398" fill="none" /><path id="3493" transform="matrix(1 0 0 -1 0 792)" d="M352.269 178.006L355.258 178.006" stroke="#000000" stroke-width="0.398" fill="none" /><path id="3515" transform="matrix(1 0 0 -1 0 792)" d="M94.929 163.291L479.86 163.291" stroke="#000000" stroke-width="0.398" fill="none" /><path id="3516" transform="matrix(1 0 0 -1 0 792)" d="M94.929 163.291L479.86 163.291" stroke="#000000" stroke-width="0.398" fill="none" /><path id="3517" transform="matrix(1 0 0 -1 0 792)" d="M95.129 149.525L95.129 163.092" stroke="#000000" stroke-width="0.398" fill="none" /><path id="3518" transform="matrix(1 0 0 -1 0 792)" d="M95.328 149.525L424.083 149.525L424.083 163.092L95.328 163.092z" stroke="none" fill="#CCCCEB" fill-rule="nonzero" /><path id="3528" transform="matrix(1 0 0 -1 0 792)" d="M424.282 149.525L424.282 163.092" stroke="#000000" stroke-width="0.398" fill="none" /><path id="3529" transform="matrix(1 0 0 -1 0 792)" d="M424.481 149.525L479.461 149.525L479.461 163.092L424.481 163.092z" stroke="none" fill="#CCCCEB" fill-rule="nonzero" /><path id="3536" transform="matrix(1 0 0 -1 0 792)" d="M479.661 149.525L479.661 163.092" stroke="#000000" stroke-width="0.398" fill="none" /><path id="3537" transform="matrix(1 0 0 -1 0 792)" d="M94.929 149.325L479.86 149.325" stroke="#000000" stroke-width="0.398" fill="none" /><path id="3538" transform="matrix(1 0 0 -1 0 792)" d="M94.929 149.325L479.86 149.325" stroke="#000000" stroke-width="0.398" fill="none" /><path id="3539" transform="matrix(1 0 0 -1 0 792)" d="M94.929 148.927L479.86 148.927" stroke="#000000" stroke-width="0.398" fill="none" /><path id="3540" transform="matrix(1 0 0 -1 0 792)" d="M94.929 148.927L479.86 148.927" stroke="#000000" stroke-width="0.398" fill="none" /><path id="3541" transform="matrix(1 0 0 -1 0 792)" d="M95.129 135.161L95.129 148.728" stroke="#000000" stroke-width="0.398" fill="none" /><path id="3591" transform="matrix(1 0 0 -1 0 792)" d="M424.282 135.161L424.282 148.728" stroke="#000000" stroke-width="0.398" fill="none" /><path id="3593" transform="matrix(1 0 0 -1 0 792)" d="M479.661 135.161L479.661 148.728" stroke="#000000" stroke-width="0.398" fill="none" /><path id="3594" transform="matrix(1 0 0 -1 0 792)" d="M94.929 134.962L479.86 134.962" stroke="#000000" stroke-width="0.398" fill="none" /><path id="3595" transform="matrix(1 0 0 -1 0 792)" d="M94.929 134.962L479.86 134.962" stroke="#000000" stroke-width="0.398" fill="none" /><path id="3596" transform="matrix(1 0 0 -1 0 792)" d="M95.129 107.664L95.129 134.762" stroke="#000000" stroke-width="0.398" fill="none" /><path id="3652" transform="matrix(1 0 0 -1 0 792)" d="M424.282 107.664L424.282 134.762" stroke="#000000" stroke-width="0.398" fill="none" /><path id="3654" transform="matrix(1 0 0 -1 0 792)" d="M479.661 107.664L479.661 134.762" stroke="#000000" stroke-width="0.398" fill="none" /><path id="3655" transform="matrix(1 0 0 -1 0 792)" d="M94.929 107.465L479.86 107.465" stroke="#000000" stroke-width="0.398" fill="none" /><path id="3656" transform="matrix(1 0 0 -1 0 792)" d="M94.929 107.465L479.86 107.465" stroke="#000000" stroke-width="0.398" fill="none" /><path id="3657" transform="matrix(1 0 0 -1 0 792)" d="M95.129 93.699L95.129 107.266" stroke="#000000" stroke-width="0.398" fill="none" /><path id="3705" transform="matrix(1 0 0 -1 0 792)" d="M424.282 93.699L424.282 107.266" stroke="#000000" stroke-width="0.398" fill="none" /><path id="3707" transform="matrix(1 0 0 -1 0 792)" d="M479.661 93.699L479.661 107.266" stroke="#000000" stroke-width="0.398" fill="none" /><path id="3708" transform="matrix(1 0 0 -1 0 792)" d="M94.929 93.5L479.86 93.5" stroke="#000000" stroke-width="0.398" fill="none" /><path id="3709" transform="matrix(1 0 0 -1 0 792)" d="M94.929 93.5L479.86 93.5" stroke="#000000" stroke-width="0.398" fill="none" /><path id="3710" transform="matrix(1 0 0 -1 0 792)" d="M95.129 66.202L95.129 93.3" stroke="#000000" stroke-width="0.398" fill="none" /><path id="3788" transform="matrix(1 0 0 -1 0 792)" d="M424.282 66.202L424.282 93.3" stroke="#000000" stroke-width="0.398" fill="none" /><path id="3790" transform="matrix(1 0 0 -1 0 792)" d="M479.661 66.202L479.661 93.3" stroke="#000000" stroke-width="0.398" fill="none" /><path id="3791" transform="matrix(1 0 0 -1 0 792)" d="M94.929 66.003L479.86 66.003" stroke="#000000" stroke-width="0.398" fill="none" /></g></g></svg>