<svg xmlns="http://www.w3.org/2000/svg" xmlns:xlink="http://www.w3.org/1999/xlink" id="body_12" preserveAspectRatio="xMinYMin meet" viewBox="0 0 1632 1056"><defs><clipPath id="1"><path id="" clip-rule="evenodd" transform="matrix(1 0 0 1 0 0)" d="M0 792L0 0L0 0L1224 0L1224 0L1224 792L1224 792L0 792z" /></clipPath></defs><g transform="matrix(1.333333 0 0 1.333333 0 0)"><g clip-path="url(#1)"><path id="17" transform="matrix(1 0 0 -1 0 792)" d="M666.067 721.28L1132.722 721.28" stroke="#000000" stroke-width="0.498" fill="none" /><path id="32" transform="matrix(1 0 0 -1 0 792)" d="M666.067 646.308L1050.998 646.308" stroke="#000000" stroke-width="0.398" fill="none" /><path id="33" transform="matrix(1 0 0 -1 0 792)" d="M666.266 632.542L666.266 646.109" stroke="#000000" stroke-width="0.398" fill="none" /><path id="34" transform="matrix(1 0 0 -1 0 792)" d="M666.4659 632.542L995.2209 632.542L995.2209 646.109L666.4659 646.109z" stroke="none" fill="#CCCCEB" fill-rule="nonzero" /><path id="44" transform="matrix(1 0 0 -1 0 792)" d="M995.42 632.542L995.42 646.109" stroke="#000000" stroke-width="0.398" fill="none" /><path id="45" transform="matrix(1 0 0 -1 0 792)" d="M995.619 632.542L1050.599 632.542L1050.599 646.109L995.619 646.109z" stroke="none" fill="#CCCCEB" fill-rule="nonzero" /><path id="52" transform="matrix(1 0 0 -1 0 792)" d="M1050.799 632.542L1050.799 646.109" stroke="#000000" stroke-width="0.398" fill="none" /><path id="53" transform="matrix(1 0 0 -1 0 792)" d="M666.067 632.342L1050.998 632.342" stroke="#000000" stroke-width="0.398" fill="none" /><path id="54" transform="matrix(1 0 0 -1 0 792)" d="M666.067 629.951L1050.998 629.951" stroke="#000000" stroke-width="0.398" fill="none" /><path id="55" transform="matrix(1 0 0 -1 0 792)" d="M666.266 616.185L666.266 629.752" stroke="#000000" stroke-width="0.398" fill="none" /><path id="87" transform="matrix(1 0 0 -1 0 792)" d="M995.42 616.185L995.42 629.752" stroke="#000000" stroke-width="0.398" fill="none" /><path id="89" transform="matrix(1 0 0 -1 0 792)" d="M1050.799 616.185L1050.799 629.752" stroke="#000000" stroke-width="0.398" fill="none" /><path id="90" transform="matrix(1 0 0 -1 0 792)" d="M666.067 615.986L1050.998 615.986" stroke="#000000" stroke-width="0.398" fill="none" /><path id="91" transform="matrix(1 0 0 -1 0 792)" d="M666.266 602.22L666.266 615.787" stroke="#000000" stroke-width="0.398" fill="none" /><path id="122" transform="matrix(1 0 0 -1 0 792)" d="M995.42 602.22L995.42 615.787" stroke="#000000" stroke-width="0.398" fill="none" /><path id="124" transform="matrix(1 0 0 -1 0 792)" d="M1050.799 602.22L1050.799 615.787" stroke="#000000" stroke-width="0.398" fill="none" /><path id="125" transform="matrix(1 0 0 -1 0 792)" d="M666.067 602.021L1050.998 602.021" stroke="#000000" stroke-width="0.398" fill="none" /><path id="155" transform="matrix(1 0 0 -1 0 792)" d="M706.929 419.344L1091.86 419.344" stroke="#000000" stroke-width="0.398" fill="none" /><path id="156" transform="matrix(1 0 0 -1 0 792)" d="M706.929 419.344L1091.86 419.344" stroke="#000000" stroke-width="0.398" fill="none" /><path id="157" transform="matrix(1 0 0 -1 0 792)" d="M707.129 405.578L707.129 419.145" stroke="#000000" stroke-width="0.398" fill="none" /><path id="158" transform="matrix(1 0 0 -1 0 792)" d="M707.328 405.578L1036.083 405.578L1036.083 419.145L707.328 419.145z" stroke="none" fill="#CCCCEB" fill-rule="nonzero" /><path id="168" transform="matrix(1 0 0 -1 0 792)" d="M1036.282 405.578L1036.282 419.145" stroke="#000000" stroke-width="0.398" fill="none" /><path id="169" transform="matrix(1 0 0 -1 0 792)" d="M1036.481 405.578L1091.461 405.578L1091.461 419.145L1036.481 419.145z" stroke="none" fill="#CCCCEB" fill-rule="nonzero" /><path id="176" transform="matrix(1 0 0 -1 0 792)" d="M1091.661 405.578L1091.661 419.145" stroke="#000000" stroke-width="0.398" fill="none" /><path id="177" transform="matrix(1 0 0 -1 0 792)" d="M706.929 405.379L1091.86 405.379" stroke="#000000" stroke-width="0.398" fill="none" /><path id="178" transform="matrix(1 0 0 -1 0 792)" d="M706.929 405.379L1091.86 405.379" stroke="#000000" stroke-width="0.398" fill="none" /><path id="179" transform="matrix(1 0 0 -1 0 792)" d="M706.929 404.98L1091.86 404.98" stroke="#000000" stroke-width="0.398" fill="none" /><path id="180" transform="matrix(1 0 0 -1 0 792)" d="M706.929 404.98L1091.86 404.98" stroke="#000000" stroke-width="0.398" fill="none" /><path id="181" transform="matrix(1 0 0 -1 0 792)" d="M707.129 391.214L707.129 404.781" stroke="#000000" stroke-width="0.398" fill="none" /><path id="213" transform="matrix(1 0 0 -1 0 792)" d="M1036.282 391.214L1036.282 404.781" stroke="#000000" stroke-width="0.398" fill="none" /><path id="215" transform="matrix(1 0 0 -1 0 792)" d="M1091.661 391.214L1091.661 404.781" stroke="#000000" stroke-width="0.398" fill="none" /><path id="216" transform="matrix(1 0 0 -1 0 792)" d="M706.929 391.015L1091.86 391.015" stroke="#000000" stroke-width="0.398" fill="none" /><path id="217" transform="matrix(1 0 0 -1 0 792)" d="M706.929 391.015L1091.86 391.015" stroke="#000000" stroke-width="0.398" fill="none" /><path id="218" transform="matrix(1 0 0 -1 0 792)" d="M707.129 377.249L707.129 390.816" stroke="#000000" stroke-width="0.398" fill="none" /><path id="251" transform="matrix(1 0 0 -1 0 792)" d="M1036.282 377.249L1036.282 390.816" stroke="#000000" stroke-width="0.398" fill="none" /><path id="253" transform="matrix(1 0 0 -1 0 792)" d="M1091.661 377.249L1091.661 390.816" stroke="#000000" stroke-width="0.398" fill="none" /><path id="254" transform="matrix(1 0 0 -1 0 792)" d="M706.929 377.05L1091.86 377.05" stroke="#000000" stroke-width="0.398" fill="none" /><path id="255" transform="matrix(1 0 0 -1 0 792)" d="M706.929 377.05L1091.86 377.05" stroke="#000000" stroke-width="0.398" fill="none" /><path id="256" transform="matrix(1 0 0 -1 0 792)" d="M707.129 363.284L707.129 376.851" stroke="#000000" stroke-width="0.398" fill="none" /><path id="294" transform="matrix(1 0 0 -1 0 792)" d="M1036.282 363.284L1036.282 376.851" stroke="#000000" stroke-width="0.398" fill="none" /><path id="296" transform="matrix(1 0 0 -1 0 792)" d="M1091.661 363.284L1091.661 376.851" stroke="#000000" stroke-width="0.398" fill="none" /><path id="297" transform="matrix(1 0 0 -1 0 792)" d="M706.929 363.085L1091.86 363.085" stroke="#000000" stroke-width="0.398" fill="none" /><path id="298" transform="matrix(1 0 0 -1 0 792)" d="M706.929 363.085L1091.86 363.085" stroke="#000000" stroke-width="0.398" fill="none" /><path id="299" transform="matrix(1 0 0 -1 0 792)" d="M707.129 349.319L707.129 362.886" stroke="#000000" stroke-width="0.398" fill="none" /><path id="324" transform="matrix(1 0 0 -1 0 792)" d="M1036.282 349.319L1036.282 362.886" stroke="#000000" stroke-width="0.398" fill="none" /><path id="326" transform="matrix(1 0 0 -1 0 792)" d="M1091.661 349.319L1091.661 362.886" stroke="#000000" stroke-width="0.398" fill="none" /><path id="327" transform="matrix(1 0 0 -1 0 792)" d="M706.929 349.12L1091.86 349.12" stroke="#000000" stroke-width="0.398" fill="none" /><path id="328" transform="matrix(1 0 0 -1 0 792)" d="M706.929 349.12L1091.86 349.12" stroke="#000000" stroke-width="0.398" fill="none" /><path id="329" transform="matrix(1 0 0 -1 0 792)" d="M707.129 335.354L707.129 348.921" stroke="#000000" stroke-width="0.398" fill="none" /><path id="357" transform="matrix(1 0 0 -1 0 792)" d="M1036.282 335.354L1036.282 348.921" stroke="#000000" stroke-width="0.398" fill="none" /><path id="359" transform="matrix(1 0 0 -1 0 792)" d="M1091.661 335.354L1091.661 348.921" stroke="#000000" stroke-width="0.398" fill="none" /><path id="360" transform="matrix(1 0 0 -1 0 792)" d="M706.929 335.155L1091.86 335.155" stroke="#000000" stroke-width="0.398" fill="none" /><path id="361" transform="matrix(1 0 0 -1 0 792)" d="M706.929 335.155L1091.86 335.155" stroke="#000000" stroke-width="0.398" fill="none" /><path id="362" transform="matrix(1 0 0 -1 0 792)" d="M707.129 321.389L707.129 334.956" stroke="#000000" stroke-width="0.398" fill="none" /><path id="391" transform="matrix(1 0 0 -1 0 792)" d="M1036.282 321.389L1036.282 334.956" stroke="#000000" stroke-width="0.398" fill="none" /><path id="393" transform="matrix(1 0 0 -1 0 792)" d="M1091.661 321.389L1091.661 334.956" stroke="#000000" stroke-width="0.398" fill="none" /><path id="394" transform="matrix(1 0 0 -1 0 792)" d="M706.929 321.189L1091.86 321.189" stroke="#000000" stroke-width="0.398" fill="none" /><path id="395" transform="matrix(1 0 0 -1 0 792)" d="M706.929 321.189L1091.86 321.189" stroke="#000000" stroke-width="0.398" fill="none" /><path id="396" transform="matrix(1 0 0 -1 0 792)" d="M707.129 307.424L707.129 320.991" stroke="#000000" stroke-width="0.398" fill="none" /><path id="424" transform="matrix(1 0 0 -1 0 792)" d="M1036.282 307.424L1036.282 320.991" stroke="#000000" stroke-width="0.398" fill="none" /><path id="426" transform="matrix(1 0 0 -1 0 792)" d="M1091.661 307.424L1091.661 320.991" stroke="#000000" stroke-width="0.398" fill="none" /><path id="427" transform="matrix(1 0 0 -1 0 792)" d="M706.929 307.224L1091.86 307.224" stroke="#000000" stroke-width="0.398" fill="none" /><path id="428" transform="matrix(1 0 0 -1 0 792)" d="M706.929 307.224L1091.86 307.224" stroke="#000000" stroke-width="0.398" fill="none" /><path id="429" transform="matrix(1 0 0 -1 0 792)" d="M707.129 293.458L707.129 307.025" stroke="#000000" stroke-width="0.398" fill="none" /><path id="458" transform="matrix(1 0 0 -1 0 792)" d="M1036.282 293.458L1036.282 307.025" stroke="#000000" stroke-width="0.398" fill="none" /><path id="460" transform="matrix(1 0 0 -1 0 792)" d="M1091.661 293.458L1091.661 307.025" stroke="#000000" stroke-width="0.398" fill="none" /><path id="461" transform="matrix(1 0 0 -1 0 792)" d="M706.929 293.259L1091.86 293.259" stroke="#000000" stroke-width="0.398" fill="none" /><path id="462" transform="matrix(1 0 0 -1 0 792)" d="M706.929 293.259L1091.86 293.259" stroke="#000000" stroke-width="0.398" fill="none" /><path id="463" transform="matrix(1 0 0 -1 0 792)" d="M707.129 279.493L707.129 293.06" stroke="#000000" stroke-width="0.398" fill="none" /><path id="499" transform="matrix(1 0 0 -1 0 792)" d="M1036.282 279.493L1036.282 293.06" stroke="#000000" stroke-width="0.398" fill="none" /><path id="501" transform="matrix(1 0 0 -1 0 792)" d="M1091.661 279.493L1091.661 293.06" stroke="#000000" stroke-width="0.398" fill="none" /><path id="502" transform="matrix(1 0 0 -1 0 792)" d="M706.929 279.294L1091.86 279.294" stroke="#000000" stroke-width="0.398" fill="none" /><path id="503" transform="matrix(1 0 0 -1 0 792)" d="M706.929 279.294L1091.86 279.294" stroke="#000000" stroke-width="0.398" fill="none" /><path id="504" transform="matrix(1 0 0 -1 0 792)" d="M707.129 265.528L707.129 279.095" stroke="#000000" stroke-width="0.398" fill="none" /><path id="540" transform="matrix(1 0 0 -1 0 792)" d="M1036.282 265.528L1036.282 279.095" stroke="#000000" stroke-width="0.398" fill="none" /><path id="542" transform="matrix(1 0 0 -1 0 792)" d="M1091.661 265.528L1091.661 279.095" stroke="#000000" stroke-width="0.398" fill="none" /><path id="543" transform="matrix(1 0 0 -1 0 792)" d="M706.929 265.329L1091.86 265.329" stroke="#000000" stroke-width="0.398" fill="none" /><path id="544" transform="matrix(1 0 0 -1 0 792)" d="M706.929 265.329L1091.86 265.329" stroke="#000000" stroke-width="0.398" fill="none" /><path id="545" transform="matrix(1 0 0 -1 0 792)" d="M707.129 251.563L707.129 265.13" stroke="#000000" stroke-width="0.398" fill="none" /><path id="568" transform="matrix(1 0 0 -1 0 792)" d="M1036.282 251.563L1036.282 265.13" stroke="#000000" stroke-width="0.398" fill="none" /><path id="570" transform="matrix(1 0 0 -1 0 792)" d="M1091.661 251.563L1091.661 265.13" stroke="#000000" stroke-width="0.398" fill="none" /><path id="571" transform="matrix(1 0 0 -1 0 792)" d="M706.929 251.364L1091.86 251.364" stroke="#000000" stroke-width="0.398" fill="none" /><path id="572" transform="matrix(1 0 0 -1 0 792)" d="M706.929 251.364L1091.86 251.364" stroke="#000000" stroke-width="0.398" fill="none" /><path id="573" transform="matrix(1 0 0 -1 0 792)" d="M707.129 237.598L707.129 251.165" stroke="#000000" stroke-width="0.398" fill="none" /><path id="618" transform="matrix(1 0 0 -1 0 792)" d="M1036.282 237.598L1036.282 251.165" stroke="#000000" stroke-width="0.398" fill="none" /><path id="620" transform="matrix(1 0 0 -1 0 792)" d="M1091.661 237.598L1091.661 251.165" stroke="#000000" stroke-width="0.398" fill="none" /><path id="621" transform="matrix(1 0 0 -1 0 792)" d="M706.929 237.399L1091.86 237.399" stroke="#000000" stroke-width="0.398" fill="none" /><path id="622" transform="matrix(1 0 0 -1 0 792)" d="M706.929 237.399L1091.86 237.399" stroke="#000000" stroke-width="0.398" fill="none" /><path id="623" transform="matrix(1 0 0 -1 0 792)" d="M707.129 210.101L707.129 237.199" stroke="#000000" stroke-width="0.398" fill="none" /><path id="672" transform="matrix(1 0 0 -1 0 792)" d="M1036.282 210.101L1036.282 237.199" stroke="#000000" stroke-width="0.398" fill="none" /><path id="674" transform="matrix(1 0 0 -1 0 792)" d="M1091.661 210.101L1091.661 237.199" stroke="#000000" stroke-width="0.398" fill="none" /><path id="675" transform="matrix(1 0 0 -1 0 792)" d="M706.929 209.902L1091.86 209.902" stroke="#000000" stroke-width="0.398" fill="none" /><path id="676" transform="matrix(1 0 0 -1 0 792)" d="M706.929 209.902L1091.86 209.902" stroke="#000000" stroke-width="0.398" fill="none" /><path id="677" transform="matrix(1 0 0 -1 0 792)" d="M707.129 196.136L707.129 209.703" stroke="#000000" stroke-width="0.398" fill="none" /><path id="710" transform="matrix(1 0 0 -1 0 792)" d="M1036.282 196.136L1036.282 209.703" stroke="#000000" stroke-width="0.398" fill="none" /><path id="712" transform="matrix(1 0 0 -1 0 792)" d="M1091.661 196.136L1091.661 209.703" stroke="#000000" stroke-width="0.398" fill="none" /><path id="713" transform="matrix(1 0 0 -1 0 792)" d="M706.929 195.937L1091.86 195.937" stroke="#000000" stroke-width="0.398" fill="none" /><path id="714" transform="matrix(1 0 0 -1 0 792)" d="M706.929 195.937L1091.86 195.937" stroke="#000000" stroke-width="0.398" fill="none" /><path id="715" transform="matrix(1 0 0 -1 0 792)" d="M707.129 182.171L707.129 195.738" stroke="#000000" stroke-width="0.398" fill="none" /><path id="751" transform="matrix(1 0 0 -1 0 792)" d="M1036.282 182.171L1036.282 195.738" stroke="#000000" stroke-width="0.398" fill="none" /><path id="753" transform="matrix(1 0 0 -1 0 792)" d="M1091.661 182.171L1091.661 195.738" stroke="#000000" stroke-width="0.398" fill="none" /><path id="754" transform="matrix(1 0 0 -1 0 792)" d="M706.929 181.971L1091.86 181.971" stroke="#000000" stroke-width="0.398" fill="none" /><path id="755" transform="matrix(1 0 0 -1 0 792)" d="M706.929 181.971L1091.86 181.971" stroke="#000000" stroke-width="0.398" fill="none" /><path id="756" transform="matrix(1 0 0 -1 0 792)" d="M707.129 168.206L707.129 181.773" stroke="#000000" stroke-width="0.398" fill="none" /><path id="793" transform="matrix(1 0 0 -1 0 792)" d="M1036.282 168.206L1036.282 181.773" stroke="#000000" stroke-width="0.398" fill="none" /><path id="795" transform="matrix(1 0 0 -1 0 792)" d="M1091.661 168.206L1091.661 181.773" stroke="#000000" stroke-width="0.398" fill="none" /><path id="796" transform="matrix(1 0 0 -1 0 792)" d="M706.929 168.006L1091.86 168.006" stroke="#000000" stroke-width="0.398" fill="none" /><path id="797" transform="matrix(1 0 0 -1 0 792)" d="M706.929 168.006L1091.86 168.006" stroke="#000000" stroke-width="0.398" fill="none" /><path id="798" transform="matrix(1 0 0 -1 0 792)" d="M707.129 154.24L707.129 167.807" stroke="#000000" stroke-width="0.398" fill="none" /><path id="838" transform="matrix(1 0 0 -1 0 792)" d="M1036.282 154.24L1036.282 167.807" stroke="#000000" stroke-width="0.398" fill="none" /><path id="840" transform="matrix(1 0 0 -1 0 792)" d="M1091.661 154.24L1091.661 167.807" stroke="#000000" stroke-width="0.398" fill="none" /><path id="841" transform="matrix(1 0 0 -1 0 792)" d="M706.929 154.041L1091.86 154.041" stroke="#000000" stroke-width="0.398" fill="none" /><path id="842" transform="matrix(1 0 0 -1 0 792)" d="M706.929 154.041L1091.86 154.041" stroke="#000000" stroke-width="0.398" fill="none" /><path id="843" transform="matrix(1 0 0 -1 0 792)" d="M707.129 126.743L707.129 153.841" stroke="#000000" stroke-width="0.398" fill="none" /><path id="904" transform="matrix(1 0 0 -1 0 792)" d="M1036.282 126.743L1036.282 153.841" stroke="#000000" stroke-width="0.398" fill="none" /><path id="906" transform="matrix(1 0 0 -1 0 792)" d="M1091.661 126.743L1091.661 153.841" stroke="#000000" stroke-width="0.398" fill="none" /><path id="907" transform="matrix(1 0 0 -1 0 792)" d="M706.929 126.544L1091.86 126.544" stroke="#000000" stroke-width="0.398" fill="none" /><path id="908" transform="matrix(1 0 0 -1 0 792)" d="M706.929 126.544L1091.86 126.544" stroke="#000000" stroke-width="0.398" fill="none" /><path id="909" transform="matrix(1 0 0 -1 0 792)" d="M707.129 99.247L707.129 126.345" stroke="#000000" stroke-width="0.398" fill="none" /><path id="968" transform="matrix(1 0 0 -1 0 792)" d="M1036.282 99.247L1036.282 126.345" stroke="#000000" stroke-width="0.398" fill="none" /><path id="970" transform="matrix(1 0 0 -1 0 792)" d="M1091.661 99.247L1091.661 126.345" stroke="#000000" stroke-width="0.398" fill="none" /><path id="971" transform="matrix(1 0 0 -1 0 792)" d="M706.929 99.047L1091.86 99.047" stroke="#000000" stroke-width="0.398" fill="none" /><path id="972" transform="matrix(1 0 0 -1 0 792)" d="M706.929 99.047L1091.86 99.047" stroke="#000000" stroke-width="0.398" fill="none" /><path id="973" transform="matrix(1 0 0 -1 0 792)" d="M707.129 71.75L707.129 98.848" stroke="#000000" stroke-width="0.398" fill="none" /><path id="1029" transform="matrix(1 0 0 -1 0 792)" d="M1036.282 71.75L1036.282 98.848" stroke="#000000" stroke-width="0.398" fill="none" /><path id="1031" transform="matrix(1 0 0 -1 0 792)" d="M1091.661 71.75L1091.661 98.848" stroke="#000000" stroke-width="0.398" fill="none" /><path id="1032" transform="matrix(1 0 0 -1 0 792)" d="M706.929 71.55L1091.86 71.55" stroke="#000000" stroke-width="0.398" fill="none" /><path id="1033" transform="matrix(1 0 0 -1 0 792)" d="M666.067 657.759L960.853 657.759L960.853 657.759L960.853 670.9045L960.853 670.9045L666.067 670.9045z" stroke="#FFFFFF" stroke-width="1" fill="#FFFFFF" fill-rule="nonzero" /><path id="1047" transform="matrix(1 0 0 -1 0 792)" d="M693.34 556.513L1132.724 556.513L1132.724 556.513L1132.724 580.8018L1132.724 580.8018L693.34 580.8018z" stroke="#FFFFFF" stroke-width="1" fill="#FFFFFF" fill-rule="nonzero" /><path id="1086" transform="matrix(1 0 0 -1 0 792)" d="M666.067 455.684L1132.725 455.684L1132.725 455.684L1132.725 509.4775L1132.725 509.4775L666.067 509.4775z" stroke="#FFFFFF" stroke-width="1" fill="#FFFFFF" fill-rule="nonzero" /><path id="1194" transform="matrix(1 0 0 -1 0 792)" d="M683.004 441.803L1132.72 441.803L1132.72 441.803L1132.72 455.2803L1132.72 455.2803L683.004 455.2803z" stroke="#FFFFFF" stroke-width="1" fill="#FFFFFF" fill-rule="nonzero" /><path id="1220" transform="matrix(1 0 0 -1 0 792)" d="M666.067 428.586L840.394 428.586L840.394 428.586L840.394 441.7315L840.394 441.7315L666.067 441.7315z" stroke="#FFFFFF" stroke-width="1" fill="#FFFFFF" fill-rule="nonzero" /><path id="1267" transform="matrix(1 0 0 -1 0 792)" d="M54.067 721.28L520.722 721.28" stroke="#000000" stroke-width="0.498" fill="none" /><path id="1340" transform="matrix(1 0 0 -1 0 792)" d="M54.067 646.308L438.998 646.308" stroke="#000000" stroke-width="0.398" fill="none" /><path id="1341" transform="matrix(1 0 0 -1 0 792)" d="M54.266 632.542L54.266 646.109" stroke="#000000" stroke-width="0.398" fill="none" /><path id="1342" transform="matrix(1 0 0 -1 0 792)" d="M54.466 632.542L383.221 632.542L383.221 646.109L54.466 646.109z" stroke="none" fill="#CCCCEB" fill-rule="nonzero" /><path id="1352" transform="matrix(1 0 0 -1 0 792)" d="M383.42 632.542L383.42 646.109" stroke="#000000" stroke-width="0.398" fill="none" /><path id="1353" transform="matrix(1 0 0 -1 0 792)" d="M383.619 632.542L438.599 632.542L438.599 646.109L383.619 646.109z" stroke="none" fill="#CCCCEB" fill-rule="nonzero" /><path id="1360" transform="matrix(1 0 0 -1 0 792)" d="M438.799 632.542L438.799 646.109" stroke="#000000" stroke-width="0.398" fill="none" /><path id="1361" transform="matrix(1 0 0 -1 0 792)" d="M54.067 632.342L438.998 632.342" stroke="#000000" stroke-width="0.398" fill="none" /><path id="1362" transform="matrix(1 0 0 -1 0 792)" d="M54.067 629.951L438.998 629.951" stroke="#000000" stroke-width="0.398" fill="none" /><path id="1363" transform="matrix(1 0 0 -1 0 792)" d="M54.266 616.185L54.266 629.752" stroke="#000000" stroke-width="0.398" fill="none" /><path id="1395" transform="matrix(1 0 0 -1 0 792)" d="M383.42 616.185L383.42 629.752" stroke="#000000" stroke-width="0.398" fill="none" /><path id="1397" transform="matrix(1 0 0 -1 0 792)" d="M438.799 616.185L438.799 629.752" stroke="#000000" stroke-width="0.398" fill="none" /><path id="1398" transform="matrix(1 0 0 -1 0 792)" d="M54.067 615.986L438.998 615.986" stroke="#000000" stroke-width="0.398" fill="none" /><path id="1399" transform="matrix(1 0 0 -1 0 792)" d="M54.266 602.22L54.266 615.787" stroke="#000000" stroke-width="0.398" fill="none" /><path id="1430" transform="matrix(1 0 0 -1 0 792)" d="M383.42 602.22L383.42 615.787" stroke="#000000" stroke-width="0.398" fill="none" /><path id="1432" transform="matrix(1 0 0 -1 0 792)" d="M438.799 602.22L438.799 615.787" stroke="#000000" stroke-width="0.398" fill="none" /><path id="1433" transform="matrix(1 0 0 -1 0 792)" d="M54.067 602.021L438.998 602.021" stroke="#000000" stroke-width="0.398" fill="none" /><path id="1989" transform="matrix(1 0 0 -1 0 792)" d="M94.929 419.344L479.86 419.344" stroke="#000000" stroke-width="0.398" fill="none" /><path id="1990" transform="matrix(1 0 0 -1 0 792)" d="M94.929 419.344L479.86 419.344" stroke="#000000" stroke-width="0.398" fill="none" /><path id="1991" transform="matrix(1 0 0 -1 0 792)" d="M95.129 405.578L95.129 419.145" stroke="#000000" stroke-width="0.398" fill="none" /><path id="1992" transform="matrix(1 0 0 -1 0 792)" d="M95.328 405.578L424.083 405.578L424.083 419.145L95.328 419.145z" stroke="none" fill="#CCCCEB" fill-rule="nonzero" /><path id="2002" transform="matrix(1 0 0 -1 0 792)" d="M424.282 405.578L424.282 419.145" stroke="#000000" stroke-width="0.398" fill="none" /><path id="2003" transform="matrix(1 0 0 -1 0 792)" d="M424.481 405.578L479.461 405.578L479.461 419.145L424.481 419.145z" stroke="none" fill="#CCCCEB" fill-rule="nonzero" /><path id="2010" transform="matrix(1 0 0 -1 0 792)" d="M479.661 405.578L479.661 419.145" stroke="#000000" stroke-width="0.398" fill="none" /><path id="2011" transform="matrix(1 0 0 -1 0 792)" d="M94.929 405.379L479.86 405.379" stroke="#000000" stroke-width="0.398" fill="none" /><path id="2012" transform="matrix(1 0 0 -1 0 792)" d="M94.929 405.379L479.86 405.379" stroke="#000000" stroke-width="0.398" fill="none" /><path id="2013" transform="matrix(1 0 0 -1 0 792)" d="M94.929 404.98L479.86 404.98" stroke="#000000" stroke-width="0.398" fill="none" /><path id="2014" transform="matrix(1 0 0 -1 0 792)" d="M94.929 404.98L479.86 404.98" stroke="#000000" stroke-width="0.398" fill="none" /><path id="2015" transform="matrix(1 0 0 -1 0 792)" d="M95.129 391.214L95.129 404.781" stroke="#000000" stroke-width="0.398" fill="none" /><path id="2047" transform="matrix(1 0 0 -1 0 792)" d="M424.282 391.214L424.282 404.781" stroke="#000000" stroke-width="0.398" fill="none" /><path id="2049" transform="matrix(1 0 0 -1 0 792)" d="M479.661 391.214L479.661 404.781" stroke="#000000" stroke-width="0.398" fill="none" /><path id="2050" transform="matrix(1 0 0 -1 0 792)" d="M94.929 391.015L479.86 391.015" stroke="#000000" stroke-width="0.398" fill="none" /><path id="2051" transform="matrix(1 0 0 -1 0 792)" d="M94.929 391.015L479.86 391.015" stroke="#000000" stroke-width="0.398" fill="none" /><path id="2052" transform="matrix(1 0 0 -1 0 792)" d="M95.129 377.249L95.129 390.816" stroke="#000000" stroke-width="0.398" fill="none" /><path id="2085" transform="matrix(1 0 0 -1 0 792)" d="M424.282 377.249L424.282 390.816" stroke="#000000" stroke-width="0.398" fill="none" /><path id="2087" transform="matrix(1 0 0 -1 0 792)" d="M479.661 377.249L479.661 390.816" stroke="#000000" stroke-width="0.398" fill="none" /><path id="2088" transform="matrix(1 0 0 -1 0 792)" d="M94.929 377.05L479.86 377.05" stroke="#000000" stroke-width="0.398" fill="none" /><path id="2089" transform="matrix(1 0 0 -1 0 792)" d="M94.929 377.05L479.86 377.05" stroke="#000000" stroke-width="0.398" fill="none" /><path id="2090" transform="matrix(1 0 0 -1 0 792)" d="M95.129 363.284L95.129 376.851" stroke="#000000" stroke-width="0.398" fill="none" /><path id="2128" transform="matrix(1 0 0 -1 0 792)" d="M424.282 363.284L424.282 376.851" stroke="#000000" stroke-width="0.398" fill="none" /><path id="2130" transform="matrix(1 0 0 -1 0 792)" d="M479.661 363.284L479.661 376.851" stroke="#000000" stroke-width="0.398" fill="none" /><path id="2131" transform="matrix(1 0 0 -1 0 792)" d="M94.929 363.085L479.86 363.085" stroke="#000000" stroke-width="0.398" fill="none" /><path id="2132" transform="matrix(1 0 0 -1 0 792)" d="M94.929 363.085L479.86 363.085" stroke="#000000" stroke-width="0.398" fill="none" /><path id="2133" transform="matrix(1 0 0 -1 0 792)" d="M95.129 349.319L95.129 362.886" stroke="#000000" stroke-width="0.398" fill="none" /><path id="2158" transform="matrix(1 0 0 -1 0 792)" d="M424.282 349.319L424.282 362.886" stroke="#000000" stroke-width="0.398" fill="none" /><path id="2160" transform="matrix(1 0 0 -1 0 792)" d="M479.661 349.319L479.661 362.886" stroke="#000000" stroke-width="0.398" fill="none" /><path id="2161" transform="matrix(1 0 0 -1 0 792)" d="M94.929 349.12L479.86 349.12" stroke="#000000" stroke-width="0.398" fill="none" /><path id="2162" transform="matrix(1 0 0 -1 0 792)" d="M94.929 349.12L479.86 349.12" stroke="#000000" stroke-width="0.398" fill="none" /><path id="2163" transform="matrix(1 0 0 -1 0 792)" d="M95.129 335.354L95.129 348.921" stroke="#000000" stroke-width="0.398" fill="none" /><path id="2191" transform="matrix(1 0 0 -1 0 792)" d="M424.282 335.354L424.282 348.921" stroke="#000000" stroke-width="0.398" fill="none" /><path id="2193" transform="matrix(1 0 0 -1 0 792)" d="M479.661 335.354L479.661 348.921" stroke="#000000" stroke-width="0.398" fill="none" /><path id="2194" transform="matrix(1 0 0 -1 0 792)" d="M94.929 335.155L479.86 335.155" stroke="#000000" stroke-width="0.398" fill="none" /><path id="2195" transform="matrix(1 0 0 -1 0 792)" d="M94.929 335.155L479.86 335.155" stroke="#000000" stroke-width="0.398" fill="none" /><path id="2196" transform="matrix(1 0 0 -1 0 792)" d="M95.129 321.389L95.129 334.956" stroke="#000000" stroke-width="0.398" fill="none" /><path id="2225" transform="matrix(1 0 0 -1 0 792)" d="M424.282 321.389L424.282 334.956" stroke="#000000" stroke-width="0.398" fill="none" /><path id="2227" transform="matrix(1 0 0 -1 0 792)" d="M479.661 321.389L479.661 334.956" stroke="#000000" stroke-width="0.398" fill="none" /><path id="2228" transform="matrix(1 0 0 -1 0 792)" d="M94.929 321.189L479.86 321.189" stroke="#000000" stroke-width="0.398" fill="none" /><path id="2229" transform="matrix(1 0 0 -1 0 792)" d="M94.929 321.189L479.86 321.189" stroke="#000000" stroke-width="0.398" fill="none" /><path id="2230" transform="matrix(1 0 0 -1 0 792)" d="M95.129 307.424L95.129 320.991" stroke="#000000" stroke-width="0.398" fill="none" /><path id="2258" transform="matrix(1 0 0 -1 0 792)" d="M424.282 307.424L424.282 320.991" stroke="#000000" stroke-width="0.398" fill="none" /><path id="2260" transform="matrix(1 0 0 -1 0 792)" d="M479.661 307.424L479.661 320.991" stroke="#000000" stroke-width="0.398" fill="none" /><path id="2261" transform="matrix(1 0 0 -1 0 792)" d="M94.929 307.224L479.86 307.224" stroke="#000000" stroke-width="0.398" fill="none" /><path id="2262" transform="matrix(1 0 0 -1 0 792)" d="M94.929 307.224L479.86 307.224" stroke="#000000" stroke-width="0.398" fill="none" /><path id="2263" transform="matrix(1 0 0 -1 0 792)" d="M95.129 293.458L95.129 307.025" stroke="#000000" stroke-width="0.398" fill="none" /><path id="2292" transform="matrix(1 0 0 -1 0 792)" d="M424.282 293.458L424.282 307.025" stroke="#000000" stroke-width="0.398" fill="none" /><path id="2294" transform="matrix(1 0 0 -1 0 792)" d="M479.661 293.458L479.661 307.025" stroke="#000000" stroke-width="0.398" fill="none" /><path id="2295" transform="matrix(1 0 0 -1 0 792)" d="M94.929 293.259L479.86 293.259" stroke="#000000" stroke-width="0.398" fill="none" /><path id="2296" transform="matrix(1 0 0 -1 0 792)" d="M94.929 293.259L479.86 293.259" stroke="#000000" stroke-width="0.398" fill="none" /><path id="2297" transform="matrix(1 0 0 -1 0 792)" d="M95.129 279.493L95.129 293.06" stroke="#000000" stroke-width="0.398" fill="none" /><path id="2333" transform="matrix(1 0 0 -1 0 792)" d="M424.282 279.493L424.282 293.06" stroke="#000000" stroke-width="0.398" fill="none" /><path id="2335" transform="matrix(1 0 0 -1 0 792)" d="M479.661 279.493L479.661 293.06" stroke="#000000" stroke-width="0.398" fill="none" /><path id="2336" transform="matrix(1 0 0 -1 0 792)" d="M94.929 279.294L479.86 279.294" stroke="#000000" stroke-width="0.398" fill="none" /><path id="2337" transform="matrix(1 0 0 -1 0 792)" d="M94.929 279.294L479.86 279.294" stroke="#000000" stroke-width="0.398" fill="none" /><path id="2338" transform="matrix(1 0 0 -1 0 792)" d="M95.129 265.528L95.129 279.095" stroke="#000000" stroke-width="0.398" fill="none" /><path id="2374" transform="matrix(1 0 0 -1 0 792)" d="M424.282 265.528L424.282 279.095" stroke="#000000" stroke-width="0.398" fill="none" /><path id="2376" transform="matrix(1 0 0 -1 0 792)" d="M479.661 265.528L479.661 279.095" stroke="#000000" stroke-width="0.398" fill="none" /><path id="2377" transform="matrix(1 0 0 -1 0 792)" d="M94.929 265.329L479.86 265.329" stroke="#000000" stroke-width="0.398" fill="none" /><path id="2378" transform="matrix(1 0 0 -1 0 792)" d="M94.929 265.329L479.86 265.329" stroke="#000000" stroke-width="0.398" fill="none" /><path id="2379" transform="matrix(1 0 0 -1 0 792)" d="M95.129 251.563L95.129 265.13" stroke="#000000" stroke-width="0.398" fill="none" /><path id="2402" transform="matrix(1 0 0 -1 0 792)" d="M424.282 251.563L424.282 265.13" stroke="#000000" stroke-width="0.398" fill="none" /><path id="2404" transform="matrix(1 0 0 -1 0 792)" d="M479.661 251.563L479.661 265.13" stroke="#000000" stroke-width="0.398" fill="none" /><path id="2405" transform="matrix(1 0 0 -1 0 792)" d="M94.929 251.364L479.86 251.364" stroke="#000000" stroke-width="0.398" fill="none" /><path id="2406" transform="matrix(1 0 0 -1 0 792)" d="M94.929 251.364L479.86 251.364" stroke="#000000" stroke-width="0.398" fill="none" /><path id="2407" transform="matrix(1 0 0 -1 0 792)" d="M95.129 237.598L95.129 251.165" stroke="#000000" stroke-width="0.398" fill="none" /><path id="2452" transform="matrix(1 0 0 -1 0 792)" d="M424.282 237.598L424.282 251.165" stroke="#000000" stroke-width="0.398" fill="none" /><path id="2454" transform="matrix(1 0 0 -1 0 792)" d="M479.661 237.598L479.661 251.165" stroke="#000000" stroke-width="0.398" fill="none" /><path id="2455" transform="matrix(1 0 0 -1 0 792)" d="M94.929 237.399L479.86 237.399" stroke="#000000" stroke-width="0.398" fill="none" /><path id="2456" transform="matrix(1 0 0 -1 0 792)" d="M94.929 237.399L479.86 237.399" stroke="#000000" stroke-width="0.398" fill="none" /><path id="2457" transform="matrix(1 0 0 -1 0 792)" d="M95.129 210.101L95.129 237.199" stroke="#000000" stroke-width="0.398" fill="none" /><path id="2506" transform="matrix(1 0 0 -1 0 792)" d="M424.282 210.101L424.282 237.199" stroke="#000000" stroke-width="0.398" fill="none" /><path id="2508" transform="matrix(1 0 0 -1 0 792)" d="M479.661 210.101L479.661 237.199" stroke="#000000" stroke-width="0.398" fill="none" /><path id="2509" transform="matrix(1 0 0 -1 0 792)" d="M94.929 209.902L479.86 209.902" stroke="#000000" stroke-width="0.398" fill="none" /><path id="2510" transform="matrix(1 0 0 -1 0 792)" d="M94.929 209.902L479.86 209.902" stroke="#000000" stroke-width="0.398" fill="none" /><path id="2511" transform="matrix(1 0 0 -1 0 792)" d="M95.129 196.136L95.129 209.703" stroke="#000000" stroke-width="0.398" fill="none" /><path id="2544" transform="matrix(1 0 0 -1 0 792)" d="M424.282 196.136L424.282 209.703" stroke="#000000" stroke-width="0.398" fill="none" /><path id="2546" transform="matrix(1 0 0 -1 0 792)" d="M479.661 196.136L479.661 209.703" stroke="#000000" stroke-width="0.398" fill="none" /><path id="2547" transform="matrix(1 0 0 -1 0 792)" d="M94.929 195.937L479.86 195.937" stroke="#000000" stroke-width="0.398" fill="none" /><path id="2548" transform="matrix(1 0 0 -1 0 792)" d="M94.929 195.937L479.86 195.937" stroke="#000000" stroke-width="0.398" fill="none" /><path id="2549" transform="matrix(1 0 0 -1 0 792)" d="M95.129 182.171L95.129 195.738" stroke="#000000" stroke-width="0.398" fill="none" /><path id="2585" transform="matrix(1 0 0 -1 0 792)" d="M424.282 182.171L424.282 195.738" stroke="#000000" stroke-width="0.398" fill="none" /><path id="2587" transform="matrix(1 0 0 -1 0 792)" d="M479.661 182.171L479.661 195.738" stroke="#000000" stroke-width="0.398" fill="none" /><path id="2588" transform="matrix(1 0 0 -1 0 792)" d="M94.929 181.971L479.86 181.971" stroke="#000000" stroke-width="0.398" fill="none" /><path id="2589" transform="matrix(1 0 0 -1 0 792)" d="M94.929 181.971L479.86 181.971" stroke="#000000" stroke-width="0.398" fill="none" /><path id="2590" transform="matrix(1 0 0 -1 0 792)" d="M95.129 168.206L95.129 181.773" stroke="#000000" stroke-width="0.398" fill="none" /><path id="2627" transform="matrix(1 0 0 -1 0 792)" d="M424.282 168.206L424.282 181.773" stroke="#000000" stroke-width="0.398" fill="none" /><path id="2629" transform="matrix(1 0 0 -1 0 792)" d="M479.661 168.206L479.661 181.773" stroke="#000000" stroke-width="0.398" fill="none" /><path id="2630" transform="matrix(1 0 0 -1 0 792)" d="M94.929 168.006L479.86 168.006" stroke="#000000" stroke-width="0.398" fill="none" /><path id="2631" transform="matrix(1 0 0 -1 0 792)" d="M94.929 168.006L479.86 168.006" stroke="#000000" stroke-width="0.398" fill="none" /><path id="2632" transform="matrix(1 0 0 -1 0 792)" d="M95.129 154.24L95.129 167.807" stroke="#000000" stroke-width="0.398" fill="none" /><path id="2672" transform="matrix(1 0 0 -1 0 792)" d="M424.282 154.24L424.282 167.807" stroke="#000000" stroke-width="0.398" fill="none" /><path id="2674" transform="matrix(1 0 0 -1 0 792)" d="M479.661 154.24L479.661 167.807" stroke="#000000" stroke-width="0.398" fill="none" /><path id="2675" transform="matrix(1 0 0 -1 0 792)" d="M94.929 154.041L479.86 154.041" stroke="#000000" stroke-width="0.398" fill="none" /><path id="2676" transform="matrix(1 0 0 -1 0 792)" d="M94.929 154.041L479.86 154.041" stroke="#000000" stroke-width="0.398" fill="none" /><path id="2677" transform="matrix(1 0 0 -1 0 792)" d="M95.129 126.743L95.129 153.841" stroke="#000000" stroke-width="0.398" fill="none" /><path id="2738" transform="matrix(1 0 0 -1 0 792)" d="M424.282 126.743L424.282 153.841" stroke="#000000" stroke-width="0.398" fill="none" /><path id="2740" transform="matrix(1 0 0 -1 0 792)" d="M479.661 126.743L479.661 153.841" stroke="#000000" stroke-width="0.398" fill="none" /><path id="2741" transform="matrix(1 0 0 -1 0 792)" d="M94.929 126.544L479.86 126.544" stroke="#000000" stroke-width="0.398" fill="none" /><path id="2742" transform="matrix(1 0 0 -1 0 792)" d="M94.929 126.544L479.86 126.544" stroke="#000000" stroke-width="0.398" fill="none" /><path id="2743" transform="matrix(1 0 0 -1 0 792)" d="M95.129 99.247L95.129 126.345" stroke="#000000" stroke-width="0.398" fill="none" /><path id="2802" transform="matrix(1 0 0 -1 0 792)" d="M424.282 99.247L424.282 126.345" stroke="#000000" stroke-width="0.398" fill="none" /><path id="2804" transform="matrix(1 0 0 -1 0 792)" d="M479.661 99.247L479.661 126.345" stroke="#000000" stroke-width="0.398" fill="none" /><path id="2805" transform="matrix(1 0 0 -1 0 792)" d="M94.929 99.047L479.86 99.047" stroke="#000000" stroke-width="0.398" fill="none" /><path id="2806" transform="matrix(1 0 0 -1 0 792)" d="M94.929 99.047L479.86 99.047" stroke="#000000" stroke-width="0.398" fill="none" /><path id="2807" transform="matrix(1 0 0 -1 0 792)" d="M95.129 71.75L95.129 98.848" stroke="#000000" stroke-width="0.398" fill="none" /><path id="2863" transform="matrix(1 0 0 -1 0 792)" d="M424.282 71.75L424.282 98.848" stroke="#000000" stroke-width="0.398" fill="none" /><path id="2865" transform="matrix(1 0 0 -1 0 792)" d="M479.661 71.75L479.661 98.848" stroke="#000000" stroke-width="0.398" fill="none" /><path id="2866" transform="matrix(1 0 0 -1 0 792)" d="M94.929 71.55L479.86 71.55" stroke="#000000" stroke-width="0.398" fill="none" /></g></g></svg>